<svg width="107" height="45" viewBox="0 0 107 45" fill="none" xmlns="http://www.w3.org/2000/svg">
<path d="M0 29V0.679998H1.44V29H0ZM2.88 29V0.679998H4.32V29H2.88ZM8.64 29V0.679998H11.52V29H8.64ZM9.696 41.048H6.096L4.992 44.312H3.744L7.824 32.984H7.968L12.096 44.312H10.8L9.696 41.048ZM9.36 40.088L7.92 35.864L6.432 40.088H9.36ZM23.0438 29V0.679998H24.4838V29H23.0438ZM28.8038 29V0.679998H30.2438V29H28.8038ZM31.6838 29V0.679998H34.5638V29H31.6838ZM27.3638 33.176H30.5318C31.7478 33.176 32.6598 33.416 33.2678 33.896C33.9078 34.376 34.2278 35.048 34.2278 35.912C34.2278 36.456 34.0838 36.952 33.7958 37.4C33.4758 37.848 33.0598 38.168 32.5478 38.36C33.1878 38.584 33.6998 38.952 34.0838 39.464C34.4678 40.008 34.6598 40.584 34.6598 41.192C34.6598 42.152 34.3078 42.92 33.6038 43.496C32.9318 44.04 31.8918 44.312 30.4838 44.312H27.3638V33.176ZM30.3398 37.784C32.0998 37.784 32.9798 37.192 32.9798 36.008C32.9798 35.496 32.7718 35.08 32.3558 34.76C31.9718 34.408 31.3638 34.232 30.5318 34.232H28.5638V37.784H30.3398ZM30.7238 43.208C32.4518 43.208 33.3158 42.504 33.3158 41.096C33.3158 39.592 32.3398 38.84 30.3878 38.84H28.5638V43.208H30.7238ZM46.0875 29V0.679998H47.5275V29H46.0875ZM51.8475 29V0.679998H56.1675V29H51.8475ZM57.6075 29V0.679998H60.4875V29H57.6075ZM54.0075 44.504C52.7275 44.504 51.7515 44.008 51.0795 43.016C50.3755 42.024 50.0235 40.616 50.0235 38.792C50.0235 37.032 50.3755 35.64 51.0795 34.616C51.7835 33.624 52.7595 33.128 54.0075 33.128C55.2555 33.128 56.2315 33.624 56.9355 34.616C57.6395 35.64 57.9915 37.032 57.9915 38.792C57.9915 40.616 57.6395 42.024 56.9355 43.016C56.2635 44.008 55.2875 44.504 54.0075 44.504ZM54.0075 43.4C54.8715 43.4 55.5275 43.016 55.9755 42.248C56.4555 41.448 56.6955 40.296 56.6955 38.792C56.6955 37.384 56.4555 36.264 55.9755 35.432C55.4955 34.632 54.8395 34.232 54.0075 34.232C53.1755 34.232 52.5195 34.632 52.0395 35.432C51.5595 36.264 51.3195 37.384 51.3195 38.792C51.3195 40.296 51.5435 41.448 51.9915 42.248C52.4715 43.016 53.1435 43.4 54.0075 43.4ZM69.1312 29V0.679998H72.0112V29H69.1312ZM73.4512 29V0.679998H77.7712V29H73.4512ZM79.2112 29V0.679998H83.5312V29H79.2112ZM77.0512 44.504C75.8992 44.504 75.0192 44.152 74.4112 43.448C73.8032 42.744 73.4992 41.752 73.4992 40.472V33.176H74.8912V33.32C74.7952 33.384 74.7472 33.464 74.7472 33.56C74.7152 33.624 74.6992 33.768 74.6992 33.992V40.472C74.6992 41.432 74.8912 42.168 75.2752 42.68C75.6272 43.192 76.2352 43.448 77.0992 43.448C77.9312 43.448 78.5392 43.192 78.9232 42.68C79.3072 42.168 79.4992 41.416 79.4992 40.424V33.176H80.6992V40.424C80.6992 41.8 80.3792 42.824 79.7392 43.496C79.0992 44.168 78.2032 44.504 77.0512 44.504ZM92.175 29V0.679998H95.055V29H92.175ZM96.495 29V0.679998H100.815V29H96.495ZM105.135 29V0.679998H106.575V29H105.135ZM99.327 34.28H96.207V33.176H103.887V34.28H100.623V44.312H99.327V34.28Z" fill="white"/>
</svg>
