<svg width="78" height="45" viewBox="0 0 78 45" fill="none" xmlns="http://www.w3.org/2000/svg">
<path d="M0 29V0.679998H1.44V29H0ZM2.88 29V0.679998H4.32V29H2.88ZM8.64 29V0.679998H11.52V29H8.64ZM9.696 41.048H6.096L4.992 44.312H3.744L7.824 32.984H7.968L12.096 44.312H10.8L9.696 41.048ZM9.36 40.088L7.92 35.864L6.432 40.088H9.36ZM15.8438 29V0.679998H17.2838V29H15.8438ZM21.6038 29V0.679998H23.0438V29H21.6038ZM24.4838 29V0.679998H27.3638V29H24.4838ZM20.1638 33.176H23.3318C24.5478 33.176 25.4598 33.416 26.0678 33.896C26.7078 34.376 27.0278 35.048 27.0278 35.912C27.0278 36.456 26.8838 36.952 26.5958 37.4C26.2758 37.848 25.8598 38.168 25.3478 38.36C25.9878 38.584 26.4998 38.952 26.8838 39.464C27.2678 40.008 27.4598 40.584 27.4598 41.192C27.4598 42.152 27.1078 42.92 26.4038 43.496C25.7318 44.04 24.6918 44.312 23.2838 44.312H20.1638V33.176ZM23.1398 37.784C24.8998 37.784 25.7798 37.192 25.7798 36.008C25.7798 35.496 25.5718 35.08 25.1558 34.76C24.7718 34.408 24.1638 34.232 23.3318 34.232H21.3638V37.784H23.1398ZM23.5238 43.208C25.2518 43.208 26.1158 42.504 26.1158 41.096C26.1158 39.592 25.1398 38.84 23.1878 38.84H21.3638V43.208H23.5238ZM31.6875 29V0.679998H33.1275V29H31.6875ZM37.4475 29V0.679998H41.7675V29H37.4475ZM43.2075 29V0.679998H46.0875V29H43.2075ZM39.6075 44.504C38.3275 44.504 37.3515 44.008 36.6795 43.016C35.9755 42.024 35.6235 40.616 35.6235 38.792C35.6235 37.032 35.9755 35.64 36.6795 34.616C37.3835 33.624 38.3595 33.128 39.6075 33.128C40.8555 33.128 41.8315 33.624 42.5355 34.616C43.2395 35.64 43.5915 37.032 43.5915 38.792C43.5915 40.616 43.2395 42.024 42.5355 43.016C41.8635 44.008 40.8875 44.504 39.6075 44.504ZM39.6075 43.4C40.4715 43.4 41.1275 43.016 41.5755 42.248C42.0555 41.448 42.2955 40.296 42.2955 38.792C42.2955 37.384 42.0555 36.264 41.5755 35.432C41.0955 34.632 40.4395 34.232 39.6075 34.232C38.7755 34.232 38.1195 34.632 37.6395 35.432C37.1595 36.264 36.9195 37.384 36.9195 38.792C36.9195 40.296 37.1435 41.448 37.5915 42.248C38.0715 43.016 38.7435 43.4 39.6075 43.4ZM47.5312 29V0.679998H50.4113V29H47.5312ZM51.8513 29V0.679998H56.1713V29H51.8513ZM57.6113 29V0.679998H61.9313V29H57.6113ZM55.4513 44.504C54.2993 44.504 53.4193 44.152 52.8113 43.448C52.2033 42.744 51.8993 41.752 51.8993 40.472V33.176H53.2913V33.32C53.1953 33.384 53.1473 33.464 53.1473 33.56C53.1153 33.624 53.0993 33.768 53.0993 33.992V40.472C53.0993 41.432 53.2913 42.168 53.6753 42.68C54.0273 43.192 54.6353 43.448 55.4993 43.448C56.3313 43.448 56.9393 43.192 57.3233 42.68C57.7073 42.168 57.8993 41.416 57.8993 40.424V33.176H59.0993V40.424C59.0993 41.8 58.7793 42.824 58.1393 43.496C57.4993 44.168 56.6033 44.504 55.4513 44.504ZM63.375 29V0.679998H66.255V29H63.375ZM67.695 29V0.679998H72.015V29H67.695ZM76.335 29V0.679998H77.775V29H76.335ZM70.527 34.28H67.407V33.176H75.087V34.28H71.823V44.312H70.527V34.28Z" fill="white"/>
</svg>
