<svg width="78" height="29" viewBox="0 0 78 29" fill="none" xmlns="http://www.w3.org/2000/svg">
<path d="M0 29V0.679998H1.44V29H0ZM2.88 29V0.679998H4.32V29H2.88ZM8.64 29V0.679998H11.52V29H8.64ZM15.8438 29V0.679998H17.2838V29H15.8438ZM21.6038 29V0.679998H23.0438V29H21.6038ZM24.4838 29V0.679998H27.3638V29H24.4838ZM31.6875 29V0.679998H33.1275V29H31.6875ZM37.4475 29V0.679998H41.7675V29H37.4475ZM43.2075 29V0.679998H46.0875V29H43.2075ZM47.5312 29V0.679998H50.4113V29H47.5312ZM51.8513 29V0.679998H56.1713V29H51.8513ZM57.6113 29V0.679998H61.9313V29H57.6113ZM63.375 29V0.679998H66.255V29H63.375ZM67.695 29V0.679998H72.015V29H67.695ZM76.335 29V0.679998H77.775V29H76.335Z" fill="white"/>
</svg>
