<svg width="114" height="45" viewBox="0 0 114 45" fill="none" xmlns="http://www.w3.org/2000/svg">
<path d="M0 29V0.679998H4.32V29H0ZM5.76 29V0.679998H7.2V29H5.76ZM8.64 29V0.679998H10.08V29H8.64ZM14.4 29V0.679998H15.84V29H14.4ZM17.28 29V0.679998H21.6V29H17.28ZM13.296 41.048H9.696L8.592 44.312H7.344L11.424 32.984H11.568L15.696 44.312H14.4L13.296 41.048ZM12.96 40.088L11.52 35.864L10.032 40.088H12.96ZM23.0625 29V0.679998H24.5025V29H23.0625ZM25.9425 29V0.679998H30.2625V29H25.9425ZM31.7025 29V0.679998H33.1425V29H31.7025ZM37.4625 29V0.679998H38.9025V29H37.4625ZM40.3425 29V0.679998H44.6625V29H40.3425ZM30.9825 33.176H34.1505C35.3665 33.176 36.2785 33.416 36.8865 33.896C37.5265 34.376 37.8465 35.048 37.8465 35.912C37.8465 36.456 37.7025 36.952 37.4145 37.4C37.0945 37.848 36.6785 38.168 36.1665 38.36C36.8065 38.584 37.3185 38.952 37.7025 39.464C38.0865 40.008 38.2785 40.584 38.2785 41.192C38.2785 42.152 37.9265 42.92 37.2225 43.496C36.5505 44.04 35.5105 44.312 34.1025 44.312H30.9825V33.176ZM33.9585 37.784C35.7185 37.784 36.5985 37.192 36.5985 36.008C36.5985 35.496 36.3905 35.08 35.9745 34.76C35.5905 34.408 34.9825 34.232 34.1505 34.232H32.1825V37.784H33.9585ZM34.3425 43.208C36.0705 43.208 36.9345 42.504 36.9345 41.096C36.9345 39.592 35.9585 38.84 34.0065 38.84H32.1825V43.208H34.3425ZM46.125 29V0.679998H50.445V29H46.125ZM51.885 29V0.679998H53.325V29H51.885ZM54.765 29V0.679998H59.085V29H54.765ZM60.525 29V0.679998H61.965V29H60.525ZM66.285 29V0.679998H67.725V29H66.285ZM57.645 44.504C56.365 44.504 55.389 44.008 54.717 43.016C54.013 42.024 53.661 40.616 53.661 38.792C53.661 37.032 54.013 35.64 54.717 34.616C55.421 33.624 56.397 33.128 57.645 33.128C58.893 33.128 59.869 33.624 60.573 34.616C61.277 35.64 61.629 37.032 61.629 38.792C61.629 40.616 61.277 42.024 60.573 43.016C59.901 44.008 58.925 44.504 57.645 44.504ZM57.645 43.4C58.509 43.4 59.165 43.016 59.613 42.248C60.093 41.448 60.333 40.296 60.333 38.792C60.333 37.384 60.093 36.264 59.613 35.432C59.133 34.632 58.477 34.232 57.645 34.232C56.813 34.232 56.157 34.632 55.677 35.432C55.197 36.264 54.957 37.384 54.957 38.792C54.957 40.296 55.181 41.448 55.629 42.248C56.109 43.016 56.781 43.4 57.645 43.4ZM69.1875 29V0.679998H73.5075V29H69.1875ZM77.8275 29V0.679998H79.2675V29H77.8275ZM80.7075 29V0.679998H82.1475V29H80.7075ZM83.5875 29V0.679998H85.0275V29H83.5875ZM86.4675 29V0.679998H90.7875V29H86.4675ZM80.7075 44.504C79.5555 44.504 78.6755 44.152 78.0675 43.448C77.4595 42.744 77.1555 41.752 77.1555 40.472V33.176H78.5475V33.32C78.4515 33.384 78.4035 33.464 78.4035 33.56C78.3715 33.624 78.3555 33.768 78.3555 33.992V40.472C78.3555 41.432 78.5475 42.168 78.9315 42.68C79.2835 43.192 79.8915 43.448 80.7555 43.448C81.5875 43.448 82.1955 43.192 82.5795 42.68C82.9635 42.168 83.1555 41.416 83.1555 40.424V33.176H84.3555V40.424C84.3555 41.8 84.0355 42.824 83.3955 43.496C82.7555 44.168 81.8595 44.504 80.7075 44.504ZM92.25 29V0.679998H93.69V29H92.25ZM95.13 29V0.679998H96.57V29H95.13ZM98.01 29V0.679998H102.33V29H98.01ZM103.77 29V0.679998H108.09V29H103.77ZM112.41 29V0.679998H113.85V29H112.41ZM103.002 34.28H99.882V33.176H107.562V34.28H104.298V44.312H103.002V34.28Z" fill="white"/>
</svg>
