<svg width="122" height="53" viewBox="0 0 122 53" fill="none" xmlns="http://www.w3.org/2000/svg">
<g filter="url(#filter0_d_29_567)">
<path d="M4 29V0.679998H8.32V29H4ZM9.76 29V0.679998H11.2V29H9.76ZM12.64 29V0.679998H14.08V29H12.64ZM18.4 29V0.679998H19.84V29H18.4ZM21.28 29V0.679998H25.6V29H21.28ZM17.296 41.048H13.696L12.592 44.312H11.344L15.424 32.984H15.568L19.696 44.312H18.4L17.296 41.048ZM16.96 40.088L15.52 35.864L14.032 40.088H16.96ZM27.0625 29V0.679998H28.5025V29H27.0625ZM29.9425 29V0.679998H34.2625V29H29.9425ZM35.7025 29V0.679998H37.1425V29H35.7025ZM41.4625 29V0.679998H42.9025V29H41.4625ZM44.3425 29V0.679998H48.6625V29H44.3425ZM34.9825 33.176H38.1505C39.3665 33.176 40.2785 33.416 40.8865 33.896C41.5265 34.376 41.8465 35.048 41.8465 35.912C41.8465 36.456 41.7025 36.952 41.4145 37.4C41.0945 37.848 40.6785 38.168 40.1665 38.36C40.8065 38.584 41.3185 38.952 41.7025 39.464C42.0865 40.008 42.2785 40.584 42.2785 41.192C42.2785 42.152 41.9265 42.92 41.2225 43.496C40.5505 44.04 39.5105 44.312 38.1025 44.312H34.9825V33.176ZM37.9585 37.784C39.7185 37.784 40.5985 37.192 40.5985 36.008C40.5985 35.496 40.3905 35.08 39.9745 34.76C39.5905 34.408 38.9825 34.232 38.1505 34.232H36.1825V37.784H37.9585ZM38.3425 43.208C40.0705 43.208 40.9345 42.504 40.9345 41.096C40.9345 39.592 39.9585 38.84 38.0065 38.84H36.1825V43.208H38.3425ZM50.125 29V0.679998H54.445V29H50.125ZM55.885 29V0.679998H57.325V29H55.885ZM58.765 29V0.679998H63.085V29H58.765ZM64.525 29V0.679998H65.965V29H64.525ZM70.285 29V0.679998H71.725V29H70.285ZM61.645 44.504C60.365 44.504 59.389 44.008 58.717 43.016C58.013 42.024 57.661 40.616 57.661 38.792C57.661 37.032 58.013 35.64 58.717 34.616C59.421 33.624 60.397 33.128 61.645 33.128C62.893 33.128 63.869 33.624 64.573 34.616C65.277 35.64 65.629 37.032 65.629 38.792C65.629 40.616 65.277 42.024 64.573 43.016C63.901 44.008 62.925 44.504 61.645 44.504ZM61.645 43.4C62.509 43.4 63.165 43.016 63.613 42.248C64.093 41.448 64.333 40.296 64.333 38.792C64.333 37.384 64.093 36.264 63.613 35.432C63.133 34.632 62.477 34.232 61.645 34.232C60.813 34.232 60.157 34.632 59.677 35.432C59.197 36.264 58.957 37.384 58.957 38.792C58.957 40.296 59.181 41.448 59.629 42.248C60.109 43.016 60.781 43.4 61.645 43.4ZM73.1875 29V0.679998H77.5075V29H73.1875ZM81.8275 29V0.679998H83.2675V29H81.8275ZM84.7075 29V0.679998H86.1475V29H84.7075ZM87.5875 29V0.679998H89.0275V29H87.5875ZM90.4675 29V0.679998H94.7875V29H90.4675ZM84.7075 44.504C83.5555 44.504 82.6755 44.152 82.0675 43.448C81.4595 42.744 81.1555 41.752 81.1555 40.472V33.176H82.5475V33.32C82.4515 33.384 82.4035 33.464 82.4035 33.56C82.3715 33.624 82.3555 33.768 82.3555 33.992V40.472C82.3555 41.432 82.5475 42.168 82.9315 42.68C83.2835 43.192 83.8915 43.448 84.7555 43.448C85.5875 43.448 86.1955 43.192 86.5795 42.68C86.9635 42.168 87.1555 41.416 87.1555 40.424V33.176H88.3555V40.424C88.3555 41.8 88.0355 42.824 87.3955 43.496C86.7555 44.168 85.8595 44.504 84.7075 44.504ZM96.25 29V0.679998H97.69V29H96.25ZM99.13 29V0.679998H100.57V29H99.13ZM102.01 29V0.679998H106.33V29H102.01ZM107.77 29V0.679998H112.09V29H107.77ZM116.41 29V0.679998H117.85V29H116.41ZM107.002 34.28H103.882V33.176H111.562V34.28H108.298V44.312H107.002V34.28Z" fill="white"/>
</g>
<defs>
<filter id="filter0_d_29_567" x="0" y="0.679993" width="121.85" height="51.824" filterUnits="userSpaceOnUse" color-interpolation-filters="sRGB">
<feFlood flood-opacity="0" result="BackgroundImageFix"/>
<feColorMatrix in="SourceAlpha" type="matrix" values="0 0 0 0 0 0 0 0 0 0 0 0 0 0 0 0 0 0 127 0" result="hardAlpha"/>
<feOffset dy="4"/>
<feGaussianBlur stdDeviation="2"/>
<feComposite in2="hardAlpha" operator="out"/>
<feColorMatrix type="matrix" values="0 0 0 0 0 0 0 0 0 0 0 0 0 0 0 0 0 0 0.25 0"/>
<feBlend mode="normal" in2="BackgroundImageFix" result="effect1_dropShadow_29_567"/>
<feBlend mode="normal" in="SourceGraphic" in2="effect1_dropShadow_29_567" result="shape"/>
</filter>
</defs>
</svg>
