<svg width="59" height="14" viewBox="0 0 59 14" fill="none" xmlns="http://www.w3.org/2000/svg">
<path d="M3.84 -9.53674e-07H9.4V14H7.8V7.6H2.2V14H0.6V3.34L3.84 -9.53674e-07ZM2.2 3.72V6.16H7.8V1.44H4.42L2.2 3.72ZM12.7722 -9.53674e-07H20.4722L21.4122 1.36V3.2L18.9522 5.8H19.7522L21.6122 8.54V13.02L20.0122 14H12.7722V-9.53674e-07ZM14.3722 1.44V5.8H16.9322L19.8122 2.82V1.44H14.3722ZM14.3722 7.26V12.56H20.0122V8.7L18.9922 7.26H14.3722ZM26.1644 -9.53674e-07H31.8444L33.4244 2.4V12.34L31.8444 14H26.1644L24.5444 11.6V1.66L26.1644 -9.53674e-07ZM26.1444 11.4L26.9244 12.56H31.2044L31.8044 11.9V2.6L31.0444 1.44H26.7644L26.1444 2.1V11.4ZM43.7966 -9.53674e-07H45.4166V14H43.7966V13.02L42.1966 14H38.1566L36.5366 11.6V-9.53674e-07H38.1366V11.4L38.9166 12.56H43.1566L43.7966 11.9V-9.53674e-07ZM47.7488 -9.53674e-07H58.1888V1.44H52.2288L53.7888 2.4V14H52.1688V2.6L51.4088 1.44H47.7488V-9.53674e-07Z" fill="#D9D9D9"/>
</svg>
