<svg width="176" height="394" viewBox="0 0 176 394" fill="none" xmlns="http://www.w3.org/2000/svg">
<path d="M0 0L176 365V394V197V0V394H0V0Z" fill="#FFCC34"/>
<path d="M57.2423 188.204L76.6247 163.315L96.0071 188.204H57.2423Z" fill="white" stroke="#D9D9D9"/>
<path d="M78.5936 166.592L109.517 167.487L103.455 197.823L78.5936 166.592Z" fill="white" stroke="#D9D9D9"/>
<path d="M107.925 172.321L128.214 195.339L101.624 210.649L107.925 172.321Z" fill="white" stroke="#D9D9D9"/>
<path d="M123.809 198.62L118.233 229.669L89.4958 216.656L123.809 198.62Z" fill="white" stroke="#D9D9D9"/>
<path d="M113.4 227.362L85.7586 241.593L78.0755 211.467L113.4 227.362Z" fill="white" stroke="#D9D9D9"/>
<path d="M84.2312 237.283L55.4277 224.418L74.9565 199.644L84.2312 237.283Z" fill="white" stroke="#D9D9D9"/>
<path d="M58.8406 219.486L51.1287 188.897L82.6745 188.914L58.8406 219.486Z" fill="white" stroke="#D9D9D9"/>
<circle cx="88.812" cy="201.501" r="35.6245" stroke="#D9D9D9" stroke-width="10"/>
<circle cx="88.812" cy="201.501" r="38.6245" stroke="white" stroke-width="4"/>
<rect x="41" y="344" width="89" height="40" rx="10" fill="#FFCC34"/>
<path d="M52.248 327H49.976C49.6987 327 49.5173 326.851 49.432 326.552L43.768 306.904C43.704 306.584 43.8427 306.424 44.184 306.424H45.752C46.0293 306.424 46.2 306.573 46.264 306.872L51.032 324.376H51.16L55.928 306.872C55.992 306.573 56.1627 306.424 56.44 306.424H58.04C58.36 306.424 58.488 306.584 58.424 306.904L52.76 326.552C52.6747 326.851 52.504 327 52.248 327ZM64.2115 306.872V326.552C64.2115 326.851 64.0622 327 63.7635 327H62.3235C62.0248 327 61.8755 326.851 61.8755 326.552V306.872C61.8755 306.573 62.0248 306.424 62.3235 306.424H63.7635C64.0622 306.424 64.2115 306.573 64.2115 306.872ZM69.2103 322.264V321.24C69.2103 320.941 69.3596 320.792 69.6583 320.792H71.0983C71.3969 320.792 71.5463 320.941 71.5463 321.24V322.072C71.5463 323.992 72.4956 324.952 74.3943 324.952H77.2103C79.1089 324.952 80.0583 323.971 80.0583 322.008V320.92C80.0583 319.384 78.7889 318.381 76.2503 317.912C75.1836 317.72 74.1169 317.496 73.0503 317.24C71.9836 316.984 71.0769 316.493 70.3303 315.768C69.5836 315.021 69.2103 314.008 69.2103 312.728V311.16C69.2103 309.688 69.6263 308.536 70.4583 307.704C71.3116 306.851 72.4743 306.424 73.9463 306.424H77.4983C78.9489 306.424 80.1009 306.851 80.9543 307.704C81.8076 308.536 82.2343 309.688 82.2343 311.16V311.96C82.2343 312.28 82.0956 312.44 81.8183 312.44H80.3463C80.0689 312.44 79.9303 312.28 79.9303 311.96V311.384C79.9303 309.443 78.9809 308.472 77.0823 308.472H74.3623C72.4636 308.472 71.5143 309.485 71.5143 311.512V312.792C71.5143 313.88 72.2289 314.627 73.6583 315.032C74.2983 315.203 75.0023 315.363 75.7703 315.512C76.5383 315.64 77.3063 315.821 78.0743 316.056C78.8636 316.269 79.5783 316.547 80.2183 316.888C80.8583 317.208 81.3703 317.709 81.7543 318.392C82.1596 319.053 82.3623 319.864 82.3623 320.824V322.264C82.3623 323.736 81.9356 324.899 81.0823 325.752C80.2289 326.584 79.0769 327 77.6263 327H73.9463C72.4956 327 71.3436 326.584 70.4903 325.752C69.6369 324.899 69.2103 323.736 69.2103 322.264ZM98.1283 306.424H99.5683C99.8669 306.424 100.016 306.563 100.016 306.84V322.264C100.016 323.757 99.6003 324.92 98.7683 325.752C97.9363 326.584 96.7843 327 95.3123 327H91.7603C90.2883 327 89.1256 326.584 88.2723 325.752C87.4403 324.92 87.0243 323.757 87.0243 322.264V306.872C87.0243 306.573 87.1736 306.424 87.4723 306.424H88.9123C89.2109 306.424 89.3602 306.573 89.3602 306.872V322.168C89.3602 324.024 90.2456 324.952 92.0163 324.952H95.0243C96.8163 324.952 97.7123 324.024 97.7123 322.168V306.872C97.7123 306.573 97.8509 306.424 98.1283 306.424ZM105.159 327H103.559C103.282 327 103.186 326.851 103.271 326.552L109.255 306.872C109.34 306.573 109.543 306.424 109.863 306.424H112.167C112.487 306.424 112.69 306.573 112.775 306.872L118.759 326.552C118.844 326.851 118.748 327 118.471 327H116.839C116.604 327 116.455 326.851 116.391 326.552L114.887 321.88H107.143L105.639 326.552C105.554 326.851 105.394 327 105.159 327ZM110.951 308.824L107.655 319.896H114.375L111.079 308.824H110.951ZM132.904 327H122.632C122.334 327 122.184 326.851 122.184 326.552V306.872C122.184 306.573 122.334 306.424 122.632 306.424H124.072C124.371 306.424 124.52 306.573 124.52 306.872V324.6C124.52 324.792 124.627 324.888 124.84 324.888H132.904C133.203 324.888 133.352 325.048 133.352 325.368V326.552C133.352 326.851 133.203 327 132.904 327Z" fill="white"/>
</svg>
