<svg width="176" height="394" viewBox="0 0 176 394" fill="none" xmlns="http://www.w3.org/2000/svg">
<path d="M0 0L176 365V394V197V0V394H0V0Z" fill="#FFCC34"/>
<path d="M0 0H176V394V197V0V394H0V0Z" fill="#FFCC34"/>
<path d="M57.2423 188.204L76.6247 163.315L96.0071 188.204H57.2423Z" fill="white" stroke="#D9D9D9"/>
<path d="M78.5936 166.592L109.517 167.487L103.455 197.823L78.5936 166.592Z" fill="white" stroke="#D9D9D9"/>
<path d="M107.925 172.321L128.214 195.339L101.624 210.649L107.925 172.321Z" fill="white" stroke="#D9D9D9"/>
<path d="M123.809 198.62L118.233 229.669L89.4958 216.656L123.809 198.62Z" fill="white" stroke="#D9D9D9"/>
<path d="M113.401 227.362L85.7591 241.593L78.076 211.467L113.401 227.362Z" fill="white" stroke="#D9D9D9"/>
<path d="M84.2307 237.283L55.4272 224.418L74.956 199.644L84.2307 237.283Z" fill="white" stroke="#D9D9D9"/>
<path d="M58.8406 219.486L51.1287 188.897L82.6745 188.914L58.8406 219.486Z" fill="white" stroke="#D9D9D9"/>
<circle cx="88.812" cy="201.501" r="35.6245" stroke="#D9D9D9" stroke-width="10"/>
<circle cx="88.812" cy="201.501" r="38.6245" stroke="white" stroke-width="4"/>
<rect x="41" y="349" width="89" height="40" rx="10" fill="#FFCC34"/>
<path d="M52.248 332H49.976C49.6987 332 49.5173 331.851 49.432 331.552L43.768 311.904C43.704 311.584 43.8427 311.424 44.184 311.424H45.752C46.0293 311.424 46.2 311.573 46.264 311.872L51.032 329.376H51.16L55.928 311.872C55.992 311.573 56.1627 311.424 56.44 311.424H58.04C58.36 311.424 58.488 311.584 58.424 311.904L52.76 331.552C52.6747 331.851 52.504 332 52.248 332ZM64.2115 311.872V331.552C64.2115 331.851 64.0622 332 63.7635 332H62.3235C62.0248 332 61.8755 331.851 61.8755 331.552V311.872C61.8755 311.573 62.0248 311.424 62.3235 311.424H63.7635C64.0622 311.424 64.2115 311.573 64.2115 311.872ZM69.2103 327.264V326.24C69.2103 325.941 69.3596 325.792 69.6583 325.792H71.0983C71.3969 325.792 71.5463 325.941 71.5463 326.24V327.072C71.5463 328.992 72.4956 329.952 74.3943 329.952H77.2103C79.1089 329.952 80.0583 328.971 80.0583 327.008V325.92C80.0583 324.384 78.7889 323.381 76.2503 322.912C75.1836 322.72 74.1169 322.496 73.0503 322.24C71.9836 321.984 71.0769 321.493 70.3303 320.768C69.5836 320.021 69.2103 319.008 69.2103 317.728V316.16C69.2103 314.688 69.6263 313.536 70.4583 312.704C71.3116 311.851 72.4743 311.424 73.9463 311.424H77.4983C78.9489 311.424 80.1009 311.851 80.9543 312.704C81.8076 313.536 82.2343 314.688 82.2343 316.16V316.96C82.2343 317.28 82.0956 317.44 81.8183 317.44H80.3463C80.0689 317.44 79.9303 317.28 79.9303 316.96V316.384C79.9303 314.443 78.9809 313.472 77.0823 313.472H74.3623C72.4636 313.472 71.5143 314.485 71.5143 316.512V317.792C71.5143 318.88 72.2289 319.627 73.6583 320.032C74.2983 320.203 75.0023 320.363 75.7703 320.512C76.5383 320.64 77.3063 320.821 78.0743 321.056C78.8636 321.269 79.5783 321.547 80.2183 321.888C80.8583 322.208 81.3703 322.709 81.7543 323.392C82.1596 324.053 82.3623 324.864 82.3623 325.824V327.264C82.3623 328.736 81.9356 329.899 81.0823 330.752C80.2289 331.584 79.0769 332 77.6263 332H73.9463C72.4956 332 71.3436 331.584 70.4903 330.752C69.6369 329.899 69.2103 328.736 69.2103 327.264ZM98.1283 311.424H99.5683C99.8669 311.424 100.016 311.563 100.016 311.84V327.264C100.016 328.757 99.6003 329.92 98.7683 330.752C97.9363 331.584 96.7843 332 95.3123 332H91.7603C90.2883 332 89.1256 331.584 88.2723 330.752C87.4403 329.92 87.0243 328.757 87.0243 327.264V311.872C87.0243 311.573 87.1736 311.424 87.4723 311.424H88.9123C89.2109 311.424 89.3602 311.573 89.3602 311.872V327.168C89.3602 329.024 90.2456 329.952 92.0163 329.952H95.0243C96.8163 329.952 97.7123 329.024 97.7123 327.168V311.872C97.7123 311.573 97.8509 311.424 98.1283 311.424ZM105.159 332H103.559C103.282 332 103.186 331.851 103.271 331.552L109.255 311.872C109.34 311.573 109.543 311.424 109.863 311.424H112.167C112.487 311.424 112.69 311.573 112.775 311.872L118.759 331.552C118.844 331.851 118.748 332 118.471 332H116.839C116.604 332 116.455 331.851 116.391 331.552L114.887 326.88H107.143L105.639 331.552C105.554 331.851 105.394 332 105.159 332ZM110.951 313.824L107.655 324.896H114.375L111.079 313.824H110.951ZM132.904 332H122.632C122.334 332 122.184 331.851 122.184 331.552V311.872C122.184 311.573 122.334 311.424 122.632 311.424H124.072C124.371 311.424 124.52 311.573 124.52 311.872V329.6C124.52 329.792 124.627 329.888 124.84 329.888H132.904C133.203 329.888 133.352 330.048 133.352 330.368V331.552C133.352 331.851 133.203 332 132.904 332Z" fill="white"/>
</svg>
