<svg width="176" height="394" viewBox="0 0 176 394" fill="none" xmlns="http://www.w3.org/2000/svg">
<path d="M0 0H176V394V197V0V394H0V0Z" fill="#FF9500"/>
<path d="M80.4199 233H41.5801L61 208.419L80.4199 233Z" fill="white" stroke="#FF9500" stroke-width="3"/>
<path d="M92.2272 230.417L67.5282 199.39L98.2493 200.278L92.2272 230.417Z" fill="white" stroke="#FF9500" stroke-width="3"/>
<path d="M106.586 254.326L112.841 216.277L132.985 239.127L106.586 254.326Z" fill="white" stroke="#FF9500" stroke-width="3"/>
<path d="M75.3661 225.256L111.196 206.422L119.671 266.042L75.3661 225.256Z" fill="white" stroke="#FF9500" stroke-width="3"/>
<path d="M72.9985 250.405L116.13 269.812L82.138 287.726L72.9985 250.405Z" fill="white" stroke="#FF9500" stroke-width="3"/>
<path d="M70.9948 245.99L80.2292 283.465L51.5506 270.657L70.9948 245.99Z" fill="white" stroke="#FF9500" stroke-width="3"/>
<path d="M75.2144 235.887L51.4837 266.327L43.8049 235.871L75.2144 235.887Z" fill="white" stroke="#FF9500" stroke-width="3"/>
<path d="M88 200C111.228 200 130 218.612 130 241.5C130 264.388 111.228 283 88 283C64.7724 283 46 264.388 46 241.5C46 218.612 64.7724 200 88 200Z" stroke="#FF9500" stroke-width="6"/>
<rect x="2" y="272" width="4" height="40" rx="2" fill="#FF9500"/>
<rect x="44.709" y="328.931" width="83.8155" height="22.069" rx="10" fill="#FF9500"/>
<path d="M50.826 334H48.412C48.1173 334 47.9247 333.841 47.834 333.524L41.816 312.648C41.748 312.308 41.8953 312.138 42.258 312.138H43.924C44.2187 312.138 44.4 312.297 44.468 312.614L49.534 331.212H49.67L54.736 312.614C54.804 312.297 54.9853 312.138 55.28 312.138H56.98C57.32 312.138 57.456 312.308 57.388 312.648L51.37 333.524C51.2793 333.841 51.098 334 50.826 334ZM63.5372 312.614V333.524C63.5372 333.841 63.3786 334 63.0612 334H61.5312C61.2139 334 61.0552 333.841 61.0552 333.524V312.614C61.0552 312.297 61.2139 312.138 61.5312 312.138H63.0612C63.3786 312.138 63.5372 312.297 63.5372 312.614ZM68.8484 328.968V327.88C68.8484 327.563 69.0071 327.404 69.3244 327.404H70.8544C71.1717 327.404 71.3304 327.563 71.3304 327.88V328.764C71.3304 330.804 72.3391 331.824 74.3564 331.824H77.3484C79.3657 331.824 80.3744 330.781 80.3744 328.696V327.54C80.3744 325.908 79.0257 324.843 76.3284 324.344C75.1951 324.14 74.0617 323.902 72.9284 323.63C71.7951 323.358 70.8317 322.837 70.0384 322.066C69.2451 321.273 68.8484 320.196 68.8484 318.836V317.17C68.8484 315.606 69.2904 314.382 70.1744 313.498C71.0811 312.591 72.3164 312.138 73.8804 312.138H77.6544C79.1957 312.138 80.4197 312.591 81.3264 313.498C82.2331 314.382 82.6864 315.606 82.6864 317.17V318.02C82.6864 318.36 82.5391 318.53 82.2444 318.53H80.6804C80.3857 318.53 80.2384 318.36 80.2384 318.02V317.408C80.2384 315.345 79.2297 314.314 77.2124 314.314H74.3224C72.3051 314.314 71.2964 315.391 71.2964 317.544V318.904C71.2964 320.06 72.0557 320.853 73.5744 321.284C74.2544 321.465 75.0024 321.635 75.8184 321.794C76.6344 321.93 77.4504 322.123 78.2664 322.372C79.1051 322.599 79.8644 322.893 80.5444 323.256C81.2244 323.596 81.7684 324.129 82.1764 324.854C82.6071 325.557 82.8224 326.418 82.8224 327.438V328.968C82.8224 330.532 82.3691 331.767 81.4624 332.674C80.5557 333.558 79.3317 334 77.7904 334H73.8804C72.3391 334 71.1151 333.558 70.2084 332.674C69.3017 331.767 68.8484 330.532 68.8484 328.968ZM99.5738 312.138H101.104C101.421 312.138 101.58 312.285 101.58 312.58V328.968C101.58 330.555 101.138 331.79 100.254 332.674C99.3698 333.558 98.1458 334 96.5818 334H92.8078C91.2438 334 90.0084 333.558 89.1018 332.674C88.2178 331.79 87.7758 330.555 87.7758 328.968V312.614C87.7758 312.297 87.9344 312.138 88.2518 312.138H89.7818C90.0991 312.138 90.2578 312.297 90.2578 312.614V328.866C90.2578 330.838 91.1984 331.824 93.0798 331.824H96.2758C98.1798 331.824 99.1318 330.838 99.1318 328.866V312.614C99.1318 312.297 99.2791 312.138 99.5738 312.138ZM107.044 334H105.344C105.049 334 104.947 333.841 105.038 333.524L111.396 312.614C111.487 312.297 111.702 312.138 112.042 312.138H114.49C114.83 312.138 115.045 312.297 115.136 312.614L121.494 333.524C121.585 333.841 121.483 334 121.188 334H119.454C119.205 334 119.046 333.841 118.978 333.524L117.38 328.56H109.152L107.554 333.524C107.463 333.841 107.293 334 107.044 334ZM113.198 314.688L109.696 326.452H116.836L113.334 314.688H113.198ZM136.523 334H125.609C125.292 334 125.133 333.841 125.133 333.524V312.614C125.133 312.297 125.292 312.138 125.609 312.138H127.139C127.457 312.138 127.615 312.297 127.615 312.614V331.45C127.615 331.654 127.729 331.756 127.955 331.756H136.523C136.841 331.756 136.999 331.926 136.999 332.266V333.524C136.999 333.841 136.841 334 136.523 334Z" fill="white"/>
</svg>
