<svg width="176" height="394" viewBox="0 0 176 394" fill="none" xmlns="http://www.w3.org/2000/svg">
<path d="M0 0L176 365V394V197V0V394H0V0Z" fill="#FFCC34"/>
<path d="M57.2423 188.204L76.6247 163.315L96.0071 188.204H57.2423Z" fill="white" stroke="#D9D9D9"/>
<path d="M78.5936 166.592L109.517 167.487L103.455 197.823L78.5936 166.592Z" fill="white" stroke="#D9D9D9"/>
<path d="M107.925 172.321L128.214 195.339L101.624 210.649L107.925 172.321Z" fill="white" stroke="#D9D9D9"/>
<path d="M123.809 198.62L118.233 229.669L89.4958 216.656L123.809 198.62Z" fill="white" stroke="#D9D9D9"/>
<path d="M113.4 227.362L85.7586 241.593L78.0755 211.467L113.4 227.362Z" fill="white" stroke="#D9D9D9"/>
<path d="M84.2312 237.283L55.4277 224.418L74.9565 199.644L84.2312 237.283Z" fill="white" stroke="#D9D9D9"/>
<path d="M58.8406 219.486L51.1287 188.897L82.6745 188.914L58.8406 219.486Z" fill="white" stroke="#D9D9D9"/>
<circle cx="88.812" cy="201.501" r="35.6245" stroke="#D9D9D9" stroke-width="10"/>
<circle cx="88.812" cy="201.501" r="38.6245" stroke="white" stroke-width="4"/>
<rect x="26" y="68" width="89" height="40" rx="10" fill="#FFCC34"/>
<path d="M41.288 98H40.52C40.3707 98 40.264 97.904 40.2 97.712L33.992 77.712C33.928 77.52 33.992 77.424 34.184 77.424H34.664C34.8133 77.424 34.92 77.52 34.984 77.712L40.84 96.592H40.968L46.824 77.712C46.888 77.52 46.9947 77.424 47.144 77.424H47.624C47.816 77.424 47.88 77.52 47.816 77.712L41.608 97.712C41.544 97.904 41.4373 98 41.288 98ZM51.5325 79.024V75.856C51.5325 75.664 51.6178 75.568 51.7885 75.568H52.2365C52.4072 75.568 52.4925 75.664 52.4925 75.856V79.024C52.4925 79.216 52.4072 79.312 52.2365 79.312H51.7885C51.6178 79.312 51.5325 79.216 51.5325 79.024ZM51.5325 97.712V81.968C51.5325 81.776 51.6178 81.68 51.7885 81.68H52.2365C52.4072 81.68 52.4925 81.776 52.4925 81.968V97.712C52.4925 97.904 52.4072 98 52.2365 98H51.7885C51.6178 98 51.5325 97.904 51.5325 97.712ZM62.8348 98H57.3948C57.2028 98 57.1068 97.9147 57.1068 97.744V97.36C57.1068 97.1893 57.2028 97.104 57.3948 97.104H62.8348C64.9894 97.104 66.0668 96.2507 66.0668 94.544V93.584C66.0668 92.7947 65.9281 92.1547 65.6508 91.664C65.3734 91.1733 64.8721 90.8 64.1468 90.544L59.9227 89.072C58.8134 88.688 58.0348 88.2187 57.5868 87.664C57.1601 87.088 56.9468 86.288 56.9468 85.264C56.9468 82.8747 58.2481 81.68 60.8508 81.68H66.0028C66.1948 81.68 66.2908 81.7653 66.2908 81.936V82.32C66.2908 82.4907 66.1948 82.576 66.0028 82.576H60.8508C59.8694 82.576 59.1334 82.8 58.6428 83.248C58.1734 83.696 57.9388 84.208 57.9388 84.784V85.648C57.9388 86.3307 58.1094 86.864 58.4508 87.248C58.8134 87.6107 59.3681 87.92 60.1148 88.176L64.3068 89.68C65.4374 90 66.1734 90.5227 66.5148 91.248C66.8561 91.9733 67.0268 92.9867 67.0268 94.288C67.0268 95.5893 66.6854 96.5387 66.0028 97.136C65.3201 97.712 64.2641 98 62.8348 98ZM77.9935 98H75.6255C74.3242 98 73.2788 97.6053 72.4895 96.816C71.7215 96.0267 71.3375 94.9707 71.3375 93.648V81.968C71.3375 81.776 71.4228 81.68 71.5935 81.68H72.0415C72.2122 81.68 72.2975 81.776 72.2975 81.968V93.616C72.2975 94.704 72.5855 95.5573 73.1615 96.176C73.7375 96.7947 74.5588 97.104 75.6255 97.104H77.9295C78.9962 97.104 79.8602 96.816 80.5215 96.24C81.1828 95.664 81.5135 94.8427 81.5135 93.776V81.968C81.5135 81.776 81.5988 81.68 81.7695 81.68H82.2175C82.3882 81.68 82.4735 81.776 82.4735 81.968V97.712C82.4735 97.904 82.3882 98 82.2175 98H81.7695C81.5988 98 81.5135 97.904 81.5135 97.712V96.336H81.3855C80.7882 97.4453 79.6575 98 77.9935 98ZM93.9273 98H91.5593C90.2579 98 89.2126 97.6053 88.4233 96.816C87.6553 96.0267 87.2713 94.9707 87.2713 93.648V86.032C87.2713 84.7093 87.6553 83.6533 88.4233 82.864C89.2126 82.0747 90.2579 81.68 91.5593 81.68H98.1513C98.3219 81.68 98.4073 81.776 98.4073 81.968V97.712C98.4073 97.904 98.3219 98 98.1513 98H97.7033C97.5326 98 97.4473 97.904 97.4473 97.712V96.336H97.3193C96.7219 97.4453 95.5913 98 93.9273 98ZM97.4473 93.776V82.832C97.4473 82.6613 97.3513 82.576 97.1593 82.576H91.5593C90.4926 82.576 89.6713 82.8853 89.0953 83.504C88.5193 84.1227 88.2313 84.976 88.2313 86.064V93.616C88.2313 94.704 88.5193 95.5573 89.0953 96.176C89.6713 96.7947 90.4926 97.104 91.5593 97.104H93.8633C94.9299 97.104 95.7939 96.816 96.4553 96.24C97.1166 95.664 97.4473 94.8427 97.4473 93.776ZM104.393 98H103.945C103.774 98 103.689 97.904 103.689 97.712V75.792C103.689 75.6 103.774 75.504 103.945 75.504H104.393C104.563 75.504 104.649 75.6 104.649 75.792V97.712C104.649 97.904 104.563 98 104.393 98Z" fill="white"/>
</svg>
