<svg width="176" height="394" viewBox="0 0 176 394" fill="none" xmlns="http://www.w3.org/2000/svg">
<path d="M0 0H176V394V197V0V394H0V0Z" fill="#FF9500"/>
<path d="M73.1189 278.286L55.904 261.801L77.2751 256.714L73.1189 278.286Z" fill="white" stroke="#FF9500" stroke-width="3"/>
<path d="M93.6797 236.75H43.3203L68.5 202.53L93.6797 236.75Z" fill="white" stroke="#FF9500" stroke-width="3"/>
<path d="M99.2281 237.417L74.5291 206.39L105.25 207.278L99.2281 237.417Z" fill="white" stroke="#FF9500" stroke-width="3"/>
<path d="M100.587 247.326L106.842 209.277L126.986 232.127L100.587 247.326Z" fill="white" stroke="#FF9500" stroke-width="3"/>
<path d="M85.3533 239.216L129.226 241.311L105.852 270.401L85.3533 239.216Z" fill="white" stroke="#FF9500" stroke-width="3"/>
<path d="M82.663 246.244L108.352 275.05L77.013 277.141L82.663 246.244Z" fill="white" stroke="#FF9500" stroke-width="3"/>
<rect x="2" y="273" width="4" height="40" rx="2" fill="#FF9500"/>
<rect x="44.709" y="329.931" width="83.8155" height="22.069" rx="10" fill="#FF9500"/>
<path d="M50.826 335H48.412C48.1173 335 47.9247 334.841 47.834 334.524L41.816 313.648C41.748 313.308 41.8953 313.138 42.258 313.138H43.924C44.2187 313.138 44.4 313.297 44.468 313.614L49.534 332.212H49.67L54.736 313.614C54.804 313.297 54.9853 313.138 55.28 313.138H56.98C57.32 313.138 57.456 313.308 57.388 313.648L51.37 334.524C51.2793 334.841 51.098 335 50.826 335ZM63.5372 313.614V334.524C63.5372 334.841 63.3786 335 63.0612 335H61.5312C61.2139 335 61.0552 334.841 61.0552 334.524V313.614C61.0552 313.297 61.2139 313.138 61.5312 313.138H63.0612C63.3786 313.138 63.5372 313.297 63.5372 313.614ZM68.8484 329.968V328.88C68.8484 328.563 69.0071 328.404 69.3244 328.404H70.8544C71.1717 328.404 71.3304 328.563 71.3304 328.88V329.764C71.3304 331.804 72.3391 332.824 74.3564 332.824H77.3484C79.3657 332.824 80.3744 331.781 80.3744 329.696V328.54C80.3744 326.908 79.0257 325.843 76.3284 325.344C75.1951 325.14 74.0617 324.902 72.9284 324.63C71.7951 324.358 70.8317 323.837 70.0384 323.066C69.2451 322.273 68.8484 321.196 68.8484 319.836V318.17C68.8484 316.606 69.2904 315.382 70.1744 314.498C71.0811 313.591 72.3164 313.138 73.8804 313.138H77.6544C79.1957 313.138 80.4197 313.591 81.3264 314.498C82.2331 315.382 82.6864 316.606 82.6864 318.17V319.02C82.6864 319.36 82.5391 319.53 82.2444 319.53H80.6804C80.3857 319.53 80.2384 319.36 80.2384 319.02V318.408C80.2384 316.345 79.2297 315.314 77.2124 315.314H74.3224C72.3051 315.314 71.2964 316.391 71.2964 318.544V319.904C71.2964 321.06 72.0557 321.853 73.5744 322.284C74.2544 322.465 75.0024 322.635 75.8184 322.794C76.6344 322.93 77.4504 323.123 78.2664 323.372C79.1051 323.599 79.8644 323.893 80.5444 324.256C81.2244 324.596 81.7684 325.129 82.1764 325.854C82.6071 326.557 82.8224 327.418 82.8224 328.438V329.968C82.8224 331.532 82.3691 332.767 81.4624 333.674C80.5557 334.558 79.3317 335 77.7904 335H73.8804C72.3391 335 71.1151 334.558 70.2084 333.674C69.3017 332.767 68.8484 331.532 68.8484 329.968ZM99.5738 313.138H101.104C101.421 313.138 101.58 313.285 101.58 313.58V329.968C101.58 331.555 101.138 332.79 100.254 333.674C99.3698 334.558 98.1458 335 96.5818 335H92.8078C91.2438 335 90.0084 334.558 89.1018 333.674C88.2178 332.79 87.7758 331.555 87.7758 329.968V313.614C87.7758 313.297 87.9344 313.138 88.2518 313.138H89.7818C90.0991 313.138 90.2578 313.297 90.2578 313.614V329.866C90.2578 331.838 91.1984 332.824 93.0798 332.824H96.2758C98.1798 332.824 99.1318 331.838 99.1318 329.866V313.614C99.1318 313.297 99.2791 313.138 99.5738 313.138ZM107.044 335H105.344C105.049 335 104.947 334.841 105.038 334.524L111.396 313.614C111.487 313.297 111.702 313.138 112.042 313.138H114.49C114.83 313.138 115.045 313.297 115.136 313.614L121.494 334.524C121.585 334.841 121.483 335 121.188 335H119.454C119.205 335 119.046 334.841 118.978 334.524L117.38 329.56H109.152L107.554 334.524C107.463 334.841 107.293 335 107.044 335ZM113.198 315.688L109.696 327.452H116.836L113.334 315.688H113.198ZM136.523 335H125.609C125.292 335 125.133 334.841 125.133 334.524V313.614C125.133 313.297 125.292 313.138 125.609 313.138H127.139C127.457 313.138 127.615 313.297 127.615 313.614V332.45C127.615 332.654 127.729 332.756 127.955 332.756H136.523C136.841 332.756 136.999 332.926 136.999 333.266V334.524C136.999 334.841 136.841 335 136.523 335Z" fill="white"/>
</svg>
