<svg width="176" height="394" viewBox="0 0 176 394" fill="none" xmlns="http://www.w3.org/2000/svg">
<path d="M0 0H176V394V197V0V394H0V0Z" fill="#FF9D00"/>
<path d="M52.5156 227L74 199.807L95.4844 227H52.5156Z" fill="white" stroke="#FF9D00"/>
<path d="M76.638 203.329L110.695 204.314L104.019 237.725L76.638 203.329Z" fill="white" stroke="#FF9D00"/>
<path d="M108.861 209.552L131.207 234.903L101.921 251.766L108.861 209.552Z" fill="white" stroke="#FF9D00"/>
<path d="M110.846 208.196L119.914 271.995L72.504 228.35L110.846 208.196Z" fill="white" stroke="#FF9D00"/>
<path d="M115.005 269.99L84.563 285.663L76.1015 252.485L115.005 269.99Z" fill="white" stroke="#FF9D00"/>
<path d="M82.9893 280.952L51.2699 266.785L72.7757 239.503L82.9893 280.952Z" fill="white" stroke="#FF9D00"/>
<path d="M55.0641 261.467L46.5716 227.781L81.311 227.8L55.0641 261.467Z" fill="white" stroke="#FF9D00"/>
<path d="M128 241.5C128 263.263 110.144 281 88 281C65.8558 281 48 263.263 48 241.5C48 219.737 65.8558 202 88 202C110.144 202 128 219.737 128 241.5Z" stroke="#FF9D00" stroke-width="10"/>
<path d="M129.5 241.5C129.5 264.107 110.957 282.5 88 282.5C65.0432 282.5 46.5 264.107 46.5 241.5C46.5 218.893 65.0432 200.5 88 200.5C110.957 200.5 129.5 218.893 129.5 241.5Z" stroke="white" stroke-width="7"/>
<rect x="2" y="272" width="4" height="40" rx="2" fill="#FF9D00"/>
<rect x="43" y="328.931" width="89" height="22.069" rx="10" fill="#FF9D00"/>
<path d="M54.248 333H51.976C51.6987 333 51.5173 332.851 51.432 332.552L45.768 312.904C45.704 312.584 45.8427 312.424 46.184 312.424H47.752C48.0293 312.424 48.2 312.573 48.264 312.872L53.032 330.376H53.16L57.928 312.872C57.992 312.573 58.1627 312.424 58.44 312.424H60.04C60.36 312.424 60.488 312.584 60.424 312.904L54.76 332.552C54.6747 332.851 54.504 333 54.248 333ZM66.2115 312.872V332.552C66.2115 332.851 66.0622 333 65.7635 333H64.3235C64.0248 333 63.8755 332.851 63.8755 332.552V312.872C63.8755 312.573 64.0248 312.424 64.3235 312.424H65.7635C66.0622 312.424 66.2115 312.573 66.2115 312.872ZM71.2103 328.264V327.24C71.2103 326.941 71.3596 326.792 71.6583 326.792H73.0983C73.3969 326.792 73.5463 326.941 73.5463 327.24V328.072C73.5463 329.992 74.4956 330.952 76.3943 330.952H79.2103C81.1089 330.952 82.0583 329.971 82.0583 328.008V326.92C82.0583 325.384 80.7889 324.381 78.2503 323.912C77.1836 323.72 76.1169 323.496 75.0503 323.24C73.9836 322.984 73.0769 322.493 72.3303 321.768C71.5836 321.021 71.2103 320.008 71.2103 318.728V317.16C71.2103 315.688 71.6263 314.536 72.4583 313.704C73.3116 312.851 74.4743 312.424 75.9463 312.424H79.4983C80.9489 312.424 82.1009 312.851 82.9543 313.704C83.8076 314.536 84.2343 315.688 84.2343 317.16V317.96C84.2343 318.28 84.0956 318.44 83.8183 318.44H82.3463C82.0689 318.44 81.9303 318.28 81.9303 317.96V317.384C81.9303 315.443 80.9809 314.472 79.0823 314.472H76.3623C74.4636 314.472 73.5143 315.485 73.5143 317.512V318.792C73.5143 319.88 74.2289 320.627 75.6583 321.032C76.2983 321.203 77.0023 321.363 77.7703 321.512C78.5383 321.64 79.3063 321.821 80.0743 322.056C80.8636 322.269 81.5783 322.547 82.2183 322.888C82.8583 323.208 83.3703 323.709 83.7543 324.392C84.1596 325.053 84.3623 325.864 84.3623 326.824V328.264C84.3623 329.736 83.9356 330.899 83.0823 331.752C82.2289 332.584 81.0769 333 79.6263 333H75.9463C74.4956 333 73.3436 332.584 72.4903 331.752C71.6369 330.899 71.2103 329.736 71.2103 328.264ZM100.128 312.424H101.568C101.867 312.424 102.016 312.563 102.016 312.84V328.264C102.016 329.757 101.6 330.92 100.768 331.752C99.9363 332.584 98.7843 333 97.3123 333H93.7603C92.2883 333 91.1256 332.584 90.2723 331.752C89.4403 330.92 89.0243 329.757 89.0243 328.264V312.872C89.0243 312.573 89.1736 312.424 89.4723 312.424H90.9123C91.2109 312.424 91.3602 312.573 91.3602 312.872V328.168C91.3602 330.024 92.2456 330.952 94.0163 330.952H97.0243C98.8163 330.952 99.7123 330.024 99.7123 328.168V312.872C99.7123 312.573 99.8509 312.424 100.128 312.424ZM107.159 333H105.559C105.282 333 105.186 332.851 105.271 332.552L111.255 312.872C111.34 312.573 111.543 312.424 111.863 312.424H114.167C114.487 312.424 114.69 312.573 114.775 312.872L120.759 332.552C120.844 332.851 120.748 333 120.471 333H118.839C118.604 333 118.455 332.851 118.391 332.552L116.887 327.88H109.143L107.639 332.552C107.554 332.851 107.394 333 107.159 333ZM112.951 314.824L109.655 325.896H116.375L113.079 314.824H112.951ZM134.904 333H124.632C124.334 333 124.184 332.851 124.184 332.552V312.872C124.184 312.573 124.334 312.424 124.632 312.424H126.072C126.371 312.424 126.52 312.573 126.52 312.872V330.6C126.52 330.792 126.627 330.888 126.84 330.888H134.904C135.203 330.888 135.352 331.048 135.352 331.368V332.552C135.352 332.851 135.203 333 134.904 333Z" fill="white"/>
</svg>
