<svg width="176" height="394" viewBox="0 0 176 394" fill="none" xmlns="http://www.w3.org/2000/svg">
<path d="M0 0L176 365V394V197V0V394H0V0Z" fill="#FFCC34"/>
<path d="M57.2423 188.204L76.6247 163.315L96.0071 188.204H57.2423Z" fill="white" stroke="#D9D9D9"/>
<path d="M78.5936 166.592L109.517 167.487L103.455 197.823L78.5936 166.592Z" fill="white" stroke="#D9D9D9"/>
<path d="M107.925 172.321L128.214 195.339L101.624 210.649L107.925 172.321Z" fill="white" stroke="#D9D9D9"/>
<path d="M123.809 198.62L118.233 229.669L89.4958 216.656L123.809 198.62Z" fill="white" stroke="#D9D9D9"/>
<path d="M113.4 227.362L85.7586 241.593L78.0755 211.467L113.4 227.362Z" fill="white" stroke="#D9D9D9"/>
<path d="M84.2312 237.283L55.4277 224.418L74.9565 199.644L84.2312 237.283Z" fill="white" stroke="#D9D9D9"/>
<path d="M58.8406 219.486L51.1287 188.897L82.6745 188.914L58.8406 219.486Z" fill="white" stroke="#D9D9D9"/>
<circle cx="88.812" cy="201.501" r="35.6245" stroke="#D9D9D9" stroke-width="10"/>
<circle cx="88.812" cy="201.501" r="38.6245" stroke="white" stroke-width="4"/>
</svg>
