<svg width="176" height="394" viewBox="0 0 176 394" fill="none" xmlns="http://www.w3.org/2000/svg">
<path d="M0 0L176 365V394V197V0V394H0V0Z" fill="#FFCC34"/>
<path d="M57.2423 188.204L76.6247 163.315L96.0071 188.204H57.2423Z" fill="white" stroke="#D9D9D9"/>
<path d="M78.5936 166.592L109.517 167.487L103.455 197.823L78.5936 166.592Z" fill="white" stroke="#D9D9D9"/>
<path d="M107.925 172.321L128.214 195.339L101.624 210.649L107.925 172.321Z" fill="white" stroke="#D9D9D9"/>
<path d="M123.809 198.62L118.233 229.669L89.4958 216.656L123.809 198.62Z" fill="white" stroke="#D9D9D9"/>
<path d="M113.401 227.362L85.7591 241.593L78.076 211.467L113.401 227.362Z" fill="white" stroke="#D9D9D9"/>
<path d="M84.2307 237.283L55.4272 224.418L74.956 199.644L84.2307 237.283Z" fill="white" stroke="#D9D9D9"/>
<path d="M58.8406 219.486L51.1287 188.897L82.6745 188.914L58.8406 219.486Z" fill="white" stroke="#D9D9D9"/>
<circle cx="88.812" cy="201.501" r="35.6245" stroke="#D9D9D9" stroke-width="10"/>
<circle cx="88.812" cy="201.501" r="38.6245" stroke="white" stroke-width="4"/>
<rect x="2" y="272" width="4" height="40" rx="2" fill="#FFCC34"/>
<path d="M18.248 225H15.976C15.6987 225 15.5173 224.851 15.432 224.552L9.768 204.904C9.704 204.584 9.84267 204.424 10.184 204.424H11.752C12.0293 204.424 12.2 204.573 12.264 204.872L17.032 222.376H17.16L21.928 204.872C21.992 204.573 22.1627 204.424 22.44 204.424H24.04C24.36 204.424 24.488 204.584 24.424 204.904L18.76 224.552C18.6747 224.851 18.504 225 18.248 225ZM17.989 232.872V252.552C17.989 252.851 17.8397 253 17.541 253H16.101C15.8023 253 15.653 252.851 15.653 252.552V232.872C15.653 232.573 15.8023 232.424 16.101 232.424H17.541C17.8397 232.424 17.989 232.573 17.989 232.872ZM10.149 276.264V275.24C10.149 274.941 10.2983 274.792 10.597 274.792H12.037C12.3357 274.792 12.485 274.941 12.485 275.24V276.072C12.485 277.992 13.4343 278.952 15.333 278.952H18.149C20.0477 278.952 20.997 277.971 20.997 276.008V274.92C20.997 273.384 19.7277 272.381 17.189 271.912C16.1223 271.72 15.0557 271.496 13.989 271.24C12.9223 270.984 12.0157 270.493 11.269 269.768C10.5223 269.021 10.149 268.008 10.149 266.728V265.16C10.149 263.688 10.565 262.536 11.397 261.704C12.2503 260.851 13.413 260.424 14.885 260.424H18.437C19.8877 260.424 21.0397 260.851 21.893 261.704C22.7463 262.536 23.173 263.688 23.173 265.16V265.96C23.173 266.28 23.0343 266.44 22.757 266.44H21.285C21.0077 266.44 20.869 266.28 20.869 265.96V265.384C20.869 263.443 19.9197 262.472 18.021 262.472H15.301C13.4023 262.472 12.453 263.485 12.453 265.512V266.792C12.453 267.88 13.1677 268.627 14.597 269.032C15.237 269.203 15.941 269.363 16.709 269.512C17.477 269.64 18.245 269.821 19.013 270.056C19.8023 270.269 20.517 270.547 21.157 270.888C21.797 271.208 22.309 271.709 22.693 272.392C23.0983 273.053 23.301 273.864 23.301 274.824V276.264C23.301 277.736 22.8743 278.899 22.021 279.752C21.1677 280.584 20.0157 281 18.565 281H14.885C13.4343 281 12.2823 280.584 11.429 279.752C10.5757 278.899 10.149 277.736 10.149 276.264ZM21.317 288.424H22.757C23.0557 288.424 23.205 288.563 23.205 288.84V304.264C23.205 305.757 22.789 306.92 21.957 307.752C21.125 308.584 19.973 309 18.501 309H14.949C13.477 309 12.3143 308.584 11.461 307.752C10.629 306.92 10.213 305.757 10.213 304.264V288.872C10.213 288.573 10.3623 288.424 10.661 288.424H12.101C12.3997 288.424 12.549 288.573 12.549 288.872V304.168C12.549 306.024 13.4343 306.952 15.205 306.952H18.213C20.005 306.952 20.901 306.024 20.901 304.168V288.872C20.901 288.573 21.0397 288.424 21.317 288.424ZM11.199 337H9.599C9.32167 337 9.22567 336.851 9.311 336.552L15.295 316.872C15.3803 316.573 15.583 316.424 15.903 316.424H18.207C18.527 316.424 18.7297 316.573 18.815 316.872L24.799 336.552C24.8843 336.851 24.7883 337 24.511 337H22.879C22.6443 337 22.495 336.851 22.431 336.552L20.927 331.88H13.183L11.679 336.552C11.5937 336.851 11.4337 337 11.199 337ZM16.991 318.824L13.695 329.896H20.415L17.119 318.824H16.991ZM22.373 365H12.101C11.8023 365 11.653 364.851 11.653 364.552V344.872C11.653 344.573 11.8023 344.424 12.101 344.424H13.541C13.8397 344.424 13.989 344.573 13.989 344.872V362.6C13.989 362.792 14.0957 362.888 14.309 362.888H22.373C22.6717 362.888 22.821 363.048 22.821 363.368V364.552C22.821 364.851 22.6717 365 22.373 365Z" fill="white"/>
</svg>
