<svg width="176" height="394" viewBox="0 0 176 394" fill="none" xmlns="http://www.w3.org/2000/svg">
<path d="M0 0L176 365V394V197V0V394H0V0Z" fill="#FFCC34"/>
<path d="M57.2423 188.204L76.6247 163.315L96.0071 188.204H57.2423Z" fill="white" stroke="#D9D9D9"/>
<path d="M78.5936 166.592L109.517 167.487L103.455 197.823L78.5936 166.592Z" fill="white" stroke="#D9D9D9"/>
<path d="M107.925 172.321L128.214 195.339L101.624 210.649L107.925 172.321Z" fill="white" stroke="#D9D9D9"/>
<path d="M123.809 198.62L118.233 229.669L89.4958 216.656L123.809 198.62Z" fill="white" stroke="#D9D9D9"/>
<path d="M113.4 227.362L85.7586 241.593L78.0755 211.467L113.4 227.362Z" fill="white" stroke="#D9D9D9"/>
<path d="M84.2312 237.283L55.4277 224.418L74.9565 199.644L84.2312 237.283Z" fill="white" stroke="#D9D9D9"/>
<path d="M58.8406 219.486L51.1287 188.897L82.6745 188.914L58.8406 219.486Z" fill="white" stroke="#D9D9D9"/>
<circle cx="88.812" cy="201.501" r="35.6245" stroke="#D9D9D9" stroke-width="10"/>
<circle cx="88.812" cy="201.501" r="38.6245" stroke="white" stroke-width="4"/>
<rect x="41" y="344" width="89" height="40" rx="10" fill="#FFCC34"/>
<path d="M56.288 304H55.52C55.3707 304 55.264 303.904 55.2 303.712L48.992 283.712C48.928 283.52 48.992 283.424 49.184 283.424H49.664C49.8133 283.424 49.92 283.52 49.984 283.712L55.84 302.592H55.968L61.824 283.712C61.888 283.52 61.9947 283.424 62.144 283.424H62.624C62.816 283.424 62.88 283.52 62.816 283.712L56.608 303.712C56.544 303.904 56.4373 304 56.288 304ZM66.5325 285.024V281.856C66.5325 281.664 66.6178 281.568 66.7885 281.568H67.2365C67.4072 281.568 67.4925 281.664 67.4925 281.856V285.024C67.4925 285.216 67.4072 285.312 67.2365 285.312H66.7885C66.6178 285.312 66.5325 285.216 66.5325 285.024ZM66.5325 303.712V287.968C66.5325 287.776 66.6178 287.68 66.7885 287.68H67.2365C67.4072 287.68 67.4925 287.776 67.4925 287.968V303.712C67.4925 303.904 67.4072 304 67.2365 304H66.7885C66.6178 304 66.5325 303.904 66.5325 303.712ZM77.8348 304H72.3948C72.2028 304 72.1068 303.915 72.1068 303.744V303.36C72.1068 303.189 72.2028 303.104 72.3948 303.104H77.8348C79.9894 303.104 81.0668 302.251 81.0668 300.544V299.584C81.0668 298.795 80.9281 298.155 80.6508 297.664C80.3734 297.173 79.8721 296.8 79.1468 296.544L74.9227 295.072C73.8134 294.688 73.0348 294.219 72.5868 293.664C72.1601 293.088 71.9468 292.288 71.9468 291.264C71.9468 288.875 73.2481 287.68 75.8508 287.68H81.0028C81.1948 287.68 81.2908 287.765 81.2908 287.936V288.32C81.2908 288.491 81.1948 288.576 81.0028 288.576H75.8508C74.8694 288.576 74.1334 288.8 73.6428 289.248C73.1734 289.696 72.9388 290.208 72.9388 290.784V291.648C72.9388 292.331 73.1094 292.864 73.4508 293.248C73.8134 293.611 74.3681 293.92 75.1148 294.176L79.3068 295.68C80.4374 296 81.1734 296.523 81.5148 297.248C81.8561 297.973 82.0268 298.987 82.0268 300.288C82.0268 301.589 81.6854 302.539 81.0028 303.136C80.3201 303.712 79.2641 304 77.8348 304ZM92.9935 304H90.6255C89.3242 304 88.2788 303.605 87.4895 302.816C86.7215 302.027 86.3375 300.971 86.3375 299.648V287.968C86.3375 287.776 86.4228 287.68 86.5935 287.68H87.0415C87.2122 287.68 87.2975 287.776 87.2975 287.968V299.616C87.2975 300.704 87.5855 301.557 88.1615 302.176C88.7375 302.795 89.5588 303.104 90.6255 303.104H92.9295C93.9962 303.104 94.8602 302.816 95.5215 302.24C96.1828 301.664 96.5135 300.843 96.5135 299.776V287.968C96.5135 287.776 96.5988 287.68 96.7695 287.68H97.2175C97.3882 287.68 97.4735 287.776 97.4735 287.968V303.712C97.4735 303.904 97.3882 304 97.2175 304H96.7695C96.5988 304 96.5135 303.904 96.5135 303.712V302.336H96.3855C95.7882 303.445 94.6575 304 92.9935 304ZM108.927 304H106.559C105.258 304 104.213 303.605 103.423 302.816C102.655 302.027 102.271 300.971 102.271 299.648V292.032C102.271 290.709 102.655 289.653 103.423 288.864C104.213 288.075 105.258 287.68 106.559 287.68H113.151C113.322 287.68 113.407 287.776 113.407 287.968V303.712C113.407 303.904 113.322 304 113.151 304H112.703C112.533 304 112.447 303.904 112.447 303.712V302.336H112.319C111.722 303.445 110.591 304 108.927 304ZM112.447 299.776V288.832C112.447 288.661 112.351 288.576 112.159 288.576H106.559C105.493 288.576 104.671 288.885 104.095 289.504C103.519 290.123 103.231 290.976 103.231 292.064V299.616C103.231 300.704 103.519 301.557 104.095 302.176C104.671 302.795 105.493 303.104 106.559 303.104H108.863C109.93 303.104 110.794 302.816 111.455 302.24C112.117 301.664 112.447 300.843 112.447 299.776ZM119.393 304H118.945C118.774 304 118.689 303.904 118.689 303.712V281.792C118.689 281.6 118.774 281.504 118.945 281.504H119.393C119.563 281.504 119.649 281.6 119.649 281.792V303.712C119.649 303.904 119.563 304 119.393 304Z" fill="white"/>
</svg>
