<svg width="57" height="57" viewBox="0 0 57 57" fill="none" xmlns="http://www.w3.org/2000/svg">
<rect x="14.2695" y="8.24158" width="56.0896" height="2.56757" rx="1.28378" transform="rotate(44.9276 14.2695 8.24158)" fill="#D9D9D9"/>
<path fill-rule="evenodd" clip-rule="evenodd" d="M57 28.5C57 44.2401 44.2401 57 28.5 57C12.7599 57 0 44.2401 0 28.5C0 12.7599 12.7599 0 28.5 0C44.2401 0 57 12.7599 57 28.5ZM39.3611 41.7655C35.9048 45.3535 31.0509 47.5856 25.6757 47.5856C15.1823 47.5856 6.67568 39.079 6.67568 28.5856C6.67568 18.0922 15.1823 9.58559 25.6757 9.58559C31.3087 9.58559 36.3692 12.0369 39.8485 15.931C39.6613 15.923 39.473 15.9189 39.2838 15.9189C32.1464 15.9189 26.3604 21.7049 26.3604 28.8423C26.3604 35.9798 32.1464 41.7658 39.2838 41.7658C39.3096 41.7658 39.3353 41.7657 39.3611 41.7655ZM39.3611 41.7655C46.4629 41.724 52.2072 35.954 52.2072 28.8423C52.2072 21.8942 46.7239 16.2267 39.8485 15.931C42.8507 19.291 44.6757 23.7252 44.6757 28.5856C44.6757 33.7037 42.652 38.3492 39.3611 41.7655Z" fill="#D9D9D9"/>
<rect x="54.3066" y="9.6629" width="56.7607" height="2.56757" rx="1.28378" transform="rotate(134.928 54.3066 9.6629)" fill="#D9D9D9"/>
<ellipse cx="33.2065" cy="28.9279" rx="3.93694" ry="3.93694" fill="#2A2A2A"/>
</svg>
