<svg width="143" height="86" viewBox="0 0 143 86" fill="none" xmlns="http://www.w3.org/2000/svg">
<rect y="33" width="138" height="53" fill="#1A1919"/>
<rect x="103" y="42" width="22" height="36" fill="#363636"/>
<rect x="73" y="42" width="22" height="36" fill="#363636"/>
<rect x="43" y="42" width="22" height="36" fill="#363636"/>
<rect x="13" y="42" width="22" height="36" fill="#363636"/>
<path d="M1.8 16.28V15.48C1.8 15.36 1.85333 15.3 1.96 15.3H2.24C2.34667 15.3 2.4 15.36 2.4 15.48V16.26C2.4 16.94 2.58 17.4733 2.94 17.86C3.3 18.2467 3.81333 18.44 4.48 18.44H6.88C7.54667 18.44 8.06 18.2467 8.42 17.86C8.78 17.4733 8.96 16.94 8.96 16.26V15.26C8.96 14.6333 8.71333 14.14 8.22 13.78C7.72667 13.4067 7.12667 13.14 6.42 12.98C5.72667 12.8067 5.02667 12.64 4.32 12.48C3.62667 12.3067 3.03333 12.0267 2.54 11.64C2.04667 11.2533 1.8 10.7267 1.8 10.06V8.86C1.8 8.03333 2.04 7.37333 2.52 6.88C3.01333 6.38667 3.66667 6.14 4.48 6.14H6.88C7.69333 6.14 8.34 6.38667 8.82 6.88C9.31333 7.37333 9.56 8.03333 9.56 8.86V9.46C9.56 9.58 9.50667 9.64 9.4 9.64H9.12C9.01333 9.64 8.96 9.58 8.96 9.46V8.88C8.96 8.2 8.78 7.66667 8.42 7.28C8.06 6.89333 7.54667 6.7 6.88 6.7H4.48C3.81333 6.7 3.3 6.89333 2.94 7.28C2.58 7.66667 2.4 8.2 2.4 8.88V10.04C2.4 11.0267 3.24 11.7067 4.92 12.08C5.62667 12.2267 6.32667 12.3933 7.02 12.58C7.72667 12.7533 8.32667 13.06 8.82 13.5C9.31333 13.9267 9.56 14.5 9.56 15.22V16.28C9.56 17.1067 9.31333 17.7667 8.82 18.26C8.34 18.7533 7.69333 19 6.88 19H4.48C3.66667 19 3.01333 18.7533 2.52 18.26C2.04 17.7667 1.8 17.1067 1.8 16.28ZM13.6072 19H13.3272C13.2205 19 13.1672 18.94 13.1672 18.82V6.32C13.1672 6.2 13.2205 6.14 13.3272 6.14H17.8472C18.6605 6.14 19.3072 6.38667 19.7872 6.88C20.2805 7.37333 20.5272 8.03333 20.5272 8.86V11.32C20.5272 12.1467 20.2805 12.8067 19.7872 13.3C19.3072 13.7933 18.6605 14.04 17.8472 14.04H13.9472C13.8272 14.04 13.7672 14.0933 13.7672 14.2V18.82C13.7672 18.94 13.7139 19 13.6072 19ZM13.9472 13.48H17.8472C18.5139 13.48 19.0272 13.2867 19.3872 12.9C19.7472 12.5133 19.9272 11.98 19.9272 11.3V8.88C19.9272 8.2 19.7472 7.66667 19.3872 7.28C19.0272 6.89333 18.5139 6.7 17.8472 6.7H13.9472C13.8272 6.7 13.7672 6.75333 13.7672 6.86V13.32C13.7672 13.4267 13.8272 13.48 13.9472 13.48ZM29.8759 19H23.7959C23.6893 19 23.6359 18.94 23.6359 18.82V6.32C23.6359 6.2 23.6893 6.14 23.7959 6.14H29.8759C29.9959 6.14 30.0559 6.19333 30.0559 6.3V6.54C30.0559 6.64667 29.9959 6.7 29.8759 6.7H24.4159C24.2959 6.7 24.2359 6.75333 24.2359 6.86V12C24.2359 12.1067 24.2959 12.16 24.4159 12.16H29.3559C29.4759 12.16 29.5359 12.2133 29.5359 12.32V12.56C29.5359 12.6667 29.4759 12.72 29.3559 12.72H24.4159C24.2959 12.72 24.2359 12.7733 24.2359 12.88V18.28C24.2359 18.3867 24.2959 18.44 24.4159 18.44H29.8759C29.9959 18.44 30.0559 18.4933 30.0559 18.6V18.84C30.0559 18.9467 29.9959 19 29.8759 19ZM38.3448 19H35.7448C34.9315 19 34.2782 18.7533 33.7848 18.26C33.3048 17.7667 33.0648 17.1067 33.0648 16.28V8.86C33.0648 8.03333 33.3048 7.37333 33.7848 6.88C34.2782 6.38667 34.9315 6.14 35.7448 6.14H38.3448C39.1582 6.14 39.8048 6.38667 40.2848 6.88C40.7782 7.37333 41.0248 8.03333 41.0248 8.86V9.86C41.0248 9.98 40.9715 10.04 40.8648 10.04H40.5848C40.4782 10.04 40.4248 9.98 40.4248 9.86V8.88C40.4248 8.2 40.2448 7.66667 39.8848 7.28C39.5248 6.89333 39.0115 6.7 38.3448 6.7H35.7448C35.0782 6.7 34.5648 6.89333 34.2048 7.28C33.8448 7.66667 33.6648 8.2 33.6648 8.88V16.26C33.6648 16.94 33.8448 17.4733 34.2048 17.86C34.5648 18.2467 35.0782 18.44 35.7448 18.44H38.3448C39.0115 18.44 39.5248 18.2467 39.8848 17.86C40.2448 17.4733 40.4248 16.94 40.4248 16.26V15.28C40.4248 15.16 40.4782 15.1 40.5848 15.1H40.8648C40.9715 15.1 41.0248 15.16 41.0248 15.28V16.28C41.0248 17.1067 40.7782 17.7667 40.2848 18.26C39.8048 18.7533 39.1582 19 38.3448 19ZM44.8242 6.32V18.82C44.8242 18.94 44.7709 19 44.6642 19H44.3842C44.2776 19 44.2242 18.94 44.2242 18.82V6.32C44.2242 6.2 44.2776 6.14 44.3842 6.14H44.6642C44.7709 6.14 44.8242 6.2 44.8242 6.32ZM47.7388 19H47.4588C47.3388 19 47.2988 18.94 47.3388 18.82L51.5388 6.32C51.5788 6.2 51.6454 6.14 51.7388 6.14H52.2188C52.3121 6.14 52.3788 6.2 52.4188 6.32L56.6188 18.82C56.6588 18.94 56.6188 19 56.4988 19H56.1988C56.1054 19 56.0388 18.94 55.9988 18.82L54.7788 15.34H49.1788L47.9588 18.82C47.9054 18.94 47.8321 19 47.7388 19ZM51.9388 6.9L49.3988 14.74H54.5588L52.0188 6.9H51.9388ZM65.5061 19H59.2061C59.0994 19 59.0461 18.94 59.0461 18.82V6.32C59.0461 6.2 59.0994 6.14 59.2061 6.14H59.4861C59.5928 6.14 59.6461 6.2 59.6461 6.32V18.24C59.6461 18.3467 59.7061 18.4 59.8261 18.4H65.5061C65.6261 18.4 65.6861 18.4533 65.6861 18.56V18.84C65.6861 18.9467 65.6261 19 65.5061 19ZM72.9145 19H72.6345C72.5145 19 72.4745 18.94 72.5145 18.82L76.7145 6.32C76.7545 6.2 76.8212 6.14 76.9145 6.14H77.3945C77.4879 6.14 77.5545 6.2 77.5945 6.32L81.7945 18.82C81.8345 18.94 81.7945 19 81.6745 19H81.3745C81.2812 19 81.2145 18.94 81.1745 18.82L79.9545 15.34H74.3545L73.1345 18.82C73.0812 18.94 73.0079 19 72.9145 19ZM77.1145 6.9L74.5745 14.74H79.7345L77.1945 6.9H77.1145ZM89.3019 19H86.7019C85.8885 19 85.2352 18.7533 84.7419 18.26C84.2619 17.7667 84.0219 17.1067 84.0219 16.28V8.86C84.0219 8.03333 84.2619 7.37333 84.7419 6.88C85.2352 6.38667 85.8885 6.14 86.7019 6.14H89.3019C90.1152 6.14 90.7619 6.38667 91.2419 6.88C91.7352 7.37333 91.9819 8.03333 91.9819 8.86V9.86C91.9819 9.98 91.9285 10.04 91.8219 10.04H91.5419C91.4352 10.04 91.3819 9.98 91.3819 9.86V8.88C91.3819 8.2 91.2019 7.66667 90.8419 7.28C90.4819 6.89333 89.9685 6.7 89.3019 6.7H86.7019C86.0352 6.7 85.5219 6.89333 85.1619 7.28C84.8019 7.66667 84.6219 8.2 84.6219 8.88V16.26C84.6219 16.94 84.8019 17.4733 85.1619 17.86C85.5219 18.2467 86.0352 18.44 86.7019 18.44H89.3019C89.9685 18.44 90.4819 18.2467 90.8419 17.86C91.2019 17.4733 91.3819 16.94 91.3819 16.26V15.28C91.3819 15.16 91.4352 15.1 91.5419 15.1H91.8219C91.9285 15.1 91.9819 15.16 91.9819 15.28V16.28C91.9819 17.1067 91.7352 17.7667 91.2419 18.26C90.7619 18.7533 90.1152 19 89.3019 19ZM100.161 19H97.5613C96.7479 19 96.0946 18.7533 95.6013 18.26C95.1213 17.7667 94.8813 17.1067 94.8813 16.28V8.86C94.8813 8.03333 95.1213 7.37333 95.6013 6.88C96.0946 6.38667 96.7479 6.14 97.5613 6.14H100.161C100.975 6.14 101.621 6.38667 102.101 6.88C102.595 7.37333 102.841 8.03333 102.841 8.86V9.86C102.841 9.98 102.788 10.04 102.681 10.04H102.401C102.295 10.04 102.241 9.98 102.241 9.86V8.88C102.241 8.2 102.061 7.66667 101.701 7.28C101.341 6.89333 100.828 6.7 100.161 6.7H97.5613C96.8946 6.7 96.3813 6.89333 96.0213 7.28C95.6613 7.66667 95.4813 8.2 95.4813 8.88V16.26C95.4813 16.94 95.6613 17.4733 96.0213 17.86C96.3813 18.2467 96.8946 18.44 97.5613 18.44H100.161C100.828 18.44 101.341 18.2467 101.701 17.86C102.061 17.4733 102.241 16.94 102.241 16.26V15.28C102.241 15.16 102.295 15.1 102.401 15.1H102.681C102.788 15.1 102.841 15.16 102.841 15.28V16.28C102.841 17.1067 102.595 17.7667 102.101 18.26C101.621 18.7533 100.975 19 100.161 19ZM112.181 19H106.101C105.994 19 105.941 18.94 105.941 18.82V6.32C105.941 6.2 105.994 6.14 106.101 6.14H112.181C112.301 6.14 112.361 6.19333 112.361 6.3V6.54C112.361 6.64667 112.301 6.7 112.181 6.7H106.721C106.601 6.7 106.541 6.75333 106.541 6.86V12C106.541 12.1067 106.601 12.16 106.721 12.16H111.661C111.781 12.16 111.841 12.2133 111.841 12.32V12.56C111.841 12.6667 111.781 12.72 111.661 12.72H106.721C106.601 12.72 106.541 12.7733 106.541 12.88V18.28C106.541 18.3867 106.601 18.44 106.721 18.44H112.181C112.301 18.44 112.361 18.4933 112.361 18.6V18.84C112.361 18.9467 112.301 19 112.181 19ZM115.57 16.28V15.48C115.57 15.36 115.623 15.3 115.73 15.3H116.01C116.116 15.3 116.17 15.36 116.17 15.48V16.26C116.17 16.94 116.35 17.4733 116.71 17.86C117.07 18.2467 117.583 18.44 118.25 18.44H120.65C121.316 18.44 121.83 18.2467 122.19 17.86C122.55 17.4733 122.73 16.94 122.73 16.26V15.26C122.73 14.6333 122.483 14.14 121.99 13.78C121.496 13.4067 120.896 13.14 120.19 12.98C119.496 12.8067 118.796 12.64 118.09 12.48C117.396 12.3067 116.803 12.0267 116.31 11.64C115.816 11.2533 115.57 10.7267 115.57 10.06V8.86C115.57 8.03333 115.81 7.37333 116.29 6.88C116.783 6.38667 117.436 6.14 118.25 6.14H120.65C121.463 6.14 122.11 6.38667 122.59 6.88C123.083 7.37333 123.33 8.03333 123.33 8.86V9.46C123.33 9.58 123.276 9.64 123.17 9.64H122.89C122.783 9.64 122.73 9.58 122.73 9.46V8.88C122.73 8.2 122.55 7.66667 122.19 7.28C121.83 6.89333 121.316 6.7 120.65 6.7H118.25C117.583 6.7 117.07 6.89333 116.71 7.28C116.35 7.66667 116.17 8.2 116.17 8.88V10.04C116.17 11.0267 117.01 11.7067 118.69 12.08C119.396 12.2267 120.096 12.3933 120.79 12.58C121.496 12.7533 122.096 13.06 122.59 13.5C123.083 13.9267 123.33 14.5 123.33 15.22V16.28C123.33 17.1067 123.083 17.7667 122.59 18.26C122.11 18.7533 121.463 19 120.65 19H118.25C117.436 19 116.783 18.7533 116.29 18.26C115.81 17.7667 115.57 17.1067 115.57 16.28ZM126.937 16.28V15.48C126.937 15.36 126.99 15.3 127.097 15.3H127.377C127.483 15.3 127.537 15.36 127.537 15.48V16.26C127.537 16.94 127.717 17.4733 128.077 17.86C128.437 18.2467 128.95 18.44 129.617 18.44H132.017C132.683 18.44 133.197 18.2467 133.557 17.86C133.917 17.4733 134.097 16.94 134.097 16.26V15.26C134.097 14.6333 133.85 14.14 133.357 13.78C132.863 13.4067 132.263 13.14 131.557 12.98C130.863 12.8067 130.163 12.64 129.457 12.48C128.763 12.3067 128.17 12.0267 127.677 11.64C127.183 11.2533 126.937 10.7267 126.937 10.06V8.86C126.937 8.03333 127.177 7.37333 127.657 6.88C128.15 6.38667 128.803 6.14 129.617 6.14H132.017C132.83 6.14 133.477 6.38667 133.957 6.88C134.45 7.37333 134.697 8.03333 134.697 8.86V9.46C134.697 9.58 134.643 9.64 134.537 9.64H134.257C134.15 9.64 134.097 9.58 134.097 9.46V8.88C134.097 8.2 133.917 7.66667 133.557 7.28C133.197 6.89333 132.683 6.7 132.017 6.7H129.617C128.95 6.7 128.437 6.89333 128.077 7.28C127.717 7.66667 127.537 8.2 127.537 8.88V10.04C127.537 11.0267 128.377 11.7067 130.057 12.08C130.763 12.2267 131.463 12.3933 132.157 12.58C132.863 12.7533 133.463 13.06 133.957 13.5C134.45 13.9267 134.697 14.5 134.697 15.22V16.28C134.697 17.1067 134.45 17.7667 133.957 18.26C133.477 18.7533 132.83 19 132.017 19H129.617C128.803 19 128.15 18.7533 127.657 18.26C127.177 17.7667 126.937 17.1067 126.937 16.28Z" fill="white"/>
</svg>
