<svg width="121" height="15" viewBox="0 0 121 15" fill="none" xmlns="http://www.w3.org/2000/svg">
<path d="M4.36547 15H0.965469C0.845469 15 0.785469 14.9467 0.785469 14.84V14.6C0.785469 14.4933 0.845469 14.44 0.965469 14.44H4.36547C5.71214 14.44 6.38547 13.9067 6.38547 12.84V12.24C6.38547 11.7467 6.2988 11.3467 6.12547 11.04C5.95214 10.7333 5.6388 10.5 5.18547 10.34L2.54547 9.42C1.85214 9.18 1.36547 8.88667 1.08547 8.54C0.818802 8.18 0.685469 7.68 0.685469 7.04C0.685469 5.54667 1.4988 4.8 3.12547 4.8H6.34547C6.46547 4.8 6.52547 4.85333 6.52547 4.96V5.2C6.52547 5.30667 6.46547 5.36 6.34547 5.36H3.12547C2.51214 5.36 2.05214 5.5 1.74547 5.78C1.45214 6.06 1.30547 6.38 1.30547 6.74V7.28C1.30547 7.70667 1.41214 8.04 1.62547 8.28C1.85214 8.50667 2.1988 8.7 2.66547 8.86L5.28547 9.8C5.99214 10 6.45214 10.3267 6.66547 10.78C6.8788 11.2333 6.98547 11.8667 6.98547 12.68C6.98547 13.4933 6.77214 14.0867 6.34547 14.46C5.9188 14.82 5.2588 15 4.36547 15ZM15.7397 15H14.2597C13.4464 15 12.793 14.7533 12.2997 14.26C11.8197 13.7667 11.5797 13.1067 11.5797 12.28V7.52C11.5797 6.69333 11.8197 6.03333 12.2997 5.54C12.793 5.04667 13.4464 4.8 14.2597 4.8H18.3797C18.4864 4.8 18.5397 4.86 18.5397 4.98V14.82C18.5397 14.94 18.4864 15 18.3797 15H18.0997C17.993 15 17.9397 14.94 17.9397 14.82V13.96H17.8597C17.4864 14.6533 16.7797 15 15.7397 15ZM17.9397 12.36V5.52C17.9397 5.41333 17.8797 5.36 17.7597 5.36H14.2597C13.593 5.36 13.0797 5.55333 12.7197 5.94C12.3597 6.32667 12.1797 6.86 12.1797 7.54V12.26C12.1797 12.94 12.3597 13.4733 12.7197 13.86C13.0797 14.2467 13.593 14.44 14.2597 14.44H15.6997C16.3664 14.44 16.9064 14.26 17.3197 13.9C17.733 13.54 17.9397 13.0267 17.9397 12.36ZM27.7006 15H26.2206C25.4073 15 24.754 14.7533 24.2606 14.26C23.7806 13.7667 23.5406 13.1067 23.5406 12.28V7.52C23.5406 6.69333 23.7806 6.03333 24.2606 5.54C24.754 5.04667 25.4073 4.8 26.2206 4.8H30.3406C30.4473 4.8 30.5006 4.86 30.5006 4.98V14.82C30.5006 14.94 30.4473 15 30.3406 15H30.0606C29.954 15 29.9006 14.94 29.9006 14.82V13.96H29.8206C29.4473 14.6533 28.7406 15 27.7006 15ZM29.9006 12.36V5.52C29.9006 5.41333 29.8406 5.36 29.7206 5.36H26.2206C25.554 5.36 25.0406 5.55333 24.6806 5.94C24.3206 6.32667 24.1406 6.86 24.1406 7.54V12.26C24.1406 12.94 24.3206 13.4733 24.6806 13.86C25.0406 14.2467 25.554 14.44 26.2206 14.44H27.6606C28.3273 14.44 28.8673 14.26 29.2806 13.9C29.694 13.54 29.9006 13.0267 29.9006 12.36ZM36.1416 15H35.8616C35.7549 15 35.7016 14.94 35.7016 14.82V4.98C35.7016 4.86 35.7549 4.8 35.8616 4.8H36.1416C36.2482 4.8 36.3016 4.86 36.3016 4.98V5.84H36.3816C36.7549 5.14667 37.4616 4.8 38.5016 4.8H39.3816C40.5549 4.8 41.3616 5.27333 41.8016 6.22C41.9882 5.75333 42.3282 5.4 42.8216 5.16C43.3282 4.92 43.8349 4.8 44.3416 4.8H45.1416C45.9549 4.8 46.6016 5.04667 47.0816 5.54C47.5749 6.03333 47.8216 6.69333 47.8216 7.52V14.82C47.8216 14.94 47.7682 15 47.6616 15H47.3816C47.2749 15 47.2216 14.94 47.2216 14.82V7.54C47.2216 6.86 47.0416 6.32667 46.6816 5.94C46.3216 5.55333 45.8082 5.36 45.1416 5.36H44.3416C43.6616 5.36 43.1082 5.56 42.6816 5.96C42.2682 6.34667 42.0616 6.87333 42.0616 7.54V14.82C42.0616 14.94 42.0082 15 41.9016 15H41.6216C41.5149 15 41.4616 14.94 41.4616 14.82V7.54C41.4616 6.86 41.2816 6.32667 40.9216 5.94C40.5616 5.55333 40.0482 5.36 39.3816 5.36H38.5416C37.8749 5.36 37.3349 5.54 36.9216 5.9C36.5082 6.26 36.3016 6.77333 36.3016 7.44V14.82C36.3016 14.94 36.2482 15 36.1416 15ZM60.9619 15H60.6819C60.5752 15 60.5219 14.94 60.5219 14.82V1.12C60.5219 1 60.5752 0.94 60.6819 0.94H60.9619C61.0685 0.94 61.1219 1 61.1219 1.12V5.84H61.2019C61.5752 5.14667 62.2819 4.8 63.3219 4.8H64.8019C65.6152 4.8 66.2619 5.04667 66.7419 5.54C67.2352 6.03333 67.4819 6.69333 67.4819 7.52V14.82C67.4819 14.94 67.4285 15 67.3219 15H67.0419C66.9352 15 66.8819 14.94 66.8819 14.82V7.54C66.8819 6.86 66.7019 6.32667 66.3419 5.94C65.9819 5.55333 65.4685 5.36 64.8019 5.36H63.3619C62.6952 5.36 62.1552 5.54 61.7419 5.9C61.3285 6.26 61.1219 6.77333 61.1219 7.44V14.82C61.1219 14.94 61.0685 15 60.9619 15ZM76.5405 15H75.0605C74.2471 15 73.5938 14.7533 73.1005 14.26C72.6205 13.7667 72.3805 13.1067 72.3805 12.28V7.52C72.3805 6.69333 72.6205 6.03333 73.1005 5.54C73.5938 5.04667 74.2471 4.8 75.0605 4.8H79.1805C79.2871 4.8 79.3405 4.86 79.3405 4.98V14.82C79.3405 14.94 79.2871 15 79.1805 15H78.9005C78.7938 15 78.7405 14.94 78.7405 14.82V13.96H78.6605C78.2871 14.6533 77.5805 15 76.5405 15ZM78.7405 12.36V5.52C78.7405 5.41333 78.6805 5.36 78.5605 5.36H75.0605C74.3938 5.36 73.8805 5.55333 73.5205 5.94C73.1605 6.32667 72.9805 6.86 72.9805 7.54V12.26C72.9805 12.94 73.1605 13.4733 73.5205 13.86C73.8805 14.2467 74.3938 14.44 75.0605 14.44H76.5005C77.1671 14.44 77.7071 14.26 78.1205 13.9C78.5338 13.54 78.7405 13.0267 78.7405 12.36ZM84.9814 15H84.7014C84.5947 15 84.5414 14.94 84.5414 14.82V4.98C84.5414 4.86 84.5947 4.8 84.7014 4.8H84.9814C85.0881 4.8 85.1414 4.86 85.1414 4.98V5.84H85.2214C85.5947 5.14667 86.3014 4.8 87.3414 4.8H88.2214C89.3947 4.8 90.2014 5.27333 90.6414 6.22C90.8281 5.75333 91.1681 5.4 91.6614 5.16C92.1681 4.92 92.6747 4.8 93.1814 4.8H93.9814C94.7947 4.8 95.4414 5.04667 95.9214 5.54C96.4147 6.03333 96.6614 6.69333 96.6614 7.52V14.82C96.6614 14.94 96.6081 15 96.5014 15H96.2214C96.1147 15 96.0614 14.94 96.0614 14.82V7.54C96.0614 6.86 95.8814 6.32667 95.5214 5.94C95.1614 5.55333 94.6481 5.36 93.9814 5.36H93.1814C92.5014 5.36 91.9481 5.56 91.5214 5.96C91.1081 6.34667 90.9014 6.87333 90.9014 7.54V14.82C90.9014 14.94 90.8481 15 90.7414 15H90.4614C90.3547 15 90.3014 14.94 90.3014 14.82V7.54C90.3014 6.86 90.1214 6.32667 89.7614 5.94C89.4014 5.55333 88.8881 5.36 88.2214 5.36H87.3814C86.7147 5.36 86.1747 5.54 85.7614 5.9C85.3481 6.26 85.1414 6.77333 85.1414 7.44V14.82C85.1414 14.94 85.0881 15 84.9814 15ZM101.856 3.14V1.16C101.856 1.04 101.91 0.979999 102.016 0.979999H102.296C102.403 0.979999 102.456 1.04 102.456 1.16V3.14C102.456 3.26 102.403 3.32 102.296 3.32H102.016C101.91 3.32 101.856 3.26 101.856 3.14ZM101.856 14.82V4.98C101.856 4.86 101.91 4.8 102.016 4.8H102.296C102.403 4.8 102.456 4.86 102.456 4.98V14.82C102.456 14.94 102.403 15 102.296 15H102.016C101.91 15 101.856 14.94 101.856 14.82ZM111.72 15H110.24C109.427 15 108.773 14.7533 108.28 14.26C107.8 13.7667 107.56 13.1067 107.56 12.28V7.52C107.56 6.69333 107.8 6.03333 108.28 5.54C108.773 5.04667 109.427 4.8 110.24 4.8H111.72C112.76 4.8 113.467 5.14667 113.84 5.84H113.92V1.12C113.92 1 113.973 0.94 114.08 0.94H114.36C114.467 0.94 114.52 1 114.52 1.12V14.82C114.52 14.94 114.467 15 114.36 15H114.08C113.973 15 113.92 14.94 113.92 14.82V13.96H113.84C113.467 14.6533 112.76 15 111.72 15ZM113.92 12.36V7.44C113.92 6.77333 113.713 6.26 113.3 5.9C112.887 5.54 112.347 5.36 111.68 5.36H110.24C109.573 5.36 109.06 5.55333 108.7 5.94C108.34 6.32667 108.16 6.86 108.16 7.54V12.26C108.16 12.94 108.34 13.4733 108.7 13.86C109.06 14.2467 109.573 14.44 110.24 14.44H111.68C112.347 14.44 112.887 14.26 113.3 13.9C113.713 13.54 113.92 13.0267 113.92 12.36ZM119.821 3.14V1.16C119.821 1.04 119.874 0.979999 119.981 0.979999H120.261C120.368 0.979999 120.421 1.04 120.421 1.16V3.14C120.421 3.26 120.368 3.32 120.261 3.32H119.981C119.874 3.32 119.821 3.26 119.821 3.14ZM119.821 14.82V4.98C119.821 4.86 119.874 4.8 119.981 4.8H120.261C120.368 4.8 120.421 4.86 120.421 4.98V14.82C120.421 14.94 120.368 15 120.261 15H119.981C119.874 15 119.821 14.94 119.821 14.82Z" fill="white"/>
</svg>
