<svg width="173" height="79" viewBox="0 0 173 79" fill="none" xmlns="http://www.w3.org/2000/svg">
<path d="M6.848 30H6.4C6.22933 30 6.144 29.904 6.144 29.712V10.576C6.144 10.4053 6.048 10.32 5.856 10.32H0.928C0.736 10.32 0.64 10.2347 0.64 10.064V9.68C0.64 9.50933 0.736 9.424 0.928 9.424H12.32C12.512 9.424 12.608 9.50933 12.608 9.68V10.064C12.608 10.2347 12.512 10.32 12.32 10.32H7.392C7.2 10.32 7.104 10.4053 7.104 10.576V29.712C7.104 29.904 7.01867 30 6.848 30ZM20.034 30H19.586C19.4153 30 19.33 29.904 19.33 29.712V9.712C19.33 9.52 19.4153 9.424 19.586 9.424H20.034C20.2047 9.424 20.29 9.52 20.29 9.712V18.8C20.29 18.9707 20.386 19.056 20.578 19.056H30.498C30.69 19.056 30.786 18.9707 30.786 18.8V9.712C30.786 9.52 30.8713 9.424 31.042 9.424H31.49C31.6607 9.424 31.746 9.52 31.746 9.712V29.712C31.746 29.904 31.6607 30 31.49 30H31.042C30.8713 30 30.786 29.904 30.786 29.712V20.208C30.786 20.0373 30.69 19.952 30.498 19.952H20.578C20.386 19.952 20.29 20.0373 20.29 20.208V29.712C20.29 29.904 20.2047 30 20.034 30ZM50.7015 30H40.9735C40.8028 30 40.7175 29.904 40.7175 29.712V9.712C40.7175 9.52 40.8028 9.424 40.9735 9.424H50.7015C50.8935 9.424 50.9895 9.50933 50.9895 9.68V10.064C50.9895 10.2347 50.8935 10.32 50.7015 10.32H41.9655C41.7735 10.32 41.6775 10.4053 41.6775 10.576V18.8C41.6775 18.9707 41.7735 19.056 41.9655 19.056H49.8695C50.0615 19.056 50.1575 19.1413 50.1575 19.312V19.696C50.1575 19.8667 50.0615 19.952 49.8695 19.952H41.9655C41.7735 19.952 41.6775 20.0373 41.6775 20.208V28.848C41.6775 29.0187 41.7735 29.104 41.9655 29.104H50.7015C50.8935 29.104 50.9895 29.1893 50.9895 29.36V29.744C50.9895 29.9147 50.8935 30 50.7015 30ZM76.9005 30H76.1325C75.9832 30 75.8765 29.904 75.8125 29.712L69.6045 9.712C69.5405 9.52 69.6045 9.424 69.7965 9.424H70.2765C70.4258 9.424 70.5325 9.52 70.5965 9.712L76.4525 28.592H76.5805L82.4365 9.712C82.5005 9.52 82.6072 9.424 82.7565 9.424H83.2365C83.4285 9.424 83.4925 9.52 83.4285 9.712L77.2205 29.712C77.1565 29.904 77.0498 30 76.9005 30ZM89.257 30H88.809C88.617 30 88.553 29.904 88.617 29.712L95.337 9.712C95.401 9.52 95.5077 9.424 95.657 9.424H96.425C96.5743 9.424 96.681 9.52 96.745 9.712L103.465 29.712C103.529 29.904 103.465 30 103.273 30H102.793C102.644 30 102.537 29.904 102.473 29.712L100.521 24.144H91.561L89.609 29.712C89.5237 29.904 89.4063 30 89.257 30ZM95.977 10.64L91.913 23.184H100.169L96.105 10.64H95.977ZM121.845 9.424H122.293C122.463 9.424 122.549 9.50933 122.549 9.68V25.648C122.549 26.9707 122.154 28.0267 121.365 28.816C120.597 29.6053 119.562 30 118.261 30H114.677C113.375 30 112.33 29.6053 111.541 28.816C110.773 28.0267 110.389 26.9707 110.389 25.648V9.712C110.389 9.52 110.474 9.424 110.645 9.424H111.093C111.263 9.424 111.349 9.52 111.349 9.712V25.616C111.349 26.704 111.637 27.5573 112.213 28.176C112.789 28.7947 113.61 29.104 114.677 29.104H118.261C119.327 29.104 120.149 28.7947 120.725 28.176C121.301 27.5573 121.589 26.704 121.589 25.616V9.712C121.589 9.52 121.674 9.424 121.845 9.424ZM141.678 30H131.598C131.428 30 131.342 29.904 131.342 29.712V9.712C131.342 9.52 131.428 9.424 131.598 9.424H132.046C132.217 9.424 132.302 9.52 132.302 9.712V28.784C132.302 28.9547 132.398 29.04 132.59 29.04H141.678C141.87 29.04 141.966 29.1253 141.966 29.296V29.744C141.966 29.9147 141.87 30 141.678 30ZM152.979 30H152.531C152.361 30 152.275 29.904 152.275 29.712V10.576C152.275 10.4053 152.179 10.32 151.987 10.32H147.059C146.867 10.32 146.771 10.2347 146.771 10.064V9.68C146.771 9.50933 146.867 9.424 147.059 9.424H158.451C158.643 9.424 158.739 9.50933 158.739 9.68V10.064C158.739 10.2347 158.643 10.32 158.451 10.32H153.523C153.331 10.32 153.235 10.4053 153.235 10.576V29.712C153.235 29.904 153.15 30 152.979 30Z" fill="white"/>
<path d="M2.19879 46.824V46.184C2.19879 46.088 2.24146 46.04 2.32679 46.04H2.55079C2.63612 46.04 2.67879 46.088 2.67879 46.184V46.808C2.67879 47.352 2.82279 47.7787 3.11079 48.088C3.39879 48.3973 3.80946 48.552 4.34279 48.552H6.26279C6.79612 48.552 7.20679 48.3973 7.49479 48.088C7.78279 47.7787 7.92679 47.352 7.92679 46.808V46.008C7.92679 45.5067 7.72946 45.112 7.33479 44.824C6.94012 44.5253 6.46012 44.312 5.89479 44.184C5.34012 44.0453 4.78012 43.912 4.21479 43.784C3.66012 43.6453 3.18546 43.4213 2.79079 43.112C2.39612 42.8027 2.19879 42.3813 2.19879 41.848V40.888C2.19879 40.2267 2.39079 39.6987 2.77479 39.304C3.16946 38.9093 3.69212 38.712 4.34279 38.712H6.26279C6.91346 38.712 7.43079 38.9093 7.81479 39.304C8.20946 39.6987 8.40679 40.2267 8.40679 40.888V41.368C8.40679 41.464 8.36412 41.512 8.27879 41.512H8.05479C7.96946 41.512 7.92679 41.464 7.92679 41.368V40.904C7.92679 40.36 7.78279 39.9333 7.49479 39.624C7.20679 39.3147 6.79612 39.16 6.26279 39.16H4.34279C3.80946 39.16 3.39879 39.3147 3.11079 39.624C2.82279 39.9333 2.67879 40.36 2.67879 40.904V41.832C2.67879 42.6213 3.35079 43.1653 4.69479 43.464C5.26012 43.5813 5.82012 43.7147 6.37479 43.864C6.94012 44.0027 7.42012 44.248 7.81479 44.6C8.20946 44.9413 8.40679 45.4 8.40679 45.976V46.824C8.40679 47.4853 8.20946 48.0133 7.81479 48.408C7.43079 48.8027 6.91346 49 6.26279 49H4.34279C3.69212 49 3.16946 48.8027 2.77479 48.408C2.39079 48.0133 2.19879 47.4853 2.19879 46.824ZM15.9005 49H14.7165C14.0659 49 13.5432 48.8027 13.1485 48.408C12.7645 48.0133 12.5725 47.4853 12.5725 46.824V43.016C12.5725 42.3547 12.7645 41.8267 13.1485 41.432C13.5432 41.0373 14.0659 40.84 14.7165 40.84H18.0125C18.0979 40.84 18.1405 40.888 18.1405 40.984V48.856C18.1405 48.952 18.0979 49 18.0125 49H17.7885C17.7032 49 17.6605 48.952 17.6605 48.856V48.168H17.5965C17.2979 48.7227 16.7325 49 15.9005 49ZM17.6605 46.888V41.416C17.6605 41.3307 17.6125 41.288 17.5165 41.288H14.7165C14.1832 41.288 13.7725 41.4427 13.4845 41.752C13.1965 42.0613 13.0525 42.488 13.0525 43.032V46.808C13.0525 47.352 13.1965 47.7787 13.4845 48.088C13.7725 48.3973 14.1832 48.552 14.7165 48.552H15.8685C16.4019 48.552 16.8339 48.408 17.1645 48.12C17.4952 47.832 17.6605 47.4213 17.6605 46.888ZM25.4693 49H24.2853C23.6346 49 23.112 48.8027 22.7173 48.408C22.3333 48.0133 22.1413 47.4853 22.1413 46.824V43.016C22.1413 42.3547 22.3333 41.8267 22.7173 41.432C23.112 41.0373 23.6346 40.84 24.2853 40.84H27.5813C27.6666 40.84 27.7093 40.888 27.7093 40.984V48.856C27.7093 48.952 27.6666 49 27.5813 49H27.3573C27.272 49 27.2293 48.952 27.2293 48.856V48.168H27.1653C26.8666 48.7227 26.3013 49 25.4693 49ZM27.2293 46.888V41.416C27.2293 41.3307 27.1813 41.288 27.0853 41.288H24.2853C23.752 41.288 23.3413 41.4427 23.0533 41.752C22.7653 42.0613 22.6213 42.488 22.6213 43.032V46.808C22.6213 47.352 22.7653 47.7787 23.0533 48.088C23.3413 48.3973 23.752 48.552 24.2853 48.552H25.4373C25.9706 48.552 26.4026 48.408 26.7333 48.12C27.064 47.832 27.2293 47.4213 27.2293 46.888ZM32.222 49H31.998C31.9127 49 31.87 48.952 31.87 48.856V40.984C31.87 40.888 31.9127 40.84 31.998 40.84H32.222C32.3074 40.84 32.35 40.888 32.35 40.984V41.672H32.414C32.7127 41.1173 33.278 40.84 34.11 40.84H34.814C35.7527 40.84 36.398 41.2187 36.75 41.976C36.8994 41.6027 37.1714 41.32 37.566 41.128C37.9714 40.936 38.3767 40.84 38.782 40.84H39.422C40.0727 40.84 40.59 41.0373 40.974 41.432C41.3687 41.8267 41.566 42.3547 41.566 43.016V48.856C41.566 48.952 41.5234 49 41.438 49H41.214C41.1287 49 41.086 48.952 41.086 48.856V43.032C41.086 42.488 40.942 42.0613 40.654 41.752C40.366 41.4427 39.9554 41.288 39.422 41.288H38.782C38.238 41.288 37.7954 41.448 37.454 41.768C37.1234 42.0773 36.958 42.4987 36.958 43.032V48.856C36.958 48.952 36.9154 49 36.83 49H36.606C36.5207 49 36.478 48.952 36.478 48.856V43.032C36.478 42.488 36.334 42.0613 36.046 41.752C35.758 41.4427 35.3474 41.288 34.814 41.288H34.142C33.6087 41.288 33.1767 41.432 32.846 41.72C32.5154 42.008 32.35 42.4187 32.35 42.952V48.856C32.35 48.952 32.3074 49 32.222 49ZM52.2383 49H52.0143C51.929 49 51.8863 48.952 51.8863 48.856V38.856C51.8863 38.76 51.929 38.712 52.0143 38.712H52.2383C52.3236 38.712 52.3663 38.76 52.3663 38.856V43.4C52.3663 43.4853 52.4143 43.528 52.5103 43.528H57.4703C57.5663 43.528 57.6143 43.4853 57.6143 43.4V38.856C57.6143 38.76 57.657 38.712 57.7423 38.712H57.9663C58.0516 38.712 58.0943 38.76 58.0943 38.856V48.856C58.0943 48.952 58.0516 49 57.9663 49H57.7423C57.657 49 57.6143 48.952 57.6143 48.856V44.104C57.6143 44.0187 57.5663 43.976 57.4703 43.976H52.5103C52.4143 43.976 52.3663 44.0187 52.3663 44.104V48.856C52.3663 48.952 52.3236 49 52.2383 49ZM65.588 49H64.404C63.7534 49 63.2307 48.8027 62.836 48.408C62.452 48.0133 62.26 47.4853 62.26 46.824V43.016C62.26 42.3547 62.452 41.8267 62.836 41.432C63.2307 41.0373 63.7534 40.84 64.404 40.84H67.7C67.7854 40.84 67.828 40.888 67.828 40.984V48.856C67.828 48.952 67.7854 49 67.7 49H67.476C67.3907 49 67.348 48.952 67.348 48.856V48.168H67.284C66.9854 48.7227 66.42 49 65.588 49ZM67.348 46.888V41.416C67.348 41.3307 67.3 41.288 67.204 41.288H64.404C63.8707 41.288 63.46 41.4427 63.172 41.752C62.884 42.0613 62.74 42.488 62.74 43.032V46.808C62.74 47.352 62.884 47.7787 63.172 48.088C63.46 48.3973 63.8707 48.552 64.404 48.552H65.556C66.0894 48.552 66.5214 48.408 66.852 48.12C67.1827 47.832 67.348 47.4213 67.348 46.888ZM72.3408 49H72.1168C72.0315 49 71.9888 48.952 71.9888 48.856V40.984C71.9888 40.888 72.0315 40.84 72.1168 40.84H72.3408C72.4261 40.84 72.4688 40.888 72.4688 40.984V41.672H72.5328C72.8315 41.1173 73.3968 40.84 74.2288 40.84H74.9328C75.8715 40.84 76.5168 41.2187 76.8688 41.976C77.0181 41.6027 77.2901 41.32 77.6848 41.128C78.0901 40.936 78.4955 40.84 78.9008 40.84H79.5408C80.1915 40.84 80.7088 41.0373 81.0928 41.432C81.4875 41.8267 81.6848 42.3547 81.6848 43.016V48.856C81.6848 48.952 81.6421 49 81.5568 49H81.3328C81.2475 49 81.2048 48.952 81.2048 48.856V43.032C81.2048 42.488 81.0608 42.0613 80.7728 41.752C80.4848 41.4427 80.0741 41.288 79.5408 41.288H78.9008C78.3568 41.288 77.9141 41.448 77.5728 41.768C77.2421 42.0773 77.0768 42.4987 77.0768 43.032V48.856C77.0768 48.952 77.0341 49 76.9488 49H76.7248C76.6395 49 76.5968 48.952 76.5968 48.856V43.032C76.5968 42.488 76.4528 42.0613 76.1648 41.752C75.8768 41.4427 75.4661 41.288 74.9328 41.288H74.2608C73.7275 41.288 73.2955 41.432 72.9648 41.72C72.6341 42.008 72.4688 42.4187 72.4688 42.952V48.856C72.4688 48.952 72.4261 49 72.3408 49ZM85.8407 39.512V37.928C85.8407 37.832 85.8833 37.784 85.9687 37.784H86.1927C86.278 37.784 86.3207 37.832 86.3207 37.928V39.512C86.3207 39.608 86.278 39.656 86.1927 39.656H85.9687C85.8833 39.656 85.8407 39.608 85.8407 39.512ZM85.8407 48.856V40.984C85.8407 40.888 85.8833 40.84 85.9687 40.84H86.1927C86.278 40.84 86.3207 40.888 86.3207 40.984V48.856C86.3207 48.952 86.278 49 86.1927 49H85.9687C85.8833 49 85.8407 48.952 85.8407 48.856ZM93.7318 49H92.5478C91.8971 49 91.3745 48.8027 90.9798 48.408C90.5958 48.0133 90.4038 47.4853 90.4038 46.824V43.016C90.4038 42.3547 90.5958 41.8267 90.9798 41.432C91.3745 41.0373 91.8971 40.84 92.5478 40.84H93.7318C94.5638 40.84 95.1291 41.1173 95.4278 41.672H95.4918V37.896C95.4918 37.8 95.5345 37.752 95.6198 37.752H95.8438C95.9291 37.752 95.9718 37.8 95.9718 37.896V48.856C95.9718 48.952 95.9291 49 95.8438 49H95.6198C95.5345 49 95.4918 48.952 95.4918 48.856V48.168H95.4278C95.1291 48.7227 94.5638 49 93.7318 49ZM95.4918 46.888V42.952C95.4918 42.4187 95.3265 42.008 94.9958 41.72C94.6651 41.432 94.2331 41.288 93.6998 41.288H92.5478C92.0145 41.288 91.6038 41.4427 91.3158 41.752C91.0278 42.0613 90.8838 42.488 90.8838 43.032V46.808C90.8838 47.352 91.0278 47.7787 91.3158 48.088C91.6038 48.3973 92.0145 48.552 92.5478 48.552H93.6998C94.2331 48.552 94.6651 48.408 94.9958 48.12C95.3265 47.832 95.4918 47.4213 95.4918 46.888ZM100.213 39.512V37.928C100.213 37.832 100.255 37.784 100.341 37.784H100.565C100.65 37.784 100.693 37.832 100.693 37.928V39.512C100.693 39.608 100.65 39.656 100.565 39.656H100.341C100.255 39.656 100.213 39.608 100.213 39.512ZM100.213 48.856V40.984C100.213 40.888 100.255 40.84 100.341 40.84H100.565C100.65 40.84 100.693 40.888 100.693 40.984V48.856C100.693 48.952 100.65 49 100.565 49H100.341C100.255 49 100.213 48.952 100.213 48.856Z" fill="white"/>
</svg>
