<svg width="173" height="79" viewBox="0 0 173 79" fill="none" xmlns="http://www.w3.org/2000/svg">
<path d="M6.848 30H6.4C6.22933 30 6.144 29.904 6.144 29.712V10.576C6.144 10.4053 6.048 10.32 5.856 10.32H0.928C0.736 10.32 0.64 10.2347 0.64 10.064V9.68C0.64 9.50933 0.736 9.424 0.928 9.424H12.32C12.512 9.424 12.608 9.50933 12.608 9.68V10.064C12.608 10.2347 12.512 10.32 12.32 10.32H7.392C7.2 10.32 7.104 10.4053 7.104 10.576V29.712C7.104 29.904 7.01867 30 6.848 30ZM20.034 30H19.586C19.4153 30 19.33 29.904 19.33 29.712V9.712C19.33 9.52 19.4153 9.424 19.586 9.424H20.034C20.2047 9.424 20.29 9.52 20.29 9.712V18.8C20.29 18.9707 20.386 19.056 20.578 19.056H30.498C30.69 19.056 30.786 18.9707 30.786 18.8V9.712C30.786 9.52 30.8713 9.424 31.042 9.424H31.49C31.6607 9.424 31.746 9.52 31.746 9.712V29.712C31.746 29.904 31.6607 30 31.49 30H31.042C30.8713 30 30.786 29.904 30.786 29.712V20.208C30.786 20.0373 30.69 19.952 30.498 19.952H20.578C20.386 19.952 20.29 20.0373 20.29 20.208V29.712C20.29 29.904 20.2047 30 20.034 30ZM50.7015 30H40.9735C40.8028 30 40.7175 29.904 40.7175 29.712V9.712C40.7175 9.52 40.8028 9.424 40.9735 9.424H50.7015C50.8935 9.424 50.9895 9.50933 50.9895 9.68V10.064C50.9895 10.2347 50.8935 10.32 50.7015 10.32H41.9655C41.7735 10.32 41.6775 10.4053 41.6775 10.576V18.8C41.6775 18.9707 41.7735 19.056 41.9655 19.056H49.8695C50.0615 19.056 50.1575 19.1413 50.1575 19.312V19.696C50.1575 19.8667 50.0615 19.952 49.8695 19.952H41.9655C41.7735 19.952 41.6775 20.0373 41.6775 20.208V28.848C41.6775 29.0187 41.7735 29.104 41.9655 29.104H50.7015C50.8935 29.104 50.9895 29.1893 50.9895 29.36V29.744C50.9895 29.9147 50.8935 30 50.7015 30ZM72.8918 30H72.1238C71.9744 30 71.8678 29.904 71.8038 29.712L65.5958 9.712C65.5318 9.52 65.5958 9.424 65.7878 9.424H66.2678C66.4171 9.424 66.5238 9.52 66.5878 9.712L72.4438 28.592H72.5718L78.4278 9.712C78.4918 9.52 78.5984 9.424 78.7478 9.424H79.2278C79.4198 9.424 79.4838 9.52 79.4198 9.712L73.2118 29.712C73.1478 29.904 73.0411 30 72.8918 30ZM85.2482 30H84.8002C84.6082 30 84.5442 29.904 84.6082 29.712L91.3282 9.712C91.3922 9.52 91.4989 9.424 91.6482 9.424H92.4162C92.5656 9.424 92.6722 9.52 92.7362 9.712L99.4563 29.712C99.5203 29.904 99.4562 30 99.2642 30H98.7843C98.6349 30 98.5282 29.904 98.4642 29.712L96.5122 24.144H87.5522L85.6002 29.712C85.5149 29.904 85.3976 30 85.2482 30ZM91.9682 10.64L87.9042 23.184H96.1602L92.0962 10.64H91.9682ZM117.836 9.424H118.284C118.455 9.424 118.54 9.50933 118.54 9.68V25.648C118.54 26.9707 118.145 28.0267 117.356 28.816C116.588 29.6053 115.553 30 114.252 30H110.668C109.367 30 108.321 29.6053 107.532 28.816C106.764 28.0267 106.38 26.9707 106.38 25.648V9.712C106.38 9.52 106.465 9.424 106.636 9.424H107.084C107.255 9.424 107.34 9.52 107.34 9.712V25.616C107.34 26.704 107.628 27.5573 108.204 28.176C108.78 28.7947 109.601 29.104 110.668 29.104H114.252C115.319 29.104 116.14 28.7947 116.716 28.176C117.292 27.5573 117.58 26.704 117.58 25.616V9.712C117.58 9.52 117.665 9.424 117.836 9.424ZM137.67 30H127.59C127.419 30 127.334 29.904 127.334 29.712V9.712C127.334 9.52 127.419 9.424 127.59 9.424H128.038C128.208 9.424 128.294 9.52 128.294 9.712V28.784C128.294 28.9547 128.39 29.04 128.582 29.04H137.67C137.862 29.04 137.958 29.1253 137.958 29.296V29.744C137.958 29.9147 137.862 30 137.67 30ZM147.371 30H146.923C146.752 30 146.667 29.904 146.667 29.712V10.576C146.667 10.4053 146.571 10.32 146.379 10.32H141.451C141.259 10.32 141.163 10.2347 141.163 10.064V9.68C141.163 9.50933 141.259 9.424 141.451 9.424H152.843C153.035 9.424 153.131 9.50933 153.131 9.68V10.064C153.131 10.2347 153.035 10.32 152.843 10.32H147.915C147.723 10.32 147.627 10.4053 147.627 10.576V29.712C147.627 29.904 147.541 30 147.371 30Z" fill="white"/>
<path d="M6.65116 49H3.93116C3.83516 49 3.78716 48.9573 3.78716 48.872V48.68C3.78716 48.5947 3.83516 48.552 3.93116 48.552H6.65116C7.7285 48.552 8.26716 48.1253 8.26716 47.272V46.792C8.26716 46.3973 8.19783 46.0773 8.05916 45.832C7.9205 45.5867 7.66983 45.4 7.30716 45.272L5.19516 44.536C4.6405 44.344 4.25116 44.1093 4.02716 43.832C3.81383 43.544 3.70716 43.144 3.70716 42.632C3.70716 41.4373 4.35783 40.84 5.65916 40.84H8.23516C8.33116 40.84 8.37916 40.8827 8.37916 40.968V41.16C8.37916 41.2453 8.33116 41.288 8.23516 41.288H5.65916C5.1685 41.288 4.8005 41.4 4.55516 41.624C4.3205 41.848 4.20316 42.104 4.20316 42.392V42.824C4.20316 43.1653 4.2885 43.432 4.45916 43.624C4.6405 43.8053 4.91783 43.96 5.29116 44.088L7.38716 44.84C7.9525 45 8.3205 45.2613 8.49116 45.624C8.66183 45.9867 8.74716 46.4933 8.74716 47.144C8.74716 47.7947 8.5765 48.2693 8.23516 48.568C7.89383 48.856 7.36583 49 6.65116 49ZM15.7505 49H14.5665C13.9159 49 13.3932 48.8027 12.9985 48.408C12.6145 48.0133 12.4225 47.4853 12.4225 46.824V43.016C12.4225 42.3547 12.6145 41.8267 12.9985 41.432C13.3932 41.0373 13.9159 40.84 14.5665 40.84H17.8625C17.9479 40.84 17.9905 40.888 17.9905 40.984V48.856C17.9905 48.952 17.9479 49 17.8625 49H17.6385C17.5532 49 17.5105 48.952 17.5105 48.856V48.168H17.4465C17.1479 48.7227 16.5825 49 15.7505 49ZM17.5105 46.888V41.416C17.5105 41.3307 17.4625 41.288 17.3665 41.288H14.5665C14.0332 41.288 13.6225 41.4427 13.3345 41.752C13.0465 42.0613 12.9025 42.488 12.9025 43.032V46.808C12.9025 47.352 13.0465 47.7787 13.3345 48.088C13.6225 48.3973 14.0332 48.552 14.5665 48.552H15.7185C16.2519 48.552 16.6839 48.408 17.0145 48.12C17.3452 47.832 17.5105 47.4213 17.5105 46.888ZM25.3193 49H24.1353C23.4846 49 22.962 48.8027 22.5673 48.408C22.1833 48.0133 21.9913 47.4853 21.9913 46.824V43.016C21.9913 42.3547 22.1833 41.8267 22.5673 41.432C22.962 41.0373 23.4846 40.84 24.1353 40.84H27.4313C27.5166 40.84 27.5593 40.888 27.5593 40.984V48.856C27.5593 48.952 27.5166 49 27.4313 49H27.2073C27.122 49 27.0793 48.952 27.0793 48.856V48.168H27.0153C26.7166 48.7227 26.1513 49 25.3193 49ZM27.0793 46.888V41.416C27.0793 41.3307 27.0313 41.288 26.9353 41.288H24.1353C23.602 41.288 23.1913 41.4427 22.9033 41.752C22.6153 42.0613 22.4713 42.488 22.4713 43.032V46.808C22.4713 47.352 22.6153 47.7787 22.9033 48.088C23.1913 48.3973 23.602 48.552 24.1353 48.552H25.2873C25.8206 48.552 26.2526 48.408 26.5833 48.12C26.914 47.832 27.0793 47.4213 27.0793 46.888ZM32.072 49H31.848C31.7627 49 31.72 48.952 31.72 48.856V40.984C31.72 40.888 31.7627 40.84 31.848 40.84H32.072C32.1574 40.84 32.2 40.888 32.2 40.984V41.672H32.264C32.5627 41.1173 33.128 40.84 33.96 40.84H34.664C35.6027 40.84 36.248 41.2187 36.6 41.976C36.7494 41.6027 37.0214 41.32 37.416 41.128C37.8214 40.936 38.2267 40.84 38.632 40.84H39.272C39.9227 40.84 40.44 41.0373 40.824 41.432C41.2187 41.8267 41.416 42.3547 41.416 43.016V48.856C41.416 48.952 41.3734 49 41.288 49H41.064C40.9787 49 40.936 48.952 40.936 48.856V43.032C40.936 42.488 40.792 42.0613 40.504 41.752C40.216 41.4427 39.8054 41.288 39.272 41.288H38.632C38.088 41.288 37.6454 41.448 37.304 41.768C36.9734 42.0773 36.808 42.4987 36.808 43.032V48.856C36.808 48.952 36.7654 49 36.68 49H36.456C36.3707 49 36.328 48.952 36.328 48.856V43.032C36.328 42.488 36.184 42.0613 35.896 41.752C35.608 41.4427 35.1974 41.288 34.664 41.288H33.992C33.4587 41.288 33.0267 41.432 32.696 41.72C32.3654 42.008 32.2 42.4187 32.2 42.952V48.856C32.2 48.952 32.1574 49 32.072 49ZM51.9283 49H51.7043C51.619 49 51.5763 48.952 51.5763 48.856V37.896C51.5763 37.8 51.619 37.752 51.7043 37.752H51.9283C52.0136 37.752 52.0563 37.8 52.0563 37.896V41.672H52.1203C52.419 41.1173 52.9843 40.84 53.8163 40.84H55.0003C55.651 40.84 56.1683 41.0373 56.5523 41.432C56.947 41.8267 57.1443 42.3547 57.1443 43.016V48.856C57.1443 48.952 57.1016 49 57.0163 49H56.7923C56.707 49 56.6643 48.952 56.6643 48.856V43.032C56.6643 42.488 56.5203 42.0613 56.2323 41.752C55.9443 41.4427 55.5336 41.288 55.0003 41.288H53.8483C53.315 41.288 52.883 41.432 52.5523 41.72C52.2216 42.008 52.0563 42.4187 52.0563 42.952V48.856C52.0563 48.952 52.0136 49 51.9283 49ZM64.3912 49H63.2072C62.5565 49 62.0338 48.8027 61.6392 48.408C61.2552 48.0133 61.0632 47.4853 61.0632 46.824V43.016C61.0632 42.3547 61.2552 41.8267 61.6392 41.432C62.0338 41.0373 62.5565 40.84 63.2072 40.84H66.5032C66.5885 40.84 66.6312 40.888 66.6312 40.984V48.856C66.6312 48.952 66.5885 49 66.5032 49H66.2792C66.1938 49 66.1512 48.952 66.1512 48.856V48.168H66.0872C65.7885 48.7227 65.2232 49 64.3912 49ZM66.1512 46.888V41.416C66.1512 41.3307 66.1032 41.288 66.0072 41.288H63.2072C62.6738 41.288 62.2632 41.4427 61.9752 41.752C61.6872 42.0613 61.5432 42.488 61.5432 43.032V46.808C61.5432 47.352 61.6872 47.7787 61.9752 48.088C62.2632 48.3973 62.6738 48.552 63.2072 48.552H64.3592C64.8925 48.552 65.3245 48.408 65.6552 48.12C65.9858 47.832 66.1512 47.4213 66.1512 46.888ZM71.1439 49H70.9199C70.8346 49 70.7919 48.952 70.7919 48.856V40.984C70.7919 40.888 70.8346 40.84 70.9199 40.84H71.1439C71.2293 40.84 71.2719 40.888 71.2719 40.984V41.672H71.3359C71.6346 41.1173 72.1999 40.84 73.0319 40.84H73.7359C74.6746 40.84 75.3199 41.2187 75.6719 41.976C75.8213 41.6027 76.0933 41.32 76.4879 41.128C76.8933 40.936 77.2986 40.84 77.7039 40.84H78.3439C78.9946 40.84 79.5119 41.0373 79.8959 41.432C80.2906 41.8267 80.4879 42.3547 80.4879 43.016V48.856C80.4879 48.952 80.4453 49 80.3599 49H80.1359C80.0506 49 80.0079 48.952 80.0079 48.856V43.032C80.0079 42.488 79.8639 42.0613 79.5759 41.752C79.2879 41.4427 78.8773 41.288 78.3439 41.288H77.7039C77.1599 41.288 76.7173 41.448 76.3759 41.768C76.0453 42.0773 75.8799 42.4987 75.8799 43.032V48.856C75.8799 48.952 75.8373 49 75.7519 49H75.5279C75.4426 49 75.3999 48.952 75.3999 48.856V43.032C75.3999 42.488 75.2559 42.0613 74.9679 41.752C74.6799 41.4427 74.2693 41.288 73.7359 41.288H73.0639C72.5306 41.288 72.0986 41.432 71.7679 41.72C71.4373 42.008 71.2719 42.4187 71.2719 42.952V48.856C71.2719 48.952 71.2293 49 71.1439 49ZM84.6438 39.512V37.928C84.6438 37.832 84.6865 37.784 84.7718 37.784H84.9958C85.0811 37.784 85.1238 37.832 85.1238 37.928V39.512C85.1238 39.608 85.0811 39.656 84.9958 39.656H84.7718C84.6865 39.656 84.6438 39.608 84.6438 39.512ZM84.6438 48.856V40.984C84.6438 40.888 84.6865 40.84 84.7718 40.84H84.9958C85.0811 40.84 85.1238 40.888 85.1238 40.984V48.856C85.1238 48.952 85.0811 49 84.9958 49H84.7718C84.6865 49 84.6438 48.952 84.6438 48.856ZM92.5349 49H91.3509C90.7002 49 90.1776 48.8027 89.7829 48.408C89.3989 48.0133 89.2069 47.4853 89.2069 46.824V43.016C89.2069 42.3547 89.3989 41.8267 89.7829 41.432C90.1776 41.0373 90.7002 40.84 91.3509 40.84H92.5349C93.3669 40.84 93.9322 41.1173 94.2309 41.672H94.2949V37.896C94.2949 37.8 94.3376 37.752 94.4229 37.752H94.6469C94.7322 37.752 94.7749 37.8 94.7749 37.896V48.856C94.7749 48.952 94.7322 49 94.6469 49H94.4229C94.3376 49 94.2949 48.952 94.2949 48.856V48.168H94.2309C93.9322 48.7227 93.3669 49 92.5349 49ZM94.2949 46.888V42.952C94.2949 42.4187 94.1296 42.008 93.7989 41.72C93.4682 41.432 93.0362 41.288 92.5029 41.288H91.3509C90.8176 41.288 90.4069 41.4427 90.1189 41.752C89.8309 42.0613 89.6869 42.488 89.6869 43.032V46.808C89.6869 47.352 89.8309 47.7787 90.1189 48.088C90.4069 48.3973 90.8176 48.552 91.3509 48.552H92.5029C93.0362 48.552 93.4682 48.408 93.7989 48.12C94.1296 47.832 94.2949 47.4213 94.2949 46.888ZM99.0157 39.512V37.928C99.0157 37.832 99.0583 37.784 99.1437 37.784H99.3677C99.453 37.784 99.4957 37.832 99.4957 37.928V39.512C99.4957 39.608 99.453 39.656 99.3677 39.656H99.1437C99.0583 39.656 99.0157 39.608 99.0157 39.512ZM99.0157 48.856V40.984C99.0157 40.888 99.0583 40.84 99.1437 40.84H99.3677C99.453 40.84 99.4957 40.888 99.4957 40.984V48.856C99.4957 48.952 99.453 49 99.3677 49H99.1437C99.0583 49 99.0157 48.952 99.0157 48.856Z" fill="white"/>
</svg>
