<svg width="151" height="307" viewBox="0 0 151 307" fill="none" xmlns="http://www.w3.org/2000/svg">
<rect width="151" height="307" fill="#61CE84"/>
<circle cx="75.5" cy="147.5" r="32.5" fill="white"/>
<ellipse cx="75.487" cy="130.011" rx="8.06118" ry="8.26271" fill="#D9D9D9"/>
<path d="M98.595 138.824C98.595 143.388 94.9859 147.087 90.5338 147.087C86.0818 147.087 82.4727 143.388 82.4727 138.824C82.4727 134.261 86.0818 130.561 90.5338 130.561C94.9859 130.561 98.595 134.261 98.595 138.824Z" fill="#D9D9D9"/>
<path d="M98.5949 156.451C98.5949 161.015 94.9858 164.714 90.5337 164.714C86.0816 164.714 82.4725 161.015 82.4725 156.451C82.4725 151.888 86.0816 148.189 90.5337 148.189C94.9858 148.189 98.5949 151.888 98.5949 156.451Z" fill="#D9D9D9"/>
<ellipse cx="75.487" cy="165.265" rx="8.06118" ry="8.26271" fill="#D9D9D9"/>
<ellipse cx="60.4391" cy="138.824" rx="8.06118" ry="8.26271" fill="#D9D9D9"/>
<ellipse cx="60.4391" cy="156.451" rx="8.06118" ry="8.26271" fill="#D9D9D9"/>
<ellipse cx="75.487" cy="147.638" rx="8.06118" ry="8.26271" fill="#D9D9D9"/>
</svg>
