<svg width="1113" height="1024" viewBox="0 0 1113 1024" fill="none" xmlns="http://www.w3.org/2000/svg">
<g filter="url(#filter0_d_133_332)">
<path d="M546.588 913.466V865.625H549.429V913.466H546.588Z" fill="#737373"/>
<path d="M534.653 876.206C535.354 876.225 535.948 876.493 536.436 877.009C536.924 877.524 537.159 878.132 537.14 878.833C537.122 879.533 536.855 880.128 536.339 880.615C535.824 881.103 535.216 881.337 534.516 881.318C533.815 881.298 533.221 881.031 532.733 880.515C532.245 879.999 532.01 879.391 532.029 878.691C532.041 878.227 532.171 877.804 532.418 877.423C532.656 877.041 532.972 876.737 533.366 876.511C533.751 876.295 534.18 876.193 534.653 876.206Z" fill="#737373"/>
<path d="M523.597 875.673C524.297 875.712 524.884 875.996 525.358 876.525C525.832 877.054 526.051 877.669 526.013 878.369C525.975 879.068 525.693 879.655 525.165 880.128C524.636 880.601 524.023 880.819 523.323 880.78C522.623 880.741 522.036 880.457 521.562 879.928C521.088 879.399 520.87 878.784 520.907 878.084C520.932 877.621 521.073 877.202 521.33 876.828C521.578 876.452 521.902 876.158 522.303 875.943C522.693 875.737 523.125 875.647 523.597 875.673Z" fill="#737373"/>
<path d="M512.561 874.83C513.259 874.888 513.838 875.188 514.298 875.73C514.757 876.272 514.959 876.893 514.903 877.591C514.846 878.29 514.548 878.868 514.007 879.327C513.467 879.785 512.848 879.985 512.149 879.927C511.451 879.868 510.872 879.568 510.412 879.026C509.952 878.484 509.751 877.864 509.807 877.165C509.844 876.703 509.997 876.288 510.264 875.921C510.521 875.552 510.853 875.267 511.259 875.063C511.655 874.868 512.089 874.79 512.561 874.83Z" fill="#737373"/>
<path d="M501.551 873.675C502.248 873.753 502.818 874.069 503.263 874.624C503.708 875.179 503.893 875.804 503.818 876.501C503.743 877.198 503.429 877.768 502.877 878.211C502.324 878.654 501.7 878.837 501.003 878.759C500.307 878.682 499.736 878.365 499.291 877.811C498.846 877.256 498.661 876.63 498.736 875.934C498.786 875.472 498.949 875.062 499.226 874.702C499.494 874.341 499.833 874.065 500.244 873.872C500.645 873.688 501.081 873.623 501.551 873.675Z" fill="#737373"/>
<path d="M486.312 910.684L492.714 863.273L495.528 863.667L489.126 911.077L486.312 910.684Z" fill="#737373"/>
<path d="M479.649 870.439C480.34 870.555 480.893 870.903 481.308 871.481C481.722 872.06 481.873 872.695 481.761 873.387C481.648 874.079 481.304 874.63 480.729 875.042C480.153 875.455 479.52 875.602 478.829 875.486C478.138 875.37 477.585 875.022 477.171 874.444C476.757 873.865 476.606 873.23 476.718 872.538C476.792 872.08 476.977 871.679 477.273 871.335C477.56 870.99 477.913 870.732 478.334 870.563C478.744 870.401 479.183 870.36 479.649 870.439Z" fill="#737373"/>
<path d="M468.774 868.359C469.461 868.495 470.004 868.858 470.403 869.448C470.801 870.038 470.935 870.677 470.804 871.365C470.673 872.054 470.315 872.596 469.729 872.992C469.142 873.388 468.506 873.518 467.818 873.383C467.13 873.247 466.587 872.885 466.189 872.295C465.79 871.705 465.656 871.065 465.787 870.377C465.874 869.921 466.07 869.525 466.374 869.19C466.67 868.852 467.03 868.605 467.456 868.447C467.87 868.297 468.309 868.268 468.774 868.359Z" fill="#737373"/>
<path d="M457.959 865.975C458.643 866.129 459.176 866.507 459.558 867.108C459.941 867.709 460.057 868.352 459.908 869.036C459.759 869.721 459.386 870.253 458.789 870.633C458.193 871.013 457.553 871.125 456.869 870.971C456.185 870.816 455.652 870.438 455.27 869.837C454.887 869.236 454.771 868.594 454.92 867.909C455.019 867.456 455.225 867.065 455.539 866.738C455.844 866.409 456.21 866.172 456.64 866.026C457.057 865.887 457.497 865.87 457.959 865.975Z" fill="#737373"/>
<path d="M447.214 863.287C447.893 863.46 448.416 863.853 448.782 864.464C449.148 865.076 449.247 865.722 449.079 866.402C448.912 867.082 448.524 867.604 447.918 867.967C447.312 868.33 446.669 868.425 445.99 868.252C445.311 868.078 444.788 867.686 444.422 867.074C444.056 866.463 443.957 865.817 444.125 865.137C444.236 864.686 444.453 864.302 444.775 863.983C445.088 863.662 445.461 863.435 445.894 863.301C446.315 863.174 446.755 863.17 447.214 863.287Z" fill="#737373"/>
<path d="M427.166 897.857L439.864 851.731L442.596 852.511L429.898 898.636L427.166 897.857Z" fill="#737373"/>
<path d="M425.967 857.01C426.635 857.221 427.136 857.642 427.468 858.273C427.801 858.904 427.865 859.555 427.661 860.225C427.457 860.896 427.042 861.395 426.417 861.725C425.793 862.054 425.146 862.113 424.478 861.902C423.809 861.691 423.309 861.27 422.977 860.639C422.644 860.008 422.58 859.357 422.784 858.687C422.919 858.243 423.156 857.871 423.495 857.571C423.825 857.268 424.209 857.061 424.649 856.952C425.076 856.848 425.516 856.868 425.967 857.01Z" fill="#737373"/>
<path d="M415.481 853.427C416.143 853.656 416.632 854.091 416.947 854.731C417.262 855.371 417.309 856.023 417.087 856.688C416.865 857.353 416.437 857.841 415.804 858.153C415.17 858.465 414.522 858.506 413.86 858.277C413.198 858.048 412.709 857.613 412.394 856.973C412.079 856.332 412.032 855.68 412.254 855.015C412.401 854.575 412.648 854.21 412.995 853.919C413.333 853.625 413.723 853.429 414.165 853.332C414.595 853.24 415.033 853.272 415.481 853.427Z" fill="#737373"/>
<path d="M405.098 849.55C405.753 849.798 406.23 850.246 406.528 850.895C406.825 851.544 406.854 852.197 406.614 852.856C406.374 853.514 405.934 853.99 405.292 854.285C404.651 854.579 404.003 854.602 403.347 854.355C402.691 854.108 402.215 853.659 401.917 853.011C401.619 852.362 401.59 851.708 401.83 851.05C401.989 850.614 402.246 850.255 402.6 849.974C402.946 849.689 403.341 849.505 403.785 849.419C404.217 849.339 404.655 849.383 405.098 849.55Z" fill="#737373"/>
<path d="M394.824 845.384C395.472 845.65 395.937 846.111 396.217 846.768C396.497 847.425 396.508 848.079 396.25 848.731C395.993 849.383 395.539 849.847 394.89 850.123C394.241 850.4 393.593 850.405 392.944 850.14C392.296 849.874 391.831 849.413 391.551 848.756C391.271 848.099 391.26 847.445 391.518 846.793C391.688 846.362 391.955 846.01 392.316 845.739C392.669 845.464 393.069 845.29 393.515 845.217C393.949 845.149 394.386 845.205 394.824 845.384Z" fill="#737373"/>
<path d="M370.329 876.895L389.107 832.893L391.706 834.042L372.928 878.043L370.329 876.895Z" fill="#737373"/>
<path d="M374.639 836.197C375.272 836.497 375.71 836.984 375.954 837.655C376.198 838.327 376.174 838.981 375.882 839.618C375.589 840.255 375.112 840.694 374.449 840.934C373.786 841.175 373.139 841.145 372.506 840.844C371.873 840.543 371.435 840.057 371.191 839.385C370.947 838.713 370.971 838.059 371.264 837.422C371.457 837 371.742 836.664 372.118 836.413C372.485 836.158 372.893 836.006 373.343 835.957C373.779 835.913 374.212 835.993 374.639 836.197Z" fill="#737373"/>
<path d="M364.743 831.183C365.368 831.501 365.793 831.999 366.018 832.677C366.244 833.356 366.202 834.009 365.892 834.638C365.583 835.267 365.094 835.692 364.425 835.915C363.756 836.137 363.11 836.089 362.485 835.771C361.861 835.452 361.436 834.954 361.211 834.276C360.985 833.597 361.027 832.944 361.337 832.315C361.541 831.899 361.835 831.57 362.217 831.329C362.591 831.084 363.004 830.944 363.454 830.908C363.892 830.876 364.322 830.967 364.743 831.183Z" fill="#737373"/>
<path d="M354.988 825.894C355.603 826.229 356.014 826.739 356.221 827.423C356.428 828.108 356.368 828.76 356.042 829.38C355.716 830 355.215 830.412 354.541 830.616C353.867 830.82 353.222 830.754 352.607 830.419C351.991 830.084 351.58 829.574 351.373 828.889C351.166 828.205 351.226 827.553 351.552 826.933C351.768 826.522 352.071 826.201 352.459 825.971C352.84 825.736 353.256 825.607 353.707 825.584C354.145 825.564 354.572 825.667 354.988 825.894Z" fill="#737373"/>
<path d="M344.892 821.206C345.498 821.559 345.895 822.08 346.083 822.77C346.271 823.46 346.194 824.11 345.851 824.721C345.508 825.332 344.996 825.731 344.317 825.916C343.637 826.101 342.995 826.018 342.389 825.666C341.783 825.313 341.386 824.792 341.198 824.102C341.01 823.412 341.087 822.762 341.43 822.151C341.657 821.746 341.968 821.434 342.363 821.215C342.749 820.99 343.168 820.872 343.62 820.861C344.059 820.853 344.483 820.968 344.892 821.206Z" fill="#737373"/>
<path d="M316.364 849.074L340.901 808.005L343.317 809.5L318.779 850.569L316.364 849.074Z" fill="#737373"/>
<path d="M326.105 809.267C326.69 809.652 327.058 810.194 327.209 810.894C327.359 811.593 327.246 812.239 326.871 812.83C326.495 813.422 325.963 813.792 325.275 813.94C324.586 814.088 323.95 813.969 323.364 813.584C322.779 813.199 322.411 812.657 322.26 811.957C322.11 811.258 322.223 810.612 322.598 810.02C322.847 809.629 323.174 809.334 323.58 809.136C323.978 808.933 324.403 808.839 324.854 808.852C325.292 808.868 325.709 809.007 326.105 809.267Z" fill="#737373"/>
<path d="M316.963 802.909C317.537 803.31 317.89 803.862 318.021 804.566C318.153 805.269 318.023 805.911 317.631 806.493C317.24 807.074 316.698 807.429 316.006 807.558C315.314 807.687 314.68 807.551 314.106 807.15C313.531 806.749 313.178 806.197 313.047 805.493C312.916 804.79 313.046 804.147 313.437 803.566C313.697 803.181 314.032 802.896 314.443 802.709C314.846 802.517 315.273 802.434 315.724 802.46C316.161 802.488 316.574 802.638 316.963 802.909Z" fill="#737373"/>
<path d="M307.997 796.299C308.56 796.716 308.898 797.277 309.01 797.984C309.122 798.691 308.974 799.33 308.567 799.9C308.16 800.471 307.609 800.811 306.914 800.921C306.219 801.031 305.589 800.878 305.026 800.461C304.462 800.044 304.125 799.483 304.013 798.776C303.901 798.069 304.048 797.43 304.456 796.86C304.725 796.482 305.068 796.206 305.484 796.03C305.892 795.85 306.321 795.778 306.771 795.816C307.207 795.857 307.616 796.017 307.997 796.299Z" fill="#737373"/>
<path d="M299.214 789.442C299.766 789.874 300.088 790.445 300.181 791.155C300.274 791.865 300.109 792.499 299.686 793.058C299.264 793.617 298.704 793.942 298.006 794.033C297.308 794.124 296.683 793.954 296.131 793.522C295.58 793.09 295.257 792.519 295.165 791.809C295.072 791.1 295.237 790.465 295.66 789.906C295.939 789.536 296.29 789.269 296.71 789.105C297.123 788.935 297.554 788.876 298.002 788.926C298.438 788.978 298.842 789.15 299.214 789.442Z" fill="#737373"/>
<path d="M267.184 813.167L297.055 775.797L299.243 777.609L269.372 814.978L267.184 813.167Z" fill="#737373"/>
<path d="M282.224 775.011C282.751 775.472 283.042 776.06 283.096 776.774C283.149 777.488 282.95 778.113 282.498 778.648C282.045 779.183 281.468 779.477 280.767 779.53C280.065 779.583 279.451 779.378 278.924 778.917C278.396 778.455 278.106 777.868 278.052 777.154C277.998 776.44 278.198 775.815 278.65 775.28C278.949 774.925 279.313 774.678 279.742 774.537C280.164 774.39 280.597 774.354 281.042 774.429C281.474 774.505 281.868 774.699 282.224 775.011Z" fill="#737373"/>
<path d="M274.029 767.447C274.544 767.923 274.818 768.519 274.852 769.234C274.886 769.949 274.67 770.568 274.203 771.091C273.737 771.613 273.152 771.892 272.449 771.925C271.746 771.959 271.138 771.738 270.623 771.262C270.109 770.786 269.835 770.191 269.8 769.475C269.766 768.76 269.982 768.141 270.449 767.619C270.758 767.272 271.129 767.035 271.561 766.906C271.987 766.771 272.421 766.747 272.863 766.834C273.293 766.921 273.681 767.126 274.029 767.447Z" fill="#737373"/>
<path d="M266.041 759.66C266.543 760.15 266.801 760.753 266.815 761.468C266.83 762.184 266.597 762.797 266.116 763.307C265.635 763.817 265.043 764.079 264.34 764.093C263.637 764.108 263.034 763.87 262.533 763.38C262.032 762.891 261.774 762.288 261.759 761.572C261.744 760.856 261.978 760.243 262.458 759.734C262.777 759.396 263.154 759.169 263.589 759.052C264.018 758.928 264.453 758.916 264.893 759.015C265.32 759.114 265.703 759.329 266.041 759.66Z" fill="#737373"/>
<path d="M258.268 751.655C258.756 752.158 258.997 752.768 258.992 753.484C258.987 754.2 258.738 754.806 258.243 755.302C257.749 755.799 257.15 756.045 256.446 756.04C255.743 756.035 255.147 755.781 254.659 755.278C254.172 754.775 253.93 754.165 253.935 753.449C253.94 752.733 254.19 752.127 254.684 751.63C255.012 751.302 255.395 751.085 255.834 750.98C256.266 750.868 256.7 750.867 257.138 750.978C257.562 751.089 257.938 751.315 258.268 751.655Z" fill="#737373"/>
<path d="M223.306 770.791L257.981 737.83L259.902 739.924L225.227 772.884L223.306 770.791Z" fill="#737373"/>
<path d="M243.384 735.016C243.844 735.545 244.051 736.167 244.007 736.881C243.963 737.596 243.681 738.188 243.16 738.656C242.639 739.125 242.027 739.338 241.325 739.295C240.623 739.251 240.042 738.965 239.583 738.436C239.123 737.907 238.915 737.285 238.959 736.571C239.003 735.856 239.286 735.264 239.807 734.796C240.152 734.485 240.546 734.29 240.99 734.209C241.428 734.121 241.862 734.144 242.292 734.279C242.71 734.413 243.073 734.658 243.384 735.016Z" fill="#737373"/>
<path d="M235.522 727.043C235.967 727.585 236.158 728.212 236.095 728.925C236.031 729.638 235.733 730.222 235.199 730.676C234.666 731.13 234.048 731.326 233.348 731.264C232.647 731.201 232.074 730.9 231.629 730.358C231.184 729.817 230.993 729.19 231.057 728.477C231.12 727.763 231.419 727.18 231.952 726.725C232.306 726.425 232.705 726.24 233.151 726.171C233.591 726.095 234.024 726.13 234.451 726.277C234.865 726.422 235.222 726.677 235.522 727.043Z" fill="#737373"/>
<path d="M228.64 718.209C229.07 718.763 229.244 719.395 229.161 720.106C229.078 720.817 228.763 721.392 228.218 721.832C227.672 722.271 227.049 722.45 226.351 722.368C225.652 722.287 225.087 721.97 224.657 721.416C224.227 720.863 224.053 720.231 224.136 719.52C224.219 718.809 224.534 718.234 225.079 717.794C225.441 717.503 225.845 717.329 226.293 717.273C226.735 717.209 227.167 717.256 227.59 717.414C227.999 717.57 228.349 717.835 228.64 718.209Z" fill="#737373"/>
<path d="M221.997 709.189C222.412 709.754 222.568 710.39 222.466 711.099C222.364 711.807 222.034 712.374 221.476 712.798C220.919 713.222 220.291 713.384 219.595 713.284C218.898 713.183 218.343 712.85 217.928 712.286C217.513 711.721 217.357 711.084 217.459 710.376C217.561 709.667 217.891 709.101 218.449 708.677C218.818 708.396 219.227 708.233 219.677 708.189C220.12 708.137 220.551 708.196 220.969 708.365C221.374 708.533 221.717 708.808 221.997 709.189Z" fill="#737373"/>
<path d="M184.716 723.346L223.569 695.432L225.188 697.767L186.335 725.681L184.716 723.346Z" fill="#737373"/>
<path d="M209.452 690.619C209.835 691.205 209.957 691.849 209.816 692.551C209.675 693.253 209.315 693.8 208.734 694.193C208.154 694.586 207.519 694.713 206.829 694.575C206.139 694.436 205.602 694.074 205.218 693.487C204.835 692.901 204.713 692.257 204.854 691.555C204.995 690.854 205.355 690.306 205.935 689.913C206.32 689.653 206.737 689.513 207.188 689.494C207.634 689.466 208.061 689.548 208.47 689.74C208.865 689.93 209.192 690.223 209.452 690.619Z" fill="#737373"/>
<path d="M203.557 681.083C203.924 681.68 204.028 682.327 203.868 683.024C203.708 683.721 203.333 684.258 202.742 684.635C202.152 685.012 201.513 685.122 200.827 684.965C200.14 684.807 199.613 684.431 199.246 683.834C198.878 683.237 198.775 682.59 198.934 681.893C199.094 681.196 199.47 680.658 200.06 680.282C200.451 680.032 200.873 679.903 201.324 679.896C201.771 679.881 202.196 679.975 202.599 680.178C202.989 680.378 203.308 680.68 203.557 681.083Z" fill="#737373"/>
<path d="M197.919 671.389C198.271 671.996 198.357 672.645 198.178 673.338C197.999 674.03 197.609 674.557 197.008 674.917C196.408 675.278 195.766 675.37 195.084 675.194C194.402 675.018 193.886 674.627 193.535 674.02C193.183 673.414 193.097 672.765 193.276 672.072C193.455 671.38 193.845 670.853 194.445 670.492C194.843 670.254 195.268 670.137 195.72 670.142C196.166 670.139 196.589 670.244 196.986 670.459C197.371 670.669 197.682 670.98 197.919 671.389Z" fill="#737373"/>
<path d="M192.544 661.545C192.879 662.161 192.947 662.812 192.749 663.499C192.552 664.187 192.148 664.702 191.537 665.046C190.927 665.39 190.283 665.465 189.606 665.27C188.929 665.075 188.423 664.67 188.088 664.054C187.753 663.439 187.685 662.787 187.883 662.1C188.08 661.413 188.484 660.897 189.095 660.553C189.499 660.326 189.927 660.221 190.378 660.238C190.825 660.247 191.244 660.364 191.636 660.589C192.015 660.811 192.318 661.129 192.544 661.545Z" fill="#737373"/>
<path d="M153.641 670.457L195.957 648.14L197.246 650.672L154.93 672.989L153.641 670.457Z" fill="#737373"/>
<path d="M182.591 641.435C182.892 642.068 182.926 642.722 182.691 643.397C182.456 644.072 182.024 644.564 181.396 644.874C180.767 645.183 180.12 645.222 179.454 644.991C178.788 644.759 178.305 644.327 178.004 643.694C177.703 643.062 177.67 642.408 177.905 641.733C178.14 641.058 178.571 640.565 179.2 640.256C179.616 640.05 180.049 639.969 180.499 640.011C180.945 640.045 181.358 640.185 181.737 640.431C182.103 640.673 182.388 641.007 182.591 641.435Z" fill="#737373"/>
<path d="M178.021 631.183C178.305 631.824 178.32 632.479 178.068 633.147C177.815 633.815 177.37 634.295 176.733 634.587C176.096 634.88 175.448 634.901 174.788 634.651C174.129 634.402 173.657 633.956 173.373 633.316C173.09 632.675 173.074 632.02 173.327 631.352C173.58 630.684 174.025 630.204 174.662 629.912C175.084 629.718 175.519 629.649 175.968 629.703C176.413 629.749 176.822 629.9 177.194 630.157C177.554 630.408 177.83 630.751 178.021 631.183Z" fill="#737373"/>
<path d="M173.726 620.812C173.992 621.46 173.99 622.114 173.719 622.775C173.448 623.436 172.99 623.903 172.345 624.178C171.7 624.452 171.052 624.456 170.399 624.188C169.747 623.92 169.287 623.463 169.021 622.814C168.754 622.166 168.757 621.512 169.028 620.851C169.299 620.19 169.757 619.722 170.402 619.448C170.829 619.266 171.266 619.209 171.713 619.276C172.156 619.334 172.561 619.496 172.926 619.763C173.279 620.024 173.546 620.374 173.726 620.812Z" fill="#737373"/>
<path d="M169.709 610.327C169.958 610.982 169.938 611.636 169.649 612.289C169.36 612.942 168.889 613.396 168.237 613.653C167.585 613.909 166.937 613.895 166.291 613.609C165.646 613.324 165.199 612.854 164.95 612.199C164.702 611.543 164.722 610.889 165.011 610.236C165.299 609.584 165.77 609.129 166.422 608.872C166.854 608.702 167.292 608.657 167.738 608.736C168.18 608.807 168.58 608.98 168.938 609.256C169.284 609.527 169.541 609.884 169.709 610.327Z" fill="#737373"/>
<path d="M129.902 613.802L174.89 597.529L175.826 600.211L130.838 616.484L129.902 613.802Z" fill="#737373"/>
<path d="M162.518 589.049C162.731 589.716 162.676 590.368 162.352 591.003C162.028 591.639 161.533 592.067 160.868 592.287C160.203 592.507 159.555 592.457 158.926 592.136C158.297 591.816 157.876 591.322 157.663 590.654C157.45 589.987 157.505 589.335 157.829 588.699C158.153 588.064 158.648 587.636 159.313 587.416C159.753 587.27 160.194 587.249 160.635 587.353C161.072 587.447 161.463 587.642 161.805 587.938C162.136 588.227 162.374 588.597 162.518 589.049Z" fill="#737373"/>
<path d="M158.392 578.559C158.587 579.232 158.514 579.881 158.173 580.508C157.832 581.134 157.326 581.548 156.655 581.749C155.983 581.951 155.338 581.883 154.717 581.545C154.097 581.207 153.689 580.702 153.494 580.029C153.299 579.356 153.372 578.706 153.713 578.08C154.054 577.453 154.56 577.039 155.231 576.838C155.676 576.705 156.117 576.696 156.554 576.811C156.989 576.918 157.374 577.124 157.709 577.429C158.032 577.727 158.26 578.104 158.392 578.559Z" fill="#737373"/>
<path d="M155.503 567.672C155.68 568.35 155.589 568.998 155.231 569.614C154.874 570.231 154.356 570.631 153.68 570.813C153.003 570.996 152.36 570.91 151.748 570.555C151.137 570.201 150.743 569.684 150.566 569.006C150.389 568.328 150.48 567.681 150.838 567.064C151.196 566.448 151.713 566.048 152.389 565.865C152.837 565.744 153.278 565.748 153.713 565.875C154.145 565.994 154.524 566.21 154.851 566.524C155.166 566.831 155.383 567.214 155.503 567.672Z" fill="#737373"/>
<path d="M152.904 556.712C153.062 557.394 152.955 558.039 152.58 558.645C152.206 559.251 151.678 559.636 150.997 559.8C150.315 559.964 149.674 559.861 149.072 559.489C148.471 559.118 148.091 558.591 147.932 557.908C147.774 557.226 147.882 556.581 148.256 555.975C148.63 555.369 149.158 554.983 149.839 554.819C150.291 554.711 150.732 554.726 151.163 554.866C151.592 554.997 151.965 555.223 152.283 555.546C152.59 555.862 152.797 556.25 152.904 556.712Z" fill="#737373"/>
<path d="M112.933 554.632L159.738 544.733L160.307 547.516L113.501 557.416L112.933 554.632Z" fill="#737373"/>
<path d="M148.583 534.599C148.704 535.289 148.562 535.927 148.155 536.511C147.749 537.096 147.201 537.451 146.511 537.577C145.822 537.703 145.187 537.564 144.606 537.159C144.025 536.755 143.674 536.208 143.552 535.518C143.431 534.828 143.573 534.191 143.98 533.606C144.386 533.022 144.934 532.667 145.623 532.541C146.08 532.457 146.52 532.497 146.943 532.661C147.364 532.815 147.725 533.062 148.025 533.402C148.315 533.734 148.5 534.133 148.583 534.599Z" fill="#737373"/>
<path d="M146.863 523.463C146.966 524.156 146.806 524.789 146.384 525.362C145.962 525.935 145.404 526.275 144.712 526.382C144.019 526.488 143.388 526.332 142.818 525.912C142.248 525.492 141.912 524.935 141.809 524.242C141.705 523.549 141.865 522.916 142.287 522.343C142.709 521.77 143.267 521.43 143.959 521.324C144.418 521.253 144.857 521.305 145.275 521.48C145.692 521.646 146.046 521.903 146.338 522.251C146.618 522.591 146.793 522.995 146.863 523.463Z" fill="#737373"/>
<path d="M145.439 512.285C145.523 512.981 145.347 513.609 144.909 514.17C144.472 514.731 143.905 515.055 143.21 515.142C142.515 515.23 141.888 515.056 141.33 514.62C140.771 514.184 140.45 513.619 140.365 512.923C140.281 512.227 140.457 511.599 140.895 511.038C141.332 510.477 141.899 510.153 142.594 510.066C143.054 510.008 143.491 510.072 143.905 510.259C144.318 510.436 144.665 510.703 144.947 511.059C145.218 511.406 145.382 511.815 145.439 512.285Z" fill="#737373"/>
<path d="M144.311 501.072C144.377 501.77 144.183 502.393 143.731 502.941C143.279 503.49 142.704 503.798 142.006 503.866C141.309 503.934 140.687 503.743 140.14 503.292C139.593 502.841 139.287 502.267 139.222 501.569C139.156 500.871 139.349 500.248 139.802 499.7C140.254 499.151 140.829 498.843 141.526 498.775C141.988 498.73 142.423 498.806 142.832 499.004C143.24 499.193 143.58 499.469 143.852 499.833C144.114 500.188 144.267 500.601 144.311 501.072Z" fill="#737373"/>
<path d="M104.945 493.48L152.671 490.158L152.861 492.992L105.136 496.315L104.945 493.48Z" fill="#737373"/>
<path d="M142.948 478.576C142.976 479.276 142.75 479.887 142.269 480.409C141.787 480.932 141.197 481.208 140.497 481.237C139.796 481.266 139.185 481.04 138.664 480.56C138.142 480.079 137.867 479.489 137.839 478.789C137.811 478.089 138.037 477.477 138.519 476.955C139 476.432 139.591 476.157 140.291 476.127C140.754 476.108 141.185 476.209 141.582 476.429C141.979 476.64 142.304 476.934 142.556 477.312C142.798 477.681 142.929 478.102 142.948 478.576Z" fill="#737373"/>
<path d="M142.714 467.308C142.723 468.008 142.48 468.613 141.985 469.122C141.49 469.631 140.892 469.89 140.191 469.9C139.491 469.91 138.886 469.667 138.378 469.172C137.869 468.677 137.61 468.079 137.601 467.379C137.591 466.678 137.834 466.073 138.329 465.564C138.824 465.056 139.422 464.796 140.123 464.787C140.587 464.78 141.015 464.893 141.406 465.124C141.797 465.346 142.114 465.649 142.356 466.034C142.588 466.41 142.707 466.834 142.714 467.308Z" fill="#737373"/>
<path d="M142.777 456.038C142.768 456.738 142.509 457.336 142 457.831C141.492 458.326 140.887 458.568 140.186 458.559C139.486 458.549 138.888 458.29 138.393 457.781C137.897 457.272 137.655 456.667 137.664 455.966C137.673 455.266 137.932 454.668 138.441 454.173C138.95 453.678 139.554 453.436 140.255 453.445C140.719 453.452 141.143 453.576 141.528 453.818C141.914 454.051 142.222 454.363 142.453 454.755C142.676 455.136 142.783 455.564 142.777 456.038Z" fill="#737373"/>
<path d="M143.139 444.773C143.111 445.473 142.836 446.064 142.315 446.544C141.793 447.025 141.182 447.251 140.482 447.221C139.782 447.192 139.191 446.916 138.71 446.394C138.228 445.872 138.002 445.26 138.03 444.56C138.058 443.86 138.333 443.269 138.855 442.789C139.377 442.308 139.988 442.083 140.688 442.112C141.151 442.131 141.572 442.267 141.951 442.52C142.329 442.763 142.629 443.084 142.85 443.482C143.062 443.87 143.158 444.3 143.139 444.773Z" fill="#737373"/>
<path d="M105.135 431.795L152.86 435.118L152.67 437.952L104.944 434.63L105.135 431.795Z" fill="#737373"/>
<path d="M144.756 422.294C144.691 422.992 144.385 423.566 143.838 424.017C143.291 424.468 142.669 424.659 141.972 424.591C141.274 424.523 140.699 424.215 140.247 423.667C139.795 423.118 139.601 422.495 139.667 421.797C139.733 421.1 140.039 420.525 140.585 420.075C141.132 419.624 141.754 419.432 142.452 419.5C142.913 419.545 143.326 419.705 143.691 419.978C144.056 420.242 144.338 420.579 144.537 420.988C144.728 421.388 144.801 421.823 144.756 422.294Z" fill="#737373"/>
<path d="M146.011 411.096C145.926 411.791 145.605 412.357 145.046 412.792C144.488 413.228 143.861 413.402 143.166 413.315C142.47 413.227 141.904 412.903 141.466 412.342C141.029 411.781 140.852 411.153 140.937 410.457C141.021 409.762 141.343 409.196 141.901 408.761C142.46 408.325 143.087 408.151 143.782 408.238C144.242 408.296 144.651 408.467 145.007 408.75C145.365 409.024 145.638 409.369 145.826 409.784C146.006 410.188 146.068 410.625 146.011 411.096Z" fill="#737373"/>
<path d="M147.561 399.935C147.458 400.628 147.121 401.185 146.552 401.605C145.982 402.025 145.35 402.181 144.658 402.074C143.965 401.968 143.408 401.628 142.986 401.055C142.563 400.482 142.404 399.849 142.507 399.156C142.61 398.463 142.947 397.906 143.516 397.486C144.086 397.066 144.718 396.91 145.41 397.016C145.869 397.087 146.273 397.269 146.621 397.562C146.972 397.846 147.235 398.198 147.412 398.618C147.581 399.028 147.631 399.466 147.561 399.935Z" fill="#737373"/>
<path d="M149.407 388.82C149.285 389.51 148.934 390.057 148.353 390.461C147.772 390.865 147.137 391.005 146.447 390.879C145.758 390.753 145.21 390.398 144.804 389.813C144.397 389.229 144.255 388.591 144.376 387.901C144.498 387.211 144.849 386.664 145.43 386.26C146.011 385.856 146.646 385.717 147.335 385.843C147.792 385.926 148.191 386.119 148.531 386.422C148.874 386.716 149.128 387.075 149.293 387.5C149.451 387.914 149.489 388.354 149.407 388.82Z" fill="#737373"/>
<path d="M113.498 370.694L160.303 380.593L159.735 383.377L112.929 373.477L113.498 370.694Z" fill="#737373"/>
<path d="M153.977 366.761C153.819 367.443 153.439 367.97 152.837 368.342C152.235 368.713 151.594 368.817 150.913 368.653C150.231 368.489 149.704 368.104 149.329 367.497C148.955 366.891 148.847 366.247 149.006 365.564C149.164 364.881 149.544 364.354 150.146 363.983C150.747 363.612 151.389 363.508 152.07 363.672C152.521 363.78 152.909 363.995 153.233 364.317C153.559 364.629 153.793 365.002 153.935 365.436C154.07 365.858 154.084 366.299 153.977 366.761Z" fill="#737373"/>
<path d="M156.7 355.832C156.523 356.51 156.129 357.026 155.518 357.381C154.906 357.735 154.263 357.821 153.586 357.639C152.91 357.456 152.392 357.056 152.035 356.439C151.677 355.823 151.586 355.176 151.763 354.497C151.94 353.819 152.334 353.303 152.945 352.948C153.556 352.594 154.2 352.508 154.877 352.69C155.325 352.812 155.706 353.037 156.021 353.368C156.339 353.689 156.563 354.068 156.693 354.506C156.817 354.931 156.819 355.373 156.7 355.832Z" fill="#737373"/>
<path d="M159.711 344.98C159.516 345.653 159.109 346.159 158.488 346.496C157.868 346.834 157.222 346.902 156.551 346.701C155.88 346.499 155.374 346.085 155.033 345.459C154.692 344.833 154.619 344.183 154.814 343.51C155.009 342.837 155.417 342.331 156.037 341.994C156.657 341.656 157.303 341.588 157.974 341.789C158.419 341.923 158.794 342.159 159.1 342.498C159.408 342.828 159.622 343.213 159.741 343.654C159.853 344.083 159.843 344.525 159.711 344.98Z" fill="#737373"/>
<path d="M163.959 334.529C163.746 335.196 163.325 335.69 162.696 336.011C162.067 336.331 161.42 336.382 160.754 336.162C160.089 335.941 159.594 335.514 159.271 334.878C158.947 334.242 158.891 333.591 159.104 332.923C159.318 332.255 159.739 331.761 160.368 331.441C160.997 331.12 161.644 331.07 162.309 331.29C162.75 331.436 163.119 331.682 163.415 332.03C163.715 332.368 163.918 332.759 164.025 333.204C164.125 333.636 164.103 334.078 163.959 334.529Z" fill="#737373"/>
<path d="M130.833 311.625L175.821 327.898L174.884 330.58L129.896 314.307L130.833 311.625Z" fill="#737373"/>
<path d="M171.39 313.337C171.141 313.992 170.694 314.463 170.049 314.748C169.404 315.034 168.755 315.048 168.103 314.792C167.451 314.535 166.981 314.08 166.692 313.428C166.403 312.775 166.383 312.121 166.632 311.465C166.88 310.81 167.327 310.34 167.972 310.055C168.618 309.769 169.266 309.755 169.918 310.011C170.35 310.181 170.705 310.448 170.982 310.811C171.263 311.166 171.444 311.568 171.527 312.017C171.604 312.455 171.558 312.895 171.39 313.337Z" fill="#737373"/>
<path d="M175.526 302.901C175.259 303.549 174.8 304.007 174.148 304.275C173.495 304.542 172.846 304.539 172.202 304.264C171.557 303.99 171.099 303.522 170.828 302.862C170.557 302.201 170.554 301.546 170.821 300.898C171.087 300.25 171.547 299.792 172.199 299.524C172.852 299.257 173.5 299.26 174.145 299.534C174.572 299.716 174.919 299.993 175.186 300.364C175.457 300.726 175.628 301.133 175.698 301.585C175.763 302.024 175.706 302.463 175.526 302.901Z" fill="#737373"/>
<path d="M179.938 292.581C179.654 293.221 179.183 293.667 178.523 293.916C177.864 294.166 177.216 294.145 176.579 293.852C175.942 293.56 175.497 293.08 175.244 292.412C174.991 291.744 175.006 291.089 175.29 290.449C175.574 289.808 176.046 289.363 176.705 289.113C177.364 288.863 178.012 288.885 178.649 289.177C179.071 289.37 179.411 289.656 179.668 290.034C179.929 290.404 180.088 290.816 180.146 291.27C180.199 291.711 180.13 292.148 179.938 292.581Z" fill="#737373"/>
<path d="M184.624 282.384C184.323 283.017 183.839 283.449 183.173 283.681C182.508 283.912 181.861 283.873 181.232 283.563C180.603 283.254 180.172 282.761 179.937 282.086C179.702 281.411 179.735 280.757 180.036 280.125C180.337 279.492 180.821 279.06 181.486 278.828C182.152 278.597 182.799 278.636 183.428 278.945C183.844 279.15 184.176 279.446 184.422 279.831C184.673 280.208 184.821 280.624 184.867 281.079C184.908 281.522 184.827 281.957 184.624 282.384Z" fill="#737373"/>
<path d="M154.922 255.119L197.238 277.436L195.95 279.968L153.633 257.651L154.922 255.119Z" fill="#737373"/>
<path d="M194.802 262.393C194.468 263.009 193.962 263.414 193.285 263.609C192.608 263.803 191.964 263.729 191.353 263.385C190.743 263.041 190.339 262.525 190.141 261.838C189.943 261.151 190.012 260.499 190.347 259.884C190.681 259.268 191.187 258.863 191.864 258.668C192.541 258.474 193.185 258.548 193.796 258.892C194.2 259.12 194.515 259.433 194.74 259.831C194.97 260.222 195.095 260.645 195.116 261.103C195.133 261.547 195.028 261.977 194.802 262.393Z" fill="#737373"/>
<path d="M200.289 252.613C199.937 253.22 199.421 253.611 198.739 253.787C198.057 253.963 197.415 253.871 196.815 253.51C196.214 253.15 195.824 252.623 195.645 251.93C195.466 251.238 195.552 250.588 195.904 249.982C196.255 249.376 196.772 248.984 197.453 248.808C198.135 248.632 198.777 248.725 199.378 249.085C199.776 249.324 200.082 249.646 200.296 250.05C200.515 250.447 200.629 250.874 200.637 251.332C200.642 251.776 200.526 252.204 200.289 252.613Z" fill="#737373"/>
<path d="M206.035 242.987C205.667 243.584 205.14 243.961 204.454 244.118C203.768 244.275 203.129 244.165 202.538 243.788C201.948 243.411 201.572 242.874 201.412 242.177C201.253 241.48 201.356 240.833 201.724 240.236C202.092 239.639 202.618 239.262 203.305 239.105C203.991 238.948 204.63 239.058 205.22 239.435C205.612 239.684 205.909 240.014 206.112 240.425C206.32 240.827 206.422 241.257 206.418 241.715C206.411 242.16 206.283 242.584 206.035 242.987Z" fill="#737373"/>
<path d="M212.036 233.521C211.653 234.108 211.116 234.47 210.425 234.609C209.735 234.747 209.1 234.62 208.52 234.227C207.94 233.834 207.579 233.286 207.439 232.585C207.298 231.883 207.419 231.239 207.803 230.653C208.186 230.066 208.723 229.704 209.414 229.565C210.104 229.427 210.739 229.554 211.319 229.947C211.703 230.208 211.991 230.546 212.183 230.962C212.38 231.37 212.47 231.802 212.454 232.26C212.435 232.705 212.295 233.125 212.036 233.521Z" fill="#737373"/>
<path d="M186.325 202.427L225.178 230.34L223.559 232.675L184.706 204.761L186.325 202.427Z" fill="#737373"/>
<path d="M224.79 215.101C224.376 215.666 223.82 215.998 223.123 216.099C222.427 216.199 221.8 216.038 221.242 215.613C220.684 215.189 220.355 214.622 220.252 213.914C220.15 213.206 220.306 212.569 220.721 212.004C221.136 211.439 221.692 211.107 222.388 211.006C223.085 210.906 223.712 211.068 224.269 211.492C224.639 211.773 224.908 212.126 225.077 212.552C225.251 212.971 225.317 213.408 225.276 213.864C225.233 214.307 225.071 214.719 224.79 215.101Z" fill="#737373"/>
<path d="M231.534 206.16C231.104 206.713 230.539 207.031 229.84 207.112C229.141 207.194 228.519 207.015 227.973 206.575C227.427 206.136 227.113 205.56 227.03 204.849C226.947 204.138 227.121 203.506 227.551 202.953C227.981 202.4 228.545 202.082 229.244 202.001C229.943 201.919 230.566 202.098 231.111 202.538C231.473 202.829 231.732 203.189 231.889 203.62C232.052 204.043 232.107 204.482 232.053 204.937C231.997 205.378 231.824 205.786 231.534 206.16Z" fill="#737373"/>
<path d="M238.515 197.408C238.07 197.949 237.497 198.251 236.797 198.313C236.096 198.376 235.479 198.18 234.945 197.725C234.411 197.271 234.113 196.687 234.049 195.974C233.986 195.261 234.177 194.634 234.622 194.093C235.067 193.551 235.639 193.249 236.34 193.187C237.041 193.125 237.658 193.32 238.192 193.775C238.545 194.076 238.794 194.443 238.94 194.878C239.091 195.305 239.134 195.746 239.067 196.199C239 196.639 238.816 197.042 238.515 197.408Z" fill="#737373"/>
<path d="M246.474 189.52C246.014 190.049 245.433 190.335 244.731 190.378C244.029 190.421 243.417 190.208 242.896 189.74C242.375 189.271 242.093 188.679 242.049 187.965C242.005 187.25 242.213 186.628 242.672 186.099C243.132 185.57 243.713 185.284 244.415 185.241C245.117 185.198 245.729 185.41 246.25 185.879C246.594 186.189 246.834 186.564 246.967 187.002C247.107 187.434 247.137 187.875 247.058 188.326C246.979 188.764 246.784 189.162 246.474 189.52Z" fill="#737373"/>
<path d="M225.215 155.221L259.89 188.182L257.969 190.275L223.294 157.314L225.215 155.221Z" fill="#737373"/>
<path d="M261.544 173.058C261.056 173.561 260.46 173.815 259.757 173.82C259.053 173.824 258.454 173.579 257.96 173.082C257.465 172.586 257.216 171.979 257.211 171.263C257.206 170.547 257.447 169.938 257.935 169.434C258.423 168.931 259.018 168.677 259.722 168.672C260.425 168.668 261.024 168.914 261.519 169.41C261.846 169.739 262.065 170.126 262.174 170.571C262.29 171.009 262.296 171.451 262.193 171.898C262.09 172.331 261.873 172.718 261.544 173.058Z" fill="#737373"/>
<path d="M269.407 165.145C268.906 165.634 268.303 165.872 267.6 165.858C266.897 165.843 266.305 165.581 265.824 165.071C265.343 164.561 265.11 163.949 265.125 163.233C265.139 162.517 265.397 161.914 265.899 161.424C266.4 160.935 267.002 160.697 267.706 160.711C268.409 160.726 269.001 160.988 269.482 161.498C269.8 161.835 270.008 162.228 270.105 162.676C270.209 163.117 270.203 163.56 270.088 164.003C269.973 164.433 269.746 164.814 269.407 165.145Z" fill="#737373"/>
<path d="M277.481 157.452C276.967 157.928 276.358 158.149 275.655 158.115C274.953 158.082 274.368 157.804 273.901 157.281C273.434 156.758 273.218 156.139 273.252 155.424C273.287 154.709 273.561 154.113 274.075 153.637C274.59 153.162 275.199 152.941 275.901 152.974C276.604 153.008 277.189 153.286 277.655 153.809C277.964 154.155 278.161 154.553 278.246 155.004C278.338 155.447 278.32 155.89 278.193 156.33C278.066 156.756 277.829 157.131 277.481 157.452Z" fill="#737373"/>
<path d="M285.761 149.986C285.233 150.447 284.619 150.652 283.917 150.599C283.216 150.546 282.639 150.252 282.187 149.717C281.734 149.182 281.535 148.557 281.589 147.843C281.643 147.129 281.933 146.541 282.46 146.08C282.988 145.618 283.602 145.414 284.304 145.467C285.005 145.52 285.582 145.814 286.034 146.349C286.334 146.703 286.52 147.107 286.592 147.559C286.672 148.005 286.642 148.447 286.503 148.883C286.364 149.306 286.117 149.674 285.761 149.986Z" fill="#737373"/>
<path d="M269.359 113.125L299.229 150.495L297.041 152.307L267.171 114.937L269.359 113.125Z" fill="#737373"/>
<path d="M302.912 135.756C302.36 136.188 301.735 136.358 301.038 136.267C300.34 136.176 299.78 135.851 299.357 135.292C298.935 134.733 298.77 134.098 298.862 133.389C298.955 132.679 299.277 132.108 299.829 131.676C300.381 131.244 301.006 131.073 301.703 131.165C302.401 131.256 302.961 131.581 303.384 132.14C303.664 132.51 303.827 132.923 303.875 133.379C303.93 133.828 303.876 134.267 303.713 134.696C303.552 135.11 303.285 135.464 302.912 135.756Z" fill="#737373"/>
<path d="M311.771 129.003C311.207 129.42 310.578 129.573 309.883 129.463C309.188 129.353 308.637 129.012 308.229 128.442C307.822 127.872 307.675 127.233 307.787 126.526C307.899 125.819 308.236 125.257 308.8 124.841C309.363 124.424 309.992 124.271 310.688 124.381C311.383 124.491 311.934 124.831 312.341 125.402C312.611 125.779 312.763 126.197 312.798 126.653C312.841 127.104 312.775 127.542 312.601 127.965C312.428 128.375 312.151 128.721 311.771 129.003Z" fill="#737373"/>
<path d="M320.81 122.499C320.235 122.9 319.602 123.036 318.91 122.907C318.218 122.778 317.676 122.423 317.284 121.842C316.893 121.26 316.763 120.618 316.894 119.915C317.025 119.211 317.378 118.659 317.953 118.258C318.527 117.857 319.161 117.721 319.853 117.85C320.545 117.979 321.087 118.334 321.478 118.915C321.737 119.3 321.878 119.721 321.901 120.179C321.932 120.631 321.854 121.066 321.668 121.485C321.484 121.89 321.198 122.228 320.81 122.499Z" fill="#737373"/>
<path d="M330.023 116.249C329.438 116.634 328.801 116.753 328.112 116.605C327.424 116.457 326.892 116.087 326.516 115.495C326.141 114.904 326.028 114.258 326.179 113.559C326.329 112.859 326.697 112.317 327.282 111.932C327.868 111.547 328.505 111.428 329.193 111.576C329.881 111.724 330.413 112.094 330.789 112.685C331.038 113.077 331.167 113.502 331.177 113.96C331.196 114.413 331.106 114.845 330.908 115.259C330.714 115.659 330.419 115.989 330.023 116.249Z" fill="#737373"/>
<path d="M318.764 77.5325L343.302 118.601L340.886 120.097L316.349 79.0276L318.764 77.5325Z" fill="#737373"/>
<path d="M348.942 104.531C348.336 104.883 347.694 104.967 347.014 104.781C346.334 104.596 345.823 104.198 345.48 103.587C345.137 102.975 345.06 102.325 345.248 101.635C345.436 100.945 345.833 100.424 346.439 100.072C347.045 99.7195 347.687 99.636 348.367 99.8214C349.047 100.007 349.558 100.405 349.901 101.016C350.128 101.421 350.234 101.852 350.22 102.309C350.213 102.762 350.1 103.189 349.88 103.591C349.664 103.98 349.351 104.293 348.942 104.531Z" fill="#737373"/>
<path d="M359.1 99.9571C358.485 100.293 357.84 100.358 357.166 100.154C356.491 99.9505 355.991 99.5384 355.665 98.9183C355.338 98.2982 355.279 97.6459 355.486 96.9615C355.693 96.2772 356.104 95.7673 356.719 95.4318C357.334 95.0964 357.979 95.0307 358.653 95.2346C359.328 95.4385 359.828 95.8505 360.155 96.4707C360.371 96.8813 360.465 97.3151 360.438 97.772C360.419 98.2243 360.295 98.6482 360.064 99.0435C359.837 99.426 359.516 99.7305 359.1 99.9571Z" fill="#737373"/>
<path d="M368.914 94.7835C368.29 95.1018 367.643 95.1498 366.975 94.9275C366.306 94.7051 365.817 94.2796 365.507 93.6509C365.198 93.0221 365.156 92.3686 365.381 91.6903C365.607 91.0121 366.032 90.5138 366.656 90.1955C367.28 89.8771 367.927 89.8292 368.596 90.0515C369.264 90.2738 369.753 90.6993 370.063 91.3281C370.268 91.7444 370.35 92.1805 370.311 92.6364C370.28 93.088 370.144 93.5081 369.902 93.8969C369.665 94.2729 369.336 94.5684 368.914 94.7835Z" fill="#737373"/>
<path d="M378.865 89.8862C378.233 90.1871 377.585 90.2173 376.922 89.9767C376.26 89.7361 375.782 89.2974 375.49 88.6605C375.197 88.0237 375.173 87.3694 375.417 86.6977C375.661 86.0261 376.099 85.5398 376.732 85.2388C377.365 84.9379 378.013 84.9077 378.675 85.1483C379.338 85.3888 379.815 85.8276 380.108 86.4644C380.301 86.8861 380.372 87.3242 380.32 87.7788C380.277 88.2292 380.13 88.6454 379.878 89.0273C379.631 89.3965 379.293 89.6828 378.865 89.8862Z" fill="#737373"/>
<path d="M372.912 50.0563L391.69 94.0578L389.092 95.2066L370.313 51.205L372.912 50.0563Z" fill="#737373"/>
<path d="M399.152 80.9364C398.503 81.2019 397.855 81.1964 397.206 80.9198C396.557 80.6432 396.104 80.1791 395.846 79.5274C395.588 78.8757 395.6 78.2213 395.88 77.5644C396.16 76.9075 396.624 76.4463 397.272 76.1807C397.921 75.9152 398.57 75.9208 399.219 76.1974C399.868 76.474 400.321 76.9381 400.578 77.5898C400.749 78.0213 400.796 78.4625 400.72 78.9133C400.652 79.3605 400.482 79.7677 400.21 80.135C399.943 80.4899 399.59 80.757 399.152 80.9364Z" fill="#737373"/>
<path d="M409.471 76.8912C408.815 77.1387 408.167 77.1153 407.525 76.8209C406.884 76.5266 406.443 76.0503 406.203 75.3918C405.964 74.7334 405.993 74.0798 406.29 73.431C406.588 72.7822 407.065 72.3341 407.72 72.0866C408.376 71.8391 409.024 71.8626 409.666 72.1569C410.307 72.4512 410.748 72.9276 410.988 73.586C411.147 74.022 411.182 74.4642 411.093 74.9126C411.013 75.3576 410.832 75.7599 410.55 76.1195C410.274 76.4668 409.914 76.724 409.471 76.8912Z" fill="#737373"/>
<path d="M419.897 73.1371C419.235 73.3663 418.587 73.325 417.954 73.0132C417.321 72.7013 416.893 72.2131 416.671 71.5484C416.449 70.8838 416.495 70.2314 416.811 69.5912C417.126 68.951 417.615 68.5163 418.277 68.2871C418.939 68.0578 419.587 68.0992 420.22 68.411C420.853 68.7229 421.281 69.2111 421.503 69.8757C421.65 70.3158 421.673 70.7587 421.573 71.2044C421.481 71.647 421.289 72.0441 420.997 72.3956C420.711 72.7351 420.345 72.9822 419.897 73.1371Z" fill="#737373"/>
<path d="M430.423 69.677C429.754 69.8878 429.108 69.8286 428.483 69.4994C427.858 69.1703 427.444 68.6705 427.24 68.0001C427.035 67.3297 427.1 66.679 427.432 66.0479C427.765 65.4168 428.265 64.9958 428.933 64.7851C429.602 64.5743 430.248 64.6335 430.873 64.9626C431.498 65.2918 431.912 65.7916 432.116 66.4619C432.252 66.9058 432.263 67.3491 432.15 67.7917C432.046 68.2315 431.844 68.6231 431.543 68.9663C431.248 69.2977 430.874 69.5346 430.423 69.677Z" fill="#737373"/>
<path d="M429.881 29.4618L442.579 75.5869L439.847 76.366L427.149 30.2409L429.881 29.4618Z" fill="#737373"/>
<path d="M451.739 63.6502C451.06 63.8236 450.417 63.7287 449.811 63.3656C449.204 63.0025 448.817 62.4808 448.649 61.8004C448.482 61.12 448.581 60.4741 448.947 59.8626C449.313 59.2511 449.836 58.8586 450.515 58.6852C451.194 58.5118 451.836 58.6066 452.443 58.9697C453.049 59.3328 453.436 59.8546 453.604 60.535C453.715 60.9855 453.702 61.4285 453.566 61.8641C453.439 62.2973 453.215 62.6769 452.896 63.0028C452.583 63.3172 452.197 63.533 451.739 63.6502Z" fill="#737373"/>
<path d="M462.513 61.0885C461.829 61.243 461.189 61.1304 460.593 60.7507C459.996 60.371 459.623 59.8388 459.474 59.1542C459.325 58.4695 459.441 57.8267 459.824 57.2257C460.206 56.6247 460.739 56.2469 461.423 56.0924C462.106 55.9379 462.746 56.0505 463.343 56.4302C463.939 56.8099 464.312 57.3421 464.462 58.0267C464.561 58.4801 464.536 58.9225 464.388 59.354C464.249 59.7835 464.015 60.1566 463.687 60.4735C463.366 60.7791 462.975 60.9841 462.513 61.0885Z" fill="#737373"/>
<path d="M473.353 58.8308C472.666 58.9663 472.029 58.836 471.443 58.44C470.857 58.044 470.498 57.5018 470.367 56.8133C470.236 56.1249 470.37 55.4857 470.769 54.8956C471.167 54.3055 471.71 53.9427 472.398 53.8073C473.085 53.6718 473.722 53.8021 474.308 54.1981C474.895 54.5941 475.253 55.1363 475.384 55.8248C475.471 56.2806 475.434 56.7221 475.275 57.1493C475.124 57.5747 474.881 57.9412 474.544 58.2488C474.215 58.5453 473.818 58.7393 473.353 58.8308Z" fill="#737373"/>
<path d="M484.251 56.879C483.56 56.9953 482.927 56.8474 482.352 56.4354C481.776 56.0233 481.432 55.4714 481.32 54.7797C481.208 54.088 481.359 53.4528 481.773 52.8741C482.187 52.2954 482.74 51.9479 483.431 51.8316C484.122 51.7152 484.755 51.8631 485.331 52.2752C485.906 52.6873 486.25 53.2392 486.363 53.9308C486.437 54.3888 486.389 54.8291 486.217 55.2516C486.056 55.6726 485.802 56.0321 485.457 56.3303C485.12 56.6175 484.718 56.8004 484.251 56.879Z" fill="#737373"/>
<path d="M489.108 17.0173L495.511 64.4279L492.697 64.8215L486.295 17.4109L489.108 17.0173Z" fill="#737373"/>
<path d="M506.188 53.8995C505.492 53.9773 504.867 53.7945 504.315 53.3512C503.762 52.9079 503.448 52.3379 503.373 51.6412C503.298 50.9444 503.483 50.3187 503.928 49.764C504.373 49.2093 504.944 48.8931 505.64 48.8153C506.337 48.7376 506.961 48.9203 507.514 49.3636C508.066 49.8069 508.38 50.377 508.455 51.0737C508.505 51.535 508.433 51.9718 508.239 52.3841C508.055 52.7954 507.783 53.1402 507.422 53.4187C507.07 53.6867 506.659 53.847 506.188 53.8995Z" fill="#737373"/>
<path d="M517.21 52.8742C516.511 52.9326 515.892 52.7325 515.351 52.2741C514.811 51.8156 514.512 51.2372 514.456 50.5387C514.4 49.8402 514.601 49.2199 515.061 48.6778C515.521 48.1357 516.1 47.8355 516.798 47.7771C517.497 47.7187 518.116 47.9188 518.657 48.3772C519.197 48.8357 519.496 49.4142 519.552 50.1126C519.589 50.5752 519.506 51.0098 519.301 51.4165C519.106 51.8224 518.824 52.1596 518.456 52.4279C518.097 52.686 517.682 52.8347 517.21 52.8742Z" fill="#737373"/>
<path d="M528.255 52.1598C527.556 52.1988 526.942 51.9816 526.414 51.5083C525.886 51.0351 525.603 50.4486 525.565 49.7488C525.528 49.0491 525.746 48.4347 526.22 47.9056C526.694 47.3765 527.281 47.0925 527.981 47.0536C528.681 47.0146 529.294 47.2318 529.822 47.7051C530.35 48.1783 530.633 48.7648 530.671 49.4646C530.696 49.9279 530.6 50.36 530.385 50.7609C530.179 51.1612 529.888 51.4904 529.513 51.7484C529.147 51.9964 528.728 52.1335 528.255 52.1598Z" fill="#737373"/>
<path d="M539.316 51.7568C538.616 51.7763 538.008 51.5422 537.493 51.0544C536.977 50.5666 536.71 49.9725 536.692 49.272C536.673 48.5715 536.907 47.9634 537.396 47.4478C537.884 46.9321 538.478 46.6645 539.179 46.645C539.879 46.6256 540.487 46.8597 541.002 47.3475C541.517 47.8352 541.784 48.4293 541.803 49.1298C541.816 49.5937 541.709 50.023 541.483 50.4177C541.266 50.8121 540.967 51.133 540.585 51.3805C540.212 51.6182 539.789 51.7437 539.316 51.7568Z" fill="#737373"/>
<path d="M549.412 14.5341V62.375H546.571V14.5341H549.412Z" fill="#737373"/>
<path d="M561.45 51.8865C560.749 51.867 560.155 51.5995 559.667 51.0838C559.179 50.5681 558.944 49.96 558.963 49.2595C558.981 48.559 559.248 47.9649 559.764 47.4771C560.279 46.9894 560.887 46.7552 561.587 46.7747C562.288 46.7942 562.882 47.0618 563.37 47.5775C563.858 48.0931 564.093 48.7012 564.074 49.4017C564.062 49.8656 563.932 50.2882 563.685 50.6698C563.447 51.0516 563.131 51.3554 562.737 51.5813C562.352 51.7979 561.923 51.8997 561.45 51.8865Z" fill="#737373"/>
<path d="M572.506 52.4191C571.806 52.3801 571.219 52.0961 570.745 51.5671C570.271 51.038 570.052 50.4236 570.09 49.7239C570.128 49.0241 570.41 48.4376 570.939 47.9643C571.467 47.491 572.08 47.2739 572.78 47.3128C573.48 47.3518 574.067 47.6358 574.541 48.1648C575.015 48.6939 575.233 49.3083 575.196 50.0081C575.171 50.4714 575.03 50.8904 574.773 51.2649C574.525 51.64 574.201 51.9349 573.8 52.1497C573.41 52.3556 572.978 52.4454 572.506 52.4191Z" fill="#737373"/>
<path d="M583.542 53.2629C582.844 53.2045 582.265 52.9042 581.805 52.3622C581.346 51.8201 581.144 51.1998 581.2 50.5013C581.257 49.8028 581.555 49.2243 582.096 48.7659C582.636 48.3074 583.256 48.1074 583.954 48.1658C584.652 48.2242 585.231 48.5244 585.691 49.0665C586.151 49.6086 586.352 50.2288 586.296 50.9273C586.259 51.3898 586.107 51.8047 585.839 52.172C585.582 52.5401 585.25 52.8259 584.844 53.0296C584.448 53.2245 584.014 53.3023 583.542 53.2629Z" fill="#737373"/>
<path d="M594.552 54.4173C593.855 54.3395 593.285 54.0233 592.84 53.4686C592.395 52.9139 592.21 52.2882 592.285 51.5915C592.36 50.8947 592.674 50.3247 593.226 49.8814C593.779 49.4381 594.403 49.2553 595.1 49.3331C595.796 49.4109 596.367 49.7271 596.812 50.2818C597.257 50.8365 597.442 51.4622 597.367 52.1589C597.317 52.6203 597.154 53.0308 596.877 53.3906C596.609 53.7514 596.27 54.0279 595.859 54.2202C595.458 54.4041 595.022 54.4698 594.552 54.4173Z" fill="#737373"/>
<path d="M609.79 17.4085L603.388 64.8191L600.575 64.4255L606.977 17.0149L609.79 17.4085Z" fill="#737373"/>
<path d="M616.454 57.6537C615.763 57.5374 615.21 57.1899 614.796 56.6112C614.381 56.0325 614.23 55.3973 614.343 54.7056C614.455 54.0139 614.799 53.462 615.375 53.0499C615.95 52.6379 616.583 52.49 617.274 52.6063C617.965 52.7226 618.518 53.0702 618.932 53.6489C619.347 54.2276 619.498 54.8628 619.386 55.5545C619.311 56.0125 619.126 56.4134 618.83 56.7574C618.544 57.1029 618.19 57.3602 617.769 57.5295C617.359 57.6909 616.921 57.7323 616.454 57.6537Z" fill="#737373"/>
<path d="M627.33 59.7332C626.642 59.5977 626.099 59.2349 625.701 58.6448C625.302 58.0548 625.168 57.4155 625.299 56.7271C625.43 56.0387 625.789 55.4965 626.375 55.1004C626.961 54.7044 627.598 54.5741 628.285 54.7096C628.973 54.8451 629.516 55.2078 629.915 55.7979C630.313 56.388 630.447 57.0273 630.316 57.7157C630.23 58.1715 630.034 58.5673 629.729 58.9029C629.433 59.2404 629.073 59.4879 628.648 59.6454C628.234 59.7955 627.795 59.8247 627.33 59.7332Z" fill="#737373"/>
<path d="M638.144 62.1179C637.461 61.9633 636.928 61.5856 636.545 60.9846C636.163 60.3836 636.046 59.7407 636.196 59.0561C636.345 58.3714 636.718 57.8393 637.314 57.4596C637.911 57.0799 638.551 56.9673 639.235 57.1218C639.918 57.2763 640.451 57.654 640.834 58.2551C641.216 58.8561 641.333 59.4989 641.183 60.1836C641.084 60.6369 640.878 61.0271 640.564 61.3543C640.26 61.6835 639.893 61.921 639.464 62.0667C639.046 62.2052 638.606 62.2222 638.144 62.1179Z" fill="#737373"/>
<path d="M648.888 64.8058C648.209 64.6324 647.687 64.2399 647.321 63.6284C646.955 63.0169 646.855 62.3709 647.023 61.6906C647.191 61.0102 647.578 60.4884 648.184 60.1253C648.791 59.7622 649.434 59.6674 650.113 59.8408C650.792 60.0142 651.314 60.4067 651.68 61.0182C652.046 61.6297 652.146 62.2756 651.978 62.956C651.867 63.4065 651.65 63.791 651.328 64.1094C651.015 64.4301 650.642 64.6574 650.209 64.7911C649.787 64.9181 649.347 64.9229 648.888 64.8058Z" fill="#737373"/>
<path d="M668.937 30.236L656.239 76.3611L653.507 75.582L666.205 29.4569L668.937 30.236Z" fill="#737373"/>
<path d="M670.136 71.0824C669.468 70.8716 668.967 70.4506 668.635 69.8195C668.302 69.1884 668.238 68.5377 668.442 67.8673C668.646 67.1969 669.061 66.6972 669.686 66.368C670.31 66.0388 670.957 65.9797 671.625 66.1904C672.294 66.4012 672.794 66.8222 673.126 67.4533C673.459 68.0844 673.523 68.7351 673.319 69.4055C673.184 69.8494 672.947 70.2214 672.608 70.5216C672.278 70.8247 671.894 71.0311 671.454 71.1408C671.027 71.2443 670.587 71.2248 670.136 71.0824Z" fill="#737373"/>
<path d="M680.622 74.6658C679.96 74.4365 679.471 74.0018 679.156 73.3616C678.84 72.7215 678.794 72.069 679.016 71.4044C679.238 70.7398 679.666 70.2515 680.299 69.9397C680.932 69.6278 681.58 69.5865 682.242 69.8157C682.905 70.0449 683.393 70.4796 683.709 71.1198C684.024 71.76 684.07 72.4125 683.848 73.0771C683.701 73.5172 683.454 73.8826 683.108 74.1734C682.77 74.4673 682.38 74.6631 681.938 74.7606C681.508 74.8523 681.069 74.8206 680.622 74.6658Z" fill="#737373"/>
<path d="M691.005 78.5422C690.35 78.2947 689.873 77.8466 689.575 77.1978C689.278 76.549 689.249 75.8953 689.489 75.2369C689.729 74.5785 690.169 74.1022 690.811 73.8078C691.452 73.5135 692.101 73.4901 692.756 73.7376C693.412 73.985 693.888 74.4332 694.186 75.082C694.484 75.7308 694.513 76.3844 694.273 77.0428C694.114 77.4788 693.857 77.8374 693.503 78.1185C693.157 78.4031 692.762 78.588 692.318 78.6733C691.886 78.7531 691.448 78.7094 691.005 78.5422Z" fill="#737373"/>
<path d="M701.279 82.7083C700.631 82.4428 700.166 81.9816 699.886 81.3246C699.606 80.6677 699.595 80.0134 699.853 79.3617C700.11 78.71 700.564 78.2458 701.213 77.9692C701.862 77.6926 702.51 77.6871 703.159 77.9526C703.807 78.2181 704.272 78.6793 704.552 79.3363C704.832 79.9932 704.843 80.6475 704.585 81.2992C704.415 81.7308 704.148 82.0822 703.787 82.3536C703.434 82.6286 703.034 82.8026 702.588 82.8756C702.154 82.9435 701.717 82.8877 701.279 82.7083Z" fill="#737373"/>
<path d="M725.774 51.1978L706.996 95.1993L704.397 94.0506L723.175 50.0491L725.774 51.1978Z" fill="#737373"/>
<path d="M721.464 91.8959C720.831 91.5949 720.393 91.1086 720.149 90.437C719.905 89.7653 719.929 89.111 720.221 88.4742C720.514 87.8373 720.991 87.3986 721.654 87.158C722.317 86.9174 722.964 86.9476 723.597 87.2485C724.23 87.5495 724.668 88.0358 724.912 88.7075C725.156 89.3792 725.132 90.0334 724.839 90.6703C724.646 91.092 724.361 91.4284 723.985 91.6796C723.618 91.9349 723.21 92.0867 722.76 92.1351C722.324 92.179 721.891 92.0992 721.464 91.8959Z" fill="#737373"/>
<path d="M731.36 96.9099C730.735 96.5916 730.31 96.0933 730.085 95.4151C729.859 94.7368 729.901 94.0833 730.211 93.4545C730.52 92.8258 731.009 92.4003 731.678 92.1779C732.347 91.9556 732.993 92.0036 733.618 92.3219C734.242 92.6402 734.667 93.1385 734.892 93.8168C735.118 94.4951 735.076 95.1486 734.766 95.7773C734.562 96.1937 734.268 96.5222 733.886 96.763C733.512 97.0082 733.099 97.1487 732.649 97.1848C732.211 97.2166 731.781 97.125 731.36 96.9099Z" fill="#737373"/>
<path d="M741.115 102.199C740.5 101.863 740.089 101.353 739.882 100.669C739.675 99.9847 739.735 99.3325 740.061 98.7124C740.387 98.0922 740.888 97.6802 741.562 97.4763C742.236 97.2724 742.881 97.3381 743.496 97.6735C744.112 98.0089 744.523 98.5188 744.73 99.2032C744.937 99.8876 744.877 100.54 744.551 101.16C744.335 101.571 744.032 101.891 743.644 102.121C743.263 102.356 742.847 102.485 742.396 102.509C741.958 102.529 741.531 102.425 741.115 102.199Z" fill="#737373"/>
<path d="M751.211 106.886C750.605 106.534 750.208 106.013 750.02 105.323C749.832 104.633 749.909 103.982 750.252 103.371C750.595 102.76 751.107 102.362 751.786 102.177C752.466 101.991 753.108 102.075 753.714 102.427C754.32 102.779 754.717 103.3 754.905 103.99C755.093 104.68 755.016 105.331 754.673 105.942C754.446 106.346 754.135 106.658 753.74 106.878C753.354 107.102 752.935 107.22 752.483 107.231C752.045 107.239 751.621 107.124 751.211 106.886Z" fill="#737373"/>
<path d="M779.739 79.0183L755.202 120.087L752.786 118.592L777.324 77.5232L779.739 79.0183Z" fill="#737373"/>
<path d="M769.998 118.826C769.413 118.441 769.045 117.898 768.894 117.199C768.744 116.499 768.857 115.854 769.232 115.262C769.608 114.671 770.14 114.301 770.828 114.153C771.517 114.005 772.154 114.124 772.739 114.509C773.324 114.894 773.692 115.436 773.843 116.135C773.993 116.835 773.88 117.481 773.505 118.072C773.256 118.464 772.929 118.759 772.523 118.956C772.125 119.159 771.7 119.254 771.249 119.24C770.811 119.224 770.394 119.086 769.998 118.826Z" fill="#737373"/>
<path d="M779.14 125.184C778.566 124.783 778.213 124.23 778.082 123.527C777.95 122.823 778.081 122.181 778.472 121.6C778.864 121.019 779.405 120.664 780.097 120.535C780.789 120.406 781.423 120.542 781.997 120.943C782.572 121.344 782.925 121.896 783.056 122.599C783.187 123.303 783.057 123.945 782.666 124.526C782.406 124.911 782.071 125.197 781.66 125.383C781.257 125.575 780.83 125.658 780.379 125.633C779.942 125.604 779.529 125.455 779.14 125.184Z" fill="#737373"/>
<path d="M788.106 131.793C787.543 131.377 787.205 130.815 787.093 130.108C786.981 129.401 787.129 128.763 787.536 128.192C787.943 127.622 788.494 127.282 789.189 127.172C789.884 127.062 790.514 127.215 791.077 127.631C791.641 128.048 791.978 128.61 792.09 129.317C792.202 130.024 792.055 130.662 791.648 131.233C791.378 131.61 791.035 131.887 790.619 132.062C790.211 132.243 789.782 132.314 789.332 132.276C788.896 132.236 788.487 132.075 788.106 131.793Z" fill="#737373"/>
<path d="M796.889 138.65C796.337 138.218 796.015 137.647 795.922 136.938C795.829 136.228 795.994 135.593 796.417 135.034C796.839 134.475 797.399 134.15 798.097 134.059C798.795 133.968 799.42 134.138 799.972 134.57C800.523 135.002 800.846 135.573 800.938 136.283C801.031 136.993 800.866 137.627 800.443 138.186C800.164 138.557 799.813 138.824 799.393 138.987C798.98 139.157 798.549 139.217 798.101 139.166C797.665 139.114 797.261 138.942 796.889 138.65Z" fill="#737373"/>
<path d="M828.919 114.926L799.048 152.296L796.86 150.484L826.731 113.114L828.919 114.926Z" fill="#737373"/>
<path d="M813.879 153.082C813.352 152.62 813.061 152.032 813.008 151.318C812.954 150.604 813.153 149.98 813.605 149.445C814.058 148.909 814.635 148.615 815.336 148.562C816.038 148.51 816.652 148.714 817.179 149.176C817.707 149.637 817.997 150.225 818.051 150.939C818.105 151.653 817.905 152.277 817.453 152.813C817.154 153.167 816.79 153.415 816.361 153.555C815.939 153.702 815.506 153.738 815.061 153.663C814.629 153.587 814.235 153.393 813.879 153.082Z" fill="#737373"/>
<path d="M822.074 160.645C821.56 160.169 821.286 159.574 821.251 158.859C821.217 158.143 821.433 157.524 821.9 157.002C822.367 156.479 822.952 156.201 823.654 156.167C824.357 156.133 824.966 156.355 825.48 156.83C825.995 157.306 826.269 157.902 826.303 158.617C826.337 159.332 826.121 159.951 825.654 160.474C825.345 160.82 824.975 161.057 824.542 161.186C824.117 161.322 823.683 161.346 823.24 161.259C822.811 161.171 822.422 160.966 822.074 160.645Z" fill="#737373"/>
<path d="M830.062 168.432C829.56 167.943 829.302 167.34 829.288 166.624C829.273 165.908 829.506 165.295 829.987 164.785C830.468 164.276 831.06 164.014 831.763 163.999C832.466 163.985 833.069 164.222 833.57 164.712C834.071 165.202 834.329 165.804 834.344 166.52C834.359 167.236 834.125 167.849 833.645 168.359C833.326 168.696 832.949 168.924 832.514 169.041C832.085 169.164 831.65 169.177 831.21 169.078C830.783 168.978 830.4 168.763 830.062 168.432Z" fill="#737373"/>
<path d="M837.835 176.438C837.347 175.934 837.106 175.325 837.111 174.609C837.116 173.893 837.365 173.287 837.86 172.79C838.354 172.294 838.953 172.048 839.657 172.052C840.36 172.057 840.956 172.311 841.444 172.814C841.931 173.318 842.173 173.927 842.168 174.643C842.163 175.359 841.913 175.966 841.419 176.462C841.091 176.791 840.708 177.008 840.27 177.113C839.837 177.225 839.403 177.225 838.965 177.114C838.541 177.003 838.165 176.778 837.835 176.438Z" fill="#737373"/>
<path d="M872.796 157.301L838.121 190.262L836.201 188.169L870.875 155.208L872.796 157.301Z" fill="#737373"/>
<path d="M852.719 193.077C852.26 192.548 852.052 191.926 852.096 191.211C852.14 190.496 852.422 189.905 852.943 189.436C853.464 188.967 854.076 188.755 854.778 188.798C855.48 188.841 856.061 189.127 856.52 189.656C856.98 190.185 857.188 190.807 857.144 191.522C857.1 192.236 856.817 192.828 856.296 193.297C855.951 193.607 855.557 193.803 855.113 193.884C854.675 193.972 854.241 193.948 853.811 193.814C853.393 193.68 853.03 193.434 852.719 193.077Z" fill="#737373"/>
<path d="M860.581 201.049C860.136 200.508 859.945 199.881 860.008 199.167C860.072 198.454 860.37 197.871 860.904 197.416C861.437 196.962 862.055 196.766 862.755 196.829C863.456 196.891 864.029 197.193 864.474 197.734C864.919 198.276 865.11 198.903 865.046 199.616C864.983 200.329 864.684 200.913 864.151 201.367C863.797 201.668 863.398 201.853 862.952 201.921C862.512 201.997 862.079 201.962 861.652 201.816C861.238 201.671 860.881 201.415 860.581 201.049Z" fill="#737373"/>
<path d="M867.464 209.883C867.033 209.33 866.86 208.698 866.943 207.987C867.026 207.276 867.34 206.701 867.886 206.261C868.432 205.822 869.054 205.643 869.753 205.724C870.452 205.806 871.016 206.123 871.446 206.676C871.877 207.23 872.05 207.862 871.967 208.573C871.884 209.284 871.57 209.859 871.024 210.299C870.663 210.59 870.258 210.763 869.81 210.82C869.369 210.884 868.936 210.837 868.514 210.679C868.104 210.522 867.754 210.257 867.464 209.883Z" fill="#737373"/>
<path d="M874.106 218.903C873.691 218.339 873.535 217.702 873.637 216.994C873.74 216.285 874.07 215.719 874.627 215.294C875.185 214.87 875.812 214.708 876.509 214.809C877.205 214.909 877.761 215.242 878.176 215.807C878.59 216.372 878.747 217.008 878.644 217.717C878.542 218.425 878.212 218.991 877.655 219.416C877.285 219.697 876.876 219.859 876.427 219.904C875.983 219.956 875.553 219.897 875.134 219.727C874.729 219.56 874.386 219.285 874.106 218.903Z" fill="#737373"/>
<path d="M911.387 204.746L872.534 232.66L870.915 230.326L909.768 202.412L911.387 204.746Z" fill="#737373"/>
<path d="M886.652 237.473C886.268 236.887 886.147 236.243 886.288 235.541C886.428 234.84 886.789 234.293 887.369 233.899C887.949 233.506 888.584 233.379 889.275 233.518C889.965 233.656 890.502 234.019 890.885 234.605C891.269 235.191 891.39 235.835 891.249 236.537C891.109 237.239 890.748 237.786 890.168 238.179C889.784 238.439 889.366 238.579 888.915 238.599C888.47 238.626 888.042 238.544 887.634 238.352C887.238 238.163 886.911 237.87 886.652 237.473Z" fill="#737373"/>
<path d="M892.546 247.009C892.179 246.413 892.075 245.766 892.235 245.068C892.395 244.371 892.77 243.834 893.361 243.457C893.951 243.08 894.59 242.97 895.276 243.128C895.963 243.285 896.49 243.662 896.857 244.259C897.225 244.855 897.328 245.502 897.169 246.199C897.009 246.897 896.634 247.434 896.043 247.811C895.652 248.06 895.23 248.189 894.779 248.196C894.332 248.212 893.908 248.118 893.504 247.914C893.114 247.714 892.795 247.412 892.546 247.009Z" fill="#737373"/>
<path d="M898.184 256.703C897.832 256.097 897.746 255.447 897.925 254.755C898.104 254.062 898.494 253.536 899.095 253.175C899.695 252.814 900.337 252.722 901.019 252.898C901.701 253.074 902.217 253.466 902.568 254.072C902.92 254.678 903.006 255.328 902.827 256.02C902.648 256.713 902.259 257.239 901.658 257.6C901.26 257.839 900.835 257.956 900.383 257.95C899.937 257.954 899.514 257.848 899.117 257.634C898.732 257.423 898.421 257.113 898.184 256.703Z" fill="#737373"/>
<path d="M903.559 266.547C903.225 265.932 903.156 265.28 903.354 264.593C903.551 263.906 903.955 263.39 904.566 263.046C905.176 262.702 905.82 262.628 906.497 262.823C907.174 263.017 907.68 263.422 908.015 264.038C908.35 264.654 908.418 265.305 908.22 265.992C908.023 266.68 907.619 267.195 907.008 267.539C906.604 267.767 906.176 267.872 905.725 267.854C905.278 267.845 904.859 267.728 904.467 267.503C904.088 267.282 903.785 266.963 903.559 266.547Z" fill="#737373"/>
<path d="M942.462 257.635L900.146 279.952L898.857 277.42L941.173 255.103L942.462 257.635Z" fill="#737373"/>
<path d="M913.512 286.658C913.211 286.025 913.178 285.371 913.412 284.696C913.647 284.021 914.079 283.528 914.707 283.219C915.336 282.909 915.983 282.87 916.649 283.101C917.315 283.333 917.798 283.765 918.099 284.398C918.4 285.031 918.433 285.685 918.198 286.36C917.963 287.035 917.532 287.527 916.903 287.837C916.487 288.042 916.054 288.123 915.604 288.081C915.158 288.047 914.745 287.908 914.366 287.662C914 287.42 913.715 287.085 913.512 286.658Z" fill="#737373"/>
<path d="M918.082 296.909C917.798 296.268 917.783 295.614 918.036 294.946C918.288 294.277 918.733 293.797 919.37 293.505C920.007 293.213 920.655 293.192 921.315 293.441C921.974 293.691 922.446 294.136 922.73 294.777C923.013 295.418 923.029 296.072 922.776 296.74C922.523 297.408 922.078 297.889 921.441 298.181C921.019 298.374 920.584 298.444 920.135 298.389C919.69 298.343 919.282 298.192 918.909 297.936C918.549 297.684 918.273 297.342 918.082 296.909Z" fill="#737373"/>
<path d="M922.377 307.281C922.111 306.633 922.113 305.978 922.384 305.317C922.655 304.657 923.113 304.189 923.758 303.915C924.403 303.64 925.051 303.637 925.704 303.904C926.356 304.172 926.816 304.63 927.082 305.278C927.349 305.926 927.346 306.581 927.075 307.242C926.804 307.902 926.346 308.37 925.701 308.644C925.274 308.826 924.837 308.884 924.39 308.817C923.947 308.759 923.542 308.596 923.177 308.33C922.824 308.068 922.557 307.719 922.377 307.281Z" fill="#737373"/>
<path d="M926.395 317.766C926.146 317.111 926.166 316.457 926.455 315.804C926.744 315.151 927.214 314.696 927.866 314.44C928.518 314.183 929.167 314.198 929.812 314.483C930.457 314.768 930.904 315.239 931.153 315.894C931.402 316.549 931.382 317.203 931.093 317.856C930.804 318.509 930.334 318.964 929.681 319.22C929.25 319.39 928.811 319.435 928.366 319.356C927.924 319.286 927.524 319.112 927.166 318.836C926.82 318.565 926.563 318.208 926.395 317.766Z" fill="#737373"/>
<path d="M966.201 314.29L921.213 330.564L920.277 327.882L965.265 311.608L966.201 314.29Z" fill="#737373"/>
<path d="M933.585 339.044C933.372 338.376 933.427 337.725 933.751 337.089C934.075 336.453 934.57 336.025 935.235 335.805C935.9 335.585 936.548 335.636 937.177 335.956C937.806 336.277 938.227 336.771 938.44 337.438C938.653 338.106 938.598 338.757 938.274 339.393C937.95 340.029 937.456 340.457 936.79 340.677C936.35 340.822 935.909 340.844 935.468 340.74C935.031 340.645 934.64 340.45 934.298 340.155C933.967 339.865 933.729 339.495 933.585 339.044Z" fill="#737373"/>
<path d="M937.711 349.534C937.516 348.861 937.589 348.211 937.93 347.585C938.271 346.958 938.777 346.544 939.448 346.343C940.12 346.141 940.765 346.21 941.386 346.547C942.006 346.885 942.414 347.39 942.609 348.064C942.804 348.737 942.731 349.386 942.39 350.013C942.049 350.639 941.543 351.053 940.872 351.255C940.428 351.388 939.986 351.397 939.549 351.281C939.114 351.174 938.729 350.969 938.394 350.664C938.071 350.365 937.843 349.989 937.711 349.534Z" fill="#737373"/>
<path d="M940.6 360.42C940.423 359.742 940.514 359.095 940.872 358.478C941.229 357.862 941.747 357.462 942.423 357.279C943.1 357.096 943.743 357.182 944.355 357.537C944.966 357.892 945.36 358.408 945.537 359.086C945.714 359.764 945.623 360.412 945.265 361.028C944.908 361.645 944.39 362.044 943.714 362.227C943.266 362.348 942.825 362.345 942.39 362.217C941.958 362.098 941.579 361.882 941.252 361.568C940.937 361.261 940.72 360.878 940.6 360.42Z" fill="#737373"/>
<path d="M943.199 371.381C943.041 370.698 943.148 370.054 943.523 369.447C943.897 368.841 944.425 368.456 945.106 368.292C945.788 368.128 946.429 368.232 947.031 368.603C947.632 368.975 948.012 369.502 948.171 370.184C948.329 370.867 948.221 371.511 947.847 372.118C947.473 372.724 946.945 373.109 946.264 373.273C945.812 373.382 945.371 373.366 944.94 373.226C944.511 373.096 944.138 372.869 943.82 372.546C943.513 372.23 943.306 371.842 943.199 371.381Z" fill="#737373"/>
<path d="M983.17 373.46L936.365 383.36L935.796 380.576L982.602 370.677L983.17 373.46Z" fill="#737373"/>
<path d="M947.52 393.493C947.399 392.803 947.541 392.166 947.948 391.581C948.354 390.997 948.902 390.642 949.592 390.516C950.281 390.39 950.916 390.529 951.497 390.933C952.078 391.337 952.429 391.884 952.551 392.574C952.673 393.264 952.53 393.902 952.123 394.486C951.717 395.071 951.169 395.426 950.48 395.552C950.023 395.635 949.583 395.595 949.16 395.432C948.739 395.278 948.378 395.031 948.078 394.691C947.788 394.359 947.603 393.959 947.52 393.493Z" fill="#737373"/>
<path d="M949.241 404.629C949.137 403.936 949.297 403.303 949.719 402.73C950.141 402.157 950.699 401.817 951.391 401.711C952.084 401.604 952.715 401.761 953.285 402.181C953.855 402.601 954.191 403.157 954.294 403.85C954.398 404.543 954.238 405.176 953.816 405.749C953.394 406.322 952.836 406.662 952.144 406.769C951.685 406.839 951.246 406.787 950.828 406.612C950.411 406.446 950.057 406.19 949.766 405.842C949.485 405.502 949.31 405.097 949.241 404.629Z" fill="#737373"/>
<path d="M950.665 415.807C950.58 415.112 950.757 414.483 951.194 413.923C951.632 413.362 952.198 413.038 952.893 412.95C953.589 412.863 954.216 413.037 954.774 413.472C955.332 413.908 955.654 414.474 955.738 415.169C955.823 415.865 955.646 416.493 955.209 417.054C954.771 417.615 954.205 417.939 953.51 418.027C953.049 418.084 952.612 418.02 952.198 417.834C951.786 417.656 951.439 417.39 951.157 417.034C950.886 416.686 950.722 416.277 950.665 415.807Z" fill="#737373"/>
<path d="M951.792 427.02C951.726 426.323 951.92 425.699 952.372 425.151C952.824 424.603 953.399 424.294 954.097 424.226C954.794 424.158 955.416 424.35 955.963 424.801C956.51 425.251 956.816 425.826 956.881 426.523C956.947 427.221 956.754 427.844 956.301 428.393C955.849 428.941 955.274 429.249 954.577 429.317C954.115 429.362 953.68 429.286 953.271 429.088C952.863 428.899 952.523 428.623 952.251 428.26C951.99 427.905 951.836 427.492 951.792 427.02Z" fill="#737373"/>
<path d="M991.158 434.612L943.432 437.935L943.242 435.1L990.967 431.778L991.158 434.612Z" fill="#737373"/>
<path d="M953.155 449.517C953.127 448.817 953.353 448.205 953.834 447.683C954.316 447.161 954.906 446.885 955.606 446.856C956.307 446.826 956.918 447.052 957.439 447.533C957.961 448.013 958.236 448.604 958.264 449.304C958.292 450.004 958.066 450.615 957.584 451.138C957.103 451.66 956.512 451.936 955.812 451.965C955.349 451.984 954.918 451.884 954.521 451.664C954.124 451.453 953.799 451.158 953.547 450.78C953.305 450.411 953.174 449.99 953.155 449.517Z" fill="#737373"/>
<path d="M953.39 460.785C953.38 460.084 953.623 459.479 954.118 458.97C954.613 458.462 955.211 458.202 955.912 458.193C956.613 458.183 957.217 458.425 957.726 458.92C958.235 459.415 958.494 460.013 958.503 460.714C958.512 461.414 958.269 462.019 957.774 462.528C957.279 463.037 956.681 463.296 955.981 463.306C955.517 463.312 955.089 463.2 954.698 462.969C954.306 462.747 953.99 462.443 953.748 462.058C953.515 461.683 953.396 461.258 953.39 460.785Z" fill="#737373"/>
<path d="M953.326 472.055C953.335 471.354 953.594 470.756 954.103 470.262C954.611 469.767 955.216 469.524 955.917 469.534C956.617 469.544 957.215 469.803 957.711 470.312C958.206 470.821 958.448 471.425 958.439 472.126C958.43 472.827 958.171 473.424 957.662 473.919C957.154 474.414 956.549 474.657 955.848 474.647C955.384 474.641 954.96 474.516 954.575 474.274C954.189 474.042 953.881 473.729 953.65 473.338C953.427 472.956 953.32 472.528 953.326 472.055Z" fill="#737373"/>
<path d="M952.964 483.319C952.992 482.619 953.267 482.029 953.788 481.548C954.31 481.067 954.921 480.842 955.621 480.871C956.321 480.9 956.912 481.176 957.393 481.698C957.875 482.221 958.101 482.832 958.073 483.532C958.045 484.233 957.77 484.823 957.248 485.303C956.726 485.784 956.116 486.01 955.415 485.981C954.952 485.961 954.531 485.825 954.152 485.572C953.774 485.329 953.474 485.009 953.253 484.611C953.041 484.223 952.945 483.792 952.964 483.319Z" fill="#737373"/>
<path d="M990.968 496.297L943.243 492.974L943.433 490.14L991.159 493.463L990.968 496.297Z" fill="#737373"/>
<path d="M951.347 505.798C951.413 505.101 951.719 504.526 952.266 504.075C952.812 503.624 953.434 503.433 954.132 503.501C954.829 503.569 955.404 503.877 955.856 504.426C956.309 504.974 956.502 505.597 956.437 506.295C956.371 506.993 956.065 507.567 955.518 508.018C954.971 508.469 954.349 508.66 953.652 508.592C953.19 508.547 952.777 508.388 952.413 508.114C952.048 507.85 951.766 507.514 951.566 507.104C951.376 506.705 951.303 506.27 951.347 505.798Z" fill="#737373"/>
<path d="M950.093 516.997C950.177 516.301 950.498 515.736 951.057 515.3C951.615 514.864 952.242 514.69 952.937 514.778C953.633 514.865 954.199 515.189 954.637 515.75C955.074 516.311 955.251 516.939 955.166 517.635C955.082 518.331 954.76 518.896 954.202 519.332C953.643 519.768 953.017 519.942 952.321 519.854C951.861 519.796 951.452 519.626 951.096 519.342C950.738 519.068 950.465 518.724 950.277 518.309C950.097 517.904 950.035 517.467 950.093 516.997Z" fill="#737373"/>
<path d="M948.542 528.158C948.645 527.464 948.982 526.908 949.551 526.488C950.121 526.068 950.753 525.911 951.445 526.018C952.138 526.125 952.695 526.464 953.117 527.037C953.54 527.61 953.699 528.243 953.596 528.936C953.493 529.629 953.156 530.186 952.587 530.606C952.017 531.026 951.385 531.183 950.693 531.076C950.234 531.005 949.83 530.823 949.482 530.53C949.131 530.246 948.868 529.894 948.691 529.474C948.522 529.065 948.472 528.626 948.542 528.158Z" fill="#737373"/>
<path d="M946.697 539.272C946.819 538.582 947.17 538.035 947.751 537.631C948.332 537.227 948.967 537.088 949.656 537.214C950.345 537.34 950.893 537.695 951.3 538.279C951.707 538.864 951.849 539.501 951.727 540.191C951.606 540.881 951.254 541.428 950.673 541.832C950.093 542.237 949.457 542.376 948.768 542.25C948.312 542.166 947.913 541.973 947.572 541.67C947.23 541.377 946.976 541.017 946.81 540.593C946.652 540.179 946.615 539.739 946.697 539.272Z" fill="#737373"/>
<path d="M982.605 557.399L935.8 547.499L936.368 544.716L983.174 554.615L982.605 557.399Z" fill="#737373"/>
<path d="M942.126 561.332C942.284 560.649 942.664 560.122 943.266 559.751C943.868 559.379 944.509 559.276 945.19 559.44C945.872 559.604 946.399 559.989 946.774 560.595C947.148 561.201 947.256 561.846 947.097 562.529C946.939 563.211 946.559 563.738 945.957 564.11C945.356 564.481 944.714 564.585 944.033 564.421C943.582 564.312 943.194 564.097 942.87 563.776C942.544 563.463 942.31 563.091 942.168 562.657C942.033 562.235 942.019 561.793 942.126 561.332Z" fill="#737373"/>
<path d="M939.403 572.261C939.58 571.583 939.974 571.066 940.585 570.712C941.197 570.357 941.84 570.271 942.517 570.454C943.193 570.637 943.711 571.036 944.068 571.653C944.426 572.27 944.517 572.917 944.34 573.595C944.163 574.273 943.769 574.789 943.158 575.144C942.547 575.499 941.903 575.585 941.226 575.402C940.778 575.281 940.397 575.055 940.082 574.725C939.764 574.404 939.54 574.024 939.41 573.587C939.286 573.161 939.284 572.719 939.403 572.261Z" fill="#737373"/>
<path d="M936.392 583.112C936.587 582.439 936.994 581.934 937.615 581.596C938.235 581.258 938.881 581.19 939.552 581.392C940.223 581.593 940.729 582.007 941.07 582.633C941.411 583.26 941.484 583.91 941.289 584.583C941.094 585.256 940.687 585.761 940.066 586.099C939.446 586.437 938.8 586.505 938.129 586.303C937.684 586.17 937.309 585.934 937.003 585.594C936.695 585.265 936.481 584.879 936.362 584.438C936.25 584.009 936.26 583.567 936.392 583.112Z" fill="#737373"/>
<path d="M932.144 593.564C932.357 592.896 932.778 592.402 933.407 592.082C934.036 591.761 934.683 591.711 935.349 591.931C936.014 592.151 936.509 592.579 936.832 593.215C937.156 593.85 937.212 594.502 936.999 595.169C936.786 595.837 936.364 596.331 935.735 596.652C935.106 596.972 934.459 597.022 933.794 596.802C933.353 596.657 932.984 596.41 932.688 596.063C932.388 595.724 932.185 595.333 932.078 594.889C931.978 594.457 932 594.015 932.144 593.564Z" fill="#737373"/>
<path d="M965.27 616.468L920.282 600.194L921.219 597.512L966.207 613.786L965.27 616.468Z" fill="#737373"/>
<path d="M924.713 614.755C924.962 614.1 925.409 613.63 926.054 613.344C926.699 613.059 927.348 613.044 928 613.301C928.652 613.557 929.122 614.012 929.411 614.665C929.7 615.318 929.72 615.972 929.472 616.627C929.223 617.282 928.776 617.752 928.131 618.038C927.485 618.323 926.837 618.338 926.185 618.081C925.753 617.912 925.398 617.645 925.121 617.281C924.84 616.927 924.659 616.525 924.576 616.075C924.499 615.638 924.545 615.198 924.713 614.755Z" fill="#737373"/>
<path d="M920.577 625.192C920.844 624.543 921.303 624.086 921.956 623.818C922.608 623.55 923.257 623.554 923.902 623.828C924.546 624.103 925.004 624.57 925.275 625.231C925.546 625.892 925.549 626.546 925.282 627.194C925.016 627.843 924.557 628.301 923.904 628.568C923.251 628.836 922.603 628.832 921.958 628.558C921.531 628.376 921.184 628.1 920.917 627.729C920.646 627.367 920.475 626.959 920.405 626.508C920.34 626.068 920.397 625.63 920.577 625.192Z" fill="#737373"/>
<path d="M916.165 635.512C916.449 634.871 916.921 634.426 917.58 634.176C918.239 633.926 918.888 633.948 919.525 634.24C920.161 634.532 920.606 635.012 920.859 635.68C921.112 636.349 921.097 637.003 920.813 637.644C920.53 638.285 920.058 638.73 919.399 638.979C918.739 639.229 918.091 639.208 917.454 638.916C917.032 638.722 916.693 638.436 916.436 638.058C916.175 637.688 916.016 637.277 915.958 636.823C915.904 636.382 915.974 635.945 916.165 635.512Z" fill="#737373"/>
<path d="M911.48 645.708C911.78 645.075 912.264 644.643 912.93 644.412C913.595 644.18 914.243 644.219 914.871 644.529C915.5 644.839 915.931 645.331 916.166 646.006C916.401 646.681 916.368 647.335 916.067 647.968C915.766 648.601 915.283 649.033 914.617 649.264C913.951 649.496 913.304 649.457 912.675 649.147C912.259 648.942 911.927 648.647 911.681 648.262C911.43 647.885 911.282 647.469 911.236 647.013C911.195 646.571 911.276 646.136 911.48 645.708Z" fill="#737373"/>
<path d="M941.182 672.973L898.865 650.656L900.154 648.124L942.471 670.442L941.182 672.973Z" fill="#737373"/>
<path d="M901.301 665.699C901.635 665.084 902.141 664.679 902.818 664.484C903.495 664.289 904.139 664.364 904.75 664.708C905.36 665.052 905.764 665.567 905.962 666.254C906.16 666.942 906.091 667.593 905.756 668.209C905.422 668.824 904.916 669.229 904.239 669.424C903.562 669.619 902.918 669.544 902.307 669.2C901.903 668.973 901.588 668.66 901.363 668.261C901.133 667.871 901.008 667.447 900.987 666.99C900.97 666.545 901.075 666.115 901.301 665.699Z" fill="#737373"/>
<path d="M895.815 675.479C896.166 674.873 896.683 674.482 897.365 674.306C898.047 674.13 898.688 674.222 899.289 674.582C899.89 674.943 900.28 675.469 900.458 676.162C900.637 676.855 900.551 677.504 900.2 678.11C899.849 678.717 899.332 679.108 898.65 679.284C897.968 679.46 897.327 679.368 896.726 679.007C896.328 678.768 896.022 678.447 895.808 678.042C895.589 677.646 895.475 677.219 895.467 676.761C895.462 676.316 895.578 675.889 895.815 675.479Z" fill="#737373"/>
<path d="M890.069 685.106C890.436 684.509 890.963 684.132 891.65 683.975C892.336 683.817 892.974 683.927 893.565 684.304C894.156 684.681 894.531 685.218 894.691 685.915C894.851 686.613 894.747 687.26 894.38 687.856C894.012 688.453 893.485 688.83 892.799 688.987C892.112 689.145 891.474 689.035 890.883 688.658C890.492 688.408 890.195 688.078 889.992 687.668C889.784 687.265 889.682 686.835 889.686 686.377C889.693 685.933 889.82 685.509 890.069 685.106Z" fill="#737373"/>
<path d="M884.067 694.571C884.45 693.985 884.987 693.622 885.678 693.484C886.368 693.345 887.003 693.472 887.583 693.866C888.163 694.259 888.524 694.806 888.664 695.508C888.805 696.209 888.684 696.853 888.3 697.44C887.917 698.026 887.38 698.388 886.69 698.527C885.999 698.665 885.364 698.538 884.784 698.145C884.4 697.885 884.112 697.547 883.92 697.131C883.723 696.723 883.633 696.29 883.649 695.832C883.668 695.388 883.808 694.967 884.067 694.571Z" fill="#737373"/>
<path d="M909.778 725.666L870.925 697.752L872.544 695.418L911.397 723.332L909.778 725.666Z" fill="#737373"/>
<path d="M871.313 712.992C871.728 712.427 872.284 712.094 872.98 711.994C873.677 711.893 874.304 712.055 874.861 712.479C875.419 712.904 875.749 713.47 875.851 714.178C875.954 714.887 875.797 715.523 875.382 716.088C874.968 716.653 874.412 716.986 873.715 717.086C873.019 717.187 872.392 717.025 871.834 716.601C871.465 716.32 871.196 715.966 871.027 715.54C870.853 715.122 870.786 714.685 870.828 714.228C870.871 713.785 871.033 713.373 871.313 712.992Z" fill="#737373"/>
<path d="M864.569 721.932C864.999 721.379 865.564 721.062 866.263 720.98C866.962 720.899 867.584 721.078 868.13 721.517C868.676 721.957 868.99 722.532 869.073 723.243C869.156 723.954 868.982 724.586 868.552 725.14C868.122 725.693 867.558 726.01 866.859 726.092C866.16 726.173 865.537 725.994 864.992 725.555C864.63 725.264 864.371 724.903 864.214 724.473C864.051 724.05 863.996 723.611 864.05 723.156C864.106 722.714 864.279 722.306 864.569 721.932Z" fill="#737373"/>
<path d="M857.588 730.685C858.033 730.144 858.606 729.842 859.307 729.779C860.007 729.717 860.625 729.913 861.158 730.367C861.692 730.821 861.99 731.405 862.054 732.118C862.117 732.831 861.926 733.459 861.481 734C861.036 734.541 860.464 734.843 859.763 734.906C859.062 734.968 858.445 734.772 857.911 734.318C857.558 734.017 857.309 733.649 857.163 733.215C857.012 732.787 856.969 732.347 857.036 731.894C857.103 731.454 857.287 731.051 857.588 730.685Z" fill="#737373"/>
<path d="M849.629 738.573C850.089 738.044 850.67 737.758 851.372 737.714C852.074 737.671 852.686 737.884 853.207 738.353C853.728 738.821 854.01 739.413 854.054 740.128C854.098 740.842 853.89 741.464 853.431 741.993C852.971 742.522 852.39 742.808 851.688 742.852C850.986 742.895 850.374 742.682 849.853 742.213C849.509 741.903 849.269 741.529 849.136 741.09C848.996 740.659 848.966 740.217 849.045 739.766C849.124 739.328 849.319 738.93 849.629 738.573Z" fill="#737373"/>
<path d="M870.888 772.871L836.213 739.91L838.134 737.817L872.809 770.778L870.888 772.871Z" fill="#737373"/>
<path d="M834.559 755.035C835.047 754.532 835.643 754.278 836.346 754.273C837.05 754.268 837.649 754.514 838.143 755.01C838.638 755.507 838.887 756.113 838.892 756.829C838.897 757.545 838.656 758.155 838.168 758.658C837.68 759.161 837.085 759.415 836.381 759.42C835.678 759.425 835.079 759.179 834.584 758.682C834.257 758.354 834.039 757.967 833.929 757.522C833.813 757.083 833.807 756.641 833.91 756.194C834.013 755.761 834.23 755.375 834.559 755.035Z" fill="#737373"/>
<path d="M826.696 762.948C827.197 762.458 827.8 762.22 828.503 762.235C829.206 762.249 829.798 762.511 830.279 763.021C830.76 763.531 830.993 764.144 830.978 764.86C830.964 765.576 830.706 766.178 830.204 766.668C829.703 767.158 829.101 767.395 828.397 767.381C827.694 767.367 827.102 767.105 826.621 766.595C826.303 766.257 826.095 765.864 825.998 765.416C825.894 764.975 825.9 764.533 826.015 764.089C826.13 763.659 826.357 763.279 826.696 762.948Z" fill="#737373"/>
<path d="M818.622 770.64C819.136 770.165 819.745 769.944 820.448 769.977C821.15 770.011 821.735 770.289 822.202 770.812C822.669 771.334 822.885 771.953 822.851 772.669C822.816 773.384 822.542 773.979 822.028 774.455C821.513 774.931 820.905 775.152 820.202 775.118C819.499 775.085 818.914 774.807 818.448 774.284C818.139 773.938 817.942 773.539 817.857 773.089C817.765 772.645 817.783 772.203 817.91 771.763C818.037 771.336 818.274 770.962 818.622 770.64Z" fill="#737373"/>
<path d="M810.342 778.107C810.87 777.645 811.484 777.441 812.186 777.493C812.887 777.546 813.464 777.84 813.916 778.376C814.369 778.911 814.568 779.535 814.514 780.249C814.46 780.963 814.17 781.551 813.643 782.013C813.115 782.474 812.501 782.678 811.799 782.626C811.098 782.573 810.521 782.279 810.069 781.744C809.769 781.389 809.583 780.986 809.511 780.533C809.431 780.087 809.461 779.646 809.6 779.209C809.739 778.786 809.986 778.418 810.342 778.107Z" fill="#737373"/>
<path d="M826.744 814.967L796.874 777.597L799.062 775.785L828.932 813.155L826.744 814.967Z" fill="#737373"/>
<path d="M793.191 792.337C793.743 791.905 794.368 791.735 795.065 791.826C795.763 791.917 796.323 792.242 796.746 792.801C797.168 793.36 797.333 793.994 797.241 794.704C797.148 795.414 796.826 795.985 796.274 796.417C795.722 796.849 795.097 797.019 794.4 796.928C793.702 796.837 793.142 796.512 792.719 795.953C792.44 795.583 792.276 795.17 792.228 794.714C792.173 794.264 792.227 793.825 792.39 793.397C792.551 792.982 792.818 792.629 793.191 792.337Z" fill="#737373"/>
<path d="M784.332 799.09C784.896 798.673 785.525 798.52 786.22 798.63C786.915 798.74 787.466 799.08 787.874 799.65C788.281 800.221 788.428 800.859 788.316 801.566C788.204 802.273 787.867 802.835 787.303 803.252C786.74 803.668 786.111 803.822 785.415 803.711C784.72 803.601 784.169 803.261 783.762 802.691C783.492 802.313 783.34 801.896 783.305 801.439C783.262 800.988 783.328 800.551 783.502 800.127C783.675 799.717 783.952 799.371 784.332 799.09Z" fill="#737373"/>
<path d="M775.293 805.594C775.868 805.193 776.501 805.057 777.193 805.186C777.885 805.315 778.427 805.67 778.819 806.251C779.21 806.832 779.34 807.475 779.209 808.178C779.078 808.881 778.725 809.434 778.15 809.835C777.576 810.236 776.942 810.372 776.25 810.243C775.558 810.114 775.016 809.758 774.625 809.177C774.366 808.792 774.225 808.371 774.202 807.914C774.171 807.462 774.249 807.026 774.435 806.608C774.619 806.203 774.905 805.865 775.293 805.594Z" fill="#737373"/>
<path d="M766.08 811.843C766.666 811.458 767.303 811.34 767.991 811.488C768.68 811.636 769.211 812.005 769.587 812.597C769.963 813.189 770.075 813.834 769.925 814.534C769.775 815.233 769.407 815.776 768.821 816.161C768.236 816.546 767.599 816.664 766.911 816.516C766.222 816.368 765.69 815.999 765.315 815.407C765.066 815.015 764.936 814.59 764.926 814.133C764.908 813.68 764.998 813.247 765.195 812.834C765.39 812.434 765.685 812.104 766.08 811.843Z" fill="#737373"/>
<path d="M777.339 850.56L752.801 809.491L755.217 807.996L779.754 849.065L777.339 850.56Z" fill="#737373"/>
<path d="M747.161 823.562C747.767 823.209 748.409 823.126 749.089 823.311C749.769 823.497 750.28 823.895 750.623 824.506C750.966 825.117 751.043 825.768 750.855 826.457C750.667 827.147 750.27 827.669 749.664 828.021C749.058 828.373 748.416 828.456 747.736 828.271C747.056 828.086 746.545 827.687 746.202 827.076C745.975 826.672 745.869 826.241 745.883 825.783C745.89 825.33 746.003 824.903 746.223 824.501C746.439 824.113 746.752 823.8 747.161 823.562Z" fill="#737373"/>
<path d="M737.003 828.135C737.618 827.8 738.263 827.734 738.938 827.938C739.612 828.142 740.112 828.554 740.439 829.174C740.765 829.794 740.825 830.446 740.618 831.131C740.411 831.815 740 832.325 739.385 832.661C738.769 832.996 738.124 833.062 737.45 832.858C736.776 832.654 736.275 832.242 735.949 831.622C735.733 831.211 735.638 830.777 735.665 830.32C735.684 829.868 735.809 829.444 736.039 829.049C736.266 828.666 736.587 828.362 737.003 828.135Z" fill="#737373"/>
<path d="M727.189 833.309C727.813 832.991 728.46 832.943 729.129 833.165C729.797 833.387 730.286 833.813 730.596 834.441C730.905 835.07 730.947 835.724 730.722 836.402C730.496 837.08 730.071 837.579 729.447 837.897C728.823 838.215 728.176 838.263 727.508 838.041C726.839 837.819 726.35 837.393 726.04 836.764C725.835 836.348 725.753 835.912 725.792 835.456C725.823 835.004 725.959 834.584 726.201 834.195C726.438 833.819 726.767 833.524 727.189 833.309Z" fill="#737373"/>
<path d="M717.238 838.206C717.87 837.905 718.518 837.875 719.181 838.116C719.843 838.356 720.321 838.795 720.613 839.432C720.906 840.069 720.93 840.723 720.686 841.395C720.442 842.066 720.004 842.553 719.371 842.854C718.738 843.155 718.09 843.185 717.428 842.944C716.765 842.704 716.288 842.265 715.995 841.628C715.802 841.206 715.731 840.768 715.783 840.314C715.826 839.863 715.973 839.447 716.225 839.065C716.473 838.696 716.81 838.41 717.238 838.206Z" fill="#737373"/>
<path d="M723.192 878.036L704.414 834.035L707.012 832.886L725.79 876.888L723.192 878.036Z" fill="#737373"/>
<path d="M696.952 847.156C697.6 846.891 698.249 846.896 698.898 847.173C699.547 847.449 700 847.913 700.258 848.565C700.515 849.217 700.504 849.871 700.224 850.528C699.944 851.185 699.48 851.646 698.831 851.912C698.183 852.177 697.534 852.172 696.885 851.895C696.236 851.619 695.783 851.154 695.525 850.503C695.355 850.071 695.308 849.63 695.384 849.179C695.452 848.732 695.622 848.325 695.894 847.957C696.161 847.603 696.513 847.335 696.952 847.156Z" fill="#737373"/>
<path d="M686.632 851.201C687.288 850.954 687.936 850.977 688.578 851.272C689.219 851.566 689.66 852.042 689.9 852.701C690.139 853.359 690.111 854.013 689.813 854.661C689.515 855.31 689.038 855.758 688.383 856.006C687.727 856.253 687.079 856.23 686.437 855.936C685.796 855.641 685.355 855.165 685.115 854.507C684.957 854.071 684.921 853.628 685.01 853.18C685.09 852.735 685.271 852.333 685.553 851.973C685.829 851.626 686.189 851.368 686.632 851.201Z" fill="#737373"/>
<path d="M676.206 854.955C676.868 854.726 677.516 854.767 678.149 855.079C678.782 855.391 679.21 855.879 679.432 856.544C679.654 857.209 679.608 857.861 679.292 858.501C678.977 859.141 678.489 859.576 677.826 859.805C677.164 860.035 676.516 859.993 675.883 859.681C675.25 859.37 674.822 858.881 674.6 858.217C674.453 857.777 674.43 857.334 674.53 856.888C674.622 856.445 674.814 856.048 675.106 855.697C675.392 855.357 675.758 855.11 676.206 854.955Z" fill="#737373"/>
<path d="M665.68 858.415C666.349 858.205 666.995 858.264 667.62 858.593C668.245 858.922 668.659 859.422 668.863 860.092C669.068 860.763 669.003 861.413 668.671 862.045C668.338 862.676 667.838 863.097 667.17 863.307C666.501 863.518 665.855 863.459 665.23 863.13C664.605 862.801 664.191 862.301 663.987 861.631C663.851 861.187 663.84 860.743 663.953 860.301C664.057 859.861 664.259 859.469 664.56 859.126C664.855 858.795 665.229 858.558 665.68 858.415Z" fill="#737373"/>
<path d="M666.222 898.631L653.524 852.506L656.256 851.727L668.954 897.852L666.222 898.631Z" fill="#737373"/>
<path d="M644.364 864.442C645.043 864.269 645.686 864.364 646.292 864.727C646.899 865.09 647.286 865.612 647.454 866.292C647.621 866.972 647.522 867.618 647.156 868.23C646.79 868.841 646.267 869.234 645.588 869.407C644.909 869.581 644.267 869.486 643.66 869.123C643.054 868.76 642.667 868.238 642.499 867.557C642.388 867.107 642.401 866.664 642.537 866.228C642.664 865.795 642.888 865.416 643.207 865.09C643.52 864.775 643.906 864.559 644.364 864.442Z" fill="#737373"/>
<path d="M633.591 867.004C634.274 866.85 634.914 866.962 635.511 867.342C636.107 867.722 636.48 868.254 636.63 868.938C636.779 869.623 636.662 870.266 636.28 870.867C635.897 871.468 635.364 871.846 634.681 872C633.997 872.155 633.357 872.042 632.761 871.662C632.164 871.283 631.791 870.75 631.642 870.066C631.543 869.612 631.567 869.17 631.716 868.739C631.854 868.309 632.088 867.936 632.416 867.619C632.737 867.313 633.129 867.108 633.591 867.004Z" fill="#737373"/>
<path d="M622.75 869.262C623.438 869.126 624.075 869.256 624.661 869.652C625.247 870.048 625.606 870.591 625.737 871.279C625.867 871.967 625.734 872.607 625.335 873.197C624.936 873.787 624.393 874.15 623.706 874.285C623.018 874.421 622.381 874.29 621.795 873.894C621.209 873.498 620.85 872.956 620.719 872.268C620.633 871.812 620.669 871.37 620.829 870.943C620.979 870.518 621.223 870.151 621.56 869.844C621.889 869.547 622.286 869.353 622.75 869.262Z" fill="#737373"/>
<path d="M611.852 871.213C612.543 871.097 613.176 871.245 613.751 871.657C614.327 872.069 614.671 872.621 614.783 873.313C614.896 874.004 614.744 874.64 614.33 875.218C613.916 875.797 613.363 876.145 612.672 876.261C611.981 876.377 611.348 876.229 610.772 875.817C610.197 875.405 609.853 874.853 609.74 874.162C609.666 873.704 609.714 873.263 609.886 872.841C610.047 872.42 610.301 872.06 610.646 871.762C610.983 871.475 611.385 871.292 611.852 871.213Z" fill="#737373"/>
<path d="M606.995 911.075L600.592 863.665L603.406 863.271L609.808 910.681L606.995 911.075Z" fill="#737373"/>
<path d="M589.915 874.193C590.611 874.115 591.236 874.298 591.788 874.741C592.341 875.185 592.655 875.755 592.73 876.451C592.805 877.148 592.62 877.774 592.175 878.329C591.73 878.883 591.159 879.2 590.463 879.277C589.766 879.355 589.142 879.172 588.589 878.729C588.037 878.286 587.723 877.716 587.648 877.019C587.598 876.558 587.67 876.121 587.864 875.709C588.048 875.297 588.32 874.952 588.681 874.674C589.033 874.406 589.444 874.246 589.915 874.193Z" fill="#737373"/>
<path d="M578.893 875.218C579.592 875.16 580.211 875.36 580.752 875.818C581.292 876.277 581.591 876.855 581.647 877.554C581.703 878.252 581.502 878.873 581.042 879.415C580.582 879.957 580.003 880.257 579.305 880.315C578.606 880.374 577.987 880.174 577.446 879.715C576.906 879.257 576.607 878.678 576.551 877.98C576.514 877.517 576.597 877.083 576.802 876.676C576.997 876.27 577.279 875.933 577.647 875.665C578.006 875.406 578.422 875.258 578.893 875.218Z" fill="#737373"/>
<path d="M567.848 875.933C568.547 875.894 569.161 876.111 569.689 876.584C570.217 877.058 570.5 877.644 570.538 878.344C570.575 879.044 570.357 879.658 569.883 880.187C569.409 880.716 568.822 881 568.122 881.039C567.422 881.078 566.809 880.861 566.281 880.388C565.753 879.914 565.47 879.328 565.432 878.628C565.407 878.165 565.503 877.733 565.718 877.332C565.924 876.931 566.215 876.602 566.59 876.344C566.956 876.096 567.375 875.959 567.848 875.933Z" fill="#737373"/>
<path d="M556.787 876.336C557.487 876.316 558.095 876.55 558.61 877.038C559.126 877.526 559.393 878.12 559.411 878.821C559.43 879.521 559.196 880.129 558.707 880.645C558.219 881.16 557.625 881.428 556.924 881.447C556.224 881.467 555.616 881.233 555.101 880.745C554.586 880.257 554.319 879.663 554.3 878.963C554.287 878.499 554.394 878.07 554.62 877.675C554.837 877.28 555.136 876.959 555.518 876.712C555.891 876.474 556.314 876.349 556.787 876.336Z" fill="#737373"/>
</g>
<defs>
<filter id="filter0_d_133_332" x="100.944" y="14.5341" width="894.214" height="906.932" filterUnits="userSpaceOnUse" color-interpolation-filters="sRGB">
<feFlood flood-opacity="0" result="BackgroundImageFix"/>
<feColorMatrix in="SourceAlpha" type="matrix" values="0 0 0 0 0 0 0 0 0 0 0 0 0 0 0 0 0 0 127 0" result="hardAlpha"/>
<feOffset dy="4"/>
<feGaussianBlur stdDeviation="2"/>
<feComposite in2="hardAlpha" operator="out"/>
<feColorMatrix type="matrix" values="0 0 0 0 0 0 0 0 0 0 0 0 0 0 0 0 0 0 0.25 0"/>
<feBlend mode="normal" in2="BackgroundImageFix" result="effect1_dropShadow_133_332"/>
<feBlend mode="normal" in="SourceGraphic" in2="effect1_dropShadow_133_332" result="shape"/>
</filter>
</defs>
</svg>
