<svg width="84" height="46" viewBox="0 0 84 46" fill="none" xmlns="http://www.w3.org/2000/svg">
<path d="M1.088 44H0.592C0.474667 44 0.437333 43.936 0.48 43.808L3.664 33.904C3.696 33.776 3.77067 33.712 3.888 33.712H4.64C4.74667 33.712 4.82133 33.776 4.864 33.904L8.048 43.808C8.08 43.936 8.04267 44 7.936 44H7.424C7.31733 44 7.248 43.936 7.216 43.808L6.352 41.248H2.16L1.296 43.808C1.25333 43.936 1.184 44 1.088 44ZM4.224 34.592L2.384 40.528H6.144L4.288 34.592H4.224ZM10.8513 43.296H13.8273C14.8406 43.296 15.3473 42.784 15.3473 41.76V40.656C15.3473 39.6427 14.7926 39.136 13.6833 39.136H10.8513C10.7446 39.136 10.6913 39.1787 10.6913 39.264V43.152C10.6913 43.248 10.7446 43.296 10.8513 43.296ZM10.8513 38.432H13.6673C14.1686 38.432 14.5526 38.2987 14.8193 38.032C15.0966 37.7653 15.2353 37.3867 15.2353 36.896V35.952C15.2353 34.928 14.7286 34.416 13.7153 34.416H10.8513C10.7446 34.416 10.6913 34.464 10.6913 34.56V38.288C10.6913 38.384 10.7446 38.432 10.8513 38.432ZM9.89125 43.808V33.904C9.89125 33.776 9.94458 33.712 10.0513 33.712H13.7793C14.4726 33.712 15.0219 33.9093 15.4273 34.304C15.8326 34.6987 16.0353 35.2427 16.0353 35.936V36.912C16.0353 37.8827 15.5766 38.5067 14.6593 38.784C15.0539 38.8053 15.4006 38.9867 15.6993 39.328C15.9979 39.6693 16.1473 40.112 16.1473 40.656V41.776C16.1473 42.4693 15.9446 43.0133 15.5393 43.408C15.1339 43.8027 14.5846 44 13.8913 44H10.0513C9.94458 44 9.89125 43.936 9.89125 43.808ZM20.7696 43.28H22.5936C23.0843 43.28 23.4576 43.1467 23.7136 42.88C23.9803 42.6027 24.1136 42.208 24.1136 41.696V36.016C24.1136 35.504 23.9803 35.1147 23.7136 34.848C23.4576 34.5707 23.0843 34.432 22.5936 34.432H20.7696C20.279 34.432 19.9056 34.5707 19.6496 34.848C19.3936 35.1253 19.2656 35.5147 19.2656 36.016V41.696C19.2656 42.1973 19.3936 42.5867 19.6496 42.864C19.9056 43.1413 20.279 43.28 20.7696 43.28ZM22.6736 44H20.7056C20.0123 44 19.463 43.7973 19.0576 43.392C18.663 42.9867 18.4656 42.432 18.4656 41.728V35.984C18.4656 35.28 18.663 34.7253 19.0576 34.32C19.463 33.9147 20.0123 33.712 20.7056 33.712H22.6736C23.367 33.712 23.911 33.9147 24.3056 34.32C24.711 34.7253 24.9136 35.28 24.9136 35.984V41.728C24.9136 42.432 24.711 42.9867 24.3056 43.392C23.911 43.7973 23.367 44 22.6736 44ZM33.0374 33.712H33.4854C33.6027 33.712 33.6614 33.7707 33.6614 33.888V41.728C33.6614 42.432 33.4587 42.9867 33.0534 43.392C32.6587 43.7973 32.1147 44 31.4214 44H29.6294C28.936 44 28.3867 43.7973 27.9814 43.392C27.5867 42.9867 27.3894 42.432 27.3894 41.728V33.904C27.3894 33.776 27.4427 33.712 27.5494 33.712H28.0134C28.1307 33.712 28.1894 33.776 28.1894 33.904V41.696C28.1894 42.1973 28.3174 42.5867 28.5734 42.864C28.8294 43.1413 29.2027 43.28 29.6934 43.28H31.3414C31.832 43.28 32.2054 43.1467 32.4614 42.88C32.728 42.6027 32.8614 42.208 32.8614 41.696V33.904C32.8614 33.776 32.92 33.712 33.0374 33.712ZM38.5375 44H38.0735C37.9562 44 37.8975 43.936 37.8975 43.808V34.576C37.8975 34.48 37.8442 34.432 37.7375 34.432H35.4175C35.2895 34.432 35.2255 34.3733 35.2255 34.256V33.888C35.2255 33.7707 35.2895 33.712 35.4175 33.712H41.1775C41.3055 33.712 41.3695 33.7707 41.3695 33.888V34.256C41.3695 34.3733 41.3055 34.432 41.1775 34.432H38.8575C38.7508 34.432 38.6975 34.48 38.6975 34.576V43.808C38.6975 43.936 38.6442 44 38.5375 44Z" fill="white"/>
<path d="M0 29V0.679998H1.44V29H0ZM2.88 29V0.679998H4.32V29H2.88ZM8.64 29V0.679998H11.52V29H8.64ZM15.8438 29V0.679998H17.2838V29H15.8438ZM21.6038 29V0.679998H23.0438V29H21.6038ZM24.4838 29V0.679998H27.3638V29H24.4838ZM31.6875 29V0.679998H33.1275V29H31.6875ZM37.4475 29V0.679998H41.7675V29H37.4475ZM43.2075 29V0.679998H46.0875V29H43.2075ZM47.5312 29V0.679998H50.4113V29H47.5312ZM51.8513 29V0.679998H56.1713V29H51.8513ZM57.6113 29V0.679998H61.9313V29H57.6113ZM63.375 29V0.679998H66.255V29H63.375ZM67.695 29V0.679998H72.015V29H67.695ZM76.335 29V0.679998H77.775V29H76.335Z" fill="white"/>
</svg>
