<svg width="1129" height="1024" viewBox="0 0 1129 1024" fill="none" xmlns="http://www.w3.org/2000/svg">
<g filter="url(#filter0_d_133_565)">
<path d="M562.588 987.466V939.625H565.429V987.466H562.588Z" fill="#737373"/>
<path d="M550.653 950.206C551.354 950.225 551.948 950.493 552.436 951.009C552.924 951.524 553.159 952.132 553.14 952.833C553.122 953.533 552.855 954.128 552.339 954.615C551.824 955.103 551.216 955.337 550.516 955.318C549.815 955.298 549.221 955.031 548.733 954.515C548.245 953.999 548.01 953.391 548.029 952.691C548.041 952.227 548.171 951.804 548.418 951.423C548.656 951.041 548.972 950.737 549.366 950.511C549.751 950.295 550.18 950.193 550.653 950.206Z" fill="#737373"/>
<path d="M539.597 949.673C540.297 949.712 540.884 949.996 541.358 950.525C541.832 951.054 542.051 951.669 542.013 952.369C541.975 953.068 541.692 953.655 541.164 954.128C540.636 954.601 540.023 954.819 539.323 954.78C538.623 954.741 538.036 954.457 537.562 953.928C537.088 953.399 536.87 952.784 536.907 952.084C536.932 951.621 537.073 951.202 537.33 950.828C537.578 950.452 537.902 950.158 538.303 949.943C538.693 949.737 539.124 949.647 539.597 949.673Z" fill="#737373"/>
<path d="M528.561 948.83C529.259 948.888 529.838 949.188 530.298 949.73C530.758 950.272 530.959 950.893 530.903 951.591C530.847 952.29 530.548 952.868 530.008 953.327C529.467 953.785 528.848 953.985 528.149 953.927C527.451 953.868 526.872 953.568 526.412 953.026C525.952 952.484 525.751 951.864 525.807 951.165C525.844 950.703 525.997 950.288 526.264 949.921C526.522 949.552 526.853 949.267 527.259 949.063C527.655 948.868 528.089 948.79 528.561 948.83Z" fill="#737373"/>
<path d="M517.551 947.675C518.248 947.753 518.819 948.069 519.264 948.624C519.709 949.179 519.893 949.804 519.818 950.501C519.743 951.198 519.429 951.768 518.877 952.211C518.324 952.654 517.7 952.837 517.003 952.759C516.307 952.682 515.736 952.365 515.291 951.811C514.846 951.256 514.661 950.63 514.736 949.934C514.786 949.472 514.949 949.062 515.226 948.702C515.494 948.341 515.833 948.065 516.244 947.872C516.645 947.688 517.081 947.623 517.551 947.675Z" fill="#737373"/>
<path d="M502.312 984.684L508.715 937.273L511.528 937.667L505.126 985.077L502.312 984.684Z" fill="#737373"/>
<path d="M495.649 944.439C496.34 944.555 496.893 944.903 497.308 945.481C497.722 946.06 497.873 946.695 497.761 947.387C497.648 948.079 497.304 948.63 496.729 949.042C496.153 949.455 495.52 949.602 494.829 949.486C494.138 949.37 493.585 949.022 493.171 948.444C492.757 947.865 492.606 947.23 492.718 946.538C492.792 946.08 492.977 945.679 493.273 945.335C493.56 944.99 493.913 944.732 494.334 944.563C494.744 944.401 495.182 944.36 495.649 944.439Z" fill="#737373"/>
<path d="M484.773 942.359C485.461 942.495 486.004 942.858 486.403 943.448C486.801 944.038 486.935 944.677 486.804 945.365C486.673 946.054 486.315 946.596 485.729 946.992C485.142 947.388 484.506 947.518 483.818 947.383C483.13 947.247 482.587 946.885 482.189 946.295C481.79 945.705 481.656 945.065 481.787 944.377C481.874 943.921 482.07 943.525 482.374 943.19C482.67 942.852 483.03 942.605 483.455 942.447C483.87 942.297 484.309 942.268 484.773 942.359Z" fill="#737373"/>
<path d="M473.959 939.975C474.643 940.129 475.176 940.507 475.558 941.108C475.941 941.709 476.057 942.352 475.908 943.036C475.759 943.721 475.386 944.253 474.789 944.633C474.192 945.013 473.552 945.125 472.869 944.971C472.185 944.816 471.652 944.438 471.27 943.837C470.887 943.236 470.771 942.594 470.92 941.909C471.019 941.456 471.225 941.065 471.539 940.738C471.843 940.409 472.21 940.172 472.639 940.026C473.057 939.887 473.497 939.87 473.959 939.975Z" fill="#737373"/>
<path d="M463.214 937.287C463.893 937.46 464.416 937.853 464.782 938.464C465.148 939.076 465.247 939.722 465.08 940.402C464.912 941.082 464.525 941.604 463.918 941.967C463.312 942.33 462.669 942.425 461.99 942.252C461.311 942.078 460.789 941.686 460.423 941.074C460.056 940.463 459.957 939.817 460.125 939.137C460.236 938.686 460.453 938.302 460.775 937.983C461.088 937.662 461.461 937.435 461.894 937.301C462.315 937.174 462.756 937.17 463.214 937.287Z" fill="#737373"/>
<path d="M443.166 971.857L455.864 925.731L458.596 926.511L445.898 972.636L443.166 971.857Z" fill="#737373"/>
<path d="M441.967 931.01C442.635 931.221 443.136 931.642 443.468 932.273C443.801 932.904 443.865 933.555 443.661 934.225C443.457 934.896 443.042 935.395 442.417 935.725C441.793 936.054 441.146 936.113 440.478 935.902C439.809 935.691 439.309 935.27 438.977 934.639C438.644 934.008 438.58 933.357 438.784 932.687C438.919 932.243 439.156 931.871 439.495 931.571C439.825 931.268 440.209 931.061 440.649 930.952C441.076 930.848 441.516 930.868 441.967 931.01Z" fill="#737373"/>
<path d="M431.481 927.427C432.143 927.656 432.632 928.091 432.947 928.731C433.262 929.371 433.309 930.023 433.087 930.688C432.865 931.353 432.437 931.841 431.804 932.153C431.17 932.465 430.523 932.506 429.86 932.277C429.198 932.048 428.709 931.613 428.394 930.973C428.079 930.332 428.032 929.68 428.254 929.015C428.402 928.575 428.648 928.21 428.995 927.919C429.333 927.625 429.723 927.429 430.165 927.332C430.595 927.24 431.034 927.272 431.481 927.427Z" fill="#737373"/>
<path d="M421.098 923.55C421.753 923.798 422.23 924.246 422.528 924.895C422.825 925.544 422.854 926.197 422.614 926.856C422.374 927.514 421.934 927.99 421.292 928.285C420.651 928.579 420.002 928.602 419.347 928.355C418.691 928.108 418.215 927.659 417.917 927.011C417.619 926.362 417.59 925.708 417.83 925.05C417.989 924.614 418.246 924.255 418.6 923.974C418.946 923.689 419.34 923.505 419.785 923.419C420.217 923.339 420.655 923.383 421.098 923.55Z" fill="#737373"/>
<path d="M410.824 919.384C411.472 919.65 411.937 920.111 412.217 920.768C412.497 921.425 412.508 922.079 412.25 922.731C411.993 923.383 411.54 923.847 410.891 924.123C410.242 924.4 409.593 924.405 408.944 924.14C408.296 923.874 407.832 923.413 407.552 922.756C407.272 922.099 407.26 921.445 407.518 920.793C407.689 920.362 407.955 920.01 408.317 919.739C408.67 919.464 409.069 919.29 409.516 919.217C409.95 919.149 410.386 919.205 410.824 919.384Z" fill="#737373"/>
<path d="M386.329 950.895L405.108 906.893L407.706 908.042L388.928 952.043L386.329 950.895Z" fill="#737373"/>
<path d="M390.639 910.197C391.272 910.497 391.71 910.984 391.954 911.655C392.198 912.327 392.174 912.981 391.882 913.618C391.589 914.255 391.112 914.694 390.449 914.934C389.786 915.175 389.139 915.145 388.506 914.844C387.873 914.543 387.435 914.057 387.191 913.385C386.947 912.713 386.971 912.059 387.264 911.422C387.457 911 387.742 910.664 388.118 910.413C388.485 910.158 388.893 910.006 389.342 909.957C389.779 909.913 390.212 909.993 390.639 910.197Z" fill="#737373"/>
<path d="M380.743 905.183C381.368 905.501 381.793 905.999 382.018 906.677C382.244 907.356 382.202 908.009 381.892 908.638C381.583 909.267 381.094 909.692 380.425 909.915C379.756 910.137 379.11 910.089 378.485 909.771C377.861 909.452 377.436 908.954 377.211 908.276C376.985 907.597 377.027 906.944 377.337 906.315C377.541 905.899 377.835 905.57 378.217 905.329C378.591 905.084 379.004 904.944 379.454 904.908C379.892 904.876 380.322 904.967 380.743 905.183Z" fill="#737373"/>
<path d="M370.988 899.894C371.603 900.229 372.014 900.739 372.221 901.423C372.428 902.108 372.369 902.76 372.042 903.38C371.716 904 371.216 904.412 370.541 904.616C369.867 904.82 369.222 904.754 368.607 904.419C367.991 904.084 367.58 903.574 367.373 902.889C367.166 902.205 367.226 901.553 367.553 900.933C367.769 900.522 368.071 900.201 368.46 899.971C368.84 899.736 369.256 899.607 369.707 899.584C370.145 899.564 370.572 899.667 370.988 899.894Z" fill="#737373"/>
<path d="M360.892 895.206C361.498 895.559 361.895 896.08 362.083 896.77C362.271 897.46 362.194 898.11 361.851 898.721C361.508 899.332 360.996 899.731 360.317 899.916C359.637 900.101 358.995 900.018 358.389 899.666C357.783 899.313 357.386 898.792 357.198 898.102C357.01 897.412 357.087 896.762 357.43 896.151C357.657 895.746 357.968 895.434 358.363 895.215C358.749 894.99 359.168 894.872 359.62 894.861C360.058 894.853 360.482 894.968 360.892 895.206Z" fill="#737373"/>
<path d="M332.364 923.074L356.901 882.005L359.317 883.5L334.78 924.569L332.364 923.074Z" fill="#737373"/>
<path d="M342.105 883.267C342.69 883.652 343.058 884.194 343.209 884.894C343.359 885.593 343.246 886.239 342.871 886.83C342.495 887.422 341.963 887.792 341.275 887.94C340.587 888.088 339.95 887.969 339.364 887.584C338.779 887.199 338.411 886.657 338.261 885.957C338.11 885.258 338.223 884.612 338.598 884.02C338.847 883.629 339.174 883.334 339.58 883.136C339.978 882.933 340.403 882.839 340.854 882.852C341.292 882.868 341.709 883.007 342.105 883.267Z" fill="#737373"/>
<path d="M332.963 876.909C333.537 877.31 333.89 877.862 334.021 878.566C334.153 879.269 334.022 879.911 333.631 880.493C333.239 881.074 332.698 881.429 332.006 881.558C331.314 881.687 330.68 881.551 330.106 881.15C329.531 880.749 329.178 880.197 329.047 879.493C328.916 878.79 329.046 878.147 329.437 877.566C329.697 877.181 330.032 876.896 330.443 876.709C330.846 876.517 331.273 876.434 331.724 876.46C332.161 876.488 332.574 876.638 332.963 876.909Z" fill="#737373"/>
<path d="M323.997 870.299C324.56 870.716 324.898 871.277 325.01 871.984C325.122 872.691 324.974 873.33 324.567 873.9C324.16 874.471 323.609 874.811 322.914 874.921C322.218 875.031 321.589 874.878 321.026 874.461C320.462 874.044 320.125 873.483 320.013 872.776C319.901 872.069 320.048 871.43 320.455 870.86C320.725 870.482 321.068 870.206 321.484 870.03C321.892 869.85 322.321 869.778 322.771 869.816C323.207 869.857 323.616 870.017 323.997 870.299Z" fill="#737373"/>
<path d="M315.214 863.442C315.766 863.874 316.088 864.445 316.181 865.155C316.274 865.865 316.109 866.499 315.686 867.058C315.264 867.617 314.704 867.942 314.006 868.033C313.308 868.124 312.683 867.954 312.131 867.522C311.58 867.09 311.257 866.519 311.165 865.809C311.072 865.1 311.237 864.465 311.66 863.906C311.939 863.536 312.289 863.269 312.71 863.105C313.123 862.935 313.554 862.876 314.002 862.926C314.437 862.978 314.842 863.15 315.214 863.442Z" fill="#737373"/>
<path d="M283.184 887.167L313.055 849.797L315.243 851.609L285.372 888.978L283.184 887.167Z" fill="#737373"/>
<path d="M298.224 849.011C298.751 849.472 299.042 850.06 299.096 850.774C299.149 851.488 298.95 852.113 298.498 852.648C298.046 853.183 297.469 853.477 296.767 853.53C296.066 853.583 295.451 853.378 294.924 852.917C294.396 852.455 294.106 851.868 294.052 851.154C293.999 850.44 294.198 849.815 294.65 849.28C294.95 848.925 295.314 848.678 295.742 848.537C296.164 848.39 296.597 848.354 297.042 848.429C297.474 848.505 297.868 848.699 298.224 849.011Z" fill="#737373"/>
<path d="M290.029 841.447C290.543 841.923 290.818 842.519 290.852 843.234C290.886 843.949 290.67 844.568 290.203 845.091C289.737 845.613 289.152 845.892 288.449 845.925C287.746 845.959 287.138 845.738 286.623 845.262C286.109 844.786 285.835 844.191 285.8 843.475C285.766 842.76 285.982 842.141 286.449 841.619C286.758 841.272 287.129 841.035 287.561 840.906C287.987 840.771 288.421 840.747 288.863 840.834C289.293 840.921 289.681 841.126 290.029 841.447Z" fill="#737373"/>
<path d="M282.042 833.66C282.543 834.15 282.801 834.753 282.815 835.468C282.83 836.184 282.597 836.797 282.116 837.307C281.636 837.817 281.043 838.079 280.34 838.093C279.637 838.108 279.034 837.87 278.533 837.38C278.032 836.891 277.774 836.288 277.759 835.572C277.745 834.856 277.978 834.243 278.458 833.734C278.777 833.396 279.154 833.169 279.59 833.052C280.019 832.928 280.453 832.916 280.893 833.015C281.32 833.114 281.703 833.329 282.042 833.66Z" fill="#737373"/>
<path d="M274.268 825.655C274.756 826.158 274.997 826.768 274.992 827.484C274.987 828.2 274.738 828.806 274.243 829.302C273.749 829.799 273.15 830.045 272.446 830.04C271.743 830.035 271.147 829.781 270.659 829.278C270.172 828.775 269.93 828.165 269.935 827.449C269.94 826.733 270.19 826.127 270.684 825.63C271.012 825.302 271.395 825.085 271.834 824.98C272.266 824.868 272.701 824.867 273.138 824.978C273.562 825.089 273.939 825.315 274.268 825.655Z" fill="#737373"/>
<path d="M239.307 844.791L273.981 811.83L275.902 813.924L241.227 846.884L239.307 844.791Z" fill="#737373"/>
<path d="M259.384 809.016C259.843 809.545 260.051 810.167 260.007 810.881C259.963 811.596 259.681 812.188 259.16 812.656C258.639 813.125 258.027 813.338 257.325 813.295C256.623 813.251 256.042 812.965 255.583 812.436C255.123 811.907 254.915 811.285 254.959 810.571C255.003 809.856 255.286 809.264 255.807 808.796C256.152 808.485 256.546 808.29 256.99 808.209C257.427 808.121 257.862 808.144 258.292 808.279C258.71 808.413 259.073 808.658 259.384 809.016Z" fill="#737373"/>
<path d="M251.522 801.043C251.967 801.585 252.158 802.212 252.095 802.925C252.031 803.638 251.733 804.222 251.199 804.676C250.666 805.13 250.048 805.326 249.347 805.264C248.647 805.201 248.074 804.9 247.629 804.358C247.184 803.817 246.993 803.19 247.057 802.477C247.12 801.763 247.419 801.18 247.952 800.725C248.305 800.425 248.705 800.24 249.151 800.171C249.591 800.095 250.024 800.13 250.451 800.277C250.865 800.422 251.222 800.677 251.522 801.043Z" fill="#737373"/>
<path d="M244.64 792.209C245.07 792.763 245.244 793.395 245.161 794.106C245.078 794.817 244.763 795.392 244.218 795.832C243.672 796.271 243.049 796.45 242.35 796.368C241.652 796.287 241.087 795.97 240.657 795.416C240.227 794.863 240.053 794.231 240.136 793.52C240.219 792.809 240.534 792.234 241.079 791.794C241.441 791.503 241.845 791.329 242.293 791.273C242.735 791.209 243.167 791.256 243.59 791.414C243.999 791.57 244.349 791.835 244.64 792.209Z" fill="#737373"/>
<path d="M237.997 783.189C238.412 783.754 238.568 784.39 238.466 785.099C238.364 785.807 238.034 786.374 237.476 786.798C236.919 787.222 236.291 787.384 235.595 787.284C234.898 787.183 234.343 786.85 233.928 786.286C233.513 785.721 233.357 785.084 233.459 784.376C233.561 783.667 233.891 783.101 234.449 782.677C234.818 782.396 235.227 782.233 235.677 782.189C236.12 782.137 236.551 782.196 236.969 782.365C237.374 782.533 237.717 782.808 237.997 783.189Z" fill="#737373"/>
<path d="M200.716 797.346L239.569 769.432L241.188 771.767L202.335 799.681L200.716 797.346Z" fill="#737373"/>
<path d="M225.452 764.619C225.835 765.205 225.957 765.849 225.816 766.551C225.675 767.253 225.315 767.8 224.734 768.193C224.154 768.586 223.519 768.713 222.829 768.575C222.139 768.436 221.602 768.074 221.218 767.487C220.835 766.901 220.713 766.257 220.854 765.555C220.995 764.854 221.355 764.306 221.935 763.913C222.319 763.653 222.737 763.513 223.188 763.494C223.634 763.466 224.061 763.548 224.47 763.74C224.865 763.93 225.192 764.223 225.452 764.619Z" fill="#737373"/>
<path d="M219.557 755.083C219.924 755.68 220.028 756.327 219.868 757.024C219.708 757.721 219.333 758.258 218.742 758.635C218.151 759.012 217.513 759.122 216.827 758.965C216.14 758.807 215.613 758.431 215.246 757.834C214.878 757.237 214.774 756.59 214.934 755.893C215.094 755.196 215.469 754.658 216.06 754.282C216.451 754.032 216.873 753.903 217.324 753.896C217.771 753.881 218.195 753.975 218.599 754.178C218.989 754.378 219.308 754.68 219.557 755.083Z" fill="#737373"/>
<path d="M213.92 745.389C214.271 745.996 214.357 746.645 214.178 747.338C213.999 748.03 213.61 748.557 213.009 748.917C212.408 749.278 211.766 749.37 211.084 749.194C210.403 749.018 209.886 748.627 209.535 748.02C209.183 747.414 209.097 746.765 209.276 746.072C209.455 745.38 209.845 744.853 210.446 744.492C210.843 744.254 211.268 744.137 211.72 744.142C212.167 744.139 212.589 744.244 212.986 744.459C213.371 744.669 213.682 744.98 213.92 745.389Z" fill="#737373"/>
<path d="M208.544 735.545C208.878 736.161 208.947 736.812 208.749 737.499C208.552 738.187 208.148 738.702 207.537 739.046C206.927 739.39 206.283 739.465 205.606 739.27C204.929 739.075 204.423 738.67 204.088 738.054C203.753 737.439 203.685 736.787 203.882 736.1C204.08 735.413 204.484 734.897 205.095 734.553C205.499 734.326 205.927 734.221 206.378 734.238C206.825 734.247 207.244 734.364 207.636 734.589C208.015 734.811 208.318 735.129 208.544 735.545Z" fill="#737373"/>
<path d="M169.641 744.457L211.957 722.14L213.246 724.672L170.93 746.989L169.641 744.457Z" fill="#737373"/>
<path d="M198.591 715.435C198.892 716.068 198.925 716.722 198.691 717.397C198.456 718.072 198.024 718.564 197.396 718.874C196.767 719.183 196.12 719.222 195.454 718.991C194.788 718.759 194.305 718.327 194.004 717.694C193.703 717.062 193.67 716.408 193.905 715.733C194.14 715.058 194.571 714.565 195.2 714.256C195.616 714.05 196.049 713.969 196.499 714.011C196.945 714.045 197.358 714.185 197.737 714.431C198.103 714.673 198.388 715.007 198.591 715.435Z" fill="#737373"/>
<path d="M194.021 705.183C194.305 705.824 194.32 706.479 194.067 707.147C193.814 707.815 193.37 708.295 192.733 708.587C192.096 708.88 191.447 708.901 190.788 708.651C190.129 708.402 189.657 707.956 189.373 707.316C189.09 706.675 189.074 706.02 189.327 705.352C189.58 704.684 190.025 704.204 190.662 703.912C191.084 703.718 191.519 703.649 191.968 703.703C192.413 703.749 192.821 703.9 193.194 704.157C193.554 704.408 193.83 704.751 194.021 705.183Z" fill="#737373"/>
<path d="M189.726 694.812C189.992 695.46 189.99 696.114 189.719 696.775C189.448 697.436 188.99 697.903 188.345 698.178C187.701 698.452 187.052 698.456 186.399 698.188C185.747 697.92 185.287 697.463 185.021 696.814C184.755 696.166 184.757 695.512 185.028 694.851C185.299 694.19 185.757 693.722 186.402 693.448C186.829 693.266 187.266 693.209 187.713 693.276C188.157 693.334 188.561 693.496 188.927 693.763C189.28 694.024 189.546 694.374 189.726 694.812Z" fill="#737373"/>
<path d="M185.709 684.327C185.958 684.982 185.938 685.636 185.649 686.289C185.36 686.942 184.889 687.396 184.237 687.653C183.585 687.909 182.936 687.895 182.291 687.609C181.646 687.324 181.199 686.854 180.95 686.199C180.701 685.543 180.722 684.889 181.01 684.236C181.299 683.584 181.77 683.129 182.422 682.872C182.854 682.702 183.292 682.657 183.738 682.736C184.18 682.807 184.58 682.98 184.938 683.256C185.284 683.527 185.541 683.884 185.709 684.327Z" fill="#737373"/>
<path d="M145.902 687.802L190.89 671.529L191.826 674.211L146.838 690.484L145.902 687.802Z" fill="#737373"/>
<path d="M178.518 663.049C178.731 663.716 178.676 664.368 178.352 665.003C178.028 665.639 177.533 666.067 176.868 666.287C176.203 666.507 175.556 666.457 174.926 666.136C174.297 665.816 173.876 665.322 173.663 664.654C173.45 663.987 173.505 663.335 173.829 662.699C174.153 662.064 174.648 661.636 175.313 661.416C175.754 661.27 176.194 661.249 176.635 661.353C177.073 661.447 177.463 661.642 177.806 661.938C178.137 662.227 178.374 662.597 178.518 663.049Z" fill="#737373"/>
<path d="M174.392 652.559C174.587 653.232 174.514 653.881 174.173 654.508C173.832 655.134 173.326 655.548 172.655 655.749C171.984 655.951 171.338 655.883 170.717 655.545C170.097 655.207 169.689 654.702 169.494 654.029C169.299 653.356 169.372 652.706 169.713 652.08C170.054 651.453 170.56 651.039 171.231 650.838C171.676 650.705 172.117 650.696 172.555 650.811C172.99 650.918 173.375 651.124 173.709 651.429C174.033 651.727 174.26 652.104 174.392 652.559Z" fill="#737373"/>
<path d="M171.503 641.672C171.68 642.35 171.589 642.998 171.231 643.614C170.874 644.231 170.356 644.631 169.68 644.813C169.003 644.996 168.36 644.91 167.748 644.555C167.137 644.201 166.743 643.684 166.566 643.006C166.389 642.328 166.48 641.681 166.838 641.064C167.195 640.448 167.713 640.048 168.389 639.865C168.837 639.744 169.278 639.748 169.713 639.875C170.145 639.994 170.524 640.21 170.851 640.524C171.166 640.831 171.383 641.214 171.503 641.672Z" fill="#737373"/>
<path d="M168.904 630.712C169.063 631.394 168.955 632.039 168.58 632.645C168.206 633.251 167.678 633.636 166.997 633.8C166.315 633.964 165.674 633.861 165.072 633.489C164.471 633.118 164.091 632.591 163.932 631.908C163.774 631.226 163.882 630.581 164.256 629.975C164.63 629.369 165.158 628.983 165.84 628.819C166.291 628.711 166.732 628.726 167.163 628.866C167.592 628.997 167.965 629.223 168.283 629.546C168.59 629.862 168.797 630.25 168.904 630.712Z" fill="#737373"/>
<path d="M128.933 628.632L175.739 618.733L176.307 621.516L129.501 631.416L128.933 628.632Z" fill="#737373"/>
<path d="M164.583 608.599C164.704 609.289 164.562 609.927 164.155 610.511C163.749 611.096 163.201 611.451 162.511 611.577C161.822 611.703 161.187 611.564 160.606 611.159C160.025 610.755 159.674 610.208 159.552 609.518C159.43 608.828 159.573 608.191 159.979 607.606C160.386 607.022 160.934 606.667 161.623 606.541C162.08 606.457 162.52 606.497 162.943 606.661C163.364 606.815 163.725 607.062 164.025 607.402C164.315 607.734 164.5 608.133 164.583 608.599Z" fill="#737373"/>
<path d="M162.863 597.463C162.966 598.156 162.806 598.789 162.384 599.362C161.962 599.935 161.404 600.275 160.712 600.382C160.019 600.488 159.388 600.332 158.818 599.912C158.248 599.492 157.912 598.935 157.809 598.242C157.706 597.549 157.865 596.916 158.287 596.343C158.71 595.77 159.267 595.43 159.96 595.324C160.418 595.253 160.857 595.305 161.275 595.48C161.692 595.646 162.047 595.903 162.338 596.251C162.618 596.591 162.793 596.995 162.863 597.463Z" fill="#737373"/>
<path d="M161.439 586.285C161.523 586.981 161.347 587.609 160.909 588.17C160.472 588.731 159.905 589.055 159.21 589.142C158.515 589.23 157.888 589.056 157.329 588.62C156.771 588.184 156.449 587.619 156.365 586.923C156.281 586.227 156.457 585.599 156.895 585.038C157.332 584.477 157.898 584.153 158.594 584.066C159.054 584.008 159.491 584.072 159.905 584.259C160.318 584.436 160.665 584.703 160.946 585.059C161.218 585.406 161.382 585.815 161.439 586.285Z" fill="#737373"/>
<path d="M160.311 575.072C160.377 575.77 160.183 576.393 159.731 576.941C159.279 577.49 158.704 577.798 158.006 577.866C157.309 577.934 156.687 577.743 156.14 577.292C155.594 576.841 155.287 576.267 155.222 575.569C155.156 574.871 155.349 574.248 155.802 573.7C156.254 573.151 156.829 572.843 157.526 572.775C157.988 572.73 158.424 572.806 158.832 573.004C159.24 573.193 159.58 573.469 159.852 573.833C160.114 574.188 160.267 574.601 160.311 575.072Z" fill="#737373"/>
<path d="M120.945 567.48L168.671 564.158L168.861 566.992L121.136 570.315L120.945 567.48Z" fill="#737373"/>
<path d="M158.948 552.576C158.976 553.276 158.75 553.887 158.269 554.409C157.787 554.932 157.197 555.208 156.496 555.237C155.796 555.266 155.185 555.04 154.664 554.56C154.142 554.079 153.867 553.489 153.839 552.789C153.811 552.089 154.037 551.477 154.519 550.955C155 550.432 155.59 550.157 156.291 550.127C156.754 550.108 157.185 550.209 157.582 550.429C157.979 550.64 158.304 550.934 158.556 551.312C158.798 551.681 158.929 552.102 158.948 552.576Z" fill="#737373"/>
<path d="M158.714 541.308C158.723 542.008 158.48 542.613 157.985 543.122C157.49 543.631 156.892 543.89 156.191 543.9C155.491 543.91 154.886 543.667 154.377 543.172C153.869 542.677 153.61 542.079 153.6 541.379C153.591 540.678 153.834 540.073 154.329 539.564C154.824 539.056 155.422 538.796 156.123 538.787C156.587 538.78 157.014 538.893 157.406 539.124C157.797 539.346 158.114 539.649 158.356 540.034C158.588 540.41 158.707 540.834 158.714 541.308Z" fill="#737373"/>
<path d="M158.777 530.038C158.768 530.738 158.509 531.336 158 531.831C157.492 532.326 156.887 532.568 156.186 532.559C155.486 532.549 154.888 532.29 154.393 531.781C153.898 531.272 153.655 530.667 153.664 529.966C153.674 529.266 153.933 528.668 154.441 528.173C154.95 527.678 155.554 527.436 156.255 527.445C156.719 527.452 157.144 527.576 157.529 527.818C157.914 528.051 158.222 528.363 158.454 528.755C158.676 529.136 158.784 529.564 158.777 530.038Z" fill="#737373"/>
<path d="M159.139 518.773C159.111 519.473 158.836 520.064 158.314 520.544C157.793 521.025 157.182 521.251 156.482 521.221C155.782 521.192 155.191 520.916 154.71 520.394C154.228 519.872 154.002 519.26 154.03 518.56C154.058 517.86 154.333 517.269 154.855 516.789C155.377 516.308 155.987 516.083 156.688 516.112C157.151 516.131 157.572 516.267 157.951 516.52C158.329 516.763 158.629 517.084 158.85 517.482C159.062 517.87 159.158 518.3 159.139 518.773Z" fill="#737373"/>
<path d="M121.135 505.795L168.86 509.118L168.67 511.952L120.944 508.63L121.135 505.795Z" fill="#737373"/>
<path d="M160.756 496.294C160.691 496.992 160.384 497.566 159.838 498.017C159.291 498.468 158.669 498.659 157.972 498.591C157.274 498.523 156.699 498.215 156.247 497.667C155.795 497.118 155.601 496.495 155.667 495.797C155.733 495.1 156.039 494.525 156.585 494.075C157.132 493.624 157.754 493.432 158.452 493.5C158.913 493.545 159.326 493.705 159.691 493.978C160.056 494.242 160.338 494.579 160.537 494.988C160.728 495.388 160.801 495.823 160.756 496.294Z" fill="#737373"/>
<path d="M162.011 485.096C161.926 485.791 161.605 486.357 161.046 486.792C160.488 487.228 159.861 487.402 159.166 487.315C158.47 487.227 157.904 486.903 157.467 486.342C157.029 485.781 156.853 485.153 156.937 484.457C157.021 483.762 157.343 483.196 157.901 482.761C158.46 482.325 159.087 482.151 159.782 482.238C160.242 482.296 160.651 482.467 161.008 482.75C161.365 483.024 161.638 483.369 161.827 483.784C162.006 484.188 162.068 484.625 162.011 485.096Z" fill="#737373"/>
<path d="M163.561 473.935C163.458 474.628 163.121 475.185 162.551 475.605C161.982 476.025 161.35 476.181 160.658 476.074C159.965 475.968 159.408 475.628 158.986 475.055C158.563 474.482 158.404 473.849 158.507 473.156C158.61 472.463 158.947 471.906 159.516 471.486C160.086 471.066 160.718 470.91 161.41 471.016C161.869 471.087 162.272 471.269 162.621 471.562C162.972 471.846 163.235 472.198 163.412 472.618C163.581 473.028 163.631 473.466 163.561 473.935Z" fill="#737373"/>
<path d="M165.406 462.82C165.285 463.51 164.934 464.057 164.353 464.461C163.772 464.865 163.137 465.005 162.447 464.879C161.758 464.753 161.21 464.398 160.803 463.813C160.397 463.229 160.254 462.591 160.376 461.901C160.498 461.211 160.849 460.664 161.43 460.26C162.011 459.856 162.646 459.717 163.335 459.843C163.792 459.926 164.19 460.119 164.531 460.422C164.874 460.716 165.128 461.075 165.293 461.5C165.451 461.914 165.489 462.354 165.406 462.82Z" fill="#737373"/>
<path d="M129.498 444.694L176.303 454.593L175.735 457.377L128.929 447.477L129.498 444.694Z" fill="#737373"/>
<path d="M169.977 440.761C169.819 441.443 169.439 441.97 168.837 442.342C168.236 442.713 167.594 442.817 166.913 442.653C166.232 442.489 165.704 442.104 165.329 441.497C164.955 440.891 164.847 440.247 165.006 439.564C165.164 438.881 165.544 438.354 166.146 437.983C166.747 437.612 167.389 437.508 168.07 437.672C168.521 437.78 168.909 437.995 169.233 438.317C169.559 438.629 169.793 439.002 169.935 439.436C170.071 439.858 170.085 440.299 169.977 440.761Z" fill="#737373"/>
<path d="M172.7 429.832C172.523 430.51 172.129 431.026 171.518 431.381C170.907 431.735 170.263 431.821 169.586 431.639C168.91 431.456 168.393 431.056 168.035 430.439C167.677 429.823 167.586 429.176 167.763 428.497C167.94 427.819 168.334 427.303 168.945 426.948C169.557 426.594 170.201 426.508 170.877 426.69C171.325 426.812 171.706 427.037 172.022 427.368C172.339 427.689 172.563 428.068 172.693 428.506C172.817 428.931 172.819 429.373 172.7 429.832Z" fill="#737373"/>
<path d="M175.712 418.98C175.516 419.653 175.109 420.159 174.488 420.496C173.868 420.834 173.222 420.902 172.551 420.701C171.88 420.499 171.374 420.085 171.033 419.459C170.692 418.833 170.619 418.183 170.814 417.51C171.009 416.837 171.417 416.331 172.037 415.994C172.658 415.656 173.303 415.588 173.974 415.789C174.419 415.923 174.794 416.159 175.1 416.498C175.409 416.828 175.622 417.213 175.741 417.654C175.853 418.083 175.843 418.525 175.712 418.98Z" fill="#737373"/>
<path d="M179.96 408.529C179.747 409.196 179.325 409.69 178.696 410.011C178.067 410.331 177.42 410.382 176.755 410.162C176.089 409.941 175.595 409.514 175.271 408.878C174.947 408.242 174.891 407.591 175.105 406.923C175.318 406.255 175.739 405.761 176.368 405.441C176.997 405.12 177.644 405.07 178.31 405.29C178.75 405.436 179.119 405.682 179.415 406.03C179.715 406.368 179.918 406.759 180.025 407.204C180.125 407.636 180.104 408.078 179.96 408.529Z" fill="#737373"/>
<path d="M146.833 385.625L191.821 401.898L190.884 404.58L145.896 388.307L146.833 385.625Z" fill="#737373"/>
<path d="M187.39 387.337C187.142 387.992 186.695 388.463 186.049 388.748C185.404 389.034 184.756 389.048 184.103 388.792C183.451 388.535 182.981 388.08 182.692 387.428C182.403 386.775 182.383 386.121 182.632 385.465C182.88 384.81 183.327 384.34 183.973 384.055C184.618 383.769 185.267 383.755 185.919 384.011C186.35 384.181 186.705 384.448 186.982 384.811C187.263 385.166 187.444 385.568 187.527 386.017C187.604 386.455 187.558 386.895 187.39 387.337Z" fill="#737373"/>
<path d="M191.526 376.901C191.26 377.549 190.8 378.007 190.148 378.275C189.495 378.542 188.846 378.539 188.202 378.264C187.557 377.99 187.099 377.522 186.828 376.862C186.557 376.201 186.555 375.546 186.821 374.898C187.087 374.25 187.547 373.792 188.199 373.524C188.852 373.257 189.5 373.26 190.145 373.534C190.572 373.716 190.919 373.993 191.187 374.364C191.457 374.726 191.628 375.133 191.698 375.585C191.763 376.024 191.706 376.463 191.526 376.901Z" fill="#737373"/>
<path d="M195.938 366.581C195.654 367.221 195.183 367.667 194.523 367.916C193.864 368.166 193.216 368.145 192.579 367.852C191.942 367.56 191.497 367.08 191.244 366.412C190.991 365.744 191.006 365.089 191.29 364.449C191.574 363.808 192.045 363.363 192.705 363.113C193.364 362.863 194.012 362.885 194.649 363.177C195.071 363.37 195.41 363.656 195.667 364.034C195.928 364.404 196.088 364.816 196.146 365.27C196.199 365.711 196.13 366.148 195.938 366.581Z" fill="#737373"/>
<path d="M200.623 356.384C200.323 357.017 199.839 357.449 199.173 357.681C198.508 357.912 197.86 357.873 197.232 357.563C196.603 357.254 196.172 356.761 195.937 356.086C195.702 355.411 195.735 354.757 196.036 354.125C196.337 353.492 196.82 353.06 197.486 352.828C198.152 352.597 198.799 352.636 199.428 352.945C199.844 353.15 200.175 353.446 200.422 353.831C200.673 354.208 200.821 354.624 200.867 355.079C200.908 355.522 200.827 355.957 200.623 356.384Z" fill="#737373"/>
<path d="M170.922 329.119L213.238 351.436L211.949 353.968L169.633 331.651L170.922 329.119Z" fill="#737373"/>
<path d="M210.802 336.393C210.468 337.009 209.962 337.414 209.285 337.609C208.608 337.803 207.964 337.729 207.353 337.385C206.743 337.041 206.339 336.525 206.141 335.838C205.943 335.151 206.012 334.499 206.347 333.884C206.681 333.268 207.187 332.863 207.864 332.668C208.541 332.474 209.185 332.548 209.796 332.892C210.2 333.12 210.515 333.433 210.74 333.831C210.97 334.222 211.095 334.645 211.116 335.103C211.133 335.547 211.028 335.977 210.802 336.393Z" fill="#737373"/>
<path d="M216.288 326.613C215.937 327.22 215.421 327.611 214.739 327.787C214.057 327.963 213.415 327.871 212.815 327.51C212.214 327.15 211.824 326.623 211.645 325.93C211.466 325.238 211.552 324.588 211.904 323.982C212.255 323.376 212.771 322.984 213.453 322.808C214.135 322.632 214.777 322.725 215.378 323.085C215.775 323.324 216.082 323.646 216.296 324.05C216.515 324.447 216.629 324.874 216.637 325.332C216.642 325.776 216.526 326.204 216.288 326.613Z" fill="#737373"/>
<path d="M222.035 316.987C221.667 317.584 221.14 317.961 220.454 318.118C219.767 318.275 219.129 318.165 218.538 317.788C217.947 317.411 217.572 316.874 217.412 316.177C217.252 315.48 217.356 314.833 217.724 314.236C218.091 313.639 218.618 313.262 219.305 313.105C219.991 312.948 220.629 313.058 221.22 313.435C221.611 313.684 221.908 314.014 222.112 314.425C222.32 314.827 222.422 315.257 222.418 315.715C222.411 316.16 222.283 316.584 222.035 316.987Z" fill="#737373"/>
<path d="M228.036 307.521C227.653 308.108 227.116 308.47 226.426 308.609C225.735 308.747 225.1 308.62 224.52 308.227C223.94 307.834 223.58 307.286 223.439 306.585C223.298 305.883 223.419 305.239 223.803 304.653C224.187 304.066 224.723 303.704 225.414 303.565C226.104 303.427 226.739 303.554 227.319 303.947C227.703 304.208 227.991 304.546 228.183 304.962C228.38 305.37 228.47 305.802 228.454 306.26C228.435 306.705 228.296 307.125 228.036 307.521Z" fill="#737373"/>
<path d="M202.325 276.427L241.178 304.34L239.559 306.675L200.706 278.761L202.325 276.427Z" fill="#737373"/>
<path d="M240.79 289.101C240.376 289.666 239.82 289.998 239.123 290.099C238.427 290.199 237.8 290.038 237.242 289.613C236.684 289.189 236.354 288.622 236.252 287.914C236.15 287.206 236.306 286.569 236.721 286.004C237.136 285.439 237.692 285.107 238.388 285.006C239.085 284.906 239.712 285.068 240.269 285.492C240.639 285.773 240.908 286.126 241.076 286.552C241.251 286.971 241.317 287.408 241.276 287.864C241.233 288.307 241.071 288.719 240.79 289.101Z" fill="#737373"/>
<path d="M247.534 280.16C247.104 280.713 246.539 281.031 245.84 281.112C245.141 281.194 244.519 281.015 243.973 280.575C243.427 280.136 243.113 279.56 243.03 278.849C242.947 278.138 243.121 277.506 243.551 276.953C243.981 276.4 244.545 276.082 245.244 276.001C245.943 275.919 246.566 276.098 247.111 276.538C247.473 276.829 247.732 277.189 247.889 277.62C248.052 278.043 248.107 278.482 248.053 278.937C247.997 279.378 247.824 279.786 247.534 280.16Z" fill="#737373"/>
<path d="M254.515 271.408C254.07 271.949 253.498 272.251 252.797 272.313C252.096 272.376 251.479 272.18 250.945 271.725C250.412 271.271 250.113 270.687 250.05 269.974C249.986 269.261 250.177 268.634 250.622 268.093C251.067 267.551 251.64 267.249 252.34 267.187C253.041 267.125 253.658 267.32 254.192 267.775C254.545 268.076 254.795 268.443 254.94 268.878C255.091 269.305 255.134 269.746 255.068 270.199C255 270.639 254.816 271.042 254.515 271.408Z" fill="#737373"/>
<path d="M262.473 263.52C262.014 264.049 261.433 264.335 260.731 264.378C260.029 264.421 259.417 264.208 258.896 263.74C258.375 263.271 258.093 262.679 258.049 261.965C258.005 261.25 258.213 260.628 258.672 260.099C259.132 259.57 259.713 259.284 260.415 259.241C261.117 259.198 261.729 259.41 262.249 259.879C262.594 260.189 262.834 260.564 262.967 261.002C263.107 261.434 263.137 261.875 263.058 262.326C262.979 262.764 262.784 263.162 262.473 263.52Z" fill="#737373"/>
<path d="M241.215 229.221L275.89 262.182L273.969 264.275L239.295 231.314L241.215 229.221Z" fill="#737373"/>
<path d="M277.544 247.058C277.056 247.561 276.461 247.815 275.757 247.82C275.054 247.824 274.455 247.579 273.96 247.082C273.466 246.586 273.216 245.979 273.211 245.263C273.206 244.547 273.447 243.938 273.935 243.434C274.423 242.931 275.018 242.677 275.722 242.672C276.425 242.668 277.024 242.914 277.519 243.41C277.846 243.739 278.065 244.126 278.174 244.571C278.29 245.009 278.296 245.451 278.193 245.898C278.09 246.331 277.873 246.718 277.544 247.058Z" fill="#737373"/>
<path d="M285.407 239.145C284.906 239.634 284.303 239.872 283.6 239.858C282.897 239.843 282.305 239.581 281.824 239.071C281.343 238.561 281.11 237.949 281.125 237.233C281.139 236.517 281.397 235.914 281.899 235.424C282.4 234.935 283.002 234.697 283.705 234.711C284.409 234.726 285.001 234.988 285.482 235.498C285.8 235.835 286.008 236.228 286.105 236.676C286.209 237.117 286.203 237.56 286.088 238.003C285.973 238.433 285.746 238.814 285.407 239.145Z" fill="#737373"/>
<path d="M293.481 231.452C292.967 231.928 292.358 232.149 291.655 232.115C290.953 232.082 290.368 231.804 289.901 231.281C289.435 230.758 289.218 230.139 289.253 229.424C289.287 228.709 289.561 228.113 290.076 227.637C290.59 227.162 291.199 226.941 291.901 226.974C292.604 227.008 293.189 227.286 293.656 227.809C293.965 228.155 294.161 228.553 294.246 229.004C294.338 229.447 294.32 229.89 294.193 230.33C294.066 230.756 293.829 231.131 293.481 231.452Z" fill="#737373"/>
<path d="M301.761 223.986C301.233 224.447 300.619 224.652 299.917 224.599C299.216 224.546 298.639 224.252 298.187 223.717C297.734 223.182 297.535 222.557 297.589 221.843C297.643 221.129 297.933 220.541 298.46 220.08C298.988 219.618 299.602 219.414 300.304 219.467C301.005 219.52 301.582 219.814 302.034 220.349C302.334 220.703 302.52 221.107 302.592 221.559C302.672 222.005 302.642 222.447 302.503 222.883C302.364 223.306 302.117 223.674 301.761 223.986Z" fill="#737373"/>
<path d="M285.359 187.125L315.229 224.495L313.041 226.307L283.171 188.937L285.359 187.125Z" fill="#737373"/>
<path d="M318.912 209.756C318.36 210.188 317.735 210.358 317.038 210.267C316.34 210.176 315.78 209.851 315.357 209.292C314.935 208.733 314.77 208.098 314.862 207.389C314.955 206.679 315.277 206.108 315.829 205.676C316.381 205.244 317.005 205.073 317.703 205.165C318.401 205.256 318.961 205.581 319.384 206.14C319.663 206.51 319.827 206.923 319.875 207.379C319.93 207.828 319.876 208.267 319.713 208.696C319.552 209.11 319.285 209.464 318.912 209.756Z" fill="#737373"/>
<path d="M327.771 203.003C327.207 203.42 326.578 203.573 325.883 203.463C325.188 203.353 324.637 203.012 324.229 202.442C323.822 201.872 323.675 201.233 323.787 200.526C323.899 199.819 324.236 199.257 324.8 198.841C325.363 198.424 325.992 198.271 326.688 198.381C327.383 198.491 327.934 198.831 328.341 199.402C328.611 199.779 328.763 200.197 328.798 200.653C328.841 201.104 328.775 201.542 328.601 201.965C328.428 202.375 328.151 202.721 327.771 203.003Z" fill="#737373"/>
<path d="M336.81 196.499C336.235 196.9 335.602 197.036 334.91 196.907C334.218 196.778 333.676 196.423 333.284 195.842C332.893 195.26 332.763 194.618 332.894 193.915C333.025 193.211 333.378 192.659 333.953 192.258C334.527 191.857 335.161 191.721 335.853 191.85C336.545 191.979 337.086 192.334 337.478 192.915C337.737 193.3 337.878 193.721 337.901 194.179C337.932 194.631 337.854 195.066 337.668 195.485C337.484 195.89 337.198 196.228 336.81 196.499Z" fill="#737373"/>
<path d="M346.023 190.249C345.437 190.634 344.801 190.753 344.112 190.605C343.424 190.457 342.892 190.087 342.516 189.495C342.141 188.904 342.028 188.258 342.178 187.559C342.329 186.859 342.697 186.317 343.282 185.932C343.868 185.547 344.505 185.428 345.193 185.576C345.881 185.724 346.413 186.094 346.789 186.685C347.038 187.077 347.167 187.502 347.177 187.96C347.196 188.413 347.106 188.845 346.908 189.259C346.714 189.659 346.419 189.989 346.023 190.249Z" fill="#737373"/>
<path d="M334.765 151.532L359.302 192.601L356.886 194.097L332.349 153.028L334.765 151.532Z" fill="#737373"/>
<path d="M364.942 178.531C364.336 178.883 363.693 178.967 363.014 178.781C362.334 178.596 361.823 178.198 361.48 177.587C361.137 176.975 361.06 176.325 361.248 175.635C361.436 174.945 361.833 174.424 362.439 174.072C363.045 173.719 363.687 173.636 364.367 173.821C365.047 174.007 365.558 174.405 365.901 175.016C366.128 175.421 366.234 175.852 366.22 176.309C366.213 176.762 366.1 177.189 365.88 177.591C365.664 177.98 365.351 178.293 364.942 178.531Z" fill="#737373"/>
<path d="M375.1 173.957C374.485 174.293 373.84 174.358 373.166 174.154C372.491 173.95 371.991 173.538 371.665 172.918C371.338 172.298 371.279 171.646 371.486 170.962C371.693 170.277 372.104 169.767 372.719 169.432C373.334 169.096 373.979 169.031 374.653 169.235C375.328 169.439 375.828 169.851 376.155 170.471C376.371 170.881 376.465 171.315 376.438 171.772C376.419 172.224 376.295 172.648 376.064 173.044C375.837 173.426 375.516 173.731 375.1 173.957Z" fill="#737373"/>
<path d="M384.914 168.783C384.29 169.102 383.643 169.15 382.974 168.927C382.306 168.705 381.817 168.28 381.507 167.651C381.198 167.022 381.156 166.369 381.381 165.69C381.607 165.012 382.032 164.514 382.656 164.195C383.28 163.877 383.927 163.829 384.595 164.051C385.264 164.274 385.753 164.699 386.063 165.328C386.268 165.744 386.35 166.18 386.311 166.636C386.28 167.088 386.144 167.508 385.902 167.897C385.665 168.273 385.336 168.568 384.914 168.783Z" fill="#737373"/>
<path d="M394.865 163.886C394.233 164.187 393.585 164.217 392.922 163.977C392.26 163.736 391.782 163.297 391.49 162.661C391.197 162.024 391.173 161.369 391.417 160.698C391.661 160.026 392.099 159.54 392.732 159.239C393.365 158.938 394.013 158.908 394.675 159.148C395.338 159.389 395.815 159.828 396.108 160.464C396.301 160.886 396.372 161.324 396.32 161.779C396.277 162.229 396.13 162.645 395.878 163.027C395.63 163.397 395.293 163.683 394.865 163.886Z" fill="#737373"/>
<path d="M388.912 124.056L407.69 168.058L405.091 169.207L386.313 125.205L388.912 124.056Z" fill="#737373"/>
<path d="M415.152 154.936C414.503 155.202 413.855 155.196 413.206 154.92C412.557 154.643 412.103 154.179 411.846 153.527C411.588 152.876 411.6 152.221 411.88 151.564C412.16 150.907 412.624 150.446 413.272 150.181C413.921 149.915 414.57 149.921 415.219 150.197C415.867 150.474 416.321 150.938 416.578 151.59C416.749 152.021 416.796 152.463 416.72 152.913C416.652 153.36 416.482 153.768 416.21 154.135C415.943 154.49 415.59 154.757 415.152 154.936Z" fill="#737373"/>
<path d="M425.471 150.891C424.815 151.139 424.167 151.115 423.526 150.821C422.884 150.527 422.444 150.05 422.204 149.392C421.964 148.733 421.993 148.08 422.29 147.431C422.588 146.782 423.065 146.334 423.72 146.087C424.376 145.839 425.025 145.863 425.666 146.157C426.307 146.451 426.748 146.928 426.988 147.586C427.147 148.022 427.182 148.464 427.093 148.913C427.014 149.358 426.833 149.76 426.55 150.119C426.274 150.467 425.914 150.724 425.471 150.891Z" fill="#737373"/>
<path d="M435.897 147.137C435.235 147.366 434.588 147.325 433.954 147.013C433.321 146.701 432.893 146.213 432.671 145.548C432.449 144.884 432.496 144.231 432.811 143.591C433.126 142.951 433.615 142.516 434.277 142.287C434.939 142.058 435.587 142.099 436.22 142.411C436.854 142.723 437.281 143.211 437.503 143.876C437.65 144.316 437.674 144.759 437.573 145.204C437.481 145.647 437.289 146.044 436.998 146.396C436.712 146.735 436.345 146.982 435.897 147.137Z" fill="#737373"/>
<path d="M446.423 143.677C445.755 143.888 445.108 143.829 444.483 143.499C443.858 143.17 443.444 142.67 443.24 142C443.036 141.33 443.1 140.679 443.432 140.048C443.765 139.417 444.265 138.996 444.933 138.785C445.602 138.574 446.248 138.633 446.873 138.963C447.498 139.292 447.912 139.792 448.117 140.462C448.252 140.906 448.263 141.349 448.15 141.792C448.047 142.232 447.844 142.623 447.543 142.966C447.248 143.298 446.874 143.535 446.423 143.677Z" fill="#737373"/>
<path d="M445.881 103.462L458.579 149.587L455.847 150.366L443.149 104.241L445.881 103.462Z" fill="#737373"/>
<path d="M467.739 137.65C467.06 137.824 466.417 137.729 465.811 137.366C465.204 137.003 464.817 136.481 464.649 135.8C464.482 135.12 464.581 134.474 464.947 133.863C465.313 133.251 465.836 132.859 466.515 132.685C467.194 132.512 467.836 132.607 468.443 132.97C469.049 133.333 469.436 133.855 469.604 134.535C469.715 134.985 469.702 135.429 469.566 135.864C469.439 136.297 469.215 136.677 468.896 137.003C468.583 137.317 468.197 137.533 467.739 137.65Z" fill="#737373"/>
<path d="M478.513 135.088C477.829 135.243 477.189 135.13 476.593 134.751C475.996 134.371 475.623 133.839 475.474 133.154C475.325 132.47 475.441 131.827 475.824 131.226C476.206 130.625 476.739 130.247 477.423 130.092C478.106 129.938 478.746 130.051 479.343 130.43C479.939 130.81 480.312 131.342 480.462 132.027C480.561 132.48 480.536 132.922 480.388 133.354C480.249 133.783 480.015 134.157 479.687 134.474C479.366 134.779 478.975 134.984 478.513 135.088Z" fill="#737373"/>
<path d="M489.353 132.831C488.666 132.966 488.029 132.836 487.443 132.44C486.856 132.044 486.498 131.502 486.367 130.813C486.236 130.125 486.37 129.486 486.769 128.896C487.167 128.306 487.71 127.943 488.398 127.807C489.085 127.672 489.722 127.802 490.308 128.198C490.895 128.594 491.253 129.136 491.384 129.825C491.471 130.281 491.434 130.722 491.275 131.149C491.124 131.575 490.881 131.941 490.544 132.249C490.215 132.545 489.818 132.739 489.353 132.831Z" fill="#737373"/>
<path d="M500.251 130.879C499.56 130.995 498.927 130.847 498.352 130.435C497.776 130.023 497.432 129.471 497.32 128.78C497.207 128.088 497.358 127.453 497.773 126.874C498.187 126.295 498.74 125.948 499.431 125.832C500.122 125.715 500.755 125.863 501.331 126.275C501.906 126.687 502.25 127.239 502.363 127.931C502.437 128.389 502.389 128.829 502.217 129.252C502.056 129.673 501.802 130.032 501.457 130.33C501.12 130.617 500.718 130.8 500.251 130.879Z" fill="#737373"/>
<path d="M505.108 91.0173L511.511 138.428L508.697 138.821L502.295 91.4109L505.108 91.0173Z" fill="#737373"/>
<path d="M522.188 127.9C521.492 127.977 520.867 127.795 520.315 127.351C519.762 126.908 519.448 126.338 519.373 125.641C519.298 124.944 519.483 124.319 519.928 123.764C520.373 123.209 520.944 122.893 521.64 122.815C522.336 122.738 522.961 122.92 523.514 123.364C524.066 123.807 524.38 124.377 524.455 125.074C524.505 125.535 524.433 125.972 524.239 126.384C524.055 126.795 523.783 127.14 523.422 127.419C523.07 127.687 522.659 127.847 522.188 127.9Z" fill="#737373"/>
<path d="M533.21 126.874C532.511 126.933 531.892 126.733 531.351 126.274C530.811 125.816 530.512 125.237 530.456 124.539C530.4 123.84 530.601 123.22 531.061 122.678C531.521 122.136 532.1 121.836 532.798 121.777C533.497 121.719 534.116 121.919 534.657 122.377C535.197 122.836 535.495 123.414 535.552 124.113C535.589 124.575 535.506 125.01 535.301 125.416C535.106 125.822 534.824 126.16 534.456 126.428C534.097 126.686 533.681 126.835 533.21 126.874Z" fill="#737373"/>
<path d="M544.255 126.16C543.556 126.199 542.942 125.982 542.414 125.508C541.886 125.035 541.603 124.449 541.565 123.749C541.528 123.049 541.746 122.435 542.22 121.906C542.694 121.377 543.281 121.093 543.981 121.054C544.68 121.015 545.294 121.232 545.822 121.705C546.35 122.178 546.633 122.765 546.671 123.465C546.696 123.928 546.6 124.36 546.385 124.761C546.179 125.161 545.888 125.49 545.513 125.748C545.147 125.996 544.728 126.134 544.255 126.16Z" fill="#737373"/>
<path d="M555.316 125.757C554.615 125.776 554.008 125.542 553.492 125.054C552.977 124.567 552.71 123.973 552.692 123.272C552.673 122.572 552.907 121.963 553.396 121.448C553.884 120.932 554.478 120.665 555.179 120.645C555.879 120.626 556.487 120.86 557.002 121.347C557.517 121.835 557.784 122.429 557.803 123.13C557.816 123.594 557.709 124.023 557.483 124.418C557.266 124.812 556.966 125.133 556.585 125.381C556.212 125.618 555.789 125.744 555.316 125.757Z" fill="#737373"/>
<path d="M565.412 88.5341V136.375H562.571V88.5341H565.412Z" fill="#737373"/>
<path d="M577.45 125.887C576.749 125.867 576.155 125.599 575.667 125.084C575.178 124.568 574.944 123.96 574.963 123.26C574.981 122.559 575.248 121.965 575.764 121.477C576.279 120.989 576.887 120.755 577.587 120.775C578.288 120.794 578.882 121.062 579.37 121.577C579.858 122.093 580.093 122.701 580.074 123.402C580.062 123.866 579.932 124.288 579.685 124.67C579.447 125.052 579.131 125.355 578.737 125.581C578.352 125.798 577.923 125.9 577.45 125.887Z" fill="#737373"/>
<path d="M588.506 126.419C587.806 126.38 587.219 126.096 586.745 125.567C586.271 125.038 586.052 124.424 586.09 123.724C586.128 123.024 586.41 122.438 586.938 121.964C587.467 121.491 588.08 121.274 588.78 121.313C589.48 121.352 590.067 121.636 590.541 122.165C591.015 122.694 591.233 123.308 591.196 124.008C591.171 124.471 591.03 124.89 590.773 125.265C590.525 125.64 590.201 125.935 589.8 126.15C589.41 126.356 588.978 126.445 588.506 126.419Z" fill="#737373"/>
<path d="M599.542 127.263C598.844 127.204 598.265 126.904 597.805 126.362C597.346 125.82 597.144 125.2 597.2 124.501C597.257 123.803 597.555 123.224 598.096 122.766C598.636 122.307 599.255 122.107 599.954 122.166C600.652 122.224 601.231 122.524 601.691 123.066C602.151 123.609 602.352 124.229 602.296 124.927C602.259 125.39 602.106 125.805 601.839 126.172C601.582 126.54 601.25 126.826 600.844 127.03C600.448 127.225 600.014 127.302 599.542 127.263Z" fill="#737373"/>
<path d="M610.552 128.417C609.855 128.34 609.285 128.023 608.84 127.469C608.395 126.914 608.21 126.288 608.285 125.591C608.36 124.895 608.674 124.325 609.226 123.881C609.779 123.438 610.403 123.255 611.1 123.333C611.796 123.411 612.367 123.727 612.812 124.282C613.257 124.837 613.442 125.462 613.367 126.159C613.317 126.62 613.154 127.031 612.877 127.391C612.609 127.751 612.27 128.028 611.859 128.22C611.458 128.404 611.022 128.47 610.552 128.417Z" fill="#737373"/>
<path d="M625.79 91.4085L619.388 138.819L616.574 138.425L622.977 91.0149L625.79 91.4085Z" fill="#737373"/>
<path d="M632.454 131.654C631.763 131.537 631.21 131.19 630.796 130.611C630.381 130.032 630.23 129.397 630.343 128.706C630.455 128.014 630.799 127.462 631.375 127.05C631.95 126.638 632.583 126.49 633.274 126.606C633.965 126.723 634.518 127.07 634.932 127.649C635.347 128.228 635.498 128.863 635.385 129.554C635.311 130.012 635.126 130.413 634.83 130.757C634.544 131.103 634.19 131.36 633.769 131.529C633.359 131.691 632.921 131.732 632.454 131.654Z" fill="#737373"/>
<path d="M643.33 133.733C642.642 133.598 642.099 133.235 641.701 132.645C641.302 132.055 641.168 131.416 641.299 130.727C641.43 130.039 641.789 129.496 642.375 129.1C642.961 128.704 643.598 128.574 644.285 128.71C644.973 128.845 645.516 129.208 645.915 129.798C646.313 130.388 646.447 131.027 646.316 131.716C646.23 132.172 646.034 132.567 645.729 132.903C645.433 133.24 645.073 133.488 644.648 133.645C644.234 133.795 643.794 133.825 643.33 133.733Z" fill="#737373"/>
<path d="M654.144 136.118C653.461 135.963 652.928 135.586 652.545 134.985C652.163 134.384 652.046 133.741 652.195 133.056C652.345 132.371 652.718 131.839 653.314 131.46C653.911 131.08 654.551 130.967 655.234 131.122C655.918 131.276 656.451 131.654 656.834 132.255C657.216 132.856 657.333 133.499 657.183 134.184C657.084 134.637 656.878 135.027 656.564 135.354C656.26 135.683 655.893 135.921 655.464 136.067C655.046 136.205 654.606 136.222 654.144 136.118Z" fill="#737373"/>
<path d="M664.889 138.806C664.21 138.632 663.687 138.24 663.321 137.628C662.955 137.017 662.856 136.371 663.023 135.691C663.191 135.01 663.578 134.488 664.185 134.125C664.791 133.762 665.434 133.667 666.113 133.841C666.792 134.014 667.314 134.407 667.68 135.018C668.047 135.63 668.146 136.276 667.978 136.956C667.867 137.407 667.65 137.791 667.328 138.109C667.015 138.43 666.642 138.657 666.209 138.791C665.787 138.918 665.347 138.923 664.889 138.806Z" fill="#737373"/>
<path d="M684.937 104.236L672.239 150.361L669.507 149.582L682.205 103.457L684.937 104.236Z" fill="#737373"/>
<path d="M686.136 145.082C685.468 144.872 684.967 144.451 684.635 143.82C684.302 143.188 684.238 142.538 684.442 141.867C684.646 141.197 685.061 140.697 685.686 140.368C686.31 140.039 686.957 139.98 687.625 140.19C688.294 140.401 688.794 140.822 689.126 141.453C689.459 142.084 689.523 142.735 689.319 143.405C689.184 143.849 688.947 144.221 688.608 144.522C688.278 144.825 687.894 145.031 687.454 145.141C687.027 145.244 686.587 145.225 686.136 145.082Z" fill="#737373"/>
<path d="M696.622 148.666C695.96 148.437 695.471 148.002 695.156 147.362C694.84 146.721 694.794 146.069 695.016 145.404C695.238 144.74 695.666 144.252 696.299 143.94C696.932 143.628 697.58 143.586 698.242 143.816C698.905 144.045 699.393 144.48 699.708 145.12C700.024 145.76 700.07 146.412 699.848 147.077C699.701 147.517 699.454 147.883 699.107 148.173C698.77 148.467 698.38 148.663 697.938 148.761C697.508 148.852 697.069 148.821 696.622 148.666Z" fill="#737373"/>
<path d="M707.006 152.542C706.35 152.295 705.873 151.847 705.576 151.198C705.278 150.549 705.249 149.895 705.489 149.237C705.729 148.579 706.169 148.102 706.811 147.808C707.452 147.514 708.101 147.49 708.756 147.738C709.412 147.985 709.889 148.433 710.186 149.082C710.484 149.731 710.513 150.384 710.273 151.043C710.114 151.479 709.858 151.837 709.503 152.119C709.158 152.403 708.763 152.588 708.318 152.673C707.886 152.753 707.449 152.709 707.006 152.542Z" fill="#737373"/>
<path d="M717.279 156.708C716.631 156.443 716.166 155.982 715.886 155.325C715.606 154.668 715.595 154.013 715.853 153.362C716.11 152.71 716.564 152.246 717.213 151.969C717.861 151.693 718.51 151.687 719.159 151.953C719.807 152.218 720.271 152.679 720.551 153.336C720.831 153.993 720.843 154.648 720.585 155.299C720.415 155.731 720.148 156.082 719.787 156.354C719.434 156.629 719.034 156.803 718.588 156.876C718.153 156.943 717.717 156.888 717.279 156.708Z" fill="#737373"/>
<path d="M741.774 125.198L722.996 169.199L720.397 168.051L739.175 124.049L741.774 125.198Z" fill="#737373"/>
<path d="M737.464 165.896C736.831 165.595 736.392 165.109 736.149 164.437C735.905 163.765 735.929 163.111 736.221 162.474C736.514 161.837 736.991 161.399 737.654 161.158C738.316 160.917 738.964 160.948 739.597 161.249C740.23 161.549 740.668 162.036 740.912 162.707C741.156 163.379 741.132 164.033 740.839 164.67C740.646 165.092 740.361 165.428 739.985 165.68C739.618 165.935 739.21 166.087 738.76 166.135C738.324 166.179 737.891 166.099 737.464 165.896Z" fill="#737373"/>
<path d="M747.36 170.91C746.735 170.592 746.311 170.093 746.085 169.415C745.86 168.737 745.902 168.083 746.211 167.455C746.52 166.826 747.01 166.4 747.678 166.178C748.347 165.956 748.994 166.004 749.618 166.322C750.242 166.64 750.667 167.139 750.893 167.817C751.118 168.495 751.076 169.149 750.767 169.777C750.562 170.194 750.268 170.522 749.886 170.763C749.512 171.008 749.1 171.149 748.649 171.185C748.211 171.217 747.782 171.125 747.36 170.91Z" fill="#737373"/>
<path d="M757.115 176.199C756.5 175.863 756.089 175.353 755.882 174.669C755.675 173.985 755.734 173.332 756.061 172.712C756.387 172.092 756.888 171.68 757.562 171.476C758.236 171.272 758.881 171.338 759.496 171.674C760.112 172.009 760.523 172.519 760.73 173.203C760.937 173.888 760.877 174.54 760.551 175.16C760.335 175.571 760.032 175.891 759.644 176.121C759.263 176.356 758.847 176.485 758.396 176.509C757.958 176.529 757.531 176.425 757.115 176.199Z" fill="#737373"/>
<path d="M767.211 180.886C766.605 180.534 766.208 180.013 766.02 179.323C765.832 178.633 765.909 177.982 766.252 177.371C766.595 176.76 767.107 176.362 767.786 176.177C768.466 175.991 769.108 176.075 769.714 176.427C770.32 176.779 770.717 177.3 770.905 177.99C771.093 178.68 771.016 179.331 770.673 179.942C770.446 180.346 770.135 180.658 769.74 180.878C769.354 181.102 768.935 181.22 768.483 181.231C768.044 181.239 767.62 181.124 767.211 180.886Z" fill="#737373"/>
<path d="M795.739 153.018L771.202 194.087L768.786 192.592L793.324 151.523L795.739 153.018Z" fill="#737373"/>
<path d="M785.998 192.826C785.413 192.441 785.045 191.898 784.894 191.199C784.744 190.499 784.857 189.854 785.232 189.262C785.608 188.671 786.14 188.301 786.828 188.153C787.517 188.005 788.153 188.124 788.739 188.509C789.324 188.894 789.692 189.436 789.843 190.135C789.993 190.835 789.88 191.481 789.505 192.072C789.256 192.464 788.929 192.759 788.523 192.956C788.125 193.159 787.7 193.254 787.249 193.24C786.811 193.224 786.394 193.086 785.998 192.826Z" fill="#737373"/>
<path d="M795.14 199.184C794.566 198.783 794.213 198.23 794.081 197.527C793.95 196.823 794.08 196.181 794.472 195.6C794.863 195.019 795.405 194.664 796.097 194.535C796.789 194.406 797.422 194.542 797.997 194.943C798.572 195.344 798.925 195.896 799.056 196.599C799.187 197.303 799.057 197.945 798.666 198.526C798.406 198.911 798.071 199.197 797.66 199.383C797.257 199.575 796.83 199.658 796.379 199.633C795.942 199.604 795.529 199.455 795.14 199.184Z" fill="#737373"/>
<path d="M804.106 205.793C803.543 205.377 803.205 204.815 803.093 204.108C802.981 203.401 803.129 202.763 803.536 202.192C803.943 201.622 804.494 201.282 805.189 201.172C805.884 201.062 806.514 201.215 807.077 201.631C807.641 202.048 807.978 202.61 808.09 203.317C808.202 204.024 808.055 204.662 807.647 205.233C807.378 205.61 807.035 205.887 806.619 206.062C806.211 206.243 805.782 206.314 805.332 206.276C804.896 206.236 804.487 206.075 804.106 205.793Z" fill="#737373"/>
<path d="M812.889 212.65C812.337 212.218 812.015 211.647 811.922 210.938C811.829 210.228 811.994 209.593 812.417 209.034C812.839 208.475 813.399 208.15 814.097 208.059C814.795 207.968 815.42 208.138 815.972 208.57C816.523 209.002 816.846 209.573 816.938 210.283C817.031 210.993 816.866 211.627 816.443 212.186C816.164 212.557 815.813 212.824 815.393 212.987C814.98 213.157 814.549 213.217 814.101 213.166C813.665 213.114 813.261 212.942 812.889 212.65Z" fill="#737373"/>
<path d="M844.919 188.926L815.048 226.296L812.86 224.484L842.731 187.114L844.919 188.926Z" fill="#737373"/>
<path d="M829.879 227.082C829.352 226.62 829.061 226.032 829.007 225.318C828.954 224.604 829.153 223.98 829.605 223.445C830.058 222.909 830.634 222.615 831.336 222.562C832.038 222.51 832.652 222.714 833.179 223.176C833.707 223.637 833.997 224.225 834.051 224.939C834.105 225.653 833.905 226.277 833.453 226.813C833.154 227.167 832.789 227.415 832.361 227.555C831.939 227.702 831.506 227.738 831.061 227.663C830.629 227.587 830.235 227.393 829.879 227.082Z" fill="#737373"/>
<path d="M838.074 234.645C837.56 234.169 837.286 233.574 837.251 232.859C837.217 232.143 837.433 231.524 837.9 231.002C838.367 230.479 838.952 230.201 839.654 230.167C840.357 230.133 840.966 230.355 841.48 230.83C841.994 231.306 842.269 231.902 842.303 232.617C842.337 233.332 842.121 233.951 841.654 234.474C841.345 234.82 840.975 235.057 840.542 235.186C840.117 235.322 839.683 235.346 839.24 235.259C838.811 235.171 838.422 234.966 838.074 234.645Z" fill="#737373"/>
<path d="M846.062 242.432C845.56 241.943 845.302 241.34 845.288 240.624C845.273 239.908 845.506 239.295 845.987 238.785C846.468 238.276 847.06 238.014 847.763 237.999C848.466 237.985 849.069 238.222 849.57 238.712C850.071 239.202 850.329 239.804 850.344 240.52C850.358 241.236 850.125 241.849 849.645 242.359C849.326 242.696 848.949 242.924 848.514 243.041C848.085 243.164 847.65 243.177 847.21 243.078C846.783 242.978 846.4 242.763 846.062 242.432Z" fill="#737373"/>
<path d="M853.835 250.438C853.347 249.934 853.106 249.325 853.111 248.609C853.116 247.893 853.365 247.287 853.86 246.79C854.354 246.294 854.953 246.048 855.657 246.052C856.36 246.057 856.956 246.311 857.444 246.814C857.931 247.318 858.173 247.927 858.168 248.643C858.163 249.359 857.913 249.966 857.419 250.462C857.091 250.791 856.708 251.008 856.269 251.113C855.837 251.225 855.403 251.225 854.965 251.114C854.541 251.003 854.165 250.778 853.835 250.438Z" fill="#737373"/>
<path d="M888.796 231.301L854.122 264.262L852.201 262.169L886.876 229.208L888.796 231.301Z" fill="#737373"/>
<path d="M868.719 267.077C868.26 266.548 868.052 265.926 868.096 265.211C868.14 264.496 868.422 263.905 868.943 263.436C869.464 262.967 870.076 262.755 870.778 262.798C871.48 262.841 872.061 263.127 872.521 263.656C872.98 264.185 873.188 264.807 873.144 265.522C873.1 266.236 872.817 266.828 872.297 267.297C871.952 267.607 871.557 267.803 871.113 267.884C870.676 267.972 870.242 267.948 869.811 267.814C869.394 267.68 869.03 267.434 868.719 267.077Z" fill="#737373"/>
<path d="M876.58 275.049C876.136 274.508 875.945 273.881 876.008 273.167C876.072 272.454 876.37 271.871 876.904 271.416C877.437 270.962 878.055 270.766 878.755 270.829C879.456 270.891 880.029 271.193 880.474 271.734C880.919 272.276 881.11 272.903 881.046 273.616C880.983 274.329 880.684 274.913 880.151 275.367C879.797 275.668 879.398 275.853 878.952 275.921C878.512 275.997 878.079 275.962 877.652 275.816C877.238 275.671 876.881 275.415 876.58 275.049Z" fill="#737373"/>
<path d="M883.463 283.883C883.033 283.33 882.86 282.698 882.943 281.987C883.026 281.276 883.34 280.701 883.886 280.261C884.432 279.822 885.054 279.643 885.753 279.724C886.452 279.806 887.016 280.123 887.446 280.676C887.876 281.23 888.05 281.862 887.967 282.573C887.884 283.284 887.57 283.859 887.024 284.299C886.663 284.59 886.258 284.763 885.81 284.82C885.368 284.884 884.936 284.837 884.514 284.679C884.104 284.522 883.754 284.257 883.463 283.883Z" fill="#737373"/>
<path d="M890.106 292.903C889.691 292.339 889.535 291.702 889.637 290.994C889.74 290.285 890.07 289.719 890.627 289.294C891.185 288.87 891.812 288.708 892.508 288.809C893.205 288.909 893.761 289.242 894.176 289.807C894.59 290.372 894.747 291.008 894.644 291.717C894.542 292.425 894.212 292.991 893.654 293.416C893.285 293.697 892.876 293.859 892.427 293.904C891.983 293.956 891.552 293.897 891.134 293.727C890.729 293.56 890.386 293.285 890.106 292.903Z" fill="#737373"/>
<path d="M927.387 278.746L888.534 306.66L886.915 304.326L925.768 276.412L927.387 278.746Z" fill="#737373"/>
<path d="M902.652 311.473C902.268 310.887 902.147 310.243 902.288 309.541C902.428 308.84 902.789 308.293 903.369 307.899C903.949 307.506 904.584 307.379 905.275 307.518C905.965 307.656 906.502 308.019 906.885 308.605C907.269 309.191 907.39 309.835 907.249 310.537C907.109 311.239 906.748 311.786 906.168 312.179C905.784 312.439 905.366 312.579 904.915 312.599C904.47 312.626 904.042 312.544 903.634 312.352C903.238 312.163 902.911 311.87 902.652 311.473Z" fill="#737373"/>
<path d="M908.546 321.009C908.179 320.413 908.075 319.766 908.235 319.068C908.395 318.371 908.77 317.834 909.361 317.457C909.951 317.08 910.59 316.97 911.276 317.128C911.963 317.285 912.49 317.662 912.857 318.259C913.225 318.855 913.328 319.502 913.169 320.199C913.009 320.897 912.634 321.434 912.043 321.811C911.652 322.06 911.23 322.189 910.779 322.196C910.332 322.212 909.908 322.118 909.504 321.914C909.114 321.714 908.795 321.412 908.546 321.009Z" fill="#737373"/>
<path d="M914.184 330.703C913.832 330.097 913.746 329.447 913.925 328.755C914.104 328.062 914.494 327.536 915.095 327.175C915.695 326.814 916.337 326.722 917.019 326.898C917.701 327.074 918.217 327.466 918.568 328.072C918.92 328.678 919.006 329.328 918.827 330.02C918.648 330.713 918.259 331.239 917.658 331.6C917.26 331.839 916.835 331.956 916.383 331.95C915.937 331.954 915.514 331.848 915.117 331.634C914.732 331.423 914.421 331.113 914.184 330.703Z" fill="#737373"/>
<path d="M919.559 340.547C919.225 339.932 919.156 339.28 919.354 338.593C919.551 337.906 919.955 337.39 920.566 337.046C921.176 336.702 921.82 336.628 922.497 336.823C923.174 337.017 923.68 337.422 924.015 338.038C924.35 338.654 924.418 339.305 924.22 339.992C924.023 340.68 923.619 341.195 923.008 341.539C922.604 341.767 922.176 341.872 921.725 341.854C921.278 341.845 920.859 341.728 920.467 341.503C920.088 341.282 919.785 340.963 919.559 340.547Z" fill="#737373"/>
<path d="M958.462 331.635L916.146 353.952L914.857 351.42L957.173 329.103L958.462 331.635Z" fill="#737373"/>
<path d="M929.512 360.658C929.211 360.025 929.178 359.371 929.412 358.696C929.647 358.021 930.079 357.528 930.707 357.219C931.336 356.909 931.983 356.87 932.649 357.101C933.315 357.333 933.798 357.765 934.099 358.398C934.4 359.031 934.433 359.685 934.198 360.36C933.964 361.035 933.532 361.527 932.903 361.837C932.487 362.042 932.054 362.123 931.604 362.081C931.158 362.047 930.746 361.908 930.367 361.662C930 361.42 929.715 361.085 929.512 360.658Z" fill="#737373"/>
<path d="M934.082 370.909C933.798 370.268 933.783 369.614 934.036 368.946C934.288 368.277 934.733 367.797 935.37 367.505C936.007 367.213 936.655 367.192 937.315 367.441C937.974 367.691 938.446 368.136 938.73 368.777C939.013 369.418 939.029 370.072 938.776 370.74C938.523 371.408 938.078 371.889 937.441 372.181C937.019 372.374 936.584 372.444 936.135 372.389C935.69 372.343 935.282 372.192 934.909 371.936C934.549 371.684 934.273 371.342 934.082 370.909Z" fill="#737373"/>
<path d="M938.377 381.281C938.111 380.633 938.113 379.978 938.384 379.317C938.655 378.657 939.113 378.189 939.758 377.915C940.403 377.64 941.051 377.637 941.704 377.904C942.356 378.172 942.816 378.63 943.082 379.278C943.349 379.926 943.346 380.581 943.075 381.242C942.804 381.902 942.346 382.37 941.701 382.644C941.274 382.826 940.837 382.884 940.39 382.817C939.947 382.759 939.542 382.596 939.177 382.33C938.824 382.068 938.557 381.719 938.377 381.281Z" fill="#737373"/>
<path d="M942.395 391.766C942.146 391.111 942.166 390.457 942.455 389.804C942.744 389.151 943.214 388.696 943.866 388.44C944.518 388.183 945.167 388.198 945.812 388.483C946.457 388.768 946.904 389.239 947.153 389.894C947.402 390.549 947.382 391.203 947.093 391.856C946.804 392.509 946.334 392.964 945.681 393.22C945.25 393.39 944.811 393.435 944.366 393.356C943.924 393.286 943.524 393.112 943.166 392.836C942.82 392.565 942.563 392.208 942.395 391.766Z" fill="#737373"/>
<path d="M982.201 388.29L937.213 404.564L936.277 401.882L981.265 385.608L982.201 388.29Z" fill="#737373"/>
<path d="M949.585 413.044C949.372 412.376 949.427 411.725 949.751 411.089C950.075 410.453 950.57 410.025 951.235 409.805C951.9 409.585 952.548 409.636 953.177 409.956C953.806 410.277 954.227 410.771 954.44 411.438C954.653 412.106 954.598 412.757 954.274 413.393C953.95 414.029 953.456 414.457 952.79 414.677C952.35 414.822 951.909 414.844 951.468 414.74C951.031 414.645 950.64 414.45 950.298 414.155C949.967 413.865 949.729 413.495 949.585 413.044Z" fill="#737373"/>
<path d="M953.711 423.534C953.516 422.861 953.589 422.211 953.93 421.585C954.271 420.958 954.777 420.544 955.448 420.343C956.12 420.141 956.765 420.21 957.386 420.547C958.006 420.885 958.414 421.39 958.609 422.064C958.804 422.737 958.731 423.386 958.39 424.013C958.049 424.639 957.543 425.053 956.872 425.255C956.428 425.388 955.986 425.397 955.549 425.281C955.114 425.174 954.729 424.969 954.394 424.664C954.071 424.365 953.843 423.989 953.711 423.534Z" fill="#737373"/>
<path d="M956.6 434.42C956.423 433.742 956.514 433.095 956.872 432.478C957.229 431.862 957.747 431.462 958.423 431.279C959.1 431.096 959.743 431.182 960.355 431.537C960.966 431.892 961.36 432.408 961.537 433.086C961.714 433.764 961.623 434.412 961.265 435.028C960.908 435.645 960.39 436.044 959.714 436.227C959.266 436.348 958.825 436.345 958.39 436.217C957.958 436.098 957.579 435.882 957.252 435.568C956.937 435.261 956.72 434.878 956.6 434.42Z" fill="#737373"/>
<path d="M959.199 445.381C959.041 444.698 959.148 444.054 959.523 443.447C959.897 442.841 960.425 442.456 961.106 442.292C961.788 442.128 962.429 442.232 963.031 442.603C963.632 442.975 964.012 443.502 964.171 444.184C964.329 444.867 964.221 445.511 963.847 446.118C963.473 446.724 962.945 447.109 962.264 447.273C961.812 447.382 961.371 447.366 960.94 447.226C960.511 447.096 960.138 446.869 959.82 446.546C959.513 446.23 959.306 445.842 959.199 445.381Z" fill="#737373"/>
<path d="M999.17 447.46L952.365 457.36L951.796 454.576L998.602 444.677L999.17 447.46Z" fill="#737373"/>
<path d="M963.52 467.493C963.399 466.803 963.541 466.166 963.948 465.581C964.354 464.997 964.902 464.642 965.592 464.516C966.281 464.39 966.916 464.529 967.497 464.933C968.078 465.337 968.429 465.884 968.551 466.574C968.673 467.264 968.53 467.902 968.123 468.486C967.717 469.071 967.169 469.426 966.48 469.552C966.023 469.635 965.583 469.595 965.16 469.432C964.739 469.278 964.378 469.031 964.078 468.691C963.788 468.359 963.603 467.959 963.52 467.493Z" fill="#737373"/>
<path d="M965.241 478.629C965.137 477.936 965.297 477.303 965.719 476.73C966.141 476.157 966.699 475.817 967.391 475.711C968.084 475.604 968.715 475.761 969.285 476.181C969.855 476.601 970.191 477.157 970.294 477.85C970.398 478.543 970.238 479.176 969.816 479.749C969.394 480.322 968.836 480.662 968.144 480.769C967.685 480.839 967.246 480.787 966.828 480.612C966.411 480.446 966.057 480.19 965.766 479.842C965.485 479.502 965.31 479.097 965.241 478.629Z" fill="#737373"/>
<path d="M966.665 489.807C966.58 489.112 966.757 488.483 967.194 487.923C967.632 487.362 968.198 487.038 968.893 486.95C969.589 486.863 970.216 487.037 970.774 487.472C971.332 487.908 971.654 488.474 971.738 489.169C971.823 489.865 971.646 490.493 971.209 491.054C970.771 491.615 970.205 491.939 969.51 492.027C969.049 492.084 968.612 492.02 968.198 491.834C967.786 491.656 967.439 491.39 967.157 491.034C966.886 490.686 966.722 490.277 966.665 489.807Z" fill="#737373"/>
<path d="M967.792 501.02C967.726 500.323 967.92 499.699 968.372 499.151C968.824 498.603 969.399 498.294 970.097 498.226C970.794 498.158 971.416 498.35 971.963 498.801C972.51 499.251 972.816 499.826 972.881 500.523C972.947 501.221 972.754 501.844 972.301 502.393C971.849 502.941 971.274 503.249 970.577 503.317C970.115 503.362 969.68 503.286 969.271 503.088C968.863 502.899 968.523 502.623 968.251 502.26C967.99 501.905 967.836 501.492 967.792 501.02Z" fill="#737373"/>
<path d="M1007.16 508.612L959.432 511.935L959.242 509.1L1006.97 505.778L1007.16 508.612Z" fill="#737373"/>
<path d="M969.155 523.517C969.127 522.817 969.353 522.205 969.834 521.683C970.316 521.161 970.906 520.885 971.606 520.856C972.307 520.826 972.918 521.052 973.439 521.533C973.961 522.013 974.236 522.604 974.264 523.304C974.292 524.004 974.066 524.615 973.584 525.138C973.103 525.66 972.512 525.936 971.812 525.965C971.349 525.984 970.918 525.884 970.521 525.664C970.124 525.453 969.799 525.158 969.547 524.78C969.305 524.411 969.174 523.99 969.155 523.517Z" fill="#737373"/>
<path d="M969.39 534.785C969.38 534.084 969.623 533.479 970.118 532.97C970.613 532.462 971.211 532.202 971.912 532.193C972.612 532.183 973.217 532.425 973.726 532.92C974.234 533.415 974.493 534.013 974.503 534.714C974.512 535.414 974.269 536.019 973.774 536.528C973.279 537.037 972.681 537.296 971.98 537.306C971.516 537.312 971.089 537.2 970.697 536.969C970.306 536.747 969.989 536.443 969.748 536.058C969.515 535.683 969.396 535.258 969.39 534.785Z" fill="#737373"/>
<path d="M969.326 546.055C969.335 545.354 969.594 544.756 970.103 544.262C970.611 543.767 971.216 543.524 971.917 543.534C972.617 543.544 973.215 543.803 973.711 544.312C974.206 544.821 974.448 545.425 974.439 546.126C974.43 546.827 974.171 547.424 973.662 547.919C973.154 548.414 972.549 548.657 971.848 548.647C971.384 548.641 970.96 548.516 970.575 548.274C970.189 548.042 969.881 547.729 969.65 547.338C969.427 546.956 969.32 546.528 969.326 546.055Z" fill="#737373"/>
<path d="M968.964 557.319C968.992 556.619 969.267 556.029 969.789 555.548C970.31 555.067 970.921 554.842 971.621 554.871C972.322 554.9 972.912 555.176 973.394 555.698C973.875 556.221 974.101 556.832 974.073 557.532C974.045 558.233 973.77 558.823 973.248 559.303C972.727 559.784 972.116 560.01 971.416 559.981C970.952 559.961 970.531 559.825 970.153 559.572C969.774 559.329 969.474 559.009 969.253 558.611C969.041 558.223 968.945 557.792 968.964 557.319Z" fill="#737373"/>
<path d="M1006.97 570.297L959.243 566.974L959.433 564.14L1007.16 567.463L1006.97 570.297Z" fill="#737373"/>
<path d="M967.347 579.798C967.413 579.101 967.719 578.526 968.265 578.075C968.812 577.624 969.434 577.433 970.131 577.501C970.829 577.569 971.404 577.877 971.856 578.426C972.309 578.974 972.502 579.597 972.436 580.295C972.371 580.993 972.064 581.567 971.518 582.018C970.971 582.469 970.349 582.66 969.652 582.592C969.19 582.547 968.777 582.388 968.413 582.114C968.048 581.85 967.765 581.514 967.566 581.104C967.376 580.705 967.302 580.27 967.347 579.798Z" fill="#737373"/>
<path d="M966.093 590.997C966.177 590.301 966.498 589.736 967.057 589.3C967.615 588.864 968.242 588.69 968.937 588.778C969.633 588.865 970.199 589.189 970.637 589.75C971.074 590.311 971.251 590.939 971.166 591.635C971.082 592.331 970.76 592.896 970.202 593.332C969.643 593.768 969.017 593.942 968.321 593.854C967.861 593.796 967.452 593.626 967.096 593.342C966.738 593.068 966.465 592.724 966.277 592.309C966.097 591.904 966.035 591.467 966.093 590.997Z" fill="#737373"/>
<path d="M964.542 602.158C964.645 601.464 964.982 600.908 965.551 600.488C966.121 600.068 966.753 599.911 967.445 600.018C968.138 600.125 968.695 600.464 969.117 601.037C969.54 601.61 969.699 602.243 969.596 602.936C969.493 603.629 969.156 604.186 968.587 604.606C968.017 605.026 967.385 605.183 966.693 605.076C966.234 605.005 965.83 604.823 965.482 604.53C965.131 604.246 964.868 603.894 964.691 603.474C964.522 603.065 964.472 602.626 964.542 602.158Z" fill="#737373"/>
<path d="M962.697 613.272C962.819 612.582 963.17 612.035 963.751 611.631C964.332 611.227 964.967 611.088 965.656 611.214C966.345 611.34 966.893 611.695 967.3 612.279C967.707 612.864 967.849 613.501 967.727 614.191C967.606 614.881 967.254 615.428 966.673 615.832C966.093 616.237 965.457 616.376 964.768 616.25C964.312 616.166 963.913 615.973 963.572 615.67C963.23 615.377 962.976 615.017 962.81 614.593C962.652 614.179 962.615 613.739 962.697 613.272Z" fill="#737373"/>
<path d="M998.605 631.399L951.8 621.499L952.368 618.716L999.174 628.615L998.605 631.399Z" fill="#737373"/>
<path d="M958.126 635.332C958.284 634.649 958.664 634.122 959.266 633.751C959.868 633.379 960.509 633.276 961.19 633.44C961.872 633.604 962.399 633.989 962.774 634.595C963.148 635.201 963.256 635.846 963.097 636.529C962.939 637.211 962.559 637.738 961.957 638.11C961.356 638.481 960.714 638.585 960.033 638.421C959.582 638.312 959.194 638.097 958.87 637.776C958.544 637.463 958.31 637.091 958.168 636.657C958.033 636.235 958.019 635.793 958.126 635.332Z" fill="#737373"/>
<path d="M955.403 646.261C955.58 645.583 955.974 645.066 956.585 644.712C957.197 644.357 957.84 644.271 958.517 644.454C959.193 644.637 959.711 645.036 960.068 645.653C960.426 646.27 960.517 646.917 960.34 647.595C960.163 648.273 959.769 648.789 959.158 649.144C958.547 649.499 957.903 649.585 957.226 649.402C956.778 649.281 956.397 649.055 956.082 648.725C955.764 648.404 955.54 648.024 955.41 647.587C955.286 647.161 955.284 646.719 955.403 646.261Z" fill="#737373"/>
<path d="M952.392 657.112C952.587 656.439 952.994 655.934 953.615 655.596C954.235 655.258 954.881 655.19 955.552 655.392C956.223 655.593 956.729 656.007 957.07 656.633C957.411 657.26 957.484 657.91 957.289 658.583C957.094 659.256 956.687 659.761 956.066 660.099C955.446 660.437 954.8 660.505 954.129 660.303C953.684 660.17 953.309 659.934 953.003 659.594C952.695 659.265 952.481 658.879 952.362 658.438C952.25 658.009 952.26 657.567 952.392 657.112Z" fill="#737373"/>
<path d="M948.144 667.564C948.357 666.896 948.778 666.402 949.407 666.082C950.036 665.761 950.683 665.711 951.349 665.931C952.014 666.151 952.509 666.579 952.832 667.215C953.156 667.85 953.212 668.502 952.999 669.169C952.786 669.837 952.364 670.331 951.735 670.652C951.106 670.972 950.459 671.022 949.794 670.802C949.353 670.657 948.984 670.41 948.688 670.063C948.388 669.724 948.185 669.333 948.078 668.889C947.978 668.457 948 668.015 948.144 667.564Z" fill="#737373"/>
<path d="M981.27 690.468L936.282 674.194L937.219 671.512L982.207 687.786L981.27 690.468Z" fill="#737373"/>
<path d="M940.713 688.755C940.961 688.1 941.408 687.63 942.054 687.344C942.699 687.059 943.347 687.044 944 687.301C944.652 687.557 945.122 688.012 945.411 688.665C945.7 689.318 945.72 689.972 945.471 690.627C945.223 691.282 944.776 691.752 944.13 692.038C943.485 692.323 942.836 692.338 942.184 692.081C941.752 691.912 941.398 691.645 941.121 691.281C940.84 690.927 940.658 690.525 940.576 690.075C940.499 689.638 940.544 689.198 940.713 688.755Z" fill="#737373"/>
<path d="M936.577 699.192C936.844 698.543 937.303 698.086 937.956 697.818C938.608 697.55 939.257 697.554 939.902 697.828C940.546 698.103 941.004 698.57 941.275 699.231C941.546 699.892 941.549 700.546 941.282 701.194C941.016 701.843 940.557 702.301 939.904 702.568C939.251 702.836 938.603 702.832 937.958 702.558C937.531 702.376 937.184 702.1 936.917 701.729C936.646 701.367 936.475 700.959 936.405 700.508C936.34 700.068 936.397 699.63 936.577 699.192Z" fill="#737373"/>
<path d="M932.165 709.512C932.449 708.871 932.921 708.426 933.58 708.176C934.239 707.926 934.888 707.948 935.525 708.24C936.161 708.532 936.606 709.012 936.859 709.68C937.112 710.349 937.097 711.003 936.813 711.644C936.53 712.285 936.058 712.73 935.399 712.979C934.739 713.229 934.091 713.208 933.454 712.916C933.032 712.722 932.693 712.436 932.436 712.058C932.175 711.688 932.016 711.277 931.958 710.823C931.904 710.382 931.974 709.945 932.165 709.512Z" fill="#737373"/>
<path d="M927.48 719.708C927.78 719.075 928.264 718.643 928.93 718.412C929.595 718.18 930.243 718.219 930.871 718.529C931.5 718.839 931.931 719.331 932.166 720.006C932.401 720.681 932.368 721.335 932.067 721.968C931.766 722.601 931.283 723.033 930.617 723.264C929.951 723.496 929.304 723.457 928.675 723.147C928.259 722.942 927.927 722.647 927.681 722.262C927.43 721.885 927.282 721.469 927.236 721.013C927.195 720.571 927.276 720.136 927.48 719.708Z" fill="#737373"/>
<path d="M957.182 746.973L914.865 724.656L916.154 722.124L958.471 744.442L957.182 746.973Z" fill="#737373"/>
<path d="M917.301 739.699C917.636 739.084 918.142 738.679 918.819 738.484C919.496 738.289 920.139 738.364 920.75 738.708C921.361 739.052 921.765 739.567 921.962 740.254C922.16 740.942 922.091 741.593 921.757 742.209C921.422 742.824 920.916 743.229 920.239 743.424C919.562 743.619 918.918 743.544 918.308 743.2C917.903 742.973 917.589 742.66 917.363 742.261C917.134 741.871 917.008 741.447 916.987 740.99C916.97 740.545 917.075 740.115 917.301 739.699Z" fill="#737373"/>
<path d="M911.815 749.479C912.166 748.873 912.683 748.482 913.365 748.306C914.046 748.13 914.688 748.222 915.289 748.582C915.89 748.943 916.279 749.469 916.458 750.162C916.637 750.855 916.551 751.504 916.2 752.11C915.848 752.717 915.332 753.108 914.65 753.284C913.968 753.46 913.326 753.368 912.726 753.007C912.328 752.768 912.022 752.447 911.807 752.042C911.588 751.646 911.475 751.219 911.466 750.761C911.461 750.316 911.577 749.889 911.815 749.479Z" fill="#737373"/>
<path d="M906.069 759.106C906.436 758.509 906.963 758.132 907.65 757.975C908.336 757.817 908.974 757.927 909.565 758.304C910.156 758.681 910.531 759.218 910.691 759.915C910.851 760.613 910.747 761.26 910.38 761.856C910.012 762.453 909.485 762.83 908.799 762.987C908.112 763.145 907.474 763.035 906.883 762.658C906.492 762.408 906.195 762.078 905.992 761.668C905.784 761.265 905.682 760.835 905.686 760.377C905.693 759.933 905.82 759.509 906.069 759.106Z" fill="#737373"/>
<path d="M900.067 768.571C900.45 767.985 900.987 767.622 901.678 767.484C902.368 767.345 903.003 767.472 903.583 767.866C904.163 768.259 904.524 768.806 904.664 769.508C904.805 770.209 904.684 770.853 904.3 771.44C903.917 772.026 903.38 772.388 902.69 772.527C901.999 772.665 901.364 772.538 900.784 772.145C900.4 771.885 900.112 771.547 899.92 771.131C899.723 770.723 899.633 770.29 899.649 769.832C899.668 769.388 899.808 768.967 900.067 768.571Z" fill="#737373"/>
<path d="M925.778 799.666L886.925 771.752L888.544 769.418L927.397 797.332L925.778 799.666Z" fill="#737373"/>
<path d="M887.313 786.992C887.728 786.427 888.284 786.094 888.98 785.994C889.677 785.893 890.304 786.055 890.861 786.479C891.419 786.904 891.749 787.47 891.851 788.178C891.954 788.887 891.797 789.523 891.382 790.088C890.968 790.653 890.412 790.986 889.715 791.086C889.019 791.187 888.392 791.025 887.834 790.601C887.465 790.32 887.196 789.966 887.027 789.54C886.853 789.122 886.786 788.685 886.828 788.228C886.871 787.785 887.033 787.373 887.313 786.992Z" fill="#737373"/>
<path d="M880.569 795.932C880.999 795.379 881.564 795.062 882.263 794.98C882.962 794.899 883.584 795.078 884.13 795.517C884.676 795.957 884.99 796.532 885.073 797.243C885.156 797.954 884.982 798.586 884.552 799.14C884.122 799.693 883.558 800.01 882.859 800.092C882.16 800.173 881.537 799.994 880.992 799.555C880.63 799.264 880.371 798.903 880.214 798.473C880.051 798.05 879.996 797.611 880.05 797.156C880.106 796.714 880.279 796.306 880.569 795.932Z" fill="#737373"/>
<path d="M873.588 804.685C874.033 804.144 874.606 803.842 875.306 803.779C876.007 803.717 876.624 803.913 877.158 804.367C877.692 804.821 877.99 805.405 878.054 806.118C878.117 806.831 877.926 807.459 877.481 808C877.036 808.541 876.464 808.843 875.763 808.906C875.062 808.968 874.445 808.772 873.911 808.318C873.558 808.017 873.309 807.649 873.163 807.215C873.012 806.787 872.969 806.347 873.036 805.894C873.103 805.454 873.287 805.051 873.588 804.685Z" fill="#737373"/>
<path d="M865.63 812.573C866.089 812.044 866.67 811.758 867.372 811.714C868.074 811.671 868.686 811.884 869.207 812.353C869.728 812.821 870.01 813.413 870.054 814.128C870.098 814.842 869.891 815.464 869.431 815.993C868.971 816.522 868.391 816.808 867.688 816.852C866.986 816.895 866.375 816.682 865.854 816.213C865.509 815.903 865.27 815.529 865.136 815.09C864.997 814.659 864.966 814.217 865.045 813.766C865.124 813.328 865.319 812.93 865.63 812.573Z" fill="#737373"/>
<path d="M886.888 846.871L852.213 813.91L854.134 811.817L888.809 844.778L886.888 846.871Z" fill="#737373"/>
<path d="M850.559 829.035C851.047 828.532 851.643 828.278 852.346 828.273C853.05 828.268 853.649 828.514 854.143 829.01C854.638 829.507 854.887 830.113 854.892 830.829C854.897 831.545 854.656 832.155 854.168 832.658C853.68 833.161 853.085 833.415 852.381 833.42C851.678 833.425 851.079 833.179 850.584 832.682C850.257 832.354 850.038 831.967 849.929 831.522C849.813 831.083 849.807 830.641 849.91 830.194C850.013 829.761 850.23 829.375 850.559 829.035Z" fill="#737373"/>
<path d="M842.696 836.948C843.197 836.458 843.8 836.22 844.503 836.235C845.206 836.249 845.799 836.511 846.279 837.021C846.76 837.531 846.993 838.144 846.978 838.86C846.964 839.576 846.706 840.178 846.205 840.668C845.703 841.158 845.101 841.395 844.398 841.381C843.694 841.367 843.102 841.105 842.621 840.595C842.303 840.257 842.095 839.864 841.998 839.416C841.895 838.975 841.9 838.533 842.016 838.089C842.131 837.659 842.357 837.279 842.696 836.948Z" fill="#737373"/>
<path d="M834.622 844.64C835.136 844.165 835.745 843.944 836.448 843.977C837.15 844.011 837.735 844.289 838.202 844.812C838.668 845.334 838.885 845.953 838.851 846.669C838.816 847.384 838.542 847.979 838.028 848.455C837.513 848.931 836.904 849.152 836.202 849.118C835.499 849.085 834.914 848.807 834.448 848.284C834.139 847.938 833.942 847.539 833.857 847.089C833.765 846.645 833.783 846.203 833.91 845.763C834.037 845.336 834.274 844.962 834.622 844.64Z" fill="#737373"/>
<path d="M826.342 852.107C826.869 851.645 827.484 851.441 828.186 851.493C828.887 851.546 829.464 851.84 829.916 852.376C830.369 852.911 830.568 853.535 830.514 854.249C830.46 854.963 830.17 855.551 829.643 856.013C829.115 856.474 828.501 856.678 827.799 856.626C827.098 856.573 826.521 856.279 826.068 855.744C825.769 855.389 825.583 854.986 825.511 854.533C825.431 854.087 825.461 853.646 825.6 853.209C825.739 852.786 825.986 852.418 826.342 852.107Z" fill="#737373"/>
<path d="M842.744 888.967L812.874 851.597L815.062 849.785L844.932 887.155L842.744 888.967Z" fill="#737373"/>
<path d="M809.191 866.337C809.743 865.905 810.368 865.735 811.065 865.826C811.763 865.917 812.323 866.242 812.746 866.801C813.168 867.36 813.333 867.994 813.241 868.704C813.148 869.414 812.826 869.985 812.274 870.417C811.722 870.849 811.097 871.019 810.4 870.928C809.702 870.837 809.142 870.512 808.719 869.953C808.439 869.583 808.276 869.17 808.228 868.714C808.173 868.264 808.227 867.825 808.39 867.397C808.551 866.982 808.818 866.629 809.191 866.337Z" fill="#737373"/>
<path d="M800.332 873.09C800.896 872.673 801.525 872.52 802.22 872.63C802.915 872.74 803.466 873.08 803.874 873.65C804.281 874.221 804.428 874.859 804.316 875.566C804.204 876.273 803.867 876.835 803.303 877.252C802.74 877.668 802.11 877.822 801.415 877.711C800.72 877.601 800.169 877.261 799.762 876.691C799.492 876.313 799.34 875.896 799.305 875.439C799.262 874.988 799.328 874.551 799.502 874.127C799.675 873.717 799.952 873.371 800.332 873.09Z" fill="#737373"/>
<path d="M791.293 879.594C791.868 879.193 792.501 879.057 793.193 879.186C793.885 879.315 794.427 879.67 794.818 880.251C795.21 880.832 795.34 881.475 795.209 882.178C795.078 882.881 794.725 883.434 794.15 883.835C793.575 884.236 792.942 884.372 792.25 884.243C791.558 884.114 791.016 883.758 790.625 883.177C790.366 882.792 790.225 882.371 790.202 881.914C790.171 881.462 790.249 881.026 790.435 880.608C790.619 880.203 790.905 879.865 791.293 879.594Z" fill="#737373"/>
<path d="M782.08 885.843C782.666 885.458 783.303 885.34 783.991 885.488C784.679 885.636 785.211 886.005 785.587 886.597C785.963 887.189 786.075 887.834 785.925 888.534C785.775 889.233 785.407 889.776 784.821 890.161C784.236 890.546 783.599 890.664 782.91 890.516C782.222 890.368 781.69 889.999 781.315 889.407C781.066 889.015 780.936 888.59 780.926 888.133C780.908 887.68 780.998 887.247 781.195 886.834C781.39 886.434 781.685 886.104 782.08 885.843Z" fill="#737373"/>
<path d="M793.339 924.56L768.801 883.491L771.217 881.996L795.754 923.065L793.339 924.56Z" fill="#737373"/>
<path d="M763.161 897.562C763.767 897.209 764.409 897.126 765.089 897.311C765.769 897.497 766.28 897.895 766.623 898.506C766.966 899.117 767.043 899.768 766.855 900.457C766.667 901.147 766.27 901.669 765.664 902.021C765.058 902.373 764.415 902.456 763.736 902.271C763.056 902.086 762.545 901.687 762.202 901.076C761.975 900.672 761.869 900.241 761.883 899.783C761.89 899.33 762.003 898.903 762.223 898.501C762.439 898.113 762.752 897.8 763.161 897.562Z" fill="#737373"/>
<path d="M753.003 902.135C753.618 901.8 754.263 901.734 754.938 901.938C755.612 902.142 756.112 902.554 756.439 903.174C756.765 903.794 756.825 904.446 756.618 905.131C756.411 905.815 756 906.325 755.384 906.661C754.769 906.996 754.124 907.062 753.45 906.858C752.776 906.654 752.275 906.242 751.949 905.622C751.733 905.211 751.638 904.777 751.665 904.32C751.684 903.868 751.809 903.444 752.039 903.049C752.266 902.666 752.587 902.362 753.003 902.135Z" fill="#737373"/>
<path d="M743.189 907.309C743.813 906.991 744.46 906.943 745.129 907.165C745.797 907.387 746.287 907.813 746.596 908.441C746.905 909.07 746.947 909.724 746.722 910.402C746.496 911.08 746.072 911.579 745.447 911.897C744.823 912.215 744.176 912.263 743.508 912.041C742.839 911.819 742.35 911.393 742.04 910.764C741.835 910.348 741.753 909.912 741.792 909.456C741.823 909.004 741.959 908.584 742.201 908.195C742.438 907.819 742.767 907.524 743.189 907.309Z" fill="#737373"/>
<path d="M733.238 912.206C733.871 911.905 734.518 911.875 735.181 912.116C735.844 912.356 736.321 912.795 736.613 913.432C736.906 914.069 736.93 914.723 736.686 915.395C736.442 916.066 736.004 916.553 735.371 916.854C734.738 917.155 734.091 917.185 733.428 916.944C732.765 916.704 732.288 916.265 731.995 915.628C731.802 915.206 731.731 914.768 731.783 914.314C731.826 913.863 731.974 913.447 732.225 913.065C732.473 912.696 732.81 912.41 733.238 912.206Z" fill="#737373"/>
<path d="M739.192 952.036L720.414 908.035L723.012 906.886L741.79 950.888L739.192 952.036Z" fill="#737373"/>
<path d="M712.952 921.156C713.6 920.891 714.249 920.896 714.898 921.173C715.547 921.449 716 921.913 716.257 922.565C716.515 923.217 716.504 923.871 716.224 924.528C715.944 925.185 715.48 925.646 714.831 925.912C714.183 926.177 713.534 926.172 712.885 925.895C712.236 925.619 711.783 925.154 711.525 924.503C711.355 924.071 711.307 923.63 711.384 923.179C711.451 922.732 711.621 922.325 711.894 921.957C712.161 921.603 712.513 921.335 712.952 921.156Z" fill="#737373"/>
<path d="M702.632 925.201C703.288 924.954 703.936 924.977 704.578 925.272C705.219 925.566 705.66 926.042 705.899 926.701C706.139 927.359 706.11 928.013 705.813 928.661C705.515 929.31 705.038 929.758 704.383 930.006C703.727 930.253 703.079 930.23 702.437 929.936C701.796 929.641 701.355 929.165 701.115 928.507C700.956 928.071 700.921 927.628 701.01 927.18C701.09 926.735 701.271 926.333 701.553 925.973C701.829 925.626 702.189 925.368 702.632 925.201Z" fill="#737373"/>
<path d="M692.206 928.955C692.868 928.726 693.516 928.767 694.149 929.079C694.782 929.391 695.21 929.879 695.432 930.544C695.654 931.209 695.608 931.861 695.292 932.501C694.977 933.141 694.488 933.576 693.826 933.805C693.164 934.035 692.516 933.993 691.883 933.681C691.25 933.37 690.822 932.881 690.6 932.217C690.453 931.777 690.43 931.334 690.53 930.888C690.622 930.445 690.814 930.048 691.106 929.697C691.392 929.357 691.758 929.11 692.206 928.955Z" fill="#737373"/>
<path d="M681.68 932.415C682.349 932.205 682.995 932.264 683.62 932.593C684.245 932.922 684.659 933.422 684.863 934.092C685.068 934.763 685.003 935.413 684.671 936.045C684.338 936.676 683.838 937.097 683.17 937.307C682.501 937.518 681.855 937.459 681.23 937.13C680.605 936.801 680.191 936.301 679.987 935.631C679.851 935.187 679.84 934.743 679.953 934.301C680.057 933.861 680.259 933.469 680.56 933.126C680.855 932.795 681.229 932.558 681.68 932.415Z" fill="#737373"/>
<path d="M682.222 972.631L669.524 926.506L672.256 925.727L684.954 971.852L682.222 972.631Z" fill="#737373"/>
<path d="M660.364 938.442C661.043 938.269 661.686 938.364 662.292 938.727C662.899 939.09 663.286 939.612 663.454 940.292C663.621 940.972 663.522 941.618 663.156 942.23C662.79 942.841 662.267 943.234 661.588 943.407C660.909 943.581 660.267 943.486 659.66 943.123C659.054 942.76 658.667 942.238 658.499 941.557C658.388 941.107 658.401 940.664 658.537 940.228C658.664 939.795 658.888 939.416 659.207 939.09C659.52 938.775 659.905 938.559 660.364 938.442Z" fill="#737373"/>
<path d="M649.59 941.004C650.274 940.85 650.914 940.962 651.511 941.342C652.107 941.722 652.48 942.254 652.629 942.938C652.779 943.623 652.662 944.266 652.28 944.867C651.897 945.468 651.364 945.846 650.681 946C649.997 946.155 649.357 946.042 648.761 945.662C648.164 945.283 647.791 944.75 647.642 944.066C647.543 943.612 647.567 943.17 647.715 942.739C647.854 942.309 648.088 941.936 648.416 941.619C648.737 941.313 649.129 941.108 649.59 941.004Z" fill="#737373"/>
<path d="M638.75 943.262C639.438 943.126 640.075 943.256 640.661 943.652C641.247 944.048 641.606 944.591 641.736 945.279C641.867 945.967 641.734 946.607 641.335 947.197C640.936 947.787 640.393 948.15 639.706 948.285C639.018 948.421 638.381 948.29 637.795 947.894C637.209 947.498 636.85 946.956 636.719 946.268C636.633 945.812 636.669 945.37 636.829 944.943C636.979 944.518 637.223 944.151 637.56 943.844C637.889 943.547 638.286 943.353 638.75 943.262Z" fill="#737373"/>
<path d="M627.852 945.213C628.543 945.097 629.176 945.245 629.751 945.657C630.327 946.069 630.671 946.621 630.783 947.313C630.895 948.004 630.744 948.64 630.33 949.218C629.916 949.797 629.363 950.145 628.672 950.261C627.981 950.377 627.348 950.229 626.772 949.817C626.197 949.405 625.853 948.853 625.74 948.162C625.666 947.704 625.714 947.263 625.886 946.841C626.047 946.42 626.301 946.06 626.646 945.762C626.983 945.475 627.385 945.292 627.852 945.213Z" fill="#737373"/>
<path d="M622.995 985.075L616.592 937.665L619.406 937.271L625.808 984.681L622.995 985.075Z" fill="#737373"/>
<path d="M605.915 948.193C606.611 948.115 607.236 948.298 607.788 948.741C608.341 949.185 608.655 949.755 608.73 950.451C608.805 951.148 608.62 951.774 608.175 952.329C607.73 952.883 607.159 953.2 606.463 953.277C605.766 953.355 605.142 953.172 604.589 952.729C604.037 952.286 603.723 951.716 603.648 951.019C603.598 950.558 603.67 950.121 603.864 949.709C604.048 949.297 604.32 948.952 604.681 948.674C605.033 948.406 605.444 948.246 605.915 948.193Z" fill="#737373"/>
<path d="M594.894 949.218C595.592 949.16 596.211 949.36 596.752 949.818C597.292 950.277 597.591 950.855 597.647 951.554C597.704 952.252 597.502 952.873 597.042 953.415C596.582 953.957 596.003 954.257 595.305 954.315C594.607 954.374 593.987 954.174 593.447 953.715C592.906 953.257 592.608 952.678 592.551 951.98C592.514 951.517 592.598 951.083 592.802 950.676C592.998 950.27 593.279 949.933 593.647 949.665C594.006 949.406 594.422 949.258 594.894 949.218Z" fill="#737373"/>
<path d="M583.848 949.933C584.547 949.894 585.161 950.111 585.689 950.584C586.217 951.058 586.5 951.644 586.538 952.344C586.575 953.044 586.357 953.658 585.883 954.187C585.409 954.716 584.822 955 584.122 955.039C583.422 955.078 582.809 954.861 582.281 954.388C581.752 953.914 581.47 953.328 581.432 952.628C581.407 952.165 581.502 951.733 581.718 951.332C581.924 950.931 582.215 950.602 582.59 950.344C582.956 950.096 583.375 949.959 583.848 949.933Z" fill="#737373"/>
<path d="M572.787 950.336C573.487 950.316 574.095 950.55 574.61 951.038C575.126 951.526 575.393 952.12 575.411 952.821C575.43 953.521 575.195 954.129 574.707 954.645C574.219 955.16 573.625 955.428 572.924 955.447C572.224 955.467 571.616 955.233 571.101 954.745C570.586 954.257 570.319 953.663 570.3 952.963C570.287 952.499 570.394 952.07 570.62 951.675C570.837 951.28 571.136 950.959 571.518 950.712C571.891 950.474 572.314 950.349 572.787 950.336Z" fill="#737373"/>
</g>
<defs>
<filter id="filter0_d_133_565" x="116.944" y="88.5341" width="894.215" height="906.932" filterUnits="userSpaceOnUse" color-interpolation-filters="sRGB">
<feFlood flood-opacity="0" result="BackgroundImageFix"/>
<feColorMatrix in="SourceAlpha" type="matrix" values="0 0 0 0 0 0 0 0 0 0 0 0 0 0 0 0 0 0 127 0" result="hardAlpha"/>
<feOffset dy="4"/>
<feGaussianBlur stdDeviation="2"/>
<feComposite in2="hardAlpha" operator="out"/>
<feColorMatrix type="matrix" values="0 0 0 0 0 0 0 0 0 0 0 0 0 0 0 0 0 0 0.25 0"/>
<feBlend mode="normal" in2="BackgroundImageFix" result="effect1_dropShadow_133_565"/>
<feBlend mode="normal" in="SourceGraphic" in2="effect1_dropShadow_133_565" result="shape"/>
</filter>
</defs>
</svg>
