<svg width="1129" height="1149" viewBox="0 0 1129 1149" fill="none" xmlns="http://www.w3.org/2000/svg">
<path d="M562.589 1023.47V975.625H565.43V1023.47H562.589Z" fill="#737373"/>
<path d="M552.654 986.206C553.355 986.225 553.949 986.493 554.437 987.009C554.925 987.524 555.16 988.132 555.141 988.833C555.123 989.533 554.856 990.128 554.34 990.615C553.825 991.103 553.217 991.337 552.517 991.318C551.816 991.298 551.222 991.031 550.734 990.515C550.246 989.999 550.011 989.391 550.03 988.691C550.042 988.227 550.172 987.804 550.419 987.423C550.657 987.041 550.973 986.737 551.367 986.511C551.752 986.295 552.181 986.193 552.654 986.206Z" fill="#737373"/>
<path d="M541.598 985.673C542.298 985.712 542.885 985.996 543.359 986.525C543.833 987.054 544.052 987.669 544.014 988.369C543.976 989.068 543.694 989.655 543.165 990.128C542.637 990.601 542.024 990.819 541.324 990.78C540.624 990.741 540.037 990.457 539.563 989.928C539.089 989.399 538.871 988.784 538.908 988.084C538.933 987.621 539.074 987.202 539.331 986.828C539.579 986.452 539.903 986.158 540.304 985.943C540.694 985.737 541.126 985.647 541.598 985.673Z" fill="#737373"/>
<path d="M530.562 984.83C531.26 984.888 531.839 985.188 532.299 985.73C532.759 986.272 532.961 986.893 532.904 987.591C532.848 988.29 532.549 988.868 532.009 989.327C531.468 989.785 530.849 989.985 530.151 989.927C529.452 989.868 528.873 989.568 528.414 989.026C527.954 988.484 527.752 987.864 527.808 987.165C527.846 986.703 527.998 986.288 528.265 985.921C528.523 985.552 528.855 985.267 529.261 985.063C529.656 984.868 530.09 984.79 530.562 984.83Z" fill="#737373"/>
<path d="M519.552 983.675C520.249 983.753 520.819 984.069 521.264 984.624C521.709 985.179 521.894 985.804 521.819 986.501C521.744 987.198 521.43 987.768 520.878 988.211C520.325 988.654 519.701 988.837 519.004 988.759C518.308 988.682 517.737 988.365 517.292 987.811C516.847 987.256 516.662 986.63 516.737 985.934C516.787 985.472 516.95 985.062 517.227 984.702C517.495 984.341 517.834 984.065 518.245 983.872C518.646 983.688 519.082 983.623 519.552 983.675Z" fill="#737373"/>
<path d="M502.313 1020.68L508.715 973.273L511.529 973.667L505.127 1021.08L502.313 1020.68Z" fill="#737373"/>
<path d="M497.65 980.439C498.341 980.555 498.894 980.903 499.308 981.481C499.723 982.06 499.874 982.695 499.761 983.387C499.649 984.079 499.305 984.63 498.729 985.042C498.154 985.455 497.521 985.602 496.83 985.486C496.139 985.37 495.586 985.022 495.172 984.444C494.757 983.865 494.606 983.23 494.718 982.538C494.793 982.08 494.978 981.679 495.274 981.335C495.56 980.99 495.914 980.732 496.335 980.563C496.745 980.401 497.183 980.36 497.65 980.439Z" fill="#737373"/>
<path d="M486.774 978.359C487.462 978.495 488.005 978.858 488.403 979.448C488.802 980.038 488.936 980.677 488.805 981.365C488.674 982.054 488.315 982.596 487.729 982.992C487.143 983.388 486.506 983.518 485.819 983.383C485.131 983.247 484.588 982.885 484.189 982.295C483.791 981.705 483.657 981.065 483.788 980.377C483.874 979.921 484.07 979.525 484.375 979.19C484.671 978.852 485.031 978.605 485.456 978.447C485.87 978.297 486.309 978.268 486.774 978.359Z" fill="#737373"/>
<path d="M475.96 975.975C476.643 976.129 477.176 976.507 477.559 977.108C477.941 977.709 478.058 978.352 477.908 979.036C477.759 979.721 477.386 980.253 476.79 980.633C476.193 981.013 475.553 981.125 474.869 980.971C474.186 980.816 473.653 980.438 473.27 979.837C472.888 979.236 472.771 978.594 472.921 977.909C473.02 977.456 473.226 977.065 473.54 976.738C473.844 976.409 474.211 976.172 474.64 976.026C475.058 975.887 475.498 975.87 475.96 975.975Z" fill="#737373"/>
<path d="M465.216 973.287C465.895 973.46 466.417 973.853 466.783 974.464C467.149 975.076 467.249 975.722 467.081 976.402C466.913 977.082 466.526 977.604 465.92 977.967C465.313 978.33 464.67 978.425 463.991 978.252C463.312 978.078 462.79 977.686 462.424 977.074C462.058 976.463 461.958 975.817 462.126 975.137C462.237 974.686 462.454 974.302 462.776 973.983C463.089 973.662 463.462 973.435 463.895 973.301C464.317 973.174 464.757 973.17 465.216 973.287Z" fill="#737373"/>
<path d="M443.168 1007.86L455.865 961.731L458.597 962.511L445.9 1008.64L443.168 1007.86Z" fill="#737373"/>
<path d="M443.968 967.01C444.636 967.221 445.137 967.642 445.469 968.273C445.802 968.904 445.866 969.555 445.662 970.225C445.458 970.896 445.043 971.395 444.418 971.725C443.794 972.054 443.147 972.113 442.479 971.902C441.81 971.691 441.31 971.27 440.978 970.639C440.645 970.008 440.581 969.357 440.785 968.687C440.92 968.243 441.157 967.871 441.496 967.571C441.826 967.268 442.21 967.061 442.65 966.952C443.077 966.848 443.517 966.868 443.968 967.01Z" fill="#737373"/>
<path d="M433.482 963.427C434.144 963.656 434.633 964.091 434.948 964.731C435.264 965.371 435.31 966.023 435.088 966.688C434.866 967.353 434.438 967.841 433.805 968.153C433.172 968.465 432.524 968.506 431.862 968.277C431.199 968.048 430.711 967.613 430.395 966.973C430.08 966.332 430.034 965.68 430.256 965.015C430.403 964.575 430.65 964.21 430.997 963.919C431.334 963.625 431.724 963.429 432.166 963.332C432.596 963.24 433.035 963.272 433.482 963.427Z" fill="#737373"/>
<path d="M423.099 959.55C423.754 959.798 424.231 960.246 424.529 960.895C424.826 961.544 424.855 962.197 424.615 962.856C424.375 963.514 423.935 963.99 423.293 964.285C422.652 964.579 422.003 964.602 421.348 964.355C420.692 964.108 420.216 963.659 419.918 963.011C419.62 962.362 419.591 961.708 419.831 961.05C419.99 960.614 420.247 960.255 420.601 959.974C420.947 959.689 421.342 959.505 421.786 959.419C422.218 959.339 422.656 959.383 423.099 959.55Z" fill="#737373"/>
<path d="M412.825 955.384C413.473 955.65 413.938 956.111 414.218 956.768C414.498 957.425 414.509 958.079 414.251 958.731C413.994 959.383 413.54 959.847 412.891 960.123C412.242 960.4 411.594 960.405 410.945 960.14C410.297 959.874 409.832 959.413 409.552 958.756C409.272 958.099 409.261 957.445 409.519 956.793C409.689 956.362 409.956 956.01 410.317 955.739C410.67 955.464 411.07 955.29 411.516 955.217C411.95 955.149 412.387 955.205 412.825 955.384Z" fill="#737373"/>
<path d="M386.331 986.895L405.109 942.893L407.707 944.042L388.929 988.043L386.331 986.895Z" fill="#737373"/>
<path d="M392.64 946.197C393.273 946.497 393.711 946.984 393.955 947.655C394.199 948.327 394.174 948.981 393.882 949.618C393.59 950.255 393.112 950.694 392.45 950.934C391.787 951.175 391.139 951.145 390.506 950.844C389.874 950.543 389.435 950.057 389.191 949.385C388.947 948.713 388.972 948.059 389.264 947.422C389.458 947 389.742 946.664 390.118 946.413C390.485 946.158 390.894 946.006 391.343 945.957C391.78 945.913 392.212 945.993 392.64 946.197Z" fill="#737373"/>
<path d="M382.744 941.183C383.368 941.501 383.793 941.999 384.019 942.677C384.244 943.356 384.202 944.009 383.893 944.638C383.583 945.267 383.094 945.692 382.425 945.915C381.757 946.137 381.11 946.089 380.486 945.771C379.862 945.452 379.437 944.954 379.211 944.276C378.986 943.597 379.028 942.944 379.337 942.315C379.542 941.899 379.836 941.57 380.218 941.329C380.592 941.084 381.004 940.944 381.455 940.908C381.892 940.876 382.322 940.967 382.744 941.183Z" fill="#737373"/>
<path d="M372.989 935.894C373.604 936.229 374.015 936.739 374.222 937.423C374.429 938.108 374.369 938.76 374.043 939.38C373.717 940 373.216 940.412 372.542 940.616C371.868 940.82 371.223 940.754 370.608 940.419C369.992 940.084 369.581 939.574 369.374 938.889C369.167 938.205 369.227 937.553 369.553 936.933C369.769 936.522 370.072 936.201 370.46 935.971C370.841 935.736 371.257 935.607 371.708 935.584C372.146 935.564 372.573 935.667 372.989 935.894Z" fill="#737373"/>
<path d="M362.893 931.206C363.499 931.559 363.896 932.08 364.084 932.77C364.272 933.46 364.195 934.11 363.852 934.721C363.509 935.332 362.997 935.731 362.318 935.916C361.638 936.101 360.996 936.018 360.39 935.666C359.784 935.313 359.387 934.792 359.199 934.102C359.011 933.412 359.088 932.762 359.431 932.151C359.658 931.746 359.969 931.434 360.364 931.215C360.75 930.99 361.169 930.872 361.621 930.861C362.059 930.853 362.484 930.968 362.893 931.206Z" fill="#737373"/>
<path d="M332.365 959.074L356.902 918.005L359.318 919.5L334.78 960.569L332.365 959.074Z" fill="#737373"/>
<path d="M344.106 920.267C344.692 920.652 345.06 921.194 345.21 921.894C345.36 922.593 345.248 923.239 344.872 923.83C344.497 924.422 343.965 924.792 343.276 924.94C342.588 925.088 341.951 924.969 341.366 924.584C340.78 924.199 340.412 923.657 340.262 922.957C340.111 922.258 340.224 921.612 340.6 921.02C340.848 920.629 341.176 920.334 341.582 920.136C341.98 919.933 342.404 919.839 342.855 919.852C343.294 919.868 343.711 920.007 344.106 920.267Z" fill="#737373"/>
<path d="M334.964 913.909C335.538 914.31 335.891 914.862 336.022 915.566C336.154 916.269 336.023 916.911 335.632 917.493C335.24 918.074 334.699 918.429 334.007 918.558C333.315 918.687 332.681 918.551 332.107 918.15C331.532 917.749 331.179 917.197 331.048 916.493C330.917 915.79 331.047 915.147 331.438 914.566C331.698 914.181 332.033 913.896 332.444 913.709C332.847 913.517 333.274 913.434 333.725 913.46C334.162 913.488 334.575 913.638 334.964 913.909Z" fill="#737373"/>
<path d="M325.998 907.299C326.561 907.716 326.899 908.277 327.011 908.984C327.123 909.691 326.975 910.33 326.568 910.9C326.161 911.471 325.61 911.811 324.915 911.921C324.22 912.031 323.59 911.878 323.027 911.461C322.463 911.044 322.126 910.483 322.014 909.776C321.902 909.069 322.049 908.43 322.456 907.86C322.726 907.482 323.069 907.206 323.485 907.03C323.893 906.85 324.322 906.778 324.772 906.816C325.208 906.857 325.617 907.017 325.998 907.299Z" fill="#737373"/>
<path d="M317.215 900.442C317.767 900.874 318.089 901.445 318.182 902.155C318.275 902.865 318.11 903.499 317.687 904.058C317.265 904.617 316.705 904.942 316.007 905.033C315.309 905.124 314.684 904.954 314.132 904.522C313.581 904.09 313.258 903.519 313.166 902.809C313.073 902.1 313.238 901.465 313.661 900.906C313.94 900.536 314.291 900.269 314.711 900.105C315.124 899.935 315.555 899.876 316.003 899.926C316.439 899.978 316.843 900.15 317.215 900.442Z" fill="#737373"/>
<path d="M283.185 923.167L313.055 885.797L315.243 887.609L285.373 924.978L283.185 923.167Z" fill="#737373"/>
<path d="M299.745 886.865C300.272 887.326 300.563 887.914 300.617 888.628C300.67 889.342 300.471 889.966 300.019 890.502C299.566 891.037 298.989 891.331 298.288 891.384C297.586 891.437 296.972 891.232 296.445 890.771C295.917 890.309 295.627 889.721 295.573 889.008C295.519 888.294 295.719 887.669 296.171 887.134C296.47 886.779 296.834 886.532 297.263 886.391C297.685 886.244 298.118 886.208 298.563 886.283C298.995 886.359 299.389 886.553 299.745 886.865Z" fill="#737373"/>
<path d="M291.549 879.301C292.064 879.777 292.338 880.372 292.372 881.088C292.406 881.803 292.19 882.422 291.723 882.945C291.257 883.467 290.672 883.745 289.969 883.779C289.267 883.813 288.658 883.592 288.143 883.116C287.629 882.64 287.355 882.044 287.32 881.329C287.286 880.614 287.502 879.995 287.969 879.472C288.278 879.126 288.649 878.889 289.081 878.76C289.507 878.625 289.941 878.6 290.383 878.687C290.813 878.775 291.201 878.98 291.549 879.301Z" fill="#737373"/>
<path d="M283.562 871.514C284.063 872.004 284.321 872.606 284.336 873.322C284.35 874.038 284.117 874.651 283.637 875.161C283.156 875.671 282.564 875.933 281.86 875.947C281.157 875.962 280.555 875.724 280.054 875.234C279.552 874.745 279.294 874.142 279.28 873.426C279.265 872.71 279.498 872.097 279.979 871.587C280.297 871.25 280.674 871.022 281.11 870.905C281.539 870.782 281.973 870.77 282.414 870.869C282.84 870.968 283.223 871.183 283.562 871.514Z" fill="#737373"/>
<path d="M275.788 863.509C276.276 864.012 276.518 864.622 276.513 865.338C276.508 866.054 276.258 866.66 275.764 867.156C275.269 867.653 274.67 867.899 273.967 867.894C273.263 867.889 272.668 867.635 272.18 867.132C271.692 866.629 271.451 866.019 271.456 865.303C271.461 864.587 271.71 863.981 272.205 863.484C272.532 863.155 272.915 862.939 273.354 862.833C273.786 862.722 274.221 862.721 274.658 862.832C275.082 862.943 275.459 863.169 275.788 863.509Z" fill="#737373"/>
<path d="M239.308 880.791L273.983 847.83L275.903 849.924L241.229 882.884L239.308 880.791Z" fill="#737373"/>
<path d="M261.385 847.016C261.844 847.545 262.052 848.167 262.008 848.881C261.964 849.596 261.682 850.188 261.161 850.656C260.64 851.125 260.028 851.338 259.326 851.295C258.624 851.251 258.043 850.965 257.584 850.436C257.124 849.907 256.916 849.285 256.96 848.571C257.004 847.856 257.287 847.264 257.808 846.796C258.153 846.485 258.547 846.29 258.991 846.209C259.429 846.121 259.863 846.144 260.293 846.279C260.711 846.413 261.074 846.658 261.385 847.016Z" fill="#737373"/>
<path d="M253.523 839.043C253.968 839.585 254.159 840.212 254.095 840.925C254.032 841.638 253.733 842.222 253.2 842.676C252.666 843.13 252.049 843.326 251.348 843.264C250.647 843.201 250.074 842.9 249.629 842.358C249.184 841.817 248.994 841.19 249.057 840.477C249.121 839.763 249.419 839.18 249.953 838.725C250.306 838.425 250.706 838.24 251.152 838.171C251.592 838.095 252.025 838.13 252.452 838.277C252.865 838.422 253.222 838.677 253.523 839.043Z" fill="#737373"/>
<path d="M246.64 830.209C247.071 830.763 247.244 831.395 247.161 832.106C247.078 832.817 246.764 833.392 246.218 833.832C245.672 834.271 245.05 834.45 244.351 834.368C243.652 834.287 243.088 833.97 242.658 833.416C242.227 832.863 242.054 832.231 242.137 831.52C242.22 830.809 242.534 830.234 243.08 829.794C243.441 829.503 243.846 829.329 244.294 829.273C244.735 829.209 245.168 829.256 245.59 829.414C246 829.57 246.35 829.835 246.64 830.209Z" fill="#737373"/>
<path d="M239.998 821.189C240.413 821.754 240.569 822.39 240.467 823.099C240.365 823.807 240.035 824.374 239.477 824.798C238.92 825.222 238.292 825.384 237.596 825.284C236.899 825.183 236.344 824.85 235.929 824.286C235.514 823.721 235.358 823.084 235.46 822.376C235.562 821.667 235.892 821.101 236.45 820.677C236.819 820.396 237.228 820.233 237.678 820.189C238.121 820.137 238.552 820.196 238.97 820.365C239.375 820.533 239.718 820.808 239.998 821.189Z" fill="#737373"/>
<path d="M200.717 833.346L239.57 805.432L241.189 807.767L202.336 835.681L200.717 833.346Z" fill="#737373"/>
<path d="M227.453 802.619C227.836 803.205 227.958 803.85 227.817 804.551C227.676 805.253 227.316 805.8 226.735 806.193C226.155 806.586 225.52 806.713 224.83 806.575C224.14 806.436 223.603 806.074 223.219 805.487C222.836 804.901 222.714 804.257 222.855 803.555C222.996 802.854 223.356 802.307 223.936 801.913C224.321 801.653 224.738 801.513 225.189 801.494C225.635 801.466 226.062 801.548 226.471 801.74C226.866 801.93 227.193 802.223 227.453 802.619Z" fill="#737373"/>
<path d="M221.558 793.083C221.925 793.68 222.029 794.327 221.869 795.024C221.709 795.721 221.334 796.258 220.743 796.635C220.153 797.012 219.514 797.122 218.828 796.965C218.141 796.807 217.614 796.43 217.247 795.834C216.879 795.237 216.776 794.59 216.935 793.893C217.095 793.196 217.47 792.658 218.061 792.281C218.452 792.032 218.874 791.903 219.325 791.896C219.772 791.881 220.196 791.975 220.6 792.178C220.99 792.378 221.309 792.68 221.558 793.083Z" fill="#737373"/>
<path d="M215.921 783.389C216.272 783.996 216.358 784.645 216.179 785.338C216.001 786.03 215.611 786.557 215.01 786.917C214.409 787.278 213.768 787.37 213.086 787.194C212.404 787.018 211.887 786.627 211.536 786.02C211.185 785.414 211.099 784.765 211.277 784.072C211.456 783.38 211.846 782.853 212.447 782.492C212.845 782.254 213.269 782.137 213.721 782.142C214.168 782.139 214.59 782.244 214.988 782.459C215.372 782.669 215.683 782.98 215.921 783.389Z" fill="#737373"/>
<path d="M210.545 773.545C210.88 774.161 210.948 774.812 210.75 775.499C210.553 776.187 210.149 776.702 209.538 777.046C208.928 777.39 208.284 777.465 207.607 777.27C206.93 777.075 206.424 776.67 206.089 776.054C205.754 775.439 205.686 774.787 205.884 774.1C206.081 773.413 206.485 772.897 207.096 772.553C207.5 772.326 207.928 772.221 208.379 772.238C208.826 772.247 209.245 772.364 209.637 772.589C210.016 772.81 210.319 773.129 210.545 773.545Z" fill="#737373"/>
<path d="M169.641 780.458L211.958 758.14L213.247 760.672L170.93 782.989L169.641 780.458Z" fill="#737373"/>
<path d="M199.592 753.435C199.893 754.068 199.926 754.722 199.691 755.397C199.457 756.072 199.025 756.564 198.396 756.874C197.768 757.183 197.12 757.222 196.455 756.991C195.789 756.759 195.306 756.327 195.005 755.694C194.704 755.062 194.671 754.408 194.905 753.733C195.14 753.058 195.572 752.565 196.2 752.256C196.617 752.05 197.05 751.969 197.5 752.011C197.946 752.045 198.358 752.185 198.737 752.431C199.104 752.673 199.389 753.007 199.592 753.435Z" fill="#737373"/>
<path d="M195.022 743.183C195.306 743.824 195.321 744.479 195.068 745.147C194.816 745.815 194.371 746.295 193.734 746.587C193.097 746.88 192.449 746.901 191.789 746.651C191.13 746.402 190.658 745.956 190.374 745.316C190.091 744.675 190.075 744.02 190.328 743.352C190.581 742.684 191.026 742.204 191.663 741.912C192.085 741.718 192.52 741.649 192.969 741.703C193.414 741.749 193.822 741.9 194.195 742.157C194.555 742.408 194.831 742.751 195.022 743.183Z" fill="#737373"/>
<path d="M190.727 732.811C190.993 733.46 190.991 734.114 190.72 734.775C190.449 735.436 189.991 735.903 189.346 736.178C188.701 736.452 188.053 736.456 187.4 736.188C186.748 735.92 186.288 735.462 186.022 734.814C185.755 734.166 185.758 733.512 186.029 732.851C186.3 732.19 186.758 731.722 187.403 731.448C187.83 731.266 188.267 731.209 188.714 731.276C189.157 731.334 189.562 731.496 189.927 731.763C190.28 732.024 190.547 732.374 190.727 732.811Z" fill="#737373"/>
<path d="M186.71 722.327C186.958 722.982 186.938 723.636 186.649 724.289C186.36 724.942 185.89 725.396 185.238 725.653C184.586 725.909 183.937 725.895 183.292 725.609C182.647 725.324 182.2 724.854 181.951 724.199C181.702 723.543 181.722 722.889 182.011 722.236C182.3 721.584 182.77 721.129 183.423 720.872C183.854 720.702 184.293 720.657 184.738 720.736C185.18 720.807 185.58 720.98 185.938 721.256C186.284 721.527 186.541 721.884 186.71 722.327Z" fill="#737373"/>
<path d="M145.903 723.802L190.891 707.529L191.827 710.211L146.839 726.484L145.903 723.802Z" fill="#737373"/>
<path d="M178.519 699.049C178.733 699.716 178.677 700.368 178.353 701.004C178.029 701.639 177.535 702.067 176.869 702.287C176.204 702.507 175.557 702.457 174.928 702.136C174.299 701.816 173.877 701.322 173.664 700.654C173.451 699.987 173.507 699.335 173.831 698.699C174.154 698.064 174.649 697.636 175.314 697.416C175.755 697.27 176.195 697.249 176.636 697.353C177.074 697.447 177.464 697.642 177.807 697.938C178.138 698.227 178.375 698.598 178.519 699.049Z" fill="#737373"/>
<path d="M174.393 688.559C174.588 689.232 174.515 689.881 174.174 690.508C173.833 691.134 173.327 691.548 172.656 691.749C171.985 691.951 171.339 691.883 170.719 691.545C170.098 691.207 169.691 690.702 169.495 690.029C169.3 689.356 169.373 688.706 169.714 688.08C170.055 687.453 170.561 687.039 171.233 686.838C171.677 686.705 172.118 686.696 172.556 686.811C172.991 686.918 173.376 687.124 173.711 687.429C174.034 687.727 174.261 688.104 174.393 688.559Z" fill="#737373"/>
<path d="M171.503 677.672C171.68 678.35 171.59 678.998 171.232 679.614C170.874 680.231 170.357 680.631 169.68 680.813C169.004 680.996 168.36 680.91 167.749 680.555C167.138 680.201 166.744 679.684 166.567 679.006C166.39 678.328 166.48 677.681 166.838 677.064C167.196 676.448 167.713 676.048 168.39 675.865C168.838 675.744 169.279 675.748 169.713 675.875C170.146 675.994 170.525 676.21 170.852 676.524C171.167 676.831 171.384 677.214 171.503 677.672Z" fill="#737373"/>
<path d="M168.905 666.712C169.063 667.394 168.956 668.039 168.581 668.645C168.207 669.251 167.679 669.637 166.998 669.8C166.316 669.964 165.675 669.861 165.073 669.489C164.472 669.118 164.092 668.591 163.933 667.908C163.775 667.226 163.883 666.581 164.257 665.975C164.631 665.369 165.159 664.983 165.84 664.82C166.292 664.711 166.733 664.727 167.164 664.866C167.593 664.997 167.966 665.223 168.284 665.546C168.591 665.862 168.798 666.25 168.905 666.712Z" fill="#737373"/>
<path d="M128.934 664.633L175.74 654.733L176.308 657.517L129.503 667.416L128.934 664.633Z" fill="#737373"/>
<path d="M164.583 646.599C164.705 647.289 164.562 647.927 164.156 648.511C163.749 649.096 163.201 649.451 162.512 649.577C161.823 649.703 161.187 649.564 160.607 649.159C160.026 648.755 159.674 648.208 159.553 647.518C159.431 646.828 159.573 646.191 159.98 645.606C160.387 645.022 160.935 644.667 161.624 644.541C162.08 644.457 162.52 644.497 162.943 644.661C163.365 644.815 163.725 645.062 164.026 645.402C164.315 645.734 164.501 646.133 164.583 646.599Z" fill="#737373"/>
<path d="M162.864 635.463C162.967 636.157 162.808 636.79 162.385 637.362C161.963 637.935 161.406 638.275 160.713 638.382C160.021 638.488 159.389 638.332 158.819 637.912C158.25 637.492 157.913 636.935 157.81 636.242C157.707 635.549 157.866 634.916 158.289 634.343C158.711 633.77 159.268 633.43 159.961 633.324C160.419 633.253 160.858 633.305 161.277 633.48C161.694 633.646 162.048 633.903 162.339 634.251C162.619 634.591 162.794 634.995 162.864 635.463Z" fill="#737373"/>
<path d="M161.44 624.285C161.524 624.981 161.348 625.609 160.91 626.17C160.473 626.731 159.906 627.055 159.211 627.142C158.516 627.23 157.889 627.056 157.33 626.62C156.772 626.184 156.451 625.619 156.366 624.923C156.282 624.228 156.458 623.599 156.896 623.038C157.333 622.478 157.9 622.153 158.595 622.066C159.055 622.008 159.492 622.072 159.906 622.259C160.319 622.436 160.666 622.703 160.948 623.059C161.219 623.406 161.383 623.815 161.44 624.285Z" fill="#737373"/>
<path d="M160.312 613.072C160.378 613.77 160.185 614.393 159.732 614.941C159.28 615.49 158.705 615.798 158.008 615.866C157.31 615.934 156.688 615.743 156.142 615.292C155.595 614.841 155.289 614.267 155.223 613.569C155.157 612.871 155.351 612.248 155.803 611.7C156.256 611.152 156.83 610.843 157.528 610.775C157.99 610.73 158.425 610.807 158.834 611.005C159.241 611.193 159.581 611.469 159.853 611.833C160.115 612.188 160.268 612.601 160.312 613.072Z" fill="#737373"/>
<path d="M120.946 603.48L168.672 600.158L168.862 602.992L121.137 606.315L120.946 603.48Z" fill="#737373"/>
<path d="M158.948 590.576C158.976 591.276 158.749 591.887 158.268 592.409C157.787 592.932 157.196 593.208 156.496 593.237C155.796 593.266 155.185 593.04 154.663 592.56C154.142 592.079 153.867 591.489 153.839 590.789C153.81 590.089 154.037 589.477 154.518 588.955C154.999 588.432 155.59 588.157 156.29 588.127C156.754 588.108 157.184 588.209 157.582 588.429C157.979 588.64 158.303 588.934 158.556 589.312C158.798 589.681 158.929 590.102 158.948 590.576Z" fill="#737373"/>
<path d="M158.714 579.308C158.723 580.008 158.48 580.613 157.985 581.122C157.49 581.631 156.892 581.89 156.191 581.9C155.491 581.909 154.886 581.667 154.378 581.172C153.869 580.677 153.61 580.079 153.601 579.379C153.591 578.678 153.834 578.073 154.329 577.564C154.824 577.056 155.422 576.796 156.123 576.787C156.587 576.78 157.015 576.893 157.406 577.124C157.797 577.346 158.114 577.649 158.356 578.034C158.588 578.41 158.707 578.834 158.714 579.308Z" fill="#737373"/>
<path d="M158.778 568.038C158.768 568.738 158.509 569.336 158.001 569.831C157.492 570.326 156.887 570.568 156.187 570.559C155.486 570.549 154.888 570.29 154.393 569.781C153.898 569.272 153.655 568.667 153.664 567.966C153.674 567.266 153.933 566.668 154.441 566.173C154.95 565.678 155.555 565.436 156.255 565.445C156.719 565.452 157.144 565.576 157.529 565.818C157.914 566.051 158.222 566.363 158.454 566.755C158.676 567.136 158.784 567.564 158.778 568.038Z" fill="#737373"/>
<path d="M159.139 556.773C159.111 557.473 158.836 558.064 158.314 558.544C157.792 559.025 157.182 559.251 156.481 559.221C155.781 559.192 155.191 558.916 154.709 558.394C154.228 557.872 154.001 557.26 154.03 556.56C154.058 555.86 154.333 555.269 154.854 554.789C155.376 554.308 155.987 554.083 156.687 554.112C157.151 554.131 157.572 554.267 157.95 554.52C158.329 554.763 158.629 555.084 158.85 555.482C159.062 555.87 159.158 556.3 159.139 556.773Z" fill="#737373"/>
<path d="M121.135 541.795L168.861 545.118L168.67 547.952L120.945 544.63L121.135 541.795Z" fill="#737373"/>
<path d="M160.757 534.294C160.692 534.992 160.385 535.566 159.839 536.017C159.292 536.468 158.67 536.659 157.973 536.591C157.275 536.523 156.7 536.215 156.248 535.667C155.796 535.118 155.602 534.495 155.668 533.797C155.734 533.1 156.04 532.525 156.586 532.075C157.133 531.624 157.755 531.432 158.453 531.5C158.914 531.545 159.327 531.705 159.692 531.978C160.057 532.242 160.339 532.579 160.538 532.988C160.729 533.387 160.802 533.823 160.757 534.294Z" fill="#737373"/>
<path d="M162.011 523.095C161.927 523.791 161.606 524.357 161.047 524.792C160.489 525.228 159.862 525.402 159.167 525.315C158.471 525.227 157.905 524.903 157.467 524.342C157.03 523.781 156.853 523.153 156.938 522.457C157.022 521.762 157.344 521.196 157.902 520.761C158.461 520.325 159.087 520.151 159.783 520.238C160.243 520.296 160.652 520.467 161.008 520.75C161.366 521.024 161.639 521.369 161.827 521.784C162.007 522.188 162.069 522.625 162.011 523.095Z" fill="#737373"/>
<path d="M163.561 511.935C163.458 512.628 163.122 513.185 162.552 513.605C161.982 514.025 161.351 514.181 160.658 514.074C159.966 513.968 159.408 513.628 158.986 513.055C158.564 512.482 158.404 511.849 158.508 511.156C158.611 510.463 158.947 509.906 159.517 509.486C160.087 509.066 160.718 508.91 161.411 509.016C161.869 509.087 162.273 509.269 162.622 509.562C162.972 509.846 163.236 510.198 163.413 510.618C163.582 511.028 163.631 511.466 163.561 511.935Z" fill="#737373"/>
<path d="M165.408 500.82C165.286 501.51 164.935 502.057 164.354 502.461C163.773 502.865 163.138 503.005 162.448 502.879C161.759 502.753 161.211 502.398 160.805 501.813C160.398 501.229 160.256 500.591 160.377 499.901C160.499 499.211 160.85 498.664 161.431 498.26C162.012 497.856 162.647 497.717 163.336 497.843C163.793 497.926 164.191 498.119 164.532 498.422C164.875 498.716 165.129 499.075 165.294 499.5C165.452 499.914 165.49 500.354 165.408 500.82Z" fill="#737373"/>
<path d="M129.499 480.694L176.304 490.593L175.736 493.377L128.93 483.477L129.499 480.694Z" fill="#737373"/>
<path d="M169.979 478.761C169.82 479.443 169.44 479.97 168.839 480.342C168.237 480.713 167.596 480.817 166.914 480.653C166.233 480.489 165.705 480.104 165.331 479.497C164.956 478.891 164.848 478.247 165.007 477.564C165.166 476.881 165.546 476.354 166.147 475.983C166.749 475.612 167.39 475.508 168.071 475.672C168.523 475.78 168.91 475.995 169.234 476.317C169.56 476.629 169.794 477.002 169.937 477.436C170.072 477.858 170.086 478.299 169.979 478.761Z" fill="#737373"/>
<path d="M172.701 467.832C172.524 468.51 172.13 469.026 171.519 469.381C170.907 469.735 170.264 469.821 169.587 469.639C168.911 469.456 168.393 469.056 168.036 468.439C167.678 467.823 167.587 467.176 167.764 466.497C167.941 465.819 168.335 465.303 168.946 464.948C169.557 464.594 170.201 464.508 170.878 464.69C171.326 464.812 171.707 465.037 172.022 465.368C172.34 465.689 172.564 466.068 172.694 466.506C172.818 466.931 172.82 467.373 172.701 467.832Z" fill="#737373"/>
<path d="M175.713 456.98C175.518 457.653 175.11 458.159 174.49 458.496C173.869 458.834 173.223 458.902 172.552 458.701C171.881 458.499 171.375 458.085 171.034 457.459C170.693 456.833 170.62 456.183 170.815 455.51C171.01 454.837 171.418 454.331 172.038 453.994C172.659 453.656 173.305 453.588 173.976 453.789C174.42 453.923 174.795 454.159 175.101 454.498C175.41 454.828 175.624 455.213 175.742 455.654C175.854 456.083 175.845 456.525 175.713 456.98Z" fill="#737373"/>
<path d="M179.96 446.529C179.747 447.196 179.326 447.69 178.697 448.011C178.068 448.331 177.421 448.382 176.755 448.162C176.09 447.942 175.595 447.514 175.272 446.878C174.948 446.242 174.892 445.591 175.105 444.923C175.319 444.255 175.74 443.761 176.369 443.441C176.998 443.12 177.645 443.07 178.31 443.29C178.751 443.436 179.12 443.682 179.416 444.03C179.716 444.368 179.919 444.76 180.026 445.204C180.126 445.636 180.104 446.078 179.96 446.529Z" fill="#737373"/>
<path d="M146.833 421.625L191.821 437.898L190.885 440.58L145.897 424.307L146.833 421.625Z" fill="#737373"/>
<path d="M187.392 425.337C187.143 425.992 186.696 426.463 186.051 426.748C185.405 427.034 184.757 427.048 184.105 426.792C183.453 426.535 182.982 426.08 182.693 425.428C182.404 424.775 182.384 424.121 182.633 423.465C182.882 422.81 183.329 422.34 183.974 422.055C184.619 421.769 185.268 421.755 185.92 422.011C186.352 422.181 186.706 422.448 186.984 422.811C187.264 423.166 187.446 423.568 187.528 424.017C187.605 424.455 187.56 424.895 187.392 425.337Z" fill="#737373"/>
<path d="M191.527 414.901C191.261 415.549 190.802 416.007 190.149 416.275C189.496 416.542 188.848 416.539 188.203 416.264C187.558 415.99 187.1 415.522 186.829 414.862C186.558 414.201 186.556 413.546 186.822 412.898C187.089 412.25 187.548 411.792 188.201 411.524C188.853 411.257 189.502 411.26 190.147 411.535C190.573 411.716 190.921 411.993 191.188 412.364C191.459 412.726 191.629 413.133 191.7 413.585C191.765 414.024 191.707 414.463 191.527 414.901Z" fill="#737373"/>
<path d="M195.939 404.581C195.655 405.221 195.183 405.667 194.524 405.916C193.865 406.166 193.216 406.145 192.579 405.852C191.943 405.56 191.498 405.08 191.245 404.412C190.992 403.744 191.007 403.089 191.291 402.448C191.574 401.808 192.046 401.363 192.705 401.113C193.365 400.863 194.013 400.884 194.65 401.177C195.072 401.37 195.411 401.656 195.668 402.034C195.929 402.404 196.088 402.816 196.146 403.27C196.2 403.711 196.13 404.148 195.939 404.581Z" fill="#737373"/>
<path d="M200.624 394.384C200.323 395.017 199.84 395.449 199.174 395.681C198.508 395.912 197.861 395.873 197.232 395.563C196.604 395.254 196.172 394.761 195.937 394.086C195.703 393.411 195.736 392.757 196.037 392.125C196.338 391.492 196.821 391.06 197.487 390.828C198.153 390.597 198.8 390.636 199.428 390.945C199.845 391.15 200.176 391.446 200.423 391.831C200.673 392.208 200.822 392.624 200.867 393.079C200.908 393.522 200.827 393.957 200.624 394.384Z" fill="#737373"/>
<path d="M170.922 365.119L213.239 387.436L211.95 389.968L169.633 367.651L170.922 365.119Z" fill="#737373"/>
<path d="M209.803 373.393C209.468 374.009 208.962 374.414 208.285 374.609C207.608 374.803 206.964 374.729 206.354 374.385C205.743 374.041 205.339 373.525 205.142 372.838C204.944 372.151 205.012 371.5 205.347 370.884C205.682 370.268 206.188 369.863 206.865 369.668C207.542 369.474 208.186 369.548 208.796 369.892C209.2 370.12 209.515 370.433 209.74 370.832C209.97 371.222 210.096 371.645 210.116 372.103C210.133 372.547 210.029 372.977 209.803 373.393Z" fill="#737373"/>
<path d="M215.289 363.613C214.938 364.22 214.422 364.611 213.74 364.787C213.058 364.963 212.416 364.871 211.816 364.51C211.215 364.15 210.825 363.623 210.646 362.93C210.467 362.238 210.553 361.588 210.905 360.982C211.256 360.376 211.773 359.985 212.454 359.808C213.136 359.632 213.778 359.725 214.379 360.085C214.777 360.324 215.083 360.646 215.297 361.05C215.516 361.447 215.63 361.874 215.638 362.332C215.643 362.776 215.527 363.204 215.289 363.613Z" fill="#737373"/>
<path d="M221.036 353.987C220.668 354.583 220.141 354.96 219.455 355.118C218.769 355.275 218.13 355.165 217.539 354.788C216.949 354.411 216.573 353.874 216.413 353.177C216.254 352.48 216.357 351.833 216.725 351.236C217.093 350.639 217.619 350.262 218.306 350.105C218.992 349.948 219.631 350.058 220.221 350.434C220.612 350.684 220.91 351.014 221.113 351.425C221.321 351.827 221.423 352.257 221.419 352.715C221.412 353.16 221.284 353.584 221.036 353.987Z" fill="#737373"/>
<path d="M227.037 344.521C226.654 345.108 226.117 345.47 225.426 345.609C224.736 345.747 224.101 345.62 223.521 345.227C222.941 344.834 222.58 344.286 222.44 343.585C222.299 342.883 222.42 342.239 222.804 341.653C223.187 341.066 223.724 340.704 224.414 340.565C225.105 340.427 225.74 340.554 226.32 340.947C226.704 341.208 226.992 341.546 227.184 341.962C227.381 342.37 227.471 342.802 227.455 343.26C227.436 343.705 227.296 344.125 227.037 344.521Z" fill="#737373"/>
<path d="M202.326 312.426L241.179 340.34L239.56 342.675L200.707 314.761L202.326 312.426Z" fill="#737373"/>
<path d="M239.791 327.101C239.376 327.666 238.82 327.998 238.124 328.099C237.427 328.199 236.8 328.038 236.243 327.613C235.685 327.189 235.355 326.622 235.253 325.914C235.15 325.206 235.307 324.569 235.722 324.004C236.136 323.439 236.692 323.107 237.389 323.006C238.085 322.906 238.712 323.068 239.27 323.492C239.639 323.773 239.908 324.126 240.077 324.552C240.251 324.971 240.318 325.408 240.276 325.864C240.233 326.307 240.071 326.719 239.791 327.101Z" fill="#737373"/>
<path d="M246.534 318.16C246.104 318.713 245.54 319.031 244.841 319.112C244.142 319.194 243.52 319.015 242.974 318.575C242.428 318.136 242.114 317.56 242.031 316.849C241.948 316.138 242.121 315.506 242.551 314.953C242.981 314.4 243.546 314.082 244.245 314.001C244.944 313.919 245.566 314.098 246.112 314.538C246.473 314.829 246.733 315.189 246.89 315.62C247.053 316.043 247.107 316.482 247.053 316.937C246.998 317.378 246.825 317.786 246.534 318.16Z" fill="#737373"/>
<path d="M253.516 309.408C253.071 309.949 252.498 310.251 251.798 310.313C251.097 310.376 250.479 310.18 249.946 309.725C249.412 309.271 249.114 308.687 249.05 307.974C248.987 307.261 249.178 306.634 249.623 306.093C250.068 305.551 250.64 305.249 251.341 305.187C252.042 305.125 252.659 305.32 253.193 305.775C253.546 306.076 253.795 306.443 253.941 306.878C254.092 307.305 254.135 307.746 254.068 308.199C254.001 308.639 253.817 309.042 253.516 309.408Z" fill="#737373"/>
<path d="M261.474 301.52C261.015 302.049 260.434 302.335 259.731 302.378C259.029 302.421 258.418 302.208 257.897 301.74C257.376 301.271 257.093 300.679 257.049 299.965C257.005 299.25 257.213 298.628 257.673 298.099C258.132 297.57 258.713 297.284 259.415 297.241C260.118 297.198 260.729 297.41 261.25 297.879C261.595 298.189 261.834 298.564 261.967 299.002C262.107 299.434 262.138 299.875 262.059 300.326C261.98 300.764 261.785 301.162 261.474 301.52Z" fill="#737373"/>
<path d="M241.216 265.221L275.891 298.182L273.97 300.275L239.295 267.314L241.216 265.221Z" fill="#737373"/>
<path d="M276.545 285.058C276.057 285.561 275.461 285.815 274.758 285.82C274.054 285.824 273.455 285.579 272.961 285.082C272.466 284.586 272.217 283.979 272.212 283.263C272.207 282.547 272.448 281.938 272.936 281.434C273.424 280.931 274.019 280.677 274.723 280.672C275.426 280.668 276.025 280.914 276.52 281.41C276.847 281.739 277.066 282.126 277.175 282.571C277.291 283.009 277.297 283.451 277.194 283.898C277.091 284.331 276.874 284.718 276.545 285.058Z" fill="#737373"/>
<path d="M284.408 277.145C283.906 277.634 283.304 277.872 282.601 277.858C281.897 277.843 281.305 277.581 280.824 277.071C280.344 276.561 280.111 275.949 280.125 275.233C280.14 274.517 280.398 273.914 280.899 273.424C281.4 272.935 282.003 272.697 282.706 272.711C283.409 272.726 284.001 272.988 284.482 273.498C284.801 273.835 285.008 274.228 285.105 274.676C285.209 275.117 285.203 275.56 285.088 276.003C284.973 276.433 284.746 276.814 284.408 277.145Z" fill="#737373"/>
<path d="M292.482 269.452C291.968 269.928 291.359 270.149 290.656 270.115C289.954 270.082 289.369 269.804 288.902 269.281C288.435 268.758 288.219 268.139 288.253 267.424C288.288 266.709 288.562 266.113 289.076 265.637C289.591 265.162 290.199 264.941 290.902 264.974C291.605 265.008 292.19 265.286 292.656 265.809C292.965 266.155 293.162 266.553 293.247 267.003C293.339 267.447 293.321 267.89 293.194 268.33C293.067 268.756 292.83 269.131 292.482 269.452Z" fill="#737373"/>
<path d="M300.762 261.986C300.234 262.447 299.62 262.652 298.918 262.599C298.217 262.546 297.64 262.252 297.188 261.717C296.735 261.182 296.536 260.557 296.59 259.843C296.644 259.129 296.934 258.541 297.461 258.08C297.989 257.618 298.603 257.414 299.305 257.467C300.006 257.52 300.583 257.814 301.035 258.349C301.335 258.703 301.521 259.107 301.593 259.559C301.673 260.005 301.643 260.447 301.504 260.883C301.365 261.307 301.118 261.674 300.762 261.986Z" fill="#737373"/>
<path d="M285.36 223.125L315.23 260.495L313.042 262.307L283.172 224.937L285.36 223.125Z" fill="#737373"/>
<path d="M317.913 247.756C317.361 248.188 316.736 248.358 316.039 248.267C315.341 248.176 314.781 247.851 314.358 247.292C313.936 246.733 313.771 246.098 313.863 245.388C313.956 244.679 314.278 244.108 314.83 243.676C315.382 243.244 316.007 243.073 316.704 243.164C317.402 243.255 317.962 243.581 318.385 244.14C318.664 244.51 318.828 244.923 318.876 245.378C318.931 245.828 318.877 246.267 318.714 246.696C318.553 247.11 318.286 247.464 317.913 247.756Z" fill="#737373"/>
<path d="M326.772 241.003C326.208 241.42 325.579 241.573 324.884 241.463C324.189 241.353 323.638 241.012 323.23 240.442C322.823 239.872 322.676 239.233 322.788 238.526C322.9 237.819 323.237 237.258 323.801 236.841C324.364 236.424 324.993 236.271 325.689 236.381C326.384 236.491 326.935 236.831 327.342 237.402C327.612 237.779 327.764 238.197 327.799 238.653C327.842 239.104 327.776 239.542 327.602 239.965C327.429 240.376 327.152 240.721 326.772 241.003Z" fill="#737373"/>
<path d="M335.81 234.499C335.236 234.9 334.602 235.036 333.91 234.907C333.218 234.778 332.676 234.423 332.285 233.842C331.893 233.26 331.763 232.618 331.895 231.915C332.026 231.211 332.379 230.659 332.953 230.258C333.528 229.857 334.161 229.721 334.853 229.85C335.545 229.979 336.087 230.334 336.479 230.915C336.738 231.3 336.879 231.721 336.902 232.179C336.932 232.631 336.854 233.066 336.668 233.485C336.484 233.89 336.198 234.228 335.81 234.499Z" fill="#737373"/>
<path d="M345.024 228.249C344.439 228.634 343.802 228.753 343.113 228.605C342.425 228.457 341.893 228.087 341.517 227.495C341.142 226.904 341.029 226.258 341.18 225.559C341.33 224.859 341.698 224.317 342.283 223.932C342.869 223.547 343.506 223.428 344.194 223.576C344.882 223.724 345.414 224.094 345.79 224.685C346.039 225.077 346.168 225.502 346.178 225.96C346.197 226.413 346.107 226.845 345.909 227.259C345.715 227.659 345.42 227.989 345.024 228.249Z" fill="#737373"/>
<path d="M334.766 187.533L359.303 228.601L356.888 230.097L332.35 189.028L334.766 187.533Z" fill="#737373"/>
<path d="M363.943 216.531C363.337 216.883 362.695 216.967 362.015 216.781C361.335 216.596 360.824 216.198 360.481 215.587C360.138 214.976 360.061 214.325 360.249 213.635C360.437 212.945 360.834 212.424 361.44 212.072C362.046 211.719 362.688 211.636 363.368 211.821C364.048 212.007 364.559 212.405 364.902 213.016C365.129 213.421 365.235 213.852 365.221 214.309C365.214 214.762 365.101 215.189 364.881 215.591C364.665 215.98 364.352 216.293 363.943 216.531Z" fill="#737373"/>
<path d="M374.101 211.957C373.486 212.293 372.841 212.358 372.167 212.154C371.492 211.95 370.992 211.538 370.666 210.918C370.339 210.298 370.28 209.646 370.487 208.962C370.694 208.277 371.105 207.767 371.72 207.432C372.335 207.096 372.98 207.031 373.654 207.235C374.329 207.439 374.829 207.851 375.156 208.471C375.372 208.881 375.466 209.315 375.439 209.772C375.42 210.224 375.296 210.648 375.065 211.044C374.838 211.426 374.517 211.731 374.101 211.957Z" fill="#737373"/>
<path d="M383.915 206.784C383.29 207.102 382.644 207.15 381.975 206.928C381.306 206.705 380.817 206.28 380.508 205.651C380.198 205.022 380.156 204.369 380.382 203.69C380.607 203.012 381.032 202.514 381.656 202.196C382.281 201.877 382.927 201.829 383.596 202.052C384.265 202.274 384.754 202.699 385.063 203.328C385.268 203.744 385.351 204.181 385.312 204.636C385.28 205.088 385.144 205.508 384.903 205.897C384.666 206.273 384.336 206.568 383.915 206.784Z" fill="#737373"/>
<path d="M393.866 201.886C393.233 202.187 392.585 202.217 391.923 201.977C391.26 201.736 390.783 201.297 390.49 200.661C390.198 200.024 390.174 199.369 390.418 198.698C390.661 198.026 391.1 197.54 391.733 197.239C392.365 196.938 393.013 196.908 393.676 197.148C394.338 197.389 394.816 197.828 395.108 198.464C395.302 198.886 395.373 199.324 395.321 199.779C395.278 200.229 395.13 200.645 394.878 201.027C394.631 201.397 394.294 201.683 393.866 201.886Z" fill="#737373"/>
<path d="M388.912 160.056L407.69 204.058L405.092 205.206L386.314 161.205L388.912 160.056Z" fill="#737373"/>
<path d="M414.153 192.936C413.504 193.202 412.856 193.196 412.207 192.92C411.558 192.643 411.105 192.179 410.847 191.527C410.589 190.876 410.601 190.221 410.881 189.564C411.161 188.907 411.625 188.446 412.273 188.181C412.922 187.915 413.571 187.921 414.22 188.197C414.868 188.474 415.322 188.938 415.579 189.59C415.75 190.021 415.797 190.462 415.721 190.913C415.653 191.36 415.483 191.768 415.211 192.135C414.944 192.49 414.591 192.757 414.153 192.936Z" fill="#737373"/>
<path d="M424.472 188.891C423.817 189.139 423.168 189.115 422.527 188.821C421.886 188.527 421.445 188.05 421.205 187.392C420.965 186.733 420.994 186.08 421.292 185.431C421.589 184.782 422.066 184.334 422.722 184.087C423.377 183.839 424.026 183.863 424.667 184.157C425.309 184.451 425.749 184.928 425.989 185.586C426.148 186.022 426.183 186.464 426.095 186.913C426.015 187.358 425.834 187.76 425.552 188.119C425.275 188.467 424.915 188.724 424.472 188.891Z" fill="#737373"/>
<path d="M434.899 185.137C434.237 185.366 433.589 185.325 432.955 185.013C432.322 184.701 431.894 184.213 431.672 183.548C431.45 182.884 431.497 182.231 431.812 181.591C432.127 180.951 432.616 180.516 433.278 180.287C433.94 180.058 434.588 180.099 435.222 180.411C435.855 180.723 436.283 181.211 436.505 181.876C436.652 182.316 436.675 182.759 436.574 183.204C436.482 183.647 436.291 184.044 435.999 184.396C435.713 184.735 435.346 184.982 434.899 185.137Z" fill="#737373"/>
<path d="M445.424 181.677C444.756 181.888 444.109 181.829 443.484 181.499C442.86 181.17 442.445 180.67 442.241 180C442.037 179.33 442.101 178.679 442.434 178.048C442.766 177.417 443.266 176.996 443.935 176.785C444.603 176.574 445.25 176.633 445.874 176.963C446.499 177.292 446.914 177.792 447.118 178.462C447.253 178.906 447.264 179.349 447.152 179.792C447.048 180.231 446.845 180.623 446.544 180.966C446.249 181.298 445.876 181.535 445.424 181.677Z" fill="#737373"/>
<path d="M445.882 139.462L458.579 185.587L455.847 186.366L443.15 140.241L445.882 139.462Z" fill="#737373"/>
<path d="M465.74 174.65C465.061 174.824 464.418 174.729 463.812 174.366C463.205 174.003 462.818 173.481 462.65 172.8C462.483 172.12 462.582 171.474 462.948 170.863C463.314 170.251 463.837 169.859 464.516 169.685C465.195 169.512 465.837 169.607 466.444 169.97C467.05 170.333 467.437 170.855 467.605 171.535C467.716 171.985 467.703 172.429 467.567 172.864C467.44 173.297 467.216 173.677 466.897 174.003C466.584 174.317 466.198 174.533 465.74 174.65Z" fill="#737373"/>
<path d="M476.514 172.088C475.83 172.243 475.19 172.13 474.594 171.751C473.997 171.371 473.624 170.839 473.475 170.154C473.326 169.47 473.442 168.827 473.825 168.226C474.207 167.625 474.74 167.247 475.424 167.092C476.107 166.938 476.747 167.051 477.344 167.43C477.94 167.81 478.313 168.342 478.463 169.027C478.562 169.48 478.537 169.922 478.389 170.354C478.25 170.783 478.016 171.157 477.688 171.474C477.367 171.779 476.976 171.984 476.514 172.088Z" fill="#737373"/>
<path d="M487.354 169.831C486.667 169.966 486.03 169.836 485.444 169.44C484.857 169.044 484.499 168.502 484.368 167.813C484.237 167.125 484.371 166.486 484.77 165.896C485.168 165.306 485.711 164.943 486.399 164.807C487.086 164.672 487.723 164.802 488.309 165.198C488.896 165.594 489.254 166.136 489.385 166.825C489.472 167.281 489.435 167.722 489.276 168.149C489.125 168.575 488.882 168.941 488.545 169.249C488.216 169.545 487.819 169.739 487.354 169.831Z" fill="#737373"/>
<path d="M498.252 167.879C497.561 167.995 496.928 167.847 496.352 167.435C495.777 167.023 495.433 166.471 495.32 165.78C495.208 165.088 495.359 164.453 495.773 163.874C496.188 163.295 496.741 162.948 497.432 162.832C498.123 162.715 498.756 162.863 499.331 163.275C499.907 163.687 500.251 164.239 500.363 164.931C500.438 165.389 500.389 165.829 500.218 166.252C500.056 166.673 499.803 167.032 499.458 167.33C499.121 167.617 498.719 167.8 498.252 167.879Z" fill="#737373"/>
<path d="M505.109 127.017L511.511 174.428L508.698 174.821L502.295 127.411L505.109 127.017Z" fill="#737373"/>
<path d="M520.189 164.9C519.492 164.977 518.868 164.795 518.315 164.351C517.763 163.908 517.449 163.338 517.374 162.641C517.299 161.944 517.483 161.319 517.928 160.764C518.373 160.209 518.944 159.893 519.641 159.815C520.337 159.738 520.962 159.92 521.514 160.364C522.067 160.807 522.381 161.377 522.456 162.074C522.505 162.535 522.433 162.972 522.24 163.384C522.055 163.795 521.783 164.14 521.423 164.419C521.071 164.687 520.659 164.847 520.189 164.9Z" fill="#737373"/>
<path d="M531.21 163.874C530.512 163.933 529.892 163.733 529.352 163.274C528.811 162.816 528.513 162.237 528.457 161.539C528.4 160.84 528.602 160.22 529.062 159.678C529.521 159.136 530.1 158.836 530.799 158.777C531.497 158.719 532.117 158.919 532.657 159.377C533.198 159.836 533.496 160.414 533.552 161.113C533.59 161.575 533.506 162.01 533.301 162.416C533.106 162.822 532.825 163.16 532.457 163.428C532.098 163.686 531.682 163.835 531.21 163.874Z" fill="#737373"/>
<path d="M542.256 163.16C541.557 163.199 540.943 162.982 540.415 162.508C539.887 162.035 539.604 161.449 539.566 160.749C539.529 160.049 539.747 159.435 540.221 158.906C540.695 158.377 541.282 158.093 541.982 158.054C542.682 158.015 543.295 158.232 543.823 158.705C544.351 159.178 544.634 159.765 544.672 160.465C544.697 160.928 544.601 161.36 544.386 161.761C544.18 162.161 543.889 162.49 543.514 162.748C543.148 162.996 542.729 163.134 542.256 163.16Z" fill="#737373"/>
<path d="M553.317 162.757C552.617 162.776 552.009 162.542 551.494 162.054C550.978 161.567 550.711 160.973 550.693 160.272C550.674 159.572 550.908 158.963 551.397 158.448C551.885 157.932 552.479 157.665 553.18 157.645C553.88 157.626 554.488 157.86 555.003 158.347C555.518 158.835 555.785 159.429 555.804 160.13C555.817 160.594 555.71 161.023 555.484 161.418C555.267 161.812 554.968 162.133 554.586 162.381C554.213 162.618 553.79 162.744 553.317 162.757Z" fill="#737373"/>
<path d="M565.413 124.534V172.375H562.572V124.534H565.413Z" fill="#737373"/>
<path d="M575.45 162.887C574.75 162.867 574.156 162.599 573.667 162.084C573.179 161.568 572.944 160.96 572.963 160.26C572.982 159.559 573.249 158.965 573.764 158.477C574.279 157.989 574.887 157.755 575.588 157.775C576.288 157.794 576.882 158.062 577.371 158.577C577.859 159.093 578.094 159.701 578.075 160.402C578.062 160.866 577.933 161.288 577.686 161.67C577.448 162.052 577.132 162.355 576.737 162.581C576.353 162.798 575.924 162.9 575.45 162.887Z" fill="#737373"/>
<path d="M586.506 163.419C585.807 163.38 585.22 163.096 584.745 162.567C584.271 162.038 584.053 161.424 584.091 160.724C584.128 160.024 584.411 159.438 584.939 158.964C585.467 158.491 586.081 158.274 586.781 158.313C587.48 158.352 588.067 158.636 588.541 159.165C589.016 159.694 589.234 160.308 589.196 161.008C589.171 161.471 589.03 161.89 588.773 162.265C588.525 162.64 588.201 162.935 587.801 163.15C587.411 163.356 586.979 163.445 586.506 163.419Z" fill="#737373"/>
<path d="M597.543 164.263C596.845 164.204 596.266 163.904 595.806 163.362C595.347 162.82 595.145 162.2 595.201 161.501C595.258 160.803 595.556 160.224 596.097 159.766C596.637 159.307 597.256 159.107 597.955 159.166C598.653 159.224 599.232 159.524 599.692 160.066C600.152 160.609 600.353 161.229 600.297 161.927C600.26 162.39 600.108 162.805 599.84 163.172C599.583 163.54 599.251 163.826 598.845 164.03C598.449 164.225 598.015 164.302 597.543 164.263Z" fill="#737373"/>
<path d="M608.552 165.417C607.856 165.34 607.285 165.023 606.84 164.469C606.395 163.914 606.21 163.288 606.285 162.591C606.36 161.895 606.674 161.325 607.227 160.881C607.779 160.438 608.404 160.255 609.1 160.333C609.797 160.411 610.367 160.727 610.812 161.282C611.257 161.837 611.442 162.462 611.367 163.159C611.318 163.62 611.154 164.031 610.877 164.391C610.61 164.751 610.271 165.028 609.859 165.22C609.459 165.404 609.023 165.47 608.552 165.417Z" fill="#737373"/>
<path d="M625.791 127.408L619.389 174.819L616.576 174.425L622.978 127.015L625.791 127.408Z" fill="#737373"/>
<path d="M630.455 167.654C629.764 167.537 629.211 167.19 628.796 166.611C628.382 166.032 628.231 165.397 628.343 164.706C628.456 164.014 628.8 163.462 629.375 163.05C629.951 162.638 630.584 162.49 631.275 162.606C631.966 162.723 632.519 163.07 632.933 163.649C633.347 164.228 633.498 164.863 633.386 165.554C633.312 166.012 633.127 166.413 632.831 166.757C632.544 167.103 632.191 167.36 631.77 167.529C631.36 167.691 630.921 167.732 630.455 167.654Z" fill="#737373"/>
<path d="M641.33 169.733C640.643 169.598 640.1 169.235 639.701 168.645C639.303 168.055 639.169 167.416 639.3 166.727C639.431 166.039 639.789 165.496 640.375 165.1C640.962 164.704 641.598 164.574 642.286 164.71C642.974 164.845 643.517 165.208 643.915 165.798C644.314 166.388 644.448 167.027 644.317 167.716C644.23 168.172 644.034 168.567 643.73 168.903C643.434 169.24 643.074 169.488 642.648 169.645C642.234 169.795 641.795 169.825 641.33 169.733Z" fill="#737373"/>
<path d="M652.145 172.118C651.461 171.963 650.928 171.586 650.546 170.985C650.163 170.384 650.047 169.741 650.196 169.056C650.345 168.371 650.718 167.839 651.315 167.46C651.911 167.08 652.551 166.967 653.235 167.122C653.919 167.276 654.452 167.654 654.834 168.255C655.217 168.856 655.333 169.499 655.184 170.184C655.085 170.637 654.879 171.027 654.565 171.354C654.26 171.683 653.894 171.921 653.464 172.067C653.047 172.205 652.607 172.222 652.145 172.118Z" fill="#737373"/>
<path d="M662.89 174.806C662.211 174.632 661.688 174.24 661.322 173.628C660.956 173.017 660.857 172.371 661.025 171.691C661.192 171.01 661.58 170.488 662.186 170.125C662.792 169.762 663.435 169.667 664.114 169.841C664.793 170.014 665.316 170.407 665.682 171.018C666.048 171.63 666.147 172.276 665.979 172.956C665.868 173.407 665.651 173.791 665.329 174.109C665.016 174.43 664.643 174.657 664.21 174.791C663.789 174.918 663.349 174.923 662.89 174.806Z" fill="#737373"/>
<path d="M684.938 140.236L672.24 186.361L669.508 185.582L682.206 139.457L684.938 140.236Z" fill="#737373"/>
<path d="M684.136 181.082C683.468 180.872 682.968 180.451 682.635 179.82C682.303 179.188 682.239 178.538 682.443 177.867C682.647 177.197 683.061 176.697 683.686 176.368C684.311 176.039 684.957 175.98 685.626 176.19C686.294 176.401 686.794 176.822 687.127 177.453C687.459 178.084 687.524 178.735 687.319 179.405C687.184 179.849 686.947 180.221 686.608 180.522C686.279 180.825 685.894 181.031 685.455 181.141C685.027 181.244 684.588 181.225 684.136 181.082Z" fill="#737373"/>
<path d="M694.622 184.666C693.96 184.437 693.471 184.002 693.156 183.362C692.841 182.722 692.794 182.069 693.016 181.404C693.238 180.74 693.666 180.252 694.3 179.94C694.933 179.628 695.581 179.587 696.243 179.816C696.905 180.045 697.394 180.48 697.709 181.12C698.024 181.76 698.071 182.413 697.849 183.077C697.702 183.517 697.455 183.883 697.108 184.174C696.77 184.467 696.38 184.663 695.938 184.761C695.508 184.852 695.07 184.821 694.622 184.666Z" fill="#737373"/>
<path d="M705.007 188.542C704.351 188.295 703.875 187.847 703.577 187.198C703.279 186.549 703.25 185.895 703.49 185.237C703.73 184.579 704.171 184.102 704.812 183.808C705.453 183.514 706.102 183.49 706.758 183.738C707.413 183.985 707.89 184.433 708.188 185.082C708.485 185.731 708.514 186.384 708.274 187.043C708.115 187.479 707.859 187.837 707.504 188.119C707.159 188.403 706.764 188.588 706.32 188.673C705.887 188.753 705.45 188.709 705.007 188.542Z" fill="#737373"/>
<path d="M715.28 192.708C714.631 192.443 714.167 191.982 713.887 191.325C713.607 190.668 713.596 190.013 713.853 189.362C714.111 188.71 714.564 188.246 715.213 187.969C715.862 187.693 716.511 187.687 717.159 187.953C717.808 188.218 718.272 188.679 718.552 189.336C718.832 189.993 718.843 190.648 718.586 191.299C718.415 191.731 718.149 192.082 717.787 192.354C717.434 192.629 717.034 192.803 716.588 192.876C716.154 192.943 715.718 192.888 715.28 192.708Z" fill="#737373"/>
<path d="M741.775 161.198L722.997 205.199L720.398 204.051L739.176 160.049L741.775 161.198Z" fill="#737373"/>
<path d="M735.465 201.896C734.832 201.595 734.394 201.109 734.15 200.437C733.906 199.765 733.93 199.111 734.222 198.474C734.515 197.837 734.992 197.399 735.655 197.158C736.318 196.917 736.965 196.948 737.598 197.249C738.231 197.549 738.669 198.036 738.913 198.707C739.157 199.379 739.133 200.033 738.84 200.67C738.647 201.092 738.362 201.428 737.986 201.68C737.619 201.935 737.211 202.087 736.761 202.135C736.325 202.179 735.892 202.099 735.465 201.896Z" fill="#737373"/>
<path d="M745.361 206.91C744.736 206.592 744.311 206.093 744.086 205.415C743.86 204.737 743.902 204.083 744.212 203.454C744.521 202.826 745.01 202.4 745.679 202.178C746.348 201.956 746.994 202.004 747.619 202.322C748.243 202.64 748.668 203.138 748.893 203.817C749.119 204.495 749.077 205.149 748.767 205.777C748.563 206.194 748.269 206.522 747.887 206.763C747.513 207.008 747.1 207.149 746.65 207.185C746.212 207.217 745.782 207.125 745.361 206.91Z" fill="#737373"/>
<path d="M755.116 212.199C754.5 211.863 754.089 211.353 753.882 210.669C753.675 209.985 753.735 209.332 754.061 208.712C754.388 208.092 754.888 207.68 755.562 207.476C756.237 207.272 756.882 207.338 757.497 207.674C758.112 208.009 758.523 208.519 758.73 209.203C758.937 209.888 758.878 210.54 758.551 211.16C758.335 211.571 758.033 211.891 757.644 212.121C757.264 212.356 756.848 212.485 756.397 212.509C755.958 212.529 755.531 212.425 755.116 212.199Z" fill="#737373"/>
<path d="M765.212 216.886C764.606 216.534 764.209 216.013 764.021 215.323C763.832 214.633 763.91 213.982 764.253 213.371C764.596 212.76 765.107 212.362 765.787 212.176C766.466 211.991 767.109 212.075 767.715 212.427C768.32 212.779 768.717 213.3 768.906 213.99C769.094 214.68 769.016 215.331 768.673 215.942C768.446 216.346 768.135 216.658 767.741 216.878C767.354 217.102 766.935 217.22 766.484 217.231C766.045 217.239 765.621 217.124 765.212 216.886Z" fill="#737373"/>
<path d="M795.74 189.018L771.202 230.087L768.787 228.592L793.324 187.523L795.74 189.018Z" fill="#737373"/>
<path d="M783.999 228.826C783.414 228.441 783.046 227.898 782.895 227.199C782.745 226.499 782.858 225.854 783.233 225.262C783.609 224.671 784.141 224.301 784.829 224.153C785.518 224.005 786.154 224.124 786.74 224.509C787.325 224.894 787.693 225.436 787.844 226.135C787.994 226.835 787.881 227.481 787.506 228.072C787.257 228.464 786.93 228.759 786.524 228.956C786.126 229.159 785.701 229.254 785.25 229.24C784.812 229.224 784.395 229.086 783.999 228.826Z" fill="#737373"/>
<path d="M793.141 235.184C792.566 234.783 792.213 234.23 792.082 233.527C791.951 232.823 792.081 232.181 792.472 231.6C792.864 231.019 793.406 230.664 794.098 230.535C794.79 230.406 795.423 230.541 795.998 230.943C796.572 231.344 796.925 231.896 797.057 232.599C797.188 233.303 797.058 233.945 796.666 234.526C796.407 234.911 796.072 235.197 795.661 235.383C795.257 235.575 794.83 235.658 794.38 235.633C793.942 235.604 793.529 235.455 793.141 235.184Z" fill="#737373"/>
<path d="M802.107 241.794C801.543 241.377 801.206 240.815 801.094 240.108C800.982 239.401 801.129 238.763 801.536 238.192C801.944 237.622 802.495 237.282 803.19 237.172C803.885 237.062 804.514 237.215 805.078 237.631C805.641 238.048 805.979 238.61 806.091 239.317C806.203 240.024 806.055 240.662 805.648 241.233C805.378 241.61 805.036 241.887 804.62 242.062C804.211 242.243 803.782 242.314 803.333 242.276C802.896 242.236 802.487 242.075 802.107 241.794Z" fill="#737373"/>
<path d="M810.889 248.65C810.337 248.218 810.015 247.647 809.922 246.938C809.83 246.228 809.995 245.593 810.417 245.034C810.84 244.475 811.4 244.15 812.098 244.059C812.795 243.968 813.42 244.138 813.972 244.57C814.524 245.002 814.846 245.573 814.939 246.283C815.031 246.993 814.866 247.627 814.444 248.186C814.164 248.557 813.814 248.824 813.393 248.987C812.98 249.157 812.55 249.217 812.101 249.166C811.666 249.114 811.262 248.942 810.889 248.65Z" fill="#737373"/>
<path d="M844.92 224.926L815.049 262.296L812.861 260.484L842.732 223.114L844.92 224.926Z" fill="#737373"/>
<path d="M827.88 263.082C827.353 262.62 827.062 262.032 827.008 261.318C826.955 260.604 827.154 259.98 827.606 259.445C828.059 258.909 828.636 258.615 829.337 258.562C830.039 258.51 830.653 258.714 831.18 259.176C831.708 259.637 831.998 260.225 832.052 260.939C832.106 261.653 831.906 262.277 831.454 262.813C831.155 263.167 830.791 263.415 830.362 263.555C829.94 263.702 829.507 263.738 829.062 263.663C828.63 263.587 828.236 263.393 827.88 263.082Z" fill="#737373"/>
<path d="M836.075 270.645C835.561 270.169 835.286 269.574 835.252 268.859C835.218 268.143 835.434 267.524 835.901 267.002C836.367 266.479 836.952 266.201 837.655 266.167C838.358 266.134 838.966 266.355 839.481 266.83C839.995 267.306 840.269 267.902 840.304 268.617C840.338 269.332 840.122 269.951 839.655 270.474C839.346 270.82 838.975 271.057 838.543 271.186C838.117 271.322 837.683 271.346 837.241 271.259C836.811 271.171 836.423 270.967 836.075 270.645Z" fill="#737373"/>
<path d="M844.062 278.432C843.561 277.943 843.303 277.34 843.288 276.624C843.274 275.908 843.507 275.295 843.987 274.785C844.468 274.276 845.06 274.013 845.764 273.999C846.467 273.985 847.069 274.222 847.57 274.712C848.072 275.202 848.33 275.804 848.344 276.52C848.359 277.236 848.126 277.849 847.645 278.359C847.327 278.696 846.95 278.924 846.514 279.041C846.085 279.164 845.651 279.177 845.21 279.078C844.784 278.978 844.401 278.763 844.062 278.432Z" fill="#737373"/>
<path d="M851.836 286.438C851.348 285.934 851.106 285.325 851.111 284.609C851.116 283.893 851.366 283.287 851.86 282.79C852.355 282.294 852.954 282.048 853.657 282.053C854.361 282.057 854.957 282.311 855.444 282.815C855.932 283.318 856.173 283.927 856.168 284.643C856.164 285.359 855.914 285.966 855.419 286.462C855.092 286.791 854.709 287.008 854.27 287.113C853.838 287.225 853.403 287.225 852.966 287.114C852.542 287.003 852.165 286.778 851.836 286.438Z" fill="#737373"/>
<path d="M888.798 267.301L854.123 300.262L852.202 298.169L886.877 265.208L888.798 267.301Z" fill="#737373"/>
<path d="M866.721 303.077C866.261 302.548 866.053 301.926 866.097 301.211C866.141 300.496 866.424 299.905 866.945 299.436C867.465 298.967 868.077 298.755 868.779 298.798C869.481 298.841 870.062 299.127 870.522 299.656C870.981 300.185 871.189 300.807 871.145 301.522C871.101 302.236 870.819 302.828 870.298 303.297C869.953 303.607 869.558 303.803 869.115 303.884C868.677 303.972 868.243 303.948 867.812 303.814C867.395 303.68 867.031 303.434 866.721 303.077Z" fill="#737373"/>
<path d="M874.582 311.049C874.137 310.508 873.946 309.881 874.009 309.168C874.073 308.454 874.371 307.871 874.905 307.416C875.438 306.962 876.056 306.766 876.756 306.829C877.457 306.891 878.03 307.193 878.475 307.734C878.92 308.276 879.111 308.903 879.047 309.616C878.984 310.329 878.685 310.913 878.152 311.367C877.798 311.668 877.399 311.853 876.953 311.921C876.513 311.998 876.08 311.962 875.653 311.816C875.239 311.671 874.882 311.415 874.582 311.049Z" fill="#737373"/>
<path d="M881.464 319.883C881.034 319.33 880.86 318.698 880.943 317.987C881.026 317.276 881.341 316.701 881.886 316.261C882.432 315.822 883.055 315.643 883.753 315.724C884.452 315.806 885.017 316.123 885.447 316.676C885.877 317.23 886.051 317.862 885.968 318.573C885.885 319.284 885.57 319.859 885.025 320.299C884.663 320.59 884.259 320.763 883.811 320.82C883.369 320.884 882.937 320.837 882.514 320.679C882.105 320.522 881.755 320.257 881.464 319.883Z" fill="#737373"/>
<path d="M888.107 328.903C887.692 328.339 887.536 327.702 887.638 326.994C887.741 326.285 888.071 325.719 888.628 325.294C889.186 324.87 889.813 324.708 890.51 324.809C891.206 324.909 891.762 325.242 892.177 325.807C892.591 326.371 892.748 327.008 892.645 327.716C892.543 328.425 892.213 328.991 891.655 329.416C891.286 329.697 890.877 329.859 890.428 329.904C889.984 329.956 889.553 329.897 889.135 329.727C888.73 329.56 888.387 329.285 888.107 328.903Z" fill="#737373"/>
<path d="M927.388 314.746L888.535 342.66L886.916 340.326L925.769 312.412L927.388 314.746Z" fill="#737373"/>
<path d="M901.653 346.473C901.269 345.887 901.148 345.243 901.289 344.541C901.429 343.84 901.79 343.292 902.37 342.899C902.95 342.506 903.585 342.379 904.276 342.518C904.966 342.656 905.503 343.019 905.886 343.605C906.27 344.191 906.391 344.835 906.25 345.537C906.11 346.239 905.749 346.786 905.169 347.179C904.785 347.439 904.367 347.579 903.916 347.599C903.471 347.626 903.043 347.544 902.635 347.352C902.239 347.163 901.912 346.87 901.653 346.473Z" fill="#737373"/>
<path d="M907.547 356.009C907.179 355.413 907.076 354.766 907.235 354.068C907.395 353.371 907.771 352.834 908.361 352.457C908.952 352.08 909.59 351.97 910.277 352.128C910.963 352.285 911.49 352.662 911.858 353.258C912.225 353.855 912.329 354.502 912.169 355.199C912.009 355.897 911.634 356.434 911.043 356.811C910.652 357.06 910.231 357.189 909.779 357.196C909.333 357.212 908.908 357.118 908.505 356.914C908.115 356.714 907.795 356.412 907.547 356.009Z" fill="#737373"/>
<path d="M913.185 365.703C912.833 365.097 912.747 364.447 912.926 363.755C913.105 363.062 913.495 362.536 914.096 362.175C914.696 361.814 915.338 361.722 916.02 361.898C916.702 362.074 917.218 362.466 917.569 363.072C917.921 363.678 918.007 364.328 917.828 365.02C917.649 365.713 917.259 366.239 916.659 366.6C916.261 366.839 915.836 366.956 915.384 366.95C914.938 366.954 914.515 366.848 914.118 366.634C913.733 366.423 913.422 366.113 913.185 365.703Z" fill="#737373"/>
<path d="M918.561 375.547C918.226 374.932 918.157 374.28 918.355 373.593C918.553 372.906 918.957 372.39 919.567 372.046C920.178 371.702 920.822 371.628 921.499 371.823C922.176 372.017 922.682 372.422 923.016 373.038C923.351 373.654 923.42 374.305 923.222 374.992C923.024 375.68 922.62 376.195 922.01 376.539C921.605 376.767 921.178 376.872 920.726 376.854C920.279 376.845 919.86 376.728 919.468 376.503C919.089 376.282 918.787 375.963 918.561 375.547Z" fill="#737373"/>
<path d="M958.463 367.635L916.147 389.952L914.858 387.42L957.174 365.103L958.463 367.635Z" fill="#737373"/>
<path d="M929.513 395.658C929.212 395.025 929.178 394.371 929.413 393.696C929.648 393.021 930.08 392.528 930.708 392.219C931.337 391.909 931.984 391.87 932.65 392.101C933.316 392.333 933.799 392.765 934.1 393.398C934.401 394.031 934.434 394.685 934.199 395.36C933.964 396.035 933.533 396.527 932.904 396.837C932.488 397.042 932.055 397.123 931.605 397.081C931.159 397.047 930.746 396.908 930.367 396.662C930.001 396.42 929.716 396.085 929.513 395.658Z" fill="#737373"/>
<path d="M934.082 405.909C933.798 405.268 933.783 404.614 934.036 403.946C934.289 403.277 934.734 402.797 935.371 402.505C936.008 402.213 936.656 402.192 937.315 402.441C937.975 402.691 938.446 403.136 938.73 403.777C939.014 404.418 939.029 405.072 938.776 405.74C938.523 406.408 938.078 406.889 937.441 407.181C937.02 407.374 936.584 407.444 936.136 407.389C935.691 407.343 935.282 407.192 934.91 406.936C934.55 406.684 934.274 406.342 934.082 405.909Z" fill="#737373"/>
<path d="M938.379 416.281C938.112 415.633 938.115 414.978 938.386 414.317C938.657 413.657 939.115 413.189 939.759 412.915C940.404 412.64 941.053 412.637 941.705 412.904C942.358 413.172 942.817 413.63 943.084 414.278C943.35 414.926 943.348 415.581 943.077 416.242C942.806 416.902 942.348 417.37 941.703 417.644C941.276 417.826 940.839 417.884 940.392 417.817C939.948 417.759 939.544 417.596 939.178 417.33C938.825 417.069 938.559 416.719 938.379 416.281Z" fill="#737373"/>
<path d="M942.395 426.766C942.146 426.111 942.166 425.457 942.455 424.804C942.744 424.151 943.215 423.696 943.867 423.44C944.519 423.183 945.168 423.198 945.813 423.483C946.458 423.768 946.905 424.239 947.154 424.894C947.402 425.549 947.382 426.203 947.093 426.856C946.805 427.509 946.334 427.964 945.682 428.22C945.25 428.39 944.812 428.435 944.366 428.356C943.924 428.286 943.524 428.112 943.166 427.836C942.82 427.565 942.563 427.208 942.395 426.766Z" fill="#737373"/>
<path d="M982.203 424.29L937.215 440.564L936.278 437.881L981.266 421.608L982.203 424.29Z" fill="#737373"/>
<path d="M949.586 448.044C949.373 447.376 949.428 446.725 949.752 446.089C950.076 445.453 950.571 445.025 951.236 444.805C951.901 444.585 952.549 444.636 953.178 444.956C953.807 445.277 954.228 445.771 954.441 446.438C954.654 447.106 954.599 447.758 954.275 448.393C953.951 449.029 953.456 449.457 952.791 449.677C952.351 449.823 951.91 449.844 951.469 449.74C951.032 449.645 950.641 449.45 950.299 449.155C949.968 448.865 949.73 448.495 949.586 448.044Z" fill="#737373"/>
<path d="M953.712 458.534C953.517 457.861 953.59 457.211 953.931 456.585C954.272 455.958 954.778 455.545 955.449 455.343C956.121 455.142 956.766 455.21 957.387 455.547C958.007 455.885 958.415 456.391 958.61 457.064C958.805 457.737 958.732 458.386 958.391 459.013C958.05 459.639 957.544 460.053 956.873 460.255C956.428 460.388 955.987 460.397 955.55 460.281C955.115 460.174 954.73 459.969 954.395 459.664C954.072 459.365 953.844 458.989 953.712 458.534Z" fill="#737373"/>
<path d="M956.601 469.42C956.424 468.742 956.515 468.095 956.873 467.478C957.23 466.862 957.748 466.462 958.424 466.279C959.101 466.096 959.744 466.182 960.356 466.537C960.967 466.892 961.361 467.408 961.538 468.086C961.715 468.764 961.624 469.411 961.266 470.028C960.908 470.645 960.391 471.044 959.715 471.227C959.267 471.348 958.826 471.345 958.391 471.217C957.959 471.098 957.58 470.882 957.253 470.568C956.938 470.261 956.721 469.878 956.601 469.42Z" fill="#737373"/>
<path d="M959.201 480.381C959.042 479.698 959.15 479.054 959.524 478.447C959.899 477.841 960.427 477.456 961.108 477.292C961.789 477.128 962.431 477.232 963.032 477.603C963.634 477.975 964.014 478.502 964.172 479.184C964.331 479.867 964.223 480.511 963.849 481.118C963.474 481.724 962.946 482.109 962.265 482.273C961.814 482.382 961.373 482.366 960.942 482.226C960.513 482.096 960.139 481.869 959.821 481.546C959.515 481.231 959.308 480.842 959.201 480.381Z" fill="#737373"/>
<path d="M999.171 483.46L952.366 493.36L951.797 490.576L998.603 480.677L999.171 483.46Z" fill="#737373"/>
<path d="M963.521 502.493C963.4 501.803 963.542 501.166 963.949 500.581C964.355 499.997 964.903 499.642 965.593 499.516C966.282 499.39 966.917 499.529 967.498 499.933C968.079 500.337 968.43 500.884 968.552 501.574C968.673 502.264 968.531 502.902 968.124 503.486C967.718 504.071 967.17 504.426 966.481 504.552C966.024 504.635 965.584 504.595 965.161 504.432C964.74 504.278 964.379 504.031 964.079 503.691C963.789 503.359 963.604 502.959 963.521 502.493Z" fill="#737373"/>
<path d="M965.241 513.629C965.138 512.936 965.298 512.303 965.72 511.73C966.142 511.157 966.7 510.817 967.392 510.711C968.085 510.604 968.716 510.761 969.286 511.181C969.856 511.601 970.192 512.157 970.295 512.85C970.399 513.543 970.239 514.176 969.817 514.749C969.395 515.322 968.837 515.662 968.145 515.769C967.686 515.839 967.247 515.787 966.829 515.612C966.412 515.446 966.058 515.19 965.766 514.842C965.486 514.502 965.311 514.097 965.241 513.629Z" fill="#737373"/>
<path d="M966.666 524.807C966.581 524.112 966.758 523.483 967.195 522.923C967.633 522.362 968.199 522.038 968.894 521.95C969.59 521.863 970.217 522.037 970.775 522.472C971.333 522.908 971.655 523.474 971.739 524.169C971.824 524.865 971.647 525.493 971.21 526.054C970.772 526.615 970.206 526.939 969.511 527.027C969.05 527.084 968.613 527.02 968.199 526.834C967.787 526.656 967.44 526.39 967.158 526.034C966.887 525.686 966.723 525.277 966.666 524.807Z" fill="#737373"/>
<path d="M967.793 536.02C967.727 535.323 967.921 534.699 968.373 534.151C968.825 533.603 969.4 533.294 970.098 533.226C970.795 533.158 971.417 533.35 971.964 533.801C972.511 534.251 972.817 534.826 972.882 535.523C972.948 536.221 972.755 536.844 972.302 537.393C971.85 537.941 971.275 538.249 970.578 538.317C970.116 538.362 969.681 538.286 969.272 538.088C968.864 537.899 968.524 537.623 968.252 537.26C967.99 536.905 967.837 536.492 967.793 536.02Z" fill="#737373"/>
<path d="M1007.16 544.612L959.434 547.935L959.243 545.1L1006.97 541.778L1007.16 544.612Z" fill="#737373"/>
<path d="M969.156 558.517C969.128 557.817 969.354 557.205 969.835 556.683C970.317 556.161 970.907 555.885 971.607 555.856C972.308 555.826 972.919 556.052 973.44 556.533C973.962 557.013 974.237 557.603 974.265 558.304C974.293 559.004 974.067 559.615 973.585 560.138C973.104 560.66 972.513 560.936 971.813 560.965C971.35 560.984 970.919 560.884 970.522 560.663C970.125 560.453 969.8 560.158 969.548 559.78C969.306 559.411 969.175 558.99 969.156 558.517Z" fill="#737373"/>
<path d="M969.391 569.785C969.381 569.084 969.624 568.479 970.119 567.97C970.614 567.462 971.212 567.202 971.913 567.193C972.614 567.183 973.218 567.425 973.727 567.92C974.235 568.415 974.494 569.013 974.504 569.714C974.513 570.414 974.27 571.019 973.775 571.528C973.28 572.037 972.682 572.296 971.982 572.306C971.518 572.312 971.09 572.2 970.699 571.968C970.307 571.747 969.991 571.443 969.749 571.058C969.516 570.683 969.397 570.258 969.391 569.785Z" fill="#737373"/>
<path d="M969.327 581.055C969.336 580.354 969.595 579.756 970.104 579.261C970.612 578.767 971.217 578.524 971.918 578.534C972.618 578.544 973.216 578.803 973.711 579.312C974.207 579.82 974.449 580.425 974.44 581.126C974.431 581.827 974.172 582.424 973.663 582.919C973.154 583.414 972.55 583.657 971.849 583.647C971.385 583.641 970.961 583.516 970.576 583.274C970.19 583.041 969.882 582.729 969.651 582.338C969.428 581.956 969.321 581.528 969.327 581.055Z" fill="#737373"/>
<path d="M968.965 592.319C968.993 591.619 969.268 591.029 969.789 590.548C970.311 590.067 970.922 589.842 971.622 589.871C972.322 589.9 972.913 590.176 973.394 590.698C973.876 591.221 974.102 591.832 974.074 592.532C974.046 593.233 973.771 593.823 973.249 594.303C972.727 594.784 972.116 595.01 971.416 594.981C970.953 594.961 970.532 594.825 970.153 594.572C969.775 594.329 969.475 594.009 969.254 593.611C969.042 593.223 968.946 592.792 968.965 592.319Z" fill="#737373"/>
<path d="M1006.97 606.297L959.244 602.974L959.434 600.14L1007.16 603.463L1006.97 606.297Z" fill="#737373"/>
<path d="M967.348 614.798C967.414 614.101 967.72 613.526 968.267 613.075C968.813 612.624 969.435 612.433 970.133 612.501C970.83 612.569 971.405 612.877 971.857 613.426C972.31 613.974 972.503 614.597 972.438 615.295C972.372 615.993 972.066 616.567 971.519 617.018C970.972 617.469 970.35 617.66 969.653 617.592C969.191 617.547 968.778 617.388 968.414 617.114C968.049 616.85 967.767 616.514 967.567 616.104C967.377 615.705 967.304 615.27 967.348 614.798Z" fill="#737373"/>
<path d="M966.093 625.997C966.177 625.301 966.499 624.736 967.057 624.3C967.616 623.864 968.243 623.69 968.938 623.778C969.633 623.865 970.2 624.189 970.637 624.75C971.075 625.311 971.251 625.939 971.167 626.635C971.082 627.331 970.761 627.896 970.202 628.332C969.644 628.768 969.017 628.942 968.322 628.854C967.861 628.796 967.453 628.626 967.096 628.342C966.738 628.068 966.465 627.724 966.277 627.309C966.097 626.904 966.036 626.467 966.093 625.997Z" fill="#737373"/>
<path d="M964.543 637.158C964.646 636.464 964.983 635.908 965.552 635.488C966.122 635.068 966.754 634.911 967.446 635.018C968.139 635.125 968.696 635.464 969.118 636.037C969.541 636.61 969.7 637.243 969.597 637.936C969.494 638.629 969.157 639.186 968.588 639.606C968.018 640.026 967.386 640.183 966.694 640.076C966.235 640.005 965.831 639.823 965.483 639.53C965.132 639.246 964.869 638.894 964.692 638.474C964.523 638.065 964.473 637.626 964.543 637.158Z" fill="#737373"/>
<path d="M962.698 648.272C962.82 647.582 963.171 647.035 963.752 646.631C964.333 646.227 964.968 646.088 965.657 646.214C966.346 646.34 966.894 646.695 967.301 647.279C967.707 647.864 967.85 648.501 967.728 649.191C967.607 649.881 967.255 650.428 966.674 650.832C966.094 651.237 965.458 651.376 964.769 651.25C964.313 651.166 963.914 650.973 963.573 650.67C963.231 650.377 962.977 650.017 962.811 649.593C962.653 649.179 962.616 648.739 962.698 648.272Z" fill="#737373"/>
<path d="M998.607 667.399L951.801 657.499L952.37 654.716L999.175 664.615L998.607 667.399Z" fill="#737373"/>
<path d="M958.127 669.332C958.285 668.649 958.665 668.122 959.267 667.751C959.869 667.379 960.51 667.276 961.191 667.44C961.873 667.604 962.4 667.989 962.775 668.595C963.149 669.201 963.257 669.846 963.098 670.528C962.94 671.211 962.56 671.738 961.958 672.109C961.357 672.481 960.715 672.585 960.034 672.421C959.583 672.312 959.195 672.097 958.871 671.776C958.545 671.463 958.311 671.09 958.169 670.657C958.034 670.235 958.02 669.793 958.127 669.332Z" fill="#737373"/>
<path d="M955.404 680.261C955.581 679.583 955.975 679.066 956.586 678.712C957.197 678.357 957.841 678.271 958.517 678.454C959.194 678.637 959.711 679.036 960.069 679.653C960.427 680.27 960.517 680.917 960.34 681.595C960.163 682.273 959.769 682.789 959.158 683.144C958.547 683.499 957.903 683.585 957.227 683.402C956.779 683.281 956.397 683.055 956.082 682.725C955.765 682.404 955.541 682.024 955.41 681.587C955.286 681.161 955.284 680.719 955.404 680.261Z" fill="#737373"/>
<path d="M952.393 691.112C952.588 690.439 952.995 689.934 953.616 689.596C954.236 689.258 954.882 689.19 955.553 689.392C956.224 689.593 956.73 690.007 957.071 690.633C957.412 691.26 957.485 691.91 957.29 692.583C957.095 693.256 956.687 693.761 956.067 694.099C955.447 694.437 954.801 694.505 954.13 694.303C953.685 694.17 953.31 693.934 953.004 693.594C952.696 693.265 952.482 692.879 952.363 692.438C952.251 692.009 952.261 691.567 952.393 691.112Z" fill="#737373"/>
<path d="M948.144 701.564C948.357 700.896 948.778 700.402 949.407 700.082C950.037 699.761 950.684 699.711 951.349 699.931C952.014 700.151 952.509 700.579 952.833 701.215C953.157 701.85 953.212 702.502 952.999 703.169C952.786 703.837 952.365 704.331 951.736 704.652C951.107 704.972 950.459 705.022 949.794 704.802C949.353 704.657 948.985 704.41 948.688 704.063C948.389 703.724 948.186 703.333 948.079 702.889C947.978 702.457 948 702.015 948.144 701.564Z" fill="#737373"/>
<path d="M981.271 726.468L936.283 710.194L937.22 707.512L982.208 723.786L981.271 726.468Z" fill="#737373"/>
<path d="M940.714 722.755C940.963 722.1 941.41 721.63 942.055 721.344C942.7 721.059 943.349 721.044 944.001 721.301C944.653 721.557 945.123 722.012 945.412 722.665C945.701 723.318 945.721 723.972 945.473 724.627C945.224 725.282 944.777 725.752 944.132 726.038C943.486 726.323 942.838 726.338 942.186 726.081C941.754 725.911 941.399 725.645 941.122 725.281C940.841 724.927 940.66 724.525 940.577 724.075C940.5 723.638 940.546 723.198 940.714 722.755Z" fill="#737373"/>
<path d="M936.578 733.192C936.845 732.543 937.304 732.086 937.956 731.818C938.609 731.55 939.258 731.554 939.902 731.828C940.547 732.103 941.005 732.57 941.276 733.231C941.547 733.892 941.55 734.546 941.283 735.194C941.017 735.843 940.557 736.301 939.905 736.568C939.252 736.836 938.604 736.832 937.959 736.558C937.532 736.376 937.185 736.1 936.918 735.729C936.647 735.367 936.476 734.959 936.406 734.508C936.341 734.068 936.398 733.63 936.578 733.192Z" fill="#737373"/>
<path d="M932.166 743.512C932.45 742.871 932.921 742.426 933.581 742.176C934.24 741.926 934.888 741.948 935.525 742.24C936.162 742.532 936.607 743.012 936.86 743.68C937.113 744.349 937.098 745.003 936.814 745.644C936.53 746.285 936.058 746.73 935.399 746.979C934.74 747.229 934.092 747.208 933.455 746.916C933.033 746.722 932.693 746.436 932.436 746.058C932.176 745.688 932.016 745.276 931.958 744.823C931.905 744.382 931.974 743.945 932.166 743.512Z" fill="#737373"/>
<path d="M927.48 753.708C927.781 753.075 928.265 752.643 928.931 752.412C929.596 752.18 930.243 752.219 930.872 752.529C931.501 752.839 931.932 753.331 932.167 754.006C932.402 754.681 932.369 755.335 932.068 755.968C931.767 756.601 931.283 757.033 930.618 757.264C929.952 757.496 929.305 757.457 928.676 757.147C928.26 756.942 927.928 756.647 927.682 756.262C927.431 755.885 927.283 755.469 927.237 755.013C927.196 754.571 927.277 754.136 927.48 753.708Z" fill="#737373"/>
<path d="M957.182 782.973L914.866 760.656L916.154 758.124L958.471 780.442L957.182 782.973Z" fill="#737373"/>
<path d="M917.302 773.699C917.636 773.084 918.142 772.679 918.819 772.484C919.496 772.289 920.14 772.364 920.751 772.708C921.361 773.052 921.765 773.567 921.963 774.254C922.161 774.942 922.092 775.593 921.757 776.209C921.423 776.824 920.917 777.229 920.24 777.424C919.563 777.619 918.919 777.544 918.308 777.2C917.904 776.973 917.589 776.66 917.364 776.261C917.134 775.871 917.009 775.447 916.988 774.99C916.971 774.545 917.076 774.115 917.302 773.699Z" fill="#737373"/>
<path d="M911.816 783.479C912.167 782.873 912.684 782.482 913.366 782.306C914.048 782.129 914.689 782.222 915.29 782.582C915.891 782.943 916.281 783.469 916.459 784.162C916.638 784.854 916.552 785.504 916.201 786.11C915.85 786.717 915.333 787.108 914.651 787.284C913.969 787.46 913.328 787.368 912.727 787.007C912.329 786.768 912.023 786.447 911.809 786.042C911.59 785.646 911.476 785.219 911.468 784.761C911.463 784.316 911.579 783.889 911.816 783.479Z" fill="#737373"/>
<path d="M906.07 793.106C906.437 792.509 906.964 792.132 907.651 791.975C908.337 791.817 908.975 791.927 909.566 792.304C910.157 792.681 910.532 793.218 910.692 793.915C910.852 794.613 910.748 795.26 910.38 795.856C910.013 796.453 909.486 796.83 908.8 796.987C908.113 797.145 907.475 797.035 906.884 796.658C906.493 796.408 906.196 796.078 905.993 795.668C905.785 795.265 905.683 794.835 905.687 794.377C905.694 793.933 905.821 793.509 906.07 793.106Z" fill="#737373"/>
<path d="M900.067 802.571C900.451 801.985 900.988 801.622 901.678 801.484C902.368 801.345 903.003 801.472 903.584 801.866C904.164 802.259 904.524 802.806 904.665 803.508C904.806 804.209 904.684 804.853 904.301 805.44C903.917 806.026 903.38 806.388 902.69 806.527C902 806.665 901.365 806.538 900.784 806.145C900.4 805.885 900.112 805.547 899.92 805.131C899.723 804.723 899.633 804.29 899.65 803.832C899.669 803.388 899.808 802.967 900.067 802.571Z" fill="#737373"/>
<path d="M925.779 835.666L886.926 807.752L888.545 805.418L927.398 833.332L925.779 835.666Z" fill="#737373"/>
<path d="M888.314 821.992C888.729 821.427 889.285 821.094 889.982 820.994C890.678 820.893 891.305 821.055 891.863 821.479C892.42 821.904 892.75 822.47 892.853 823.178C892.955 823.887 892.799 824.523 892.384 825.088C891.969 825.653 891.413 825.986 890.717 826.086C890.02 826.187 889.393 826.025 888.836 825.6C888.466 825.32 888.197 824.966 888.028 824.54C887.854 824.122 887.788 823.685 887.829 823.228C887.872 822.785 888.034 822.373 888.314 821.992Z" fill="#737373"/>
<path d="M881.57 830.932C882 830.379 882.565 830.062 883.264 829.98C883.963 829.899 884.585 830.078 885.131 830.517C885.677 830.957 885.991 831.532 886.074 832.243C886.157 832.954 885.983 833.586 885.553 834.14C885.123 834.693 884.559 835.01 883.86 835.092C883.161 835.173 882.538 834.994 881.993 834.555C881.631 834.264 881.372 833.903 881.215 833.473C881.052 833.05 880.997 832.611 881.051 832.156C881.107 831.714 881.28 831.306 881.57 830.932Z" fill="#737373"/>
<path d="M874.588 839.685C875.033 839.144 875.606 838.842 876.307 838.779C877.008 838.717 877.625 838.913 878.159 839.367C878.692 839.821 878.991 840.405 879.054 841.118C879.118 841.831 878.927 842.459 878.482 843C878.037 843.541 877.464 843.843 876.763 843.906C876.062 843.968 875.445 843.772 874.912 843.318C874.558 843.017 874.309 842.649 874.164 842.215C874.012 841.787 873.97 841.347 874.036 840.894C874.104 840.454 874.288 840.051 874.588 839.685Z" fill="#737373"/>
<path d="M866.63 847.573C867.09 847.044 867.671 846.758 868.373 846.714C869.075 846.671 869.687 846.884 870.208 847.353C870.729 847.821 871.011 848.413 871.055 849.128C871.099 849.842 870.891 850.464 870.432 850.993C869.972 851.522 869.391 851.808 868.689 851.852C867.987 851.895 867.375 851.682 866.854 851.213C866.51 850.903 866.27 850.529 866.137 850.09C865.997 849.659 865.967 849.217 866.046 848.766C866.125 848.328 866.32 847.93 866.63 847.573Z" fill="#737373"/>
<path d="M886.888 882.871L852.214 849.91L854.134 847.817L888.809 880.778L886.888 882.871Z" fill="#737373"/>
<path d="M852.56 864.035C853.048 863.532 853.643 863.278 854.347 863.273C855.05 863.268 855.649 863.514 856.144 864.01C856.638 864.507 856.888 865.113 856.893 865.829C856.898 866.545 856.656 867.155 856.169 867.658C855.681 868.161 855.085 868.415 854.382 868.42C853.678 868.425 853.079 868.179 852.585 867.682C852.257 867.354 852.039 866.967 851.93 866.522C851.814 866.083 851.808 865.641 851.911 865.194C852.014 864.761 852.23 864.375 852.56 864.035Z" fill="#737373"/>
<path d="M844.697 871.948C845.198 871.458 845.801 871.22 846.504 871.235C847.207 871.249 847.799 871.511 848.28 872.021C848.761 872.531 848.994 873.144 848.979 873.86C848.965 874.576 848.707 875.178 848.205 875.668C847.704 876.158 847.102 876.395 846.398 876.381C845.695 876.367 845.103 876.105 844.622 875.595C844.304 875.257 844.096 874.864 843.999 874.416C843.895 873.975 843.901 873.533 844.016 873.089C844.131 872.659 844.358 872.279 844.697 871.948Z" fill="#737373"/>
<path d="M836.622 879.64C837.137 879.165 837.745 878.944 838.448 878.977C839.151 879.011 839.736 879.289 840.202 879.812C840.669 880.334 840.885 880.953 840.851 881.669C840.817 882.384 840.543 882.979 840.028 883.455C839.514 883.931 838.905 884.152 838.202 884.118C837.5 884.085 836.915 883.807 836.448 883.284C836.139 882.938 835.942 882.539 835.857 882.089C835.766 881.645 835.784 881.203 835.911 880.763C836.038 880.336 836.275 879.962 836.622 879.64Z" fill="#737373"/>
<path d="M828.343 887.107C828.87 886.645 829.484 886.441 830.186 886.493C830.888 886.546 831.465 886.84 831.917 887.376C832.369 887.911 832.568 888.535 832.515 889.249C832.461 889.963 832.17 890.551 831.643 891.013C831.116 891.474 830.501 891.678 829.8 891.626C829.098 891.573 828.521 891.279 828.069 890.744C827.77 890.389 827.584 889.986 827.511 889.533C827.432 889.087 827.461 888.646 827.601 888.209C827.739 887.786 827.986 887.418 828.343 887.107Z" fill="#737373"/>
<path d="M842.746 924.967L812.875 887.597L815.063 885.785L844.934 923.155L842.746 924.967Z" fill="#737373"/>
<path d="M811.192 901.337C811.743 900.905 812.368 900.735 813.066 900.826C813.764 900.917 814.324 901.242 814.746 901.801C815.169 902.36 815.334 902.994 815.241 903.704C815.149 904.414 814.826 904.985 814.275 905.417C813.723 905.849 813.098 906.019 812.4 905.928C811.702 905.837 811.142 905.512 810.72 904.953C810.44 904.583 810.276 904.17 810.229 903.714C810.174 903.264 810.227 902.825 810.39 902.397C810.552 901.982 810.819 901.629 811.192 901.337Z" fill="#737373"/>
<path d="M802.333 908.09C802.896 907.673 803.526 907.52 804.221 907.63C804.916 907.74 805.467 908.08 805.874 908.65C806.281 909.221 806.429 909.859 806.317 910.566C806.205 911.273 805.867 911.835 805.304 912.252C804.74 912.668 804.111 912.822 803.416 912.711C802.721 912.601 802.17 912.261 801.762 911.691C801.493 911.313 801.34 910.896 801.305 910.439C801.262 909.988 801.328 909.551 801.503 909.127C801.675 908.717 801.952 908.371 802.333 908.09Z" fill="#737373"/>
<path d="M793.294 914.594C793.869 914.193 794.502 914.057 795.194 914.186C795.886 914.315 796.428 914.67 796.82 915.251C797.211 915.832 797.341 916.475 797.21 917.178C797.079 917.881 796.726 918.434 796.151 918.835C795.577 919.236 794.943 919.372 794.251 919.243C793.559 919.114 793.017 918.758 792.626 918.177C792.367 917.792 792.226 917.371 792.203 916.914C792.172 916.462 792.25 916.026 792.436 915.608C792.62 915.203 792.906 914.865 793.294 914.594Z" fill="#737373"/>
<path d="M784.081 920.843C784.667 920.458 785.304 920.34 785.992 920.488C786.681 920.636 787.212 921.005 787.588 921.597C787.964 922.189 788.076 922.834 787.926 923.534C787.776 924.233 787.408 924.776 786.822 925.161C786.237 925.546 785.6 925.664 784.912 925.516C784.223 925.368 783.691 924.999 783.316 924.407C783.067 924.015 782.937 923.59 782.927 923.133C782.909 922.68 782.999 922.247 783.196 921.834C783.391 921.434 783.686 921.104 784.081 920.843Z" fill="#737373"/>
<path d="M793.34 960.56L768.802 919.491L771.218 917.996L795.755 959.065L793.34 960.56Z" fill="#737373"/>
<path d="M764.162 932.562C764.767 932.209 765.41 932.126 766.09 932.311C766.769 932.497 767.28 932.895 767.623 933.506C767.966 934.117 768.044 934.768 767.855 935.457C767.667 936.147 767.27 936.669 766.664 937.021C766.059 937.373 765.416 937.456 764.736 937.271C764.057 937.086 763.546 936.687 763.203 936.076C762.976 935.672 762.869 935.241 762.884 934.783C762.89 934.33 763.003 933.903 763.223 933.501C763.439 933.113 763.752 932.8 764.162 932.562Z" fill="#737373"/>
<path d="M754.004 937.135C754.619 936.8 755.264 936.734 755.939 936.938C756.613 937.142 757.113 937.554 757.44 938.174C757.766 938.794 757.826 939.446 757.619 940.131C757.412 940.815 757.001 941.325 756.385 941.661C755.77 941.996 755.125 942.062 754.451 941.858C753.777 941.654 753.276 941.242 752.95 940.622C752.734 940.211 752.639 939.777 752.666 939.32C752.685 938.868 752.81 938.444 753.04 938.049C753.267 937.666 753.588 937.362 754.004 937.135Z" fill="#737373"/>
<path d="M744.19 942.309C744.814 941.991 745.461 941.943 746.129 942.165C746.798 942.387 747.287 942.813 747.597 943.441C747.906 944.07 747.948 944.724 747.723 945.402C747.497 946.08 747.072 946.579 746.448 946.897C745.824 947.215 745.177 947.263 744.508 947.041C743.84 946.819 743.351 946.393 743.041 945.764C742.836 945.348 742.754 944.912 742.793 944.456C742.824 944.004 742.96 943.584 743.202 943.195C743.439 942.819 743.768 942.524 744.19 942.309Z" fill="#737373"/>
<path d="M734.239 947.206C734.871 946.905 735.519 946.875 736.182 947.116C736.844 947.356 737.322 947.795 737.614 948.432C737.907 949.069 737.931 949.723 737.687 950.395C737.443 951.066 737.005 951.553 736.372 951.854C735.739 952.155 735.091 952.185 734.429 951.944C733.766 951.704 733.289 951.265 732.996 950.628C732.803 950.206 732.732 949.768 732.784 949.314C732.827 948.863 732.974 948.447 733.226 948.065C733.474 947.696 733.811 947.41 734.239 947.206Z" fill="#737373"/>
<path d="M739.192 988.036L720.414 944.035L723.012 942.886L741.791 986.888L739.192 988.036Z" fill="#737373"/>
<path d="M714.953 956.156C715.601 955.891 716.25 955.896 716.899 956.173C717.548 956.449 718.001 956.913 718.259 957.565C718.516 958.217 718.505 958.871 718.225 959.528C717.945 960.185 717.481 960.646 716.832 960.912C716.184 961.177 715.535 961.172 714.886 960.895C714.237 960.619 713.784 960.154 713.526 959.503C713.356 959.071 713.309 958.63 713.385 958.179C713.453 957.732 713.622 957.325 713.895 956.957C714.162 956.603 714.514 956.335 714.953 956.156Z" fill="#737373"/>
<path d="M704.633 960.201C705.289 959.954 705.937 959.977 706.579 960.272C707.22 960.566 707.661 961.042 707.901 961.701C708.14 962.359 708.111 963.013 707.814 963.661C707.516 964.31 707.039 964.758 706.384 965.006C705.728 965.253 705.08 965.23 704.438 964.936C703.797 964.641 703.356 964.165 703.116 963.507C702.957 963.071 702.922 962.628 703.011 962.18C703.091 961.735 703.272 961.333 703.554 960.973C703.83 960.626 704.19 960.368 704.633 960.201Z" fill="#737373"/>
<path d="M694.207 963.955C694.869 963.726 695.517 963.767 696.15 964.079C696.783 964.391 697.211 964.879 697.433 965.544C697.655 966.209 697.609 966.861 697.293 967.501C696.978 968.141 696.489 968.576 695.827 968.805C695.165 969.035 694.517 968.993 693.884 968.681C693.251 968.37 692.823 967.881 692.601 967.217C692.454 966.777 692.431 966.334 692.531 965.888C692.623 965.445 692.815 965.048 693.107 964.697C693.393 964.357 693.759 964.11 694.207 963.955Z" fill="#737373"/>
<path d="M683.681 967.415C684.35 967.205 684.996 967.264 685.621 967.593C686.246 967.922 686.66 968.422 686.864 969.092C687.069 969.763 687.004 970.413 686.672 971.045C686.339 971.676 685.839 972.097 685.171 972.307C684.502 972.518 683.856 972.459 683.231 972.13C682.606 971.801 682.192 971.301 681.988 970.631C681.852 970.187 681.841 969.743 681.954 969.301C682.058 968.861 682.26 968.469 682.561 968.126C682.856 967.795 683.23 967.558 683.681 967.415Z" fill="#737373"/>
<path d="M682.223 1008.63L669.525 962.506L672.257 961.727L684.955 1007.85L682.223 1008.63Z" fill="#737373"/>
<path d="M662.365 974.442C663.044 974.269 663.686 974.364 664.293 974.727C664.899 975.09 665.286 975.612 665.454 976.292C665.622 976.972 665.523 977.618 665.157 978.23C664.79 978.841 664.268 979.234 663.589 979.407C662.91 979.581 662.267 979.486 661.661 979.123C661.054 978.76 660.667 978.238 660.5 977.557C660.388 977.107 660.401 976.664 660.538 976.228C660.665 975.795 660.888 975.416 661.208 975.09C661.52 974.775 661.906 974.559 662.365 974.442Z" fill="#737373"/>
<path d="M651.592 977.004C652.275 976.85 652.915 976.962 653.512 977.342C654.108 977.722 654.481 978.254 654.63 978.938C654.78 979.623 654.663 980.266 654.281 980.867C653.898 981.468 653.365 981.846 652.682 982C651.998 982.155 651.358 982.042 650.762 981.662C650.165 981.283 649.792 980.75 649.643 980.066C649.544 979.612 649.568 979.17 649.717 978.739C649.855 978.309 650.089 977.936 650.417 977.619C650.738 977.313 651.13 977.108 651.592 977.004Z" fill="#737373"/>
<path d="M640.751 979.262C641.439 979.126 642.076 979.256 642.662 979.652C643.248 980.048 643.607 980.591 643.737 981.279C643.868 981.967 643.735 982.607 643.336 983.197C642.937 983.787 642.394 984.15 641.707 984.285C641.019 984.421 640.382 984.29 639.796 983.894C639.21 983.498 638.851 982.956 638.72 982.268C638.634 981.812 638.67 981.37 638.83 980.943C638.98 980.518 639.224 980.151 639.561 979.844C639.89 979.547 640.287 979.353 640.751 979.262Z" fill="#737373"/>
<path d="M629.853 981.213C630.544 981.097 631.177 981.245 631.752 981.657C632.328 982.069 632.672 982.621 632.784 983.313C632.896 984.004 632.745 984.64 632.331 985.218C631.917 985.797 631.364 986.145 630.673 986.261C629.982 986.377 629.349 986.229 628.773 985.817C628.198 985.405 627.854 984.853 627.741 984.162C627.667 983.704 627.715 983.263 627.887 982.841C628.048 982.42 628.302 982.06 628.647 981.762C628.984 981.475 629.386 981.292 629.853 981.213Z" fill="#737373"/>
<path d="M622.996 1021.08L616.593 973.665L619.407 973.271L625.809 1020.68L622.996 1021.08Z" fill="#737373"/>
<path d="M607.916 984.193C608.612 984.115 609.237 984.298 609.789 984.741C610.342 985.185 610.656 985.755 610.731 986.451C610.806 987.148 610.621 987.774 610.176 988.329C609.731 988.883 609.16 989.2 608.464 989.277C607.767 989.355 607.143 989.172 606.59 988.729C606.038 988.286 605.724 987.716 605.649 987.019C605.599 986.558 605.671 986.121 605.865 985.709C606.049 985.297 606.321 984.952 606.682 984.674C607.034 984.406 607.445 984.246 607.916 984.193Z" fill="#737373"/>
<path d="M596.894 985.218C597.593 985.16 598.212 985.36 598.753 985.818C599.293 986.277 599.592 986.855 599.648 987.554C599.704 988.252 599.503 988.873 599.043 989.415C598.583 989.957 598.004 990.257 597.306 990.315C596.607 990.374 595.988 990.174 595.447 989.715C594.907 989.257 594.608 988.678 594.552 987.98C594.515 987.517 594.598 987.083 594.803 986.676C594.998 986.27 595.28 985.933 595.648 985.665C596.007 985.406 596.423 985.258 596.894 985.218Z" fill="#737373"/>
<path d="M585.848 985.933C586.548 985.894 587.162 986.111 587.69 986.584C588.218 987.058 588.501 987.644 588.538 988.344C588.576 989.044 588.358 989.658 587.883 990.187C587.409 990.716 586.822 991 586.123 991.039C585.423 991.078 584.809 990.861 584.281 990.388C583.753 989.914 583.47 989.328 583.433 988.628C583.408 988.165 583.503 987.733 583.719 987.332C583.925 986.931 584.215 986.602 584.59 986.344C584.956 986.096 585.376 985.959 585.848 985.933Z" fill="#737373"/>
<path d="M574.787 986.336C575.488 986.316 576.096 986.55 576.611 987.038C577.126 987.526 577.393 988.12 577.412 988.821C577.431 989.521 577.196 990.129 576.708 990.645C576.22 991.16 575.625 991.428 574.925 991.447C574.224 991.467 573.616 991.233 573.101 990.745C572.586 990.257 572.319 989.663 572.3 988.963C572.288 988.499 572.395 988.07 572.621 987.675C572.838 987.28 573.137 986.959 573.519 986.712C573.891 986.474 574.314 986.349 574.787 986.336Z" fill="#737373"/>
</svg>
