<svg width="1129" height="1024" viewBox="0 0 1129 1024" fill="none" xmlns="http://www.w3.org/2000/svg">
<path d="M562.588 950.466V902.625H565.429V950.466H562.588Z" fill="#737373"/>
<path d="M550.653 913.206C551.354 913.225 551.948 913.493 552.436 914.009C552.924 914.524 553.159 915.132 553.14 915.833C553.122 916.533 552.855 917.128 552.339 917.615C551.824 918.103 551.216 918.337 550.516 918.318C549.815 918.298 549.221 918.031 548.733 917.515C548.245 916.999 548.01 916.391 548.029 915.691C548.041 915.227 548.171 914.804 548.418 914.423C548.656 914.041 548.972 913.737 549.366 913.511C549.751 913.295 550.18 913.193 550.653 913.206Z" fill="#737373"/>
<path d="M539.597 912.673C540.297 912.712 540.884 912.996 541.358 913.525C541.832 914.054 542.051 914.669 542.013 915.369C541.975 916.068 541.693 916.655 541.165 917.128C540.636 917.601 540.023 917.819 539.323 917.78C538.623 917.741 538.036 917.457 537.562 916.928C537.088 916.399 536.87 915.784 536.907 915.084C536.932 914.621 537.073 914.202 537.33 913.828C537.578 913.452 537.902 913.158 538.303 912.943C538.693 912.737 539.125 912.647 539.597 912.673Z" fill="#737373"/>
<path d="M528.561 911.83C529.259 911.888 529.838 912.188 530.298 912.73C530.757 913.272 530.959 913.893 530.903 914.591C530.846 915.29 530.548 915.868 530.007 916.327C529.467 916.785 528.848 916.985 528.149 916.927C527.451 916.868 526.872 916.568 526.412 916.026C525.952 915.484 525.751 914.864 525.807 914.165C525.844 913.703 525.997 913.288 526.264 912.921C526.521 912.552 526.853 912.267 527.259 912.063C527.655 911.868 528.089 911.79 528.561 911.83Z" fill="#737373"/>
<path d="M517.551 910.675C518.248 910.753 518.818 911.069 519.263 911.624C519.708 912.179 519.893 912.804 519.818 913.501C519.743 914.198 519.429 914.768 518.877 915.211C518.324 915.654 517.7 915.837 517.003 915.759C516.307 915.682 515.736 915.365 515.291 914.811C514.846 914.256 514.661 913.63 514.736 912.934C514.786 912.472 514.949 912.062 515.226 911.702C515.494 911.341 515.833 911.065 516.244 910.872C516.645 910.688 517.081 910.623 517.551 910.675Z" fill="#737373"/>
<path d="M502.312 947.684L508.714 900.273L511.528 900.667L505.126 948.077L502.312 947.684Z" fill="#737373"/>
<path d="M495.649 907.439C496.34 907.555 496.893 907.903 497.308 908.481C497.722 909.06 497.873 909.695 497.761 910.387C497.648 911.079 497.304 911.63 496.729 912.042C496.153 912.455 495.52 912.602 494.829 912.486C494.138 912.37 493.585 912.022 493.171 911.444C492.757 910.865 492.606 910.23 492.718 909.538C492.792 909.08 492.977 908.679 493.273 908.335C493.56 907.99 493.913 907.732 494.334 907.563C494.744 907.401 495.183 907.36 495.649 907.439Z" fill="#737373"/>
<path d="M484.774 905.359C485.461 905.495 486.004 905.858 486.403 906.448C486.801 907.038 486.935 907.677 486.804 908.365C486.673 909.054 486.315 909.596 485.729 909.992C485.142 910.388 484.506 910.518 483.818 910.383C483.13 910.247 482.587 909.885 482.189 909.295C481.79 908.705 481.656 908.065 481.787 907.377C481.874 906.921 482.07 906.525 482.374 906.19C482.67 905.852 483.03 905.605 483.456 905.447C483.87 905.297 484.309 905.268 484.774 905.359Z" fill="#737373"/>
<path d="M473.959 902.975C474.643 903.129 475.176 903.507 475.558 904.108C475.941 904.709 476.057 905.352 475.908 906.036C475.759 906.721 475.386 907.253 474.789 907.633C474.193 908.013 473.553 908.125 472.869 907.971C472.185 907.816 471.652 907.438 471.27 906.837C470.887 906.236 470.771 905.594 470.92 904.909C471.019 904.456 471.225 904.065 471.539 903.738C471.844 903.409 472.21 903.172 472.64 903.026C473.057 902.887 473.497 902.87 473.959 902.975Z" fill="#737373"/>
<path d="M463.214 900.287C463.893 900.46 464.416 900.853 464.782 901.464C465.148 902.076 465.247 902.722 465.079 903.402C464.912 904.082 464.524 904.604 463.918 904.967C463.312 905.33 462.669 905.425 461.99 905.252C461.311 905.078 460.788 904.686 460.422 904.074C460.056 903.463 459.957 902.817 460.125 902.137C460.236 901.686 460.453 901.302 460.775 900.983C461.088 900.662 461.461 900.435 461.894 900.301C462.315 900.174 462.755 900.17 463.214 900.287Z" fill="#737373"/>
<path d="M443.166 934.857L455.864 888.731L458.596 889.511L445.898 935.636L443.166 934.857Z" fill="#737373"/>
<path d="M441.967 894.01C442.635 894.221 443.136 894.642 443.468 895.273C443.801 895.904 443.865 896.555 443.661 897.225C443.457 897.896 443.042 898.395 442.417 898.725C441.793 899.054 441.146 899.113 440.478 898.902C439.809 898.691 439.309 898.27 438.977 897.639C438.644 897.008 438.58 896.357 438.784 895.687C438.919 895.243 439.156 894.871 439.495 894.571C439.825 894.268 440.209 894.061 440.649 893.952C441.076 893.848 441.516 893.868 441.967 894.01Z" fill="#737373"/>
<path d="M431.481 890.427C432.143 890.656 432.632 891.091 432.947 891.731C433.262 892.371 433.309 893.023 433.087 893.688C432.865 894.353 432.437 894.841 431.804 895.153C431.17 895.465 430.522 895.506 429.86 895.277C429.198 895.048 428.709 894.613 428.394 893.973C428.079 893.332 428.032 892.68 428.254 892.015C428.401 891.575 428.648 891.21 428.995 890.919C429.333 890.625 429.723 890.429 430.165 890.332C430.595 890.24 431.033 890.272 431.481 890.427Z" fill="#737373"/>
<path d="M421.098 886.55C421.753 886.798 422.23 887.246 422.528 887.895C422.825 888.544 422.854 889.197 422.614 889.856C422.374 890.514 421.934 890.99 421.292 891.285C420.651 891.579 420.003 891.602 419.347 891.355C418.691 891.108 418.215 890.659 417.917 890.011C417.619 889.362 417.59 888.708 417.83 888.05C417.989 887.614 418.246 887.255 418.6 886.974C418.946 886.689 419.341 886.505 419.785 886.419C420.217 886.339 420.655 886.383 421.098 886.55Z" fill="#737373"/>
<path d="M410.824 882.384C411.472 882.65 411.937 883.111 412.217 883.768C412.497 884.425 412.508 885.079 412.25 885.731C411.993 886.383 411.539 886.847 410.89 887.123C410.241 887.4 409.593 887.405 408.944 887.14C408.296 886.874 407.831 886.413 407.551 885.756C407.271 885.099 407.26 884.445 407.518 883.793C407.688 883.362 407.955 883.01 408.316 882.739C408.669 882.464 409.069 882.29 409.515 882.217C409.949 882.149 410.386 882.205 410.824 882.384Z" fill="#737373"/>
<path d="M386.329 913.895L405.107 869.893L407.706 871.042L388.928 915.043L386.329 913.895Z" fill="#737373"/>
<path d="M390.639 873.197C391.272 873.497 391.71 873.984 391.954 874.655C392.198 875.327 392.174 875.981 391.882 876.618C391.589 877.255 391.112 877.694 390.449 877.934C389.786 878.175 389.139 878.145 388.506 877.844C387.873 877.543 387.435 877.057 387.191 876.385C386.947 875.713 386.971 875.059 387.264 874.422C387.457 874 387.742 873.664 388.118 873.413C388.485 873.158 388.893 873.006 389.343 872.957C389.779 872.913 390.212 872.993 390.639 873.197Z" fill="#737373"/>
<path d="M380.743 868.183C381.368 868.501 381.793 868.999 382.018 869.677C382.244 870.356 382.202 871.009 381.892 871.638C381.583 872.267 381.094 872.692 380.425 872.915C379.756 873.137 379.11 873.089 378.485 872.771C377.861 872.452 377.436 871.954 377.211 871.276C376.985 870.597 377.027 869.944 377.337 869.315C377.541 868.899 377.835 868.57 378.217 868.329C378.591 868.084 379.004 867.944 379.454 867.908C379.892 867.876 380.322 867.967 380.743 868.183Z" fill="#737373"/>
<path d="M370.988 862.894C371.603 863.229 372.014 863.739 372.221 864.423C372.428 865.108 372.368 865.76 372.042 866.38C371.716 867 371.215 867.412 370.541 867.616C369.867 867.82 369.222 867.754 368.607 867.419C367.991 867.084 367.58 866.574 367.373 865.889C367.166 865.205 367.226 864.553 367.552 863.933C367.768 863.522 368.071 863.201 368.459 862.971C368.84 862.736 369.256 862.607 369.707 862.584C370.145 862.564 370.572 862.667 370.988 862.894Z" fill="#737373"/>
<path d="M360.892 858.206C361.498 858.559 361.895 859.08 362.083 859.77C362.271 860.46 362.194 861.11 361.851 861.721C361.508 862.332 360.996 862.731 360.317 862.916C359.637 863.101 358.995 863.018 358.389 862.666C357.783 862.313 357.386 861.792 357.198 861.102C357.01 860.412 357.087 859.762 357.43 859.151C357.657 858.746 357.968 858.434 358.363 858.215C358.749 857.99 359.168 857.872 359.62 857.861C360.059 857.853 360.483 857.968 360.892 858.206Z" fill="#737373"/>
<path d="M332.364 886.074L356.901 845.005L359.317 846.5L334.779 887.569L332.364 886.074Z" fill="#737373"/>
<path d="M342.105 846.267C342.69 846.652 343.058 847.194 343.209 847.894C343.359 848.593 343.246 849.239 342.871 849.83C342.495 850.422 341.963 850.792 341.275 850.94C340.586 851.088 339.95 850.969 339.364 850.584C338.779 850.199 338.411 849.657 338.26 848.957C338.11 848.258 338.223 847.612 338.598 847.02C338.847 846.629 339.174 846.334 339.58 846.136C339.978 845.933 340.403 845.839 340.854 845.852C341.292 845.868 341.709 846.007 342.105 846.267Z" fill="#737373"/>
<path d="M332.963 839.909C333.537 840.31 333.89 840.862 334.021 841.566C334.153 842.269 334.023 842.911 333.631 843.493C333.24 844.074 332.698 844.429 332.006 844.558C331.314 844.687 330.68 844.551 330.106 844.15C329.531 843.749 329.178 843.197 329.047 842.493C328.916 841.79 329.046 841.147 329.437 840.566C329.697 840.181 330.032 839.896 330.443 839.709C330.846 839.517 331.273 839.434 331.724 839.46C332.161 839.488 332.574 839.638 332.963 839.909Z" fill="#737373"/>
<path d="M323.997 833.299C324.56 833.716 324.898 834.277 325.01 834.984C325.122 835.691 324.974 836.33 324.567 836.9C324.16 837.471 323.609 837.811 322.914 837.921C322.219 838.031 321.589 837.878 321.026 837.461C320.462 837.044 320.125 836.483 320.013 835.776C319.901 835.069 320.048 834.43 320.456 833.86C320.725 833.482 321.068 833.206 321.484 833.03C321.892 832.85 322.321 832.778 322.771 832.816C323.207 832.857 323.616 833.017 323.997 833.299Z" fill="#737373"/>
<path d="M315.214 826.442C315.766 826.874 316.088 827.445 316.181 828.155C316.274 828.865 316.109 829.499 315.686 830.058C315.264 830.617 314.704 830.942 314.006 831.033C313.308 831.124 312.683 830.954 312.131 830.522C311.58 830.09 311.257 829.519 311.165 828.809C311.072 828.1 311.237 827.465 311.66 826.906C311.939 826.536 312.29 826.269 312.71 826.105C313.123 825.935 313.554 825.876 314.002 825.926C314.438 825.978 314.842 826.15 315.214 826.442Z" fill="#737373"/>
<path d="M283.184 850.167L313.055 812.797L315.243 814.609L285.372 851.978L283.184 850.167Z" fill="#737373"/>
<path d="M298.224 812.011C298.751 812.472 299.042 813.06 299.096 813.774C299.149 814.488 298.95 815.113 298.498 815.648C298.045 816.183 297.468 816.477 296.767 816.53C296.065 816.583 295.451 816.378 294.924 815.917C294.396 815.455 294.106 814.868 294.052 814.154C293.998 813.44 294.198 812.815 294.65 812.28C294.949 811.925 295.313 811.678 295.742 811.537C296.164 811.39 296.597 811.354 297.042 811.429C297.474 811.505 297.868 811.699 298.224 812.011Z" fill="#737373"/>
<path d="M290.029 804.447C290.544 804.923 290.818 805.519 290.852 806.234C290.886 806.949 290.67 807.568 290.203 808.091C289.737 808.613 289.152 808.892 288.449 808.925C287.746 808.959 287.138 808.738 286.623 808.262C286.109 807.786 285.835 807.191 285.8 806.475C285.766 805.76 285.982 805.141 286.449 804.619C286.758 804.272 287.129 804.035 287.561 803.906C287.987 803.771 288.421 803.747 288.863 803.834C289.293 803.921 289.681 804.126 290.029 804.447Z" fill="#737373"/>
<path d="M282.041 796.66C282.543 797.15 282.801 797.753 282.815 798.468C282.83 799.184 282.597 799.797 282.116 800.307C281.635 800.817 281.043 801.079 280.34 801.093C279.637 801.108 279.034 800.87 278.533 800.38C278.032 799.891 277.774 799.288 277.759 798.572C277.744 797.856 277.978 797.243 278.458 796.734C278.777 796.396 279.154 796.169 279.589 796.052C280.018 795.928 280.453 795.916 280.893 796.015C281.32 796.114 281.703 796.329 282.041 796.66Z" fill="#737373"/>
<path d="M274.268 788.655C274.756 789.158 274.997 789.768 274.992 790.484C274.987 791.2 274.738 791.806 274.243 792.302C273.749 792.799 273.15 793.045 272.446 793.04C271.743 793.035 271.147 792.781 270.659 792.278C270.172 791.775 269.93 791.165 269.935 790.449C269.94 789.733 270.19 789.127 270.684 788.63C271.012 788.302 271.395 788.085 271.834 787.98C272.266 787.868 272.7 787.867 273.138 787.978C273.562 788.089 273.938 788.315 274.268 788.655Z" fill="#737373"/>
<path d="M239.306 807.791L273.981 774.83L275.902 776.924L241.227 809.884L239.306 807.791Z" fill="#737373"/>
<path d="M259.384 772.016C259.844 772.545 260.051 773.167 260.007 773.881C259.963 774.596 259.681 775.188 259.16 775.656C258.639 776.125 258.027 776.338 257.325 776.295C256.623 776.251 256.042 775.965 255.583 775.436C255.123 774.907 254.915 774.285 254.959 773.571C255.003 772.856 255.286 772.264 255.807 771.796C256.152 771.485 256.546 771.29 256.99 771.209C257.428 771.121 257.862 771.144 258.292 771.279C258.71 771.413 259.073 771.658 259.384 772.016Z" fill="#737373"/>
<path d="M251.522 764.043C251.967 764.585 252.158 765.212 252.095 765.925C252.031 766.638 251.733 767.222 251.199 767.676C250.666 768.13 250.048 768.326 249.348 768.264C248.647 768.201 248.074 767.9 247.629 767.358C247.184 766.817 246.993 766.19 247.057 765.477C247.12 764.763 247.419 764.18 247.952 763.725C248.306 763.425 248.705 763.24 249.151 763.171C249.591 763.095 250.024 763.13 250.451 763.277C250.865 763.422 251.222 763.677 251.522 764.043Z" fill="#737373"/>
<path d="M244.64 755.209C245.07 755.763 245.244 756.395 245.161 757.106C245.078 757.817 244.763 758.392 244.218 758.832C243.672 759.271 243.049 759.45 242.351 759.368C241.652 759.287 241.087 758.97 240.657 758.416C240.227 757.863 240.053 757.231 240.136 756.52C240.219 755.809 240.534 755.234 241.079 754.794C241.441 754.503 241.845 754.329 242.293 754.273C242.735 754.209 243.167 754.256 243.59 754.414C243.999 754.57 244.349 754.835 244.64 755.209Z" fill="#737373"/>
<path d="M237.997 746.189C238.412 746.754 238.568 747.39 238.466 748.099C238.364 748.807 238.034 749.374 237.476 749.798C236.919 750.222 236.291 750.384 235.595 750.284C234.898 750.183 234.343 749.85 233.928 749.286C233.513 748.721 233.357 748.084 233.459 747.376C233.561 746.667 233.891 746.101 234.449 745.677C234.818 745.396 235.227 745.233 235.677 745.189C236.12 745.137 236.551 745.196 236.969 745.365C237.374 745.533 237.717 745.808 237.997 746.189Z" fill="#737373"/>
<path d="M200.716 760.346L239.569 732.432L241.188 734.767L202.335 762.681L200.716 760.346Z" fill="#737373"/>
<path d="M225.452 727.619C225.835 728.205 225.957 728.849 225.816 729.551C225.675 730.253 225.315 730.8 224.734 731.193C224.154 731.586 223.519 731.713 222.829 731.575C222.139 731.436 221.602 731.074 221.218 730.487C220.835 729.901 220.713 729.257 220.854 728.555C220.995 727.854 221.355 727.306 221.935 726.913C222.32 726.653 222.737 726.513 223.188 726.494C223.634 726.466 224.061 726.548 224.47 726.74C224.865 726.93 225.192 727.223 225.452 727.619Z" fill="#737373"/>
<path d="M219.557 718.083C219.924 718.68 220.028 719.327 219.868 720.024C219.708 720.721 219.333 721.258 218.742 721.635C218.152 722.012 217.513 722.122 216.827 721.965C216.14 721.807 215.613 721.431 215.246 720.834C214.878 720.237 214.775 719.59 214.934 718.893C215.094 718.196 215.47 717.658 216.06 717.282C216.451 717.032 216.873 716.903 217.324 716.896C217.771 716.881 218.196 716.975 218.599 717.178C218.989 717.378 219.308 717.68 219.557 718.083Z" fill="#737373"/>
<path d="M213.919 708.389C214.271 708.996 214.357 709.645 214.178 710.338C213.999 711.03 213.609 711.557 213.008 711.917C212.408 712.278 211.766 712.37 211.084 712.194C210.402 712.018 209.886 711.627 209.535 711.02C209.183 710.414 209.097 709.765 209.276 709.072C209.455 708.38 209.845 707.853 210.445 707.492C210.843 707.254 211.268 707.137 211.72 707.142C212.166 707.139 212.589 707.244 212.986 707.459C213.371 707.669 213.682 707.98 213.919 708.389Z" fill="#737373"/>
<path d="M208.544 698.545C208.879 699.161 208.947 699.812 208.749 700.499C208.552 701.187 208.148 701.702 207.537 702.046C206.927 702.39 206.283 702.465 205.606 702.27C204.929 702.075 204.423 701.67 204.088 701.054C203.753 700.439 203.685 699.787 203.883 699.1C204.08 698.413 204.484 697.897 205.095 697.553C205.499 697.326 205.927 697.221 206.378 697.238C206.825 697.247 207.244 697.364 207.636 697.589C208.015 697.811 208.318 698.129 208.544 698.545Z" fill="#737373"/>
<path d="M169.641 707.457L211.957 685.14L213.246 687.672L170.93 709.989L169.641 707.457Z" fill="#737373"/>
<path d="M198.591 678.435C198.892 679.068 198.926 679.722 198.691 680.397C198.456 681.072 198.024 681.564 197.396 681.874C196.767 682.183 196.12 682.222 195.454 681.991C194.788 681.759 194.305 681.327 194.004 680.694C193.703 680.062 193.67 679.408 193.905 678.733C194.14 678.058 194.571 677.565 195.2 677.256C195.616 677.05 196.049 676.969 196.499 677.011C196.945 677.045 197.358 677.185 197.737 677.431C198.103 677.673 198.388 678.007 198.591 678.435Z" fill="#737373"/>
<path d="M194.021 668.183C194.305 668.824 194.32 669.479 194.068 670.147C193.815 670.815 193.37 671.295 192.733 671.587C192.096 671.88 191.448 671.901 190.788 671.651C190.129 671.402 189.657 670.956 189.373 670.316C189.09 669.675 189.074 669.02 189.327 668.352C189.58 667.684 190.025 667.204 190.662 666.912C191.084 666.718 191.519 666.649 191.968 666.703C192.413 666.749 192.822 666.9 193.194 667.157C193.554 667.408 193.83 667.751 194.021 668.183Z" fill="#737373"/>
<path d="M189.726 657.812C189.992 658.46 189.99 659.114 189.719 659.775C189.448 660.436 188.99 660.903 188.345 661.178C187.7 661.452 187.052 661.456 186.399 661.188C185.747 660.92 185.287 660.463 185.021 659.814C184.754 659.166 184.757 658.512 185.028 657.851C185.299 657.19 185.757 656.722 186.402 656.448C186.829 656.266 187.266 656.209 187.713 656.276C188.156 656.334 188.561 656.496 188.926 656.763C189.279 657.024 189.546 657.374 189.726 657.812Z" fill="#737373"/>
<path d="M185.709 647.327C185.958 647.982 185.938 648.636 185.649 649.289C185.36 649.942 184.889 650.396 184.237 650.653C183.585 650.909 182.937 650.895 182.291 650.609C181.646 650.324 181.199 649.854 180.95 649.199C180.702 648.543 180.722 647.889 181.011 647.236C181.299 646.584 181.77 646.129 182.422 645.872C182.854 645.702 183.292 645.657 183.738 645.736C184.18 645.807 184.58 645.98 184.938 646.256C185.284 646.527 185.541 646.884 185.709 647.327Z" fill="#737373"/>
<path d="M145.902 650.802L190.89 634.529L191.826 637.211L146.838 653.484L145.902 650.802Z" fill="#737373"/>
<path d="M178.518 626.049C178.731 626.716 178.676 627.368 178.352 628.003C178.028 628.639 177.533 629.067 176.868 629.287C176.203 629.507 175.555 629.457 174.926 629.136C174.297 628.816 173.876 628.322 173.663 627.654C173.45 626.987 173.505 626.335 173.829 625.699C174.153 625.064 174.648 624.636 175.313 624.416C175.753 624.27 176.194 624.249 176.635 624.353C177.072 624.447 177.463 624.642 177.805 624.938C178.136 625.227 178.374 625.597 178.518 626.049Z" fill="#737373"/>
<path d="M174.392 615.559C174.587 616.232 174.514 616.881 174.173 617.508C173.832 618.134 173.326 618.548 172.655 618.749C171.983 618.951 171.338 618.883 170.717 618.545C170.097 618.207 169.689 617.702 169.494 617.029C169.299 616.356 169.372 615.706 169.713 615.08C170.054 614.453 170.56 614.039 171.231 613.838C171.676 613.705 172.117 613.696 172.554 613.811C172.989 613.918 173.374 614.124 173.709 614.429C174.032 614.727 174.26 615.104 174.392 615.559Z" fill="#737373"/>
<path d="M171.503 604.672C171.68 605.35 171.589 605.998 171.231 606.614C170.874 607.231 170.356 607.631 169.68 607.813C169.003 607.996 168.36 607.91 167.748 607.555C167.137 607.201 166.743 606.684 166.566 606.006C166.389 605.328 166.48 604.681 166.838 604.064C167.196 603.448 167.713 603.048 168.389 602.865C168.837 602.744 169.278 602.748 169.713 602.875C170.145 602.994 170.524 603.21 170.851 603.524C171.166 603.831 171.383 604.214 171.503 604.672Z" fill="#737373"/>
<path d="M168.904 593.712C169.062 594.394 168.955 595.039 168.58 595.645C168.206 596.251 167.678 596.636 166.997 596.8C166.315 596.964 165.674 596.861 165.072 596.489C164.471 596.118 164.091 595.591 163.932 594.908C163.774 594.226 163.882 593.581 164.256 592.975C164.63 592.369 165.158 591.983 165.839 591.819C166.291 591.711 166.732 591.726 167.163 591.866C167.592 591.997 167.965 592.223 168.283 592.546C168.59 592.862 168.797 593.25 168.904 593.712Z" fill="#737373"/>
<path d="M128.933 591.632L175.738 581.733L176.307 584.516L129.501 594.416L128.933 591.632Z" fill="#737373"/>
<path d="M164.583 571.599C164.704 572.289 164.562 572.927 164.155 573.511C163.749 574.096 163.201 574.451 162.511 574.577C161.822 574.703 161.187 574.564 160.606 574.159C160.025 573.755 159.674 573.208 159.552 572.518C159.431 571.828 159.573 571.191 159.98 570.606C160.386 570.022 160.934 569.667 161.623 569.541C162.08 569.457 162.52 569.497 162.943 569.661C163.364 569.815 163.725 570.062 164.025 570.402C164.315 570.734 164.5 571.133 164.583 571.599Z" fill="#737373"/>
<path d="M162.863 560.463C162.966 561.156 162.806 561.789 162.384 562.362C161.962 562.935 161.404 563.275 160.712 563.382C160.019 563.488 159.388 563.332 158.818 562.912C158.248 562.492 157.912 561.935 157.809 561.242C157.705 560.549 157.865 559.916 158.287 559.343C158.709 558.77 159.267 558.43 159.959 558.324C160.418 558.253 160.857 558.305 161.275 558.48C161.692 558.646 162.046 558.903 162.338 559.251C162.618 559.591 162.793 559.995 162.863 560.463Z" fill="#737373"/>
<path d="M161.439 549.285C161.523 549.981 161.347 550.609 160.909 551.17C160.472 551.731 159.905 552.055 159.21 552.142C158.515 552.23 157.888 552.056 157.33 551.62C156.771 551.184 156.45 550.619 156.365 549.923C156.281 549.227 156.457 548.599 156.895 548.038C157.332 547.477 157.899 547.153 158.594 547.066C159.054 547.008 159.491 547.072 159.905 547.259C160.318 547.436 160.665 547.703 160.947 548.059C161.218 548.406 161.382 548.815 161.439 549.285Z" fill="#737373"/>
<path d="M160.311 538.072C160.377 538.77 160.183 539.393 159.731 539.941C159.279 540.49 158.704 540.798 158.006 540.866C157.309 540.934 156.687 540.743 156.14 540.292C155.593 539.841 155.287 539.267 155.222 538.569C155.156 537.871 155.349 537.248 155.802 536.7C156.254 536.151 156.829 535.843 157.526 535.775C157.988 535.73 158.423 535.806 158.832 536.004C159.24 536.193 159.58 536.469 159.852 536.833C160.114 537.188 160.267 537.601 160.311 538.072Z" fill="#737373"/>
<path d="M120.945 530.48L168.671 527.158L168.861 529.992L121.136 533.315L120.945 530.48Z" fill="#737373"/>
<path d="M158.948 515.576C158.976 516.276 158.75 516.887 158.269 517.409C157.787 517.932 157.197 518.208 156.497 518.237C155.796 518.266 155.185 518.04 154.664 517.56C154.142 517.079 153.867 516.489 153.839 515.789C153.811 515.089 154.037 514.477 154.519 513.955C155 513.432 155.591 513.157 156.291 513.127C156.754 513.108 157.185 513.209 157.582 513.429C157.979 513.64 158.304 513.934 158.556 514.312C158.798 514.681 158.929 515.102 158.948 515.576Z" fill="#737373"/>
<path d="M158.714 504.308C158.723 505.008 158.48 505.613 157.985 506.122C157.49 506.631 156.892 506.89 156.191 506.9C155.491 506.91 154.886 506.667 154.378 506.172C153.869 505.677 153.61 505.079 153.601 504.379C153.591 503.678 153.834 503.073 154.329 502.564C154.824 502.056 155.422 501.796 156.123 501.787C156.587 501.78 157.015 501.893 157.406 502.124C157.797 502.346 158.114 502.649 158.356 503.034C158.588 503.41 158.707 503.834 158.714 504.308Z" fill="#737373"/>
<path d="M158.777 493.038C158.768 493.738 158.509 494.336 158 494.831C157.492 495.326 156.887 495.568 156.186 495.559C155.486 495.549 154.888 495.29 154.393 494.781C153.897 494.272 153.655 493.667 153.664 492.966C153.673 492.266 153.932 491.668 154.441 491.173C154.95 490.678 155.554 490.436 156.255 490.445C156.719 490.452 157.143 490.576 157.528 490.818C157.914 491.051 158.222 491.363 158.453 491.755C158.676 492.136 158.783 492.564 158.777 493.038Z" fill="#737373"/>
<path d="M159.139 481.773C159.111 482.473 158.836 483.064 158.315 483.544C157.793 484.025 157.182 484.251 156.482 484.221C155.782 484.192 155.191 483.916 154.71 483.394C154.228 482.872 154.002 482.26 154.03 481.56C154.058 480.86 154.333 480.269 154.855 479.789C155.377 479.308 155.988 479.083 156.688 479.112C157.151 479.131 157.572 479.267 157.951 479.52C158.329 479.763 158.629 480.084 158.85 480.482C159.062 480.87 159.158 481.3 159.139 481.773Z" fill="#737373"/>
<path d="M121.135 468.795L168.86 472.118L168.67 474.952L120.944 471.63L121.135 468.795Z" fill="#737373"/>
<path d="M160.756 459.294C160.691 459.992 160.385 460.566 159.838 461.017C159.291 461.468 158.669 461.659 157.972 461.591C157.274 461.523 156.699 461.215 156.247 460.667C155.795 460.118 155.601 459.495 155.667 458.797C155.733 458.1 156.039 457.525 156.585 457.075C157.132 456.624 157.754 456.432 158.452 456.5C158.913 456.545 159.326 456.705 159.691 456.978C160.056 457.242 160.338 457.579 160.537 457.988C160.728 458.388 160.801 458.823 160.756 459.294Z" fill="#737373"/>
<path d="M162.011 448.096C161.926 448.791 161.605 449.357 161.046 449.792C160.488 450.228 159.861 450.402 159.166 450.315C158.47 450.227 157.904 449.903 157.466 449.342C157.029 448.781 156.852 448.153 156.937 447.457C157.021 446.762 157.343 446.196 157.901 445.761C158.46 445.325 159.087 445.151 159.782 445.238C160.242 445.296 160.651 445.467 161.007 445.75C161.365 446.024 161.638 446.369 161.826 446.784C162.006 447.188 162.068 447.625 162.011 448.096Z" fill="#737373"/>
<path d="M163.561 436.935C163.458 437.628 163.121 438.185 162.552 438.605C161.982 439.025 161.35 439.181 160.658 439.074C159.965 438.968 159.408 438.628 158.986 438.055C158.563 437.482 158.404 436.849 158.507 436.156C158.61 435.463 158.947 434.906 159.516 434.486C160.086 434.066 160.718 433.91 161.41 434.016C161.869 434.087 162.273 434.269 162.621 434.562C162.972 434.846 163.235 435.198 163.412 435.618C163.581 436.028 163.631 436.466 163.561 436.935Z" fill="#737373"/>
<path d="M165.407 425.82C165.285 426.51 164.934 427.057 164.353 427.461C163.772 427.865 163.137 428.005 162.447 427.879C161.758 427.753 161.21 427.398 160.804 426.813C160.397 426.229 160.255 425.591 160.376 424.901C160.498 424.211 160.849 423.664 161.43 423.26C162.011 422.856 162.646 422.717 163.335 422.843C163.792 422.926 164.191 423.119 164.531 423.422C164.874 423.716 165.128 424.075 165.293 424.5C165.451 424.914 165.489 425.354 165.407 425.82Z" fill="#737373"/>
<path d="M129.498 407.694L176.303 417.593L175.735 420.377L128.929 410.477L129.498 407.694Z" fill="#737373"/>
<path d="M169.977 403.761C169.819 404.443 169.439 404.97 168.837 405.342C168.235 405.713 167.594 405.817 166.913 405.653C166.231 405.489 165.704 405.104 165.329 404.497C164.955 403.891 164.847 403.247 165.006 402.564C165.164 401.881 165.544 401.354 166.146 400.983C166.747 400.612 167.389 400.508 168.07 400.672C168.521 400.78 168.909 400.995 169.233 401.317C169.559 401.629 169.793 402.002 169.935 402.436C170.07 402.858 170.084 403.299 169.977 403.761Z" fill="#737373"/>
<path d="M172.7 392.832C172.523 393.51 172.129 394.026 171.518 394.381C170.906 394.735 170.263 394.821 169.586 394.639C168.91 394.456 168.392 394.056 168.035 393.439C167.677 392.823 167.586 392.176 167.763 391.497C167.94 390.819 168.334 390.303 168.945 389.948C169.556 389.594 170.2 389.508 170.877 389.69C171.325 389.812 171.706 390.037 172.021 390.368C172.339 390.689 172.563 391.068 172.693 391.506C172.817 391.931 172.819 392.373 172.7 392.832Z" fill="#737373"/>
<path d="M175.711 381.98C175.516 382.653 175.109 383.159 174.488 383.496C173.868 383.834 173.222 383.902 172.551 383.701C171.88 383.499 171.374 383.085 171.033 382.459C170.692 381.833 170.619 381.183 170.814 380.51C171.009 379.837 171.417 379.331 172.037 378.994C172.657 378.656 173.303 378.588 173.974 378.789C174.419 378.923 174.794 379.159 175.1 379.498C175.408 379.828 175.622 380.213 175.741 380.654C175.853 381.083 175.843 381.525 175.711 381.98Z" fill="#737373"/>
<path d="M179.959 371.529C179.746 372.196 179.325 372.69 178.696 373.011C178.067 373.331 177.42 373.382 176.754 373.162C176.089 372.941 175.594 372.514 175.271 371.878C174.947 371.242 174.891 370.591 175.104 369.923C175.318 369.255 175.739 368.761 176.368 368.441C176.997 368.12 177.644 368.07 178.309 368.29C178.75 368.436 179.119 368.682 179.415 369.03C179.715 369.368 179.918 369.759 180.025 370.204C180.125 370.636 180.103 371.078 179.959 371.529Z" fill="#737373"/>
<path d="M146.833 348.625L191.821 364.898L190.884 367.58L145.896 351.307L146.833 348.625Z" fill="#737373"/>
<path d="M187.39 350.337C187.141 350.992 186.694 351.463 186.049 351.748C185.404 352.034 184.755 352.048 184.103 351.792C183.451 351.535 182.981 351.08 182.692 350.428C182.403 349.775 182.383 349.121 182.632 348.465C182.88 347.81 183.327 347.34 183.972 347.055C184.618 346.769 185.266 346.755 185.918 347.011C186.35 347.181 186.705 347.448 186.982 347.811C187.263 348.166 187.444 348.568 187.527 349.017C187.604 349.455 187.558 349.895 187.39 350.337Z" fill="#737373"/>
<path d="M191.526 339.901C191.259 340.549 190.8 341.007 190.148 341.275C189.495 341.542 188.846 341.539 188.202 341.264C187.557 340.99 187.099 340.522 186.828 339.862C186.557 339.201 186.554 338.546 186.821 337.898C187.087 337.25 187.547 336.792 188.199 336.524C188.852 336.257 189.5 336.26 190.145 336.534C190.572 336.716 190.919 336.993 191.186 337.364C191.457 337.726 191.628 338.133 191.698 338.585C191.763 339.024 191.706 339.463 191.526 339.901Z" fill="#737373"/>
<path d="M195.938 329.581C195.654 330.221 195.183 330.667 194.523 330.916C193.864 331.166 193.216 331.145 192.579 330.852C191.942 330.56 191.497 330.08 191.244 329.412C190.991 328.744 191.006 328.089 191.29 327.449C191.574 326.808 192.046 326.363 192.705 326.113C193.364 325.863 194.012 325.885 194.649 326.177C195.071 326.37 195.411 326.656 195.668 327.034C195.929 327.404 196.088 327.816 196.146 328.27C196.199 328.711 196.13 329.148 195.938 329.581Z" fill="#737373"/>
<path d="M200.624 319.384C200.323 320.017 199.839 320.449 199.173 320.681C198.508 320.912 197.861 320.873 197.232 320.563C196.603 320.254 196.172 319.761 195.937 319.086C195.702 318.411 195.735 317.757 196.036 317.125C196.337 316.492 196.821 316.06 197.486 315.828C198.152 315.597 198.799 315.636 199.428 315.945C199.844 316.15 200.176 316.446 200.422 316.831C200.673 317.208 200.821 317.624 200.867 318.079C200.908 318.522 200.827 318.957 200.624 319.384Z" fill="#737373"/>
<path d="M170.922 292.119L213.238 314.436L211.95 316.968L169.633 294.651L170.922 292.119Z" fill="#737373"/>
<path d="M210.802 299.393C210.468 300.009 209.962 300.414 209.285 300.609C208.608 300.803 207.964 300.729 207.353 300.385C206.743 300.041 206.339 299.525 206.141 298.838C205.943 298.151 206.012 297.499 206.347 296.884C206.681 296.268 207.187 295.863 207.864 295.668C208.541 295.474 209.185 295.548 209.796 295.892C210.2 296.12 210.515 296.433 210.74 296.831C210.97 297.222 211.095 297.645 211.116 298.103C211.133 298.547 211.028 298.977 210.802 299.393Z" fill="#737373"/>
<path d="M216.289 289.613C215.937 290.22 215.421 290.611 214.739 290.787C214.057 290.963 213.415 290.871 212.815 290.51C212.214 290.15 211.824 289.623 211.645 288.93C211.466 288.238 211.552 287.588 211.904 286.982C212.255 286.376 212.772 285.984 213.453 285.808C214.135 285.632 214.777 285.725 215.378 286.085C215.776 286.324 216.082 286.646 216.296 287.05C216.515 287.447 216.629 287.874 216.637 288.332C216.642 288.776 216.526 289.204 216.289 289.613Z" fill="#737373"/>
<path d="M222.035 279.987C221.667 280.584 221.14 280.961 220.454 281.118C219.768 281.275 219.129 281.165 218.538 280.788C217.948 280.411 217.572 279.874 217.412 279.177C217.253 278.48 217.356 277.833 217.724 277.236C218.092 276.639 218.618 276.262 219.305 276.105C219.991 275.948 220.63 276.058 221.22 276.435C221.612 276.684 221.909 277.014 222.112 277.425C222.32 277.827 222.422 278.257 222.418 278.715C222.411 279.16 222.283 279.584 222.035 279.987Z" fill="#737373"/>
<path d="M228.036 270.521C227.653 271.108 227.116 271.47 226.425 271.609C225.735 271.747 225.1 271.62 224.52 271.227C223.94 270.834 223.579 270.286 223.439 269.585C223.298 268.883 223.419 268.239 223.803 267.653C224.186 267.066 224.723 266.704 225.414 266.565C226.104 266.427 226.739 266.554 227.319 266.947C227.703 267.208 227.991 267.546 228.183 267.962C228.38 268.37 228.47 268.802 228.454 269.26C228.435 269.705 228.295 270.125 228.036 270.521Z" fill="#737373"/>
<path d="M202.325 239.427L241.178 267.34L239.559 269.675L200.706 241.761L202.325 239.427Z" fill="#737373"/>
<path d="M240.79 252.101C240.376 252.666 239.82 252.998 239.123 253.099C238.427 253.199 237.8 253.038 237.242 252.613C236.684 252.189 236.355 251.622 236.252 250.914C236.15 250.206 236.306 249.569 236.721 249.004C237.136 248.439 237.692 248.107 238.388 248.006C239.085 247.906 239.712 248.068 240.269 248.492C240.639 248.773 240.908 249.126 241.077 249.552C241.251 249.971 241.317 250.408 241.276 250.864C241.233 251.307 241.071 251.719 240.79 252.101Z" fill="#737373"/>
<path d="M247.534 243.16C247.104 243.713 246.539 244.031 245.84 244.112C245.141 244.194 244.519 244.015 243.973 243.575C243.427 243.136 243.113 242.56 243.03 241.849C242.947 241.138 243.121 240.506 243.551 239.953C243.981 239.4 244.545 239.082 245.244 239.001C245.943 238.919 246.566 239.098 247.111 239.538C247.473 239.829 247.732 240.189 247.889 240.62C248.052 241.043 248.107 241.482 248.053 241.937C247.997 242.378 247.824 242.786 247.534 243.16Z" fill="#737373"/>
<path d="M254.515 234.408C254.07 234.949 253.497 235.251 252.797 235.313C252.096 235.376 251.479 235.18 250.945 234.725C250.411 234.271 250.113 233.687 250.049 232.974C249.986 232.261 250.177 231.634 250.622 231.093C251.067 230.551 251.639 230.249 252.34 230.187C253.041 230.125 253.658 230.32 254.192 230.775C254.545 231.076 254.794 231.443 254.94 231.878C255.091 232.305 255.134 232.746 255.067 233.199C255 233.639 254.816 234.042 254.515 234.408Z" fill="#737373"/>
<path d="M262.474 226.52C262.014 227.049 261.433 227.335 260.731 227.378C260.029 227.421 259.417 227.208 258.896 226.74C258.375 226.271 258.093 225.679 258.049 224.965C258.005 224.25 258.213 223.628 258.672 223.099C259.132 222.57 259.713 222.284 260.415 222.241C261.117 222.198 261.729 222.41 262.25 222.879C262.594 223.189 262.834 223.564 262.967 224.002C263.107 224.434 263.137 224.875 263.058 225.326C262.979 225.764 262.784 226.162 262.474 226.52Z" fill="#737373"/>
<path d="M241.215 192.221L275.89 225.182L273.969 227.275L239.294 194.314L241.215 192.221Z" fill="#737373"/>
<path d="M277.544 210.058C277.056 210.561 276.46 210.815 275.757 210.82C275.053 210.824 274.454 210.579 273.96 210.082C273.465 209.586 273.216 208.979 273.211 208.263C273.206 207.547 273.447 206.938 273.935 206.434C274.423 205.931 275.018 205.677 275.722 205.672C276.425 205.668 277.024 205.914 277.519 206.41C277.846 206.739 278.065 207.126 278.174 207.571C278.29 208.009 278.296 208.451 278.193 208.898C278.09 209.331 277.873 209.718 277.544 210.058Z" fill="#737373"/>
<path d="M285.407 202.145C284.906 202.634 284.303 202.872 283.6 202.858C282.897 202.843 282.305 202.581 281.824 202.071C281.343 201.561 281.11 200.949 281.125 200.233C281.139 199.517 281.397 198.914 281.899 198.424C282.4 197.935 283.002 197.697 283.706 197.711C284.409 197.726 285.001 197.988 285.482 198.498C285.8 198.835 286.008 199.228 286.105 199.676C286.209 200.117 286.203 200.56 286.088 201.003C285.973 201.433 285.746 201.814 285.407 202.145Z" fill="#737373"/>
<path d="M293.481 194.452C292.967 194.928 292.358 195.149 291.655 195.115C290.953 195.082 290.368 194.804 289.901 194.281C289.434 193.758 289.218 193.139 289.252 192.424C289.287 191.709 289.561 191.113 290.075 190.637C290.59 190.162 291.199 189.941 291.901 189.974C292.604 190.008 293.189 190.286 293.655 190.809C293.964 191.155 294.161 191.553 294.246 192.004C294.338 192.447 294.32 192.89 294.193 193.33C294.066 193.756 293.829 194.131 293.481 194.452Z" fill="#737373"/>
<path d="M301.761 186.986C301.233 187.447 300.619 187.652 299.917 187.599C299.216 187.546 298.639 187.252 298.187 186.717C297.734 186.182 297.535 185.557 297.589 184.843C297.643 184.129 297.933 183.541 298.46 183.08C298.988 182.618 299.602 182.414 300.304 182.467C301.005 182.52 301.582 182.814 302.034 183.349C302.334 183.703 302.52 184.107 302.592 184.559C302.672 185.005 302.642 185.447 302.503 185.883C302.364 186.306 302.117 186.674 301.761 186.986Z" fill="#737373"/>
<path d="M285.359 150.125L315.229 187.495L313.041 189.307L283.171 151.937L285.359 150.125Z" fill="#737373"/>
<path d="M318.912 172.756C318.36 173.188 317.735 173.358 317.038 173.267C316.34 173.176 315.78 172.851 315.357 172.292C314.935 171.733 314.77 171.098 314.862 170.389C314.955 169.679 315.277 169.108 315.829 168.676C316.381 168.244 317.006 168.073 317.703 168.165C318.401 168.256 318.961 168.581 319.384 169.14C319.664 169.51 319.827 169.923 319.875 170.379C319.93 170.828 319.876 171.267 319.713 171.696C319.552 172.11 319.285 172.464 318.912 172.756Z" fill="#737373"/>
<path d="M327.771 166.003C327.207 166.42 326.578 166.573 325.883 166.463C325.188 166.353 324.637 166.012 324.229 165.442C323.822 164.872 323.675 164.233 323.787 163.526C323.899 162.819 324.236 162.257 324.8 161.841C325.363 161.424 325.992 161.271 326.688 161.381C327.383 161.491 327.934 161.831 328.341 162.402C328.611 162.779 328.763 163.197 328.798 163.653C328.841 164.104 328.775 164.542 328.601 164.965C328.428 165.375 328.151 165.721 327.771 166.003Z" fill="#737373"/>
<path d="M336.81 159.499C336.235 159.9 335.602 160.036 334.91 159.907C334.218 159.778 333.676 159.423 333.284 158.842C332.893 158.26 332.763 157.618 332.894 156.915C333.025 156.211 333.378 155.659 333.953 155.258C334.527 154.857 335.161 154.721 335.853 154.85C336.545 154.979 337.087 155.334 337.478 155.915C337.737 156.3 337.878 156.721 337.901 157.179C337.932 157.631 337.854 158.066 337.668 158.485C337.484 158.89 337.198 159.228 336.81 159.499Z" fill="#737373"/>
<path d="M346.023 153.249C345.438 153.634 344.801 153.753 344.112 153.605C343.424 153.457 342.892 153.087 342.516 152.495C342.141 151.904 342.028 151.258 342.179 150.559C342.329 149.859 342.697 149.317 343.282 148.932C343.868 148.547 344.505 148.428 345.193 148.576C345.881 148.724 346.413 149.094 346.789 149.685C347.038 150.077 347.167 150.502 347.177 150.96C347.196 151.413 347.106 151.845 346.908 152.259C346.714 152.659 346.419 152.989 346.023 153.249Z" fill="#737373"/>
<path d="M334.764 114.532L359.302 155.601L356.886 157.097L332.349 116.028L334.764 114.532Z" fill="#737373"/>
<path d="M364.942 141.531C364.336 141.883 363.694 141.967 363.014 141.781C362.334 141.596 361.823 141.198 361.48 140.587C361.137 139.975 361.06 139.325 361.248 138.635C361.436 137.945 361.833 137.424 362.439 137.072C363.045 136.719 363.687 136.636 364.367 136.821C365.047 137.007 365.558 137.405 365.901 138.016C366.128 138.421 366.234 138.852 366.22 139.309C366.213 139.762 366.1 140.189 365.88 140.591C365.664 140.98 365.351 141.293 364.942 141.531Z" fill="#737373"/>
<path d="M375.1 136.957C374.485 137.293 373.84 137.358 373.166 137.154C372.491 136.95 371.991 136.538 371.665 135.918C371.338 135.298 371.279 134.646 371.486 133.962C371.693 133.277 372.104 132.767 372.719 132.432C373.334 132.096 373.979 132.031 374.653 132.235C375.328 132.439 375.828 132.851 376.155 133.471C376.371 133.881 376.465 134.315 376.438 134.772C376.419 135.224 376.295 135.648 376.064 136.044C375.837 136.426 375.516 136.731 375.1 136.957Z" fill="#737373"/>
<path d="M384.914 131.783C384.29 132.102 383.643 132.15 382.975 131.927C382.306 131.705 381.817 131.28 381.507 130.651C381.198 130.022 381.156 129.369 381.381 128.69C381.607 128.012 382.032 127.514 382.656 127.195C383.28 126.877 383.927 126.829 384.596 127.051C385.264 127.274 385.753 127.699 386.063 128.328C386.268 128.744 386.35 129.18 386.311 129.636C386.28 130.088 386.144 130.508 385.902 130.897C385.665 131.273 385.336 131.568 384.914 131.783Z" fill="#737373"/>
<path d="M394.865 126.886C394.233 127.187 393.585 127.217 392.922 126.977C392.26 126.736 391.782 126.297 391.49 125.661C391.197 125.024 391.173 124.369 391.417 123.698C391.661 123.026 392.099 122.54 392.732 122.239C393.365 121.938 394.013 121.908 394.675 122.148C395.338 122.389 395.815 122.828 396.108 123.464C396.301 123.886 396.372 124.324 396.32 124.779C396.277 125.229 396.13 125.645 395.878 126.027C395.631 126.397 395.293 126.683 394.865 126.886Z" fill="#737373"/>
<path d="M388.912 87.0563L407.69 131.058L405.092 132.207L386.313 88.205L388.912 87.0563Z" fill="#737373"/>
<path d="M415.152 117.936C414.503 118.202 413.855 118.196 413.206 117.92C412.557 117.643 412.104 117.179 411.846 116.527C411.588 115.876 411.6 115.221 411.88 114.564C412.16 113.907 412.624 113.446 413.272 113.181C413.921 112.915 414.57 112.921 415.219 113.197C415.868 113.474 416.321 113.938 416.578 114.59C416.749 115.021 416.796 115.463 416.72 115.913C416.652 116.36 416.482 116.768 416.21 117.135C415.943 117.49 415.59 117.757 415.152 117.936Z" fill="#737373"/>
<path d="M425.471 113.891C424.815 114.139 424.167 114.115 423.525 113.821C422.884 113.527 422.443 113.05 422.203 112.392C421.964 111.733 421.993 111.08 422.29 110.431C422.588 109.782 423.065 109.334 423.72 109.087C424.376 108.839 425.024 108.863 425.666 109.157C426.307 109.451 426.748 109.928 426.988 110.586C427.147 111.022 427.182 111.464 427.093 111.913C427.013 112.358 426.832 112.76 426.55 113.119C426.274 113.467 425.914 113.724 425.471 113.891Z" fill="#737373"/>
<path d="M435.897 110.137C435.235 110.366 434.587 110.325 433.954 110.013C433.321 109.701 432.893 109.213 432.671 108.548C432.449 107.884 432.495 107.231 432.811 106.591C433.126 105.951 433.615 105.516 434.277 105.287C434.939 105.058 435.587 105.099 436.22 105.411C436.853 105.723 437.281 106.211 437.503 106.876C437.65 107.316 437.673 107.759 437.573 108.204C437.481 108.647 437.289 109.044 436.997 109.396C436.711 109.735 436.345 109.982 435.897 110.137Z" fill="#737373"/>
<path d="M446.423 106.677C445.754 106.888 445.108 106.829 444.483 106.499C443.858 106.17 443.444 105.67 443.24 105C443.035 104.33 443.1 103.679 443.432 103.048C443.765 102.417 444.265 101.996 444.933 101.785C445.602 101.574 446.248 101.633 446.873 101.963C447.498 102.292 447.912 102.792 448.116 103.462C448.252 103.906 448.263 104.349 448.15 104.792C448.046 105.232 447.844 105.623 447.543 105.966C447.248 106.298 446.874 106.535 446.423 106.677Z" fill="#737373"/>
<path d="M445.881 66.4618L458.579 112.587L455.847 113.366L443.149 67.2409L445.881 66.4618Z" fill="#737373"/>
<path d="M467.739 100.65C467.06 100.824 466.417 100.729 465.811 100.366C465.204 100.003 464.817 99.4808 464.649 98.8004C464.482 98.12 464.581 97.4741 464.947 96.8626C465.313 96.2511 465.836 95.8586 466.515 95.6852C467.194 95.5118 467.836 95.6066 468.443 95.9697C469.049 96.3328 469.436 96.8546 469.604 97.535C469.715 97.9855 469.702 98.4285 469.566 98.8641C469.439 99.2973 469.215 99.6769 468.896 100.003C468.583 100.317 468.197 100.533 467.739 100.65Z" fill="#737373"/>
<path d="M478.513 98.0885C477.829 98.243 477.189 98.1304 476.593 97.7507C475.996 97.371 475.623 96.8388 475.474 96.1542C475.325 95.4695 475.441 94.8267 475.824 94.2257C476.206 93.6247 476.739 93.2469 477.423 93.0924C478.106 92.9379 478.746 93.0505 479.343 93.4302C479.939 93.8099 480.312 94.3421 480.462 95.0267C480.561 95.4801 480.536 95.9225 480.388 96.354C480.249 96.7835 480.015 97.1566 479.687 97.4735C479.366 97.7791 478.975 97.9841 478.513 98.0885Z" fill="#737373"/>
<path d="M489.353 95.8308C488.666 95.9663 488.029 95.836 487.443 95.44C486.857 95.044 486.498 94.5018 486.367 93.8133C486.236 93.1249 486.37 92.4857 486.769 91.8956C487.167 91.3055 487.71 90.9427 488.398 90.8073C489.085 90.6718 489.722 90.8021 490.308 91.1981C490.895 91.5941 491.253 92.1363 491.384 92.8248C491.471 93.2806 491.434 93.7221 491.275 94.1493C491.124 94.5747 490.881 94.9412 490.544 95.2488C490.215 95.5453 489.818 95.7393 489.353 95.8308Z" fill="#737373"/>
<path d="M500.251 93.879C499.56 93.9953 498.927 93.8474 498.352 93.4354C497.776 93.0233 497.432 92.4714 497.32 91.7797C497.208 91.088 497.359 90.4528 497.773 89.8741C498.187 89.2954 498.74 88.9479 499.431 88.8316C500.122 88.7152 500.755 88.8631 501.331 89.2752C501.906 89.6873 502.25 90.2392 502.363 90.9308C502.437 91.3888 502.389 91.8291 502.217 92.2516C502.056 92.6726 501.802 93.0321 501.457 93.3303C501.12 93.6175 500.718 93.8004 500.251 93.879Z" fill="#737373"/>
<path d="M505.108 54.0173L511.511 101.428L508.697 101.821L502.295 54.4109L505.108 54.0173Z" fill="#737373"/>
<path d="M522.188 90.8995C521.492 90.9773 520.867 90.7945 520.315 90.3512C519.762 89.9079 519.448 89.3379 519.373 88.6412C519.298 87.9444 519.483 87.3187 519.928 86.764C520.373 86.2093 520.944 85.8931 521.64 85.8153C522.337 85.7376 522.961 85.9203 523.514 86.3636C524.066 86.8069 524.38 87.377 524.455 88.0737C524.505 88.535 524.433 88.9718 524.239 89.3841C524.055 89.7954 523.783 90.1402 523.422 90.4187C523.07 90.6867 522.659 90.847 522.188 90.8995Z" fill="#737373"/>
<path d="M533.21 89.8742C532.511 89.9326 531.892 89.7325 531.351 89.2741C530.811 88.8156 530.512 88.2372 530.456 87.5387C530.4 86.8402 530.601 86.2199 531.061 85.6778C531.521 85.1357 532.1 84.8355 532.798 84.7771C533.497 84.7187 534.116 84.9188 534.657 85.3772C535.197 85.8357 535.496 86.4142 535.552 87.1126C535.589 87.5752 535.506 88.0098 535.301 88.4165C535.106 88.8224 534.824 89.1596 534.456 89.4279C534.097 89.686 533.682 89.8347 533.21 89.8742Z" fill="#737373"/>
<path d="M544.255 89.1598C543.556 89.1988 542.942 88.9816 542.414 88.5083C541.886 88.0351 541.603 87.4486 541.565 86.7488C541.528 86.0491 541.746 85.4347 542.22 84.9056C542.694 84.3765 543.281 84.0925 543.981 84.0536C544.681 84.0146 545.294 84.2318 545.822 84.7051C546.35 85.1783 546.633 85.7648 546.671 86.4646C546.696 86.9279 546.6 87.36 546.385 87.7609C546.179 88.1612 545.888 88.4904 545.513 88.7484C545.147 88.9964 544.728 89.1335 544.255 89.1598Z" fill="#737373"/>
<path d="M555.316 88.7568C554.616 88.7763 554.008 88.5422 553.493 88.0544C552.977 87.5666 552.71 86.9725 552.692 86.272C552.673 85.5715 552.907 84.9634 553.396 84.4478C553.884 83.9321 554.478 83.6645 555.179 83.645C555.879 83.6256 556.487 83.8597 557.002 84.3475C557.517 84.8352 557.784 85.4293 557.803 86.1298C557.816 86.5937 557.709 87.023 557.483 87.4177C557.266 87.8121 556.967 88.133 556.585 88.3805C556.212 88.6182 555.789 88.7437 555.316 88.7568Z" fill="#737373"/>
<path d="M565.412 51.5341V99.375H562.571V51.5341H565.412Z" fill="#737373"/>
<path d="M577.45 88.8865C576.749 88.867 576.155 88.5995 575.667 88.0838C575.179 87.5681 574.944 86.96 574.963 86.2595C574.981 85.559 575.248 84.9649 575.764 84.4771C576.279 83.9894 576.887 83.7552 577.587 83.7747C578.288 83.7942 578.882 84.0618 579.37 84.5775C579.858 85.0931 580.093 85.7012 580.074 86.4017C580.062 86.8656 579.932 87.2882 579.685 87.6698C579.447 88.0516 579.131 88.3554 578.737 88.5813C578.352 88.7979 577.923 88.8997 577.45 88.8865Z" fill="#737373"/>
<path d="M588.506 89.4191C587.806 89.3801 587.219 89.0961 586.745 88.5671C586.271 88.038 586.052 87.4236 586.09 86.7239C586.128 86.0241 586.41 85.4376 586.939 84.9643C587.467 84.491 588.08 84.2739 588.78 84.3128C589.48 84.3518 590.067 84.6358 590.541 85.1648C591.015 85.6939 591.233 86.3083 591.196 87.0081C591.171 87.4714 591.03 87.8904 590.773 88.2649C590.525 88.64 590.201 88.9349 589.8 89.1497C589.41 89.3556 588.978 89.4454 588.506 89.4191Z" fill="#737373"/>
<path d="M599.542 90.2629C598.844 90.2045 598.265 89.9042 597.805 89.3622C597.346 88.8201 597.144 88.1998 597.2 87.5013C597.257 86.8028 597.555 86.2243 598.096 85.7659C598.636 85.3074 599.256 85.1074 599.954 85.1658C600.652 85.2242 601.231 85.5244 601.691 86.0665C602.151 86.6086 602.352 87.2288 602.296 87.9273C602.259 88.3898 602.107 88.8047 601.839 89.172C601.582 89.5401 601.25 89.8259 600.844 90.0296C600.448 90.2245 600.014 90.3023 599.542 90.2629Z" fill="#737373"/>
<path d="M610.552 91.4173C609.855 91.3395 609.285 91.0233 608.84 90.4686C608.395 89.9139 608.21 89.2882 608.285 88.5915C608.36 87.8947 608.674 87.3247 609.226 86.8814C609.779 86.4381 610.403 86.2553 611.1 86.3331C611.796 86.4109 612.367 86.7271 612.812 87.2818C613.257 87.8365 613.442 88.4622 613.367 89.1589C613.317 89.6203 613.154 90.0308 612.877 90.3906C612.609 90.7514 612.27 91.0279 611.859 91.2202C611.458 91.4041 611.022 91.4698 610.552 91.4173Z" fill="#737373"/>
<path d="M625.79 54.4085L619.388 101.819L616.575 101.425L622.977 54.0149L625.79 54.4085Z" fill="#737373"/>
<path d="M632.454 94.6537C631.763 94.5374 631.21 94.1899 630.796 93.6112C630.381 93.0325 630.23 92.3973 630.343 91.7056C630.455 91.0139 630.799 90.462 631.375 90.0499C631.95 89.6379 632.583 89.49 633.274 89.6063C633.965 89.7226 634.518 90.0702 634.932 90.6489C635.347 91.2276 635.498 91.8628 635.386 92.5545C635.311 93.0125 635.126 93.4134 634.83 93.7574C634.544 94.1029 634.19 94.3602 633.769 94.5295C633.359 94.6909 632.921 94.7323 632.454 94.6537Z" fill="#737373"/>
<path d="M643.33 96.7332C642.642 96.5977 642.099 96.2349 641.701 95.6448C641.302 95.0548 641.168 94.4155 641.299 93.7271C641.43 93.0387 641.789 92.4965 642.375 92.1004C642.961 91.7044 643.598 91.5741 644.285 91.7096C644.973 91.8451 645.516 92.2078 645.915 92.7979C646.313 93.388 646.447 94.0273 646.316 94.7157C646.23 95.1715 646.034 95.5673 645.729 95.9029C645.433 96.2404 645.073 96.4879 644.648 96.6454C644.234 96.7955 643.795 96.8247 643.33 96.7332Z" fill="#737373"/>
<path d="M654.144 99.1179C653.461 98.9633 652.928 98.5856 652.545 97.9846C652.163 97.3836 652.046 96.7407 652.196 96.0561C652.345 95.3714 652.718 94.8393 653.314 94.4596C653.911 94.0799 654.551 93.9673 655.235 94.1218C655.918 94.2763 656.451 94.654 656.834 95.2551C657.216 95.8561 657.333 96.4989 657.183 97.1836C657.084 97.6369 656.878 98.0271 656.564 98.3543C656.26 98.6835 655.893 98.921 655.464 99.0667C655.046 99.2052 654.606 99.2222 654.144 99.1179Z" fill="#737373"/>
<path d="M664.888 101.806C664.209 101.632 663.687 101.24 663.321 100.628C662.955 100.017 662.855 99.3709 663.023 98.6906C663.191 98.0102 663.578 97.4884 664.184 97.1253C664.791 96.7622 665.434 96.6674 666.113 96.8408C666.792 97.0142 667.314 97.4067 667.68 98.0182C668.046 98.6297 668.146 99.2756 667.978 99.956C667.867 100.407 667.65 100.791 667.328 101.109C667.015 101.43 666.642 101.657 666.209 101.791C665.787 101.918 665.347 101.923 664.888 101.806Z" fill="#737373"/>
<path d="M684.937 67.236L672.239 113.361L669.507 112.582L682.205 66.4569L684.937 67.236Z" fill="#737373"/>
<path d="M686.136 108.082C685.468 107.872 684.967 107.451 684.635 106.82C684.302 106.188 684.238 105.538 684.442 104.867C684.646 104.197 685.061 103.697 685.686 103.368C686.31 103.039 686.957 102.98 687.625 103.19C688.294 103.401 688.794 103.822 689.126 104.453C689.459 105.084 689.523 105.735 689.319 106.405C689.184 106.849 688.947 107.221 688.608 107.522C688.278 107.825 687.894 108.031 687.454 108.141C687.027 108.244 686.587 108.225 686.136 108.082Z" fill="#737373"/>
<path d="M696.622 111.666C695.96 111.437 695.471 111.002 695.156 110.362C694.84 109.721 694.794 109.069 695.016 108.404C695.238 107.74 695.666 107.252 696.299 106.94C696.932 106.628 697.58 106.586 698.242 106.816C698.905 107.045 699.393 107.48 699.709 108.12C700.024 108.76 700.07 109.412 699.848 110.077C699.701 110.517 699.454 110.883 699.108 111.173C698.77 111.467 698.38 111.663 697.938 111.761C697.508 111.852 697.069 111.821 696.622 111.666Z" fill="#737373"/>
<path d="M707.005 115.542C706.35 115.295 705.873 114.847 705.575 114.198C705.278 113.549 705.249 112.895 705.489 112.237C705.729 111.579 706.169 111.102 706.811 110.808C707.452 110.514 708.101 110.49 708.756 110.738C709.412 110.985 709.888 111.433 710.186 112.082C710.484 112.731 710.513 113.384 710.273 114.043C710.114 114.479 709.857 114.837 709.503 115.119C709.157 115.403 708.762 115.588 708.318 115.673C707.886 115.753 707.448 115.709 707.005 115.542Z" fill="#737373"/>
<path d="M717.279 119.708C716.631 119.443 716.166 118.982 715.886 118.325C715.606 117.668 715.595 117.013 715.853 116.362C716.11 115.71 716.564 115.246 717.213 114.969C717.862 114.693 718.51 114.687 719.159 114.953C719.807 115.218 720.272 115.679 720.552 116.336C720.832 116.993 720.843 117.648 720.585 118.299C720.415 118.731 720.148 119.082 719.787 119.354C719.434 119.629 719.034 119.803 718.588 119.876C718.154 119.943 717.717 119.888 717.279 119.708Z" fill="#737373"/>
<path d="M741.774 88.1978L722.996 132.199L720.397 131.051L739.175 87.0491L741.774 88.1978Z" fill="#737373"/>
<path d="M737.464 128.896C736.831 128.595 736.393 128.109 736.149 127.437C735.905 126.765 735.929 126.111 736.221 125.474C736.514 124.837 736.991 124.399 737.654 124.158C738.317 123.917 738.964 123.948 739.597 124.249C740.23 124.549 740.668 125.036 740.912 125.707C741.156 126.379 741.132 127.033 740.839 127.67C740.646 128.092 740.361 128.428 739.985 128.68C739.618 128.935 739.21 129.087 738.76 129.135C738.324 129.179 737.891 129.099 737.464 128.896Z" fill="#737373"/>
<path d="M747.36 133.91C746.735 133.592 746.31 133.093 746.085 132.415C745.859 131.737 745.901 131.083 746.211 130.455C746.52 129.826 747.009 129.4 747.678 129.178C748.347 128.956 748.993 129.004 749.618 129.322C750.242 129.64 750.667 130.139 750.892 130.817C751.118 131.495 751.076 132.149 750.766 132.777C750.562 133.194 750.268 133.522 749.886 133.763C749.512 134.008 749.099 134.149 748.649 134.185C748.211 134.217 747.781 134.125 747.36 133.91Z" fill="#737373"/>
<path d="M757.115 139.199C756.5 138.863 756.089 138.353 755.882 137.669C755.675 136.985 755.735 136.332 756.061 135.712C756.387 135.092 756.888 134.68 757.562 134.476C758.236 134.272 758.881 134.338 759.496 134.674C760.112 135.009 760.523 135.519 760.73 136.203C760.937 136.888 760.877 137.54 760.551 138.16C760.335 138.571 760.032 138.891 759.644 139.121C759.263 139.356 758.847 139.485 758.396 139.509C757.958 139.529 757.531 139.425 757.115 139.199Z" fill="#737373"/>
<path d="M767.211 143.886C766.605 143.534 766.208 143.013 766.02 142.323C765.832 141.633 765.909 140.982 766.252 140.371C766.595 139.76 767.107 139.362 767.786 139.177C768.466 138.991 769.108 139.075 769.714 139.427C770.32 139.779 770.717 140.3 770.905 140.99C771.093 141.68 771.016 142.331 770.673 142.942C770.446 143.346 770.135 143.658 769.74 143.878C769.354 144.102 768.935 144.22 768.483 144.231C768.045 144.239 767.621 144.124 767.211 143.886Z" fill="#737373"/>
<path d="M795.739 116.018L771.202 157.087L768.786 155.592L793.324 114.523L795.739 116.018Z" fill="#737373"/>
<path d="M785.998 155.826C785.413 155.441 785.045 154.898 784.894 154.199C784.744 153.499 784.857 152.854 785.232 152.262C785.608 151.671 786.14 151.301 786.828 151.153C787.517 151.005 788.154 151.124 788.739 151.509C789.324 151.894 789.692 152.436 789.843 153.135C789.993 153.835 789.88 154.481 789.505 155.072C789.256 155.464 788.929 155.759 788.523 155.956C788.125 156.159 787.7 156.254 787.249 156.24C786.811 156.224 786.394 156.086 785.998 155.826Z" fill="#737373"/>
<path d="M795.14 162.184C794.566 161.783 794.213 161.23 794.082 160.527C793.95 159.823 794.081 159.181 794.472 158.6C794.864 158.019 795.405 157.664 796.097 157.535C796.789 157.406 797.423 157.542 797.997 157.943C798.572 158.344 798.925 158.896 799.056 159.599C799.187 160.303 799.057 160.945 798.666 161.526C798.406 161.911 798.071 162.197 797.66 162.383C797.257 162.575 796.83 162.658 796.379 162.633C795.942 162.604 795.529 162.455 795.14 162.184Z" fill="#737373"/>
<path d="M804.106 168.793C803.543 168.377 803.205 167.815 803.093 167.108C802.981 166.401 803.129 165.763 803.536 165.192C803.943 164.622 804.494 164.282 805.189 164.172C805.884 164.062 806.514 164.215 807.077 164.631C807.641 165.048 807.978 165.61 808.09 166.317C808.202 167.024 808.055 167.662 807.648 168.233C807.378 168.61 807.035 168.887 806.619 169.062C806.211 169.243 805.782 169.314 805.332 169.276C804.896 169.236 804.487 169.075 804.106 168.793Z" fill="#737373"/>
<path d="M812.889 175.65C812.337 175.218 812.015 174.647 811.922 173.938C811.829 173.228 811.994 172.593 812.417 172.034C812.839 171.475 813.399 171.15 814.097 171.059C814.795 170.968 815.42 171.138 815.972 171.57C816.523 172.002 816.846 172.573 816.938 173.283C817.031 173.993 816.866 174.627 816.443 175.186C816.164 175.557 815.813 175.824 815.393 175.987C814.98 176.157 814.549 176.217 814.101 176.166C813.665 176.114 813.261 175.942 812.889 175.65Z" fill="#737373"/>
<path d="M844.919 151.926L815.048 189.296L812.86 187.484L842.731 150.114L844.919 151.926Z" fill="#737373"/>
<path d="M829.879 190.082C829.352 189.62 829.061 189.032 829.008 188.318C828.954 187.604 829.153 186.98 829.605 186.445C830.058 185.909 830.635 185.615 831.336 185.562C832.038 185.51 832.652 185.714 833.179 186.176C833.707 186.637 833.997 187.225 834.051 187.939C834.105 188.653 833.905 189.277 833.453 189.813C833.154 190.167 832.79 190.415 832.361 190.555C831.939 190.702 831.506 190.738 831.061 190.663C830.629 190.587 830.235 190.393 829.879 190.082Z" fill="#737373"/>
<path d="M838.074 197.645C837.56 197.169 837.286 196.574 837.251 195.859C837.217 195.143 837.433 194.524 837.9 194.002C838.367 193.479 838.952 193.201 839.654 193.167C840.357 193.133 840.966 193.355 841.48 193.83C841.995 194.306 842.269 194.902 842.303 195.617C842.337 196.332 842.121 196.951 841.654 197.474C841.345 197.82 840.975 198.057 840.542 198.186C840.117 198.322 839.683 198.346 839.24 198.259C838.811 198.171 838.422 197.966 838.074 197.645Z" fill="#737373"/>
<path d="M846.062 205.432C845.56 204.943 845.302 204.34 845.288 203.624C845.273 202.908 845.506 202.295 845.987 201.785C846.468 201.276 847.06 201.014 847.763 200.999C848.466 200.985 849.069 201.222 849.57 201.712C850.071 202.202 850.329 202.804 850.344 203.52C850.359 204.236 850.125 204.849 849.645 205.359C849.326 205.696 848.949 205.924 848.514 206.041C848.085 206.164 847.65 206.177 847.21 206.078C846.783 205.978 846.4 205.763 846.062 205.432Z" fill="#737373"/>
<path d="M853.835 213.438C853.347 212.934 853.106 212.325 853.111 211.609C853.116 210.893 853.365 210.287 853.86 209.79C854.354 209.294 854.953 209.048 855.657 209.052C856.36 209.057 856.956 209.311 857.444 209.814C857.931 210.318 858.173 210.927 858.168 211.643C858.163 212.359 857.913 212.966 857.419 213.462C857.091 213.791 856.708 214.008 856.27 214.113C855.837 214.225 855.403 214.225 854.965 214.114C854.541 214.003 854.165 213.778 853.835 213.438Z" fill="#737373"/>
<path d="M888.796 194.301L854.121 227.262L852.201 225.169L886.875 192.208L888.796 194.301Z" fill="#737373"/>
<path d="M868.719 230.077C868.26 229.548 868.052 228.926 868.096 228.211C868.14 227.496 868.422 226.905 868.943 226.436C869.464 225.967 870.076 225.755 870.778 225.798C871.48 225.841 872.061 226.127 872.52 226.656C872.98 227.185 873.188 227.807 873.144 228.522C873.1 229.236 872.817 229.828 872.296 230.297C871.951 230.607 871.557 230.803 871.113 230.884C870.675 230.972 870.241 230.948 869.811 230.814C869.393 230.68 869.03 230.434 868.719 230.077Z" fill="#737373"/>
<path d="M876.581 238.049C876.136 237.508 875.945 236.881 876.008 236.167C876.072 235.454 876.37 234.871 876.904 234.416C877.437 233.962 878.055 233.766 878.755 233.829C879.456 233.891 880.029 234.193 880.474 234.734C880.919 235.276 881.11 235.903 881.046 236.616C880.983 237.329 880.684 237.913 880.151 238.367C879.797 238.668 879.398 238.853 878.952 238.921C878.512 238.997 878.079 238.962 877.652 238.816C877.238 238.671 876.881 238.415 876.581 238.049Z" fill="#737373"/>
<path d="M883.464 246.883C883.033 246.33 882.86 245.698 882.943 244.987C883.026 244.276 883.34 243.701 883.886 243.261C884.432 242.822 885.054 242.643 885.753 242.724C886.452 242.806 887.016 243.123 887.446 243.676C887.877 244.23 888.05 244.862 887.967 245.573C887.884 246.284 887.57 246.859 887.024 247.299C886.663 247.59 886.258 247.763 885.81 247.82C885.369 247.884 884.936 247.837 884.514 247.679C884.104 247.522 883.754 247.257 883.464 246.883Z" fill="#737373"/>
<path d="M890.106 255.903C889.691 255.339 889.535 254.702 889.637 253.994C889.74 253.285 890.07 252.719 890.627 252.294C891.185 251.87 891.812 251.708 892.509 251.809C893.205 251.909 893.761 252.242 894.176 252.807C894.59 253.372 894.747 254.008 894.644 254.717C894.542 255.425 894.212 255.991 893.655 256.416C893.285 256.697 892.876 256.859 892.427 256.904C891.983 256.956 891.553 256.897 891.134 256.727C890.729 256.56 890.386 256.285 890.106 255.903Z" fill="#737373"/>
<path d="M927.387 241.746L888.534 269.66L886.915 267.326L925.768 239.412L927.387 241.746Z" fill="#737373"/>
<path d="M902.652 274.473C902.268 273.887 902.147 273.243 902.288 272.541C902.428 271.84 902.789 271.293 903.369 270.899C903.949 270.506 904.584 270.379 905.275 270.518C905.965 270.656 906.502 271.019 906.885 271.605C907.269 272.191 907.39 272.835 907.249 273.537C907.109 274.239 906.748 274.786 906.168 275.179C905.784 275.439 905.366 275.579 904.915 275.599C904.47 275.626 904.042 275.544 903.634 275.352C903.238 275.163 902.911 274.87 902.652 274.473Z" fill="#737373"/>
<path d="M908.546 284.009C908.179 283.413 908.075 282.766 908.235 282.068C908.395 281.371 908.77 280.834 909.361 280.457C909.951 280.08 910.59 279.97 911.276 280.128C911.963 280.285 912.49 280.662 912.857 281.259C913.225 281.855 913.328 282.502 913.169 283.199C913.009 283.897 912.634 284.434 912.043 284.811C911.652 285.06 911.23 285.189 910.779 285.196C910.332 285.212 909.908 285.118 909.504 284.914C909.114 284.714 908.795 284.412 908.546 284.009Z" fill="#737373"/>
<path d="M914.184 293.703C913.832 293.097 913.746 292.447 913.925 291.755C914.104 291.062 914.494 290.536 915.095 290.175C915.695 289.814 916.337 289.722 917.019 289.898C917.701 290.074 918.217 290.466 918.568 291.072C918.92 291.678 919.006 292.328 918.827 293.02C918.648 293.713 918.259 294.239 917.658 294.6C917.26 294.839 916.835 294.956 916.383 294.95C915.937 294.954 915.514 294.848 915.117 294.634C914.732 294.423 914.421 294.113 914.184 293.703Z" fill="#737373"/>
<path d="M919.559 303.547C919.225 302.932 919.156 302.28 919.354 301.593C919.551 300.906 919.955 300.39 920.566 300.046C921.176 299.702 921.82 299.628 922.497 299.823C923.174 300.017 923.68 300.422 924.015 301.038C924.35 301.654 924.418 302.305 924.22 302.992C924.023 303.68 923.619 304.195 923.008 304.539C922.604 304.767 922.176 304.872 921.725 304.854C921.278 304.845 920.859 304.728 920.467 304.503C920.088 304.282 919.785 303.963 919.559 303.547Z" fill="#737373"/>
<path d="M958.462 294.635L916.146 316.952L914.857 314.42L957.173 292.103L958.462 294.635Z" fill="#737373"/>
<path d="M929.512 323.658C929.211 323.025 929.178 322.371 929.412 321.696C929.647 321.021 930.079 320.528 930.707 320.219C931.336 319.909 931.983 319.87 932.649 320.101C933.315 320.333 933.798 320.765 934.099 321.398C934.4 322.031 934.433 322.685 934.198 323.36C933.963 324.035 933.532 324.527 932.903 324.837C932.487 325.042 932.054 325.123 931.604 325.081C931.158 325.047 930.745 324.908 930.366 324.662C930 324.42 929.715 324.085 929.512 323.658Z" fill="#737373"/>
<path d="M934.082 333.909C933.798 333.268 933.783 332.614 934.036 331.946C934.288 331.277 934.733 330.797 935.37 330.505C936.007 330.213 936.655 330.192 937.315 330.441C937.974 330.691 938.446 331.136 938.73 331.777C939.013 332.418 939.029 333.072 938.776 333.74C938.523 334.408 938.078 334.889 937.441 335.181C937.019 335.374 936.584 335.444 936.135 335.389C935.69 335.343 935.282 335.192 934.909 334.936C934.549 334.684 934.273 334.342 934.082 333.909Z" fill="#737373"/>
<path d="M938.377 344.281C938.111 343.633 938.113 342.978 938.384 342.317C938.655 341.657 939.113 341.189 939.758 340.915C940.403 340.64 941.051 340.637 941.704 340.904C942.356 341.172 942.816 341.63 943.082 342.278C943.349 342.926 943.346 343.581 943.075 344.242C942.804 344.902 942.346 345.37 941.701 345.644C941.274 345.826 940.837 345.884 940.39 345.817C939.947 345.759 939.542 345.596 939.177 345.33C938.824 345.068 938.557 344.719 938.377 344.281Z" fill="#737373"/>
<path d="M942.395 354.766C942.146 354.111 942.166 353.457 942.455 352.804C942.744 352.151 943.214 351.696 943.866 351.44C944.518 351.183 945.167 351.198 945.812 351.483C946.457 351.768 946.904 352.239 947.153 352.894C947.402 353.549 947.382 354.203 947.093 354.856C946.804 355.509 946.334 355.964 945.681 356.22C945.25 356.39 944.811 356.435 944.366 356.356C943.924 356.286 943.524 356.112 943.166 355.836C942.82 355.565 942.563 355.208 942.395 354.766Z" fill="#737373"/>
<path d="M982.201 351.29L937.213 367.564L936.277 364.882L981.265 348.608L982.201 351.29Z" fill="#737373"/>
<path d="M949.585 376.044C949.372 375.376 949.427 374.725 949.751 374.089C950.075 373.453 950.57 373.025 951.235 372.805C951.9 372.585 952.548 372.636 953.177 372.956C953.806 373.277 954.227 373.771 954.44 374.438C954.653 375.106 954.598 375.757 954.274 376.393C953.95 377.029 953.456 377.457 952.79 377.677C952.35 377.822 951.909 377.844 951.468 377.74C951.031 377.645 950.64 377.45 950.298 377.155C949.967 376.865 949.729 376.495 949.585 376.044Z" fill="#737373"/>
<path d="M953.711 386.534C953.516 385.861 953.589 385.211 953.93 384.585C954.271 383.958 954.777 383.544 955.448 383.343C956.12 383.141 956.765 383.21 957.386 383.547C958.006 383.885 958.414 384.39 958.609 385.064C958.804 385.737 958.731 386.386 958.39 387.013C958.049 387.639 957.543 388.053 956.872 388.255C956.428 388.388 955.986 388.397 955.549 388.281C955.114 388.174 954.729 387.969 954.394 387.664C954.071 387.365 953.843 386.989 953.711 386.534Z" fill="#737373"/>
<path d="M956.6 397.42C956.423 396.742 956.514 396.095 956.872 395.478C957.229 394.862 957.747 394.462 958.423 394.279C959.1 394.096 959.743 394.182 960.355 394.537C960.966 394.892 961.36 395.408 961.537 396.086C961.714 396.764 961.623 397.412 961.265 398.028C960.908 398.645 960.39 399.044 959.714 399.227C959.266 399.348 958.825 399.345 958.39 399.217C957.958 399.098 957.579 398.882 957.252 398.568C956.937 398.261 956.72 397.878 956.6 397.42Z" fill="#737373"/>
<path d="M959.199 408.381C959.041 407.698 959.148 407.054 959.523 406.447C959.897 405.841 960.425 405.456 961.106 405.292C961.788 405.128 962.429 405.232 963.031 405.603C963.632 405.975 964.012 406.502 964.171 407.184C964.329 407.867 964.221 408.511 963.847 409.118C963.473 409.724 962.945 410.109 962.264 410.273C961.812 410.382 961.371 410.366 960.94 410.226C960.511 410.096 960.138 409.869 959.82 409.546C959.513 409.23 959.306 408.842 959.199 408.381Z" fill="#737373"/>
<path d="M999.17 410.46L952.365 420.36L951.796 417.576L998.602 407.677L999.17 410.46Z" fill="#737373"/>
<path d="M963.52 430.493C963.399 429.803 963.541 429.166 963.948 428.581C964.354 427.997 964.902 427.642 965.592 427.516C966.281 427.39 966.916 427.529 967.497 427.933C968.078 428.337 968.429 428.884 968.551 429.574C968.673 430.264 968.53 430.902 968.123 431.486C967.717 432.071 967.169 432.426 966.48 432.552C966.023 432.635 965.583 432.595 965.16 432.432C964.739 432.278 964.378 432.031 964.078 431.691C963.788 431.359 963.603 430.959 963.52 430.493Z" fill="#737373"/>
<path d="M965.241 441.629C965.137 440.936 965.297 440.303 965.719 439.73C966.141 439.157 966.699 438.817 967.391 438.711C968.084 438.604 968.715 438.761 969.285 439.181C969.855 439.601 970.191 440.157 970.294 440.85C970.398 441.543 970.238 442.176 969.816 442.749C969.394 443.322 968.836 443.662 968.144 443.769C967.685 443.839 967.246 443.787 966.828 443.612C966.411 443.446 966.057 443.19 965.766 442.842C965.485 442.502 965.31 442.097 965.241 441.629Z" fill="#737373"/>
<path d="M966.665 452.807C966.58 452.112 966.757 451.483 967.194 450.923C967.632 450.362 968.198 450.038 968.893 449.95C969.589 449.863 970.216 450.037 970.774 450.472C971.332 450.908 971.654 451.474 971.738 452.169C971.823 452.865 971.646 453.493 971.209 454.054C970.771 454.615 970.205 454.939 969.51 455.027C969.049 455.084 968.612 455.02 968.198 454.834C967.786 454.656 967.439 454.39 967.157 454.034C966.886 453.686 966.722 453.277 966.665 452.807Z" fill="#737373"/>
<path d="M967.792 464.02C967.726 463.323 967.92 462.699 968.372 462.151C968.824 461.603 969.399 461.294 970.097 461.226C970.794 461.158 971.416 461.35 971.963 461.801C972.51 462.251 972.816 462.826 972.881 463.523C972.947 464.221 972.754 464.844 972.301 465.393C971.849 465.941 971.274 466.249 970.577 466.317C970.115 466.362 969.68 466.286 969.271 466.088C968.863 465.899 968.523 465.623 968.251 465.26C967.99 464.905 967.836 464.492 967.792 464.02Z" fill="#737373"/>
<path d="M1007.16 471.612L959.432 474.935L959.242 472.1L1006.97 468.778L1007.16 471.612Z" fill="#737373"/>
<path d="M969.155 486.517C969.127 485.817 969.353 485.205 969.834 484.683C970.316 484.161 970.906 483.885 971.606 483.856C972.307 483.826 972.918 484.052 973.439 484.533C973.961 485.013 974.236 485.604 974.264 486.304C974.292 487.004 974.066 487.615 973.584 488.138C973.103 488.66 972.512 488.936 971.812 488.965C971.349 488.984 970.918 488.884 970.521 488.664C970.124 488.453 969.799 488.158 969.547 487.78C969.305 487.411 969.174 486.99 969.155 486.517Z" fill="#737373"/>
<path d="M969.39 497.785C969.38 497.084 969.623 496.479 970.118 495.97C970.613 495.462 971.211 495.202 971.912 495.193C972.613 495.183 973.217 495.425 973.726 495.92C974.235 496.415 974.494 497.013 974.503 497.714C974.512 498.414 974.269 499.019 973.774 499.528C973.279 500.037 972.681 500.296 971.981 500.306C971.517 500.312 971.089 500.2 970.698 499.969C970.306 499.747 969.99 499.443 969.748 499.058C969.515 498.683 969.396 498.258 969.39 497.785Z" fill="#737373"/>
<path d="M969.326 509.055C969.335 508.354 969.594 507.756 970.103 507.262C970.611 506.767 971.216 506.524 971.917 506.534C972.617 506.544 973.215 506.803 973.711 507.312C974.206 507.821 974.448 508.425 974.439 509.126C974.43 509.827 974.171 510.424 973.662 510.919C973.154 511.414 972.549 511.657 971.848 511.647C971.384 511.641 970.96 511.516 970.575 511.274C970.189 511.042 969.881 510.729 969.65 510.338C969.427 509.956 969.32 509.528 969.326 509.055Z" fill="#737373"/>
<path d="M968.964 520.319C968.992 519.619 969.267 519.029 969.788 518.548C970.31 518.067 970.921 517.842 971.621 517.871C972.321 517.9 972.912 518.176 973.393 518.698C973.875 519.221 974.101 519.832 974.073 520.532C974.045 521.233 973.77 521.823 973.248 522.303C972.726 522.784 972.116 523.01 971.415 522.981C970.952 522.961 970.531 522.825 970.152 522.572C969.774 522.329 969.474 522.009 969.253 521.611C969.041 521.223 968.945 520.792 968.964 520.319Z" fill="#737373"/>
<path d="M1006.97 533.297L959.243 529.974L959.433 527.14L1007.16 530.463L1006.97 533.297Z" fill="#737373"/>
<path d="M967.347 542.798C967.413 542.101 967.719 541.526 968.266 541.075C968.812 540.624 969.434 540.433 970.132 540.501C970.829 540.569 971.404 540.877 971.856 541.426C972.309 541.974 972.502 542.597 972.437 543.295C972.371 543.993 972.065 544.567 971.518 545.018C970.971 545.469 970.349 545.66 969.652 545.592C969.19 545.547 968.777 545.388 968.413 545.114C968.048 544.85 967.766 544.514 967.566 544.104C967.376 543.705 967.303 543.27 967.347 542.798Z" fill="#737373"/>
<path d="M966.093 553.997C966.177 553.301 966.498 552.736 967.057 552.3C967.615 551.864 968.242 551.69 968.937 551.778C969.633 551.865 970.199 552.189 970.637 552.75C971.074 553.311 971.251 553.939 971.166 554.635C971.082 555.331 970.76 555.896 970.202 556.332C969.643 556.768 969.017 556.942 968.321 556.854C967.861 556.796 967.452 556.626 967.096 556.342C966.738 556.068 966.465 555.724 966.277 555.309C966.097 554.904 966.035 554.467 966.093 553.997Z" fill="#737373"/>
<path d="M964.542 565.158C964.645 564.464 964.982 563.908 965.551 563.488C966.121 563.068 966.753 562.911 967.445 563.018C968.138 563.125 968.695 563.464 969.117 564.037C969.54 564.61 969.699 565.243 969.596 565.936C969.493 566.629 969.156 567.186 968.587 567.606C968.017 568.026 967.385 568.183 966.693 568.076C966.234 568.005 965.83 567.823 965.482 567.53C965.131 567.246 964.868 566.894 964.691 566.474C964.522 566.065 964.472 565.626 964.542 565.158Z" fill="#737373"/>
<path d="M962.697 576.272C962.819 575.582 963.17 575.035 963.751 574.631C964.332 574.227 964.967 574.088 965.656 574.214C966.345 574.34 966.893 574.695 967.3 575.279C967.707 575.864 967.849 576.501 967.727 577.191C967.606 577.881 967.254 578.428 966.673 578.832C966.093 579.237 965.457 579.376 964.768 579.25C964.312 579.166 963.913 578.973 963.572 578.67C963.23 578.377 962.976 578.017 962.81 577.593C962.652 577.179 962.615 576.739 962.697 576.272Z" fill="#737373"/>
<path d="M998.605 594.399L951.8 584.499L952.368 581.716L999.174 591.615L998.605 594.399Z" fill="#737373"/>
<path d="M958.126 598.332C958.284 597.649 958.664 597.122 959.266 596.751C959.868 596.379 960.509 596.276 961.19 596.44C961.872 596.604 962.399 596.989 962.774 597.595C963.148 598.201 963.256 598.846 963.097 599.529C962.939 600.211 962.559 600.738 961.957 601.11C961.356 601.481 960.714 601.585 960.033 601.421C959.582 601.312 959.194 601.097 958.87 600.776C958.544 600.463 958.31 600.091 958.168 599.657C958.033 599.235 958.019 598.793 958.126 598.332Z" fill="#737373"/>
<path d="M955.403 609.261C955.58 608.583 955.974 608.066 956.585 607.712C957.197 607.357 957.84 607.271 958.517 607.454C959.193 607.637 959.711 608.036 960.068 608.653C960.426 609.27 960.517 609.917 960.34 610.595C960.163 611.273 959.769 611.789 959.158 612.144C958.547 612.499 957.903 612.585 957.226 612.402C956.778 612.281 956.397 612.055 956.082 611.725C955.764 611.404 955.54 611.024 955.41 610.587C955.286 610.161 955.284 609.719 955.403 609.261Z" fill="#737373"/>
<path d="M952.392 620.112C952.587 619.439 952.994 618.934 953.615 618.596C954.235 618.258 954.881 618.19 955.552 618.392C956.223 618.593 956.729 619.007 957.07 619.633C957.411 620.26 957.484 620.91 957.289 621.583C957.094 622.256 956.687 622.761 956.066 623.099C955.446 623.437 954.8 623.505 954.129 623.303C953.684 623.17 953.309 622.934 953.003 622.594C952.695 622.265 952.481 621.879 952.362 621.438C952.25 621.009 952.26 620.567 952.392 620.112Z" fill="#737373"/>
<path d="M948.144 630.564C948.357 629.896 948.778 629.402 949.407 629.082C950.036 628.761 950.683 628.711 951.349 628.931C952.014 629.151 952.509 629.579 952.832 630.215C953.156 630.85 953.212 631.502 952.999 632.169C952.786 632.837 952.364 633.331 951.735 633.652C951.106 633.972 950.459 634.022 949.794 633.802C949.353 633.657 948.984 633.41 948.688 633.063C948.388 632.724 948.185 632.333 948.078 631.889C947.978 631.457 948 631.015 948.144 630.564Z" fill="#737373"/>
<path d="M981.27 653.468L936.282 637.194L937.219 634.512L982.207 650.786L981.27 653.468Z" fill="#737373"/>
<path d="M940.713 651.755C940.962 651.1 941.409 650.63 942.054 650.344C942.699 650.059 943.348 650.044 944 650.301C944.652 650.557 945.122 651.012 945.411 651.665C945.7 652.318 945.72 652.972 945.472 653.627C945.223 654.282 944.776 654.752 944.131 655.038C943.485 655.323 942.837 655.338 942.185 655.081C941.753 654.912 941.398 654.645 941.121 654.281C940.84 653.927 940.659 653.525 940.576 653.075C940.499 652.638 940.545 652.198 940.713 651.755Z" fill="#737373"/>
<path d="M936.577 662.192C936.844 661.543 937.303 661.086 937.956 660.818C938.608 660.55 939.257 660.554 939.902 660.828C940.546 661.103 941.004 661.57 941.275 662.231C941.546 662.892 941.549 663.546 941.282 664.194C941.016 664.843 940.557 665.301 939.904 665.568C939.251 665.836 938.603 665.832 937.958 665.558C937.531 665.376 937.184 665.1 936.917 664.729C936.646 664.367 936.475 663.959 936.405 663.508C936.34 663.068 936.397 662.63 936.577 662.192Z" fill="#737373"/>
<path d="M932.165 672.512C932.449 671.871 932.921 671.426 933.58 671.176C934.239 670.926 934.888 670.948 935.525 671.24C936.161 671.532 936.606 672.012 936.859 672.68C937.112 673.349 937.097 674.003 936.813 674.644C936.53 675.285 936.058 675.73 935.399 675.979C934.739 676.229 934.091 676.208 933.454 675.916C933.032 675.722 932.693 675.436 932.436 675.058C932.175 674.688 932.016 674.277 931.958 673.823C931.904 673.382 931.974 672.945 932.165 672.512Z" fill="#737373"/>
<path d="M927.48 682.708C927.78 682.075 928.264 681.643 928.93 681.412C929.595 681.18 930.243 681.219 930.871 681.529C931.5 681.839 931.931 682.331 932.166 683.006C932.401 683.681 932.368 684.335 932.067 684.968C931.766 685.601 931.283 686.033 930.617 686.264C929.951 686.496 929.304 686.457 928.675 686.147C928.259 685.942 927.927 685.647 927.681 685.262C927.43 684.885 927.282 684.469 927.236 684.013C927.195 683.571 927.276 683.136 927.48 682.708Z" fill="#737373"/>
<path d="M957.182 709.973L914.865 687.656L916.154 685.124L958.471 707.442L957.182 709.973Z" fill="#737373"/>
<path d="M917.301 702.699C917.635 702.084 918.141 701.679 918.818 701.484C919.495 701.289 920.139 701.364 920.75 701.708C921.36 702.052 921.764 702.567 921.962 703.254C922.16 703.942 922.091 704.593 921.756 705.209C921.422 705.824 920.916 706.229 920.239 706.424C919.562 706.619 918.918 706.544 918.307 706.2C917.903 705.973 917.588 705.66 917.363 705.261C917.133 704.871 917.008 704.447 916.987 703.99C916.97 703.545 917.075 703.115 917.301 702.699Z" fill="#737373"/>
<path d="M911.815 712.479C912.166 711.873 912.683 711.482 913.365 711.306C914.047 711.13 914.688 711.222 915.289 711.582C915.89 711.943 916.28 712.469 916.458 713.162C916.637 713.855 916.551 714.504 916.2 715.11C915.849 715.717 915.332 716.108 914.65 716.284C913.968 716.46 913.327 716.368 912.726 716.007C912.328 715.768 912.022 715.447 911.808 715.042C911.589 714.646 911.475 714.219 911.467 713.761C911.462 713.316 911.578 712.889 911.815 712.479Z" fill="#737373"/>
<path d="M906.069 722.106C906.436 721.509 906.963 721.132 907.65 720.975C908.336 720.817 908.974 720.927 909.565 721.304C910.156 721.681 910.531 722.218 910.691 722.915C910.851 723.613 910.747 724.26 910.38 724.856C910.012 725.453 909.485 725.83 908.799 725.987C908.112 726.145 907.474 726.035 906.883 725.658C906.492 725.408 906.195 725.078 905.992 724.668C905.784 724.265 905.682 723.835 905.686 723.377C905.693 722.933 905.82 722.509 906.069 722.106Z" fill="#737373"/>
<path d="M900.067 731.571C900.45 730.985 900.987 730.622 901.678 730.484C902.368 730.345 903.003 730.472 903.583 730.866C904.163 731.259 904.524 731.806 904.664 732.508C904.805 733.209 904.684 733.853 904.3 734.44C903.917 735.026 903.38 735.388 902.69 735.527C901.999 735.665 901.364 735.538 900.784 735.145C900.4 734.885 900.112 734.547 899.92 734.131C899.723 733.723 899.633 733.29 899.649 732.832C899.668 732.388 899.808 731.967 900.067 731.571Z" fill="#737373"/>
<path d="M925.778 762.666L886.925 734.752L888.544 732.418L927.397 760.332L925.778 762.666Z" fill="#737373"/>
<path d="M887.313 749.992C887.728 749.427 888.284 749.094 888.98 748.994C889.677 748.893 890.304 749.055 890.861 749.479C891.419 749.904 891.749 750.47 891.851 751.178C891.954 751.887 891.797 752.523 891.382 753.088C890.968 753.653 890.412 753.986 889.715 754.086C889.019 754.187 888.392 754.025 887.834 753.601C887.465 753.32 887.196 752.966 887.027 752.54C886.853 752.122 886.786 751.685 886.828 751.228C886.871 750.785 887.033 750.373 887.313 749.992Z" fill="#737373"/>
<path d="M880.569 758.932C880.999 758.379 881.564 758.062 882.263 757.98C882.962 757.899 883.584 758.078 884.13 758.517C884.676 758.957 884.99 759.532 885.073 760.243C885.156 760.954 884.982 761.586 884.552 762.14C884.122 762.693 883.558 763.01 882.859 763.092C882.16 763.173 881.537 762.994 880.992 762.555C880.63 762.264 880.371 761.903 880.214 761.473C880.051 761.05 879.996 760.611 880.05 760.156C880.106 759.714 880.279 759.306 880.569 758.932Z" fill="#737373"/>
<path d="M873.588 767.685C874.033 767.144 874.606 766.842 875.307 766.779C876.007 766.717 876.625 766.913 877.158 767.367C877.692 767.821 877.99 768.405 878.054 769.118C878.117 769.831 877.926 770.459 877.481 771C877.036 771.541 876.464 771.843 875.763 771.906C875.062 771.968 874.445 771.772 873.911 771.318C873.558 771.017 873.309 770.649 873.163 770.215C873.012 769.787 872.969 769.347 873.036 768.894C873.103 768.454 873.287 768.051 873.588 767.685Z" fill="#737373"/>
<path d="M865.629 775.573C866.089 775.044 866.67 774.758 867.372 774.714C868.074 774.671 868.686 774.884 869.207 775.353C869.728 775.821 870.01 776.413 870.054 777.128C870.098 777.842 869.89 778.464 869.431 778.993C868.971 779.522 868.39 779.808 867.688 779.852C866.986 779.895 866.374 779.682 865.853 779.213C865.509 778.903 865.269 778.529 865.136 778.09C864.996 777.659 864.966 777.217 865.045 776.766C865.124 776.328 865.319 775.93 865.629 775.573Z" fill="#737373"/>
<path d="M886.888 809.871L852.213 776.91L854.134 774.817L888.809 807.778L886.888 809.871Z" fill="#737373"/>
<path d="M850.559 792.035C851.047 791.532 851.643 791.278 852.346 791.273C853.05 791.268 853.649 791.514 854.143 792.01C854.638 792.507 854.887 793.113 854.892 793.829C854.897 794.545 854.656 795.155 854.168 795.658C853.68 796.161 853.085 796.415 852.381 796.42C851.678 796.425 851.079 796.179 850.584 795.682C850.257 795.354 850.039 794.967 849.929 794.522C849.813 794.083 849.807 793.641 849.91 793.194C850.013 792.761 850.23 792.375 850.559 792.035Z" fill="#737373"/>
<path d="M842.696 799.948C843.197 799.458 843.8 799.22 844.503 799.235C845.206 799.249 845.798 799.511 846.279 800.021C846.76 800.531 846.993 801.144 846.978 801.86C846.964 802.576 846.706 803.178 846.204 803.668C845.703 804.158 845.101 804.395 844.397 804.381C843.694 804.367 843.102 804.105 842.621 803.595C842.303 803.257 842.095 802.864 841.998 802.416C841.894 801.975 841.9 801.533 842.015 801.089C842.13 800.659 842.357 800.279 842.696 799.948Z" fill="#737373"/>
<path d="M834.622 807.64C835.136 807.165 835.745 806.944 836.448 806.977C837.15 807.011 837.735 807.289 838.202 807.812C838.669 808.334 838.885 808.953 838.851 809.669C838.816 810.384 838.542 810.979 838.028 811.455C837.513 811.931 836.905 812.152 836.202 812.118C835.499 812.085 834.914 811.807 834.448 811.284C834.139 810.938 833.942 810.539 833.857 810.089C833.765 809.645 833.783 809.203 833.91 808.763C834.037 808.336 834.274 807.962 834.622 807.64Z" fill="#737373"/>
<path d="M826.342 815.107C826.87 814.645 827.484 814.441 828.186 814.493C828.887 814.546 829.464 814.84 829.916 815.376C830.369 815.911 830.568 816.535 830.514 817.249C830.46 817.963 830.17 818.551 829.643 819.013C829.115 819.474 828.501 819.678 827.799 819.626C827.098 819.573 826.521 819.279 826.069 818.744C825.769 818.389 825.583 817.986 825.511 817.533C825.431 817.087 825.461 816.646 825.6 816.209C825.739 815.786 825.986 815.418 826.342 815.107Z" fill="#737373"/>
<path d="M842.744 851.967L812.874 814.597L815.062 812.785L844.932 850.155L842.744 851.967Z" fill="#737373"/>
<path d="M809.191 829.337C809.743 828.905 810.368 828.735 811.065 828.826C811.763 828.917 812.323 829.242 812.746 829.801C813.168 830.36 813.333 830.994 813.241 831.704C813.148 832.414 812.826 832.985 812.274 833.417C811.722 833.849 811.097 834.019 810.4 833.928C809.702 833.837 809.142 833.512 808.719 832.953C808.44 832.583 808.276 832.17 808.228 831.714C808.173 831.264 808.227 830.825 808.39 830.397C808.551 829.982 808.818 829.629 809.191 829.337Z" fill="#737373"/>
<path d="M800.332 836.09C800.896 835.673 801.525 835.52 802.22 835.63C802.915 835.74 803.466 836.08 803.874 836.65C804.281 837.221 804.428 837.859 804.316 838.566C804.204 839.273 803.867 839.835 803.303 840.252C802.74 840.668 802.111 840.822 801.415 840.711C800.72 840.601 800.169 840.261 799.762 839.691C799.492 839.313 799.34 838.896 799.305 838.439C799.262 837.988 799.328 837.551 799.502 837.127C799.675 836.717 799.952 836.371 800.332 836.09Z" fill="#737373"/>
<path d="M791.293 842.594C791.868 842.193 792.501 842.057 793.193 842.186C793.885 842.315 794.427 842.67 794.819 843.251C795.21 843.832 795.34 844.475 795.209 845.178C795.078 845.881 794.725 846.434 794.15 846.835C793.576 847.236 792.942 847.372 792.25 847.243C791.558 847.114 791.016 846.758 790.625 846.177C790.366 845.792 790.225 845.371 790.202 844.914C790.171 844.462 790.249 844.026 790.435 843.608C790.619 843.203 790.905 842.865 791.293 842.594Z" fill="#737373"/>
<path d="M782.08 848.843C782.666 848.458 783.303 848.34 783.991 848.488C784.68 848.636 785.211 849.005 785.587 849.597C785.963 850.189 786.075 850.834 785.925 851.534C785.775 852.233 785.407 852.776 784.821 853.161C784.236 853.546 783.599 853.664 782.911 853.516C782.222 853.368 781.69 852.999 781.315 852.407C781.066 852.015 780.936 851.59 780.926 851.133C780.908 850.68 780.998 850.247 781.195 849.834C781.39 849.434 781.685 849.104 782.08 848.843Z" fill="#737373"/>
<path d="M793.339 887.56L768.801 846.491L771.217 844.996L795.754 886.065L793.339 887.56Z" fill="#737373"/>
<path d="M763.161 860.562C763.767 860.209 764.409 860.126 765.089 860.311C765.769 860.497 766.28 860.895 766.623 861.506C766.966 862.117 767.043 862.768 766.855 863.457C766.667 864.147 766.27 864.669 765.664 865.021C765.058 865.373 764.416 865.456 763.736 865.271C763.056 865.086 762.545 864.687 762.202 864.076C761.975 863.672 761.869 863.241 761.883 862.783C761.89 862.33 762.003 861.903 762.223 861.501C762.439 861.113 762.752 860.8 763.161 860.562Z" fill="#737373"/>
<path d="M753.003 865.135C753.618 864.8 754.263 864.734 754.938 864.938C755.612 865.142 756.112 865.554 756.439 866.174C756.765 866.794 756.825 867.446 756.618 868.131C756.411 868.815 756 869.325 755.385 869.661C754.769 869.996 754.124 870.062 753.45 869.858C752.776 869.654 752.275 869.242 751.949 868.622C751.733 868.211 751.638 867.777 751.665 867.32C751.684 866.868 751.809 866.444 752.039 866.049C752.266 865.666 752.587 865.362 753.003 865.135Z" fill="#737373"/>
<path d="M743.189 870.309C743.813 869.991 744.46 869.943 745.129 870.165C745.797 870.387 746.286 870.813 746.596 871.441C746.905 872.07 746.947 872.724 746.722 873.402C746.496 874.08 746.071 874.579 745.447 874.897C744.823 875.215 744.176 875.263 743.508 875.041C742.839 874.819 742.35 874.393 742.04 873.764C741.835 873.348 741.753 872.912 741.792 872.456C741.823 872.004 741.959 871.584 742.201 871.195C742.438 870.819 742.767 870.524 743.189 870.309Z" fill="#737373"/>
<path d="M733.238 875.206C733.87 874.905 734.518 874.875 735.181 875.116C735.843 875.356 736.321 875.795 736.613 876.432C736.906 877.069 736.93 877.723 736.686 878.395C736.442 879.066 736.004 879.553 735.371 879.854C734.738 880.155 734.09 880.185 733.428 879.944C732.765 879.704 732.288 879.265 731.995 878.628C731.802 878.206 731.731 877.768 731.783 877.314C731.826 876.863 731.973 876.447 732.225 876.065C732.473 875.696 732.81 875.41 733.238 875.206Z" fill="#737373"/>
<path d="M739.192 915.036L720.414 871.035L723.012 869.886L741.79 913.888L739.192 915.036Z" fill="#737373"/>
<path d="M712.952 884.156C713.6 883.891 714.249 883.896 714.898 884.173C715.547 884.449 716 884.913 716.258 885.565C716.515 886.217 716.504 886.871 716.224 887.528C715.944 888.185 715.48 888.646 714.831 888.912C714.183 889.177 713.534 889.172 712.885 888.895C712.236 888.619 711.783 888.154 711.525 887.503C711.355 887.071 711.308 886.63 711.384 886.179C711.452 885.732 711.622 885.325 711.894 884.957C712.161 884.603 712.513 884.335 712.952 884.156Z" fill="#737373"/>
<path d="M702.632 888.201C703.288 887.954 703.936 887.977 704.578 888.272C705.219 888.566 705.66 889.042 705.9 889.701C706.139 890.359 706.111 891.013 705.813 891.661C705.515 892.31 705.038 892.758 704.383 893.006C703.727 893.253 703.079 893.23 702.437 892.936C701.796 892.641 701.355 892.165 701.115 891.507C700.957 891.071 700.921 890.628 701.01 890.18C701.09 889.735 701.271 889.333 701.553 888.973C701.829 888.626 702.189 888.368 702.632 888.201Z" fill="#737373"/>
<path d="M692.206 891.955C692.868 891.726 693.516 891.767 694.149 892.079C694.782 892.391 695.21 892.879 695.432 893.544C695.654 894.209 695.608 894.861 695.292 895.501C694.977 896.141 694.489 896.576 693.826 896.805C693.164 897.035 692.516 896.993 691.883 896.681C691.25 896.37 690.822 895.881 690.6 895.217C690.453 894.777 690.43 894.334 690.53 893.888C690.622 893.445 690.814 893.048 691.106 892.697C691.392 892.357 691.758 892.11 692.206 891.955Z" fill="#737373"/>
<path d="M681.68 895.415C682.349 895.205 682.995 895.264 683.62 895.593C684.245 895.922 684.659 896.422 684.863 897.092C685.068 897.763 685.003 898.413 684.671 899.045C684.338 899.676 683.838 900.097 683.17 900.307C682.501 900.518 681.855 900.459 681.23 900.13C680.605 899.801 680.191 899.301 679.987 898.631C679.851 898.187 679.84 897.743 679.953 897.301C680.057 896.861 680.259 896.469 680.56 896.126C680.855 895.795 681.229 895.558 681.68 895.415Z" fill="#737373"/>
<path d="M682.222 935.631L669.524 889.506L672.256 888.727L684.954 934.852L682.222 935.631Z" fill="#737373"/>
<path d="M660.364 901.442C661.043 901.269 661.686 901.364 662.292 901.727C662.899 902.09 663.286 902.612 663.454 903.292C663.621 903.972 663.522 904.618 663.156 905.23C662.79 905.841 662.267 906.234 661.588 906.407C660.909 906.581 660.267 906.486 659.66 906.123C659.054 905.76 658.667 905.238 658.499 904.557C658.388 904.107 658.401 903.664 658.537 903.228C658.664 902.795 658.888 902.416 659.207 902.09C659.52 901.775 659.906 901.559 660.364 901.442Z" fill="#737373"/>
<path d="M649.591 904.004C650.274 903.85 650.914 903.962 651.511 904.342C652.107 904.722 652.48 905.254 652.63 905.938C652.779 906.623 652.662 907.266 652.28 907.867C651.897 908.468 651.364 908.846 650.681 909C649.997 909.155 649.357 909.042 648.761 908.662C648.164 908.283 647.791 907.75 647.642 907.066C647.543 906.612 647.567 906.17 647.716 905.739C647.854 905.309 648.088 904.936 648.416 904.619C648.737 904.313 649.129 904.108 649.591 904.004Z" fill="#737373"/>
<path d="M638.75 906.262C639.438 906.126 640.075 906.256 640.661 906.652C641.247 907.048 641.606 907.591 641.737 908.279C641.867 908.967 641.734 909.607 641.335 910.197C640.936 910.787 640.393 911.15 639.706 911.285C639.018 911.421 638.381 911.29 637.795 910.894C637.209 910.498 636.85 909.956 636.719 909.268C636.633 908.812 636.669 908.37 636.829 907.943C636.979 907.518 637.223 907.151 637.56 906.844C637.889 906.547 638.286 906.353 638.75 906.262Z" fill="#737373"/>
<path d="M627.852 908.213C628.543 908.097 629.176 908.245 629.751 908.657C630.327 909.069 630.671 909.621 630.783 910.313C630.896 911.004 630.744 911.64 630.33 912.218C629.916 912.797 629.363 913.145 628.672 913.261C627.981 913.377 627.348 913.229 626.772 912.817C626.197 912.405 625.853 911.853 625.74 911.162C625.666 910.704 625.714 910.263 625.886 909.841C626.047 909.42 626.301 909.06 626.646 908.762C626.983 908.475 627.385 908.292 627.852 908.213Z" fill="#737373"/>
<path d="M622.995 948.075L616.592 900.665L619.406 900.271L625.808 947.681L622.995 948.075Z" fill="#737373"/>
<path d="M605.915 911.193C606.611 911.115 607.236 911.298 607.788 911.741C608.341 912.185 608.655 912.755 608.73 913.451C608.805 914.148 608.62 914.774 608.175 915.329C607.73 915.883 607.159 916.2 606.463 916.277C605.766 916.355 605.142 916.172 604.589 915.729C604.037 915.286 603.723 914.716 603.648 914.019C603.598 913.558 603.67 913.121 603.864 912.709C604.048 912.297 604.32 911.952 604.681 911.674C605.033 911.406 605.444 911.246 605.915 911.193Z" fill="#737373"/>
<path d="M594.893 912.218C595.592 912.16 596.211 912.36 596.752 912.818C597.292 913.277 597.591 913.855 597.647 914.554C597.703 915.252 597.502 915.873 597.042 916.415C596.582 916.957 596.003 917.257 595.305 917.315C594.606 917.374 593.987 917.174 593.446 916.715C592.906 916.257 592.607 915.678 592.551 914.98C592.514 914.517 592.597 914.083 592.802 913.676C592.997 913.27 593.279 912.933 593.647 912.665C594.006 912.406 594.422 912.258 594.893 912.218Z" fill="#737373"/>
<path d="M583.848 912.933C584.547 912.894 585.161 913.111 585.689 913.584C586.217 914.058 586.5 914.644 586.538 915.344C586.575 916.044 586.357 916.658 585.883 917.187C585.409 917.716 584.822 918 584.122 918.039C583.422 918.078 582.809 917.861 582.281 917.388C581.753 916.914 581.47 916.328 581.432 915.628C581.407 915.165 581.503 914.733 581.718 914.332C581.924 913.931 582.215 913.602 582.59 913.344C582.956 913.096 583.375 912.959 583.848 912.933Z" fill="#737373"/>
<path d="M572.787 913.336C573.487 913.316 574.095 913.55 574.61 914.038C575.126 914.526 575.393 915.12 575.411 915.821C575.43 916.521 575.196 917.129 574.707 917.645C574.219 918.16 573.625 918.428 572.924 918.447C572.224 918.467 571.616 918.233 571.101 917.745C570.586 917.257 570.319 916.663 570.3 915.963C570.287 915.499 570.394 915.07 570.62 914.675C570.837 914.28 571.136 913.959 571.518 913.712C571.891 913.474 572.314 913.349 572.787 913.336Z" fill="#737373"/>
</svg>
