<svg width="157" height="469" viewBox="0 0 157 469" fill="none" xmlns="http://www.w3.org/2000/svg">
<path d="M0 0H157V375V469H0V0Z" fill="#E71717"/>
<rect x="49.0801" y="268.169" width="46.9078" height="43.1388" transform="rotate(-45 49.0801 268.169)" fill="white"/>
<rect x="49.0801" y="268.169" width="46.9078" height="43.1388" transform="rotate(-45 49.0801 268.169)" fill="white"/>
<rect x="45.9609" y="339.299" width="47.5999" height="25.8701" transform="rotate(-45 45.9609 339.299)" fill="white"/>
<rect x="45.9609" y="339.299" width="47.5999" height="25.8701" transform="rotate(-45 45.9609 339.299)" fill="white"/>
<rect x="84.4404" y="303.559" width="28.0989" height="24.3716" transform="rotate(-45 84.4404 303.559)" fill="white"/>
<rect x="84.4404" y="303.559" width="28.0989" height="24.3716" transform="rotate(-45 84.4404 303.559)" fill="white"/>
<rect x="37" y="300.879" width="24.1074" height="28.1304" transform="rotate(-45 37 300.879)" fill="white"/>
<rect x="37" y="300.879" width="24.1074" height="28.1304" transform="rotate(-45 37 300.879)" fill="white"/>
<circle cx="79.4085" cy="303.419" r="18.5081" fill="#E71717"/>
<ellipse cx="79.249" cy="303.5" rx="7" ry="7.5" fill="white"/>
<path d="M108.749 330.5C108.749 345.536 97.211 357.5 83.249 357.5C69.2871 357.5 57.749 345.536 57.749 330.5C57.749 315.464 69.2871 303.5 83.249 303.5C97.211 303.5 108.749 315.464 108.749 330.5Z" stroke="white" stroke-width="5"/>
<rect x="33" y="12" width="80" height="40" rx="10" fill="#E71717"/>
<path d="M50.552 406H49.112C48.8133 406 48.664 405.851 48.664 405.552V387.76C48.664 387.568 48.5573 387.472 48.344 387.472H43.992C43.672 387.472 43.512 387.323 43.512 387.024V385.872C43.512 385.573 43.672 385.424 43.992 385.424H55.672C55.992 385.424 56.152 385.573 56.152 385.872V387.024C56.152 387.323 55.992 387.472 55.672 387.472H51.32C51.1067 387.472 51 387.568 51 387.76V405.552C51 405.851 50.8507 406 50.552 406ZM59.4403 406H57.8403C57.5629 406 57.4669 405.851 57.5523 405.552L63.5363 385.872C63.6216 385.573 63.8243 385.424 64.1443 385.424H66.4483C66.7683 385.424 66.9709 385.573 67.0563 385.872L73.0403 405.552C73.1256 405.851 73.0296 406 72.7523 406H71.1203C70.8856 406 70.7363 405.851 70.6723 405.552L69.1683 400.88H61.4243L59.9203 405.552C59.8349 405.851 59.6749 406 59.4403 406ZM65.2323 387.824L61.9363 398.896H68.6563L65.3603 387.824H65.2323ZM78.9615 385.872V405.552C78.9615 405.851 78.8122 406 78.5135 406H77.0735C76.7748 406 76.6255 405.851 76.6255 405.552V385.872C76.6255 385.573 76.7748 385.424 77.0735 385.424H78.5135C78.8122 385.424 78.9615 385.573 78.9615 385.872ZM86.0723 406H84.6323C84.3336 406 84.1843 405.851 84.1843 405.552V385.872C84.1843 385.573 84.3336 385.424 84.6323 385.424H86.0723C86.3709 385.424 86.5203 385.573 86.5203 385.872V396.912H86.6163C86.7656 396.464 87.0003 396.027 87.3203 395.6L94.4883 385.872C94.6803 385.573 94.9576 385.424 95.3203 385.424H97.0483C97.4109 385.424 97.4643 385.584 97.2083 385.904L90.8723 394.48L98.1042 405.488C98.3389 405.829 98.2429 406 97.8162 406H96.5043C96.0563 406 95.7469 405.851 95.5763 405.552L89.4323 396.176L86.5203 399.664V405.552C86.5203 405.851 86.3709 406 86.0723 406ZM106.075 403.952H109.339C111.131 403.952 112.027 403.024 112.027 401.168V390.256C112.027 388.4 111.131 387.472 109.339 387.472H106.075C104.304 387.472 103.419 388.4 103.419 390.256V401.168C103.419 403.024 104.304 403.952 106.075 403.952ZM109.627 406H105.819C104.347 406 103.184 405.584 102.331 404.752C101.499 403.92 101.083 402.757 101.083 401.264V390.16C101.083 388.667 101.499 387.504 102.331 386.672C103.184 385.84 104.347 385.424 105.819 385.424H109.627C111.099 385.424 112.251 385.851 113.083 386.704C113.936 387.536 114.363 388.688 114.363 390.16V401.264C114.363 402.736 113.936 403.899 113.083 404.752C112.251 405.584 111.099 406 109.627 406Z" fill="white"/>
</svg>
