<svg width="157" height="469" viewBox="0 0 157 469" fill="none" xmlns="http://www.w3.org/2000/svg">
<path d="M0 0H157V469V234.5L0 469V0Z" fill="#E71717"/>
<rect x="58.4316" y="198.939" width="29.6129" height="29.6129" transform="rotate(-45 58.4316 198.939)" fill="white"/>
<rect x="58.4316" y="198.939" width="29.6129" height="29.6129" transform="rotate(-45 58.4316 198.939)" fill="white"/>
<rect x="58.4316" y="245.58" width="29.6129" height="29.6129" transform="rotate(-45 58.4316 245.58)" fill="white"/>
<rect x="58.4316" y="245.58" width="29.6129" height="29.6129" transform="rotate(-45 58.4316 245.58)" fill="white"/>
<rect x="82.1211" y="222.63" width="29.6129" height="29.6129" transform="rotate(-45 82.1211 222.63)" fill="white"/>
<rect x="82.1211" y="222.63" width="29.6129" height="29.6129" transform="rotate(-45 82.1211 222.63)" fill="white"/>
<rect x="34" y="222.63" width="29.6129" height="29.6129" transform="rotate(-45 34 222.63)" fill="white"/>
<rect x="34" y="222.63" width="29.6129" height="29.6129" transform="rotate(-45 34 222.63)" fill="white"/>
<circle cx="79.1594" cy="222.419" r="18.5081" fill="#D9D9D9"/>
<circle cx="79.5" cy="222.5" r="7.5" fill="white"/>
<path d="M101.09 244.999C101.09 257.351 91.2358 267.3 79.1592 267.3C67.0825 267.3 57.2285 257.351 57.2285 244.999C57.2285 232.647 67.0825 222.698 79.1592 222.698C91.2358 222.698 101.09 232.647 101.09 244.999Z" stroke="white" stroke-width="5"/>
<rect x="33" y="12" width="80" height="40" rx="10" fill="#E71717"/>
<path d="M134.552 53H133.112C132.813 53 132.664 52.8507 132.664 52.552V34.76C132.664 34.568 132.557 34.472 132.344 34.472H127.992C127.672 34.472 127.512 34.3227 127.512 34.024V32.872C127.512 32.5733 127.672 32.424 127.992 32.424H139.672C139.992 32.424 140.152 32.5733 140.152 32.872V34.024C140.152 34.3227 139.992 34.472 139.672 34.472H135.32C135.107 34.472 135 34.568 135 34.76V52.552C135 52.8507 134.851 53 134.552 53ZM127.989 81H126.389C126.112 81 126.016 80.8507 126.101 80.552L132.085 60.872C132.17 60.5733 132.373 60.424 132.693 60.424H134.997C135.317 60.424 135.52 60.5733 135.605 60.872L141.589 80.552C141.674 80.8507 141.578 81 141.301 81H139.669C139.434 81 139.285 80.8507 139.221 80.552L137.717 75.88H129.973L128.469 80.552C128.384 80.8507 128.224 81 127.989 81ZM133.781 62.824L130.485 73.896H137.205L133.909 62.824H133.781ZM135.029 88.872V108.552C135.029 108.851 134.88 109 134.581 109H133.141C132.842 109 132.693 108.851 132.693 108.552V88.872C132.693 88.5733 132.842 88.424 133.141 88.424H134.581C134.88 88.424 135.029 88.5733 135.029 88.872ZM129.301 137H127.861C127.562 137 127.413 136.851 127.413 136.552V116.872C127.413 116.573 127.562 116.424 127.861 116.424H129.301C129.6 116.424 129.749 116.573 129.749 116.872V127.912H129.845C129.994 127.464 130.229 127.027 130.549 126.6L137.717 116.872C137.909 116.573 138.186 116.424 138.549 116.424H140.277C140.64 116.424 140.693 116.584 140.437 116.904L134.101 125.48L141.333 136.488C141.568 136.829 141.472 137 141.045 137H139.733C139.285 137 138.976 136.851 138.805 136.552L132.661 127.176L129.749 130.664V136.552C129.749 136.851 129.6 137 129.301 137ZM132.405 162.952H135.669C137.461 162.952 138.357 162.024 138.357 160.168V149.256C138.357 147.4 137.461 146.472 135.669 146.472H132.405C130.634 146.472 129.749 147.4 129.749 149.256V160.168C129.749 162.024 130.634 162.952 132.405 162.952ZM135.957 165H132.149C130.677 165 129.514 164.584 128.661 163.752C127.829 162.92 127.413 161.757 127.413 160.264V149.16C127.413 147.667 127.829 146.504 128.661 145.672C129.514 144.84 130.677 144.424 132.149 144.424H135.957C137.429 144.424 138.581 144.851 139.413 145.704C140.266 146.536 140.693 147.688 140.693 149.16V160.264C140.693 161.736 140.266 162.899 139.413 163.752C138.581 164.584 137.429 165 135.957 165Z" fill="white"/>
</svg>
