<svg width="157" height="469" viewBox="0 0 157 469" fill="none" xmlns="http://www.w3.org/2000/svg">
<path d="M0 0H157V375V469H0V0Z" fill="#E71717"/>
<rect x="58.4316" y="198.939" width="29.6129" height="29.6129" transform="rotate(-45 58.4316 198.939)" fill="white"/>
<rect x="58.4316" y="198.939" width="29.6129" height="29.6129" transform="rotate(-45 58.4316 198.939)" fill="white"/>
<rect x="58.4316" y="245.58" width="29.6129" height="29.6129" transform="rotate(-45 58.4316 245.58)" fill="white"/>
<rect x="58.4316" y="245.58" width="29.6129" height="29.6129" transform="rotate(-45 58.4316 245.58)" fill="white"/>
<rect x="82.1211" y="222.63" width="29.6129" height="29.6129" transform="rotate(-45 82.1211 222.63)" fill="white"/>
<rect x="82.1211" y="222.63" width="29.6129" height="29.6129" transform="rotate(-45 82.1211 222.63)" fill="white"/>
<rect x="34" y="222.63" width="29.6129" height="29.6129" transform="rotate(-45 34 222.63)" fill="white"/>
<rect x="34" y="222.63" width="29.6129" height="29.6129" transform="rotate(-45 34 222.63)" fill="white"/>
<circle cx="79.1594" cy="222.419" r="18.5081" fill="#D9D9D9"/>
<circle cx="79.5" cy="222.5" r="7.5" fill="white"/>
<path d="M101.09 244.999C101.09 257.351 91.2358 267.3 79.1592 267.3C67.0825 267.3 57.2285 257.351 57.2285 244.999C57.2285 232.647 67.0825 222.698 79.1592 222.698C91.2358 222.698 101.09 232.647 101.09 244.999Z" stroke="white" stroke-width="5"/>
<rect x="33" y="12" width="80" height="40" rx="10" fill="#E71717"/>
</svg>
