<svg width="157" height="469" viewBox="0 0 157 469" fill="none" xmlns="http://www.w3.org/2000/svg">
<path d="M0 0H157V375V469H0V0Z" fill="#E71717"/>
<rect x="49.0801" y="268.169" width="46.9078" height="43.1388" transform="rotate(-45 49.0801 268.169)" fill="white"/>
<rect x="49.0801" y="268.169" width="46.9078" height="43.1388" transform="rotate(-45 49.0801 268.169)" fill="white"/>
<rect x="45.9609" y="339.299" width="47.5999" height="25.8701" transform="rotate(-45 45.9609 339.299)" fill="white"/>
<rect x="45.9609" y="339.299" width="47.5999" height="25.8701" transform="rotate(-45 45.9609 339.299)" fill="white"/>
<rect x="84.4404" y="303.559" width="28.0989" height="24.3716" transform="rotate(-45 84.4404 303.559)" fill="white"/>
<rect x="84.4404" y="303.559" width="28.0989" height="24.3716" transform="rotate(-45 84.4404 303.559)" fill="white"/>
<rect x="37" y="300.879" width="24.1074" height="28.1304" transform="rotate(-45 37 300.879)" fill="white"/>
<rect x="37" y="300.879" width="24.1074" height="28.1304" transform="rotate(-45 37 300.879)" fill="white"/>
<circle cx="79.4085" cy="303.419" r="18.5081" fill="#E71717"/>
<ellipse cx="79.249" cy="303.5" rx="7" ry="7.5" fill="white"/>
<path d="M83.249 303.5C97.211 303.5 108.749 315.464 108.749 330.5C108.749 345.536 97.211 357.5 83.249 357.5C69.2871 357.5 57.749 345.536 57.749 330.5C57.749 315.464 69.2871 303.5 83.249 303.5Z" stroke="white" stroke-width="5"/>
<rect x="33" y="12" width="80" height="40" rx="10" fill="#E71717"/>
<path d="M53.054 385.138H55.808C56.1253 385.138 56.284 385.297 56.284 385.614V406.524C56.284 406.841 56.1253 407 55.808 407H54.312C53.9947 407 53.836 406.841 53.836 406.524V388.47H53.7L48.43 401.798C48.294 402.093 48.09 402.24 47.818 402.24H46.186C45.8913 402.24 45.6987 402.093 45.608 401.798L40.236 388.436H40.1V406.524C40.1 406.841 39.9527 407 39.658 407H38.162C37.8447 407 37.686 406.841 37.686 406.524V385.614C37.686 385.297 37.8447 385.138 38.162 385.138H40.916C41.12 385.138 41.256 385.229 41.324 385.41L46.9 399.486H47.07L52.646 385.41C52.6913 385.229 52.8273 385.138 53.054 385.138ZM73.2867 385.138H74.8167C75.134 385.138 75.2927 385.285 75.2927 385.58V401.968C75.2927 403.555 74.8507 404.79 73.9667 405.674C73.0827 406.558 71.8587 407 70.2947 407H66.5207C64.9567 407 63.7213 406.558 62.8147 405.674C61.9307 404.79 61.4887 403.555 61.4887 401.968V385.614C61.4887 385.297 61.6473 385.138 61.9647 385.138H63.4947C63.812 385.138 63.9707 385.297 63.9707 385.614V401.866C63.9707 403.838 64.9113 404.824 66.7927 404.824H69.9887C71.8927 404.824 72.8447 403.838 72.8447 401.866V385.614C72.8447 385.297 72.992 385.138 73.2867 385.138ZM80.2468 401.968V400.88C80.2468 400.563 80.4055 400.404 80.7228 400.404H82.2528C82.5702 400.404 82.7288 400.563 82.7288 400.88V401.764C82.7288 403.804 83.7375 404.824 85.7548 404.824H88.7468C90.7642 404.824 91.7728 403.781 91.7728 401.696V400.54C91.7728 398.908 90.4242 397.843 87.7268 397.344C86.5935 397.14 85.4602 396.902 84.3268 396.63C83.1935 396.358 82.2302 395.837 81.4368 395.066C80.6435 394.273 80.2468 393.196 80.2468 391.836V390.17C80.2468 388.606 80.6888 387.382 81.5728 386.498C82.4795 385.591 83.7148 385.138 85.2788 385.138H89.0528C90.5942 385.138 91.8182 385.591 92.7248 386.498C93.6315 387.382 94.0848 388.606 94.0848 390.17V391.02C94.0848 391.36 93.9375 391.53 93.6428 391.53H92.0788C91.7842 391.53 91.6368 391.36 91.6368 391.02V390.408C91.6368 388.345 90.6282 387.314 88.6108 387.314H85.7208C83.7035 387.314 82.6948 388.391 82.6948 390.544V391.904C82.6948 393.06 83.4542 393.853 84.9728 394.284C85.6528 394.465 86.4008 394.635 87.2168 394.794C88.0328 394.93 88.8488 395.123 89.6648 395.372C90.5035 395.599 91.2628 395.893 91.9428 396.256C92.6228 396.596 93.1668 397.129 93.5748 397.854C94.0055 398.557 94.2208 399.418 94.2208 400.438V401.968C94.2208 403.532 93.7675 404.767 92.8608 405.674C91.9542 406.558 90.7302 407 89.1888 407H85.2788C83.7375 407 82.5135 406.558 81.6068 405.674C80.7002 404.767 80.2468 403.532 80.2468 401.968ZM101.996 385.614V406.524C101.996 406.841 101.838 407 101.52 407H99.9902C99.6729 407 99.5142 406.841 99.5142 406.524V385.614C99.5142 385.297 99.6729 385.138 99.9902 385.138H101.52C101.838 385.138 101.996 385.297 101.996 385.614ZM116.317 407H112.237C110.673 407 109.438 406.558 108.531 405.674C107.647 404.79 107.205 403.555 107.205 401.968V390.17C107.205 388.583 107.647 387.348 108.531 386.464C109.438 385.58 110.673 385.138 112.237 385.138H116.317C117.881 385.138 119.105 385.58 119.989 386.464C120.896 387.348 121.349 388.583 121.349 390.17V391.836C121.349 392.153 121.191 392.312 120.873 392.312H119.343C119.026 392.312 118.867 392.153 118.867 391.836V390.272C118.867 388.3 117.915 387.314 116.011 387.314H112.509C110.628 387.314 109.687 388.3 109.687 390.272V401.866C109.687 403.838 110.628 404.824 112.509 404.824H116.011C117.915 404.824 118.867 403.838 118.867 401.866V400.302C118.867 399.985 119.026 399.826 119.343 399.826H120.873C121.191 399.826 121.349 399.985 121.349 400.302V401.968C121.349 403.555 120.896 404.79 119.989 405.674C119.105 406.558 117.881 407 116.317 407Z" fill="white"/>
</svg>
