<svg width="157" height="469" viewBox="0 0 157 469" fill="none" xmlns="http://www.w3.org/2000/svg">
<path d="M0 0H157V375V469H0V0Z" fill="#E71717"/>
<rect x="58.4316" y="200.939" width="29.6129" height="29.6129" transform="rotate(-45 58.4316 200.939)" fill="white"/>
<rect x="58.4316" y="200.939" width="29.6129" height="29.6129" transform="rotate(-45 58.4316 200.939)" fill="white"/>
<rect x="58.4316" y="247.58" width="29.6129" height="29.6129" transform="rotate(-45 58.4316 247.58)" fill="white"/>
<rect x="58.4316" y="247.58" width="29.6129" height="29.6129" transform="rotate(-45 58.4316 247.58)" fill="white"/>
<rect x="82.1211" y="224.63" width="29.6129" height="29.6129" transform="rotate(-45 82.1211 224.63)" fill="white"/>
<rect x="82.1211" y="224.63" width="29.6129" height="29.6129" transform="rotate(-45 82.1211 224.63)" fill="white"/>
<rect x="34" y="224.63" width="29.6129" height="29.6129" transform="rotate(-45 34 224.63)" fill="white"/>
<rect x="34" y="224.63" width="29.6129" height="29.6129" transform="rotate(-45 34 224.63)" fill="white"/>
<circle cx="79.1594" cy="224.419" r="18.5081" fill="#D9D9D9"/>
<circle cx="79.5" cy="224.5" r="7.5" fill="white"/>
<path d="M101.09 246.999C101.09 259.351 91.2358 269.3 79.1592 269.3C67.0825 269.3 57.2285 259.351 57.2285 246.999C57.2285 234.647 67.0825 224.698 79.1592 224.698C91.2358 224.698 101.09 234.647 101.09 246.999Z" stroke="white" stroke-width="5"/>
<rect x="33" y="12" width="80" height="40" rx="10" fill="#E71717"/>
<path d="M48.552 127H47.112C46.8133 127 46.664 126.851 46.664 126.552V108.76C46.664 108.568 46.5573 108.472 46.344 108.472H41.992C41.672 108.472 41.512 108.323 41.512 108.024V106.872C41.512 106.573 41.672 106.424 41.992 106.424H53.672C53.992 106.424 54.152 106.573 54.152 106.872V108.024C54.152 108.323 53.992 108.472 53.672 108.472H49.32C49.1067 108.472 49 108.568 49 108.76V126.552C49 126.851 48.8507 127 48.552 127ZM57.4403 127H55.8403C55.5629 127 55.4669 126.851 55.5523 126.552L61.5363 106.872C61.6216 106.573 61.8243 106.424 62.1443 106.424H64.4483C64.7683 106.424 64.9709 106.573 65.0563 106.872L71.0403 126.552C71.1256 126.851 71.0296 127 70.7523 127H69.1203C68.8856 127 68.7363 126.851 68.6723 126.552L67.1683 121.88H59.4243L57.9203 126.552C57.8349 126.851 57.6749 127 57.4403 127ZM63.2323 108.824L59.9363 119.896H66.6563L63.3603 108.824H63.2323ZM76.9615 106.872V126.552C76.9615 126.851 76.8122 127 76.5135 127H75.0735C74.7748 127 74.6255 126.851 74.6255 126.552V106.872C74.6255 106.573 74.7748 106.424 75.0735 106.424H76.5135C76.8122 106.424 76.9615 106.573 76.9615 106.872ZM84.0723 127H82.6323C82.3336 127 82.1843 126.851 82.1843 126.552V106.872C82.1843 106.573 82.3336 106.424 82.6323 106.424H84.0723C84.3709 106.424 84.5203 106.573 84.5203 106.872V117.912H84.6163C84.7656 117.464 85.0003 117.027 85.3203 116.6L92.4883 106.872C92.6803 106.573 92.9576 106.424 93.3203 106.424H95.0483C95.4109 106.424 95.4643 106.584 95.2083 106.904L88.8723 115.48L96.1042 126.488C96.3389 126.829 96.2429 127 95.8162 127H94.5043C94.0563 127 93.7469 126.851 93.5763 126.552L87.4323 117.176L84.5203 120.664V126.552C84.5203 126.851 84.3709 127 84.0723 127ZM104.075 124.952H107.339C109.131 124.952 110.027 124.024 110.027 122.168V111.256C110.027 109.4 109.131 108.472 107.339 108.472H104.075C102.304 108.472 101.419 109.4 101.419 111.256V122.168C101.419 124.024 102.304 124.952 104.075 124.952ZM107.627 127H103.819C102.347 127 101.184 126.584 100.331 125.752C99.499 124.92 99.083 123.757 99.083 122.264V111.16C99.083 109.667 99.499 108.504 100.331 107.672C101.184 106.84 102.347 106.424 103.819 106.424H107.627C109.099 106.424 110.251 106.851 111.083 107.704C111.936 108.536 112.363 109.688 112.363 111.16V122.264C112.363 123.736 111.936 124.899 111.083 125.752C110.251 126.584 109.099 127 107.627 127Z" fill="white"/>
</svg>
