<svg width="157" height="469" viewBox="0 0 157 469" fill="none" xmlns="http://www.w3.org/2000/svg">
<path d="M0 0H157V469V234.5L0 469V0Z" fill="#E71717"/>
<rect x="58.4312" y="198.939" width="29.6129" height="29.6129" transform="rotate(-45 58.4312 198.939)" fill="white"/>
<rect x="58.4312" y="198.939" width="29.6129" height="29.6129" transform="rotate(-45 58.4312 198.939)" fill="white"/>
<rect x="58.4312" y="245.58" width="29.6129" height="29.6129" transform="rotate(-45 58.4312 245.58)" fill="white"/>
<rect x="58.4312" y="245.58" width="29.6129" height="29.6129" transform="rotate(-45 58.4312 245.58)" fill="white"/>
<rect x="82.1211" y="222.63" width="29.6129" height="29.6129" transform="rotate(-45 82.1211 222.63)" fill="white"/>
<rect x="82.1211" y="222.63" width="29.6129" height="29.6129" transform="rotate(-45 82.1211 222.63)" fill="white"/>
<rect x="34" y="222.63" width="29.6129" height="29.6129" transform="rotate(-45 34 222.63)" fill="white"/>
<rect x="34" y="222.63" width="29.6129" height="29.6129" transform="rotate(-45 34 222.63)" fill="white"/>
<circle cx="79.1594" cy="222.419" r="18.5081" fill="#D9D9D9"/>
<circle cx="79.5" cy="222.5" r="7.5" fill="white"/>
<path d="M101.09 244.999C101.09 257.351 91.2363 267.3 79.1597 267.3C67.083 267.3 57.229 257.351 57.229 244.999C57.229 232.647 67.083 222.698 79.1597 222.698C91.2363 222.698 101.09 232.647 101.09 244.999Z" stroke="white" stroke-width="5"/>
<rect x="14" y="381" width="80" height="40" rx="10" fill="#E71717"/>
<path d="M29.848 411H29.4C29.2293 411 29.144 410.904 29.144 410.712V391.576C29.144 391.405 29.048 391.32 28.856 391.32H23.928C23.736 391.32 23.64 391.235 23.64 391.064V390.68C23.64 390.509 23.736 390.424 23.928 390.424H35.32C35.512 390.424 35.608 390.509 35.608 390.68V391.064C35.608 391.235 35.512 391.32 35.32 391.32H30.392C30.2 391.32 30.104 391.405 30.104 391.576V410.712C30.104 410.904 30.0187 411 29.848 411ZM45.146 411H42.778C41.4767 411 40.4313 410.605 39.642 409.816C38.874 409.027 38.49 407.971 38.49 406.648V399.032C38.49 397.709 38.874 396.653 39.642 395.864C40.4313 395.075 41.4767 394.68 42.778 394.68H49.37C49.5407 394.68 49.626 394.776 49.626 394.968V410.712C49.626 410.904 49.5407 411 49.37 411H48.922C48.7513 411 48.666 410.904 48.666 410.712V409.336H48.538C47.9407 410.445 46.81 411 45.146 411ZM48.666 406.776V395.832C48.666 395.661 48.57 395.576 48.378 395.576H42.778C41.7113 395.576 40.89 395.885 40.314 396.504C39.738 397.123 39.45 397.976 39.45 399.064V406.616C39.45 407.704 39.738 408.557 40.314 409.176C40.89 409.795 41.7113 410.104 42.778 410.104H45.082C46.1487 410.104 47.0127 409.816 47.674 409.24C48.3353 408.664 48.666 407.843 48.666 406.776ZM54.9075 392.024V388.856C54.9075 388.664 54.9928 388.568 55.1635 388.568H55.6115C55.7822 388.568 55.8675 388.664 55.8675 388.856V392.024C55.8675 392.216 55.7822 392.312 55.6115 392.312H55.1635C54.9928 392.312 54.9075 392.216 54.9075 392.024ZM54.9075 410.712V394.968C54.9075 394.776 54.9928 394.68 55.1635 394.68H55.6115C55.7822 394.68 55.8675 394.776 55.8675 394.968V410.712C55.8675 410.904 55.7822 411 55.6115 411H55.1635C54.9928 411 54.9075 410.904 54.9075 410.712ZM70.3058 394.68H70.7538C70.9884 394.68 71.0311 394.776 70.8818 394.968L65.7938 402.488V402.616L71.5538 410.712C71.7031 410.904 71.6711 411 71.4578 411H70.9138C70.6791 411 70.4871 410.904 70.3378 410.712L64.7378 402.744C64.6524 402.616 64.6524 402.488 64.7378 402.36L69.7938 394.904C69.9004 394.755 70.0711 394.68 70.3058 394.68ZM61.8578 411H61.4098C61.2391 411 61.1538 410.904 61.1538 410.712V388.792C61.1538 388.6 61.2391 388.504 61.4098 388.504H61.8578C62.0284 388.504 62.1138 388.6 62.1138 388.792V410.712C62.1138 410.904 62.0284 411 61.8578 411ZM81.2793 411H78.5593C77.2579 411 76.2126 410.605 75.4233 409.816C74.6553 409.027 74.2713 407.971 74.2713 406.648V399.032C74.2713 397.709 74.6553 396.653 75.4233 395.864C76.2126 395.075 77.2579 394.68 78.5593 394.68H81.2793C82.5806 394.68 83.6153 395.075 84.3833 395.864C85.1726 396.653 85.5673 397.709 85.5673 399.032V406.648C85.5673 407.971 85.1726 409.027 84.3833 409.816C83.6153 410.605 82.5806 411 81.2793 411ZM78.5593 410.104H81.2793C82.3459 410.104 83.1673 409.795 83.7433 409.176C84.3193 408.557 84.6073 407.704 84.6073 406.616V399.064C84.6073 397.976 84.3193 397.123 83.7433 396.504C83.1673 395.885 82.3459 395.576 81.2793 395.576H78.5593C77.4926 395.576 76.6713 395.885 76.0953 396.504C75.5193 397.123 75.2313 397.976 75.2313 399.064V406.616C75.2313 407.704 75.5193 408.557 76.0953 409.176C76.6713 409.795 77.4926 410.104 78.5593 410.104Z" fill="white"/>
</svg>
