<svg width="157" height="469" viewBox="0 0 157 469" fill="none" xmlns="http://www.w3.org/2000/svg">
<path d="M0 0H157V469V234.5L0 469V0Z" fill="#E71717"/>
<rect x="58.4312" y="198.939" width="29.6129" height="29.6129" transform="rotate(-45 58.4312 198.939)" fill="white"/>
<rect x="58.4312" y="198.939" width="29.6129" height="29.6129" transform="rotate(-45 58.4312 198.939)" fill="white"/>
<rect x="58.4312" y="245.58" width="29.6129" height="29.6129" transform="rotate(-45 58.4312 245.58)" fill="white"/>
<rect x="58.4312" y="245.58" width="29.6129" height="29.6129" transform="rotate(-45 58.4312 245.58)" fill="white"/>
<rect x="82.1211" y="222.63" width="29.6129" height="29.6129" transform="rotate(-45 82.1211 222.63)" fill="white"/>
<rect x="82.1211" y="222.63" width="29.6129" height="29.6129" transform="rotate(-45 82.1211 222.63)" fill="white"/>
<rect x="34" y="222.63" width="29.6129" height="29.6129" transform="rotate(-45 34 222.63)" fill="white"/>
<rect x="34" y="222.63" width="29.6129" height="29.6129" transform="rotate(-45 34 222.63)" fill="white"/>
<circle cx="79.1594" cy="222.419" r="18.5081" fill="#D9D9D9"/>
<circle cx="79.5" cy="222.5" r="7.5" fill="white"/>
<path d="M101.09 244.999C101.09 257.351 91.2363 267.3 79.1597 267.3C67.083 267.3 57.229 257.351 57.229 244.999C57.229 232.647 67.083 222.698 79.1597 222.698C91.2363 222.698 101.09 232.647 101.09 244.999Z" stroke="white" stroke-width="5"/>
<rect x="33" y="12" width="80" height="40" rx="10" fill="#E71717"/>
<path d="M48.552 136H47.112C46.8133 136 46.664 135.851 46.664 135.552V117.76C46.664 117.568 46.5573 117.472 46.344 117.472H41.992C41.672 117.472 41.512 117.323 41.512 117.024V115.872C41.512 115.573 41.672 115.424 41.992 115.424H53.672C53.992 115.424 54.152 115.573 54.152 115.872V117.024C54.152 117.323 53.992 117.472 53.672 117.472H49.32C49.1067 117.472 49 117.568 49 117.76V135.552C49 135.851 48.8507 136 48.552 136ZM57.4403 136H55.8403C55.5629 136 55.4669 135.851 55.5523 135.552L61.5363 115.872C61.6216 115.573 61.8243 115.424 62.1443 115.424H64.4483C64.7683 115.424 64.9709 115.573 65.0563 115.872L71.0403 135.552C71.1256 135.851 71.0296 136 70.7523 136H69.1203C68.8856 136 68.7363 135.851 68.6723 135.552L67.1683 130.88H59.4243L57.9203 135.552C57.8349 135.851 57.6749 136 57.4403 136ZM63.2323 117.824L59.9363 128.896H66.6563L63.3603 117.824H63.2323ZM76.9615 115.872V135.552C76.9615 135.851 76.8122 136 76.5135 136H75.0735C74.7748 136 74.6255 135.851 74.6255 135.552V115.872C74.6255 115.573 74.7748 115.424 75.0735 115.424H76.5135C76.8122 115.424 76.9615 115.573 76.9615 115.872ZM84.0723 136H82.6323C82.3336 136 82.1843 135.851 82.1843 135.552V115.872C82.1843 115.573 82.3336 115.424 82.6323 115.424H84.0723C84.3709 115.424 84.5203 115.573 84.5203 115.872V126.912H84.6163C84.7656 126.464 85.0003 126.027 85.3203 125.6L92.4883 115.872C92.6803 115.573 92.9576 115.424 93.3203 115.424H95.0483C95.4109 115.424 95.4643 115.584 95.2083 115.904L88.8723 124.48L96.1042 135.488C96.3389 135.829 96.2429 136 95.8162 136H94.5043C94.0563 136 93.7469 135.851 93.5763 135.552L87.4323 126.176L84.5203 129.664V135.552C84.5203 135.851 84.3709 136 84.0723 136ZM104.075 133.952H107.339C109.131 133.952 110.027 133.024 110.027 131.168V120.256C110.027 118.4 109.131 117.472 107.339 117.472H104.075C102.304 117.472 101.419 118.4 101.419 120.256V131.168C101.419 133.024 102.304 133.952 104.075 133.952ZM107.627 136H103.819C102.347 136 101.184 135.584 100.331 134.752C99.499 133.92 99.083 132.757 99.083 131.264V120.16C99.083 118.667 99.499 117.504 100.331 116.672C101.184 115.84 102.347 115.424 103.819 115.424H107.627C109.099 115.424 110.251 115.851 111.083 116.704C111.936 117.536 112.363 118.688 112.363 120.16V131.264C112.363 132.736 111.936 133.899 111.083 134.752C110.251 135.584 109.099 136 107.627 136Z" fill="white"/>
</svg>
