<svg width="157" height="469" viewBox="0 0 157 469" fill="none" xmlns="http://www.w3.org/2000/svg">
<path d="M0 0H157V469V234.5L0 469V0Z" fill="#E71717"/>
<rect x="58.4312" y="198.939" width="29.6129" height="29.6129" transform="rotate(-45 58.4312 198.939)" fill="white"/>
<rect x="58.4312" y="198.939" width="29.6129" height="29.6129" transform="rotate(-45 58.4312 198.939)" fill="white"/>
<rect x="58.4312" y="245.58" width="29.6129" height="29.6129" transform="rotate(-45 58.4312 245.58)" fill="white"/>
<rect x="58.4312" y="245.58" width="29.6129" height="29.6129" transform="rotate(-45 58.4312 245.58)" fill="white"/>
<rect x="82.1211" y="222.63" width="29.6129" height="29.6129" transform="rotate(-45 82.1211 222.63)" fill="white"/>
<rect x="82.1211" y="222.63" width="29.6129" height="29.6129" transform="rotate(-45 82.1211 222.63)" fill="white"/>
<rect x="34" y="222.63" width="29.6129" height="29.6129" transform="rotate(-45 34 222.63)" fill="white"/>
<rect x="34" y="222.63" width="29.6129" height="29.6129" transform="rotate(-45 34 222.63)" fill="white"/>
<circle cx="79.1594" cy="222.419" r="18.5081" fill="#D9D9D9"/>
<circle cx="79.5" cy="222.5" r="7.5" fill="white"/>
<path d="M101.09 244.999C101.09 257.351 91.2363 267.3 79.1597 267.3C67.083 267.3 57.229 257.351 57.229 244.999C57.229 232.647 67.083 222.698 79.1597 222.698C91.2363 222.698 101.09 232.647 101.09 244.999Z" stroke="white" stroke-width="5"/>
<rect x="33" y="12" width="80" height="40" rx="10" fill="#E71717"/>
<path d="M51.848 137H51.4C51.2293 137 51.144 136.904 51.144 136.712V117.576C51.144 117.405 51.048 117.32 50.856 117.32H45.928C45.736 117.32 45.64 117.235 45.64 117.064V116.68C45.64 116.509 45.736 116.424 45.928 116.424H57.32C57.512 116.424 57.608 116.509 57.608 116.68V117.064C57.608 117.235 57.512 117.32 57.32 117.32H52.392C52.2 117.32 52.104 117.405 52.104 117.576V136.712C52.104 136.904 52.0187 137 51.848 137ZM67.146 137H64.778C63.4767 137 62.4313 136.605 61.642 135.816C60.874 135.027 60.49 133.971 60.49 132.648V125.032C60.49 123.709 60.874 122.653 61.642 121.864C62.4313 121.075 63.4767 120.68 64.778 120.68H71.37C71.5407 120.68 71.626 120.776 71.626 120.968V136.712C71.626 136.904 71.5407 137 71.37 137H70.922C70.7513 137 70.666 136.904 70.666 136.712V135.336H70.538C69.9407 136.445 68.81 137 67.146 137ZM70.666 132.776V121.832C70.666 121.661 70.57 121.576 70.378 121.576H64.778C63.7113 121.576 62.89 121.885 62.314 122.504C61.738 123.123 61.45 123.976 61.45 125.064V132.616C61.45 133.704 61.738 134.557 62.314 135.176C62.89 135.795 63.7113 136.104 64.778 136.104H67.082C68.1487 136.104 69.0127 135.816 69.674 135.24C70.3353 134.664 70.666 133.843 70.666 132.776ZM76.9075 118.024V114.856C76.9075 114.664 76.9928 114.568 77.1635 114.568H77.6115C77.7822 114.568 77.8675 114.664 77.8675 114.856V118.024C77.8675 118.216 77.7822 118.312 77.6115 118.312H77.1635C76.9928 118.312 76.9075 118.216 76.9075 118.024ZM76.9075 136.712V120.968C76.9075 120.776 76.9928 120.68 77.1635 120.68H77.6115C77.7822 120.68 77.8675 120.776 77.8675 120.968V136.712C77.8675 136.904 77.7822 137 77.6115 137H77.1635C76.9928 137 76.9075 136.904 76.9075 136.712ZM92.3058 120.68H92.7538C92.9884 120.68 93.0311 120.776 92.8818 120.968L87.7938 128.488V128.616L93.5538 136.712C93.7031 136.904 93.6711 137 93.4578 137H92.9138C92.6791 137 92.4871 136.904 92.3378 136.712L86.7378 128.744C86.6524 128.616 86.6524 128.488 86.7378 128.36L91.7938 120.904C91.9004 120.755 92.0711 120.68 92.3058 120.68ZM83.8578 137H83.4098C83.2391 137 83.1538 136.904 83.1538 136.712V114.792C83.1538 114.6 83.2391 114.504 83.4098 114.504H83.8578C84.0284 114.504 84.1138 114.6 84.1138 114.792V136.712C84.1138 136.904 84.0284 137 83.8578 137ZM103.279 137H100.559C99.2579 137 98.2126 136.605 97.4233 135.816C96.6553 135.027 96.2713 133.971 96.2713 132.648V125.032C96.2713 123.709 96.6553 122.653 97.4233 121.864C98.2126 121.075 99.2579 120.68 100.559 120.68H103.279C104.581 120.68 105.615 121.075 106.383 121.864C107.173 122.653 107.567 123.709 107.567 125.032V132.648C107.567 133.971 107.173 135.027 106.383 135.816C105.615 136.605 104.581 137 103.279 137ZM100.559 136.104H103.279C104.346 136.104 105.167 135.795 105.743 135.176C106.319 134.557 106.607 133.704 106.607 132.616V125.064C106.607 123.976 106.319 123.123 105.743 122.504C105.167 121.885 104.346 121.576 103.279 121.576H100.559C99.4926 121.576 98.6713 121.885 98.0953 122.504C97.5193 123.123 97.2313 123.976 97.2313 125.064V132.616C97.2313 133.704 97.5193 134.557 98.0953 135.176C98.6713 135.795 99.4926 136.104 100.559 136.104Z" fill="white"/>
</svg>
