<svg width="157" height="469" viewBox="0 0 157 469" fill="none" xmlns="http://www.w3.org/2000/svg">
<path d="M0 0H157V375V469H0V0Z" fill="#E71717"/>
<rect x="58.4316" y="200.939" width="29.6129" height="29.6129" transform="rotate(-45 58.4316 200.939)" fill="white"/>
<rect x="58.4316" y="200.939" width="29.6129" height="29.6129" transform="rotate(-45 58.4316 200.939)" fill="white"/>
<rect x="58.4316" y="247.58" width="29.6129" height="29.6129" transform="rotate(-45 58.4316 247.58)" fill="white"/>
<rect x="58.4316" y="247.58" width="29.6129" height="29.6129" transform="rotate(-45 58.4316 247.58)" fill="white"/>
<rect x="82.1211" y="224.63" width="29.6129" height="29.6129" transform="rotate(-45 82.1211 224.63)" fill="white"/>
<rect x="82.1211" y="224.63" width="29.6129" height="29.6129" transform="rotate(-45 82.1211 224.63)" fill="white"/>
<rect x="34" y="224.63" width="29.6129" height="29.6129" transform="rotate(-45 34 224.63)" fill="white"/>
<rect x="34" y="224.63" width="29.6129" height="29.6129" transform="rotate(-45 34 224.63)" fill="white"/>
<circle cx="79.1594" cy="224.419" r="18.5081" fill="#D9D9D9"/>
<circle cx="79.5" cy="224.5" r="7.5" fill="white"/>
<path d="M101.09 246.999C101.09 259.351 91.2358 269.3 79.1592 269.3C67.0825 269.3 57.2285 259.351 57.2285 246.999C57.2285 234.647 67.0825 224.698 79.1592 224.698C91.2358 224.698 101.09 234.647 101.09 246.999Z" stroke="white" stroke-width="5"/>
<rect x="33" y="12" width="80" height="40" rx="10" fill="#E71717"/>
</svg>
