<svg width="157" height="469" viewBox="0 0 157 469" fill="none" xmlns="http://www.w3.org/2000/svg">
<path d="M0 0H157V469V234.5L0 469V0Z" fill="#E71717"/>
<rect x="58.4312" y="198.939" width="29.6129" height="29.6129" transform="rotate(-45 58.4312 198.939)" fill="white"/>
<rect x="58.4312" y="198.939" width="29.6129" height="29.6129" transform="rotate(-45 58.4312 198.939)" fill="white"/>
<rect x="58.4312" y="245.58" width="29.6129" height="29.6129" transform="rotate(-45 58.4312 245.58)" fill="white"/>
<rect x="58.4312" y="245.58" width="29.6129" height="29.6129" transform="rotate(-45 58.4312 245.58)" fill="white"/>
<rect x="82.1211" y="222.63" width="29.6129" height="29.6129" transform="rotate(-45 82.1211 222.63)" fill="white"/>
<rect x="82.1211" y="222.63" width="29.6129" height="29.6129" transform="rotate(-45 82.1211 222.63)" fill="white"/>
<rect x="34" y="222.63" width="29.6129" height="29.6129" transform="rotate(-45 34 222.63)" fill="white"/>
<rect x="34" y="222.63" width="29.6129" height="29.6129" transform="rotate(-45 34 222.63)" fill="white"/>
<circle cx="79.1594" cy="222.419" r="18.5081" fill="#D9D9D9"/>
<circle cx="79.5" cy="222.5" r="7.5" fill="white"/>
<path d="M101.09 244.999C101.09 257.351 91.2363 267.3 79.1597 267.3C67.083 267.3 57.229 257.351 57.229 244.999C57.229 232.647 67.083 222.698 79.1597 222.698C91.2363 222.698 101.09 232.647 101.09 244.999Z" stroke="white" stroke-width="5"/>
<rect x="35" y="363" width="80" height="40" rx="10" fill="#E71717"/>
<path d="M48.848 393H48.4C48.2293 393 48.144 392.904 48.144 392.712V373.576C48.144 373.405 48.048 373.32 47.856 373.32H42.928C42.736 373.32 42.64 373.235 42.64 373.064V372.68C42.64 372.509 42.736 372.424 42.928 372.424H54.32C54.512 372.424 54.608 372.509 54.608 372.68V373.064C54.608 373.235 54.512 373.32 54.32 373.32H49.392C49.2 373.32 49.104 373.405 49.104 373.576V392.712C49.104 392.904 49.0187 393 48.848 393ZM64.146 393H61.778C60.4767 393 59.4313 392.605 58.642 391.816C57.874 391.027 57.49 389.971 57.49 388.648V381.032C57.49 379.709 57.874 378.653 58.642 377.864C59.4313 377.075 60.4767 376.68 61.778 376.68H68.37C68.5407 376.68 68.626 376.776 68.626 376.968V392.712C68.626 392.904 68.5407 393 68.37 393H67.922C67.7513 393 67.666 392.904 67.666 392.712V391.336H67.538C66.9407 392.445 65.81 393 64.146 393ZM67.666 388.776V377.832C67.666 377.661 67.57 377.576 67.378 377.576H61.778C60.7113 377.576 59.89 377.885 59.314 378.504C58.738 379.123 58.45 379.976 58.45 381.064V388.616C58.45 389.704 58.738 390.557 59.314 391.176C59.89 391.795 60.7113 392.104 61.778 392.104H64.082C65.1487 392.104 66.0127 391.816 66.674 391.24C67.3353 390.664 67.666 389.843 67.666 388.776ZM73.9075 374.024V370.856C73.9075 370.664 73.9928 370.568 74.1635 370.568H74.6115C74.7822 370.568 74.8675 370.664 74.8675 370.856V374.024C74.8675 374.216 74.7822 374.312 74.6115 374.312H74.1635C73.9928 374.312 73.9075 374.216 73.9075 374.024ZM73.9075 392.712V376.968C73.9075 376.776 73.9928 376.68 74.1635 376.68H74.6115C74.7822 376.68 74.8675 376.776 74.8675 376.968V392.712C74.8675 392.904 74.7822 393 74.6115 393H74.1635C73.9928 393 73.9075 392.904 73.9075 392.712ZM89.3058 376.68H89.7538C89.9884 376.68 90.0311 376.776 89.8818 376.968L84.7938 384.488V384.616L90.5538 392.712C90.7031 392.904 90.6711 393 90.4578 393H89.9138C89.6791 393 89.4871 392.904 89.3378 392.712L83.7378 384.744C83.6524 384.616 83.6524 384.488 83.7378 384.36L88.7938 376.904C88.9004 376.755 89.0711 376.68 89.3058 376.68ZM80.8578 393H80.4098C80.2391 393 80.1538 392.904 80.1538 392.712V370.792C80.1538 370.6 80.2391 370.504 80.4098 370.504H80.8578C81.0284 370.504 81.1138 370.6 81.1138 370.792V392.712C81.1138 392.904 81.0284 393 80.8578 393ZM100.279 393H97.5593C96.2579 393 95.2126 392.605 94.4233 391.816C93.6553 391.027 93.2713 389.971 93.2713 388.648V381.032C93.2713 379.709 93.6553 378.653 94.4233 377.864C95.2126 377.075 96.2579 376.68 97.5593 376.68H100.279C101.581 376.68 102.615 377.075 103.383 377.864C104.173 378.653 104.567 379.709 104.567 381.032V388.648C104.567 389.971 104.173 391.027 103.383 391.816C102.615 392.605 101.581 393 100.279 393ZM97.5593 392.104H100.279C101.346 392.104 102.167 391.795 102.743 391.176C103.319 390.557 103.607 389.704 103.607 388.616V381.064C103.607 379.976 103.319 379.123 102.743 378.504C102.167 377.885 101.346 377.576 100.279 377.576H97.5593C96.4926 377.576 95.6713 377.885 95.0953 378.504C94.5193 379.123 94.2313 379.976 94.2313 381.064V388.616C94.2313 389.704 94.5193 390.557 95.0953 391.176C95.6713 391.795 96.4926 392.104 97.5593 392.104Z" fill="white"/>
</svg>
