<svg width="151" height="307" viewBox="0 0 151 307" fill="none" xmlns="http://www.w3.org/2000/svg">
<path d="M0 0H151V307V180.5L0 307V0Z" fill="#2590CD"/>
<circle cx="75.5" cy="150" r="32.5" fill="white"/>
<ellipse cx="75.487" cy="132.511" rx="8.06118" ry="8.26271" fill="#D9D9D9"/>
<path d="M98.595 141.324C98.595 145.888 94.9859 149.587 90.5338 149.587C86.0818 149.587 82.4727 145.888 82.4727 141.324C82.4727 136.761 86.0818 133.061 90.5338 133.061C94.9859 133.061 98.595 136.761 98.595 141.324Z" fill="#D9D9D9"/>
<path d="M98.5949 158.951C98.5949 163.515 94.9858 167.214 90.5337 167.214C86.0816 167.214 82.4725 163.515 82.4725 158.951C82.4725 154.388 86.0816 150.689 90.5337 150.689C94.9858 150.689 98.5949 154.388 98.5949 158.951Z" fill="#D9D9D9"/>
<ellipse cx="75.487" cy="167.765" rx="8.06118" ry="8.26271" fill="#D9D9D9"/>
<ellipse cx="60.4391" cy="141.324" rx="8.06118" ry="8.26271" fill="#D9D9D9"/>
<ellipse cx="60.4391" cy="158.951" rx="8.06118" ry="8.26271" fill="#D9D9D9"/>
<ellipse cx="75.487" cy="150.138" rx="8.06118" ry="8.26271" fill="#D9D9D9"/>
<rect x="27" y="68" width="97" height="40" rx="10" fill="#2590CD"/>
<path d="M35.88 74.648V73.368C35.88 73.176 35.9653 73.08 36.136 73.08H36.584C36.7547 73.08 36.84 73.176 36.84 73.368V74.616C36.84 75.704 37.128 76.5573 37.704 77.176C38.28 77.7947 39.1013 78.104 40.168 78.104H44.008C45.0747 78.104 45.896 77.7947 46.472 77.176C47.048 76.5573 47.336 75.704 47.336 74.616V73.016C47.336 72.0133 46.9413 71.224 46.152 70.648C45.3627 70.0507 44.4027 69.624 43.272 69.368C42.1627 69.0907 41.0427 68.824 39.912 68.568C38.8027 68.2907 37.8533 67.8427 37.064 67.224C36.2747 66.6053 35.88 65.7627 35.88 64.696V62.776C35.88 61.4533 36.264 60.3973 37.032 59.608C37.8213 58.8187 38.8667 58.424 40.168 58.424H44.008C45.3093 58.424 46.344 58.8187 47.112 59.608C47.9013 60.3973 48.296 61.4533 48.296 62.776V63.736C48.296 63.928 48.2107 64.024 48.04 64.024H47.592C47.4213 64.024 47.336 63.928 47.336 63.736V62.808C47.336 61.72 47.048 60.8667 46.472 60.248C45.896 59.6293 45.0747 59.32 44.008 59.32H40.168C39.1013 59.32 38.28 59.6293 37.704 60.248C37.128 60.8667 36.84 61.72 36.84 62.808V64.664C36.84 66.2427 38.184 67.3307 40.872 67.928C42.0027 68.1627 43.1227 68.4293 44.232 68.728C45.3627 69.0053 46.3227 69.496 47.112 70.2C47.9013 70.8827 48.296 71.8 48.296 72.952V74.648C48.296 75.9707 47.9013 77.0267 47.112 77.816C46.344 78.6053 45.3093 79 44.008 79H40.168C38.8667 79 37.8213 78.6053 37.032 77.816C36.264 77.0267 35.88 75.9707 35.88 74.648ZM60.4355 79H57.7155C56.4142 79 55.3688 78.6053 54.5795 77.816C53.8115 77.0267 53.4275 75.9707 53.4275 74.648V67.032C53.4275 65.7093 53.8115 64.6533 54.5795 63.864C55.3688 63.0747 56.4142 62.68 57.7155 62.68H60.4355C61.7368 62.68 62.7715 63.0747 63.5395 63.864C64.3288 64.6533 64.7235 65.7093 64.7235 67.032V74.648C64.7235 75.9707 64.3288 77.0267 63.5395 77.816C62.7715 78.6053 61.7368 79 60.4355 79ZM57.7155 78.104H60.4355C61.5022 78.104 62.3235 77.7947 62.8995 77.176C63.4755 76.5573 63.7635 75.704 63.7635 74.616V67.064C63.7635 65.976 63.4755 65.1227 62.8995 64.504C62.3235 63.8853 61.5022 63.576 60.4355 63.576H57.7155C56.6488 63.576 55.8275 63.8853 55.2515 64.504C54.6755 65.1227 54.3875 65.976 54.3875 67.064V74.616C54.3875 75.704 54.6755 76.5573 55.2515 77.176C55.8275 77.7947 56.6488 78.104 57.7155 78.104ZM76.0248 79H73.6568C72.3554 79 71.3101 78.6053 70.5208 77.816C69.7528 77.0267 69.3688 75.9707 69.3688 74.648V62.968C69.3688 62.776 69.4541 62.68 69.6248 62.68H70.0728C70.2434 62.68 70.3288 62.776 70.3288 62.968V74.616C70.3288 75.704 70.6168 76.5573 71.1927 77.176C71.7688 77.7947 72.5901 78.104 73.6568 78.104H75.9608C77.0274 78.104 77.8914 77.816 78.5528 77.24C79.2141 76.664 79.5448 75.8427 79.5448 74.776V62.968C79.5448 62.776 79.6301 62.68 79.8008 62.68H80.2488C80.4194 62.68 80.5048 62.776 80.5048 62.968V78.712C80.5048 78.904 80.4194 79 80.2488 79H79.8008C79.6301 79 79.5448 78.904 79.5448 78.712V77.336H79.4168C78.8194 78.4453 77.6888 79 76.0248 79ZM86.3265 79H85.8785C85.7078 79 85.6225 78.904 85.6225 78.712V62.968C85.6225 62.776 85.7078 62.68 85.8785 62.68H86.3265C86.4972 62.68 86.5825 62.776 86.5825 62.968V64.344H86.7105C87.3078 63.2347 88.4385 62.68 90.1025 62.68H92.4705C93.7718 62.68 94.8065 63.0747 95.5745 63.864C96.3638 64.6533 96.7585 65.7093 96.7585 67.032V78.712C96.7585 78.904 96.6732 79 96.5025 79H96.0545C95.8838 79 95.7985 78.904 95.7985 78.712V67.064C95.7985 65.976 95.5105 65.1227 94.9345 64.504C94.3585 63.8853 93.5372 63.576 92.4705 63.576H90.1665C89.0998 63.576 88.2358 63.864 87.5745 64.44C86.9132 65.016 86.5825 65.8373 86.5825 66.904V78.712C86.5825 78.904 86.4972 79 86.3265 79ZM108.052 79H105.684C104.383 79 103.338 78.6053 102.548 77.816C101.78 77.0267 101.396 75.9707 101.396 74.648V67.032C101.396 65.7093 101.78 64.6533 102.548 63.864C103.338 63.0747 104.383 62.68 105.684 62.68H108.052C109.716 62.68 110.847 63.2347 111.444 64.344H111.572V56.792C111.572 56.6 111.658 56.504 111.828 56.504H112.276C112.447 56.504 112.532 56.6 112.532 56.792V78.712C112.532 78.904 112.447 79 112.276 79H111.828C111.658 79 111.572 78.904 111.572 78.712V77.336H111.444C110.847 78.4453 109.716 79 108.052 79ZM111.572 74.776V66.904C111.572 65.8373 111.242 65.016 110.58 64.44C109.919 63.864 109.055 63.576 107.988 63.576H105.684C104.618 63.576 103.796 63.8853 103.22 64.504C102.644 65.1227 102.356 65.976 102.356 67.064V74.616C102.356 75.704 102.644 76.5573 103.22 77.176C103.796 77.7947 104.618 78.104 105.684 78.104H107.988C109.055 78.104 109.919 77.816 110.58 77.24C111.242 76.664 111.572 75.8427 111.572 74.776Z" fill="white"/>
</svg>
