<svg width="151" height="307" viewBox="0 0 151 307" fill="none" xmlns="http://www.w3.org/2000/svg">
<path d="M0 0H151V307H0V0Z" fill="#2590CD"/>
<circle cx="75.5" cy="150" r="32.5" fill="white"/>
<ellipse cx="75.487" cy="132.511" rx="8.06118" ry="8.26271" fill="#D9D9D9"/>
<path d="M98.595 141.324C98.595 145.888 94.9859 149.587 90.5338 149.587C86.0818 149.587 82.4727 145.888 82.4727 141.324C82.4727 136.761 86.0818 133.061 90.5338 133.061C94.9859 133.061 98.595 136.761 98.595 141.324Z" fill="#D9D9D9"/>
<path d="M98.5949 158.951C98.5949 163.515 94.9858 167.214 90.5337 167.214C86.0816 167.214 82.4725 163.515 82.4725 158.951C82.4725 154.388 86.0816 150.689 90.5337 150.689C94.9858 150.689 98.5949 154.388 98.5949 158.951Z" fill="#D9D9D9"/>
<ellipse cx="75.487" cy="167.765" rx="8.06118" ry="8.26271" fill="#D9D9D9"/>
<ellipse cx="60.4391" cy="141.324" rx="8.06118" ry="8.26271" fill="#D9D9D9"/>
<ellipse cx="60.4391" cy="158.951" rx="8.06118" ry="8.26271" fill="#D9D9D9"/>
<ellipse cx="75.487" cy="150.138" rx="8.06118" ry="8.26271" fill="#D9D9D9"/>
<rect x="27" y="68" width="97" height="40" rx="10" fill="#2590CD"/>
<path d="M123.304 154.264V153.24C123.304 152.941 123.453 152.792 123.752 152.792H125.192C125.491 152.792 125.64 152.941 125.64 153.24V154.072C125.64 155.992 126.589 156.952 128.488 156.952H131.304C133.203 156.952 134.152 155.971 134.152 154.008V152.92C134.152 151.384 132.883 150.381 130.344 149.912C129.277 149.72 128.211 149.496 127.144 149.24C126.077 148.984 125.171 148.493 124.424 147.768C123.677 147.021 123.304 146.008 123.304 144.728V143.16C123.304 141.688 123.72 140.536 124.552 139.704C125.405 138.851 126.568 138.424 128.04 138.424H131.592C133.043 138.424 134.195 138.851 135.048 139.704C135.901 140.536 136.328 141.688 136.328 143.16V143.96C136.328 144.28 136.189 144.44 135.912 144.44H134.44C134.163 144.44 134.024 144.28 134.024 143.96V143.384C134.024 141.443 133.075 140.472 131.176 140.472H128.456C126.557 140.472 125.608 141.485 125.608 143.512V144.792C125.608 145.88 126.323 146.627 127.752 147.032C128.392 147.203 129.096 147.363 129.864 147.512C130.632 147.64 131.4 147.821 132.168 148.056C132.957 148.269 133.672 148.547 134.312 148.888C134.952 149.208 135.464 149.709 135.848 150.392C136.253 151.053 136.456 151.864 136.456 152.824V154.264C136.456 155.736 136.029 156.899 135.176 157.752C134.323 158.584 133.171 159 131.72 159H128.04C126.589 159 125.437 158.584 124.584 157.752C123.731 156.899 123.304 155.736 123.304 154.264ZM128.2 184.952H131.464C133.256 184.952 134.152 184.024 134.152 182.168V171.256C134.152 169.4 133.256 168.472 131.464 168.472H128.2C126.429 168.472 125.544 169.4 125.544 171.256V182.168C125.544 184.024 126.429 184.952 128.2 184.952ZM131.752 187H127.944C126.472 187 125.309 186.584 124.456 185.752C123.624 184.92 123.208 183.757 123.208 182.264V171.16C123.208 169.667 123.624 168.504 124.456 167.672C125.309 166.84 126.472 166.424 127.944 166.424H131.752C133.224 166.424 134.376 166.851 135.208 167.704C136.061 168.536 136.488 169.688 136.488 171.16V182.264C136.488 183.736 136.061 184.899 135.208 185.752C134.376 186.584 133.224 187 131.752 187ZM134.472 194.424H135.912C136.211 194.424 136.36 194.563 136.36 194.84V210.264C136.36 211.757 135.944 212.92 135.112 213.752C134.28 214.584 133.128 215 131.656 215H128.104C126.632 215 125.469 214.584 124.616 213.752C123.784 212.92 123.368 211.757 123.368 210.264V194.872C123.368 194.573 123.517 194.424 123.816 194.424H125.256C125.555 194.424 125.704 194.573 125.704 194.872V210.168C125.704 212.024 126.589 212.952 128.36 212.952H131.368C133.16 212.952 134.056 212.024 134.056 210.168V194.872C134.056 194.573 134.195 194.424 134.472 194.424ZM125.384 243H123.976C123.677 243 123.528 242.851 123.528 242.552V222.872C123.528 222.573 123.677 222.424 123.976 222.424H125.288C125.544 222.424 125.715 222.509 125.8 222.68L134.632 238.2H134.76V222.872C134.76 222.573 134.909 222.424 135.208 222.424H136.616C136.915 222.424 137.064 222.573 137.064 222.872V242.552C137.064 242.851 136.915 243 136.616 243H135.432C135.197 243 134.973 242.861 134.76 242.584L125.96 227.224H125.832V242.552C125.832 242.851 125.683 243 125.384 243ZM126.629 268.952H132.005C133.797 268.952 134.693 268.024 134.693 266.168V255.256C134.693 253.4 133.797 252.472 132.005 252.472H126.629C126.416 252.472 126.309 252.568 126.309 252.76V268.664C126.309 268.856 126.416 268.952 126.629 268.952ZM123.973 270.552V250.872C123.973 250.573 124.122 250.424 124.421 250.424H132.293C133.765 250.424 134.917 250.851 135.749 251.704C136.602 252.536 137.029 253.688 137.029 255.16V266.264C137.029 267.736 136.602 268.899 135.749 269.752C134.917 270.584 133.765 271 132.293 271H124.421C124.122 271 123.973 270.851 123.973 270.552Z" fill="white"/>
</svg>
