<svg width="151" height="307" viewBox="0 0 151 307" fill="none" xmlns="http://www.w3.org/2000/svg">
<path d="M0 0H151V307V180.5L0 307V0Z" fill="#2590CD"/>
<circle cx="75.5" cy="150" r="32.5" fill="white"/>
<ellipse cx="75.487" cy="132.511" rx="8.06118" ry="8.26271" fill="#D9D9D9"/>
<path d="M98.595 141.324C98.595 145.888 94.9859 149.587 90.5338 149.587C86.0818 149.587 82.4727 145.888 82.4727 141.324C82.4727 136.761 86.0818 133.061 90.5338 133.061C94.9859 133.061 98.595 136.761 98.595 141.324Z" fill="#D9D9D9"/>
<path d="M98.5949 158.951C98.5949 163.515 94.9858 167.214 90.5337 167.214C86.0816 167.214 82.4725 163.515 82.4725 158.951C82.4725 154.388 86.0816 150.689 90.5337 150.689C94.9858 150.689 98.5949 154.388 98.5949 158.951Z" fill="#D9D9D9"/>
<ellipse cx="75.487" cy="167.765" rx="8.06118" ry="8.26271" fill="#D9D9D9"/>
<ellipse cx="60.4391" cy="141.324" rx="8.06118" ry="8.26271" fill="#D9D9D9"/>
<ellipse cx="60.4391" cy="158.951" rx="8.06118" ry="8.26271" fill="#D9D9D9"/>
<ellipse cx="75.487" cy="150.138" rx="8.06118" ry="8.26271" fill="#D9D9D9"/>
<rect x="27" y="68" width="97" height="40" rx="10" fill="#2590CD"/>
<path d="M32.304 71.264V70.24C32.304 69.9413 32.4533 69.792 32.752 69.792H34.192C34.4907 69.792 34.64 69.9413 34.64 70.24V71.072C34.64 72.992 35.5893 73.952 37.488 73.952H40.304C42.2027 73.952 43.152 72.9707 43.152 71.008V69.92C43.152 68.384 41.8827 67.3813 39.344 66.912C38.2773 66.72 37.2107 66.496 36.144 66.24C35.0773 65.984 34.1707 65.4933 33.424 64.768C32.6773 64.0213 32.304 63.008 32.304 61.728V60.16C32.304 58.688 32.72 57.536 33.552 56.704C34.4053 55.8507 35.568 55.424 37.04 55.424H40.592C42.0427 55.424 43.1947 55.8507 44.048 56.704C44.9013 57.536 45.328 58.688 45.328 60.16V60.96C45.328 61.28 45.1893 61.44 44.912 61.44H43.44C43.1627 61.44 43.024 61.28 43.024 60.96V60.384C43.024 58.4427 42.0747 57.472 40.176 57.472H37.456C35.5573 57.472 34.608 58.4853 34.608 60.512V61.792C34.608 62.88 35.3227 63.6267 36.752 64.032C37.392 64.2027 38.096 64.3627 38.864 64.512C39.632 64.64 40.4 64.8213 41.168 65.056C41.9573 65.2693 42.672 65.5467 43.312 65.888C43.952 66.208 44.464 66.7093 44.848 67.392C45.2533 68.0533 45.456 68.864 45.456 69.824V71.264C45.456 72.736 45.0293 73.8987 44.176 74.752C43.3227 75.584 42.1707 76 40.72 76H37.04C35.5893 76 34.4373 75.584 33.584 74.752C32.7307 73.8987 32.304 72.736 32.304 71.264ZM54.95 73.952H58.214C60.006 73.952 60.902 73.024 60.902 71.168V60.256C60.902 58.4 60.006 57.472 58.214 57.472H54.95C53.1793 57.472 52.294 58.4 52.294 60.256V71.168C52.294 73.024 53.1793 73.952 54.95 73.952ZM58.502 76H54.694C53.222 76 52.0593 75.584 51.206 74.752C50.374 73.92 49.958 72.7573 49.958 71.264V60.16C49.958 58.6667 50.374 57.504 51.206 56.672C52.0593 55.84 53.222 55.424 54.694 55.424H58.502C59.974 55.424 61.126 55.8507 61.958 56.704C62.8113 57.536 63.238 58.688 63.238 60.16V71.264C63.238 72.736 62.8113 73.8987 61.958 74.752C61.126 75.584 59.974 76 58.502 76ZM78.9095 55.424H80.3495C80.6482 55.424 80.7975 55.5627 80.7975 55.84V71.264C80.7975 72.7573 80.3815 73.92 79.5495 74.752C78.7175 75.584 77.5655 76 76.0935 76H72.5415C71.0695 76 69.9068 75.584 69.0535 74.752C68.2215 73.92 67.8055 72.7573 67.8055 71.264V55.872C67.8055 55.5733 67.9548 55.424 68.2535 55.424H69.6935C69.9922 55.424 70.1415 55.5733 70.1415 55.872V71.168C70.1415 73.024 71.0268 73.952 72.7975 73.952H75.8055C77.5975 73.952 78.4935 73.024 78.4935 71.168V55.872C78.4935 55.5733 78.6322 55.424 78.9095 55.424ZM87.5403 76H86.1323C85.8336 76 85.6843 75.8507 85.6843 75.552V55.872C85.6843 55.5733 85.8336 55.424 86.1323 55.424H87.4443C87.7003 55.424 87.8709 55.5093 87.9563 55.68L96.7883 71.2H96.9163V55.872C96.9163 55.5733 97.0656 55.424 97.3643 55.424H98.7723C99.0709 55.424 99.2203 55.5733 99.2203 55.872V75.552C99.2203 75.8507 99.0709 76 98.7723 76H97.5883C97.3536 76 97.1296 75.8613 96.9163 75.584L88.1163 60.224H87.9883V75.552C87.9883 75.8507 87.8389 76 87.5403 76ZM106.934 73.952H112.31C114.102 73.952 114.998 73.024 114.998 71.168V60.256C114.998 58.4 114.102 57.472 112.31 57.472H106.934C106.721 57.472 106.614 57.568 106.614 57.76V73.664C106.614 73.856 106.721 73.952 106.934 73.952ZM104.278 75.552V55.872C104.278 55.5733 104.427 55.424 104.726 55.424H112.598C114.07 55.424 115.222 55.8507 116.054 56.704C116.907 57.536 117.334 58.688 117.334 60.16V71.264C117.334 72.736 116.907 73.8987 116.054 74.752C115.222 75.584 114.07 76 112.598 76H104.726C104.427 76 104.278 75.8507 104.278 75.552Z" fill="white"/>
</svg>
