<svg width="151" height="307" viewBox="0 0 151 307" fill="none" xmlns="http://www.w3.org/2000/svg">
<path d="M0 0H151V307H0V0Z" fill="#2590CD"/>
<path d="M90 185C90 189.418 79.4787 193 66.5 193C53.5213 193 43 189.418 43 185C43 180.582 53.5213 177 66.5 177C79.4787 177 90 180.582 90 185Z" fill="#2590CD"/>
<path d="M120 185C120 189.418 109.479 193 96.5 193C83.5213 193 73 189.418 73 185C73 180.582 83.5213 177 96.5 177C109.479 177 120 180.582 120 185Z" fill="#2590CD"/>
<path fill-rule="evenodd" clip-rule="evenodd" d="M86.1224 145.263C86.1224 149.826 82.5132 153.525 78.0612 153.525C73.6091 153.525 70 149.826 70 145.263C70 140.699 73.6091 137 78.0612 137C82.5132 137 86.1224 140.699 86.1224 145.263ZM84.3749 168.4C85.4688 166.99 86.1224 165.205 86.1224 163.263C86.1224 158.699 82.5132 155 78.0612 155C75.6186 155 73.4297 156.114 71.9514 157.872C68.0103 156.028 63.6233 155 59 155C41.8792 155 28 169.103 28 186.5C28 203.897 41.8792 218 59 218C76.1208 218 90 203.897 90 186.5C90 179.764 87.9191 173.521 84.3749 168.4ZM78.0612 171.525C80.6187 171.525 82.8981 170.305 84.3749 168.4C81.2376 163.867 76.9536 160.213 71.9514 157.872C70.7352 159.319 70 161.203 70 163.263C70 167.826 73.6091 171.525 78.0612 171.525ZM104.5 172C111.404 172 117 168.194 117 163.5C117 158.806 111.404 155 104.5 155C97.5964 155 92 158.806 92 163.5C92 168.194 97.5964 172 104.5 172ZM129 181C129 185.418 122.508 189 114.5 189C106.492 189 99.9998 185.418 99.9998 181C99.9998 176.582 106.492 173 114.5 173C122.508 173 129 176.582 129 181ZM116.595 198.763C116.595 203.326 112.986 207.025 108.534 207.025C104.082 207.025 100.473 203.326 100.473 198.763C100.473 194.199 104.082 190.5 108.534 190.5C112.986 190.5 116.595 194.199 116.595 198.763ZM86.1222 180.89C86.1222 185.453 82.5131 189.153 78.061 189.153C73.609 189.153 69.9999 185.453 69.9999 180.89C69.9999 176.326 73.609 172.627 78.061 172.627C82.5131 172.627 86.1222 176.326 86.1222 180.89Z" fill="white"/>
<path d="M34.304 255.264V254.24C34.304 253.941 34.4533 253.792 34.752 253.792H36.192C36.4907 253.792 36.64 253.941 36.64 254.24V255.072C36.64 256.992 37.5893 257.952 39.488 257.952H42.304C44.2027 257.952 45.152 256.971 45.152 255.008V253.92C45.152 252.384 43.8827 251.381 41.344 250.912C40.2773 250.72 39.2107 250.496 38.144 250.24C37.0773 249.984 36.1707 249.493 35.424 248.768C34.6773 248.021 34.304 247.008 34.304 245.728V244.16C34.304 242.688 34.72 241.536 35.552 240.704C36.4053 239.851 37.568 239.424 39.04 239.424H42.592C44.0427 239.424 45.1947 239.851 46.048 240.704C46.9013 241.536 47.328 242.688 47.328 244.16V244.96C47.328 245.28 47.1893 245.44 46.912 245.44H45.44C45.1627 245.44 45.024 245.28 45.024 244.96V244.384C45.024 242.443 44.0747 241.472 42.176 241.472H39.456C37.5573 241.472 36.608 242.485 36.608 244.512V245.792C36.608 246.88 37.3227 247.627 38.752 248.032C39.392 248.203 40.096 248.363 40.864 248.512C41.632 248.64 42.4 248.821 43.168 249.056C43.9573 249.269 44.672 249.547 45.312 249.888C45.952 250.208 46.464 250.709 46.848 251.392C47.2533 252.053 47.456 252.864 47.456 253.824V255.264C47.456 256.736 47.0293 257.899 46.176 258.752C45.3227 259.584 44.1707 260 42.72 260H39.04C37.5893 260 36.4373 259.584 35.584 258.752C34.7307 257.899 34.304 256.736 34.304 255.264ZM56.95 257.952H60.214C62.006 257.952 62.902 257.024 62.902 255.168V244.256C62.902 242.4 62.006 241.472 60.214 241.472H56.95C55.1793 241.472 54.294 242.4 54.294 244.256V255.168C54.294 257.024 55.1793 257.952 56.95 257.952ZM60.502 260H56.694C55.222 260 54.0593 259.584 53.206 258.752C52.374 257.92 51.958 256.757 51.958 255.264V244.16C51.958 242.667 52.374 241.504 53.206 240.672C54.0593 239.84 55.222 239.424 56.694 239.424H60.502C61.974 239.424 63.126 239.851 63.958 240.704C64.8113 241.536 65.238 242.688 65.238 244.16V255.264C65.238 256.736 64.8113 257.899 63.958 258.752C63.126 259.584 61.974 260 60.502 260ZM80.9095 239.424H82.3495C82.6482 239.424 82.7975 239.563 82.7975 239.84V255.264C82.7975 256.757 82.3815 257.92 81.5495 258.752C80.7175 259.584 79.5655 260 78.0935 260H74.5415C73.0695 260 71.9068 259.584 71.0535 258.752C70.2215 257.92 69.8055 256.757 69.8055 255.264V239.872C69.8055 239.573 69.9548 239.424 70.2535 239.424H71.6935C71.9922 239.424 72.1415 239.573 72.1415 239.872V255.168C72.1415 257.024 73.0268 257.952 74.7975 257.952H77.8055C79.5975 257.952 80.4935 257.024 80.4935 255.168V239.872C80.4935 239.573 80.6322 239.424 80.9095 239.424ZM89.5403 260H88.1323C87.8336 260 87.6843 259.851 87.6843 259.552V239.872C87.6843 239.573 87.8336 239.424 88.1323 239.424H89.4443C89.7003 239.424 89.8709 239.509 89.9563 239.68L98.7883 255.2H98.9163V239.872C98.9163 239.573 99.0656 239.424 99.3643 239.424H100.772C101.071 239.424 101.22 239.573 101.22 239.872V259.552C101.22 259.851 101.071 260 100.772 260H99.5883C99.3536 260 99.1296 259.861 98.9163 259.584L90.1163 244.224H89.9883V259.552C89.9883 259.851 89.8389 260 89.5403 260ZM108.934 257.952H114.31C116.102 257.952 116.998 257.024 116.998 255.168V244.256C116.998 242.4 116.102 241.472 114.31 241.472H108.934C108.721 241.472 108.614 241.568 108.614 241.76V257.664C108.614 257.856 108.721 257.952 108.934 257.952ZM106.278 259.552V239.872C106.278 239.573 106.427 239.424 106.726 239.424H114.598C116.07 239.424 117.222 239.851 118.054 240.704C118.907 241.536 119.334 242.688 119.334 244.16V255.264C119.334 256.736 118.907 257.899 118.054 258.752C117.222 259.584 116.07 260 114.598 260H106.726C106.427 260 106.278 259.851 106.278 259.552Z" fill="white"/>
</svg>
