<svg width="151" height="307" viewBox="0 0 151 307" fill="none" xmlns="http://www.w3.org/2000/svg">
<path d="M0 0H151V307H0V0Z" fill="#2590CD"/>
<ellipse cx="75.5" cy="166.5" rx="41.5" ry="32.5" fill="white"/>
<ellipse cx="75.487" cy="156.511" rx="8.06118" ry="8.26271" fill="#2590CD"/>
<path d="M98.595 165.324C98.595 169.888 94.9859 173.587 90.5338 173.587C86.0818 173.587 82.4727 169.888 82.4727 165.324C82.4727 160.761 86.0818 157.061 90.5338 157.061C94.9859 157.061 98.595 160.761 98.595 165.324Z" fill="#2590CD"/>
<path d="M98.5949 182.951C98.5949 187.515 94.9858 191.214 90.5337 191.214C86.0816 191.214 82.4725 187.515 82.4725 182.951C82.4725 178.388 86.0816 174.689 90.5337 174.689C94.9858 174.689 98.5949 178.388 98.5949 182.951Z" fill="#2590CD"/>
<path d="M83.5481 191.765C83.5481 196.328 79.939 200.028 75.487 200.028C71.0349 200.028 67.4258 196.328 67.4258 191.765C67.4258 187.201 71.0349 183.502 75.487 183.502C79.939 183.502 83.5481 187.201 83.5481 191.765Z" fill="#2590CD"/>
<ellipse cx="60.4391" cy="165.324" rx="8.06118" ry="8.26271" fill="#2590CD"/>
<ellipse cx="60.4391" cy="182.951" rx="8.06118" ry="8.26271" fill="#2590CD"/>
<ellipse cx="90.5" cy="174" rx="23.5" ry="8" fill="#2590CD"/>
<rect x="27" y="68" width="97" height="40" rx="10" fill="#2590CD"/>
<path d="M34.304 244.264V243.24C34.304 242.941 34.4533 242.792 34.752 242.792H36.192C36.4907 242.792 36.64 242.941 36.64 243.24V244.072C36.64 245.992 37.5893 246.952 39.488 246.952H42.304C44.2027 246.952 45.152 245.971 45.152 244.008V242.92C45.152 241.384 43.8827 240.381 41.344 239.912C40.2773 239.72 39.2107 239.496 38.144 239.24C37.0773 238.984 36.1707 238.493 35.424 237.768C34.6773 237.021 34.304 236.008 34.304 234.728V233.16C34.304 231.688 34.72 230.536 35.552 229.704C36.4053 228.851 37.568 228.424 39.04 228.424H42.592C44.0427 228.424 45.1947 228.851 46.048 229.704C46.9013 230.536 47.328 231.688 47.328 233.16V233.96C47.328 234.28 47.1893 234.44 46.912 234.44H45.44C45.1627 234.44 45.024 234.28 45.024 233.96V233.384C45.024 231.443 44.0747 230.472 42.176 230.472H39.456C37.5573 230.472 36.608 231.485 36.608 233.512V234.792C36.608 235.88 37.3227 236.627 38.752 237.032C39.392 237.203 40.096 237.363 40.864 237.512C41.632 237.64 42.4 237.821 43.168 238.056C43.9573 238.269 44.672 238.547 45.312 238.888C45.952 239.208 46.464 239.709 46.848 240.392C47.2533 241.053 47.456 241.864 47.456 242.824V244.264C47.456 245.736 47.0293 246.899 46.176 247.752C45.3227 248.584 44.1707 249 42.72 249H39.04C37.5893 249 36.4373 248.584 35.584 247.752C34.7307 246.899 34.304 245.736 34.304 244.264ZM56.95 246.952H60.214C62.006 246.952 62.902 246.024 62.902 244.168V233.256C62.902 231.4 62.006 230.472 60.214 230.472H56.95C55.1793 230.472 54.294 231.4 54.294 233.256V244.168C54.294 246.024 55.1793 246.952 56.95 246.952ZM60.502 249H56.694C55.222 249 54.0593 248.584 53.206 247.752C52.374 246.92 51.958 245.757 51.958 244.264V233.16C51.958 231.667 52.374 230.504 53.206 229.672C54.0593 228.84 55.222 228.424 56.694 228.424H60.502C61.974 228.424 63.126 228.851 63.958 229.704C64.8113 230.536 65.238 231.688 65.238 233.16V244.264C65.238 245.736 64.8113 246.899 63.958 247.752C63.126 248.584 61.974 249 60.502 249ZM80.9095 228.424H82.3495C82.6482 228.424 82.7975 228.563 82.7975 228.84V244.264C82.7975 245.757 82.3815 246.92 81.5495 247.752C80.7175 248.584 79.5655 249 78.0935 249H74.5415C73.0695 249 71.9068 248.584 71.0535 247.752C70.2215 246.92 69.8055 245.757 69.8055 244.264V228.872C69.8055 228.573 69.9548 228.424 70.2535 228.424H71.6935C71.9922 228.424 72.1415 228.573 72.1415 228.872V244.168C72.1415 246.024 73.0268 246.952 74.7975 246.952H77.8055C79.5975 246.952 80.4935 246.024 80.4935 244.168V228.872C80.4935 228.573 80.6322 228.424 80.9095 228.424ZM89.5403 249H88.1323C87.8336 249 87.6843 248.851 87.6843 248.552V228.872C87.6843 228.573 87.8336 228.424 88.1323 228.424H89.4443C89.7003 228.424 89.8709 228.509 89.9563 228.68L98.7883 244.2H98.9163V228.872C98.9163 228.573 99.0656 228.424 99.3643 228.424H100.772C101.071 228.424 101.22 228.573 101.22 228.872V248.552C101.22 248.851 101.071 249 100.772 249H99.5883C99.3536 249 99.1296 248.861 98.9163 248.584L90.1163 233.224H89.9883V248.552C89.9883 248.851 89.8389 249 89.5403 249ZM108.934 246.952H114.31C116.102 246.952 116.998 246.024 116.998 244.168V233.256C116.998 231.4 116.102 230.472 114.31 230.472H108.934C108.721 230.472 108.614 230.568 108.614 230.76V246.664C108.614 246.856 108.721 246.952 108.934 246.952ZM106.278 248.552V228.872C106.278 228.573 106.427 228.424 106.726 228.424H114.598C116.07 228.424 117.222 228.851 118.054 229.704C118.907 230.536 119.334 231.688 119.334 233.16V244.264C119.334 245.736 118.907 246.899 118.054 247.752C117.222 248.584 116.07 249 114.598 249H106.726C106.427 249 106.278 248.851 106.278 248.552Z" fill="white"/>
</svg>
