<svg width="156" height="354" viewBox="0 0 156 354" fill="none" xmlns="http://www.w3.org/2000/svg">
<path d="M0 0H156V354H0V0Z" fill="#117CBF"/>
<path d="M78.5 191C91.4787 191 102 194.582 102 199C102 203.418 91.4787 207 78.5 207C65.5213 207 55 203.418 55 199C55 194.582 65.5213 191 78.5 191Z" fill="#117CBF"/>
<path d="M108.5 191C121.479 191 132 194.582 132 199C132 203.418 121.479 207 108.5 207C95.5213 207 85 203.418 85 199C85 194.582 95.5213 191 108.5 191Z" fill="#117CBF"/>
<path d="M63 183C67.6238 183 72.0107 184.03 75.9521 185.874C74.7363 187.321 74 189.203 74 191.263C74 195.826 77.6095 199.525 82.0615 199.525C84.6186 199.525 86.8953 198.303 88.3721 196.399C91.9171 201.521 94 207.763 94 214.5C94 231.897 80.1208 246 63 246C45.8792 246 32 231.897 32 214.5C32 197.103 45.8792 183 63 183ZM112.534 218.5C116.986 218.5 120.595 222.199 120.595 226.763C120.595 231.326 116.986 235.025 112.534 235.025C108.082 235.025 104.473 231.326 104.473 226.763C104.473 222.199 108.082 218.5 112.534 218.5ZM82.0615 200.627C77.6095 200.627 74.0001 204.326 74 208.89C74 213.453 77.6095 217.152 82.0615 217.152C86.5134 217.152 90.1221 213.453 90.1221 208.89C90.122 204.327 86.5133 200.627 82.0615 200.627ZM118.5 201C126.508 201 133 204.582 133 209C133 213.418 126.508 217 118.5 217C110.492 217 104 213.418 104 209C104 204.582 110.492 201 118.5 201ZM108.5 183C115.404 183 121 186.806 121 191.5C121 196.194 115.404 200 108.5 200C101.596 200 96 196.194 96 191.5C96 186.806 101.596 183 108.5 183ZM82.0615 183C86.5134 183 90.1221 186.699 90.1221 191.263C90.1221 193.205 89.4663 194.989 88.3721 196.399C85.2351 191.868 80.9531 188.214 75.9521 185.874C77.4305 184.115 79.6186 183 82.0615 183ZM82.0615 165C86.5134 165 90.1221 168.699 90.1221 173.263C90.1221 177.826 86.5134 181.525 82.0615 181.525C77.6095 181.525 74 177.826 74 173.263C74 168.699 77.6095 165 82.0615 165Z" fill="white"/>
<path d="M51.024 295H49.494C49.1767 295 49.018 294.841 49.018 294.524V275.62C49.018 275.416 48.9047 275.314 48.678 275.314H44.054C43.714 275.314 43.544 275.155 43.544 274.838V273.614C43.544 273.297 43.714 273.138 44.054 273.138H56.464C56.804 273.138 56.974 273.297 56.974 273.614V274.838C56.974 275.155 56.804 275.314 56.464 275.314H51.84C51.6133 275.314 51.5 275.416 51.5 275.62V294.524C51.5 294.841 51.3413 295 51.024 295ZM71.3478 295H60.6718C60.3544 295 60.1958 294.841 60.1958 294.524V273.614C60.1958 273.297 60.3544 273.138 60.6718 273.138H71.3478C71.6651 273.138 71.8238 273.297 71.8238 273.614V274.838C71.8238 275.155 71.6651 275.314 71.3478 275.314H63.0178C62.7911 275.314 62.6778 275.416 62.6778 275.62V282.488C62.6778 282.692 62.7911 282.794 63.0178 282.794H70.2938C70.6111 282.794 70.7698 282.953 70.7698 283.27V284.494C70.7698 284.811 70.6111 284.97 70.2938 284.97H63.0178C62.7911 284.97 62.6778 285.072 62.6778 285.276V292.518C62.6778 292.722 62.7911 292.824 63.0178 292.824H71.3478C71.6651 292.824 71.8238 292.983 71.8238 293.3V294.524C71.8238 294.841 71.6651 295 71.3478 295ZM85.3037 295H81.2237C79.6597 295 78.4244 294.558 77.5177 293.674C76.6337 292.79 76.1917 291.555 76.1917 289.968V278.17C76.1917 276.583 76.6337 275.348 77.5177 274.464C78.4244 273.58 79.6597 273.138 81.2237 273.138H85.3037C86.8677 273.138 88.0917 273.58 88.9757 274.464C89.8824 275.348 90.3357 276.583 90.3357 278.17V279.836C90.3357 280.153 90.177 280.312 89.8597 280.312H88.3297C88.0124 280.312 87.8537 280.153 87.8537 279.836V278.272C87.8537 276.3 86.9017 275.314 84.9977 275.314H81.4957C79.6144 275.314 78.6737 276.3 78.6737 278.272V289.866C78.6737 291.838 79.6144 292.824 81.4957 292.824H84.9977C86.9017 292.824 87.8537 291.838 87.8537 289.866V288.302C87.8537 287.985 88.0124 287.826 88.3297 287.826H89.8597C90.177 287.826 90.3357 287.985 90.3357 288.302V289.968C90.3357 291.555 89.8824 292.79 88.9757 293.674C88.0917 294.558 86.8677 295 85.3037 295ZM96.9322 295H95.4022C95.0849 295 94.9262 294.841 94.9262 294.524V273.614C94.9262 273.297 95.0849 273.138 95.4022 273.138H96.9322C97.2496 273.138 97.4082 273.297 97.4082 273.614V282.556C97.4082 282.76 97.5216 282.862 97.7482 282.862H106.18C106.407 282.862 106.52 282.76 106.52 282.556V273.614C106.52 273.297 106.679 273.138 106.996 273.138H108.526C108.844 273.138 109.002 273.297 109.002 273.614V294.524C109.002 294.841 108.844 295 108.526 295H106.996C106.679 295 106.52 294.841 106.52 294.524V285.344C106.52 285.14 106.407 285.038 106.18 285.038H97.7482C97.5216 285.038 97.4082 285.14 97.4082 285.344V294.524C97.4082 294.841 97.2496 295 96.9322 295Z" fill="white"/>
</svg>
