<svg width="156" height="354" viewBox="0 0 156 354" fill="none" xmlns="http://www.w3.org/2000/svg">
<path d="M0 0H156V354H0V0Z" fill="#117CBF"/>
<path d="M78.5 191C91.4787 191 102 194.582 102 199C102 203.418 91.4787 207 78.5 207C65.5213 207 55 203.418 55 199C55 194.582 65.5213 191 78.5 191Z" fill="#117CBF"/>
<path d="M108.5 191C121.479 191 132 194.582 132 199C132 203.418 121.479 207 108.5 207C95.5213 207 85 203.418 85 199C85 194.582 95.5213 191 108.5 191Z" fill="#117CBF"/>
<path d="M63 183C67.6238 183 72.0107 184.03 75.9521 185.874C74.7363 187.321 74 189.203 74 191.263C74 195.826 77.6095 199.525 82.0615 199.525C84.6186 199.525 86.8953 198.303 88.3721 196.399C91.9171 201.521 94 207.763 94 214.5C94 231.897 80.1208 246 63 246C45.8792 246 32 231.897 32 214.5C32 197.103 45.8792 183 63 183ZM112.534 218.5C116.986 218.5 120.595 222.199 120.595 226.763C120.595 231.326 116.986 235.025 112.534 235.025C108.082 235.025 104.473 231.326 104.473 226.763C104.473 222.199 108.082 218.5 112.534 218.5ZM82.0615 200.627C77.6095 200.627 74.0001 204.326 74 208.89C74 213.453 77.6095 217.152 82.0615 217.152C86.5134 217.152 90.1221 213.453 90.1221 208.89C90.122 204.327 86.5133 200.627 82.0615 200.627ZM118.5 201C126.508 201 133 204.582 133 209C133 213.418 126.508 217 118.5 217C110.492 217 104 213.418 104 209C104 204.582 110.492 201 118.5 201ZM108.5 183C115.404 183 121 186.806 121 191.5C121 196.194 115.404 200 108.5 200C101.596 200 96 196.194 96 191.5C96 186.806 101.596 183 108.5 183ZM82.0615 183C86.5134 183 90.1221 186.699 90.1221 191.263C90.1221 193.205 89.4663 194.989 88.3721 196.399C85.2351 191.868 80.9531 188.214 75.9521 185.874C77.4305 184.115 79.6186 183 82.0615 183ZM82.0615 165C86.5134 165 90.1221 168.699 90.1221 173.263C90.1221 177.826 86.5134 181.525 82.0615 181.525C77.6095 181.525 74 177.826 74 173.263C74 168.699 77.6095 165 82.0615 165Z" fill="white"/>
<path d="M37.304 290.264V289.24C37.304 288.941 37.4533 288.792 37.752 288.792H39.192C39.4907 288.792 39.64 288.941 39.64 289.24V290.072C39.64 291.992 40.5893 292.952 42.488 292.952H45.304C47.2027 292.952 48.152 291.971 48.152 290.008V288.92C48.152 287.384 46.8827 286.381 44.344 285.912C43.2773 285.72 42.2107 285.496 41.144 285.24C40.0773 284.984 39.1707 284.493 38.424 283.768C37.6773 283.021 37.304 282.008 37.304 280.728V279.16C37.304 277.688 37.72 276.536 38.552 275.704C39.4053 274.851 40.568 274.424 42.04 274.424H45.592C47.0427 274.424 48.1947 274.851 49.048 275.704C49.9013 276.536 50.328 277.688 50.328 279.16V279.96C50.328 280.28 50.1893 280.44 49.912 280.44H48.44C48.1627 280.44 48.024 280.28 48.024 279.96V279.384C48.024 277.443 47.0747 276.472 45.176 276.472H42.456C40.5573 276.472 39.608 277.485 39.608 279.512V280.792C39.608 281.88 40.3227 282.627 41.752 283.032C42.392 283.203 43.096 283.363 43.864 283.512C44.632 283.64 45.4 283.821 46.168 284.056C46.9573 284.269 47.672 284.547 48.312 284.888C48.952 285.208 49.464 285.709 49.848 286.392C50.2533 287.053 50.456 287.864 50.456 288.824V290.264C50.456 291.736 50.0293 292.899 49.176 293.752C48.3227 294.584 47.1707 295 45.72 295H42.04C40.5893 295 39.4373 294.584 38.584 293.752C37.7307 292.899 37.304 291.736 37.304 290.264ZM59.95 292.952H63.214C65.006 292.952 65.902 292.024 65.902 290.168V279.256C65.902 277.4 65.006 276.472 63.214 276.472H59.95C58.1793 276.472 57.294 277.4 57.294 279.256V290.168C57.294 292.024 58.1793 292.952 59.95 292.952ZM63.502 295H59.694C58.222 295 57.0593 294.584 56.206 293.752C55.374 292.92 54.958 291.757 54.958 290.264V279.16C54.958 277.667 55.374 276.504 56.206 275.672C57.0593 274.84 58.222 274.424 59.694 274.424H63.502C64.974 274.424 66.126 274.851 66.958 275.704C67.8113 276.536 68.238 277.688 68.238 279.16V290.264C68.238 291.736 67.8113 292.899 66.958 293.752C66.126 294.584 64.974 295 63.502 295ZM83.9095 274.424H85.3495C85.6482 274.424 85.7975 274.563 85.7975 274.84V290.264C85.7975 291.757 85.3815 292.92 84.5495 293.752C83.7175 294.584 82.5655 295 81.0935 295H77.5415C76.0695 295 74.9068 294.584 74.0535 293.752C73.2215 292.92 72.8055 291.757 72.8055 290.264V274.872C72.8055 274.573 72.9548 274.424 73.2535 274.424H74.6935C74.9922 274.424 75.1415 274.573 75.1415 274.872V290.168C75.1415 292.024 76.0268 292.952 77.7975 292.952H80.8055C82.5975 292.952 83.4935 292.024 83.4935 290.168V274.872C83.4935 274.573 83.6322 274.424 83.9095 274.424ZM92.5403 295H91.1323C90.8336 295 90.6843 294.851 90.6843 294.552V274.872C90.6843 274.573 90.8336 274.424 91.1323 274.424H92.4443C92.7003 274.424 92.8709 274.509 92.9563 274.68L101.788 290.2H101.916V274.872C101.916 274.573 102.066 274.424 102.364 274.424H103.772C104.071 274.424 104.22 274.573 104.22 274.872V294.552C104.22 294.851 104.071 295 103.772 295H102.588C102.354 295 102.13 294.861 101.916 294.584L93.1163 279.224H92.9883V294.552C92.9883 294.851 92.8389 295 92.5403 295ZM111.934 292.952H117.31C119.102 292.952 119.998 292.024 119.998 290.168V279.256C119.998 277.4 119.102 276.472 117.31 276.472H111.934C111.721 276.472 111.614 276.568 111.614 276.76V292.664C111.614 292.856 111.721 292.952 111.934 292.952ZM109.278 294.552V274.872C109.278 274.573 109.427 274.424 109.726 274.424H117.598C119.07 274.424 120.222 274.851 121.054 275.704C121.907 276.536 122.334 277.688 122.334 279.16V290.264C122.334 291.736 121.907 292.899 121.054 293.752C120.222 294.584 119.07 295 117.598 295H109.726C109.427 295 109.278 294.851 109.278 294.552Z" fill="white"/>
</svg>
