<svg width="151" height="307" viewBox="0 0 151 307" fill="none" xmlns="http://www.w3.org/2000/svg">
<path d="M0 0H151V307V180.5L0 307V0Z" fill="#2590CD"/>
<circle cx="75.5" cy="150" r="32.5" fill="white"/>
<ellipse cx="75.487" cy="132.511" rx="8.06118" ry="8.26271" fill="#D9D9D9"/>
<path d="M98.595 141.324C98.595 145.888 94.9859 149.587 90.5338 149.587C86.0818 149.587 82.4727 145.888 82.4727 141.324C82.4727 136.761 86.0818 133.061 90.5338 133.061C94.9859 133.061 98.595 136.761 98.595 141.324Z" fill="#D9D9D9"/>
<path d="M98.5949 158.951C98.5949 163.515 94.9858 167.214 90.5337 167.214C86.0816 167.214 82.4725 163.515 82.4725 158.951C82.4725 154.388 86.0816 150.689 90.5337 150.689C94.9858 150.689 98.5949 154.388 98.5949 158.951Z" fill="#D9D9D9"/>
<ellipse cx="75.487" cy="167.765" rx="8.06118" ry="8.26271" fill="#D9D9D9"/>
<ellipse cx="60.4391" cy="141.324" rx="8.06118" ry="8.26271" fill="#D9D9D9"/>
<ellipse cx="60.4391" cy="158.951" rx="8.06118" ry="8.26271" fill="#D9D9D9"/>
<ellipse cx="75.487" cy="150.138" rx="8.06118" ry="8.26271" fill="#D9D9D9"/>
<rect x="13" y="247" width="97" height="40" rx="10" fill="#2590CD"/>
<path d="M23.88 272.648V271.368C23.88 271.176 23.9653 271.08 24.136 271.08H24.584C24.7547 271.08 24.84 271.176 24.84 271.368V272.616C24.84 273.704 25.128 274.557 25.704 275.176C26.28 275.795 27.1013 276.104 28.168 276.104H32.008C33.0747 276.104 33.896 275.795 34.472 275.176C35.048 274.557 35.336 273.704 35.336 272.616V271.016C35.336 270.013 34.9413 269.224 34.152 268.648C33.3627 268.051 32.4027 267.624 31.272 267.368C30.1627 267.091 29.0427 266.824 27.912 266.568C26.8027 266.291 25.8533 265.843 25.064 265.224C24.2747 264.605 23.88 263.763 23.88 262.696V260.776C23.88 259.453 24.264 258.397 25.032 257.608C25.8213 256.819 26.8667 256.424 28.168 256.424H32.008C33.3093 256.424 34.344 256.819 35.112 257.608C35.9013 258.397 36.296 259.453 36.296 260.776V261.736C36.296 261.928 36.2107 262.024 36.04 262.024H35.592C35.4213 262.024 35.336 261.928 35.336 261.736V260.808C35.336 259.72 35.048 258.867 34.472 258.248C33.896 257.629 33.0747 257.32 32.008 257.32H28.168C27.1013 257.32 26.28 257.629 25.704 258.248C25.128 258.867 24.84 259.72 24.84 260.808V262.664C24.84 264.243 26.184 265.331 28.872 265.928C30.0027 266.163 31.1227 266.429 32.232 266.728C33.3627 267.005 34.3227 267.496 35.112 268.2C35.9013 268.883 36.296 269.8 36.296 270.952V272.648C36.296 273.971 35.9013 275.027 35.112 275.816C34.344 276.605 33.3093 277 32.008 277H28.168C26.8667 277 25.8213 276.605 25.032 275.816C24.264 275.027 23.88 273.971 23.88 272.648ZM48.4355 277H45.7155C44.4142 277 43.3688 276.605 42.5795 275.816C41.8115 275.027 41.4275 273.971 41.4275 272.648V265.032C41.4275 263.709 41.8115 262.653 42.5795 261.864C43.3688 261.075 44.4142 260.68 45.7155 260.68H48.4355C49.7368 260.68 50.7715 261.075 51.5395 261.864C52.3288 262.653 52.7235 263.709 52.7235 265.032V272.648C52.7235 273.971 52.3288 275.027 51.5395 275.816C50.7715 276.605 49.7368 277 48.4355 277ZM45.7155 276.104H48.4355C49.5022 276.104 50.3235 275.795 50.8995 275.176C51.4755 274.557 51.7635 273.704 51.7635 272.616V265.064C51.7635 263.976 51.4755 263.123 50.8995 262.504C50.3235 261.885 49.5022 261.576 48.4355 261.576H45.7155C44.6488 261.576 43.8275 261.885 43.2515 262.504C42.6755 263.123 42.3875 263.976 42.3875 265.064V272.616C42.3875 273.704 42.6755 274.557 43.2515 275.176C43.8275 275.795 44.6488 276.104 45.7155 276.104ZM64.0248 277H61.6568C60.3554 277 59.3101 276.605 58.5208 275.816C57.7528 275.027 57.3688 273.971 57.3688 272.648V260.968C57.3688 260.776 57.4541 260.68 57.6248 260.68H58.0728C58.2434 260.68 58.3288 260.776 58.3288 260.968V272.616C58.3288 273.704 58.6168 274.557 59.1927 275.176C59.7688 275.795 60.5901 276.104 61.6568 276.104H63.9608C65.0274 276.104 65.8914 275.816 66.5528 275.24C67.2141 274.664 67.5448 273.843 67.5448 272.776V260.968C67.5448 260.776 67.6301 260.68 67.8008 260.68H68.2488C68.4194 260.68 68.5048 260.776 68.5048 260.968V276.712C68.5048 276.904 68.4194 277 68.2488 277H67.8008C67.6301 277 67.5448 276.904 67.5448 276.712V275.336H67.4168C66.8194 276.445 65.6888 277 64.0248 277ZM74.3265 277H73.8785C73.7078 277 73.6225 276.904 73.6225 276.712V260.968C73.6225 260.776 73.7078 260.68 73.8785 260.68H74.3265C74.4972 260.68 74.5825 260.776 74.5825 260.968V262.344H74.7105C75.3078 261.235 76.4385 260.68 78.1025 260.68H80.4705C81.7718 260.68 82.8065 261.075 83.5745 261.864C84.3638 262.653 84.7585 263.709 84.7585 265.032V276.712C84.7585 276.904 84.6732 277 84.5025 277H84.0545C83.8838 277 83.7985 276.904 83.7985 276.712V265.064C83.7985 263.976 83.5105 263.123 82.9345 262.504C82.3585 261.885 81.5372 261.576 80.4705 261.576H78.1665C77.0998 261.576 76.2358 261.864 75.5745 262.44C74.9132 263.016 74.5825 263.837 74.5825 264.904V276.712C74.5825 276.904 74.4972 277 74.3265 277ZM96.0523 277H93.6843C92.3829 277 91.3376 276.605 90.5483 275.816C89.7803 275.027 89.3963 273.971 89.3963 272.648V265.032C89.3963 263.709 89.7803 262.653 90.5483 261.864C91.3376 261.075 92.3829 260.68 93.6843 260.68H96.0523C97.7163 260.68 98.8469 261.235 99.4443 262.344H99.5723V254.792C99.5723 254.6 99.6576 254.504 99.8283 254.504H100.276C100.447 254.504 100.532 254.6 100.532 254.792V276.712C100.532 276.904 100.447 277 100.276 277H99.8283C99.6576 277 99.5723 276.904 99.5723 276.712V275.336H99.4443C98.8469 276.445 97.7163 277 96.0523 277ZM99.5723 272.776V264.904C99.5723 263.837 99.2416 263.016 98.5803 262.44C97.9189 261.864 97.0549 261.576 95.9883 261.576H93.6843C92.6176 261.576 91.7963 261.885 91.2203 262.504C90.6443 263.123 90.3563 263.976 90.3563 265.064V272.616C90.3563 273.704 90.6443 274.557 91.2203 275.176C91.7963 275.795 92.6176 276.104 93.6843 276.104H95.9883C97.0549 276.104 97.9189 275.816 98.5803 275.24C99.2416 274.664 99.5723 273.843 99.5723 272.776Z" fill="white"/>
</svg>
