<svg width="151" height="307" viewBox="0 0 151 307" fill="none" xmlns="http://www.w3.org/2000/svg">
<path d="M0 0H151V307H0V0Z" fill="#2590CD"/>
<circle cx="75.5" cy="150" r="32.5" fill="white"/>
<ellipse cx="75.487" cy="132.511" rx="8.06118" ry="8.26271" fill="#D9D9D9"/>
<path d="M98.595 141.324C98.595 145.888 94.9859 149.587 90.5338 149.587C86.0818 149.587 82.4727 145.888 82.4727 141.324C82.4727 136.761 86.0818 133.061 90.5338 133.061C94.9859 133.061 98.595 136.761 98.595 141.324Z" fill="#D9D9D9"/>
<path d="M98.5949 158.951C98.5949 163.515 94.9858 167.214 90.5337 167.214C86.0816 167.214 82.4725 163.515 82.4725 158.951C82.4725 154.388 86.0816 150.689 90.5337 150.689C94.9858 150.689 98.5949 154.388 98.5949 158.951Z" fill="#D9D9D9"/>
<ellipse cx="75.487" cy="167.765" rx="8.06118" ry="8.26271" fill="#D9D9D9"/>
<ellipse cx="60.4391" cy="141.324" rx="8.06118" ry="8.26271" fill="#D9D9D9"/>
<ellipse cx="60.4391" cy="158.951" rx="8.06118" ry="8.26271" fill="#D9D9D9"/>
<ellipse cx="75.487" cy="150.138" rx="8.06118" ry="8.26271" fill="#D9D9D9"/>
<rect x="27" y="68" width="97" height="40" rx="10" fill="#2590CD"/>
<path d="M10.304 136.264V135.24C10.304 134.941 10.4533 134.792 10.752 134.792H12.192C12.4907 134.792 12.64 134.941 12.64 135.24V136.072C12.64 137.992 13.5893 138.952 15.488 138.952H18.304C20.2027 138.952 21.152 137.971 21.152 136.008V134.92C21.152 133.384 19.8827 132.381 17.344 131.912C16.2773 131.72 15.2107 131.496 14.144 131.24C13.0773 130.984 12.1707 130.493 11.424 129.768C10.6773 129.021 10.304 128.008 10.304 126.728V125.16C10.304 123.688 10.72 122.536 11.552 121.704C12.4053 120.851 13.568 120.424 15.04 120.424H18.592C20.0427 120.424 21.1947 120.851 22.048 121.704C22.9013 122.536 23.328 123.688 23.328 125.16V125.96C23.328 126.28 23.1893 126.44 22.912 126.44H21.44C21.1627 126.44 21.024 126.28 21.024 125.96V125.384C21.024 123.443 20.0747 122.472 18.176 122.472H15.456C13.5573 122.472 12.608 123.485 12.608 125.512V126.792C12.608 127.88 13.3227 128.627 14.752 129.032C15.392 129.203 16.096 129.363 16.864 129.512C17.632 129.64 18.4 129.821 19.168 130.056C19.9573 130.269 20.672 130.547 21.312 130.888C21.952 131.208 22.464 131.709 22.848 132.392C23.2533 133.053 23.456 133.864 23.456 134.824V136.264C23.456 137.736 23.0293 138.899 22.176 139.752C21.3227 140.584 20.1707 141 18.72 141H15.04C13.5893 141 12.4373 140.584 11.584 139.752C10.7307 138.899 10.304 137.736 10.304 136.264ZM15.2 166.952H18.464C20.256 166.952 21.152 166.024 21.152 164.168V153.256C21.152 151.4 20.256 150.472 18.464 150.472H15.2C13.4293 150.472 12.544 151.4 12.544 153.256V164.168C12.544 166.024 13.4293 166.952 15.2 166.952ZM18.752 169H14.944C13.472 169 12.3093 168.584 11.456 167.752C10.624 166.92 10.208 165.757 10.208 164.264V153.16C10.208 151.667 10.624 150.504 11.456 149.672C12.3093 148.84 13.472 148.424 14.944 148.424H18.752C20.224 148.424 21.376 148.851 22.208 149.704C23.0613 150.536 23.488 151.688 23.488 153.16V164.264C23.488 165.736 23.0613 166.899 22.208 167.752C21.376 168.584 20.224 169 18.752 169ZM21.472 176.424H22.912C23.2107 176.424 23.36 176.563 23.36 176.84V192.264C23.36 193.757 22.944 194.92 22.112 195.752C21.28 196.584 20.128 197 18.656 197H15.104C13.632 197 12.4693 196.584 11.616 195.752C10.784 194.92 10.368 193.757 10.368 192.264V176.872C10.368 176.573 10.5173 176.424 10.816 176.424H12.256C12.5547 176.424 12.704 176.573 12.704 176.872V192.168C12.704 194.024 13.5893 194.952 15.36 194.952H18.368C20.16 194.952 21.056 194.024 21.056 192.168V176.872C21.056 176.573 21.1947 176.424 21.472 176.424ZM12.384 225H10.976C10.6773 225 10.528 224.851 10.528 224.552V204.872C10.528 204.573 10.6773 204.424 10.976 204.424H12.288C12.544 204.424 12.7147 204.509 12.8 204.68L21.632 220.2H21.76V204.872C21.76 204.573 21.9093 204.424 22.208 204.424H23.616C23.9147 204.424 24.064 204.573 24.064 204.872V224.552C24.064 224.851 23.9147 225 23.616 225H22.432C22.1973 225 21.9733 224.861 21.76 224.584L12.96 209.224H12.832V224.552C12.832 224.851 12.6827 225 12.384 225ZM13.629 250.952H19.005C20.797 250.952 21.693 250.024 21.693 248.168V237.256C21.693 235.4 20.797 234.472 19.005 234.472H13.629C13.4157 234.472 13.309 234.568 13.309 234.76V250.664C13.309 250.856 13.4157 250.952 13.629 250.952ZM10.973 252.552V232.872C10.973 232.573 11.1223 232.424 11.421 232.424H19.293C20.765 232.424 21.917 232.851 22.749 233.704C23.6023 234.536 24.029 235.688 24.029 237.16V248.264C24.029 249.736 23.6023 250.899 22.749 251.752C21.917 252.584 20.765 253 19.293 253H11.421C11.1223 253 10.973 252.851 10.973 252.552Z" fill="white"/>
</svg>
