<svg width="151" height="307" viewBox="0 0 151 307" fill="none" xmlns="http://www.w3.org/2000/svg">
<path d="M0 0H151V307V180.5L0 307V0Z" fill="#2590CD"/>
<circle cx="75.5" cy="150" r="32.5" fill="white"/>
<ellipse cx="75.487" cy="132.511" rx="8.06118" ry="8.26271" fill="#D9D9D9"/>
<path d="M98.595 141.324C98.595 145.888 94.9859 149.587 90.5338 149.587C86.0818 149.587 82.4727 145.888 82.4727 141.324C82.4727 136.761 86.0818 133.061 90.5338 133.061C94.9859 133.061 98.595 136.761 98.595 141.324Z" fill="#D9D9D9"/>
<path d="M98.5949 158.951C98.5949 163.515 94.9858 167.214 90.5337 167.214C86.0816 167.214 82.4725 163.515 82.4725 158.951C82.4725 154.388 86.0816 150.689 90.5337 150.689C94.9858 150.689 98.5949 154.388 98.5949 158.951Z" fill="#D9D9D9"/>
<ellipse cx="75.487" cy="167.765" rx="8.06118" ry="8.26271" fill="#D9D9D9"/>
<ellipse cx="60.4391" cy="141.324" rx="8.06118" ry="8.26271" fill="#D9D9D9"/>
<ellipse cx="60.4391" cy="158.951" rx="8.06118" ry="8.26271" fill="#D9D9D9"/>
<ellipse cx="75.487" cy="150.138" rx="8.06118" ry="8.26271" fill="#D9D9D9"/>
<rect x="27" y="68" width="97" height="40" rx="10" fill="#2590CD"/>
<path d="M52.88 72.648V71.368C52.88 71.176 52.9653 71.08 53.136 71.08H53.584C53.7547 71.08 53.84 71.176 53.84 71.368V72.616C53.84 73.704 54.128 74.5573 54.704 75.176C55.28 75.7947 56.1013 76.104 57.168 76.104H61.008C62.0747 76.104 62.896 75.7947 63.472 75.176C64.048 74.5573 64.336 73.704 64.336 72.616V71.016C64.336 70.0133 63.9413 69.224 63.152 68.648C62.3627 68.0507 61.4027 67.624 60.272 67.368C59.1627 67.0907 58.0427 66.824 56.912 66.568C55.8027 66.2907 54.8533 65.8427 54.064 65.224C53.2747 64.6053 52.88 63.7627 52.88 62.696V60.776C52.88 59.4533 53.264 58.3973 54.032 57.608C54.8213 56.8187 55.8667 56.424 57.168 56.424H61.008C62.3093 56.424 63.344 56.8187 64.112 57.608C64.9013 58.3973 65.296 59.4533 65.296 60.776V61.736C65.296 61.928 65.2107 62.024 65.04 62.024H64.592C64.4213 62.024 64.336 61.928 64.336 61.736V60.808C64.336 59.72 64.048 58.8667 63.472 58.248C62.896 57.6293 62.0747 57.32 61.008 57.32H57.168C56.1013 57.32 55.28 57.6293 54.704 58.248C54.128 58.8667 53.84 59.72 53.84 60.808V62.664C53.84 64.2427 55.184 65.3307 57.872 65.928C59.0027 66.1627 60.1227 66.4293 61.232 66.728C62.3627 67.0053 63.3227 67.496 64.112 68.2C64.9013 68.8827 65.296 69.8 65.296 70.952V72.648C65.296 73.9707 64.9013 75.0267 64.112 75.816C63.344 76.6053 62.3093 77 61.008 77H57.168C55.8667 77 54.8213 76.6053 54.032 75.816C53.264 75.0267 52.88 73.9707 52.88 72.648ZM77.4355 77H74.7155C73.4142 77 72.3688 76.6053 71.5795 75.816C70.8115 75.0267 70.4275 73.9707 70.4275 72.648V65.032C70.4275 63.7093 70.8115 62.6533 71.5795 61.864C72.3688 61.0747 73.4142 60.68 74.7155 60.68H77.4355C78.7368 60.68 79.7715 61.0747 80.5395 61.864C81.3288 62.6533 81.7235 63.7093 81.7235 65.032V72.648C81.7235 73.9707 81.3288 75.0267 80.5395 75.816C79.7715 76.6053 78.7368 77 77.4355 77ZM74.7155 76.104H77.4355C78.5022 76.104 79.3235 75.7947 79.8995 75.176C80.4755 74.5573 80.7635 73.704 80.7635 72.616V65.064C80.7635 63.976 80.4755 63.1227 79.8995 62.504C79.3235 61.8853 78.5022 61.576 77.4355 61.576H74.7155C73.6488 61.576 72.8275 61.8853 72.2515 62.504C71.6755 63.1227 71.3875 63.976 71.3875 65.064V72.616C71.3875 73.704 71.6755 74.5573 72.2515 75.176C72.8275 75.7947 73.6488 76.104 74.7155 76.104ZM93.0248 77H90.6568C89.3554 77 88.3101 76.6053 87.5208 75.816C86.7528 75.0267 86.3688 73.9707 86.3688 72.648V60.968C86.3688 60.776 86.4541 60.68 86.6248 60.68H87.0728C87.2434 60.68 87.3288 60.776 87.3288 60.968V72.616C87.3288 73.704 87.6168 74.5573 88.1927 75.176C88.7688 75.7947 89.5901 76.104 90.6568 76.104H92.9608C94.0274 76.104 94.8914 75.816 95.5528 75.24C96.2141 74.664 96.5448 73.8427 96.5448 72.776V60.968C96.5448 60.776 96.6301 60.68 96.8008 60.68H97.2488C97.4194 60.68 97.5048 60.776 97.5048 60.968V76.712C97.5048 76.904 97.4194 77 97.2488 77H96.8008C96.6301 77 96.5448 76.904 96.5448 76.712V75.336H96.4168C95.8194 76.4453 94.6888 77 93.0248 77ZM103.327 77H102.879C102.708 77 102.623 76.904 102.623 76.712V60.968C102.623 60.776 102.708 60.68 102.879 60.68H103.327C103.497 60.68 103.583 60.776 103.583 60.968V62.344H103.711C104.308 61.2347 105.439 60.68 107.103 60.68H109.47C110.772 60.68 111.807 61.0747 112.575 61.864C113.364 62.6533 113.759 63.7093 113.759 65.032V76.712C113.759 76.904 113.673 77 113.503 77H113.055C112.884 77 112.799 76.904 112.799 76.712V65.064C112.799 63.976 112.511 63.1227 111.935 62.504C111.359 61.8853 110.537 61.576 109.47 61.576H107.167C106.1 61.576 105.236 61.864 104.575 62.44C103.913 63.016 103.583 63.8373 103.583 64.904V76.712C103.583 76.904 103.497 77 103.327 77ZM125.052 77H122.684C121.383 77 120.338 76.6053 119.548 75.816C118.78 75.0267 118.396 73.9707 118.396 72.648V65.032C118.396 63.7093 118.78 62.6533 119.548 61.864C120.338 61.0747 121.383 60.68 122.684 60.68H125.052C126.716 60.68 127.847 61.2347 128.444 62.344H128.572V54.792C128.572 54.6 128.658 54.504 128.828 54.504H129.276C129.447 54.504 129.532 54.6 129.532 54.792V76.712C129.532 76.904 129.447 77 129.276 77H128.828C128.658 77 128.572 76.904 128.572 76.712V75.336H128.444C127.847 76.4453 126.716 77 125.052 77ZM128.572 72.776V64.904C128.572 63.8373 128.242 63.016 127.58 62.44C126.919 61.864 126.055 61.576 124.988 61.576H122.684C121.618 61.576 120.796 61.8853 120.22 62.504C119.644 63.1227 119.356 63.976 119.356 65.064V72.616C119.356 73.704 119.644 74.5573 120.22 75.176C120.796 75.7947 121.618 76.104 122.684 76.104H124.988C126.055 76.104 126.919 75.816 127.58 75.24C128.242 74.664 128.572 73.8427 128.572 72.776Z" fill="white"/>
</svg>
