<svg width="151" height="307" viewBox="0 0 151 307" fill="none" xmlns="http://www.w3.org/2000/svg">
<path d="M0 0H151V307V205L0 307V0Z" fill="#61CE84"/>
<circle cx="75.5" cy="150" r="32.5" fill="white"/>
<ellipse cx="75.487" cy="132.511" rx="8.06118" ry="8.26271" fill="#D9D9D9"/>
<path d="M98.595 141.324C98.595 145.888 94.9859 149.587 90.5338 149.587C86.0818 149.587 82.4727 145.888 82.4727 141.324C82.4727 136.761 86.0818 133.061 90.5338 133.061C94.9859 133.061 98.595 136.761 98.595 141.324Z" fill="#D9D9D9"/>
<path d="M98.5949 158.951C98.5949 163.515 94.9858 167.214 90.5337 167.214C86.0816 167.214 82.4725 163.515 82.4725 158.951C82.4725 154.388 86.0816 150.689 90.5337 150.689C94.9858 150.689 98.5949 154.388 98.5949 158.951Z" fill="#D9D9D9"/>
<ellipse cx="75.487" cy="167.765" rx="8.06118" ry="8.26271" fill="#D9D9D9"/>
<ellipse cx="60.4391" cy="141.324" rx="8.06118" ry="8.26271" fill="#D9D9D9"/>
<ellipse cx="60.4391" cy="158.951" rx="8.06118" ry="8.26271" fill="#D9D9D9"/>
<ellipse cx="75.487" cy="150.138" rx="8.06118" ry="8.26271" fill="#D9D9D9"/>
<rect x="27" y="241" width="98.1438" height="40" rx="10" fill="#61CE84"/>
<path d="M37.88 266.648V265.368C37.88 265.176 37.9653 265.08 38.136 265.08H38.584C38.7547 265.08 38.84 265.176 38.84 265.368V266.616C38.84 267.704 39.128 268.557 39.704 269.176C40.28 269.795 41.1013 270.104 42.168 270.104H46.008C47.0747 270.104 47.896 269.795 48.472 269.176C49.048 268.557 49.336 267.704 49.336 266.616V265.016C49.336 264.013 48.9413 263.224 48.152 262.648C47.3627 262.051 46.4027 261.624 45.272 261.368C44.1627 261.091 43.0427 260.824 41.912 260.568C40.8027 260.291 39.8533 259.843 39.064 259.224C38.2747 258.605 37.88 257.763 37.88 256.696V254.776C37.88 253.453 38.264 252.397 39.032 251.608C39.8213 250.819 40.8667 250.424 42.168 250.424H46.008C47.3093 250.424 48.344 250.819 49.112 251.608C49.9013 252.397 50.296 253.453 50.296 254.776V255.736C50.296 255.928 50.2107 256.024 50.04 256.024H49.592C49.4213 256.024 49.336 255.928 49.336 255.736V254.808C49.336 253.72 49.048 252.867 48.472 252.248C47.896 251.629 47.0747 251.32 46.008 251.32H42.168C41.1013 251.32 40.28 251.629 39.704 252.248C39.128 252.867 38.84 253.72 38.84 254.808V256.664C38.84 258.243 40.184 259.331 42.872 259.928C44.0027 260.163 45.1227 260.429 46.232 260.728C47.3627 261.005 48.3227 261.496 49.112 262.2C49.9013 262.883 50.296 263.8 50.296 264.952V266.648C50.296 267.971 49.9013 269.027 49.112 269.816C48.344 270.605 47.3093 271 46.008 271H42.168C40.8667 271 39.8213 270.605 39.032 269.816C38.264 269.027 37.88 267.971 37.88 266.648ZM62.4355 271H59.7155C58.4142 271 57.3688 270.605 56.5795 269.816C55.8115 269.027 55.4275 267.971 55.4275 266.648V259.032C55.4275 257.709 55.8115 256.653 56.5795 255.864C57.3688 255.075 58.4142 254.68 59.7155 254.68H62.4355C63.7368 254.68 64.7715 255.075 65.5395 255.864C66.3288 256.653 66.7235 257.709 66.7235 259.032V266.648C66.7235 267.971 66.3288 269.027 65.5395 269.816C64.7715 270.605 63.7368 271 62.4355 271ZM59.7155 270.104H62.4355C63.5022 270.104 64.3235 269.795 64.8995 269.176C65.4755 268.557 65.7635 267.704 65.7635 266.616V259.064C65.7635 257.976 65.4755 257.123 64.8995 256.504C64.3235 255.885 63.5022 255.576 62.4355 255.576H59.7155C58.6488 255.576 57.8275 255.885 57.2515 256.504C56.6755 257.123 56.3875 257.976 56.3875 259.064V266.616C56.3875 267.704 56.6755 268.557 57.2515 269.176C57.8275 269.795 58.6488 270.104 59.7155 270.104ZM78.0248 271H75.6568C74.3554 271 73.3101 270.605 72.5208 269.816C71.7528 269.027 71.3688 267.971 71.3688 266.648V254.968C71.3688 254.776 71.4541 254.68 71.6248 254.68H72.0728C72.2434 254.68 72.3288 254.776 72.3288 254.968V266.616C72.3288 267.704 72.6168 268.557 73.1927 269.176C73.7688 269.795 74.5901 270.104 75.6568 270.104H77.9608C79.0274 270.104 79.8914 269.816 80.5528 269.24C81.2141 268.664 81.5448 267.843 81.5448 266.776V254.968C81.5448 254.776 81.6301 254.68 81.8008 254.68H82.2488C82.4194 254.68 82.5048 254.776 82.5048 254.968V270.712C82.5048 270.904 82.4194 271 82.2488 271H81.8008C81.6301 271 81.5448 270.904 81.5448 270.712V269.336H81.4168C80.8194 270.445 79.6888 271 78.0248 271ZM88.3265 271H87.8785C87.7078 271 87.6225 270.904 87.6225 270.712V254.968C87.6225 254.776 87.7078 254.68 87.8785 254.68H88.3265C88.4972 254.68 88.5825 254.776 88.5825 254.968V256.344H88.7105C89.3078 255.235 90.4385 254.68 92.1025 254.68H94.4705C95.7718 254.68 96.8065 255.075 97.5745 255.864C98.3638 256.653 98.7585 257.709 98.7585 259.032V270.712C98.7585 270.904 98.6732 271 98.5025 271H98.0545C97.8838 271 97.7985 270.904 97.7985 270.712V259.064C97.7985 257.976 97.5105 257.123 96.9345 256.504C96.3585 255.885 95.5372 255.576 94.4705 255.576H92.1665C91.0998 255.576 90.2358 255.864 89.5745 256.44C88.9132 257.016 88.5825 257.837 88.5825 258.904V270.712C88.5825 270.904 88.4972 271 88.3265 271ZM110.052 271H107.684C106.383 271 105.338 270.605 104.548 269.816C103.78 269.027 103.396 267.971 103.396 266.648V259.032C103.396 257.709 103.78 256.653 104.548 255.864C105.338 255.075 106.383 254.68 107.684 254.68H110.052C111.716 254.68 112.847 255.235 113.444 256.344H113.572V248.792C113.572 248.6 113.658 248.504 113.828 248.504H114.276C114.447 248.504 114.532 248.6 114.532 248.792V270.712C114.532 270.904 114.447 271 114.276 271H113.828C113.658 271 113.572 270.904 113.572 270.712V269.336H113.444C112.847 270.445 111.716 271 110.052 271ZM113.572 266.776V258.904C113.572 257.837 113.242 257.016 112.58 256.44C111.919 255.864 111.055 255.576 109.988 255.576H107.684C106.618 255.576 105.796 255.885 105.22 256.504C104.644 257.123 104.356 257.976 104.356 259.064V266.616C104.356 267.704 104.644 268.557 105.22 269.176C105.796 269.795 106.618 270.104 107.684 270.104H109.988C111.055 270.104 111.919 269.816 112.58 269.24C113.242 268.664 113.572 267.843 113.572 266.776Z" fill="white"/>
</svg>
