<svg width="188" height="307" viewBox="0 0 188 307" fill="none" xmlns="http://www.w3.org/2000/svg">
<path d="M0 0H151V307V205L0 307V0Z" fill="#61CE84"/>
<circle cx="75.5" cy="150" r="32.5" fill="white"/>
<ellipse cx="75.487" cy="132.511" rx="8.06118" ry="8.26271" fill="#D9D9D9"/>
<path d="M98.595 141.324C98.595 145.888 94.9859 149.587 90.5338 149.587C86.0818 149.587 82.4727 145.888 82.4727 141.324C82.4727 136.761 86.0818 133.061 90.5338 133.061C94.9859 133.061 98.595 136.761 98.595 141.324Z" fill="#D9D9D9"/>
<path d="M98.5949 158.951C98.5949 163.515 94.9858 167.214 90.5337 167.214C86.0816 167.214 82.4725 163.515 82.4725 158.951C82.4725 154.388 86.0816 150.689 90.5337 150.689C94.9858 150.689 98.5949 154.388 98.5949 158.951Z" fill="#D9D9D9"/>
<ellipse cx="75.487" cy="167.765" rx="8.06118" ry="8.26271" fill="#D9D9D9"/>
<ellipse cx="60.4391" cy="141.324" rx="8.06118" ry="8.26271" fill="#D9D9D9"/>
<ellipse cx="60.4391" cy="158.951" rx="8.06118" ry="8.26271" fill="#D9D9D9"/>
<ellipse cx="75.487" cy="150.138" rx="8.06118" ry="8.26271" fill="#D9D9D9"/>
<rect x="27" y="242" width="98.1438" height="40" rx="10" fill="#61CE84"/>
<path d="M37.5992 267.648V266.368C37.5992 266.176 37.6846 266.08 37.8552 266.08H38.3032C38.4739 266.08 38.5592 266.176 38.5592 266.368V267.616C38.5592 268.704 38.8472 269.557 39.4232 270.176C39.9992 270.795 40.8206 271.104 41.8872 271.104H45.7272C46.7939 271.104 47.6152 270.795 48.1912 270.176C48.7672 269.557 49.0552 268.704 49.0552 267.616V266.016C49.0552 265.013 48.6606 264.224 47.8712 263.648C47.0819 263.051 46.1219 262.624 44.9912 262.368C43.8819 262.091 42.7619 261.824 41.6312 261.568C40.5219 261.291 39.5726 260.843 38.7832 260.224C37.9939 259.605 37.5992 258.763 37.5992 257.696V255.776C37.5992 254.453 37.9832 253.397 38.7512 252.608C39.5406 251.819 40.5859 251.424 41.8872 251.424H45.7272C47.0286 251.424 48.0632 251.819 48.8312 252.608C49.6206 253.397 50.0152 254.453 50.0152 255.776V256.736C50.0152 256.928 49.9299 257.024 49.7592 257.024H49.3112C49.1406 257.024 49.0552 256.928 49.0552 256.736V255.808C49.0552 254.72 48.7672 253.867 48.1912 253.248C47.6152 252.629 46.7939 252.32 45.7272 252.32H41.8872C40.8206 252.32 39.9992 252.629 39.4232 253.248C38.8472 253.867 38.5592 254.72 38.5592 255.808V257.664C38.5592 259.243 39.9032 260.331 42.5912 260.928C43.7219 261.163 44.8419 261.429 45.9512 261.728C47.0819 262.005 48.0419 262.496 48.8312 263.2C49.6206 263.883 50.0152 264.8 50.0152 265.952V267.648C50.0152 268.971 49.6206 270.027 48.8312 270.816C48.0632 271.605 47.0286 272 45.7272 272H41.8872C40.5859 272 39.5406 271.605 38.7512 270.816C37.9832 270.027 37.5992 268.971 37.5992 267.648ZM62.1547 272H59.4347C58.1334 272 57.0881 271.605 56.2987 270.816C55.5307 270.027 55.1467 268.971 55.1467 267.648V260.032C55.1467 258.709 55.5307 257.653 56.2987 256.864C57.0881 256.075 58.1334 255.68 59.4347 255.68H62.1547C63.4561 255.68 64.4907 256.075 65.2587 256.864C66.0481 257.653 66.4427 258.709 66.4427 260.032V267.648C66.4427 268.971 66.0481 270.027 65.2587 270.816C64.4907 271.605 63.4561 272 62.1547 272ZM59.4347 271.104H62.1547C63.2214 271.104 64.0427 270.795 64.6187 270.176C65.1947 269.557 65.4827 268.704 65.4827 267.616V260.064C65.4827 258.976 65.1947 258.123 64.6187 257.504C64.0427 256.885 63.2214 256.576 62.1547 256.576H59.4347C58.3681 256.576 57.5467 256.885 56.9707 257.504C56.3947 258.123 56.1067 258.976 56.1067 260.064V267.616C56.1067 268.704 56.3947 269.557 56.9707 270.176C57.5467 270.795 58.3681 271.104 59.4347 271.104ZM77.744 272H75.376C74.0747 272 73.0293 271.605 72.24 270.816C71.472 270.027 71.088 268.971 71.088 267.648V255.968C71.088 255.776 71.1733 255.68 71.344 255.68H71.792C71.9627 255.68 72.048 255.776 72.048 255.968V267.616C72.048 268.704 72.336 269.557 72.912 270.176C73.488 270.795 74.3093 271.104 75.376 271.104H77.68C78.7467 271.104 79.6107 270.816 80.272 270.24C80.9333 269.664 81.264 268.843 81.264 267.776V255.968C81.264 255.776 81.3493 255.68 81.52 255.68H81.968C82.1387 255.68 82.224 255.776 82.224 255.968V271.712C82.224 271.904 82.1387 272 81.968 272H81.52C81.3493 272 81.264 271.904 81.264 271.712V270.336H81.136C80.5387 271.445 79.408 272 77.744 272ZM88.0457 272H87.5977C87.4271 272 87.3417 271.904 87.3417 271.712V255.968C87.3417 255.776 87.4271 255.68 87.5977 255.68H88.0457C88.2164 255.68 88.3017 255.776 88.3017 255.968V257.344H88.4297C89.0271 256.235 90.1577 255.68 91.8217 255.68H94.1897C95.4911 255.68 96.5257 256.075 97.2937 256.864C98.0831 257.653 98.4777 258.709 98.4777 260.032V271.712C98.4777 271.904 98.3924 272 98.2217 272H97.7737C97.6031 272 97.5177 271.904 97.5177 271.712V260.064C97.5177 258.976 97.2297 258.123 96.6537 257.504C96.0777 256.885 95.2564 256.576 94.1897 256.576H91.8857C90.8191 256.576 89.9551 256.864 89.2937 257.44C88.6324 258.016 88.3017 258.837 88.3017 259.904V271.712C88.3017 271.904 88.2164 272 88.0457 272ZM109.771 272H107.403C106.102 272 105.057 271.605 104.267 270.816C103.499 270.027 103.115 268.971 103.115 267.648V260.032C103.115 258.709 103.499 257.653 104.267 256.864C105.057 256.075 106.102 255.68 107.403 255.68H109.771C111.435 255.68 112.566 256.235 113.163 257.344H113.291V249.792C113.291 249.6 113.377 249.504 113.547 249.504H113.995C114.166 249.504 114.251 249.6 114.251 249.792V271.712C114.251 271.904 114.166 272 113.995 272H113.547C113.377 272 113.291 271.904 113.291 271.712V270.336H113.163C112.566 271.445 111.435 272 109.771 272ZM113.291 267.776V259.904C113.291 258.837 112.961 258.016 112.299 257.44C111.638 256.864 110.774 256.576 109.707 256.576H107.403C106.337 256.576 105.515 256.885 104.939 257.504C104.363 258.123 104.075 258.976 104.075 260.064V267.616C104.075 268.704 104.363 269.557 104.939 270.176C105.515 270.795 106.337 271.104 107.403 271.104H109.707C110.774 271.104 111.638 270.816 112.299 270.24C112.961 269.664 113.291 268.843 113.291 267.776Z" fill="white"/>
</svg>
