<svg width="151" height="307" viewBox="0 0 151 307" fill="none" xmlns="http://www.w3.org/2000/svg">
<path d="M0 0H151V307H0V0Z" fill="#2590CD"/>
<circle cx="75.5" cy="150" r="32.5" fill="white"/>
<ellipse cx="75.487" cy="132.511" rx="8.06118" ry="8.26271" fill="#D9D9D9"/>
<path d="M98.595 141.324C98.595 145.888 94.9859 149.587 90.5338 149.587C86.0818 149.587 82.4727 145.888 82.4727 141.324C82.4727 136.761 86.0818 133.061 90.5338 133.061C94.9859 133.061 98.595 136.761 98.595 141.324Z" fill="#D9D9D9"/>
<path d="M98.5949 158.951C98.5949 163.515 94.9858 167.214 90.5337 167.214C86.0816 167.214 82.4725 163.515 82.4725 158.951C82.4725 154.388 86.0816 150.689 90.5337 150.689C94.9858 150.689 98.5949 154.388 98.5949 158.951Z" fill="#D9D9D9"/>
<ellipse cx="75.487" cy="167.765" rx="8.06118" ry="8.26271" fill="#D9D9D9"/>
<ellipse cx="60.4391" cy="141.324" rx="8.06118" ry="8.26271" fill="#D9D9D9"/>
<ellipse cx="60.4391" cy="158.951" rx="8.06118" ry="8.26271" fill="#D9D9D9"/>
<ellipse cx="75.487" cy="150.138" rx="8.06118" ry="8.26271" fill="#D9D9D9"/>
<rect x="27" y="68" width="97" height="40" rx="10" fill="#2590CD"/>
<path d="M34.304 251.264V250.24C34.304 249.941 34.4533 249.792 34.752 249.792H36.192C36.4907 249.792 36.64 249.941 36.64 250.24V251.072C36.64 252.992 37.5893 253.952 39.488 253.952H42.304C44.2027 253.952 45.152 252.971 45.152 251.008V249.92C45.152 248.384 43.8827 247.381 41.344 246.912C40.2773 246.72 39.2107 246.496 38.144 246.24C37.0773 245.984 36.1707 245.493 35.424 244.768C34.6773 244.021 34.304 243.008 34.304 241.728V240.16C34.304 238.688 34.72 237.536 35.552 236.704C36.4053 235.851 37.568 235.424 39.04 235.424H42.592C44.0427 235.424 45.1947 235.851 46.048 236.704C46.9013 237.536 47.328 238.688 47.328 240.16V240.96C47.328 241.28 47.1893 241.44 46.912 241.44H45.44C45.1627 241.44 45.024 241.28 45.024 240.96V240.384C45.024 238.443 44.0747 237.472 42.176 237.472H39.456C37.5573 237.472 36.608 238.485 36.608 240.512V241.792C36.608 242.88 37.3227 243.627 38.752 244.032C39.392 244.203 40.096 244.363 40.864 244.512C41.632 244.64 42.4 244.821 43.168 245.056C43.9573 245.269 44.672 245.547 45.312 245.888C45.952 246.208 46.464 246.709 46.848 247.392C47.2533 248.053 47.456 248.864 47.456 249.824V251.264C47.456 252.736 47.0293 253.899 46.176 254.752C45.3227 255.584 44.1707 256 42.72 256H39.04C37.5893 256 36.4373 255.584 35.584 254.752C34.7307 253.899 34.304 252.736 34.304 251.264ZM56.95 253.952H60.214C62.006 253.952 62.902 253.024 62.902 251.168V240.256C62.902 238.4 62.006 237.472 60.214 237.472H56.95C55.1793 237.472 54.294 238.4 54.294 240.256V251.168C54.294 253.024 55.1793 253.952 56.95 253.952ZM60.502 256H56.694C55.222 256 54.0593 255.584 53.206 254.752C52.374 253.92 51.958 252.757 51.958 251.264V240.16C51.958 238.667 52.374 237.504 53.206 236.672C54.0593 235.84 55.222 235.424 56.694 235.424H60.502C61.974 235.424 63.126 235.851 63.958 236.704C64.8113 237.536 65.238 238.688 65.238 240.16V251.264C65.238 252.736 64.8113 253.899 63.958 254.752C63.126 255.584 61.974 256 60.502 256ZM80.9095 235.424H82.3495C82.6482 235.424 82.7975 235.563 82.7975 235.84V251.264C82.7975 252.757 82.3815 253.92 81.5495 254.752C80.7175 255.584 79.5655 256 78.0935 256H74.5415C73.0695 256 71.9068 255.584 71.0535 254.752C70.2215 253.92 69.8055 252.757 69.8055 251.264V235.872C69.8055 235.573 69.9548 235.424 70.2535 235.424H71.6935C71.9922 235.424 72.1415 235.573 72.1415 235.872V251.168C72.1415 253.024 73.0268 253.952 74.7975 253.952H77.8055C79.5975 253.952 80.4935 253.024 80.4935 251.168V235.872C80.4935 235.573 80.6322 235.424 80.9095 235.424ZM89.5403 256H88.1323C87.8336 256 87.6843 255.851 87.6843 255.552V235.872C87.6843 235.573 87.8336 235.424 88.1323 235.424H89.4443C89.7003 235.424 89.8709 235.509 89.9563 235.68L98.7883 251.2H98.9163V235.872C98.9163 235.573 99.0656 235.424 99.3643 235.424H100.772C101.071 235.424 101.22 235.573 101.22 235.872V255.552C101.22 255.851 101.071 256 100.772 256H99.5883C99.3536 256 99.1296 255.861 98.9163 255.584L90.1163 240.224H89.9883V255.552C89.9883 255.851 89.8389 256 89.5403 256ZM108.934 253.952H114.31C116.102 253.952 116.998 253.024 116.998 251.168V240.256C116.998 238.4 116.102 237.472 114.31 237.472H108.934C108.721 237.472 108.614 237.568 108.614 237.76V253.664C108.614 253.856 108.721 253.952 108.934 253.952ZM106.278 255.552V235.872C106.278 235.573 106.427 235.424 106.726 235.424H114.598C116.07 235.424 117.222 235.851 118.054 236.704C118.907 237.536 119.334 238.688 119.334 240.16V251.264C119.334 252.736 118.907 253.899 118.054 254.752C117.222 255.584 116.07 256 114.598 256H106.726C106.427 256 106.278 255.851 106.278 255.552Z" fill="white"/>
</svg>
