<svg width="151" height="307" viewBox="0 0 151 307" fill="none" xmlns="http://www.w3.org/2000/svg">
<path d="M0 0H151V307V180.5L0 307V0Z" fill="#61CE84"/>
<circle cx="75.5" cy="150" r="32.5" fill="white"/>
<ellipse cx="75.487" cy="132.511" rx="8.06118" ry="8.26271" fill="#D9D9D9"/>
<path d="M98.595 141.324C98.595 145.888 94.9859 149.587 90.5338 149.587C86.0818 149.587 82.4727 145.888 82.4727 141.324C82.4727 136.761 86.0818 133.061 90.5338 133.061C94.9859 133.061 98.595 136.761 98.595 141.324Z" fill="#D9D9D9"/>
<path d="M98.5949 158.951C98.5949 163.515 94.9858 167.214 90.5337 167.214C86.0816 167.214 82.4725 163.515 82.4725 158.951C82.4725 154.388 86.0816 150.689 90.5337 150.689C94.9858 150.689 98.5949 154.388 98.5949 158.951Z" fill="#D9D9D9"/>
<ellipse cx="75.487" cy="167.765" rx="8.06118" ry="8.26271" fill="#D9D9D9"/>
<ellipse cx="60.4391" cy="141.324" rx="8.06118" ry="8.26271" fill="#D9D9D9"/>
<ellipse cx="60.4391" cy="158.951" rx="8.06118" ry="8.26271" fill="#D9D9D9"/>
<ellipse cx="75.487" cy="150.138" rx="8.06118" ry="8.26271" fill="#D9D9D9"/>
<rect x="54" y="213" width="97" height="40" rx="10" fill="#61CE84"/>
<path d="M64.88 238.648V237.368C64.88 237.176 64.9653 237.08 65.136 237.08H65.584C65.7547 237.08 65.84 237.176 65.84 237.368V238.616C65.84 239.704 66.128 240.557 66.704 241.176C67.28 241.795 68.1013 242.104 69.168 242.104H73.008C74.0747 242.104 74.896 241.795 75.472 241.176C76.048 240.557 76.336 239.704 76.336 238.616V237.016C76.336 236.013 75.9413 235.224 75.152 234.648C74.3627 234.051 73.4027 233.624 72.272 233.368C71.1627 233.091 70.0427 232.824 68.912 232.568C67.8027 232.291 66.8533 231.843 66.064 231.224C65.2747 230.605 64.88 229.763 64.88 228.696V226.776C64.88 225.453 65.264 224.397 66.032 223.608C66.8213 222.819 67.8667 222.424 69.168 222.424H73.008C74.3093 222.424 75.344 222.819 76.112 223.608C76.9013 224.397 77.296 225.453 77.296 226.776V227.736C77.296 227.928 77.2107 228.024 77.04 228.024H76.592C76.4213 228.024 76.336 227.928 76.336 227.736V226.808C76.336 225.72 76.048 224.867 75.472 224.248C74.896 223.629 74.0747 223.32 73.008 223.32H69.168C68.1013 223.32 67.28 223.629 66.704 224.248C66.128 224.867 65.84 225.72 65.84 226.808V228.664C65.84 230.243 67.184 231.331 69.872 231.928C71.0027 232.163 72.1227 232.429 73.232 232.728C74.3627 233.005 75.3227 233.496 76.112 234.2C76.9013 234.883 77.296 235.8 77.296 236.952V238.648C77.296 239.971 76.9013 241.027 76.112 241.816C75.344 242.605 74.3093 243 73.008 243H69.168C67.8667 243 66.8213 242.605 66.032 241.816C65.264 241.027 64.88 239.971 64.88 238.648ZM89.4355 243H86.7155C85.4142 243 84.3688 242.605 83.5795 241.816C82.8115 241.027 82.4275 239.971 82.4275 238.648V231.032C82.4275 229.709 82.8115 228.653 83.5795 227.864C84.3688 227.075 85.4142 226.68 86.7155 226.68H89.4355C90.7368 226.68 91.7715 227.075 92.5395 227.864C93.3288 228.653 93.7235 229.709 93.7235 231.032V238.648C93.7235 239.971 93.3288 241.027 92.5395 241.816C91.7715 242.605 90.7368 243 89.4355 243ZM86.7155 242.104H89.4355C90.5022 242.104 91.3235 241.795 91.8995 241.176C92.4755 240.557 92.7635 239.704 92.7635 238.616V231.064C92.7635 229.976 92.4755 229.123 91.8995 228.504C91.3235 227.885 90.5022 227.576 89.4355 227.576H86.7155C85.6488 227.576 84.8275 227.885 84.2515 228.504C83.6755 229.123 83.3875 229.976 83.3875 231.064V238.616C83.3875 239.704 83.6755 240.557 84.2515 241.176C84.8275 241.795 85.6488 242.104 86.7155 242.104ZM105.025 243H102.657C101.355 243 100.31 242.605 99.5208 241.816C98.7528 241.027 98.3688 239.971 98.3688 238.648V226.968C98.3688 226.776 98.4541 226.68 98.6248 226.68H99.0728C99.2434 226.68 99.3288 226.776 99.3288 226.968V238.616C99.3288 239.704 99.6168 240.557 100.193 241.176C100.769 241.795 101.59 242.104 102.657 242.104H104.961C106.027 242.104 106.891 241.816 107.553 241.24C108.214 240.664 108.545 239.843 108.545 238.776V226.968C108.545 226.776 108.63 226.68 108.801 226.68H109.249C109.419 226.68 109.505 226.776 109.505 226.968V242.712C109.505 242.904 109.419 243 109.249 243H108.801C108.63 243 108.545 242.904 108.545 242.712V241.336H108.417C107.819 242.445 106.689 243 105.025 243ZM115.327 243H114.879C114.708 243 114.623 242.904 114.623 242.712V226.968C114.623 226.776 114.708 226.68 114.879 226.68H115.327C115.497 226.68 115.583 226.776 115.583 226.968V228.344H115.711C116.308 227.235 117.439 226.68 119.103 226.68H121.47C122.772 226.68 123.807 227.075 124.575 227.864C125.364 228.653 125.759 229.709 125.759 231.032V242.712C125.759 242.904 125.673 243 125.503 243H125.055C124.884 243 124.799 242.904 124.799 242.712V231.064C124.799 229.976 124.511 229.123 123.935 228.504C123.359 227.885 122.537 227.576 121.47 227.576H119.167C118.1 227.576 117.236 227.864 116.575 228.44C115.913 229.016 115.583 229.837 115.583 230.904V242.712C115.583 242.904 115.497 243 115.327 243ZM137.052 243H134.684C133.383 243 132.338 242.605 131.548 241.816C130.78 241.027 130.396 239.971 130.396 238.648V231.032C130.396 229.709 130.78 228.653 131.548 227.864C132.338 227.075 133.383 226.68 134.684 226.68H137.052C138.716 226.68 139.847 227.235 140.444 228.344H140.572V220.792C140.572 220.6 140.658 220.504 140.828 220.504H141.276C141.447 220.504 141.532 220.6 141.532 220.792V242.712C141.532 242.904 141.447 243 141.276 243H140.828C140.658 243 140.572 242.904 140.572 242.712V241.336H140.444C139.847 242.445 138.716 243 137.052 243ZM140.572 238.776V230.904C140.572 229.837 140.242 229.016 139.58 228.44C138.919 227.864 138.055 227.576 136.988 227.576H134.684C133.618 227.576 132.796 227.885 132.22 228.504C131.644 229.123 131.356 229.976 131.356 231.064V238.616C131.356 239.704 131.644 240.557 132.22 241.176C132.796 241.795 133.618 242.104 134.684 242.104H136.988C138.055 242.104 138.919 241.816 139.58 241.24C140.242 240.664 140.572 239.843 140.572 238.776Z" fill="white"/>
</svg>
