<svg width="151" height="307" viewBox="0 0 151 307" fill="none" xmlns="http://www.w3.org/2000/svg">
<path d="M0 0H151V307V180.5L0 307V0Z" fill="#2590CD"/>
<circle cx="75.5" cy="150" r="32.5" fill="white"/>
<ellipse cx="75.487" cy="132.511" rx="8.06118" ry="8.26271" fill="#D9D9D9"/>
<path d="M98.595 141.324C98.595 145.888 94.9859 149.587 90.5338 149.587C86.0818 149.587 82.4727 145.888 82.4727 141.324C82.4727 136.761 86.0818 133.061 90.5338 133.061C94.9859 133.061 98.595 136.761 98.595 141.324Z" fill="#D9D9D9"/>
<path d="M98.5949 158.951C98.5949 163.515 94.9858 167.214 90.5337 167.214C86.0816 167.214 82.4725 163.515 82.4725 158.951C82.4725 154.388 86.0816 150.689 90.5337 150.689C94.9858 150.689 98.5949 154.388 98.5949 158.951Z" fill="#D9D9D9"/>
<ellipse cx="75.487" cy="167.765" rx="8.06118" ry="8.26271" fill="#D9D9D9"/>
<ellipse cx="60.4391" cy="141.324" rx="8.06118" ry="8.26271" fill="#D9D9D9"/>
<ellipse cx="60.4391" cy="158.951" rx="8.06118" ry="8.26271" fill="#D9D9D9"/>
<ellipse cx="75.487" cy="150.138" rx="8.06118" ry="8.26271" fill="#D9D9D9"/>
<rect x="27" y="68" width="97" height="40" rx="10" fill="#2590CD"/>
<path d="M32.304 73.264V72.24C32.304 71.9413 32.4533 71.792 32.752 71.792H34.192C34.4907 71.792 34.64 71.9413 34.64 72.24V73.072C34.64 74.992 35.5893 75.952 37.488 75.952H40.304C42.2027 75.952 43.152 74.9707 43.152 73.008V71.92C43.152 70.384 41.8827 69.3813 39.344 68.912C38.2773 68.72 37.2107 68.496 36.144 68.24C35.0773 67.984 34.1707 67.4933 33.424 66.768C32.6773 66.0213 32.304 65.008 32.304 63.728V62.16C32.304 60.688 32.72 59.536 33.552 58.704C34.4053 57.8507 35.568 57.424 37.04 57.424H40.592C42.0427 57.424 43.1947 57.8507 44.048 58.704C44.9013 59.536 45.328 60.688 45.328 62.16V62.96C45.328 63.28 45.1893 63.44 44.912 63.44H43.44C43.1627 63.44 43.024 63.28 43.024 62.96V62.384C43.024 60.4427 42.0747 59.472 40.176 59.472H37.456C35.5573 59.472 34.608 60.4853 34.608 62.512V63.792C34.608 64.88 35.3227 65.6267 36.752 66.032C37.392 66.2027 38.096 66.3627 38.864 66.512C39.632 66.64 40.4 66.8213 41.168 67.056C41.9573 67.2693 42.672 67.5467 43.312 67.888C43.952 68.208 44.464 68.7093 44.848 69.392C45.2533 70.0533 45.456 70.864 45.456 71.824V73.264C45.456 74.736 45.0293 75.8987 44.176 76.752C43.3227 77.584 42.1707 78 40.72 78H37.04C35.5893 78 34.4373 77.584 33.584 76.752C32.7307 75.8987 32.304 74.736 32.304 73.264ZM54.95 75.952H58.214C60.006 75.952 60.902 75.024 60.902 73.168V62.256C60.902 60.4 60.006 59.472 58.214 59.472H54.95C53.1793 59.472 52.294 60.4 52.294 62.256V73.168C52.294 75.024 53.1793 75.952 54.95 75.952ZM58.502 78H54.694C53.222 78 52.0593 77.584 51.206 76.752C50.374 75.92 49.958 74.7573 49.958 73.264V62.16C49.958 60.6667 50.374 59.504 51.206 58.672C52.0593 57.84 53.222 57.424 54.694 57.424H58.502C59.974 57.424 61.126 57.8507 61.958 58.704C62.8113 59.536 63.238 60.688 63.238 62.16V73.264C63.238 74.736 62.8113 75.8987 61.958 76.752C61.126 77.584 59.974 78 58.502 78ZM78.9095 57.424H80.3495C80.6482 57.424 80.7975 57.5627 80.7975 57.84V73.264C80.7975 74.7573 80.3815 75.92 79.5495 76.752C78.7175 77.584 77.5655 78 76.0935 78H72.5415C71.0695 78 69.9068 77.584 69.0535 76.752C68.2215 75.92 67.8055 74.7573 67.8055 73.264V57.872C67.8055 57.5733 67.9548 57.424 68.2535 57.424H69.6935C69.9922 57.424 70.1415 57.5733 70.1415 57.872V73.168C70.1415 75.024 71.0268 75.952 72.7975 75.952H75.8055C77.5975 75.952 78.4935 75.024 78.4935 73.168V57.872C78.4935 57.5733 78.6322 57.424 78.9095 57.424ZM87.5403 78H86.1323C85.8336 78 85.6843 77.8507 85.6843 77.552V57.872C85.6843 57.5733 85.8336 57.424 86.1323 57.424H87.4443C87.7003 57.424 87.8709 57.5093 87.9563 57.68L96.7883 73.2H96.9163V57.872C96.9163 57.5733 97.0656 57.424 97.3643 57.424H98.7723C99.0709 57.424 99.2203 57.5733 99.2203 57.872V77.552C99.2203 77.8507 99.0709 78 98.7723 78H97.5883C97.3536 78 97.1296 77.8613 96.9163 77.584L88.1163 62.224H87.9883V77.552C87.9883 77.8507 87.8389 78 87.5403 78ZM106.934 75.952H112.31C114.102 75.952 114.998 75.024 114.998 73.168V62.256C114.998 60.4 114.102 59.472 112.31 59.472H106.934C106.721 59.472 106.614 59.568 106.614 59.76V75.664C106.614 75.856 106.721 75.952 106.934 75.952ZM104.278 77.552V57.872C104.278 57.5733 104.427 57.424 104.726 57.424H112.598C114.07 57.424 115.222 57.8507 116.054 58.704C116.907 59.536 117.334 60.688 117.334 62.16V73.264C117.334 74.736 116.907 75.8987 116.054 76.752C115.222 77.584 114.07 78 112.598 78H104.726C104.427 78 104.278 77.8507 104.278 77.552Z" fill="white"/>
</svg>
