<svg width="151" height="307" viewBox="0 0 151 307" fill="none" xmlns="http://www.w3.org/2000/svg">
<path d="M0 0H151V307V180.5L0 307V0Z" fill="#2590CD"/>
<circle cx="75.5" cy="150" r="32.5" fill="white"/>
<ellipse cx="75.487" cy="132.511" rx="8.06118" ry="8.26271" fill="#D9D9D9"/>
<path d="M98.595 141.324C98.595 145.888 94.9859 149.587 90.5338 149.587C86.0818 149.587 82.4727 145.888 82.4727 141.324C82.4727 136.761 86.0818 133.061 90.5338 133.061C94.9859 133.061 98.595 136.761 98.595 141.324Z" fill="#D9D9D9"/>
<path d="M98.5949 158.951C98.5949 163.515 94.9858 167.214 90.5337 167.214C86.0816 167.214 82.4725 163.515 82.4725 158.951C82.4725 154.388 86.0816 150.689 90.5337 150.689C94.9858 150.689 98.5949 154.388 98.5949 158.951Z" fill="#D9D9D9"/>
<ellipse cx="75.487" cy="167.765" rx="8.06118" ry="8.26271" fill="#D9D9D9"/>
<ellipse cx="60.4391" cy="141.324" rx="8.06118" ry="8.26271" fill="#D9D9D9"/>
<ellipse cx="60.4391" cy="158.951" rx="8.06118" ry="8.26271" fill="#D9D9D9"/>
<ellipse cx="75.487" cy="150.138" rx="8.06118" ry="8.26271" fill="#D9D9D9"/>
<rect x="27" y="68" width="97" height="40" rx="10" fill="#2590CD"/>
<path d="M36.88 72.648V71.368C36.88 71.176 36.9653 71.08 37.136 71.08H37.584C37.7547 71.08 37.84 71.176 37.84 71.368V72.616C37.84 73.704 38.128 74.5573 38.704 75.176C39.28 75.7947 40.1013 76.104 41.168 76.104H45.008C46.0747 76.104 46.896 75.7947 47.472 75.176C48.048 74.5573 48.336 73.704 48.336 72.616V71.016C48.336 70.0133 47.9413 69.224 47.152 68.648C46.3627 68.0507 45.4027 67.624 44.272 67.368C43.1627 67.0907 42.0427 66.824 40.912 66.568C39.8027 66.2907 38.8533 65.8427 38.064 65.224C37.2747 64.6053 36.88 63.7627 36.88 62.696V60.776C36.88 59.4533 37.264 58.3973 38.032 57.608C38.8213 56.8187 39.8667 56.424 41.168 56.424H45.008C46.3093 56.424 47.344 56.8187 48.112 57.608C48.9013 58.3973 49.296 59.4533 49.296 60.776V61.736C49.296 61.928 49.2107 62.024 49.04 62.024H48.592C48.4213 62.024 48.336 61.928 48.336 61.736V60.808C48.336 59.72 48.048 58.8667 47.472 58.248C46.896 57.6293 46.0747 57.32 45.008 57.32H41.168C40.1013 57.32 39.28 57.6293 38.704 58.248C38.128 58.8667 37.84 59.72 37.84 60.808V62.664C37.84 64.2427 39.184 65.3307 41.872 65.928C43.0027 66.1627 44.1227 66.4293 45.232 66.728C46.3627 67.0053 47.3227 67.496 48.112 68.2C48.9013 68.8827 49.296 69.8 49.296 70.952V72.648C49.296 73.9707 48.9013 75.0267 48.112 75.816C47.344 76.6053 46.3093 77 45.008 77H41.168C39.8667 77 38.8213 76.6053 38.032 75.816C37.264 75.0267 36.88 73.9707 36.88 72.648ZM61.4355 77H58.7155C57.4142 77 56.3688 76.6053 55.5795 75.816C54.8115 75.0267 54.4275 73.9707 54.4275 72.648V65.032C54.4275 63.7093 54.8115 62.6533 55.5795 61.864C56.3688 61.0747 57.4142 60.68 58.7155 60.68H61.4355C62.7368 60.68 63.7715 61.0747 64.5395 61.864C65.3288 62.6533 65.7235 63.7093 65.7235 65.032V72.648C65.7235 73.9707 65.3288 75.0267 64.5395 75.816C63.7715 76.6053 62.7368 77 61.4355 77ZM58.7155 76.104H61.4355C62.5022 76.104 63.3235 75.7947 63.8995 75.176C64.4755 74.5573 64.7635 73.704 64.7635 72.616V65.064C64.7635 63.976 64.4755 63.1227 63.8995 62.504C63.3235 61.8853 62.5022 61.576 61.4355 61.576H58.7155C57.6488 61.576 56.8275 61.8853 56.2515 62.504C55.6755 63.1227 55.3875 63.976 55.3875 65.064V72.616C55.3875 73.704 55.6755 74.5573 56.2515 75.176C56.8275 75.7947 57.6488 76.104 58.7155 76.104ZM77.0248 77H74.6568C73.3554 77 72.3101 76.6053 71.5208 75.816C70.7528 75.0267 70.3688 73.9707 70.3688 72.648V60.968C70.3688 60.776 70.4541 60.68 70.6248 60.68H71.0728C71.2434 60.68 71.3288 60.776 71.3288 60.968V72.616C71.3288 73.704 71.6168 74.5573 72.1927 75.176C72.7688 75.7947 73.5901 76.104 74.6568 76.104H76.9608C78.0274 76.104 78.8914 75.816 79.5528 75.24C80.2141 74.664 80.5448 73.8427 80.5448 72.776V60.968C80.5448 60.776 80.6301 60.68 80.8008 60.68H81.2488C81.4194 60.68 81.5048 60.776 81.5048 60.968V76.712C81.5048 76.904 81.4194 77 81.2488 77H80.8008C80.6301 77 80.5448 76.904 80.5448 76.712V75.336H80.4168C79.8194 76.4453 78.6888 77 77.0248 77ZM87.3265 77H86.8785C86.7078 77 86.6225 76.904 86.6225 76.712V60.968C86.6225 60.776 86.7078 60.68 86.8785 60.68H87.3265C87.4972 60.68 87.5825 60.776 87.5825 60.968V62.344H87.7105C88.3078 61.2347 89.4385 60.68 91.1025 60.68H93.4705C94.7718 60.68 95.8065 61.0747 96.5745 61.864C97.3638 62.6533 97.7585 63.7093 97.7585 65.032V76.712C97.7585 76.904 97.6732 77 97.5025 77H97.0545C96.8838 77 96.7985 76.904 96.7985 76.712V65.064C96.7985 63.976 96.5105 63.1227 95.9345 62.504C95.3585 61.8853 94.5372 61.576 93.4705 61.576H91.1665C90.0998 61.576 89.2358 61.864 88.5745 62.44C87.9132 63.016 87.5825 63.8373 87.5825 64.904V76.712C87.5825 76.904 87.4972 77 87.3265 77ZM109.052 77H106.684C105.383 77 104.338 76.6053 103.548 75.816C102.78 75.0267 102.396 73.9707 102.396 72.648V65.032C102.396 63.7093 102.78 62.6533 103.548 61.864C104.338 61.0747 105.383 60.68 106.684 60.68H109.052C110.716 60.68 111.847 61.2347 112.444 62.344H112.572V54.792C112.572 54.6 112.658 54.504 112.828 54.504H113.276C113.447 54.504 113.532 54.6 113.532 54.792V76.712C113.532 76.904 113.447 77 113.276 77H112.828C112.658 77 112.572 76.904 112.572 76.712V75.336H112.444C111.847 76.4453 110.716 77 109.052 77ZM112.572 72.776V64.904C112.572 63.8373 112.242 63.016 111.58 62.44C110.919 61.864 110.055 61.576 108.988 61.576H106.684C105.618 61.576 104.796 61.8853 104.22 62.504C103.644 63.1227 103.356 63.976 103.356 65.064V72.616C103.356 73.704 103.644 74.5573 104.22 75.176C104.796 75.7947 105.618 76.104 106.684 76.104H108.988C110.055 76.104 110.919 75.816 111.58 75.24C112.242 74.664 112.572 73.8427 112.572 72.776Z" fill="white"/>
</svg>
