<svg width="241" height="54" viewBox="0 0 241 54" fill="none" xmlns="http://www.w3.org/2000/svg">
<rect y="1" width="141" height="53" fill="#1A1919"/>
<rect x="9" y="10" width="27" height="36" fill="#363636"/>
<rect x="42" y="10" width="25" height="36" fill="#363636"/>
<rect x="73" y="10" width="26" height="36" fill="#363636"/>
<rect x="105" y="10" width="26" height="36" fill="#363636"/>
<path d="M18.68 29.12V42H15.2V14H18.68V26.16H26.92V14H30.4V42H26.92V29.12H18.68ZM62.4016 35.2C62.4016 37.4667 61.7749 39.1733 60.5216 40.32C59.2949 41.44 57.5216 42 55.2016 42H53.6016C51.2816 42 49.4949 41.44 48.2416 40.32C47.0149 39.1733 46.4016 37.4667 46.4016 35.2V20.8C46.4016 18.5333 47.0149 16.84 48.2416 15.72C49.4949 14.5733 51.2816 14 53.6016 14H55.2016C57.5216 14 59.2949 14.5733 60.5216 15.72C61.7749 16.84 62.4016 18.5333 62.4016 20.8V35.2ZM58.9216 20.04C58.9216 19.2133 58.6149 18.5067 58.0016 17.92C57.3882 17.3333 56.5882 17.04 55.6016 17.04H53.2016C52.2149 17.04 51.4149 17.3333 50.8016 17.92C50.1882 18.5067 49.8816 19.2133 49.8816 20.04V35.96C49.8816 36.7867 50.1882 37.4933 50.8016 38.08C51.4149 38.6667 52.2149 38.96 53.2016 38.96H55.6016C56.5882 38.96 57.3882 38.6667 58.0016 38.08C58.6149 37.4933 58.9216 36.7867 58.9216 35.96V20.04ZM87.6031 32.6H84.2831L80.3631 16.88V42H77.3231V14H82.8831L86.0831 28.32L89.3231 14H94.7231V42H91.6031V16.88L87.6031 32.6ZM124.285 14V16.92H114.405V26.08H123.285V29H114.405V39.08H124.285V42H110.925V14H124.285Z" fill="black"/>
<path d="M58.29 8.72H60.35C60.6833 8.72 60.94 8.63 61.12 8.45C61.3 8.26333 61.39 8 61.39 7.66V6.95C61.39 6.24333 61.01 5.89 60.25 5.89H58.29C58.23 5.89 58.2 5.91667 58.2 5.97V8.64C58.2 8.69333 58.23 8.72 58.29 8.72ZM58.29 5.61H60.25C60.59 5.61 60.8533 5.52 61.04 5.34C61.2333 5.15333 61.33 4.89 61.33 4.55V3.91C61.33 3.57 61.24 3.31 61.06 3.13C60.88 2.94333 60.6233 2.85 60.29 2.85H58.29C58.23 2.85 58.2 2.87667 58.2 2.93V5.53C58.2 5.58333 58.23 5.61 58.29 5.61ZM57.9 8.91V2.66C57.9 2.6 57.9267 2.57 57.98 2.57H60.29C60.6967 2.57 61.02 2.69 61.26 2.93C61.5067 3.16333 61.63 3.48667 61.63 3.9V4.56C61.63 5.18 61.3367 5.57667 60.75 5.75C60.99 5.76333 61.2067 5.88 61.4 6.1C61.5933 6.32 61.69 6.6 61.69 6.94V7.67C61.69 8.08333 61.5667 8.41 61.32 8.65C61.08 8.88333 60.7567 9 60.35 9H57.98C57.9267 9 57.9 8.97 57.9 8.91ZM63.5595 9H63.4195C63.3661 9 63.3395 8.97 63.3395 8.91V2.66C63.3395 2.6 63.3661 2.57 63.4195 2.57H65.6695C66.0761 2.57 66.3995 2.69333 66.6395 2.94C66.8861 3.18667 67.0095 3.51667 67.0095 3.93V4.93C67.0095 5.30333 66.9095 5.61 66.7095 5.85C66.5095 6.08333 66.2395 6.22333 65.8995 6.27V6.31L67.1295 8.91C67.1628 8.97 67.1495 9 67.0895 9H66.9095C66.8561 9 66.8128 8.97 66.7795 8.91L65.5595 6.29H63.7295C63.6695 6.29 63.6395 6.31667 63.6395 6.37V8.91C63.6395 8.97 63.6128 9 63.5595 9ZM63.7295 6.01H65.6695C66.0028 6.01 66.2595 5.91333 66.4395 5.72C66.6195 5.52667 66.7095 5.26 66.7095 4.92V3.94C66.7095 3.6 66.6195 3.33333 66.4395 3.14C66.2595 2.94667 66.0028 2.85 65.6695 2.85H63.7295C63.6695 2.85 63.6395 2.87667 63.6395 2.93V5.93C63.6395 5.98333 63.6695 6.01 63.7295 6.01ZM71.7622 9H68.7222C68.6689 9 68.6422 8.97 68.6422 8.91V2.66C68.6422 2.6 68.6689 2.57 68.7222 2.57H71.7622C71.8222 2.57 71.8522 2.59667 71.8522 2.65V2.77C71.8522 2.82333 71.8222 2.85 71.7622 2.85H69.0322C68.9722 2.85 68.9422 2.87667 68.9422 2.93V5.5C68.9422 5.55333 68.9722 5.58 69.0322 5.58H71.5022C71.5622 5.58 71.5922 5.60667 71.5922 5.66V5.78C71.5922 5.83333 71.5622 5.86 71.5022 5.86H69.0322C68.9722 5.86 68.9422 5.88667 68.9422 5.94V8.64C68.9422 8.69333 68.9722 8.72 69.0322 8.72H71.7622C71.8222 8.72 71.8522 8.74667 71.8522 8.8V8.92C71.8522 8.97333 71.8222 9 71.7622 9ZM73.0666 9H72.9266C72.8666 9 72.8466 8.97 72.8666 8.91L74.9666 2.66C74.9866 2.6 75.02 2.57 75.0666 2.57H75.3066C75.3533 2.57 75.3866 2.6 75.4066 2.66L77.5066 8.91C77.5266 8.97 77.5066 9 77.4466 9H77.2966C77.25 9 77.2166 8.97 77.1966 8.91L76.5866 7.17H73.7866L73.1766 8.91C73.15 8.97 73.1133 9 73.0666 9ZM75.1666 2.95L73.8966 6.87H76.4766L75.2066 2.95H75.1666ZM81.2603 9H79.9603C79.5536 9 79.227 8.87667 78.9803 8.63C78.7403 8.38333 78.6203 8.05333 78.6203 7.64V3.93C78.6203 3.51667 78.7403 3.18667 78.9803 2.94C79.227 2.69333 79.5536 2.57 79.9603 2.57H81.2603C81.667 2.57 81.9903 2.69333 82.2303 2.94C82.477 3.18667 82.6003 3.51667 82.6003 3.93V4.43C82.6003 4.49 82.5736 4.52 82.5203 4.52H82.3803C82.327 4.52 82.3003 4.49 82.3003 4.43V3.94C82.3003 3.6 82.2103 3.33333 82.0303 3.14C81.8503 2.94667 81.5936 2.85 81.2603 2.85H79.9603C79.627 2.85 79.3703 2.94667 79.1903 3.14C79.0103 3.33333 78.9203 3.6 78.9203 3.94V7.63C78.9203 7.97 79.0103 8.23667 79.1903 8.43C79.3703 8.62333 79.627 8.72 79.9603 8.72H81.2603C81.5936 8.72 81.8503 8.62333 82.0303 8.43C82.2103 8.23667 82.3003 7.97 82.3003 7.63V7.14C82.3003 7.08 82.327 7.05 82.3803 7.05H82.5203C82.5736 7.05 82.6003 7.08 82.6003 7.14V7.64C82.6003 8.05333 82.477 8.38333 82.2303 8.63C81.9903 8.87667 81.667 9 81.2603 9ZM84.37 9H84.23C84.1767 9 84.15 8.97 84.15 8.91V2.66C84.15 2.6 84.1767 2.57 84.23 2.57H84.37C84.4233 2.57 84.45 2.6 84.45 2.66V5.5C84.45 5.55333 84.48 5.58 84.54 5.58H87.64C87.7 5.58 87.73 5.55333 87.73 5.5V2.66C87.73 2.6 87.7567 2.57 87.81 2.57H87.95C88.0033 2.57 88.03 2.6 88.03 2.66V8.91C88.03 8.97 88.0033 9 87.95 9H87.81C87.7567 9 87.73 8.97 87.73 8.91V5.94C87.73 5.88667 87.7 5.86 87.64 5.86H84.54C84.48 5.86 84.45 5.88667 84.45 5.94V8.91C84.45 8.97 84.4233 9 84.37 9ZM92.2463 9H92.1063C92.0463 9 92.0263 8.97 92.0463 8.91L94.1463 2.66C94.1663 2.6 94.1997 2.57 94.2463 2.57H94.4863C94.533 2.57 94.5663 2.6 94.5863 2.66L96.6863 8.91C96.7063 8.97 96.6863 9 96.6263 9H96.4763C96.4297 9 96.3963 8.97 96.3763 8.91L95.7663 7.17H92.9663L92.3563 8.91C92.3297 8.97 92.293 9 92.2463 9ZM94.3463 2.95L93.0763 6.87H95.6563L94.3863 2.95H94.3463ZM98.12 9H97.98C97.9267 9 97.9 8.97 97.9 8.91V2.66C97.9 2.6 97.9267 2.57 97.98 2.57H98.12C98.1533 2.57 98.1767 2.58333 98.19 2.61L101.54 8.28H101.58V2.66C101.58 2.6 101.607 2.57 101.66 2.57H101.8C101.853 2.57 101.88 2.6 101.88 2.66V8.91C101.88 8.97 101.853 9 101.8 9H101.7C101.653 9 101.613 8.97333 101.58 8.92L98.24 3.27H98.2V8.91C98.2 8.97 98.1733 9 98.12 9ZM104.031 2.66V8.91C104.031 8.97 104.005 9 103.951 9H103.811C103.758 9 103.731 8.97 103.731 8.91V2.66C103.731 2.6 103.758 2.57 103.811 2.57H103.951C104.005 2.57 104.031 2.6 104.031 2.66ZM110.599 2.57H110.879C110.932 2.57 110.959 2.6 110.959 2.66V8.91C110.959 8.97 110.932 9 110.879 9H110.739C110.685 9 110.659 8.97 110.659 8.91V3.15H110.619L108.639 7.52C108.612 7.57333 108.572 7.6 108.519 7.6H108.329C108.275 7.6 108.235 7.57333 108.209 7.52L106.219 3.14H106.179V8.91C106.179 8.97 106.152 9 106.099 9H105.959C105.905 9 105.879 8.97 105.879 8.91V2.66C105.879 2.6 105.905 2.57 105.959 2.57H106.239C106.272 2.57 106.295 2.58333 106.309 2.61L108.399 7.23H108.439L110.529 2.61C110.542 2.58333 110.565 2.57 110.599 2.57ZM112.373 9H112.233C112.173 9 112.153 8.97 112.173 8.91L114.273 2.66C114.293 2.6 114.327 2.57 114.373 2.57H114.613C114.66 2.57 114.693 2.6 114.713 2.66L116.813 8.91C116.833 8.97 116.813 9 116.753 9H116.603C116.557 9 116.523 8.97 116.503 8.91L115.893 7.17H113.093L112.483 8.91C112.457 8.97 112.42 9 112.373 9ZM114.473 2.95L113.203 6.87H115.783L114.513 2.95H114.473ZM119.267 9H119.127C119.074 9 119.047 8.97 119.047 8.91V2.93C119.047 2.87667 119.017 2.85 118.957 2.85H117.417C117.357 2.85 117.327 2.82333 117.327 2.77V2.65C117.327 2.59667 117.357 2.57 117.417 2.57H120.977C121.037 2.57 121.067 2.59667 121.067 2.65V2.77C121.067 2.82333 121.037 2.85 120.977 2.85H119.437C119.377 2.85 119.347 2.87667 119.347 2.93V8.91C119.347 8.97 119.32 9 119.267 9ZM122.518 2.66V8.91C122.518 8.97 122.491 9 122.438 9H122.298C122.244 9 122.218 8.97 122.218 8.91V2.66C122.218 2.6 122.244 2.57 122.298 2.57H122.438C122.491 2.57 122.518 2.6 122.518 2.66ZM125.605 8.72H126.855C127.188 8.72 127.445 8.62333 127.625 8.43C127.805 8.23667 127.895 7.97 127.895 7.63V3.94C127.895 3.6 127.805 3.33333 127.625 3.14C127.445 2.94667 127.188 2.85 126.855 2.85H125.605C125.272 2.85 125.015 2.94667 124.835 3.14C124.655 3.33333 124.565 3.6 124.565 3.94V7.63C124.565 7.97 124.655 8.23667 124.835 8.43C125.015 8.62333 125.272 8.72 125.605 8.72ZM126.855 9H125.605C125.198 9 124.872 8.87667 124.625 8.63C124.385 8.38333 124.265 8.05333 124.265 7.64V3.93C124.265 3.51667 124.385 3.18667 124.625 2.94C124.872 2.69333 125.198 2.57 125.605 2.57H126.855C127.262 2.57 127.585 2.69333 127.825 2.94C128.072 3.18667 128.195 3.51667 128.195 3.93V7.64C128.195 8.05333 128.072 8.38333 127.825 8.63C127.585 8.87667 127.262 9 126.855 9ZM130.112 9H129.972C129.919 9 129.892 8.97 129.892 8.91V2.66C129.892 2.6 129.919 2.57 129.972 2.57H130.112C130.146 2.57 130.169 2.58333 130.182 2.61L133.532 8.28H133.572V2.66C133.572 2.6 133.599 2.57 133.652 2.57H133.792C133.846 2.57 133.872 2.6 133.872 2.66V8.91C133.872 8.97 133.846 9 133.792 9H133.692C133.646 9 133.606 8.97333 133.572 8.92L130.232 3.27H130.192V8.91C130.192 8.97 130.166 9 130.112 9ZM135.673 7.64V7.24C135.673 7.18 135.7 7.15 135.753 7.15H135.893C135.947 7.15 135.973 7.18 135.973 7.24V7.63C135.973 7.97 136.063 8.23667 136.243 8.43C136.423 8.62333 136.68 8.72 137.013 8.72H138.213C138.547 8.72 138.803 8.62333 138.983 8.43C139.163 8.23667 139.253 7.97 139.253 7.63V7.13C139.253 6.81667 139.13 6.57 138.883 6.39C138.637 6.20333 138.337 6.07 137.983 5.99C137.637 5.90333 137.287 5.82 136.933 5.74C136.587 5.65333 136.29 5.51333 136.043 5.32C135.797 5.12667 135.673 4.86333 135.673 4.53V3.93C135.673 3.51667 135.793 3.18667 136.033 2.94C136.28 2.69333 136.607 2.57 137.013 2.57H138.213C138.62 2.57 138.943 2.69333 139.183 2.94C139.43 3.18667 139.553 3.51667 139.553 3.93V4.23C139.553 4.29 139.527 4.32 139.473 4.32H139.333C139.28 4.32 139.253 4.29 139.253 4.23V3.94C139.253 3.6 139.163 3.33333 138.983 3.14C138.803 2.94667 138.547 2.85 138.213 2.85H137.013C136.68 2.85 136.423 2.94667 136.243 3.14C136.063 3.33333 135.973 3.6 135.973 3.94V4.52C135.973 5.01333 136.393 5.35333 137.233 5.54C137.587 5.61333 137.937 5.69667 138.283 5.79C138.637 5.87667 138.937 6.03 139.183 6.25C139.43 6.46333 139.553 6.75 139.553 7.11V7.64C139.553 8.05333 139.43 8.38333 139.183 8.63C138.943 8.87667 138.62 9 138.213 9H137.013C136.607 9 136.28 8.87667 136.033 8.63C135.793 8.38333 135.673 8.05333 135.673 7.64Z" fill="white"/>
</svg>
