<svg width="445" height="79" viewBox="0 0 445 79" fill="none" xmlns="http://www.w3.org/2000/svg">
<g filter="url(#filter0_d_145_1271)">
<rect x="4" width="437" height="71" rx="10" fill="#1A1919"/>
</g>
<path d="M30.848 47H30.4C30.2293 47 30.144 46.904 30.144 46.712V27.576C30.144 27.4053 30.048 27.32 29.856 27.32H24.928C24.736 27.32 24.64 27.2347 24.64 27.064V26.68C24.64 26.5093 24.736 26.424 24.928 26.424H36.32C36.512 26.424 36.608 26.5093 36.608 26.68V27.064C36.608 27.2347 36.512 27.32 36.32 27.32H31.392C31.2 27.32 31.104 27.4053 31.104 27.576V46.712C31.104 46.904 31.0187 47 30.848 47ZM50.338 47H43.778C42.4767 47 41.4313 46.6053 40.642 45.816C39.874 45.0267 39.49 43.9707 39.49 42.648V35.032C39.49 33.7093 39.874 32.6533 40.642 31.864C41.4313 31.0747 42.4767 30.68 43.778 30.68H46.594C47.8953 30.68 48.93 31.0747 49.698 31.864C50.4873 32.6533 50.882 33.7093 50.882 35.032V39.096C50.882 39.3093 50.786 39.416 50.594 39.416H40.738C40.546 39.416 40.45 39.5013 40.45 39.672V42.616C40.45 43.704 40.738 44.5573 41.314 45.176C41.89 45.7947 42.7113 46.104 43.778 46.104H50.338C50.53 46.104 50.626 46.1893 50.626 46.36V46.744C50.626 46.9147 50.53 47 50.338 47ZM40.738 38.52H49.634C49.826 38.52 49.922 38.4347 49.922 38.264V35.064C49.922 33.976 49.634 33.1227 49.058 32.504C48.482 31.8853 47.6607 31.576 46.594 31.576H43.778C42.7113 31.576 41.89 31.8853 41.314 32.504C40.738 33.1227 40.45 33.976 40.45 35.064V38.264C40.45 38.4347 40.546 38.52 40.738 38.52ZM54.6008 47H53.9608C53.7688 47 53.7368 46.904 53.8648 46.712L58.6648 38.68L54.1528 30.968C54.0248 30.776 54.0568 30.68 54.2488 30.68H54.8568C55.0061 30.68 55.1448 30.776 55.2728 30.968L59.3048 37.944H59.4328L63.3688 30.968C63.4968 30.776 63.6354 30.68 63.7848 30.68H64.3928C64.5848 30.68 64.6168 30.776 64.4888 30.968L60.0408 38.616L64.8728 46.712C65.0008 46.904 64.9688 47 64.7768 47H64.0408C63.9554 47 63.8488 46.904 63.7208 46.712L59.4328 39.32H59.3048L55.0168 46.712C54.8888 46.904 54.7501 47 54.6008 47ZM69.1413 31.576H67.0293C66.8373 31.576 66.7413 31.4907 66.7413 31.32V30.936C66.7413 30.7653 66.8373 30.68 67.0293 30.68H69.1413C69.3333 30.68 69.4293 30.5947 69.4293 30.424V27.928C69.4293 27.736 69.5146 27.64 69.6853 27.64H70.1333C70.3039 27.64 70.3893 27.736 70.3893 27.928V30.424C70.3893 30.5947 70.4853 30.68 70.6773 30.68H74.8053C74.9973 30.68 75.0933 30.7653 75.0933 30.936V31.32C75.0933 31.4907 74.9973 31.576 74.8053 31.576H70.6773C70.4853 31.576 70.3893 31.6613 70.3893 31.832V42.712C70.3893 43.7787 70.6986 44.6107 71.3173 45.208C71.9573 45.8053 72.8213 46.104 73.9093 46.104H75.1253C75.3173 46.104 75.4133 46.1893 75.4133 46.36V46.744C75.4133 46.9147 75.3173 47 75.1253 47H73.9093C72.5866 47 71.5093 46.616 70.6773 45.848C69.8453 45.08 69.4293 44.0453 69.4293 42.744V31.832C69.4293 31.6613 69.3333 31.576 69.1413 31.576Z" fill="white"/>
<defs>
<filter id="filter0_d_145_1271" x="0" y="0" width="445" height="79" filterUnits="userSpaceOnUse" color-interpolation-filters="sRGB">
<feFlood flood-opacity="0" result="BackgroundImageFix"/>
<feColorMatrix in="SourceAlpha" type="matrix" values="0 0 0 0 0 0 0 0 0 0 0 0 0 0 0 0 0 0 127 0" result="hardAlpha"/>
<feOffset dy="4"/>
<feGaussianBlur stdDeviation="2"/>
<feComposite in2="hardAlpha" operator="out"/>
<feColorMatrix type="matrix" values="0 0 0 0 0 0 0 0 0 0 0 0 0 0 0 0 0 0 0.25 0"/>
<feBlend mode="normal" in2="BackgroundImageFix" result="effect1_dropShadow_145_1271"/>
<feBlend mode="normal" in="SourceGraphic" in2="effect1_dropShadow_145_1271" result="shape"/>
</filter>
</defs>
</svg>
