<svg width="445" height="99" viewBox="0 0 445 99" fill="none" xmlns="http://www.w3.org/2000/svg">
<g filter="url(#filter0_d_145_1261)">
<rect x="4" width="437" height="71" rx="10" fill="#1A1919"/>
</g>
<path d="M32.288 47H31.52C31.3707 47 31.264 46.904 31.2 46.712L24.992 26.712C24.928 26.52 24.992 26.424 25.184 26.424H25.664C25.8133 26.424 25.92 26.52 25.984 26.712L31.84 45.592H31.968L37.824 26.712C37.888 26.52 37.9947 26.424 38.144 26.424H38.624C38.816 26.424 38.88 26.52 38.816 26.712L32.608 46.712C32.544 46.904 32.4373 47 32.288 47ZM42.5325 28.024V24.856C42.5325 24.664 42.6178 24.568 42.7885 24.568H43.2365C43.4072 24.568 43.4925 24.664 43.4925 24.856V28.024C43.4925 28.216 43.4072 28.312 43.2365 28.312H42.7885C42.6178 28.312 42.5325 28.216 42.5325 28.024ZM42.5325 46.712V30.968C42.5325 30.776 42.6178 30.68 42.7885 30.68H43.2365C43.4072 30.68 43.4925 30.776 43.4925 30.968V46.712C43.4925 46.904 43.4072 47 43.2365 47H42.7885C42.6178 47 42.5325 46.904 42.5325 46.712ZM53.8348 47H48.3948C48.2028 47 48.1068 46.9147 48.1068 46.744V46.36C48.1068 46.1893 48.2028 46.104 48.3948 46.104H53.8348C55.9894 46.104 57.0668 45.2507 57.0668 43.544V42.584C57.0668 41.7947 56.9281 41.1547 56.6508 40.664C56.3734 40.1733 55.8721 39.8 55.1468 39.544L50.9227 38.072C49.8134 37.688 49.0348 37.2187 48.5868 36.664C48.1601 36.088 47.9468 35.288 47.9468 34.264C47.9468 31.8747 49.2481 30.68 51.8508 30.68H57.0028C57.1948 30.68 57.2908 30.7653 57.2908 30.936V31.32C57.2908 31.4907 57.1948 31.576 57.0028 31.576H51.8508C50.8694 31.576 50.1334 31.8 49.6428 32.248C49.1734 32.696 48.9388 33.208 48.9388 33.784V34.648C48.9388 35.3307 49.1094 35.864 49.4508 36.248C49.8134 36.6107 50.3681 36.92 51.1148 37.176L55.3068 38.68C56.4374 39 57.1734 39.5227 57.5148 40.248C57.8561 40.9733 58.0268 41.9867 58.0268 43.288C58.0268 44.5893 57.6854 45.5387 57.0028 46.136C56.3201 46.712 55.2641 47 53.8348 47ZM68.9935 47H66.6255C65.3242 47 64.2788 46.6053 63.4895 45.816C62.7215 45.0267 62.3375 43.9707 62.3375 42.648V30.968C62.3375 30.776 62.4228 30.68 62.5935 30.68H63.0415C63.2122 30.68 63.2975 30.776 63.2975 30.968V42.616C63.2975 43.704 63.5855 44.5573 64.1615 45.176C64.7375 45.7947 65.5588 46.104 66.6255 46.104H68.9295C69.9962 46.104 70.8602 45.816 71.5215 45.24C72.1828 44.664 72.5135 43.8427 72.5135 42.776V30.968C72.5135 30.776 72.5988 30.68 72.7695 30.68H73.2175C73.3882 30.68 73.4735 30.776 73.4735 30.968V46.712C73.4735 46.904 73.3882 47 73.2175 47H72.7695C72.5988 47 72.5135 46.904 72.5135 46.712V45.336H72.3855C71.7882 46.4453 70.6575 47 68.9935 47ZM84.9273 47H82.5593C81.2579 47 80.2126 46.6053 79.4233 45.816C78.6553 45.0267 78.2713 43.9707 78.2713 42.648V35.032C78.2713 33.7093 78.6553 32.6533 79.4233 31.864C80.2126 31.0747 81.2579 30.68 82.5593 30.68H89.1513C89.3219 30.68 89.4073 30.776 89.4073 30.968V46.712C89.4073 46.904 89.3219 47 89.1513 47H88.7033C88.5326 47 88.4473 46.904 88.4473 46.712V45.336H88.3193C87.7219 46.4453 86.5913 47 84.9273 47ZM88.4473 42.776V31.832C88.4473 31.6613 88.3513 31.576 88.1593 31.576H82.5593C81.4926 31.576 80.6713 31.8853 80.0953 32.504C79.5193 33.1227 79.2313 33.976 79.2313 35.064V42.616C79.2313 43.704 79.5193 44.5573 80.0953 45.176C80.6713 45.7947 81.4926 46.104 82.5593 46.104H84.8633C85.9299 46.104 86.7939 45.816 87.4553 45.24C88.1166 44.664 88.4473 43.8427 88.4473 42.776ZM95.3928 47H94.9448C94.7741 47 94.6888 46.904 94.6888 46.712V24.792C94.6888 24.6 94.7741 24.504 94.9448 24.504H95.3928C95.5634 24.504 95.6488 24.6 95.6488 24.792V46.712C95.6488 46.904 95.5634 47 95.3928 47Z" fill="white"/>
<defs>
<filter id="filter0_d_145_1261" x="0" y="0" width="445" height="79" filterUnits="userSpaceOnUse" color-interpolation-filters="sRGB">
<feFlood flood-opacity="0" result="BackgroundImageFix"/>
<feColorMatrix in="SourceAlpha" type="matrix" values="0 0 0 0 0 0 0 0 0 0 0 0 0 0 0 0 0 0 127 0" result="hardAlpha"/>
<feOffset dy="4"/>
<feGaussianBlur stdDeviation="2"/>
<feComposite in2="hardAlpha" operator="out"/>
<feColorMatrix type="matrix" values="0 0 0 0 0 0 0 0 0 0 0 0 0 0 0 0 0 0 0.25 0"/>
<feBlend mode="normal" in2="BackgroundImageFix" result="effect1_dropShadow_145_1261"/>
<feBlend mode="normal" in="SourceGraphic" in2="effect1_dropShadow_145_1261" result="shape"/>
</filter>
</defs>
</svg>
