<svg width="900" height="900" viewBox="0 0 900 900" fill="none" xmlns="http://www.w3.org/2000/svg">
<path d="M445.388 781.126C445.355 781.146 445.318 781.156 445.278 781.156C445.212 781.143 445.158 781.106 445.118 781.046L445.098 781.006V777.686V774.366L445.118 774.326C445.158 774.266 445.212 774.23 445.278 774.216C445.318 774.216 445.355 774.226 445.388 774.246C445.428 774.26 445.455 774.286 445.468 774.326L445.498 774.376V775.936V777.486H447.718H449.938L449.988 777.516C450.028 777.53 450.055 777.556 450.068 777.596C450.102 777.656 450.102 777.716 450.068 777.776C450.055 777.816 450.028 777.843 449.988 777.856L449.938 777.886H447.718H445.498V779.436V780.996L445.468 781.046C445.455 781.086 445.428 781.113 445.388 781.126Z" fill="#D9D9D9"/>
<path d="M431.126 781.786C431.029 781.834 430.944 781.802 430.871 781.691C430.847 781.643 430.355 779.997 429.396 776.753C428.425 773.468 427.941 771.812 427.942 771.785C427.944 771.759 427.956 771.726 427.978 771.687L428.052 771.632L428.062 771.622C428.159 771.575 428.244 771.607 428.317 771.718C428.341 771.766 428.833 773.412 429.792 776.656C430.757 779.921 431.238 781.576 431.236 781.623C431.233 781.663 431.221 781.695 431.2 781.721L431.126 781.786Z" fill="#D9D9D9"/>
<path d="M407.651 779.208C407.529 779.213 407.422 779.183 407.329 779.118C407.179 779.026 407.118 778.871 407.144 778.653C407.168 778.454 407.252 778.092 407.397 777.565C407.442 777.41 407.511 777.149 407.602 776.784L407.613 776.695L407.551 776.708C407.525 776.704 407.422 776.719 407.244 776.751C407.003 776.795 406.813 776.812 406.673 776.802C406.548 776.787 406.454 776.755 406.393 776.708C406.256 776.617 406.196 776.475 406.212 776.283C406.234 776.104 406.326 775.981 406.489 775.913C406.56 775.882 406.658 775.874 406.784 775.889C406.922 775.912 407.103 775.975 407.325 776.076C407.491 776.15 407.587 776.188 407.614 776.191L407.671 776.218L407.667 776.168C407.665 776.073 407.659 775.871 407.65 775.561C407.613 775.14 407.617 774.748 407.661 774.384C407.811 773.146 408.029 771.853 408.313 770.504C408.366 770.229 408.404 770.082 408.427 770.065L408.46 770.038L408.649 770.061L408.837 770.084L408.863 770.118C408.881 770.14 408.883 770.291 408.869 770.572C408.823 771.95 408.725 773.257 408.575 774.495C408.531 774.859 408.441 775.241 408.305 775.641C408.222 775.94 408.168 776.134 408.143 776.226L408.127 776.274L408.189 776.261C408.216 776.265 408.318 776.25 408.497 776.218C408.737 776.174 408.927 776.156 409.067 776.167C409.193 776.182 409.286 776.213 409.348 776.261C409.485 776.352 409.545 776.493 409.528 776.686C409.506 776.865 409.414 776.988 409.252 777.055C409.181 777.087 409.082 777.095 408.956 777.08C408.818 777.056 408.638 776.994 408.415 776.893C408.249 776.819 408.153 776.781 408.127 776.778L408.07 776.75L408.059 776.84C408.06 777.216 408.065 777.485 408.072 777.647C408.098 778.369 408.08 778.797 408.017 778.93C407.958 779.084 407.836 779.177 407.651 779.208Z" fill="#D9D9D9"/>
<path d="M368.358 771.874C368.316 771.877 368.263 771.871 368.198 771.855C367.829 771.763 367.65 771.458 367.661 770.939C367.663 770.624 367.725 770.399 367.848 770.264C367.97 770.13 368.14 770.082 368.356 770.122C368.551 770.17 368.679 770.291 368.741 770.485C368.767 770.574 368.768 770.667 368.744 770.764C368.72 770.861 368.676 770.943 368.612 771.009C368.515 771.123 368.379 771.175 368.203 771.166C368.162 771.162 368.14 771.171 368.135 771.19L368.159 771.258L368.167 771.27C368.212 771.391 368.302 771.431 368.436 771.388C368.465 771.382 368.493 771.368 368.519 771.347C368.685 771.23 368.886 770.857 369.123 770.229C369.218 769.984 369.337 769.653 369.481 769.236C369.911 768.017 370.473 766.638 371.168 765.1C371.272 764.871 371.369 764.658 371.459 764.461C371.825 763.782 372.238 763.427 372.699 763.397C372.842 763.398 372.967 763.422 373.072 763.469C373.352 763.613 373.487 763.904 373.476 764.341C373.474 764.656 373.411 764.881 373.289 765.016C373.167 765.15 372.997 765.198 372.78 765.158C372.586 765.11 372.458 764.989 372.396 764.795C372.37 764.706 372.368 764.613 372.392 764.516C372.416 764.419 372.46 764.337 372.525 764.271C372.621 764.157 372.758 764.105 372.934 764.114C372.974 764.117 372.997 764.109 373.002 764.09C372.992 764.019 372.961 763.963 372.909 763.923C372.865 763.878 372.803 763.866 372.722 763.887C372.628 763.905 372.526 763.986 372.415 764.13C372.27 764.356 372.013 764.996 371.644 766.052C371.206 767.303 370.651 768.663 369.981 770.132C369.717 770.733 369.495 771.145 369.316 771.369C369.307 771.38 369.297 771.391 369.287 771.403C369.147 771.553 369.029 771.658 368.932 771.717C368.766 771.834 368.575 771.886 368.358 771.874Z" fill="#D9D9D9"/>
<path d="M353.553 766.536L353.509 766.543L351.046 765.774L348.583 765.005L348.554 764.964C348.532 764.922 348.518 764.89 348.511 764.867L348.504 764.823L349.347 762.111L350.191 759.399L350.222 759.367C350.278 759.321 350.339 759.302 350.407 759.309C350.445 759.321 350.477 759.342 350.503 759.371C350.537 759.396 350.555 759.429 350.556 759.471L350.569 759.528L349.765 762.116L348.96 764.703L351.174 765.395L353.389 766.086L354.194 763.498L355.002 760.901L355.032 760.869C355.088 760.824 355.15 760.804 355.218 760.812C355.256 760.824 355.288 760.844 355.314 760.873C355.348 760.898 355.366 760.931 355.367 760.973L355.38 761.03L354.534 763.751L353.681 766.46L353.641 766.49C353.622 766.505 353.593 766.52 353.553 766.536Z" fill="#D9D9D9"/>
<path d="M330.28 760.113C330.242 760.12 330.204 760.116 330.167 760.102C330.109 760.066 330.072 760.012 330.056 759.942L330.052 759.897L331.726 755.474L333.397 751.059L332.499 750.718C331.901 750.491 331.592 750.366 331.572 750.344C331.534 750.294 331.515 750.241 331.515 750.184C331.52 750.15 331.532 750.119 331.55 750.09C331.588 750.047 331.637 750.02 331.699 750.008C331.729 750.005 332.08 750.131 332.753 750.387L333.763 750.771L333.799 750.816C333.832 750.843 333.847 750.877 333.845 750.92L333.856 750.977L332.142 755.504L330.429 760.03L330.383 760.066C330.357 760.099 330.322 760.114 330.28 760.113Z" fill="#D9D9D9"/>
<path d="M313.231 752.991C313.124 753.001 313.054 752.937 313.021 752.798L313.02 752.753L315.007 748.329L316.994 743.905L317.029 743.876C317.061 743.854 317.091 743.843 317.121 743.841C317.154 743.834 317.191 743.84 317.234 743.859C317.276 743.878 317.306 743.903 317.322 743.932C317.341 743.955 317.352 743.986 317.357 744.024L317.359 744.069L315.367 748.503L313.367 752.932L313.323 752.956L313.231 752.991Z" fill="#D9D9D9"/>
<path d="M296.796 745.028C296.773 745.03 296.436 744.861 295.787 744.519L294.822 744.012L294.801 743.967C294.787 743.922 294.779 743.887 294.776 743.863L294.777 743.819L297.027 739.522L299.278 735.226L299.314 735.2C299.377 735.165 299.441 735.158 299.507 735.177C299.542 735.196 299.57 735.221 299.59 735.255C299.619 735.285 299.63 735.321 299.624 735.363L299.627 735.421L297.437 739.602L295.247 743.783L296.097 744.23C296.663 744.528 296.952 744.688 296.964 744.709C297.001 744.766 297.016 744.823 297.009 744.88C297 744.912 296.984 744.942 296.963 744.968C296.921 745.006 296.865 745.026 296.796 745.028Z" fill="#D9D9D9"/>
<path d="M275.954 733.215C275.916 733.215 275.879 733.205 275.845 733.184C275.795 733.138 275.768 733.079 275.765 733.007L275.768 732.962L278.274 728.81L280.779 724.657L280.817 724.633C280.851 724.615 280.883 724.607 280.913 724.609L280.963 724.604L281.9 725.161C282.539 725.547 282.871 725.772 282.896 725.834C282.905 725.87 282.903 725.905 282.892 725.937C282.88 725.969 282.863 725.997 282.84 726.022C282.796 726.058 282.739 726.074 282.67 726.071C282.646 726.072 282.361 725.907 281.813 725.576L280.992 725.078L278.554 729.12L276.116 733.161L276.064 733.188C276.032 733.216 275.995 733.225 275.954 733.215Z" fill="#D9D9D9"/>
<path d="M262.353 722.544C262.246 722.535 262.189 722.459 262.182 722.316L262.188 722.272L263.731 720.032L265.269 717.8L263.36 716.481L261.452 715.161L259.915 717.393L258.372 719.633L258.333 719.654C258.31 719.663 258.276 719.672 258.23 719.68C258.186 719.674 258.15 719.661 258.122 719.642C258.095 719.623 258.07 719.594 258.049 719.555C258.04 719.509 258.036 719.473 258.037 719.449L258.043 719.405L259.654 717.066L261.265 714.727L261.304 714.706C261.34 714.69 261.372 714.684 261.402 714.688L261.452 714.686L263.571 716.14L265.693 717.607L265.717 717.661C265.742 717.694 265.749 717.731 265.737 717.772L265.734 717.83L264.117 720.177L262.497 722.51L262.45 722.526L262.353 722.544Z" fill="#D9D9D9"/>
<path d="M227.876 697.563C227.848 697.564 227.824 697.556 227.804 697.539C227.764 697.503 227.764 697.428 227.804 697.312C227.968 696.895 228.055 696.429 228.066 695.913C228.069 695.648 228.053 695.385 228.019 695.122C227.947 694.649 227.815 694.215 227.621 693.82C227.594 693.751 227.579 693.711 227.579 693.702L227.576 693.66L227.662 693.562C227.742 693.472 227.803 693.438 227.847 693.459C227.877 693.476 227.918 693.54 227.972 693.65C228.184 694.105 228.32 694.56 228.38 695.015L228.392 695.092L229.393 693.975L231.38 691.728L232.366 690.597L232.288 690.595C231.83 690.589 231.363 690.509 230.886 690.353C230.771 690.313 230.703 690.28 230.682 690.252C230.656 690.211 230.683 690.146 230.762 690.056L230.848 689.959L230.891 689.956C230.9 689.956 230.941 689.965 231.013 689.984C231.427 690.129 231.873 690.209 232.351 690.222C232.568 690.228 232.829 690.215 233.134 690.182C233.652 690.099 234.104 689.956 234.488 689.753C234.602 689.694 234.679 689.682 234.719 689.717C234.759 689.753 234.757 689.831 234.712 689.952C234.557 690.358 234.47 690.825 234.45 691.35C234.451 691.61 234.467 691.869 234.497 692.128C234.574 692.615 234.708 693.051 234.902 693.436C234.929 693.506 234.944 693.545 234.944 693.554L234.947 693.597L234.861 693.694C234.781 693.784 234.719 693.818 234.676 693.797C234.646 693.78 234.602 693.714 234.543 693.6C234.332 693.145 234.198 692.692 234.143 692.241L234.124 692.157L233.13 693.281L231.143 695.529L230.149 696.652L230.235 696.661C230.688 696.662 231.152 696.741 231.629 696.896C231.75 696.941 231.82 696.977 231.841 697.004C231.867 697.045 231.84 697.11 231.761 697.2L231.675 697.298L231.632 697.3C231.623 697.301 231.582 697.291 231.51 697.272C231.105 697.126 230.657 697.045 230.165 697.027C229.858 697.032 229.598 697.05 229.383 697.082C228.873 697.155 228.421 697.298 228.029 697.511C227.931 697.54 227.88 697.558 227.876 697.563ZM228.329 696.869C228.318 696.921 228.313 696.952 228.314 696.962L228.404 696.935C228.797 696.803 229.153 696.722 229.472 696.693L229.592 696.679L231.837 694.139L234.083 691.6L234.083 691.479C234.073 691.158 234.11 690.794 234.193 690.387C234.204 690.335 234.21 690.304 234.209 690.294L234.119 690.321C233.726 690.454 233.37 690.534 233.051 690.563L232.931 690.577L230.686 693.117L228.44 695.657L228.44 695.777C228.45 696.098 228.413 696.462 228.329 696.869Z" fill="#D9D9D9"/>
<path d="M212.299 681.537C212.261 681.528 212.228 681.509 212.2 681.48C212.162 681.424 212.15 681.36 212.164 681.289L212.179 681.247L214.524 678.897L216.869 676.547L216.911 676.533C216.982 676.519 217.046 676.531 217.102 676.568C217.13 676.597 217.149 676.63 217.159 676.667C217.178 676.705 217.178 676.743 217.159 676.781L217.145 676.837L216.043 677.941L214.948 679.039L216.516 680.61L218.084 682.181L218.098 682.238C218.117 682.276 218.117 682.313 218.098 682.351C218.079 682.417 218.037 682.46 217.971 682.478C217.933 682.497 217.896 682.497 217.858 682.478L217.802 682.464L216.233 680.893L214.665 679.322L213.57 680.419L212.468 681.523L212.412 681.537C212.374 681.556 212.336 681.556 212.299 681.537Z" fill="#D9D9D9"/>
<path d="M202.675 669.744C202.574 669.71 202.536 669.622 202.564 669.482L202.58 669.441L204.615 667.635L206.641 665.836L205.105 664.098L203.568 662.36L201.541 664.159L199.507 665.964L199.464 665.976C199.44 665.979 199.405 665.98 199.358 665.977C199.316 665.96 199.284 665.939 199.262 665.914C199.24 665.889 199.223 665.855 199.212 665.812C199.215 665.765 199.219 665.73 199.225 665.706L199.242 665.665L201.366 663.779L203.49 661.894L203.533 661.882C203.571 661.875 203.604 661.877 203.632 661.888L203.681 661.898L205.39 663.817L207.099 665.75L207.11 665.807C207.127 665.846 207.124 665.884 207.103 665.92L207.086 665.976L204.954 667.868L202.824 669.746L202.774 669.75L202.675 669.744Z" fill="#D9D9D9"/>
<path d="M189.882 654.412C189.782 654.371 189.75 654.282 189.786 654.144L189.805 654.103L191.945 652.424L194.076 650.75L192.647 648.923L191.218 647.095L189.087 648.768L186.947 650.448L186.903 650.457C186.879 650.459 186.844 650.457 186.797 650.451C186.757 650.432 186.726 650.409 186.706 650.383C186.685 650.357 186.671 650.322 186.662 650.278C186.667 650.231 186.674 650.196 186.682 650.173L186.701 650.133L188.935 648.379L191.169 646.626L191.212 646.617C191.251 646.612 191.284 646.616 191.311 646.629L191.359 646.642L192.95 648.66L194.539 650.692L194.546 650.75C194.56 650.79 194.556 650.828 194.532 650.863L194.512 650.917L192.27 652.677L190.03 654.423L189.98 654.424L189.882 654.412Z" fill="#D9D9D9"/>
<path d="M177.42 640.122C177.398 640.113 177.179 639.807 176.763 639.203L176.144 638.305L176.146 638.255C176.155 638.209 176.164 638.175 176.172 638.152L176.194 638.113L180.183 635.354L184.172 632.595L184.216 632.589C184.288 632.588 184.348 632.611 184.397 632.658C184.42 632.691 184.433 632.727 184.435 632.766C184.447 632.806 184.44 632.844 184.415 632.877L184.39 632.931L180.508 635.615L176.626 638.3L177.171 639.091C177.534 639.618 177.716 639.893 177.716 639.917C177.723 639.986 177.71 640.043 177.677 640.09C177.654 640.115 177.626 640.134 177.595 640.147C177.54 640.161 177.482 640.153 177.42 640.122Z" fill="#D9D9D9"/>
<path d="M167.962 624.515L167.929 624.5L166.043 621.375L164.158 618.249L164.16 618.213C164.175 618.188 164.186 618.174 164.192 618.17L171.848 617.426C171.902 617.425 171.932 617.422 171.937 617.419C171.998 617.429 172.075 617.511 172.168 617.665C172.261 617.819 172.297 617.926 172.278 617.984L168.08 624.42C168.042 624.474 168.02 624.503 168.015 624.507C168.009 624.51 167.991 624.513 167.962 624.515ZM165.499 618.595C165.493 618.598 165.899 619.276 166.715 620.629C167.531 621.982 167.945 622.655 167.956 622.648L170.94 618.07L165.499 618.595Z" fill="#D9D9D9"/>
<path d="M148.683 586.093C148.635 586.019 148.595 585.921 148.561 585.797C148.459 585.44 148.504 585.109 148.696 584.804C148.951 584.396 149.327 584.11 149.823 583.944C149.892 583.92 149.957 583.902 150.017 583.89C150.33 583.822 150.779 583.813 151.365 583.863C151.945 583.902 152.372 583.892 152.645 583.834C152.908 583.767 153.158 583.65 153.398 583.484C153.683 583.289 153.873 583.069 153.966 582.822C154.033 582.645 154.04 582.489 153.986 582.352C153.945 582.246 153.934 582.164 153.951 582.105C153.997 582.011 154.064 582.014 154.152 582.113C154.215 582.172 154.271 582.279 154.318 582.433C154.416 582.798 154.37 583.134 154.178 583.439C153.923 583.847 153.541 584.136 153.033 584.307C152.969 584.328 152.908 584.345 152.847 584.357C152.541 584.423 152.091 584.431 151.5 584.384C150.932 584.34 150.508 584.348 150.228 584.409C149.964 584.47 149.713 584.586 149.476 584.759C149.191 584.953 149.001 585.174 148.907 585.421C148.84 585.598 148.833 585.751 148.884 585.882C148.938 586.018 148.941 586.115 148.894 586.173C148.879 586.187 148.861 586.196 148.84 586.198C148.789 586.199 148.737 586.164 148.683 586.093Z" fill="#D9D9D9"/>
<path d="M141.167 570.822L141.138 570.801L139.846 567.387L138.554 563.974L138.562 563.939C138.582 563.917 138.595 563.904 138.601 563.902L146.268 564.551C146.321 564.56 146.35 564.563 146.356 564.56C146.414 564.581 146.475 564.676 146.539 564.844C146.602 565.012 146.62 565.124 146.59 565.178L141.3 570.75C141.254 570.796 141.227 570.821 141.221 570.823C141.215 570.825 141.197 570.825 141.167 570.822ZM139.811 564.555C139.805 564.557 140.081 565.297 140.64 566.775C141.2 568.253 141.486 568.989 141.498 568.985L145.258 565.02L139.811 564.555Z" fill="#D9D9D9"/>
<path d="M127.644 530.545C127.57 530.467 127.575 530.376 127.66 530.273C127.717 530.225 128.435 529.725 129.814 528.773C131.227 527.792 131.947 527.299 131.973 527.292C131.998 527.286 132.865 527.388 134.571 527.598C136.234 527.799 137.101 527.907 137.174 527.924C137.284 527.951 137.33 528.029 137.314 528.157C137.289 528.225 137.246 528.273 137.185 528.302C137.152 528.31 136.294 528.213 134.611 528.011C132.932 527.8 132.086 527.697 132.073 527.7C132.06 527.703 131.359 528.189 129.97 529.157C128.573 530.12 127.858 530.605 127.826 530.613C127.758 530.616 127.697 530.594 127.644 530.545Z" fill="#D9D9D9"/>
<path d="M122.882 508.211L122.843 508.167L122.649 507.105C122.519 506.397 122.459 506.028 122.467 506C122.49 505.941 122.526 505.897 122.575 505.868C122.607 505.856 122.639 505.849 122.673 505.85C122.729 505.86 122.779 505.888 122.821 505.935C122.839 505.959 122.905 506.285 123.021 506.915L123.193 507.859L127.836 507.007L132.488 506.152L132.531 506.165C132.597 506.193 132.643 506.239 132.668 506.302C132.675 506.342 132.672 506.38 132.658 506.416C132.652 506.458 132.631 506.489 132.594 506.509L132.55 506.548L127.79 507.422L123.029 508.296L122.975 508.275C122.933 508.27 122.902 508.248 122.882 508.211Z" fill="#D9D9D9"/>
<path d="M120.356 491.697C120.341 491.679 120.289 491.306 120.2 490.578L120.069 489.495L120.094 489.452C120.123 489.415 120.147 489.389 120.165 489.373L120.203 489.348L125.017 488.763L129.832 488.177L129.874 488.192C129.938 488.224 129.981 488.273 130.002 488.337C130.007 488.377 130.001 488.415 129.986 488.45C129.977 488.491 129.954 488.521 129.916 488.539L129.87 488.575L125.184 489.145L120.499 489.715L120.614 490.668C120.691 491.304 120.724 491.632 120.714 491.653C120.688 491.717 120.649 491.762 120.599 491.788C120.567 491.799 120.534 491.803 120.5 491.8C120.444 491.787 120.396 491.752 120.356 491.697Z" fill="#D9D9D9"/>
<path d="M118.643 465.753C118.621 465.721 118.609 465.685 118.606 465.645C118.616 465.578 118.649 465.523 118.706 465.479L118.745 465.457L122.059 465.256L125.373 465.055L125.414 465.073C125.476 465.109 125.516 465.16 125.534 465.226C125.536 465.266 125.528 465.303 125.51 465.337C125.499 465.378 125.474 465.406 125.435 465.422L125.387 465.455L123.83 465.549L122.283 465.643L122.417 467.859L122.55 470.075L122.523 470.127C122.512 470.167 122.487 470.196 122.448 470.211C122.39 470.248 122.331 470.252 122.269 470.222C122.228 470.211 122.2 470.186 122.184 470.147L122.151 470.099L122.017 467.883L121.883 465.667L120.336 465.761L118.779 465.855L118.727 465.828C118.687 465.818 118.659 465.793 118.643 465.753Z" fill="#D9D9D9"/>
<path d="M118.451 427.685C118.433 427.651 118.425 427.614 118.427 427.574C118.445 427.508 118.485 427.457 118.547 427.421L118.588 427.403L123.429 427.697L128.27 427.99L128.309 428.012C128.341 428.034 128.363 428.059 128.375 428.087L128.402 428.128L128.346 429.217C128.301 429.962 128.257 430.36 128.214 430.411C128.186 430.436 128.155 430.451 128.121 430.456C128.088 430.46 128.054 430.458 128.022 430.45C127.969 430.426 127.929 430.384 127.899 430.322C127.887 430.301 127.9 429.971 127.939 429.333L127.997 428.374L123.285 428.089L118.574 427.803L118.526 427.77C118.487 427.754 118.462 427.726 118.451 427.685Z" fill="#D9D9D9"/>
<path d="M121.183 405.765C121.167 405.73 121.162 405.692 121.167 405.652C121.188 405.588 121.231 405.539 121.295 405.507L121.337 405.492L124.633 405.893L127.929 406.294L127.966 406.318C128.021 406.365 128.051 406.423 128.056 406.49C128.051 406.53 128.037 406.565 128.013 406.596C127.995 406.634 127.965 406.657 127.924 406.666L127.871 406.69L126.322 406.501L124.783 406.314L124.516 408.518L124.249 410.722L124.213 410.768C124.195 410.806 124.166 410.829 124.124 410.837C124.061 410.863 124.001 410.856 123.946 410.816C123.908 410.798 123.884 410.768 123.876 410.727L123.852 410.673L124.119 408.469L124.386 406.266L122.848 406.078L121.299 405.89L121.253 405.854C121.215 405.836 121.192 405.806 121.183 405.765Z" fill="#D9D9D9"/>
<path d="M122.807 391.692C122.771 391.59 122.813 391.51 122.932 391.451C122.983 391.433 124.676 391.144 128.011 390.583C131.388 390.017 133.09 389.737 133.116 389.742C133.142 389.746 133.173 389.762 133.209 389.789L133.255 389.869L133.263 389.88C133.299 389.982 133.257 390.062 133.138 390.122C133.087 390.14 131.394 390.429 128.059 390.989C124.703 391.552 123.002 391.829 122.956 391.821C122.917 391.814 122.886 391.798 122.863 391.773L122.807 391.692Z" fill="#D9D9D9"/>
<path d="M133.159 349.505C133.15 349.467 133.152 349.429 133.163 349.391C133.196 349.331 133.247 349.291 133.316 349.271L133.36 349.264L137.875 350.674L142.381 352.08L142.666 351.164C142.856 350.553 142.961 350.236 142.982 350.215C143.029 350.174 143.082 350.152 143.138 350.148C143.172 350.152 143.204 350.162 143.234 350.178C143.279 350.213 143.309 350.261 143.325 350.322C143.33 350.351 143.226 350.71 143.012 351.397L142.691 352.429L142.648 352.468C142.623 352.502 142.59 352.519 142.548 352.52L142.491 352.534L137.871 351.091L133.251 349.649L133.212 349.605C133.178 349.581 133.16 349.547 133.159 349.505Z" fill="#D9D9D9"/>
<path d="M138.571 333.701C138.565 333.677 138.692 333.323 138.952 332.637L139.338 331.618L139.38 331.591C139.423 331.571 139.456 331.559 139.48 331.554L139.524 331.549L144.058 333.272L148.591 334.995L148.622 335.028C148.664 335.087 148.679 335.149 148.668 335.217C148.654 335.254 148.631 335.285 148.601 335.309C148.574 335.341 148.54 335.357 148.498 335.355L148.44 335.365L144.028 333.689L139.616 332.012L139.276 332.91C139.05 333.509 138.927 333.815 138.907 333.829C138.855 333.873 138.8 333.895 138.743 333.895C138.71 333.889 138.678 333.877 138.65 333.859C138.607 333.822 138.581 333.769 138.571 333.701Z" fill="#D9D9D9"/>
<path d="M154.781 297.006C154.779 296.982 154.948 296.645 155.288 295.995L155.794 295.03L155.839 295.008C155.884 294.994 155.918 294.986 155.942 294.983L155.987 294.984L160.279 297.242L164.572 299.499L164.598 299.536C164.633 299.599 164.64 299.663 164.621 299.728C164.603 299.764 164.577 299.792 164.544 299.812C164.513 299.841 164.477 299.852 164.436 299.846L164.378 299.849L160.2 297.652L156.023 295.455L155.577 296.305C155.28 296.872 155.121 297.162 155.1 297.173C155.043 297.211 154.986 297.226 154.929 297.219C154.897 297.209 154.867 297.194 154.841 297.172C154.803 297.13 154.783 297.074 154.781 297.006Z" fill="#D9D9D9"/>
<path d="M166.722 276.652C166.911 276.236 167.222 275.965 167.657 275.838C167.73 275.82 167.8 275.808 167.866 275.801C168.034 275.794 168.185 275.807 168.32 275.842C168.44 275.876 168.545 275.92 168.636 275.976C168.847 276.103 168.919 276.275 168.851 276.491C168.842 276.532 168.825 276.573 168.801 276.613C168.76 276.681 168.701 276.74 168.626 276.787C168.46 276.882 168.293 276.867 168.127 276.743C168.031 276.669 167.973 276.579 167.951 276.472L167.943 276.351C167.945 276.321 167.948 276.303 167.952 276.297C167.923 276.28 167.851 276.291 167.734 276.329C167.584 276.371 167.451 276.45 167.334 276.566C167.246 276.661 167.182 276.767 167.143 276.883C167.121 277.01 167.144 277.153 167.212 277.311C167.268 277.438 167.379 277.576 167.547 277.724C167.706 277.86 167.881 277.969 168.072 278.054C168.382 278.172 168.673 278.192 168.946 278.115C169.077 278.078 169.225 278 169.39 277.882C169.755 277.651 170.098 277.496 170.418 277.417C170.588 277.38 170.76 277.367 170.932 277.378C171.157 277.405 171.361 277.474 171.543 277.584C171.714 277.688 171.849 277.801 171.947 277.922C172.202 278.209 172.335 278.543 172.347 278.924C172.348 278.948 172.347 278.975 172.345 279.005C172.343 279.059 172.341 279.089 172.337 279.094L172.379 279.084C172.407 279.062 172.455 279.041 172.523 279.019C172.822 278.897 173.121 278.848 173.418 278.872C173.771 278.906 174.078 279.061 174.34 279.337C174.539 279.536 174.677 279.779 174.753 280.066C174.8 280.259 174.81 280.455 174.782 280.657C174.716 281.139 174.468 281.499 174.037 281.737C173.934 281.791 173.827 281.832 173.718 281.859C173.584 281.887 173.444 281.893 173.299 281.875C173.091 281.858 172.913 281.805 172.765 281.715C172.554 281.587 172.483 281.415 172.551 281.199C172.56 281.158 172.577 281.118 172.601 281.078C172.701 280.912 172.832 280.836 172.996 280.849C173.162 280.857 173.294 280.936 173.389 281.087C173.44 281.157 173.463 281.242 173.459 281.34C173.456 281.37 173.453 281.387 173.45 281.393C173.478 281.41 173.551 281.4 173.668 281.361C173.817 281.32 173.951 281.241 174.068 281.124C174.156 281.03 174.219 280.924 174.259 280.807C174.281 280.681 174.258 280.538 174.19 280.38C174.134 280.253 174.02 280.113 173.846 279.961C173.698 279.833 173.523 279.723 173.321 279.632C173.013 279.523 172.725 279.504 172.456 279.575C172.325 279.613 172.178 279.688 172.017 279.8C171.648 280.037 171.306 280.192 170.989 280.265C170.815 280.308 170.639 280.322 170.461 280.308C170.247 280.287 170.046 280.22 169.858 280.106C169.687 280.003 169.553 279.89 169.455 279.768C169.2 279.481 169.067 279.147 169.055 278.766C169.054 278.742 169.055 278.715 169.057 278.686C169.058 278.632 169.061 278.602 169.064 278.596L169.023 278.606C168.994 278.628 168.946 278.65 168.879 278.671C168.579 278.794 168.281 278.843 167.984 278.819C167.722 278.801 167.469 278.698 167.224 278.51C166.991 278.315 166.825 278.094 166.725 277.846C166.655 277.718 166.617 277.574 166.612 277.415C166.586 277.134 166.623 276.88 166.722 276.652ZM169.71 278.204C169.658 278.251 169.627 278.302 169.617 278.358C169.537 278.606 169.643 278.869 169.935 279.147C169.985 279.193 170.037 279.236 170.09 279.276C170.298 279.449 170.532 279.564 170.794 279.621C171.073 279.673 171.329 279.649 171.562 279.548C171.683 279.489 171.756 279.42 171.78 279.341C171.864 279.072 171.744 278.793 171.421 278.504C171.384 278.474 171.348 278.444 171.311 278.414C171.104 278.242 170.869 278.127 170.608 278.07C170.278 278.01 169.979 278.055 169.71 278.204Z" fill="#D9D9D9"/>
<path d="M179.559 256.143C179.565 256.075 179.597 256.024 179.653 255.989C179.72 255.963 179.784 255.963 179.847 255.99L179.896 256.024L182.547 260.69C184.317 263.819 185.205 265.386 185.211 265.39C185.234 265.438 185.217 265.504 185.161 265.586C185.126 265.636 185.096 265.663 185.068 265.668C185.031 265.675 184.289 265.547 182.843 265.284L180.66 264.893C180.656 264.898 180.661 265.032 180.675 265.293C180.695 265.558 180.693 265.702 180.669 265.726C180.657 265.742 180.603 265.762 180.507 265.784C180.455 265.789 180.397 265.797 180.332 265.809C180.293 265.807 180.265 265.783 180.247 265.738L180.129 263.918C180.126 263.899 180.13 263.882 180.141 263.865C180.167 263.827 180.217 263.813 180.291 263.823L182.325 264.185L184.271 264.533L181.936 260.414C180.354 257.633 179.566 256.245 179.571 256.249C179.555 256.214 179.551 256.178 179.559 256.143Z" fill="#D9D9D9"/>
<path d="M188.009 244.729C188.006 244.701 188.012 244.676 188.029 244.655C188.065 244.608 188.114 244.6 188.175 244.63L188.319 244.705C188.723 244.904 189.15 245.001 189.6 244.999C189.796 245.009 189.988 244.985 190.175 244.929C190.572 244.834 190.919 244.67 191.219 244.439C191.297 244.382 191.341 244.353 191.35 244.352C191.388 244.347 191.443 244.374 191.517 244.431C191.601 244.497 191.634 244.557 191.617 244.612C191.606 244.637 191.566 244.677 191.496 244.733C190.87 245.199 190.177 245.409 189.417 245.364C189.398 245.366 189.381 245.365 189.367 245.362L189.245 245.356L192.258 247.721L195.27 250.086L195.235 249.969C195.057 249.439 195.03 248.889 195.155 248.317C195.238 247.941 195.327 247.702 195.424 247.6C195.467 247.566 195.534 247.584 195.623 247.654C195.696 247.712 195.735 247.76 195.74 247.797C195.741 247.806 195.723 247.856 195.687 247.946C195.534 248.293 195.459 248.67 195.461 249.079C195.452 249.275 195.475 249.467 195.531 249.655C195.637 250.094 195.834 250.486 196.122 250.831L196.23 250.953C196.274 251.005 196.277 251.054 196.241 251.102C196.224 251.123 196.202 251.135 196.174 251.138C196.136 251.143 196.062 251.114 195.95 251.051C195.565 250.851 195.138 250.753 194.669 250.758C194.473 250.748 194.281 250.771 194.094 250.828C193.697 250.923 193.35 251.087 193.05 251.318C192.972 251.375 192.928 251.404 192.919 251.405C192.881 251.41 192.826 251.383 192.752 251.325C192.668 251.26 192.635 251.2 192.652 251.145C192.663 251.12 192.703 251.079 192.773 251.024C193.399 250.558 194.092 250.348 194.852 250.393C194.871 250.391 194.888 250.391 194.902 250.394L195.024 250.401L192.011 248.036L188.999 245.671L189.034 245.788C189.212 246.318 189.241 246.866 189.12 247.432C189.03 247.827 188.939 248.069 188.845 248.157C188.802 248.19 188.735 248.172 188.646 248.102C188.573 248.045 188.534 247.997 188.529 247.96C188.528 247.95 188.546 247.901 188.582 247.811C188.735 247.464 188.81 247.087 188.808 246.678C188.817 246.482 188.794 246.29 188.738 246.102C188.63 245.644 188.431 245.25 188.139 244.92C188.057 244.83 188.014 244.766 188.009 244.729Z" fill="#D9D9D9"/>
<path d="M201.831 230.977C201.879 230.903 201.952 230.825 202.051 230.743C202.333 230.504 202.653 230.409 203.01 230.458C203.486 230.524 203.901 230.75 204.254 231.135C204.305 231.189 204.348 231.24 204.384 231.29C204.574 231.548 204.766 231.955 204.96 232.51C205.163 233.056 205.347 233.442 205.511 233.668C205.68 233.88 205.889 234.061 206.139 234.212C206.433 234.393 206.711 234.475 206.975 234.459C207.163 234.448 207.308 234.389 207.41 234.284C207.49 234.203 207.56 234.159 207.621 234.151C207.725 234.154 207.75 234.216 207.696 234.337C207.668 234.42 207.594 234.514 207.473 234.62C207.181 234.86 206.856 234.956 206.499 234.906C206.023 234.84 205.604 234.611 205.24 234.217C205.195 234.167 205.154 234.118 205.118 234.068C204.933 233.814 204.741 233.408 204.542 232.848C204.349 232.311 204.168 231.927 203.998 231.696C203.834 231.479 203.625 231.298 203.371 231.153C203.077 230.972 202.798 230.89 202.535 230.906C202.347 230.917 202.204 230.973 202.106 231.073C202.004 231.179 201.917 231.222 201.845 231.203C201.826 231.194 201.811 231.181 201.8 231.163C201.778 231.117 201.789 231.055 201.831 230.977Z" fill="#D9D9D9"/>
<path d="M212.63 217.825L212.637 217.789L215.215 215.206L217.794 212.622L217.829 212.615C217.857 212.625 217.874 212.632 217.878 212.636L220.428 219.906C220.443 219.958 220.452 219.986 220.457 219.991C220.461 220.052 220.4 220.146 220.273 220.274C220.146 220.401 220.052 220.462 219.99 220.458L212.75 217.917C212.689 217.893 212.656 217.879 212.651 217.874C212.646 217.87 212.639 217.853 212.63 217.825ZM217.779 214.01C217.775 214.005 217.214 214.562 216.098 215.68C214.982 216.798 214.429 217.362 214.438 217.372L219.588 219.177L217.779 214.01Z" fill="#D9D9D9"/>
<path d="M227.934 202.219C227.94 202.195 228.218 201.94 228.766 201.453L229.581 200.73L229.631 200.726C229.678 200.729 229.713 200.733 229.736 200.739L229.778 200.756L232.99 204.389L236.203 208.023L236.215 208.066C236.224 208.138 236.209 208.2 236.168 208.255C236.138 208.281 236.104 208.298 236.066 208.305C236.027 208.322 235.989 208.32 235.953 208.298L235.897 208.281L232.771 204.745L229.644 201.209L228.926 201.846C228.448 202.271 228.197 202.485 228.173 202.488C228.106 202.503 228.047 202.497 227.997 202.471C227.97 202.45 227.948 202.425 227.931 202.396C227.91 202.342 227.912 202.283 227.934 202.219Z" fill="#D9D9D9"/>
<path d="M245.901 187.197L245.921 187.142L246.771 186.475C247.337 186.031 247.635 185.806 247.664 185.8C247.727 185.793 247.782 185.804 247.831 185.834C247.857 185.856 247.877 185.882 247.892 185.913C247.91 185.967 247.907 186.024 247.886 186.083C247.873 186.11 247.615 186.321 247.112 186.716L246.357 187.309L249.264 191.028L252.177 194.754L252.186 194.798C252.192 194.87 252.172 194.931 252.128 194.983C252.097 195.008 252.062 195.022 252.023 195.027C251.983 195.042 251.946 195.037 251.911 195.014L251.857 194.993L248.875 191.18L245.894 187.367L245.887 187.309C245.873 187.269 245.877 187.232 245.901 187.197Z" fill="#D9D9D9"/>
<path d="M279.429 164.235C279.448 164.2 279.474 164.173 279.508 164.152C279.572 164.129 279.636 164.133 279.702 164.163L279.739 164.187L282.245 168.34L284.75 172.493L284.754 172.537C284.754 172.576 284.746 172.608 284.73 172.633L284.711 172.68L283.784 173.253C283.146 173.64 282.793 173.83 282.727 173.823C282.69 173.814 282.661 173.797 282.638 173.772C282.615 173.747 282.597 173.719 282.586 173.687C282.576 173.631 282.587 173.573 282.621 173.513C282.632 173.491 282.91 173.315 283.458 172.983L284.279 172.486L281.841 168.444L279.402 164.403L279.402 164.345C279.393 164.303 279.402 164.267 279.429 164.235Z" fill="#D9D9D9"/>
<path d="M292.187 157.711L292.205 157.68L295.435 155.981L298.666 154.282L298.701 154.286C298.726 154.303 298.739 154.315 298.742 154.321L299.015 162.018C299.013 162.072 299.014 162.102 299.017 162.108C299.003 162.168 298.917 162.239 298.757 162.323C298.598 162.407 298.49 162.438 298.433 162.415L292.275 157.835C292.223 157.794 292.196 157.771 292.193 157.765C292.19 157.759 292.188 157.741 292.187 157.711ZM298.239 155.602C298.236 155.596 297.536 155.961 296.137 156.696C294.739 157.432 294.043 157.805 294.049 157.817L298.429 161.072L298.239 155.602Z" fill="#D9D9D9"/>
<path d="M311.436 147.375C311.449 147.354 311.79 147.193 312.458 146.892L313.452 146.444L313.501 146.455C313.545 146.471 313.577 146.486 313.597 146.499L313.632 146.527L315.619 150.951L317.606 155.375L317.605 155.42C317.593 155.491 317.559 155.547 317.504 155.586C317.467 155.603 317.43 155.609 317.391 155.604C317.349 155.608 317.314 155.595 317.285 155.564L317.238 155.531L315.304 151.225L313.37 146.92L312.495 147.314C311.911 147.577 311.608 147.707 311.584 147.703C311.516 147.697 311.461 147.674 311.421 147.634C311.402 147.606 311.388 147.576 311.38 147.543C311.377 147.486 311.395 147.43 311.436 147.375Z" fill="#D9D9D9"/>
<path d="M335.654 137.999C335.678 137.968 335.709 137.946 335.746 137.932C335.813 137.921 335.876 137.936 335.935 137.978L335.968 138.008L337.143 141.113L338.318 144.218L338.314 144.263C338.297 144.333 338.261 144.386 338.203 144.422C338.166 144.437 338.128 144.44 338.089 144.433C338.047 144.435 338.013 144.42 337.986 144.387L337.941 144.351L337.388 142.892L336.84 141.442L334.765 142.231L332.689 143.019L332.632 143.009C332.59 143.011 332.555 142.995 332.529 142.963C332.476 142.918 332.455 142.862 332.465 142.794C332.463 142.752 332.479 142.718 332.512 142.691L332.548 142.645L334.623 141.857L336.698 141.068L336.149 139.619L335.597 138.16L335.608 138.102C335.606 138.06 335.621 138.026 335.654 137.999Z" fill="#D9D9D9"/>
<path d="M350.329 134.026C350.403 133.947 350.497 133.949 350.614 134.031L350.645 134.063L351.452 136.661L352.257 139.248L354.472 138.557L356.686 137.866L355.882 135.278L355.074 132.681L355.081 132.636C355.088 132.613 355.102 132.581 355.124 132.539C355.156 132.508 355.188 132.488 355.22 132.478C355.252 132.468 355.29 132.466 355.334 132.474C355.376 132.495 355.406 132.514 355.425 132.529L355.456 132.561L356.299 135.273L357.142 137.985L357.135 138.029C357.126 138.067 357.111 138.096 357.089 138.117L357.06 138.158L354.61 138.933L352.147 139.702L352.09 139.688C352.048 139.687 352.015 139.67 351.99 139.636L351.947 139.597L351.1 136.875L350.266 134.161L350.283 134.113L350.329 134.026Z" fill="#D9D9D9"/>
<path d="M368.666 127.254C368.744 127.18 368.835 127.185 368.938 127.27C368.986 127.326 369.485 128.044 370.436 129.423C371.415 130.837 371.908 131.556 371.914 131.582C371.92 131.608 371.818 132.474 371.606 134.182C371.404 135.845 371.295 136.713 371.279 136.786C371.251 136.896 371.173 136.943 371.045 136.926C370.977 136.902 370.929 136.859 370.9 136.797C370.892 136.765 370.99 135.906 371.194 134.222C371.405 132.542 371.509 131.696 371.506 131.683C371.503 131.67 371.018 130.969 370.052 129.58C369.09 128.183 368.606 127.468 368.598 127.436C368.595 127.368 368.617 127.308 368.666 127.254Z" fill="#D9D9D9"/>
<path d="M388.742 124.036L388.786 123.997L391.687 123.464L394.579 122.933L394.622 122.946C394.644 122.955 394.675 122.974 394.713 123C394.74 123.036 394.757 123.07 394.763 123.103C394.769 123.136 394.765 123.174 394.753 123.217C394.726 123.256 394.704 123.283 394.687 123.3L394.651 123.327L391.868 123.838L389.094 124.347L389.544 126.807L389.994 129.266L392.767 128.756L395.541 128.247L395.594 128.258C395.673 128.284 395.72 128.336 395.734 128.415C395.74 128.448 395.737 128.486 395.724 128.529C395.698 128.567 395.676 128.595 395.658 128.612L395.623 128.639L392.721 129.172L389.82 129.704L389.777 129.692C389.739 129.672 389.712 129.653 389.695 129.636L389.659 129.602L389.154 126.898L388.657 124.183L388.678 124.129C388.684 124.087 388.705 124.056 388.742 124.036ZM389.953 131.266L390.008 131.235L392.949 130.695L395.89 130.155L395.943 130.166C396.022 130.192 396.069 130.245 396.083 130.323C396.089 130.356 396.086 130.394 396.073 130.437C396.047 130.476 396.025 130.504 396.007 130.52L395.972 130.547L393.011 131.091L390.06 131.633L390.018 131.62C389.98 131.6 389.953 131.581 389.936 131.564C389.912 131.541 389.895 131.507 389.887 131.461C389.872 131.382 389.894 131.317 389.953 131.266Z" fill="#D9D9D9"/>
<path d="M407.458 119.927C407.476 119.911 407.849 119.859 408.577 119.771L409.659 119.639L409.702 119.664C409.739 119.693 409.766 119.717 409.781 119.735L409.806 119.772L410.39 124.587L410.973 129.402L410.958 129.444C410.925 129.508 410.877 129.551 410.812 129.572C410.773 129.577 410.735 129.572 410.7 129.556C410.658 129.547 410.629 129.524 410.61 129.486L410.575 129.44L410.007 124.754L409.439 120.069L408.486 120.185C407.851 120.262 407.522 120.295 407.501 120.284C407.437 120.258 407.392 120.22 407.366 120.17C407.356 120.137 407.352 120.104 407.354 120.07C407.368 120.015 407.402 119.967 407.458 119.927Z" fill="#D9D9D9"/>
<path d="M429.207 117.674C429.225 117.653 429.248 117.641 429.275 117.64C429.335 117.636 429.373 117.667 429.391 117.733L429.43 117.891C429.55 118.324 429.76 118.709 430.061 119.045C430.184 119.198 430.328 119.326 430.495 119.429C430.829 119.663 431.183 119.815 431.554 119.886C431.649 119.907 431.7 119.921 431.707 119.927C431.735 119.952 431.752 120.011 431.758 120.104C431.764 120.211 431.741 120.275 431.689 120.299C431.663 120.307 431.606 120.304 431.518 120.289C430.754 120.128 430.137 119.748 429.666 119.149C429.652 119.136 429.641 119.124 429.634 119.111L429.558 119.015L429.789 122.838L430.02 126.661L430.084 126.557C430.362 126.073 430.756 125.688 431.266 125.404C431.602 125.216 431.84 125.125 431.981 125.13C432.035 125.14 432.065 125.201 432.072 125.315C432.078 125.408 432.068 125.468 432.043 125.497C432.037 125.504 431.988 125.523 431.897 125.556C431.536 125.671 431.204 125.865 430.9 126.137C430.747 126.26 430.619 126.405 430.515 126.571C430.257 126.941 430.095 127.348 430.028 127.793L430.008 127.954C429.998 128.022 429.964 128.057 429.904 128.061C429.877 128.062 429.853 128.054 429.832 128.035C429.804 128.01 429.776 127.935 429.748 127.81C429.643 127.389 429.433 127.004 429.118 126.656C428.995 126.503 428.85 126.375 428.684 126.271C428.349 126.038 427.996 125.886 427.624 125.815C427.53 125.794 427.479 125.78 427.472 125.774C427.443 125.749 427.426 125.69 427.421 125.597C427.414 125.49 427.437 125.425 427.489 125.402C427.515 125.394 427.572 125.397 427.66 125.412C428.425 125.572 429.042 125.952 429.512 126.552C429.526 126.564 429.537 126.577 429.545 126.59L429.62 126.685L429.39 122.862L429.159 119.039L429.095 119.143C428.817 119.628 428.426 120.012 427.922 120.296C427.567 120.492 427.325 120.583 427.198 120.571C427.144 120.561 427.113 120.499 427.106 120.386C427.101 120.293 427.11 120.232 427.135 120.204C427.142 120.197 427.191 120.177 427.282 120.145C427.642 120.03 427.975 119.836 428.279 119.564C428.432 119.441 428.56 119.296 428.663 119.13C428.934 118.746 429.096 118.335 429.15 117.898C429.163 117.777 429.182 117.702 429.207 117.674Z" fill="#D9D9D9"/>
<path d="M451.326 116.96C451.446 116.94 451.556 116.957 451.656 117.01C451.816 117.083 451.896 117.23 451.896 117.45C451.896 117.65 451.856 118.02 451.776 118.56C451.749 118.72 451.712 118.987 451.666 119.36V119.45L451.726 119.43C451.752 119.43 451.852 119.403 452.026 119.35C452.259 119.277 452.446 119.237 452.586 119.23C452.712 119.23 452.809 119.25 452.876 119.29C453.022 119.363 453.099 119.497 453.106 119.69C453.106 119.87 453.029 120.003 452.876 120.09C452.809 120.13 452.712 120.15 452.586 120.15C452.446 120.143 452.259 120.103 452.026 120.03C451.852 119.977 451.752 119.95 451.726 119.95L451.666 119.93L451.676 119.98C451.689 120.073 451.719 120.273 451.766 120.58C451.852 120.993 451.896 121.383 451.896 121.75C451.896 122.997 451.836 124.307 451.716 125.68C451.696 125.96 451.676 126.11 451.656 126.13L451.626 126.16H451.436H451.246L451.216 126.13C451.196 126.11 451.176 125.96 451.156 125.68C451.036 124.307 450.976 122.997 450.976 121.75C450.976 121.383 451.019 120.993 451.106 120.58C451.152 120.273 451.182 120.073 451.196 119.98L451.206 119.93L451.146 119.95C451.119 119.95 451.019 119.977 450.846 120.03C450.612 120.103 450.426 120.143 450.286 120.15C450.159 120.15 450.062 120.13 449.996 120.09C449.849 120.017 449.772 119.883 449.766 119.69C449.766 119.51 449.842 119.377 449.996 119.29C450.062 119.25 450.159 119.23 450.286 119.23C450.426 119.237 450.612 119.277 450.846 119.35C451.019 119.403 451.119 119.43 451.146 119.43L451.206 119.45V119.36C451.159 118.987 451.122 118.72 451.096 118.56C450.982 117.847 450.949 117.42 450.996 117.28C451.036 117.12 451.146 117.013 451.326 116.96Z" fill="#D9D9D9"/>
<path d="M488.384 121.116C488.483 121.075 488.569 121.115 488.641 121.238L488.656 121.28L488.329 123.981L488.003 126.671L490.306 126.951L492.609 127.231L492.935 124.541L493.262 121.841L493.287 121.804C493.303 121.785 493.329 121.762 493.366 121.733C493.408 121.718 493.446 121.712 493.479 121.716C493.512 121.72 493.547 121.734 493.585 121.759C493.614 121.796 493.634 121.826 493.644 121.847L493.659 121.889L493.318 124.708L492.976 127.528L492.951 127.565C492.928 127.596 492.902 127.616 492.874 127.626L492.83 127.651L490.278 127.351L487.717 127.039L487.671 127.003C487.633 126.985 487.609 126.956 487.601 126.914L487.577 126.861L487.92 124.032L488.272 121.213L488.306 121.177L488.384 121.116Z" fill="#D9D9D9"/>
<path d="M508.182 124.237C508.27 124.24 508.374 124.262 508.495 124.305C508.846 124.424 509.093 124.649 509.236 124.98C509.426 125.421 509.449 125.893 509.303 126.395C509.283 126.466 509.261 126.53 509.237 126.586C509.115 126.883 508.867 127.257 508.493 127.71C508.132 128.166 507.897 128.523 507.789 128.781C507.695 129.035 507.648 129.308 507.649 129.599C507.647 129.944 507.721 130.226 507.871 130.443C507.978 130.598 508.103 130.692 508.246 130.726C508.357 130.753 508.431 130.79 508.47 130.838C508.521 130.928 508.481 130.982 508.349 130.999C508.264 131.017 508.145 131.002 507.991 130.953C507.635 130.827 507.385 130.598 507.242 130.267C507.052 129.825 507.031 129.347 507.18 128.832C507.198 128.767 507.219 128.707 507.243 128.65C507.364 128.361 507.612 127.986 507.988 127.526C508.346 127.084 508.58 126.73 508.69 126.466C508.79 126.213 508.837 125.94 508.829 125.647C508.832 125.302 508.758 125.021 508.608 124.803C508.5 124.648 508.379 124.555 508.242 124.523C508.099 124.49 508.017 124.437 507.996 124.366C507.993 124.345 507.997 124.325 508.007 124.307C508.035 124.265 508.094 124.241 508.182 124.237Z" fill="#D9D9D9"/>
<path d="M551.756 134.1C551.794 134.091 551.832 134.092 551.87 134.104C551.929 134.137 551.969 134.188 551.99 134.257L551.997 134.301L551.011 137.471L550.025 140.641L549.994 140.674C549.938 140.719 549.876 140.738 549.809 140.731C549.771 140.719 549.739 140.699 549.713 140.67C549.679 140.645 549.661 140.612 549.66 140.569L549.646 140.513L550.11 139.023L550.57 137.543L548.451 136.881L546.332 136.22L546.293 136.176C546.259 136.151 546.241 136.118 546.24 136.076C546.226 136.009 546.244 135.951 546.294 135.904C546.318 135.87 546.352 135.852 546.394 135.851L546.45 135.838L548.57 136.499L550.689 137.161L551.149 135.681L551.612 134.191L551.656 134.153C551.68 134.118 551.714 134.101 551.756 134.1Z" fill="#D9D9D9"/>
<path d="M565.279 138.253C565.386 138.236 565.457 138.292 565.494 138.42C565.503 138.473 565.483 140.192 565.435 143.575C565.386 147.001 565.357 148.727 565.347 148.752C565.338 148.777 565.317 148.804 565.284 148.835L565.197 148.866L565.184 148.872C565.078 148.888 565.007 148.833 564.97 148.704C564.961 148.651 564.981 146.933 565.028 143.549C565.077 140.144 565.109 138.42 565.126 138.376C565.14 138.339 565.161 138.311 565.189 138.294L565.279 138.253Z" fill="#D9D9D9"/>
<path d="M601.864 154.527C601.888 154.524 602.224 154.694 602.873 155.035L603.838 155.542L603.859 155.588C603.873 155.633 603.882 155.667 603.884 155.691L603.883 155.736L601.633 160.032L599.383 164.328L599.346 164.354C599.283 164.389 599.219 164.397 599.154 164.377C599.118 164.359 599.09 164.333 599.07 164.3C599.041 164.269 599.03 164.233 599.036 164.192L599.033 164.133L601.223 159.952L603.413 155.771L602.564 155.324C601.997 155.026 601.708 154.867 601.697 154.846C601.659 154.788 601.644 154.731 601.651 154.675C601.66 154.642 601.676 154.612 601.697 154.586C601.74 154.548 601.795 154.528 601.864 154.527Z" fill="#D9D9D9"/>
<path d="M622.173 166.516C622.588 166.705 622.859 167.017 622.986 167.452C623.004 167.526 623.016 167.596 623.023 167.662C623.031 167.83 623.017 167.982 622.982 168.117C622.949 168.237 622.905 168.342 622.85 168.434C622.722 168.645 622.551 168.716 622.335 168.648C622.294 168.639 622.253 168.622 622.213 168.598C622.145 168.556 622.087 168.498 622.039 168.422C621.945 168.256 621.959 168.089 622.083 167.923C622.157 167.827 622.247 167.768 622.353 167.747L622.475 167.739C622.504 167.741 622.522 167.744 622.528 167.748C622.545 167.719 622.534 167.646 622.496 167.53C622.454 167.379 622.375 167.246 622.259 167.129C622.164 167.04 622.059 166.976 621.942 166.937C621.815 166.915 621.673 166.938 621.515 167.006C621.388 167.061 621.251 167.173 621.103 167.341C620.968 167.5 620.858 167.676 620.774 167.866C620.657 168.177 620.637 168.469 620.713 168.741C620.751 168.873 620.829 169.022 620.947 169.187C621.178 169.553 621.333 169.896 621.412 170.217C621.449 170.387 621.462 170.559 621.451 170.732C621.424 170.957 621.356 171.161 621.246 171.344C621.142 171.515 621.03 171.65 620.909 171.747C620.622 172.003 620.289 172.136 619.908 172.147C619.884 172.148 619.858 172.147 619.828 172.145C619.774 172.144 619.744 172.141 619.739 172.138L619.749 172.179C619.771 172.208 619.792 172.256 619.814 172.324C619.936 172.624 619.986 172.923 619.962 173.22C619.928 173.573 619.773 173.881 619.498 174.143C619.3 174.343 619.057 174.48 618.77 174.556C618.578 174.603 618.382 174.613 618.181 174.585C617.699 174.519 617.339 174.27 617.102 173.838C617.047 173.734 617.006 173.628 616.979 173.518C616.951 173.384 616.946 173.244 616.963 173.099C616.98 172.891 617.033 172.712 617.122 172.564C617.25 172.353 617.421 172.281 617.637 172.35C617.678 172.359 617.719 172.376 617.759 172.4C617.924 172.5 618 172.632 617.987 172.796C617.98 172.963 617.901 173.094 617.75 173.189C617.68 173.241 617.596 173.264 617.497 173.259C617.468 173.256 617.45 173.254 617.444 173.25C617.427 173.279 617.438 173.351 617.476 173.468C617.518 173.618 617.597 173.752 617.713 173.869C617.808 173.957 617.913 174.021 618.03 174.061C618.157 174.083 618.299 174.06 618.457 173.992C618.584 173.936 618.723 173.822 618.874 173.648C619.002 173.5 619.112 173.325 619.203 173.123C619.311 172.814 619.33 172.525 619.259 172.256C619.221 172.125 619.146 171.978 619.034 171.816C618.797 171.447 618.642 171.103 618.569 170.786C618.526 170.612 618.512 170.436 618.526 170.257C618.546 170.044 618.613 169.842 618.726 169.654C618.83 169.483 618.942 169.348 619.063 169.25C619.35 168.995 619.683 168.862 620.064 168.851C620.088 168.85 620.114 168.85 620.144 168.853C620.198 168.854 620.228 168.856 620.233 168.86L620.223 168.819C620.201 168.79 620.18 168.742 620.158 168.674C620.036 168.374 619.986 168.075 620.01 167.778C620.028 167.516 620.13 167.262 620.317 167.017C620.512 166.784 620.733 166.618 620.98 166.518C621.109 166.448 621.252 166.41 621.411 166.405C621.691 166.379 621.945 166.416 622.173 166.516ZM620.626 169.507C620.579 169.455 620.527 169.424 620.472 169.413C620.224 169.333 619.961 169.44 619.684 169.731C619.638 169.782 619.595 169.833 619.555 169.887C619.383 170.095 619.269 170.329 619.212 170.591C619.16 170.871 619.184 171.128 619.285 171.36C619.344 171.482 619.413 171.555 619.492 171.579C619.76 171.664 620.039 171.544 620.327 171.22C620.357 171.184 620.387 171.147 620.417 171.111C620.589 170.903 620.703 170.668 620.76 170.406C620.819 170.076 620.774 169.776 620.626 169.507Z" fill="#D9D9D9"/>
<path d="M636.313 177.01C636.42 177.02 636.477 177.096 636.484 177.238L636.478 177.282L634.935 179.522L633.397 181.754L635.306 183.074L637.214 184.393L638.751 182.162L640.294 179.922L640.333 179.9C640.356 179.891 640.39 179.883 640.436 179.874C640.48 179.88 640.516 179.893 640.544 179.912C640.571 179.931 640.596 179.96 640.617 179.999C640.626 180.046 640.63 180.081 640.629 180.105L640.623 180.149L639.012 182.488L637.401 184.827L637.362 184.848C637.326 184.865 637.294 184.87 637.264 184.866L637.215 184.868L635.095 183.415L632.973 181.947L632.949 181.894C632.924 181.86 632.917 181.823 632.929 181.782L632.932 181.724L634.549 179.377L636.169 177.044L636.216 177.028L636.313 177.01Z" fill="#D9D9D9"/>
<path d="M652.458 186.942C652.482 186.944 652.782 187.171 653.359 187.624L654.216 188.297L654.229 188.345C654.235 188.392 654.237 188.428 654.235 188.452L654.226 188.495L651.239 192.316L648.251 196.137L648.211 196.156C648.142 196.179 648.078 196.175 648.017 196.144C647.986 196.119 647.963 196.089 647.949 196.052C647.926 196.017 647.921 195.98 647.936 195.94L647.943 195.882L650.85 192.164L653.757 188.445L653.002 187.853C652.499 187.457 652.243 187.248 652.236 187.226C652.209 187.162 652.204 187.103 652.222 187.049C652.237 187.019 652.257 186.992 652.283 186.97C652.332 186.941 652.39 186.931 652.458 186.942Z" fill="#D9D9D9"/>
<path d="M667.947 199.748C668.052 199.77 668.099 199.848 668.089 199.981C668.078 200.033 667.45 201.634 666.206 204.782C664.946 207.968 664.307 209.572 664.289 209.592C664.272 209.612 664.242 209.63 664.201 209.647L664.109 209.645L664.094 209.646C663.989 209.624 663.942 209.547 663.953 209.413C663.964 209.361 664.591 207.76 665.835 204.613C667.087 201.445 667.729 199.844 667.76 199.809C667.786 199.779 667.816 199.761 667.848 199.754L667.947 199.748Z" fill="#D9D9D9"/>
<path d="M682.294 215.279C682.397 215.308 682.439 215.392 682.421 215.534L682.407 215.576L680.485 217.502L678.571 219.42L680.21 221.062L681.848 222.704L683.763 220.786L685.684 218.861L685.727 218.847C685.75 218.842 685.785 218.839 685.833 218.839C685.875 218.854 685.908 218.872 685.931 218.896C685.955 218.92 685.974 218.953 685.988 218.995C685.988 219.042 685.986 219.078 685.981 219.101L685.967 219.144L683.961 221.154L681.954 223.164L681.912 223.178C681.874 223.188 681.841 223.188 681.813 223.178L681.764 223.171L679.941 221.359L678.119 219.533L678.105 219.476C678.086 219.439 678.086 219.401 678.105 219.363L678.119 219.307L680.132 217.289L682.145 215.286L682.195 215.279L682.294 215.279Z" fill="#D9D9D9"/>
<path d="M708.751 244.485L708.791 244.504L710.609 246.828L712.426 249.152L712.435 249.196C712.436 249.22 712.434 249.255 712.429 249.302L712.416 249.351L710.237 251.061L708.058 252.771L708.008 252.772C707.961 252.767 707.927 252.76 707.904 252.753L707.863 252.734L706.046 250.41L704.229 248.086L704.22 248.042C704.221 247.999 704.225 247.966 704.232 247.943C704.241 247.911 704.264 247.881 704.3 247.852C704.363 247.802 704.431 247.792 704.504 247.819L704.556 247.854L706.287 250.068L708.024 252.29L709.991 250.746L711.957 249.202L710.22 246.981L708.477 244.751L708.468 244.707C708.468 244.665 708.472 244.632 708.48 244.609C708.489 244.577 708.511 244.546 708.548 244.517C708.585 244.489 708.62 244.474 708.653 244.473C708.677 244.471 708.71 244.475 708.751 244.485ZM702.97 249.024L703.024 249.044L704.866 251.4L706.714 253.763L706.729 253.815C706.742 253.897 706.718 253.963 706.655 254.013C706.629 254.033 706.594 254.048 706.55 254.057C706.503 254.051 706.468 254.045 706.446 254.037L706.405 254.018L704.551 251.647L702.703 249.284L702.694 249.24C702.676 249.119 702.723 249.044 702.836 249.014C702.885 249.001 702.929 249.004 702.97 249.024Z" fill="#D9D9D9"/>
<path d="M722.951 261.896L722.993 261.939L722.999 261.947C723.056 262.03 723.044 262.119 722.964 262.215C722.937 262.234 722.101 262.447 720.455 262.856C718.812 263.255 717.984 263.458 717.973 263.466C717.962 263.473 717.479 264.176 716.524 265.575C715.559 266.971 715.063 267.679 715.036 267.698C714.974 267.725 714.909 267.725 714.842 267.699C714.745 267.652 714.718 267.565 714.76 267.439C714.796 267.374 715.29 266.651 716.242 265.271C717.215 263.852 717.713 263.135 717.735 263.12C717.757 263.105 718.603 262.893 720.272 262.484C721.897 262.081 722.747 261.875 722.82 261.864C722.859 261.862 722.903 261.872 722.951 261.896Z" fill="#D9D9D9"/>
<path d="M732.207 276.236C732.229 276.246 732.429 276.565 732.808 277.193L733.371 278.127L733.366 278.176C733.355 278.222 733.344 278.256 733.334 278.278L733.31 278.316L729.162 280.828L725.013 283.341L724.969 283.345C724.897 283.342 724.838 283.315 724.792 283.265C724.771 283.231 724.761 283.194 724.761 283.155C724.752 283.114 724.761 283.077 724.788 283.045L724.815 282.994L728.852 280.548L732.889 278.103L732.393 277.281C732.063 276.733 731.898 276.447 731.899 276.423C731.897 276.354 731.913 276.297 731.948 276.253C731.973 276.23 732.002 276.212 732.034 276.201C732.09 276.19 732.148 276.202 732.207 276.236Z" fill="#D9D9D9"/>
<path d="M740.707 292.386L740.739 292.403L742.433 295.637L744.126 298.87L744.123 298.906C744.105 298.93 744.093 298.944 744.088 298.947L736.4 299.227C736.346 299.225 736.317 299.226 736.311 299.229C736.251 299.215 736.179 299.129 736.096 298.969C736.012 298.81 735.982 298.702 736.004 298.644L740.584 292.474C740.625 292.422 740.648 292.395 740.654 292.392C740.66 292.389 740.678 292.387 740.707 292.386ZM742.808 298.444C742.814 298.441 742.451 297.74 741.718 296.34C740.984 294.941 740.612 294.244 740.6 294.25L737.345 298.64L742.808 298.444Z" fill="#D9D9D9"/>
<path d="M750.999 311.675C751.019 311.688 751.179 312.029 751.48 312.698L751.926 313.692L751.916 313.741C751.899 313.785 751.884 313.817 751.871 313.838L751.843 313.872L747.422 315.866L743.001 317.86L742.956 317.858C742.885 317.846 742.83 317.813 742.79 317.758C742.774 317.721 742.768 317.683 742.772 317.645C742.768 317.603 742.781 317.568 742.812 317.539L742.846 317.491L747.148 315.551L751.451 313.61L751.058 312.735C750.796 312.151 750.667 311.847 750.67 311.823C750.676 311.755 750.699 311.701 750.74 311.66C750.767 311.641 750.798 311.627 750.831 311.619C750.888 311.616 750.944 311.634 750.999 311.675Z" fill="#D9D9D9"/>
<path d="M765.573 349.693C765.652 349.766 765.652 349.857 765.574 349.965C765.52 350.017 764.834 350.56 763.515 351.593C762.163 352.658 761.475 353.194 761.449 353.202C761.424 353.21 760.553 353.16 758.837 353.054C757.166 352.954 756.293 352.898 756.219 352.886C756.108 352.865 756.057 352.79 756.066 352.662C756.086 352.593 756.126 352.542 756.186 352.509C756.218 352.499 757.08 352.544 758.773 352.644C760.461 352.753 761.312 352.805 761.324 352.801C761.337 352.797 762.007 352.27 763.336 351.22C764.672 350.174 765.356 349.646 765.388 349.636C765.455 349.629 765.517 349.648 765.573 349.693Z" fill="#D9D9D9"/>
<path d="M769.669 369.882C769.743 369.96 769.735 370.055 769.646 370.166L769.612 370.195L766.971 370.847L764.34 371.497L764.895 373.75L765.449 376.003L768.08 375.353L770.72 374.701L770.764 374.711C770.787 374.719 770.818 374.735 770.858 374.759C770.887 374.794 770.906 374.827 770.914 374.859C770.922 374.891 770.921 374.929 770.911 374.973C770.886 375.013 770.866 375.043 770.85 375.06L770.816 375.089L768.059 375.77L765.302 376.451L765.258 376.441C765.221 376.43 765.193 376.413 765.173 376.39L765.135 376.358L764.511 373.865L763.895 371.36L763.912 371.304C763.915 371.262 763.935 371.23 763.97 371.207L764.012 371.166L766.779 370.483L769.538 369.812L769.584 369.831L769.669 369.882Z" fill="#D9D9D9"/>
<path d="M778.705 411.2C778.729 411.23 778.743 411.266 778.748 411.305C778.743 411.373 778.713 411.43 778.658 411.477L778.621 411.502L773.925 412.073L769.24 412.643L769.355 413.596C769.432 414.232 769.466 414.564 769.456 414.592C769.429 414.649 769.39 414.69 769.34 414.717C769.308 414.727 769.274 414.731 769.241 414.729C769.185 414.715 769.138 414.684 769.098 414.635C769.082 414.61 769.03 414.24 768.944 413.526L768.814 412.453L768.838 412.4C768.846 412.359 768.869 412.329 768.907 412.311L768.953 412.275L773.758 411.691L778.563 411.106L778.616 411.13C778.657 411.138 778.687 411.162 778.705 411.2Z" fill="#D9D9D9"/>
<path d="M780.233 427.837C780.248 427.856 780.277 428.232 780.321 428.964L780.387 430.052L780.359 430.093C780.328 430.129 780.303 430.153 780.284 430.168L780.245 430.19L775.404 430.484L770.563 430.777L770.522 430.76C770.459 430.723 770.42 430.672 770.402 430.607C770.4 430.567 770.408 430.53 770.426 430.495C770.436 430.454 770.461 430.426 770.501 430.41L770.549 430.377L775.26 430.092L779.971 429.806L779.914 428.848C779.875 428.209 779.862 427.879 779.874 427.859C779.904 427.797 779.944 427.754 779.996 427.731C780.029 427.722 780.063 427.72 780.096 427.725C780.151 427.742 780.196 427.779 780.233 427.837Z" fill="#D9D9D9"/>
<path d="M781.552 451.07C781.572 451.104 781.582 451.14 781.582 451.18C781.569 451.247 781.532 451.3 781.472 451.34L781.432 451.36H776.582H771.732L771.692 451.34C771.659 451.32 771.635 451.297 771.622 451.27L771.592 451.23L771.582 450.14C771.582 449.394 771.602 448.994 771.642 448.94C771.669 448.914 771.699 448.897 771.732 448.89C771.765 448.884 771.799 448.884 771.832 448.89C771.885 448.91 771.929 448.95 771.962 449.01C771.975 449.03 771.982 449.36 771.982 450V450.96H776.702H781.422L781.472 450.99C781.512 451.004 781.539 451.03 781.552 451.07Z" fill="#D9D9D9"/>
<path d="M778.728 469.069C778.737 469.156 778.727 469.262 778.699 469.387C778.624 469.75 778.43 470.022 778.119 470.204C777.704 470.446 777.238 470.524 776.722 470.44C776.649 470.429 776.583 470.415 776.524 470.398C776.216 470.312 775.814 470.111 775.319 469.794C774.823 469.49 774.44 469.3 774.171 469.223C773.907 469.16 773.631 469.147 773.342 469.183C772.999 469.222 772.728 469.329 772.531 469.504C772.39 469.63 772.311 469.765 772.296 469.911C772.283 470.024 772.254 470.102 772.212 470.146C772.128 470.208 772.07 470.174 772.037 470.046C772.009 469.964 772.01 469.844 772.039 469.685C772.122 469.316 772.318 469.041 772.63 468.859C773.045 468.617 773.518 468.539 774.047 468.625C774.113 468.635 774.175 468.649 774.235 468.666C774.537 468.751 774.939 468.952 775.44 469.27C775.923 469.573 776.302 469.763 776.578 469.84C776.841 469.909 777.117 469.923 777.407 469.88C777.75 469.841 778.02 469.734 778.218 469.559C778.359 469.434 778.437 469.301 778.452 469.162C778.468 469.016 778.51 468.928 778.578 468.899C778.599 468.894 778.619 468.895 778.638 468.903C778.684 468.926 778.714 468.981 778.728 469.069Z" fill="#D9D9D9"/>
<path d="M778.53 491.62C778.547 491.642 778.554 491.667 778.551 491.693C778.545 491.746 778.482 491.789 778.364 491.822C777.929 491.923 777.496 492.115 777.065 492.399C776.846 492.547 776.638 492.71 776.442 492.887C776.094 493.214 775.812 493.569 775.598 493.953C775.557 494.015 775.532 494.049 775.525 494.055L775.492 494.081L775.363 494.065C775.243 494.051 775.18 494.02 775.172 493.972C775.17 493.938 775.199 493.868 775.259 493.761C775.512 493.328 775.809 492.958 776.149 492.65L776.205 492.596L774.718 492.405L771.74 492.043L770.249 491.872L770.292 491.937C770.548 492.318 770.748 492.748 770.891 493.229C770.923 493.347 770.934 493.423 770.924 493.455C770.905 493.5 770.836 493.515 770.717 493.5L770.588 493.485L770.562 493.451C770.556 493.444 770.54 493.405 770.515 493.335C770.399 492.911 770.21 492.498 769.95 492.097C769.831 491.915 769.672 491.708 769.471 491.475C769.108 491.095 768.733 490.804 768.348 490.603C768.235 490.542 768.181 490.485 768.188 490.432C768.194 490.379 768.26 490.337 768.384 490.305C768.806 490.202 769.239 490.01 769.683 489.728C769.896 489.579 770.1 489.419 770.295 489.248C770.652 488.909 770.934 488.55 771.141 488.172C771.182 488.11 771.206 488.076 771.214 488.07L771.247 488.044L771.376 488.06C771.495 488.075 771.559 488.106 771.566 488.154C771.569 488.188 771.54 488.261 771.479 488.375C771.225 488.807 770.929 489.174 770.59 489.475L770.532 489.539L772.021 489.72L774.999 490.082L776.488 490.264L776.447 490.188C776.19 489.814 775.99 489.387 775.847 488.906C775.815 488.781 775.804 488.703 775.815 488.671C775.834 488.626 775.903 488.611 776.022 488.625L776.151 488.641L776.177 488.674C776.183 488.682 776.198 488.721 776.223 488.791C776.334 489.207 776.522 489.623 776.787 490.038C776.965 490.288 777.129 490.493 777.277 490.652C777.628 491.03 778.002 491.321 778.4 491.524C778.48 491.587 778.523 491.619 778.53 491.62ZM777.701 491.64C777.751 491.619 777.779 491.606 777.787 491.6L777.713 491.541C777.381 491.292 777.112 491.045 776.907 490.798L776.827 490.708L773.462 490.298L770.097 489.889L769.998 489.957C769.74 490.148 769.42 490.324 769.037 490.485C768.988 490.506 768.959 490.519 768.952 490.525L769.025 490.585C769.358 490.833 769.627 491.081 769.832 491.327L769.912 491.418L773.277 491.827L776.642 492.237L776.741 492.168C776.999 491.978 777.319 491.802 777.701 491.64Z" fill="#D9D9D9"/>
<path d="M775.865 507.822C775.874 507.844 775.813 508.215 775.681 508.937L775.485 510.009L775.448 510.043C775.41 510.07 775.379 510.088 775.357 510.097L775.314 510.11L770.544 509.234L765.774 508.358L765.738 508.331C765.686 508.281 765.66 508.222 765.659 508.154C765.666 508.114 765.682 508.08 765.708 508.051C765.728 508.014 765.759 507.993 765.801 507.987L765.856 507.966L770.498 508.819L775.14 509.671L775.313 508.727C775.428 508.097 775.494 507.774 775.511 507.757C775.554 507.704 775.604 507.672 775.66 507.662C775.694 507.661 775.727 507.667 775.759 507.68C775.807 507.709 775.843 507.757 775.865 507.822Z" fill="#D9D9D9"/>
<path d="M770.595 530.854C770.598 530.896 770.592 530.949 770.576 531.014C770.485 531.383 770.18 531.561 769.661 531.55C769.346 531.548 769.121 531.485 768.986 531.363C768.852 531.24 768.804 531.071 768.844 530.854C768.892 530.66 769.012 530.531 769.206 530.469C769.295 530.443 769.388 530.442 769.485 530.466C769.582 530.49 769.664 530.534 769.73 530.599C769.844 530.696 769.896 530.832 769.887 531.008C769.884 531.049 769.892 531.071 769.912 531.076L769.979 531.052L769.992 531.044C770.113 530.999 770.152 530.909 770.109 530.775C770.103 530.746 770.089 530.718 770.068 530.693C769.951 530.526 769.578 530.324 768.95 530.087C768.706 529.992 768.375 529.873 767.957 529.728C766.738 529.297 765.36 528.733 763.821 528.037C763.593 527.933 763.38 527.836 763.182 527.746C762.504 527.379 762.149 526.965 762.118 526.504C762.119 526.36 762.143 526.236 762.189 526.13C762.334 525.85 762.624 525.716 763.061 525.728C763.376 525.73 763.601 525.792 763.736 525.915C763.87 526.037 763.918 526.207 763.878 526.424C763.83 526.618 763.71 526.746 763.516 526.808C763.427 526.834 763.334 526.836 763.237 526.812C763.14 526.788 763.058 526.743 762.992 526.679C762.878 526.582 762.826 526.446 762.835 526.269C762.838 526.229 762.83 526.206 762.811 526.201C762.739 526.211 762.684 526.242 762.644 526.294C762.598 526.338 762.587 526.4 762.608 526.481C762.626 526.575 762.707 526.677 762.851 526.788C763.077 526.933 763.717 527.191 764.772 527.562C766.024 528.001 767.384 528.557 768.852 529.228C769.453 529.493 769.865 529.715 770.089 529.894C770.1 529.904 770.112 529.914 770.123 529.923C770.274 530.064 770.379 530.182 770.437 530.279C770.554 530.445 770.607 530.637 770.595 530.854Z" fill="#D9D9D9"/>
<path d="M758.514 569.069C758.512 569.111 758.499 569.163 758.476 569.225C758.341 569.581 758.017 569.721 757.503 569.647C757.191 569.607 756.975 569.518 756.856 569.38C756.737 569.242 756.711 569.068 756.776 568.858C756.847 568.67 756.982 568.558 757.182 568.52C757.273 568.504 757.366 568.515 757.459 568.55C757.553 568.586 757.628 568.639 757.687 568.711C757.788 568.821 757.823 568.963 757.793 569.137C757.785 569.177 757.79 569.2 757.809 569.207L757.879 569.191L757.892 569.185C758.018 569.155 758.068 569.07 758.042 568.932C758.039 568.902 758.028 568.873 758.01 568.845C757.914 568.666 757.569 568.421 756.974 568.109C756.743 567.985 756.428 567.827 756.031 567.633C754.873 567.058 753.573 566.332 752.13 565.455C751.916 565.324 751.716 565.202 751.531 565.088C750.901 564.642 750.599 564.189 750.624 563.727C750.642 563.585 750.681 563.464 750.739 563.365C750.917 563.104 751.221 563.006 751.653 563.07C751.966 563.111 752.181 563.2 752.3 563.338C752.419 563.476 752.446 563.65 752.38 563.86C752.31 564.047 752.174 564.16 751.975 564.198C751.883 564.213 751.791 564.203 751.697 564.168C751.604 564.132 751.528 564.078 751.47 564.006C751.369 563.897 751.333 563.755 751.363 563.581C751.371 563.541 751.366 563.518 751.347 563.51C751.276 563.512 751.217 563.536 751.17 563.582C751.12 563.62 751.101 563.681 751.113 563.764C751.119 563.859 751.188 563.97 751.317 564.098C751.523 564.269 752.128 564.602 753.131 565.098C754.32 565.685 755.603 566.401 756.98 567.245C757.544 567.581 757.927 567.851 758.128 568.055C758.138 568.066 758.148 568.077 758.158 568.088C758.291 568.246 758.38 568.376 758.427 568.479C758.523 568.658 758.552 568.855 758.514 569.069Z" fill="#D9D9D9"/>
<path d="M750.533 584.868C750.51 584.952 750.463 585.048 750.393 585.156C750.194 585.468 749.917 585.654 749.561 585.713C749.087 585.792 748.624 585.7 748.172 585.438C748.108 585.401 748.051 585.365 748.002 585.328C747.744 585.138 747.439 584.807 747.089 584.335C746.733 583.874 746.443 583.561 746.218 583.394C745.994 583.241 745.74 583.131 745.457 583.062C745.123 582.976 744.832 582.981 744.586 583.074C744.409 583.141 744.288 583.24 744.222 583.371C744.17 583.472 744.115 583.535 744.06 583.561C743.96 583.589 743.917 583.537 743.933 583.405C743.935 583.318 743.978 583.206 744.062 583.069C744.27 582.753 744.551 582.565 744.907 582.506C745.38 582.427 745.85 582.522 746.314 582.79C746.372 582.823 746.426 582.858 746.475 582.895C746.727 583.082 747.031 583.413 747.388 583.888C747.732 584.343 748.019 584.656 748.25 584.825C748.471 584.984 748.725 585.094 749.01 585.157C749.345 585.243 749.636 585.238 749.882 585.145C750.058 585.078 750.178 584.982 750.242 584.857C750.308 584.726 750.378 584.659 750.453 584.656C750.474 584.658 750.492 584.666 750.507 584.681C750.542 584.718 750.55 584.78 750.533 584.868Z" fill="#D9D9D9"/>
<path d="M742.371 605.889C742.379 605.916 742.377 605.941 742.365 605.965C742.34 606.012 742.267 606.03 742.145 606.018C741.702 605.959 741.229 605.985 740.726 606.097C740.469 606.158 740.217 606.236 739.971 606.333C739.529 606.515 739.14 606.747 738.804 607.03C738.744 607.073 738.709 607.096 738.7 607.099L738.659 607.112L738.544 607.051C738.438 606.995 738.39 606.944 738.4 606.896C738.409 606.864 738.461 606.808 738.555 606.729C738.945 606.415 739.354 606.174 739.78 606.006L739.852 605.977L738.529 605.27L735.874 603.873L734.542 603.184L734.558 603.26C734.663 603.707 734.697 604.181 734.661 604.681C734.649 604.803 734.633 604.878 734.612 604.904C734.578 604.939 734.508 604.929 734.402 604.873L734.287 604.812L734.274 604.772C734.272 604.763 734.271 604.721 734.272 604.647C734.314 604.209 734.284 603.756 734.182 603.289C734.136 603.076 734.06 602.825 733.955 602.536C733.75 602.052 733.503 601.647 733.214 601.322C733.13 601.225 733.1 601.153 733.125 601.105C733.149 601.058 733.226 601.042 733.353 601.056C733.785 601.11 734.257 601.083 734.772 600.977C735.023 600.914 735.271 600.837 735.514 600.746C735.968 600.555 736.358 600.32 736.685 600.04C736.746 599.997 736.78 599.973 736.789 599.971L736.83 599.958L736.945 600.019C737.051 600.074 737.099 600.126 737.089 600.174C737.08 600.206 737.027 600.265 736.93 600.349C736.539 600.664 736.132 600.902 735.709 601.063L735.632 601.102L736.96 601.8L739.615 603.197L740.943 603.895L740.931 603.81C740.823 603.369 740.788 602.898 740.824 602.397C740.838 602.269 740.856 602.192 740.878 602.166C740.911 602.131 740.981 602.141 741.087 602.197L741.202 602.257L741.215 602.298C741.218 602.307 741.218 602.349 741.217 602.423C741.173 602.852 741.201 603.308 741.302 603.79C741.38 604.087 741.46 604.336 741.543 604.538C741.736 605.016 741.983 605.421 742.284 605.753C742.336 605.84 742.365 605.885 742.371 605.889ZM741.589 605.613C741.643 605.611 741.674 605.609 741.683 605.606L741.636 605.525C741.413 605.174 741.249 604.847 741.145 604.543L741.102 604.431L738.102 602.853L735.101 601.275L734.985 601.304C734.676 601.39 734.315 601.441 733.9 601.457C733.846 601.459 733.815 601.461 733.806 601.464L733.854 601.545C734.076 601.896 734.24 602.223 734.344 602.526L734.387 602.639L737.387 604.217L740.388 605.795L740.505 605.766C740.813 605.68 741.175 605.629 741.589 605.613Z" fill="#D9D9D9"/>
<path d="M734.149 620.096C734.15 620.12 733.962 620.446 733.583 621.074L733.02 622.007L732.973 622.026C732.928 622.037 732.893 622.043 732.869 622.044L732.824 622.041L728.676 619.528L724.528 617.015L724.504 616.977C724.473 616.912 724.469 616.847 724.492 616.783C724.513 616.749 724.54 616.723 724.575 616.705C724.607 616.677 724.643 616.668 724.684 616.678L724.743 616.678L728.78 619.123L732.817 621.569L733.313 620.747C733.644 620.199 733.82 619.92 733.841 619.909C733.901 619.875 733.959 619.864 734.015 619.874C734.047 619.886 734.075 619.903 734.1 619.926C734.135 619.971 734.152 620.027 734.149 620.096Z" fill="#D9D9D9"/>
<path d="M721.492 637.082C721.482 637.189 721.407 637.246 721.264 637.253L721.22 637.246L718.983 635.699L716.754 634.158L715.438 636.068L714.122 637.979L716.351 639.52L718.588 641.068L718.609 641.107C718.618 641.129 718.627 641.163 718.635 641.21C718.629 641.254 718.617 641.29 718.598 641.318C718.579 641.345 718.55 641.37 718.511 641.391C718.464 641.4 718.429 641.404 718.405 641.403L718.361 641.397L716.025 639.781L713.689 638.166L713.668 638.127C713.652 638.091 713.646 638.059 713.65 638.029L713.648 637.979L715.098 635.857L716.561 633.733L716.614 633.708C716.648 633.683 716.685 633.676 716.726 633.688L716.784 633.692L719.128 635.313L721.458 636.937L721.474 636.984L721.492 637.082Z" fill="#D9D9D9"/>
<path d="M709.766 655.637L709.737 655.691L709.731 655.698C709.67 655.777 709.581 655.793 709.466 655.745C709.44 655.724 708.988 654.988 708.109 653.535C707.24 652.082 706.8 651.351 706.79 651.343C706.779 651.334 705.966 651.081 704.349 650.584C702.732 650.077 701.91 649.813 701.884 649.792C701.839 649.741 701.82 649.679 701.826 649.607C701.841 649.5 701.915 649.449 702.049 649.451C702.122 649.466 702.957 649.724 704.555 650.224C706.196 650.733 707.028 650.995 707.049 651.012C707.07 651.028 707.523 651.774 708.409 653.249C709.276 654.684 709.725 655.435 709.757 655.503C709.771 655.539 709.774 655.584 709.766 655.637Z" fill="#D9D9D9"/>
<path d="M698.48 669.222C698.458 669.327 698.381 669.374 698.248 669.363C698.176 669.344 697.358 669.037 695.793 668.441C694.185 667.834 693.371 667.522 693.351 667.504C693.331 667.486 692.924 666.714 692.128 665.188C691.35 663.704 690.947 662.927 690.919 662.858C690.879 662.751 690.917 662.669 691.031 662.61C691.101 662.591 691.165 662.599 691.224 662.633C691.249 662.656 691.656 663.418 692.445 664.921C693.225 666.424 693.619 667.18 693.629 667.189C693.639 667.198 694.436 667.5 696.02 668.094C697.604 668.698 698.408 669.011 698.433 669.033C698.474 669.087 698.49 669.15 698.48 669.222Z" fill="#D9D9D9"/>
<path d="M685.203 683.51C685.175 683.614 685.095 683.656 684.963 683.637C684.911 683.623 683.355 682.899 680.294 681.464C677.195 680.011 675.636 679.275 675.617 679.256C675.599 679.237 675.582 679.206 675.568 679.164L675.575 679.072L675.575 679.058C675.603 678.954 675.683 678.912 675.815 678.93C675.867 678.945 677.423 679.669 680.484 681.103C683.564 682.547 685.121 683.286 685.154 683.319C685.182 683.347 685.199 683.378 685.203 683.411L685.203 683.51Z" fill="#D9D9D9"/>
<path d="M669.327 698.595C669.314 698.641 669.145 698.792 668.818 699.046C668.794 699.059 668.774 699.072 668.759 699.085C668.311 699.394 667.892 699.539 667.501 699.52C667.294 699.517 667.097 699.45 666.912 699.321C666.875 699.3 666.561 698.955 665.97 698.285C665.364 697.611 665.041 697.26 665 697.234C664.836 697.129 664.665 697.072 664.487 697.061C664.143 697.045 663.828 697.151 663.54 697.38C663.446 697.454 663.381 697.481 663.344 697.46C663.326 697.449 663.286 697.409 663.224 697.339C663.136 697.239 663.102 697.171 663.123 697.135C663.134 697.116 663.167 697.078 663.222 697.02C663.483 696.762 663.627 696.461 663.652 696.117C663.663 695.938 663.626 695.761 663.543 695.586C663.522 695.542 663.213 695.178 662.618 694.495C662.026 693.825 661.722 693.471 661.705 693.432C661.6 693.232 661.558 693.029 661.58 692.822C661.608 692.431 661.802 692.032 662.162 691.623C662.349 691.413 662.531 691.246 662.708 691.125C662.747 691.108 662.815 691.155 662.912 691.265L663.018 691.385L663.016 691.427C663.019 691.451 662.983 691.496 662.908 691.562C662.467 691.989 662.293 692.385 662.384 692.75C662.391 692.779 662.402 692.806 662.414 692.83L662.446 692.896L663.326 693.906C663.935 694.605 664.254 694.986 664.283 695.049L664.307 695.121C664.431 695.413 664.43 695.739 664.304 696.1C664.253 696.243 664.191 696.379 664.117 696.507C664.09 696.557 664.074 696.585 664.069 696.589L664.157 696.552C664.292 696.494 664.434 696.448 664.582 696.414C664.955 696.333 665.279 696.372 665.552 696.53C665.648 696.578 665.787 696.705 665.968 696.91L666.638 697.652L667.539 698.657L667.594 698.688C667.909 698.864 668.3 698.788 668.768 698.462C668.818 698.427 668.865 698.39 668.91 698.35C668.984 698.283 669.033 698.253 669.057 698.259L669.099 698.262L669.212 698.389C669.295 698.484 669.334 698.553 669.327 698.595Z" fill="#D9D9D9"/>
<path d="M640.454 720.714L640.441 720.748L637.439 722.824L634.437 724.9L634.401 724.901C634.375 724.887 634.36 724.877 634.356 724.871L633.158 717.262C633.153 717.208 633.149 717.179 633.145 717.173C633.152 717.112 633.229 717.03 633.377 716.928C633.525 716.825 633.629 716.782 633.688 716.798L640.353 720.602C640.409 720.637 640.439 720.656 640.442 720.662C640.446 720.667 640.45 720.685 640.454 720.714ZM634.701 723.538C634.705 723.544 635.356 723.097 636.656 722.199C637.955 721.3 638.601 720.845 638.594 720.834L633.853 718.13L634.701 723.538Z" fill="#D9D9D9"/>
<path d="M622.589 733.301C622.579 733.323 622.26 733.524 621.633 733.904L620.701 734.469L620.651 734.464C620.605 734.452 620.571 734.442 620.55 734.431L620.512 734.407L618.006 730.255L615.501 726.102L615.497 726.057C615.501 725.985 615.527 725.926 615.577 725.88C615.612 725.86 615.648 725.849 615.687 725.849C615.728 725.84 615.765 725.849 615.797 725.876L615.848 725.903L618.287 729.945L620.725 733.986L621.546 733.489C622.093 733.157 622.379 732.992 622.403 732.993C622.472 732.99 622.528 733.007 622.573 733.042C622.596 733.067 622.613 733.096 622.624 733.128C622.635 733.184 622.623 733.242 622.589 733.301Z" fill="#D9D9D9"/>
<path d="M602.055 745.165C602.047 745.192 602.031 745.211 602.007 745.224C601.96 745.249 601.889 745.222 601.795 745.143C601.465 744.842 601.061 744.595 600.583 744.402C600.337 744.305 600.085 744.227 599.828 744.167C599.361 744.066 598.909 744.036 598.472 744.078C598.397 744.079 598.355 744.078 598.346 744.076L598.306 744.063L598.246 743.948C598.19 743.842 598.18 743.772 598.215 743.738C598.241 743.717 598.315 743.7 598.437 743.689C598.937 743.652 599.41 743.686 599.856 743.79L599.933 743.806L599.245 742.473L597.853 739.815L597.149 738.491L597.119 738.564C596.951 738.991 596.71 739.4 596.396 739.791C596.317 739.885 596.262 739.937 596.229 739.947C596.181 739.957 596.13 739.908 596.074 739.802L596.014 739.687L596.026 739.646C596.029 739.637 596.052 739.603 596.096 739.542C596.379 739.205 596.611 738.816 596.793 738.373C596.876 738.172 596.956 737.922 597.034 737.625C597.14 737.11 597.167 736.636 597.114 736.205C597.099 736.077 597.116 736 597.163 735.976C597.21 735.951 597.282 735.981 597.379 736.065C597.704 736.354 598.108 736.601 598.591 736.806C598.835 736.897 599.082 736.974 599.333 737.037C599.815 737.138 600.27 737.166 600.698 737.122C600.773 737.12 600.815 737.121 600.824 737.124L600.864 737.136L600.924 737.251C600.98 737.358 600.99 737.428 600.955 737.461C600.929 737.483 600.852 737.501 600.724 737.515C600.224 737.552 599.754 737.517 599.314 737.409L599.229 737.398L599.925 738.726L601.317 741.384L602.013 742.713L602.051 742.636C602.213 742.212 602.451 741.804 602.765 741.413C602.85 741.316 602.909 741.262 602.941 741.253C602.989 741.243 603.04 741.291 603.096 741.397L603.156 741.512L603.144 741.553C603.141 741.562 603.118 741.597 603.074 741.657C602.794 741.985 602.559 742.376 602.368 742.831C602.263 743.119 602.188 743.37 602.141 743.583C602.028 744.086 602.002 744.56 602.061 745.003C602.054 745.105 602.052 745.159 602.055 745.165ZM601.568 744.494C601.614 744.523 601.641 744.539 601.65 744.542L601.657 744.447C601.673 744.032 601.724 743.67 601.81 743.361L601.839 743.244L600.267 740.241L598.694 737.238L598.581 737.196C598.278 737.091 597.952 736.928 597.602 736.705C597.556 736.676 597.529 736.66 597.52 736.658L597.513 736.752C597.497 737.167 597.446 737.529 597.36 737.838L597.331 737.955L598.904 740.958L600.476 743.961L600.589 744.004C600.892 744.108 601.218 744.271 601.568 744.494Z" fill="#D9D9D9"/>
<path d="M581.582 754.101C581.56 754.133 581.53 754.157 581.494 754.173C581.428 754.188 581.364 754.177 581.303 754.139L581.268 754.11L579.908 751.082L578.548 748.053L578.55 748.009C578.561 747.937 578.595 747.882 578.65 747.843C578.687 747.826 578.724 747.82 578.763 747.825C578.805 747.82 578.84 747.834 578.869 747.865L578.916 747.898L579.556 749.321L580.191 750.735L582.214 749.822L584.238 748.91L584.296 748.917C584.338 748.912 584.373 748.926 584.402 748.957C584.457 748.998 584.481 749.052 584.476 749.121C584.48 749.163 584.466 749.198 584.435 749.227L584.402 749.275L582.378 750.187L580.355 751.1L580.99 752.514L581.629 753.937L581.622 753.995C581.626 754.037 581.613 754.072 581.582 754.101Z" fill="#D9D9D9"/>
<path d="M570.207 758.712L570.186 758.742L566.774 760.038L563.362 761.335L563.327 761.327C563.305 761.306 563.293 761.293 563.29 761.287L563.946 753.613C563.955 753.56 563.958 753.531 563.955 753.524C563.976 753.467 564.071 753.406 564.239 753.342C564.407 753.278 564.518 753.261 564.572 753.29L570.135 758.579C570.181 758.626 570.205 758.652 570.208 758.658C570.21 758.665 570.21 758.683 570.207 758.712ZM563.944 760.076C563.946 760.082 564.686 759.805 566.163 759.243C567.64 758.682 568.376 758.395 568.371 758.383L564.414 754.623L563.944 760.076Z" fill="#D9D9D9"/>
<path d="M547.29 767.447C547.211 767.527 547.122 767.523 547.025 767.435C547.004 767.414 546.514 765.859 545.554 762.772C544.593 759.684 544.116 758.126 544.12 758.096C544.14 757.979 544.209 757.922 544.329 757.926C544.359 757.931 544.386 757.94 544.411 757.953C544.444 757.971 544.475 758.024 544.503 758.113C544.583 758.326 545.06 759.839 545.935 762.652C546.888 765.714 547.366 767.262 547.369 767.296C547.366 767.353 547.339 767.403 547.29 767.447ZM545.438 768.025C545.387 768.083 545.313 768.092 545.216 768.052C545.183 768.035 545.153 767.981 545.125 767.892C545.045 767.68 544.567 766.167 543.692 763.353C542.73 760.259 542.26 758.681 542.282 758.618C542.339 758.509 542.423 758.476 542.534 758.518C542.559 758.531 542.582 758.549 542.603 758.57C542.623 758.592 543.114 760.146 544.074 763.234C545.034 766.321 545.512 767.88 545.507 767.909C545.5 767.953 545.477 767.992 545.438 768.025Z" fill="#D9D9D9"/>
<path d="M524.676 773.027C524.648 773.054 524.615 773.073 524.576 773.082C524.508 773.085 524.448 773.062 524.394 773.014L524.366 772.98L523.572 769.756L522.779 766.532L522.789 766.488C522.814 766.42 522.857 766.372 522.918 766.343C522.957 766.333 522.995 766.334 523.032 766.346C523.074 766.349 523.107 766.369 523.129 766.404L523.17 766.446L523.543 767.96L523.913 769.466L526.068 768.933L528.224 768.401L528.279 768.418C528.321 768.422 528.354 768.441 528.376 768.477C528.423 768.527 528.437 768.585 528.419 768.651C528.416 768.694 528.396 768.726 528.36 768.748L528.319 768.789L526.164 769.322L524.009 769.854L524.379 771.359L524.751 772.874L524.734 772.93C524.731 772.972 524.711 773.004 524.676 773.027Z" fill="#D9D9D9"/>
<path d="M507.693 777.086C507.664 777.112 507.63 777.128 507.591 777.136C507.523 777.135 507.464 777.108 507.413 777.056L507.387 777.021L506.536 772.368L505.686 767.725L504.742 767.898C504.113 768.014 503.784 768.067 503.755 768.059C503.697 768.036 503.653 768 503.623 767.951C503.611 767.919 503.605 767.887 503.605 767.853C503.616 767.797 503.644 767.747 503.69 767.705C503.714 767.687 504.08 767.613 504.788 767.483L505.851 767.288L505.905 767.308C505.947 767.314 505.978 767.336 505.998 767.373L506.037 767.416L506.907 772.177L507.778 776.938L507.758 776.993C507.752 777.035 507.73 777.066 507.693 777.086Z" fill="#D9D9D9"/>
<path d="M489.43 780.055C489.412 780.077 489.39 780.09 489.364 780.093C489.304 780.1 489.264 780.072 489.242 780.007L489.193 779.852C489.048 779.426 488.815 779.055 488.494 778.738C488.363 778.593 488.21 778.474 488.038 778.381C487.69 778.168 487.328 778.037 486.953 777.989C486.857 777.974 486.805 777.963 486.798 777.957C486.768 777.934 486.748 777.876 486.737 777.784C486.724 777.678 486.743 777.612 486.793 777.585C486.819 777.575 486.876 777.575 486.964 777.585C487.737 777.699 488.376 778.041 488.882 778.611C488.897 778.622 488.908 778.634 488.916 778.647L488.998 778.737L488.537 774.935L488.076 771.133L488.019 771.241C487.771 771.741 487.4 772.149 486.908 772.464C486.584 772.671 486.352 772.777 486.211 772.78C486.156 772.774 486.122 772.714 486.109 772.601C486.098 772.509 486.104 772.448 486.127 772.418C486.133 772.411 486.18 772.388 486.27 772.35C486.622 772.213 486.942 772 487.23 771.71C487.375 771.578 487.494 771.426 487.587 771.253C487.823 770.868 487.96 770.452 488 770.004L488.011 769.842C488.016 769.774 488.048 769.736 488.108 769.729C488.134 769.726 488.159 769.733 488.181 769.75C488.21 769.774 488.243 769.847 488.278 769.97C488.409 770.384 488.642 770.755 488.977 771.084C489.109 771.229 489.261 771.348 489.433 771.441C489.781 771.654 490.143 771.785 490.518 771.833C490.614 771.849 490.666 771.859 490.673 771.865C490.703 771.888 490.723 771.946 490.735 772.039C490.747 772.145 490.729 772.211 490.678 772.237C490.652 772.247 490.595 772.247 490.507 772.238C489.734 772.123 489.095 771.781 488.59 771.212C488.575 771.2 488.563 771.188 488.555 771.176L488.473 771.085L488.934 774.887L489.395 778.689L489.452 778.581C489.701 778.081 490.068 777.674 490.553 777.36C490.897 777.143 491.132 777.037 491.26 777.042C491.315 777.049 491.349 777.108 491.363 777.221C491.374 777.313 491.368 777.375 491.345 777.404C491.339 777.412 491.291 777.434 491.202 777.472C490.849 777.609 490.529 777.823 490.242 778.113C490.097 778.245 489.977 778.397 489.884 778.569C489.637 778.969 489.5 779.388 489.473 779.828C489.467 779.95 489.453 780.025 489.43 780.055Z" fill="#D9D9D9"/>
<path d="M471.24 781.561C471.22 781.576 470.845 781.605 470.113 781.65L469.025 781.716L468.983 781.688C468.948 781.657 468.923 781.632 468.908 781.613L468.886 781.574L468.594 776.733L468.302 771.891L468.319 771.85C468.355 771.788 468.406 771.748 468.472 771.731C468.512 771.728 468.549 771.736 468.584 771.754C468.625 771.765 468.653 771.79 468.669 771.829L468.701 771.877L468.986 776.589L469.27 781.3L470.229 781.242C470.867 781.203 471.197 781.19 471.218 781.202C471.28 781.232 471.322 781.273 471.346 781.325C471.354 781.357 471.356 781.391 471.352 781.424C471.335 781.479 471.298 781.524 471.24 781.561Z" fill="#D9D9D9"/>
</svg>
