<svg width="779" height="850" viewBox="0 0 779 850" fill="none" xmlns="http://www.w3.org/2000/svg">
<path d="M445.393 731.126C445.359 731.146 445.323 731.156 445.283 731.156C445.216 731.143 445.163 731.106 445.123 731.046L445.103 731.006V727.686V724.366L445.123 724.326C445.163 724.266 445.216 724.23 445.283 724.216C445.323 724.216 445.359 724.226 445.393 724.246C445.433 724.26 445.459 724.286 445.473 724.326L445.503 724.376V725.936V727.486H447.723H449.943L449.993 727.516C450.033 727.53 450.059 727.556 450.073 727.596C450.106 727.656 450.106 727.716 450.073 727.776C450.059 727.816 450.033 727.843 449.993 727.856L449.943 727.886H447.723H445.503V729.436V730.996L445.473 731.046C445.459 731.086 445.433 731.113 445.393 731.126Z" fill="#737373"/>
<path d="M431.13 731.786C431.033 731.834 430.948 731.802 430.875 731.691C430.851 731.643 430.36 729.997 429.4 726.753C428.429 723.468 427.945 721.812 427.947 721.785C427.948 721.759 427.96 721.726 427.983 721.687L428.056 721.632L428.067 721.622C428.163 721.575 428.248 721.607 428.321 721.718C428.345 721.766 428.837 723.412 429.796 726.656C430.761 729.921 431.243 731.576 431.24 731.623C431.237 731.663 431.225 731.695 431.204 731.721L431.13 731.786Z" fill="#737373"/>
<path d="M407.656 729.208C407.534 729.213 407.427 729.183 407.334 729.118C407.184 729.026 407.123 728.871 407.149 728.653C407.173 728.454 407.257 728.092 407.402 727.565C407.447 727.41 407.516 727.149 407.607 726.784L407.618 726.695L407.556 726.708C407.529 726.704 407.427 726.719 407.249 726.751C407.008 726.795 406.818 726.812 406.678 726.802C406.552 726.787 406.459 726.755 406.398 726.708C406.261 726.617 406.201 726.475 406.217 726.283C406.239 726.104 406.331 725.981 406.494 725.913C406.565 725.882 406.663 725.874 406.789 725.889C406.927 725.912 407.108 725.975 407.33 726.076C407.496 726.15 407.592 726.188 407.618 726.191L407.676 726.218L407.672 726.168C407.67 726.073 407.664 725.871 407.655 725.561C407.618 725.14 407.622 724.748 407.666 724.384C407.816 723.146 408.033 721.853 408.318 720.504C408.371 720.229 408.409 720.082 408.431 720.065L408.465 720.038L408.653 720.061L408.842 720.084L408.868 720.118C408.886 720.14 408.887 720.291 408.874 720.572C408.828 721.95 408.73 723.257 408.58 724.495C408.535 724.859 408.445 725.241 408.31 725.641C408.227 725.94 408.173 726.134 408.148 726.226L408.132 726.274L408.194 726.261C408.221 726.265 408.323 726.25 408.502 726.218C408.742 726.174 408.932 726.156 409.072 726.167C409.198 726.182 409.291 726.213 409.353 726.261C409.489 726.352 409.55 726.493 409.533 726.686C409.511 726.865 409.419 726.988 409.256 727.055C409.185 727.087 409.087 727.095 408.961 727.08C408.823 727.056 408.643 726.994 408.42 726.893C408.254 726.819 408.158 726.781 408.132 726.778L408.075 726.75L408.064 726.84C408.065 727.216 408.069 727.485 408.077 727.647C408.103 728.369 408.085 728.797 408.022 728.93C407.963 729.084 407.841 729.177 407.656 729.208Z" fill="#737373"/>
<path d="M368.362 721.874C368.32 721.877 368.267 721.871 368.202 721.855C367.833 721.763 367.654 721.458 367.665 720.939C367.667 720.624 367.73 720.399 367.852 720.264C367.974 720.13 368.144 720.082 368.361 720.122C368.555 720.17 368.683 720.291 368.745 720.485C368.771 720.574 368.772 720.667 368.749 720.764C368.725 720.861 368.68 720.943 368.616 721.009C368.52 721.123 368.383 721.175 368.207 721.166C368.166 721.162 368.144 721.171 368.139 721.19L368.164 721.258L368.171 721.27C368.217 721.391 368.306 721.431 368.44 721.388C368.47 721.382 368.497 721.368 368.523 721.347C368.689 721.23 368.89 720.857 369.127 720.229C369.222 719.984 369.341 719.653 369.485 719.236C369.915 718.017 370.477 716.638 371.172 715.1C371.276 714.871 371.373 714.658 371.463 714.461C371.829 713.782 372.242 713.427 372.703 713.397C372.847 713.398 372.971 713.422 373.076 713.469C373.357 713.613 373.491 713.904 373.48 714.341C373.478 714.656 373.415 714.881 373.293 715.016C373.171 715.15 373.001 715.198 372.784 715.158C372.59 715.11 372.462 714.989 372.4 714.795C372.374 714.706 372.373 714.613 372.396 714.516C372.42 714.419 372.465 714.337 372.529 714.271C372.625 714.157 372.762 714.105 372.938 714.114C372.979 714.117 373.001 714.109 373.006 714.09C372.996 714.019 372.965 713.963 372.913 713.923C372.869 713.878 372.807 713.866 372.726 713.887C372.633 713.905 372.53 713.986 372.419 714.13C372.275 714.356 372.018 714.996 371.648 716.052C371.21 717.303 370.656 718.663 369.985 720.132C369.721 720.733 369.499 721.145 369.321 721.369C369.311 721.38 369.301 721.391 369.292 721.403C369.152 721.553 369.033 721.658 368.936 721.717C368.77 721.834 368.579 721.886 368.362 721.874Z" fill="#737373"/>
<path d="M353.558 716.536L353.514 716.543L351.051 715.774L348.588 715.005L348.559 714.964C348.537 714.922 348.523 714.89 348.516 714.867L348.509 714.823L349.352 712.111L350.195 709.399L350.226 709.367C350.282 709.321 350.344 709.302 350.412 709.309C350.45 709.321 350.482 709.342 350.508 709.371C350.542 709.396 350.56 709.429 350.561 709.471L350.574 709.528L349.77 712.116L348.965 714.703L351.179 715.395L353.394 716.086L354.199 713.498L355.006 710.901L355.037 710.869C355.093 710.824 355.155 710.804 355.223 710.812C355.261 710.824 355.293 710.844 355.319 710.873C355.353 710.898 355.371 710.931 355.371 710.973L355.385 711.03L354.539 713.751L353.686 716.46L353.645 716.49C353.627 716.505 353.598 716.52 353.558 716.536Z" fill="#737373"/>
<path d="M330.285 710.113C330.247 710.12 330.209 710.116 330.172 710.102C330.114 710.065 330.077 710.012 330.061 709.942L330.056 709.897L331.731 705.474L333.402 701.059L332.504 700.718C331.906 700.491 331.597 700.366 331.577 700.344C331.539 700.294 331.52 700.241 331.52 700.184C331.525 700.15 331.537 700.119 331.555 700.09C331.593 700.047 331.642 700.02 331.704 700.008C331.734 700.005 332.085 700.131 332.758 700.387L333.768 700.77L333.804 700.816C333.836 700.843 333.852 700.877 333.85 700.92L333.861 700.977L332.147 705.504L330.434 710.03L330.388 710.066C330.362 710.099 330.327 710.114 330.285 710.113Z" fill="#737373"/>
<path d="M313.235 702.991C313.128 703.001 313.059 702.937 313.026 702.798L313.024 702.753L315.011 698.329L316.999 693.905L317.033 693.877C317.065 693.854 317.096 693.843 317.126 693.841C317.158 693.834 317.196 693.84 317.238 693.859C317.281 693.879 317.31 693.903 317.326 693.932C317.345 693.955 317.357 693.986 317.361 694.025L317.363 694.069L315.372 698.503L313.371 702.932L313.328 702.956L313.235 702.991Z" fill="#737373"/>
<path d="M296.802 695.028C296.778 695.03 296.441 694.861 295.792 694.519L294.827 694.012L294.806 693.967C294.792 693.922 294.784 693.887 294.781 693.863L294.782 693.819L297.032 689.522L299.283 685.226L299.319 685.2C299.382 685.165 299.447 685.158 299.512 685.177C299.547 685.196 299.575 685.222 299.595 685.255C299.624 685.285 299.636 685.321 299.629 685.363L299.632 685.421L297.442 689.602L295.252 693.783L296.102 694.23C296.668 694.528 296.957 694.688 296.969 694.709C297.006 694.766 297.022 694.823 297.015 694.88C297.005 694.912 296.989 694.942 296.968 694.968C296.926 695.006 296.87 695.026 296.802 695.028Z" fill="#737373"/>
<path d="M275.953 683.215C275.914 683.215 275.878 683.205 275.843 683.184C275.793 683.138 275.766 683.079 275.763 683.007L275.767 682.962L278.272 678.81L280.778 674.657L280.815 674.633C280.85 674.615 280.882 674.607 280.912 674.609L280.961 674.604L281.899 675.161C282.537 675.547 282.869 675.772 282.894 675.834C282.903 675.87 282.902 675.905 282.89 675.937C282.879 675.969 282.862 675.997 282.839 676.022C282.794 676.058 282.737 676.074 282.669 676.071C282.645 676.072 282.359 675.907 281.812 675.576L280.991 675.078L278.552 679.12L276.114 683.161L276.063 683.188C276.031 683.216 275.994 683.225 275.953 683.215Z" fill="#737373"/>
<path d="M262.351 672.544C262.244 672.535 262.187 672.459 262.18 672.316L262.186 672.272L263.729 670.032L265.267 667.8L263.359 666.481L261.45 665.161L259.913 667.393L258.37 669.633L258.331 669.654C258.309 669.663 258.274 669.672 258.228 669.68C258.184 669.674 258.148 669.661 258.12 669.642C258.093 669.623 258.069 669.594 258.047 669.555C258.039 669.509 258.034 669.473 258.035 669.449L258.041 669.405L259.652 667.066L261.263 664.727L261.302 664.706C261.338 664.69 261.37 664.684 261.4 664.688L261.45 664.686L263.569 666.14L265.691 667.607L265.715 667.661C265.74 667.694 265.747 667.731 265.736 667.772L265.732 667.83L264.115 670.177L262.496 672.51L262.448 672.526L262.351 672.544Z" fill="#737373"/>
<path d="M227.875 647.563C227.846 647.564 227.822 647.556 227.802 647.539C227.763 647.503 227.763 647.428 227.803 647.312C227.966 646.895 228.054 646.429 228.065 645.913C228.068 645.648 228.052 645.385 228.017 645.122C227.946 644.649 227.814 644.215 227.62 643.82C227.592 643.751 227.578 643.711 227.577 643.702L227.575 643.66L227.661 643.562C227.74 643.472 227.802 643.438 227.846 643.459C227.875 643.476 227.917 643.54 227.971 643.65C228.182 644.105 228.318 644.56 228.379 645.015L228.39 645.092L229.391 643.975L231.379 641.728L232.365 640.597L232.287 640.595C231.829 640.589 231.362 640.509 230.885 640.353C230.769 640.313 230.701 640.28 230.681 640.252C230.655 640.211 230.681 640.146 230.761 640.056L230.847 639.959L230.889 639.956C230.899 639.956 230.939 639.965 231.011 639.984C231.426 640.129 231.872 640.209 232.349 640.222C232.567 640.228 232.828 640.215 233.132 640.182C233.651 640.099 234.102 639.956 234.486 639.753C234.601 639.694 234.678 639.682 234.718 639.717C234.758 639.753 234.755 639.831 234.711 639.952C234.556 640.358 234.469 640.825 234.448 641.35C234.45 641.61 234.466 641.869 234.495 642.128C234.572 642.615 234.707 643.051 234.9 643.436C234.928 643.506 234.942 643.545 234.943 643.554L234.945 643.597L234.859 643.694C234.78 643.784 234.718 643.818 234.674 643.797C234.645 643.78 234.601 643.714 234.542 643.6C234.331 643.145 234.197 642.692 234.141 642.241L234.122 642.157L233.129 643.281L231.141 645.529L230.148 646.652L230.233 646.661C230.686 646.662 231.151 646.741 231.628 646.896C231.748 646.941 231.819 646.977 231.839 647.004C231.865 647.045 231.839 647.11 231.759 647.2L231.673 647.298L231.631 647.3C231.621 647.301 231.581 647.291 231.509 647.272C231.104 647.126 230.655 647.045 230.163 647.027C229.857 647.032 229.596 647.05 229.381 647.082C228.871 647.155 228.42 647.298 228.027 647.511C227.93 647.54 227.879 647.558 227.875 647.563ZM228.328 646.869C228.317 646.921 228.312 646.952 228.312 646.962L228.403 646.935C228.796 646.803 229.152 646.722 229.471 646.693L229.59 646.679L231.836 644.139L234.081 641.6L234.081 641.479C234.071 641.158 234.108 640.794 234.192 640.387C234.203 640.335 234.208 640.304 234.208 640.294L234.117 640.321C233.724 640.454 233.368 640.534 233.049 640.563L232.93 640.577L230.684 643.117L228.439 645.657L228.439 645.777C228.449 646.098 228.412 646.462 228.328 646.869Z" fill="#737373"/>
<path d="M212.298 631.537C212.26 631.528 212.227 631.509 212.199 631.481C212.161 631.424 212.149 631.36 212.163 631.289L212.177 631.247L214.523 628.897L216.868 626.547L216.91 626.533C216.981 626.519 217.045 626.531 217.101 626.568C217.129 626.597 217.148 626.63 217.158 626.667C217.176 626.705 217.176 626.743 217.158 626.781L217.143 626.837L216.041 627.942L214.947 629.039L216.515 630.61L218.083 632.181L218.097 632.238C218.116 632.276 218.116 632.313 218.097 632.351C218.078 632.417 218.036 632.46 217.97 632.479C217.932 632.497 217.895 632.497 217.857 632.479L217.8 632.464L216.232 630.893L214.664 629.322L213.569 630.419L212.467 631.523L212.411 631.537C212.373 631.556 212.335 631.556 212.298 631.537Z" fill="#737373"/>
<path d="M202.677 619.744C202.575 619.71 202.538 619.622 202.566 619.482L202.582 619.441L204.616 617.635L206.643 615.836L205.106 614.098L203.57 612.36L201.543 614.159L199.509 615.964L199.466 615.976C199.442 615.979 199.406 615.98 199.359 615.977C199.318 615.96 199.286 615.939 199.264 615.914C199.242 615.889 199.225 615.855 199.214 615.812C199.216 615.765 199.221 615.73 199.227 615.706L199.244 615.665L201.368 613.779L203.492 611.894L203.535 611.882C203.573 611.875 203.606 611.877 203.633 611.888L203.682 611.898L205.392 613.817L207.101 615.75L207.112 615.807C207.128 615.846 207.126 615.884 207.105 615.92L207.087 615.976L204.956 617.868L202.826 619.746L202.776 619.75L202.677 619.744Z" fill="#737373"/>
<path d="M189.883 604.412C189.784 604.371 189.752 604.282 189.788 604.144L189.807 604.103L191.946 602.424L194.078 600.75L192.649 598.923L191.22 597.095L189.088 598.768L186.949 600.448L186.905 600.457C186.881 600.459 186.846 600.457 186.799 600.451C186.758 600.432 186.728 600.409 186.707 600.383C186.687 600.357 186.672 600.322 186.663 600.278C186.669 600.231 186.676 600.196 186.683 600.173L186.702 600.133L188.936 598.379L191.17 596.626L191.214 596.617C191.252 596.612 191.285 596.616 191.312 596.629L191.36 596.641L192.951 598.66L194.54 600.692L194.547 600.75C194.562 600.79 194.557 600.828 194.534 600.863L194.513 600.917L192.271 602.677L190.031 604.423L189.981 604.424L189.883 604.412Z" fill="#737373"/>
<path d="M177.422 590.122C177.4 590.113 177.181 589.807 176.765 589.203L176.146 588.305L176.148 588.255C176.157 588.209 176.165 588.175 176.174 588.152L176.196 588.113L180.185 585.354L184.174 582.595L184.218 582.589C184.29 582.588 184.35 582.611 184.399 582.658C184.422 582.691 184.434 582.727 184.437 582.766C184.449 582.806 184.442 582.844 184.416 582.877L184.392 582.931L180.51 585.615L176.628 588.3L177.173 589.091C177.536 589.618 177.718 589.893 177.718 589.917C177.725 589.986 177.712 590.043 177.679 590.09C177.656 590.115 177.628 590.134 177.597 590.147C177.542 590.161 177.483 590.153 177.422 590.122Z" fill="#737373"/>
<path d="M167.964 574.515L167.931 574.5L166.046 571.375L164.16 568.25L164.162 568.213C164.178 568.188 164.188 568.174 164.194 568.17L171.85 567.426C171.904 567.425 171.934 567.422 171.939 567.419C172 567.429 172.077 567.511 172.17 567.665C172.263 567.819 172.3 567.926 172.28 567.984L168.082 574.421C168.044 574.474 168.023 574.503 168.017 574.507C168.011 574.51 167.993 574.513 167.964 574.515ZM165.501 568.595C165.495 568.598 165.901 569.276 166.717 570.629C167.533 571.982 167.947 572.655 167.958 572.648L170.942 568.07L165.501 568.595Z" fill="#737373"/>
<path d="M148.683 536.093C148.636 536.019 148.595 535.921 148.561 535.797C148.46 535.44 148.505 535.109 148.696 534.804C148.951 534.396 149.327 534.11 149.823 533.944C149.893 533.92 149.957 533.902 150.018 533.89C150.33 533.822 150.78 533.813 151.365 533.863C151.945 533.902 152.372 533.892 152.646 533.834C152.908 533.767 153.159 533.65 153.398 533.484C153.684 533.289 153.873 533.069 153.967 532.822C154.034 532.645 154.04 532.489 153.986 532.352C153.946 532.246 153.934 532.164 153.952 532.105C153.997 532.011 154.064 532.014 154.152 532.113C154.216 532.172 154.271 532.279 154.318 532.433C154.416 532.798 154.37 533.134 154.178 533.439C153.923 533.847 153.541 534.136 153.033 534.307C152.97 534.328 152.908 534.345 152.848 534.357C152.541 534.423 152.092 534.431 151.5 534.384C150.932 534.34 150.509 534.348 150.229 534.409C149.964 534.47 149.713 534.586 149.476 534.759C149.191 534.953 149.001 535.174 148.908 535.421C148.841 535.598 148.833 535.751 148.884 535.882C148.938 536.018 148.942 536.115 148.895 536.173C148.879 536.187 148.861 536.196 148.84 536.198C148.789 536.199 148.737 536.164 148.683 536.093Z" fill="#737373"/>
<path d="M141.168 520.822L141.139 520.801L139.847 517.387L138.555 513.974L138.563 513.939C138.583 513.917 138.596 513.904 138.602 513.902L146.269 514.551C146.322 514.56 146.351 514.563 146.357 514.56C146.415 514.581 146.476 514.676 146.54 514.844C146.603 515.012 146.621 515.123 146.591 515.177L141.301 520.75C141.255 520.796 141.228 520.821 141.222 520.823C141.216 520.825 141.198 520.825 141.168 520.822ZM139.812 514.555C139.806 514.557 140.082 515.297 140.641 516.775C141.201 518.253 141.487 518.989 141.499 518.985L145.259 515.02L139.812 514.555Z" fill="#737373"/>
<path d="M127.645 480.545C127.571 480.467 127.576 480.377 127.66 480.273C127.717 480.225 128.435 479.725 129.814 478.773C131.228 477.792 131.947 477.299 131.973 477.292C131.999 477.286 132.865 477.388 134.571 477.598C136.234 477.799 137.102 477.907 137.174 477.924C137.284 477.951 137.331 478.029 137.314 478.157C137.29 478.225 137.247 478.273 137.185 478.302C137.153 478.31 136.295 478.213 134.611 478.011C132.932 477.8 132.086 477.697 132.073 477.7C132.06 477.703 131.359 478.189 129.97 479.157C128.573 480.12 127.859 480.605 127.826 480.613C127.758 480.616 127.698 480.594 127.645 480.545Z" fill="#737373"/>
<path d="M122.882 458.211L122.844 458.167L122.65 457.105C122.52 456.397 122.459 456.028 122.468 456C122.491 455.941 122.527 455.897 122.576 455.868C122.607 455.856 122.64 455.849 122.674 455.85C122.73 455.86 122.779 455.888 122.822 455.935C122.84 455.959 122.906 456.285 123.021 456.915L123.194 457.859L127.836 457.007L132.489 456.152L132.532 456.165C132.598 456.193 132.643 456.239 132.669 456.302C132.676 456.342 132.673 456.38 132.659 456.416C132.653 456.458 132.632 456.489 132.595 456.509L132.551 456.548L127.79 457.422L123.03 458.296L122.975 458.275C122.934 458.27 122.903 458.248 122.882 458.211Z" fill="#737373"/>
<path d="M120.356 441.697C120.34 441.679 120.288 441.305 120.2 440.577L120.069 439.495L120.094 439.452C120.123 439.415 120.147 439.389 120.165 439.373L120.202 439.348L125.017 438.762L129.831 438.177L129.873 438.192C129.938 438.224 129.981 438.273 130.002 438.337C130.007 438.377 130.001 438.415 129.985 438.45C129.977 438.491 129.954 438.521 129.915 438.539L129.869 438.575L125.184 439.145L120.499 439.715L120.614 440.668C120.691 441.303 120.724 441.632 120.713 441.653C120.687 441.717 120.649 441.762 120.599 441.788C120.566 441.799 120.533 441.803 120.499 441.8C120.444 441.787 120.396 441.752 120.356 441.697Z" fill="#737373"/>
<path d="M118.643 415.753C118.621 415.721 118.609 415.685 118.607 415.646C118.616 415.578 118.65 415.523 118.707 415.479L118.746 415.457L122.06 415.256L125.374 415.055L125.415 415.073C125.477 415.109 125.517 415.16 125.534 415.226C125.537 415.266 125.529 415.303 125.511 415.337C125.5 415.378 125.475 415.406 125.436 415.422L125.388 415.455L123.831 415.549L122.283 415.643L122.417 417.859L122.551 420.075L122.524 420.127C122.513 420.167 122.488 420.196 122.449 420.211C122.391 420.248 122.331 420.252 122.269 420.222C122.229 420.211 122.2 420.186 122.185 420.147L122.152 420.099L122.018 417.883L121.884 415.667L120.337 415.761L118.78 415.855L118.728 415.829C118.687 415.818 118.659 415.793 118.643 415.753Z" fill="#737373"/>
<path d="M118.452 377.685C118.434 377.651 118.426 377.614 118.428 377.574C118.446 377.508 118.485 377.457 118.548 377.421L118.589 377.403L123.43 377.697L128.271 377.99L128.31 378.012C128.342 378.034 128.364 378.059 128.376 378.087L128.403 378.128L128.347 379.217C128.302 379.962 128.258 380.36 128.215 380.411C128.187 380.436 128.156 380.451 128.122 380.456C128.089 380.46 128.055 380.458 128.023 380.45C127.97 380.426 127.93 380.384 127.9 380.322C127.888 380.301 127.901 379.971 127.94 379.332L127.998 378.374L123.286 378.089L118.575 377.803L118.527 377.77C118.488 377.754 118.463 377.726 118.452 377.685Z" fill="#737373"/>
<path d="M121.184 355.765C121.168 355.73 121.162 355.692 121.167 355.652C121.188 355.588 121.231 355.539 121.295 355.507L121.338 355.492L124.633 355.893L127.929 356.294L127.966 356.318C128.021 356.365 128.051 356.423 128.056 356.49C128.051 356.53 128.037 356.565 128.013 356.596C127.995 356.634 127.966 356.657 127.924 356.666L127.871 356.69L126.322 356.501L124.784 356.314L124.517 358.518L124.25 360.722L124.214 360.768C124.196 360.806 124.166 360.829 124.125 360.837C124.061 360.863 124.002 360.856 123.946 360.816C123.908 360.798 123.885 360.768 123.876 360.727L123.853 360.673L124.12 358.469L124.387 356.266L122.848 356.078L121.299 355.89L121.253 355.854C121.215 355.836 121.192 355.806 121.184 355.765Z" fill="#737373"/>
<path d="M122.808 341.692C122.773 341.59 122.815 341.51 122.934 341.451C122.985 341.433 124.677 341.144 128.013 340.583C131.39 340.017 133.091 339.737 133.117 339.742C133.144 339.746 133.175 339.762 133.21 339.789L133.257 339.869L133.265 339.88C133.301 339.982 133.259 340.062 133.139 340.122C133.089 340.14 131.396 340.429 128.061 340.989C124.704 341.552 123.003 341.829 122.958 341.821C122.918 341.814 122.887 341.798 122.865 341.773L122.808 341.692Z" fill="#737373"/>
<path d="M133.161 299.505C133.152 299.467 133.153 299.429 133.165 299.391C133.197 299.331 133.248 299.291 133.317 299.271L133.361 299.264L137.876 300.674L142.382 302.08L142.667 301.164C142.857 300.553 142.962 300.236 142.983 300.215C143.031 300.174 143.083 300.152 143.14 300.148C143.174 300.152 143.205 300.162 143.235 300.178C143.28 300.213 143.311 300.261 143.327 300.322C143.332 300.351 143.227 300.71 143.013 301.397L142.692 302.429L142.649 302.468C142.624 302.502 142.591 302.519 142.549 302.52L142.492 302.534L137.872 301.091L133.252 299.649L133.213 299.605C133.179 299.581 133.162 299.547 133.161 299.505Z" fill="#737373"/>
<path d="M138.571 283.701C138.566 283.677 138.693 283.323 138.953 282.637L139.338 281.618L139.381 281.591C139.424 281.571 139.457 281.559 139.48 281.554L139.525 281.549L144.058 283.272L148.592 284.995L148.622 285.028C148.664 285.086 148.68 285.149 148.668 285.216C148.654 285.254 148.632 285.285 148.601 285.309C148.575 285.341 148.541 285.357 148.498 285.355L148.441 285.365L144.029 283.689L139.617 282.012L139.277 282.91C139.05 283.509 138.927 283.815 138.908 283.829C138.855 283.873 138.801 283.895 138.744 283.895C138.71 283.889 138.679 283.877 138.65 283.859C138.607 283.822 138.581 283.769 138.571 283.701Z" fill="#737373"/>
<path d="M154.782 247.006C154.78 246.982 154.948 246.645 155.289 245.995L155.794 245.03L155.84 245.008C155.885 244.994 155.919 244.986 155.943 244.983L155.988 244.984L160.28 247.242L164.573 249.499L164.599 249.536C164.633 249.599 164.641 249.663 164.622 249.728C164.603 249.764 164.578 249.792 164.544 249.812C164.514 249.841 164.478 249.852 164.437 249.846L164.378 249.849L160.201 247.652L156.023 245.455L155.578 246.305C155.281 246.872 155.122 247.162 155.101 247.173C155.043 247.211 154.986 247.226 154.93 247.219C154.897 247.209 154.868 247.194 154.841 247.172C154.804 247.13 154.784 247.074 154.782 247.006Z" fill="#737373"/>
<path d="M166.722 226.652C166.911 226.236 167.222 225.965 167.657 225.838C167.73 225.82 167.8 225.808 167.866 225.801C168.034 225.794 168.185 225.807 168.32 225.842C168.44 225.876 168.545 225.92 168.637 225.976C168.848 226.103 168.919 226.275 168.851 226.491C168.842 226.532 168.825 226.573 168.801 226.613C168.76 226.681 168.701 226.74 168.626 226.787C168.46 226.882 168.294 226.867 168.127 226.743C168.031 226.669 167.973 226.579 167.952 226.472L167.943 226.351C167.946 226.321 167.949 226.303 167.952 226.297C167.924 226.28 167.851 226.291 167.734 226.329C167.585 226.371 167.451 226.45 167.334 226.566C167.246 226.661 167.182 226.767 167.143 226.883C167.121 227.01 167.144 227.153 167.212 227.311C167.268 227.438 167.379 227.576 167.547 227.724C167.706 227.86 167.881 227.969 168.072 228.054C168.382 228.172 168.674 228.192 168.946 228.115C169.077 228.078 169.225 228 169.39 227.882C169.755 227.651 170.098 227.496 170.418 227.417C170.588 227.38 170.76 227.367 170.932 227.378C171.157 227.405 171.361 227.474 171.544 227.584C171.715 227.688 171.849 227.801 171.947 227.922C172.202 228.209 172.335 228.543 172.347 228.924C172.348 228.948 172.347 228.975 172.345 229.005C172.344 229.059 172.341 229.089 172.338 229.094L172.379 229.084C172.408 229.062 172.456 229.041 172.523 229.019C172.823 228.897 173.121 228.848 173.418 228.872C173.771 228.906 174.078 229.061 174.34 229.337C174.54 229.536 174.677 229.779 174.753 230.066C174.8 230.259 174.81 230.455 174.782 230.657C174.717 231.139 174.468 231.499 174.037 231.737C173.934 231.791 173.828 231.832 173.718 231.859C173.584 231.887 173.445 231.893 173.3 231.875C173.092 231.858 172.914 231.805 172.765 231.715C172.554 231.587 172.483 231.415 172.551 231.199C172.56 231.158 172.577 231.118 172.601 231.078C172.701 230.912 172.832 230.836 172.996 230.849C173.163 230.857 173.294 230.936 173.389 231.087C173.44 231.157 173.464 231.242 173.459 231.34C173.456 231.37 173.454 231.387 173.45 231.393C173.479 231.41 173.551 231.4 173.668 231.361C173.818 231.32 173.951 231.241 174.068 231.124C174.156 231.03 174.22 230.924 174.259 230.807C174.281 230.681 174.258 230.538 174.19 230.38C174.134 230.253 174.02 230.113 173.847 229.961C173.699 229.833 173.523 229.723 173.322 229.632C173.013 229.523 172.725 229.504 172.456 229.575C172.325 229.613 172.178 229.688 172.017 229.8C171.648 230.037 171.306 230.192 170.989 230.265C170.815 230.308 170.639 230.322 170.461 230.308C170.248 230.287 170.047 230.22 169.859 230.106C169.687 230.003 169.553 229.89 169.455 229.768C169.2 229.481 169.067 229.147 169.055 228.766C169.054 228.742 169.055 228.715 169.057 228.686C169.059 228.632 169.061 228.602 169.064 228.596L169.023 228.606C168.995 228.628 168.947 228.65 168.879 228.671C168.579 228.794 168.281 228.843 167.984 228.819C167.723 228.801 167.469 228.698 167.224 228.51C166.992 228.315 166.826 228.094 166.726 227.846C166.655 227.718 166.617 227.574 166.612 227.415C166.587 227.134 166.623 226.88 166.722 226.652ZM169.71 228.204C169.658 228.251 169.627 228.302 169.617 228.358C169.537 228.606 169.643 228.869 169.935 229.147C169.985 229.193 170.037 229.236 170.091 229.276C170.298 229.449 170.532 229.564 170.794 229.621C171.074 229.673 171.33 229.649 171.562 229.548C171.683 229.489 171.756 229.42 171.78 229.341C171.864 229.072 171.745 228.793 171.421 228.504C171.384 228.474 171.348 228.444 171.312 228.414C171.104 228.242 170.87 228.127 170.608 228.07C170.278 228.01 169.979 228.055 169.71 228.204Z" fill="#737373"/>
<path d="M185.566 210.143C185.573 210.075 185.604 210.024 185.66 209.989C185.727 209.963 185.792 209.963 185.854 209.99L185.903 210.024L188.554 214.69C190.324 217.82 191.212 219.386 191.218 219.39C191.241 219.438 191.224 219.504 191.168 219.586C191.134 219.636 191.103 219.663 191.075 219.668C191.038 219.675 190.296 219.547 188.85 219.284L186.667 218.893C186.663 218.898 186.668 219.032 186.683 219.293C186.702 219.558 186.7 219.702 186.676 219.726C186.664 219.742 186.61 219.762 186.514 219.784C186.462 219.789 186.404 219.797 186.339 219.809C186.3 219.807 186.272 219.783 186.254 219.738L186.136 217.918C186.133 217.899 186.137 217.882 186.148 217.865C186.174 217.827 186.225 217.813 186.298 217.823L188.332 218.185L190.278 218.533L187.943 214.414C186.361 211.633 185.573 210.245 185.578 210.249C185.562 210.214 185.558 210.178 185.566 210.143Z" fill="#737373"/>
<path d="M188.01 194.729C188.007 194.701 188.013 194.676 188.03 194.655C188.067 194.608 188.116 194.6 188.176 194.63L188.321 194.705C188.724 194.904 189.151 195.001 189.602 194.999C189.797 195.009 189.989 194.985 190.177 194.929C190.573 194.834 190.921 194.67 191.22 194.439C191.299 194.382 191.342 194.353 191.352 194.352C191.389 194.347 191.445 194.374 191.518 194.431C191.602 194.497 191.635 194.557 191.618 194.612C191.607 194.637 191.567 194.677 191.498 194.733C190.871 195.199 190.178 195.409 189.418 195.364C189.399 195.366 189.383 195.365 189.368 195.362L189.246 195.356L192.259 197.721L195.272 200.086L195.236 199.969C195.058 199.439 195.031 198.889 195.157 198.317C195.239 197.941 195.329 197.702 195.425 197.6C195.469 197.566 195.535 197.584 195.624 197.654C195.697 197.712 195.736 197.76 195.741 197.797C195.742 197.806 195.724 197.856 195.688 197.946C195.535 198.293 195.46 198.67 195.463 199.079C195.453 199.275 195.476 199.467 195.532 199.655C195.638 200.094 195.835 200.486 196.124 200.831L196.231 200.953C196.275 201.005 196.279 201.054 196.242 201.102C196.225 201.123 196.203 201.135 196.175 201.138C196.138 201.143 196.063 201.114 195.951 201.051C195.566 200.851 195.139 200.753 194.67 200.758C194.474 200.748 194.283 200.771 194.095 200.828C193.699 200.923 193.351 201.087 193.052 201.318C192.973 201.375 192.929 201.404 192.92 201.405C192.882 201.41 192.827 201.383 192.754 201.325C192.67 201.26 192.636 201.2 192.653 201.145C192.665 201.12 192.705 201.079 192.774 201.024C193.401 200.558 194.094 200.348 194.854 200.393C194.872 200.391 194.889 200.391 194.904 200.394L195.025 200.401L192.013 198.036L189 195.671L189.036 195.788C189.214 196.318 189.242 196.866 189.121 197.432C189.032 197.827 188.94 198.069 188.846 198.157C188.803 198.19 188.737 198.172 188.648 198.102C188.574 198.045 188.535 197.997 188.531 197.96C188.53 197.95 188.547 197.901 188.584 197.811C188.736 197.464 188.811 197.087 188.809 196.678C188.819 196.482 188.795 196.29 188.739 196.102C188.632 195.644 188.432 195.25 188.14 194.92C188.058 194.83 188.015 194.766 188.01 194.729Z" fill="#737373"/>
<path d="M201.833 180.977C201.88 180.903 201.953 180.825 202.052 180.743C202.335 180.504 202.655 180.409 203.012 180.458C203.487 180.524 203.902 180.75 204.256 181.135C204.306 181.189 204.349 181.24 204.385 181.29C204.576 181.548 204.768 181.955 204.962 182.51C205.164 183.056 205.348 183.442 205.513 183.668C205.681 183.88 205.891 184.061 206.14 184.212C206.434 184.393 206.713 184.475 206.976 184.459C207.164 184.448 207.309 184.389 207.411 184.284C207.491 184.203 207.562 184.159 207.623 184.15C207.727 184.154 207.752 184.216 207.698 184.337C207.67 184.419 207.595 184.514 207.474 184.62C207.182 184.86 206.858 184.956 206.501 184.906C206.025 184.84 205.605 184.611 205.242 184.217C205.196 184.167 205.156 184.118 205.12 184.068C204.934 183.814 204.742 183.408 204.543 182.848C204.35 182.311 204.169 181.927 203.999 181.696C203.835 181.479 203.626 181.298 203.372 181.153C203.078 180.972 202.799 180.89 202.536 180.906C202.348 180.917 202.205 180.973 202.108 181.073C202.005 181.179 201.918 181.222 201.846 181.203C201.827 181.194 201.812 181.181 201.802 181.163C201.78 181.117 201.79 181.055 201.833 180.977Z" fill="#737373"/>
<path d="M212.631 167.825L212.638 167.789L215.216 165.206L217.795 162.622L217.83 162.615C217.858 162.625 217.875 162.632 217.88 162.636L220.43 169.906C220.444 169.958 220.453 169.986 220.458 169.991C220.463 170.052 220.401 170.146 220.274 170.274C220.147 170.401 220.053 170.462 219.992 170.458L212.751 167.917C212.69 167.893 212.657 167.879 212.652 167.874C212.647 167.87 212.64 167.853 212.631 167.825ZM217.781 164.01C217.776 164.005 217.216 164.562 216.099 165.68C214.983 166.798 214.43 167.362 214.439 167.372L219.589 169.177L217.781 164.01Z" fill="#737373"/>
<path d="M227.935 152.219C227.941 152.195 228.219 151.94 228.767 151.453L229.582 150.73L229.632 150.726C229.679 150.729 229.714 150.733 229.737 150.739L229.779 150.756L232.991 154.389L236.204 158.023L236.215 158.066C236.225 158.138 236.21 158.2 236.169 158.255C236.139 158.281 236.105 158.298 236.067 158.305C236.028 158.322 235.99 158.32 235.954 158.298L235.898 158.281L232.772 154.745L229.645 151.209L228.927 151.846C228.449 152.271 228.197 152.485 228.174 152.488C228.107 152.503 228.048 152.497 227.998 152.471C227.971 152.45 227.949 152.425 227.932 152.396C227.911 152.342 227.912 152.283 227.935 152.219Z" fill="#737373"/>
<path d="M245.9 137.197L245.921 137.142L246.77 136.475C247.336 136.031 247.634 135.806 247.663 135.8C247.726 135.793 247.781 135.804 247.83 135.834C247.856 135.856 247.876 135.882 247.892 135.913C247.909 135.967 247.907 136.024 247.885 136.083C247.872 136.11 247.614 136.321 247.111 136.716L246.356 137.309L249.263 141.028L252.177 144.754L252.185 144.798C252.191 144.87 252.172 144.931 252.127 144.983C252.096 145.008 252.061 145.022 252.022 145.027C251.983 145.042 251.945 145.037 251.91 145.014L251.856 144.993L248.874 141.18L245.893 137.367L245.886 137.309C245.872 137.269 245.876 137.232 245.9 137.197Z" fill="#737373"/>
<path d="M279.428 114.235C279.446 114.2 279.472 114.173 279.506 114.152C279.57 114.129 279.635 114.133 279.7 114.163L279.738 114.187L282.243 118.34L284.749 122.493L284.752 122.537C284.752 122.576 284.744 122.608 284.728 122.633L284.71 122.68L283.783 123.253C283.144 123.64 282.791 123.83 282.725 123.823C282.689 123.814 282.659 123.797 282.636 123.772C282.613 123.747 282.596 123.719 282.584 123.687C282.574 123.631 282.586 123.573 282.62 123.513C282.63 123.491 282.909 123.315 283.456 122.983L284.277 122.486L281.839 118.444L279.401 114.403L279.401 114.345C279.391 114.303 279.4 114.267 279.428 114.235Z" fill="#737373"/>
<path d="M292.186 107.711L292.203 107.68L295.433 105.981L298.664 104.282L298.7 104.286C298.724 104.303 298.737 104.315 298.741 104.321L299.013 112.018C299.011 112.072 299.012 112.102 299.015 112.108C299.001 112.168 298.915 112.24 298.756 112.323C298.596 112.407 298.488 112.438 298.431 112.415L292.273 107.835C292.221 107.794 292.194 107.771 292.191 107.765C292.188 107.759 292.186 107.741 292.186 107.711ZM298.238 105.602C298.235 105.596 297.534 105.961 296.135 106.696C294.737 107.432 294.041 107.805 294.047 107.817L298.428 111.072L298.238 105.602Z" fill="#737373"/>
<path d="M311.436 97.3746C311.449 97.3542 311.79 97.1933 312.458 96.8918L313.452 96.4437L313.501 96.4546C313.545 96.4713 313.577 96.4861 313.597 96.4988L313.632 96.5271L315.619 100.951L317.606 105.375L317.604 105.42C317.593 105.491 317.559 105.547 317.504 105.586C317.467 105.603 317.43 105.609 317.391 105.604C317.349 105.608 317.314 105.595 317.285 105.564L317.238 105.531L315.304 101.225L313.37 96.9196L312.495 97.3142C311.911 97.5773 311.608 97.7069 311.584 97.703C311.516 97.6972 311.461 97.6742 311.421 97.6337C311.401 97.6061 311.388 97.5757 311.38 97.5425C311.377 97.4856 311.395 97.4297 311.436 97.3746Z" fill="#737373"/>
<path d="M335.658 87.9989C335.683 87.9683 335.713 87.946 335.751 87.9318C335.818 87.9205 335.881 87.9359 335.939 87.9778L335.972 88.0081L337.147 91.1131L338.322 94.2182L338.318 94.2627C338.302 94.333 338.265 94.3862 338.207 94.4224C338.17 94.4366 338.132 94.4403 338.094 94.4334C338.052 94.4351 338.017 94.4197 337.991 94.387L337.945 94.3509L337.393 92.8919L336.844 91.4423L334.769 92.2309L332.694 93.0195L332.636 93.0092C332.594 93.0109 332.56 92.9954 332.533 92.9628C332.481 92.9185 332.46 92.8624 332.47 92.7944C332.468 92.7523 332.483 92.7178 332.516 92.6912L332.552 92.6454L334.627 91.8568L336.703 91.0682L336.154 89.6185L335.602 88.1595L335.612 88.1021C335.61 88.06 335.626 88.0256 335.658 87.9989Z" fill="#737373"/>
<path d="M350.334 84.0257C350.407 83.947 350.502 83.9488 350.618 84.0312L350.649 84.0634L351.457 86.6607L352.262 89.2485L354.476 88.557L356.691 87.8656L355.886 85.2778L355.078 82.6805L355.085 82.6364C355.092 82.6133 355.107 82.5809 355.128 82.5391C355.161 82.5081 355.193 82.4876 355.225 82.4777C355.256 82.4678 355.294 82.4664 355.338 82.4735C355.38 82.4954 355.41 82.514 355.429 82.5291L355.46 82.5613L356.303 85.2732L357.147 87.9851L357.14 88.0292C357.13 88.067 357.115 88.0963 357.094 88.1169L357.064 88.1575L354.614 88.933L352.151 89.702L352.095 89.6882C352.053 89.6874 352.019 89.6699 351.995 89.6357L351.951 89.5969L351.105 86.8754L350.271 84.1606L350.288 84.1134L350.334 84.0257Z" fill="#737373"/>
<path d="M368.671 77.2544C368.749 77.1802 368.839 77.1853 368.942 77.2697C368.991 77.3265 369.49 78.0444 370.44 79.4234C371.419 80.8365 371.912 81.556 371.919 81.5819C371.925 81.6078 371.822 82.4744 371.611 84.1816C371.409 85.8451 371.3 86.7133 371.283 86.786C371.255 86.8959 371.178 86.9426 371.05 86.9261C370.982 86.9016 370.934 86.8586 370.905 86.7971C370.897 86.7647 370.995 85.9062 371.198 84.2216C371.41 82.5419 371.514 81.6956 371.511 81.6826C371.508 81.6697 371.023 80.9688 370.057 79.58C369.095 78.1831 368.61 77.4685 368.602 77.4361C368.599 77.3682 368.622 77.3076 368.671 77.2544Z" fill="#737373"/>
<path d="M388.747 74.0357L388.791 73.9972L391.693 73.4644L394.584 72.9334L394.627 72.9459C394.649 72.9554 394.68 72.9735 394.718 73.0003C394.745 73.036 394.762 73.0703 394.768 73.1031C394.774 73.1359 394.771 73.1738 394.758 73.2167C394.731 73.2555 394.709 73.2833 394.692 73.3L394.656 73.3269L391.873 73.838L389.099 74.3473L389.549 76.8065L389.999 79.2657L392.772 78.7564L395.546 78.2471L395.599 78.2578C395.678 78.2839 395.725 78.3363 395.739 78.415C395.745 78.4478 395.742 78.4856 395.73 78.5286C395.703 78.5674 395.681 78.5952 395.663 78.6119L395.628 78.6388L392.726 79.1716L389.825 79.7044L389.782 79.6919C389.744 79.6717 389.717 79.653 389.7 79.6357L389.664 79.6018L389.159 76.8984L388.663 74.1835L388.683 74.1289C388.689 74.0871 388.71 74.0561 388.747 74.0357ZM389.958 81.266L390.013 81.2355L392.954 80.6955L395.895 80.1555L395.948 80.1661C396.027 80.1922 396.074 80.2446 396.088 80.3233C396.094 80.3561 396.091 80.394 396.079 80.4369C396.052 80.4758 396.03 80.5035 396.013 80.5203L395.977 80.5472L393.016 81.0908L390.066 81.6326L390.023 81.6201C389.985 81.5999 389.958 81.5812 389.941 81.5639C389.917 81.5413 389.9 81.507 389.892 81.4611C389.878 81.3824 389.9 81.3174 389.958 81.266Z" fill="#737373"/>
<path d="M407.462 69.9268C407.481 69.9112 407.854 69.8591 408.582 69.7705L409.664 69.6389L409.707 69.6638C409.744 69.6929 409.771 69.7165 409.786 69.7348L409.811 69.7721L410.394 74.5869L410.978 79.4016L410.963 79.4438C410.93 79.5082 410.882 79.551 410.817 79.5723C410.777 79.5771 410.74 79.5716 410.704 79.5558C410.663 79.5474 410.633 79.5241 410.615 79.486L410.58 79.44L410.012 74.7543L409.444 70.0686L408.491 70.1845C407.856 70.2618 407.527 70.295 407.506 70.2842C407.442 70.2584 407.397 70.2202 407.371 70.1697C407.36 70.1374 407.356 70.1043 407.359 70.0704C407.372 70.015 407.407 69.9672 407.462 69.9268Z" fill="#737373"/>
<path d="M429.211 67.674C429.229 67.6528 429.252 67.6414 429.279 67.6398C429.339 67.6362 429.377 67.6672 429.394 67.733L429.434 67.8908C429.554 68.3244 429.764 68.7091 430.065 69.0448C430.188 69.1977 430.332 69.3258 430.499 69.4293C430.833 69.6628 431.187 69.815 431.558 69.886C431.653 69.907 431.704 69.9206 431.711 69.9268C431.739 69.9518 431.756 70.0109 431.762 70.1041C431.768 70.2106 431.745 70.2754 431.693 70.2986C431.667 70.3069 431.61 70.3036 431.522 70.2889C430.758 70.1282 430.141 69.7482 429.67 69.1489C429.656 69.1364 429.645 69.1237 429.638 69.1107L429.562 69.0152L429.793 72.8382L430.024 76.6612L430.087 76.5572C430.365 76.0728 430.76 75.6883 431.27 75.4035C431.606 75.2162 431.844 75.1249 431.985 75.1298C432.039 75.1399 432.069 75.2015 432.076 75.3146C432.082 75.4078 432.072 75.4685 432.047 75.4967C432.041 75.5038 431.992 75.5234 431.9 75.5557C431.54 75.671 431.208 75.8648 430.904 76.137C430.751 76.2599 430.623 76.4045 430.519 76.5711C430.261 76.9407 430.098 77.348 430.032 77.7928L430.012 77.9543C430.002 78.0217 429.968 78.0572 429.908 78.0608C429.881 78.0624 429.857 78.0539 429.836 78.0351C429.808 78.0101 429.78 77.935 429.752 77.8098C429.647 77.3887 429.437 77.0041 429.122 76.6558C428.999 76.503 428.854 76.3748 428.688 76.2714C428.353 76.0378 428 75.8856 427.628 75.8146C427.533 75.7936 427.483 75.78 427.476 75.7738C427.447 75.7488 427.43 75.6897 427.425 75.5965C427.418 75.4901 427.441 75.4252 427.493 75.402C427.519 75.3938 427.576 75.397 427.664 75.4117C428.428 75.5724 429.046 75.9524 429.516 76.5518C429.53 76.5643 429.541 76.577 429.548 76.5899L429.624 76.6854L429.394 72.8624L429.163 69.0394L429.099 69.1434C428.821 69.6278 428.43 70.0121 427.926 70.2965C427.571 70.4917 427.329 70.5831 427.201 70.5708C427.147 70.5607 427.117 70.4991 427.11 70.386C427.105 70.2928 427.114 70.2321 427.139 70.2039C427.146 70.1969 427.194 70.1772 427.286 70.1449C427.646 70.0296 427.979 69.8358 428.283 69.5636C428.436 69.4408 428.564 69.2961 428.667 69.1295C428.938 68.7458 429.1 68.3352 429.154 67.8978C429.167 67.7768 429.186 67.7022 429.211 67.674Z" fill="#737373"/>
<path d="M451.331 66.96C451.451 66.94 451.561 66.9567 451.661 67.01C451.821 67.0833 451.901 67.23 451.901 67.45C451.901 67.65 451.861 68.02 451.781 68.56C451.754 68.72 451.717 68.9867 451.671 69.36V69.45L451.731 69.43C451.757 69.43 451.857 69.4033 452.031 69.35C452.264 69.2767 452.451 69.2367 452.591 69.23C452.717 69.23 452.814 69.25 452.881 69.29C453.027 69.3633 453.104 69.4967 453.111 69.69C453.111 69.87 453.034 70.0033 452.881 70.09C452.814 70.13 452.717 70.15 452.591 70.15C452.451 70.1433 452.264 70.1033 452.031 70.03C451.857 69.9767 451.757 69.95 451.731 69.95L451.671 69.93L451.681 69.98C451.694 70.0733 451.724 70.2733 451.771 70.58C451.857 70.9933 451.901 71.3833 451.901 71.75C451.901 72.9967 451.841 74.3067 451.721 75.68C451.701 75.96 451.681 76.11 451.661 76.13L451.631 76.16H451.441H451.251L451.221 76.13C451.201 76.11 451.181 75.96 451.161 75.68C451.041 74.3067 450.981 72.9967 450.981 71.75C450.981 71.3833 451.024 70.9933 451.111 70.58C451.157 70.2733 451.187 70.0733 451.201 69.98L451.211 69.93L451.151 69.95C451.124 69.95 451.024 69.9767 450.851 70.03C450.617 70.1033 450.431 70.1433 450.291 70.15C450.164 70.15 450.067 70.13 450.001 70.09C449.854 70.0167 449.777 69.8833 449.771 69.69C449.771 69.51 449.847 69.3767 450.001 69.29C450.067 69.25 450.164 69.23 450.291 69.23C450.431 69.2367 450.617 69.2767 450.851 69.35C451.024 69.4033 451.124 69.43 451.151 69.43L451.211 69.45V69.36C451.164 68.9867 451.127 68.72 451.101 68.56C450.987 67.8467 450.954 67.42 451.001 67.28C451.041 67.12 451.151 67.0133 451.331 66.96Z" fill="#737373"/>
<path d="M488.388 71.1163C488.487 71.0747 488.573 71.1153 488.645 71.2383L488.66 71.2804L488.333 73.9807L488.007 76.671L490.31 76.9512L492.613 77.2314L492.939 74.541L493.266 71.8408L493.291 71.8035C493.307 71.7853 493.333 71.7616 493.37 71.7325C493.412 71.7175 493.45 71.712 493.483 71.716C493.516 71.7201 493.551 71.7344 493.589 71.7591C493.618 71.7962 493.638 71.8255 493.649 71.847L493.664 71.8891L493.322 74.7085L492.98 77.5279L492.956 77.5652C492.932 77.5958 492.906 77.6162 492.878 77.6262L492.834 77.6511L490.282 77.3507L487.721 77.0391L487.675 77.0033C487.637 76.9852 487.613 76.9555 487.605 76.9142L487.581 76.8609L487.924 74.0316L488.276 71.2135L488.31 71.1774L488.388 71.1163Z" fill="#737373"/>
<path d="M508.186 74.2373C508.273 74.2399 508.378 74.2624 508.499 74.305C508.85 74.4237 509.097 74.6486 509.239 74.9798C509.43 75.4215 509.452 75.8932 509.306 76.3951C509.286 76.466 509.264 76.5298 509.24 76.5864C509.118 76.8826 508.87 77.2573 508.496 77.7105C508.135 78.1661 507.9 78.5229 507.792 78.7809C507.698 79.0348 507.652 79.3076 507.652 79.5992C507.65 79.9445 507.724 80.2258 507.874 80.4431C507.981 80.5984 508.106 80.6925 508.25 80.7255C508.36 80.7526 508.434 80.79 508.473 80.8377C508.524 80.9285 508.484 80.9821 508.352 80.9986C508.267 81.0169 508.148 81.0018 507.994 80.9532C507.638 80.8268 507.388 80.5979 507.246 80.2667C507.055 79.8251 507.034 79.3468 507.183 78.8318C507.201 78.7674 507.223 78.7069 507.247 78.6503C507.367 78.3606 507.615 77.986 507.991 77.5262C508.35 77.0837 508.584 76.7302 508.693 76.4656C508.794 76.2129 508.84 75.9402 508.833 75.6474C508.835 75.3021 508.761 75.0208 508.611 74.8034C508.504 74.6482 508.382 74.5546 508.245 74.5228C508.102 74.4898 508.02 74.4374 508 74.3658C507.997 74.345 508 74.3253 508.01 74.3068C508.038 74.2645 508.097 74.2414 508.186 74.2373Z" fill="#737373"/>
<path d="M551.75 84.1C551.788 84.0908 551.826 84.0922 551.864 84.1041C551.924 84.1367 551.964 84.1876 551.984 84.2568L551.992 84.301L551.006 87.4712L550.02 90.6414L549.989 90.6737C549.933 90.7191 549.871 90.7382 549.803 90.731C549.765 90.7191 549.733 90.6986 549.707 90.6696C549.673 90.6449 549.656 90.6115 549.655 90.5694L549.641 90.5127L550.104 89.0231L550.565 87.543L548.445 86.8813L546.326 86.2197L546.288 86.1761C546.253 86.1515 546.236 86.1181 546.235 86.0759C546.221 86.0087 546.239 85.9514 546.288 85.904C546.313 85.8698 546.346 85.8523 546.388 85.8515L546.445 85.8377L548.564 86.4994L550.683 87.161L551.144 85.6809L551.607 84.1913L551.65 84.1525C551.675 84.1183 551.708 84.1008 551.75 84.1Z" fill="#737373"/>
<path d="M565.273 88.2529C565.379 88.2362 565.451 88.2919 565.488 88.4201C565.496 88.4732 565.477 90.1916 565.429 93.5754C565.38 97.0014 565.35 98.7268 565.341 98.7517C565.332 98.7767 565.31 98.8043 565.278 98.8346L565.191 98.8658L565.178 98.8716C565.072 98.8884 565 98.8326 564.963 98.7045C564.955 98.6514 564.974 96.9329 565.022 93.5491C565.07 90.1443 565.103 88.42 565.119 88.3764C565.134 88.339 565.155 88.3113 565.183 88.2935L565.273 88.2529Z" fill="#737373"/>
<path d="M601.857 104.527C601.881 104.524 602.218 104.694 602.867 105.035L603.831 105.542L603.853 105.588C603.867 105.633 603.875 105.667 603.878 105.691L603.877 105.736L601.627 110.032L599.376 114.328L599.34 114.354C599.277 114.389 599.212 114.397 599.147 114.377C599.112 114.359 599.084 114.333 599.064 114.3C599.035 114.269 599.023 114.233 599.03 114.192L599.027 114.133L601.217 109.952L603.407 105.771L602.557 105.324C601.991 105.026 601.702 104.867 601.69 104.846C601.653 104.788 601.637 104.731 601.644 104.675C601.654 104.642 601.669 104.612 601.691 104.586C601.733 104.548 601.789 104.528 601.857 104.527Z" fill="#737373"/>
<path d="M622.167 116.516C622.582 116.705 622.853 117.017 622.98 117.452C622.998 117.526 623.011 117.596 623.017 117.662C623.025 117.83 623.011 117.982 622.977 118.117C622.943 118.237 622.899 118.342 622.844 118.434C622.716 118.645 622.545 118.716 622.329 118.648C622.288 118.639 622.247 118.622 622.207 118.598C622.139 118.556 622.081 118.498 622.033 118.422C621.939 118.256 621.954 118.089 622.077 117.923C622.151 117.827 622.241 117.768 622.347 117.747L622.469 117.739C622.498 117.741 622.516 117.744 622.522 117.748C622.539 117.719 622.528 117.646 622.49 117.53C622.448 117.379 622.369 117.246 622.253 117.129C622.158 117.04 622.053 116.976 621.936 116.937C621.81 116.915 621.667 116.938 621.509 117.006C621.382 117.061 621.245 117.173 621.097 117.341C620.962 117.5 620.852 117.676 620.768 117.866C620.651 118.177 620.631 118.469 620.708 118.741C620.745 118.873 620.823 119.022 620.941 119.187C621.172 119.553 621.327 119.896 621.406 120.217C621.443 120.387 621.456 120.559 621.445 120.732C621.419 120.957 621.35 121.161 621.24 121.344C621.136 121.515 621.024 121.65 620.903 121.747C620.616 122.003 620.283 122.136 619.903 122.147C619.879 122.148 619.852 122.147 619.822 122.145C619.768 122.144 619.739 122.141 619.733 122.138L619.743 122.179C619.765 122.208 619.786 122.256 619.808 122.323C619.93 122.624 619.98 122.923 619.956 123.22C619.922 123.573 619.767 123.881 619.492 124.143C619.294 124.343 619.051 124.48 618.765 124.556C618.572 124.603 618.376 124.613 618.175 124.585C617.693 124.519 617.333 124.27 617.096 123.837C617.041 123.734 617 123.628 616.973 123.518C616.945 123.384 616.94 123.244 616.957 123.099C616.974 122.891 617.027 122.712 617.117 122.564C617.244 122.353 617.416 122.281 617.631 122.35C617.672 122.359 617.713 122.376 617.753 122.4C617.918 122.5 617.994 122.632 617.981 122.796C617.974 122.963 617.895 123.094 617.744 123.189C617.674 123.241 617.59 123.264 617.492 123.259C617.462 123.256 617.444 123.254 617.438 123.25C617.421 123.279 617.432 123.351 617.47 123.468C617.512 123.618 617.591 123.752 617.707 123.869C617.802 123.957 617.908 124.021 618.024 124.061C618.151 124.083 618.293 124.06 618.451 123.992C618.578 123.936 618.717 123.822 618.868 123.648C618.997 123.5 619.106 123.325 619.197 123.123C619.305 122.814 619.324 122.525 619.253 122.256C619.215 122.124 619.14 121.978 619.028 121.816C618.791 121.447 618.636 121.103 618.563 120.786C618.52 120.612 618.506 120.436 618.52 120.257C618.54 120.043 618.607 119.842 618.72 119.654C618.824 119.483 618.936 119.348 619.058 119.25C619.344 118.995 619.677 118.862 620.058 118.851C620.082 118.85 620.109 118.85 620.138 118.853C620.192 118.854 620.222 118.856 620.227 118.86L620.217 118.819C620.196 118.79 620.174 118.742 620.153 118.674C620.03 118.374 619.981 118.075 620.004 117.778C620.022 117.516 620.125 117.262 620.312 117.017C620.506 116.784 620.727 116.618 620.974 116.518C621.103 116.448 621.246 116.41 621.405 116.405C621.685 116.379 621.939 116.416 622.167 116.516ZM620.62 119.507C620.573 119.455 620.522 119.424 620.466 119.413C620.218 119.333 619.956 119.439 619.678 119.731C619.632 119.782 619.589 119.833 619.549 119.887C619.377 120.095 619.263 120.329 619.206 120.591C619.154 120.871 619.178 121.128 619.279 121.36C619.338 121.482 619.407 121.555 619.486 121.579C619.754 121.664 620.033 121.544 620.322 121.22C620.351 121.184 620.381 121.147 620.411 121.111C620.583 120.903 620.697 120.668 620.754 120.406C620.813 120.076 620.769 119.776 620.62 119.507Z" fill="#737373"/>
<path d="M636.308 127.01C636.415 127.02 636.472 127.096 636.479 127.238L636.473 127.282L634.93 129.522L633.392 131.754L635.3 133.074L637.209 134.393L638.746 132.162L640.289 129.922L640.328 129.9C640.35 129.891 640.385 129.883 640.431 129.874C640.475 129.88 640.511 129.893 640.539 129.912C640.566 129.931 640.59 129.96 640.612 129.999C640.621 130.046 640.625 130.081 640.624 130.105L640.618 130.149L639.007 132.488L637.396 134.827L637.357 134.848C637.321 134.865 637.289 134.87 637.259 134.866L637.209 134.868L635.09 133.415L632.968 131.947L632.944 131.894C632.919 131.86 632.912 131.823 632.924 131.782L632.927 131.724L634.544 129.377L636.163 127.044L636.211 127.028L636.308 127.01Z" fill="#737373"/>
<path d="M652.451 136.942C652.475 136.944 652.775 137.171 653.352 137.624L654.209 138.297L654.222 138.345C654.228 138.392 654.23 138.428 654.228 138.452L654.219 138.495L651.232 142.316L648.244 146.137L648.204 146.156C648.136 146.179 648.071 146.175 648.01 146.144C647.979 146.119 647.956 146.089 647.942 146.052C647.919 146.017 647.915 145.98 647.929 145.94L647.936 145.882L650.843 142.164L653.751 138.445L652.995 137.853C652.492 137.457 652.237 137.248 652.229 137.226C652.202 137.162 652.198 137.103 652.215 137.049C652.23 137.019 652.251 136.992 652.276 136.97C652.325 136.941 652.383 136.931 652.451 136.942Z" fill="#737373"/>
<path d="M667.94 149.748C668.045 149.77 668.093 149.848 668.082 149.981C668.071 150.033 667.443 151.634 666.2 154.782C664.939 157.968 664.3 159.572 664.282 159.592C664.265 159.612 664.235 159.63 664.194 159.647L664.102 159.645L664.088 159.646C663.982 159.624 663.935 159.547 663.946 159.414C663.957 159.361 664.585 157.761 665.828 154.613C667.081 151.445 667.722 149.844 667.753 149.809C667.779 149.779 667.809 149.761 667.842 149.754L667.94 149.748Z" fill="#737373"/>
<path d="M682.287 165.279C682.39 165.308 682.433 165.392 682.414 165.534L682.4 165.576L680.478 167.502L678.564 169.42L680.203 171.062L681.842 172.704L683.756 170.786L685.677 168.861L685.72 168.847C685.743 168.842 685.779 168.839 685.826 168.839C685.868 168.854 685.901 168.872 685.925 168.896C685.948 168.92 685.967 168.953 685.981 168.995C685.981 169.042 685.979 169.078 685.974 169.101L685.96 169.144L683.954 171.154L681.947 173.164L681.905 173.178C681.867 173.188 681.834 173.188 681.806 173.178L681.757 173.171L679.934 171.359L678.112 169.533L678.098 169.476C678.079 169.439 678.079 169.401 678.098 169.363L678.112 169.307L680.125 167.289L682.138 165.286L682.188 165.279L682.287 165.279Z" fill="#737373"/>
<path d="M708.744 194.485L708.785 194.504L710.602 196.828L712.419 199.152L712.428 199.196C712.43 199.22 712.428 199.255 712.422 199.302L712.409 199.351L710.23 201.061L708.051 202.771L708.001 202.772C707.955 202.767 707.92 202.76 707.897 202.753L707.857 202.733L706.04 200.41L704.223 198.086L704.214 198.042C704.214 197.999 704.218 197.966 704.226 197.943C704.234 197.911 704.257 197.881 704.294 197.852C704.357 197.802 704.424 197.792 704.497 197.819L704.549 197.854L706.28 200.068L708.017 202.29L709.984 200.746L711.95 199.202L710.213 196.981L708.47 194.751L708.461 194.707C708.462 194.665 708.466 194.632 708.473 194.609C708.482 194.577 708.504 194.546 708.541 194.517C708.578 194.489 708.613 194.474 708.646 194.473C708.67 194.471 708.703 194.475 708.744 194.485ZM702.963 199.024L703.017 199.044L704.859 201.4L706.707 203.763L706.722 203.815C706.736 203.897 706.711 203.963 706.648 204.013C706.622 204.033 706.587 204.048 706.543 204.057C706.496 204.051 706.462 204.045 706.439 204.037L706.398 204.018L704.544 201.647L702.697 199.284L702.688 199.24C702.669 199.119 702.716 199.043 702.829 199.014C702.878 199.001 702.923 199.004 702.963 199.024Z" fill="#737373"/>
<path d="M722.946 211.896L722.988 211.939L722.994 211.947C723.051 212.03 723.039 212.119 722.959 212.215C722.932 212.234 722.096 212.447 720.45 212.856C718.807 213.255 717.979 213.458 717.968 213.466C717.957 213.473 717.474 214.176 716.519 215.575C715.554 216.971 715.058 217.679 715.031 217.698C714.968 217.725 714.904 217.725 714.837 217.699C714.74 217.652 714.713 217.565 714.755 217.439C714.791 217.374 715.285 216.651 716.237 215.271C717.21 213.852 717.708 213.135 717.73 213.12C717.752 213.105 718.598 212.893 720.267 212.484C721.892 212.081 722.741 211.875 722.815 211.864C722.854 211.862 722.898 211.872 722.946 211.896Z" fill="#737373"/>
<path d="M732.2 226.236C732.222 226.246 732.422 226.565 732.801 227.193L733.364 228.127L733.359 228.176C733.348 228.222 733.337 228.256 733.327 228.278L733.303 228.316L729.154 230.828L725.006 233.341L724.962 233.345C724.89 233.342 724.831 233.315 724.785 233.265C724.764 233.231 724.754 233.194 724.754 233.155C724.744 233.114 724.753 233.077 724.781 233.045L724.808 232.993L728.845 230.548L732.882 228.103L732.386 227.281C732.056 226.733 731.891 226.447 731.892 226.423C731.89 226.354 731.906 226.297 731.941 226.253C731.966 226.23 731.995 226.212 732.027 226.201C732.083 226.19 732.141 226.202 732.2 226.236Z" fill="#737373"/>
<path d="M740.701 242.386L740.733 242.403L742.426 245.637L744.12 248.87L744.116 248.906C744.099 248.93 744.087 248.944 744.081 248.947L736.394 249.227C736.34 249.225 736.31 249.226 736.304 249.229C736.244 249.215 736.173 249.129 736.089 248.969C736.006 248.81 735.975 248.702 735.998 248.644L740.578 242.474C740.618 242.422 740.642 242.395 740.647 242.392C740.653 242.389 740.671 242.387 740.701 242.386ZM742.802 248.444C742.808 248.441 742.444 247.74 741.711 246.34C740.978 244.941 740.606 244.244 740.594 244.25L737.339 248.64L742.802 248.444Z" fill="#737373"/>
<path d="M750.993 261.675C751.014 261.688 751.174 262.029 751.474 262.698L751.921 263.692L751.91 263.741C751.893 263.785 751.879 263.817 751.866 263.838L751.838 263.872L747.416 265.866L742.995 267.86L742.951 267.858C742.879 267.846 742.824 267.813 742.785 267.758C742.768 267.721 742.762 267.683 742.767 267.645C742.763 267.603 742.776 267.568 742.807 267.539L742.84 267.491L747.143 265.551L751.446 263.61L751.052 262.735C750.79 262.151 750.661 261.847 750.665 261.823C750.671 261.755 750.694 261.701 750.734 261.66C750.762 261.641 750.792 261.627 750.826 261.619C750.882 261.616 750.938 261.634 750.993 261.675Z" fill="#737373"/>
<path d="M765.567 299.693C765.646 299.766 765.646 299.857 765.568 299.965C765.514 300.017 764.828 300.56 763.508 301.593C762.157 302.658 761.468 303.194 761.443 303.202C761.418 303.21 760.547 303.16 758.831 303.054C757.159 302.954 756.287 302.898 756.213 302.886C756.102 302.865 756.051 302.79 756.06 302.662C756.08 302.593 756.12 302.542 756.18 302.509C756.212 302.499 757.074 302.544 758.767 302.644C760.455 302.753 761.306 302.805 761.318 302.801C761.331 302.797 762.001 302.27 763.329 301.22C764.666 300.174 765.35 299.646 765.382 299.636C765.449 299.629 765.511 299.648 765.567 299.693Z" fill="#737373"/>
<path d="M769.664 319.882C769.738 319.96 769.73 320.055 769.641 320.166L769.607 320.195L766.966 320.847L764.335 321.497L764.889 323.75L765.444 326.003L768.075 325.353L770.715 324.701L770.759 324.711C770.781 324.719 770.813 324.735 770.853 324.759C770.882 324.794 770.901 324.827 770.909 324.859C770.917 324.891 770.916 324.929 770.906 324.973C770.881 325.013 770.861 325.043 770.845 325.06L770.811 325.089L768.054 325.77L765.296 326.451L765.253 326.441C765.216 326.43 765.187 326.413 765.168 326.39L765.129 326.358L764.506 323.865L763.89 321.36L763.907 321.304C763.91 321.262 763.93 321.23 763.965 321.207L764.007 321.166L766.774 320.483L769.533 319.812L769.579 319.831L769.664 319.882Z" fill="#737373"/>
<path d="M778.698 361.2C778.722 361.23 778.736 361.266 778.741 361.305C778.736 361.373 778.706 361.431 778.651 361.477L778.614 361.502L773.918 362.073L769.233 362.643L769.348 363.596C769.425 364.232 769.459 364.564 769.449 364.592C769.422 364.649 769.384 364.69 769.333 364.717C769.301 364.727 769.268 364.731 769.234 364.729C769.178 364.715 769.131 364.684 769.091 364.635C769.075 364.61 769.023 364.24 768.937 363.526L768.807 362.454L768.831 362.4C768.839 362.359 768.862 362.329 768.9 362.311L768.947 362.275L773.751 361.691L778.556 361.106L778.609 361.13C778.65 361.138 778.68 361.162 778.698 361.2Z" fill="#737373"/>
<path d="M780.226 377.837C780.241 377.856 780.27 378.232 780.314 378.964L780.38 380.052L780.353 380.093C780.321 380.129 780.296 380.153 780.277 380.168L780.238 380.19L775.397 380.484L770.556 380.777L770.515 380.76C770.453 380.723 770.413 380.672 770.395 380.607C770.393 380.567 770.401 380.53 770.419 380.495C770.43 380.454 770.455 380.426 770.494 380.41L770.542 380.377L775.253 380.092L779.965 379.806L779.907 378.848C779.868 378.209 779.855 377.879 779.867 377.859C779.897 377.797 779.938 377.754 779.99 377.731C780.022 377.722 780.056 377.72 780.089 377.725C780.144 377.742 780.189 377.779 780.226 377.837Z" fill="#737373"/>
<path d="M781.547 401.07C781.567 401.104 781.577 401.14 781.577 401.18C781.564 401.247 781.527 401.3 781.467 401.34L781.427 401.36H776.577H771.727L771.687 401.34C771.654 401.32 771.63 401.297 771.617 401.27L771.587 401.23L771.577 400.14C771.577 399.394 771.597 398.994 771.637 398.94C771.664 398.914 771.694 398.897 771.727 398.89C771.76 398.884 771.794 398.884 771.827 398.89C771.88 398.91 771.924 398.95 771.957 399.01C771.97 399.03 771.977 399.36 771.977 400V400.96H776.697H781.417L781.467 400.99C781.507 401.004 781.534 401.03 781.547 401.07Z" fill="#737373"/>
<path d="M778.723 419.069C778.731 419.156 778.722 419.262 778.694 419.387C778.619 419.75 778.425 420.022 778.114 420.204C777.698 420.446 777.233 420.524 776.717 420.44C776.644 420.429 776.578 420.415 776.519 420.398C776.21 420.312 775.808 420.111 775.313 419.794C774.817 419.49 774.435 419.3 774.166 419.223C773.902 419.16 773.626 419.147 773.337 419.183C772.994 419.222 772.723 419.329 772.526 419.504C772.385 419.63 772.306 419.765 772.291 419.911C772.277 420.024 772.249 420.102 772.206 420.146C772.123 420.208 772.064 420.174 772.032 420.046C772.004 419.964 772.004 419.844 772.034 419.685C772.116 419.316 772.313 419.041 772.625 418.859C773.04 418.617 773.512 418.539 774.041 418.625C774.108 418.635 774.17 418.649 774.229 418.666C774.531 418.751 774.933 418.952 775.435 419.27C775.918 419.573 776.297 419.763 776.573 419.84C776.836 419.909 777.112 419.923 777.402 419.88C777.745 419.841 778.015 419.734 778.213 419.559C778.354 419.434 778.432 419.301 778.447 419.162C778.463 419.016 778.505 418.928 778.573 418.899C778.593 418.894 778.613 418.895 778.633 418.903C778.678 418.926 778.708 418.981 778.723 419.069Z" fill="#737373"/>
<path d="M778.524 441.62C778.541 441.642 778.549 441.667 778.545 441.693C778.539 441.746 778.477 441.789 778.358 441.822C777.923 441.923 777.49 442.115 777.06 442.399C776.84 442.547 776.632 442.71 776.436 442.887C776.088 443.214 775.806 443.569 775.592 443.953C775.551 444.015 775.527 444.049 775.519 444.055L775.486 444.081L775.357 444.065C775.238 444.051 775.174 444.02 775.167 443.972C775.164 443.938 775.193 443.867 775.253 443.761C775.507 443.328 775.803 442.958 776.143 442.65L776.2 442.596L774.712 442.405L771.734 442.043L770.244 441.872L770.286 441.937C770.542 442.318 770.742 442.748 770.885 443.229C770.918 443.347 770.929 443.423 770.918 443.455C770.899 443.5 770.83 443.515 770.711 443.5L770.582 443.484L770.556 443.451C770.55 443.444 770.535 443.405 770.509 443.335C770.393 442.911 770.205 442.498 769.944 442.097C769.825 441.915 769.666 441.707 769.466 441.475C769.102 441.095 768.728 440.804 768.342 440.603C768.229 440.542 768.175 440.485 768.182 440.432C768.188 440.379 768.254 440.337 768.378 440.305C768.801 440.202 769.234 440.01 769.677 439.728C769.89 439.579 770.094 439.419 770.289 439.248C770.646 438.909 770.928 438.55 771.135 438.172C771.176 438.11 771.2 438.076 771.208 438.07L771.241 438.044L771.37 438.06C771.489 438.074 771.553 438.106 771.56 438.154C771.563 438.188 771.534 438.261 771.473 438.375C771.219 438.807 770.923 439.174 770.584 439.475L770.526 439.539L772.015 439.72L774.993 440.082L776.482 440.264L776.441 440.188C776.184 439.814 775.984 439.387 775.841 438.906C775.809 438.781 775.798 438.703 775.809 438.671C775.828 438.626 775.897 438.611 776.016 438.625L776.145 438.641L776.171 438.674C776.177 438.682 776.192 438.721 776.218 438.791C776.328 439.207 776.516 439.623 776.782 440.038C776.959 440.288 777.123 440.493 777.271 440.652C777.622 441.03 777.996 441.321 778.395 441.524C778.474 441.587 778.517 441.619 778.524 441.62ZM777.696 441.64C777.745 441.619 777.774 441.606 777.781 441.6L777.708 441.541C777.375 441.292 777.106 441.045 776.901 440.798L776.821 440.708L773.456 440.298L770.091 439.889L769.992 439.957C769.734 440.148 769.414 440.324 769.032 440.485C768.982 440.506 768.953 440.519 768.946 440.525L769.019 440.585C769.352 440.833 769.621 441.081 769.826 441.327L769.906 441.418L773.271 441.827L776.636 442.237L776.735 442.168C776.993 441.978 777.313 441.802 777.696 441.64Z" fill="#737373"/>
<path d="M775.858 457.822C775.867 457.844 775.806 458.215 775.674 458.937L775.478 460.009L775.442 460.043C775.403 460.07 775.372 460.088 775.35 460.097L775.307 460.11L770.537 459.234L765.767 458.358L765.731 458.331C765.679 458.281 765.653 458.222 765.652 458.154C765.659 458.114 765.675 458.08 765.701 458.051C765.721 458.014 765.752 457.993 765.794 457.987L765.849 457.966L770.491 458.819L775.133 459.671L775.306 458.727C775.421 458.097 775.487 457.774 775.504 457.757C775.547 457.704 775.597 457.672 775.653 457.662C775.687 457.661 775.72 457.667 775.752 457.68C775.801 457.709 775.836 457.757 775.858 457.822Z" fill="#737373"/>
<path d="M770.588 480.854C770.591 480.896 770.585 480.949 770.569 481.014C770.478 481.383 770.174 481.561 769.655 481.55C769.339 481.548 769.114 481.485 768.98 481.363C768.845 481.24 768.798 481.071 768.837 480.854C768.885 480.66 769.006 480.531 769.2 480.469C769.288 480.443 769.381 480.442 769.478 480.466C769.576 480.49 769.657 480.534 769.724 480.599C769.837 480.696 769.89 480.832 769.881 481.008C769.877 481.049 769.886 481.071 769.905 481.076L769.973 481.052L769.985 481.044C770.106 480.999 770.145 480.909 770.103 480.775C770.096 480.746 770.082 480.718 770.061 480.693C769.944 480.526 769.572 480.324 768.944 480.087C768.699 479.992 768.368 479.873 767.95 479.728C766.732 479.297 765.353 478.733 763.815 478.037C763.586 477.933 763.373 477.836 763.176 477.746C762.497 477.379 762.142 476.965 762.112 476.504C762.113 476.36 762.136 476.236 762.183 476.13C762.327 475.85 762.618 475.716 763.054 475.728C763.37 475.73 763.595 475.792 763.729 475.915C763.864 476.037 763.911 476.207 763.872 476.424C763.824 476.618 763.703 476.746 763.509 476.808C763.421 476.834 763.328 476.836 763.231 476.812C763.133 476.788 763.052 476.743 762.985 476.679C762.872 476.582 762.819 476.446 762.828 476.269C762.831 476.229 762.823 476.206 762.804 476.201C762.733 476.211 762.677 476.242 762.637 476.294C762.592 476.338 762.58 476.4 762.601 476.481C762.619 476.575 762.701 476.677 762.845 476.788C763.07 476.933 763.71 477.191 764.766 477.562C766.017 478.001 767.377 478.557 768.846 479.228C769.447 479.493 769.859 479.715 770.083 479.894C770.094 479.904 770.105 479.914 770.117 479.923C770.267 480.064 770.372 480.182 770.431 480.279C770.548 480.445 770.6 480.637 770.588 480.854Z" fill="#737373"/>
<path d="M758.507 519.069C758.506 519.111 758.493 519.163 758.469 519.225C758.335 519.581 758.011 519.721 757.497 519.647C757.184 519.607 756.969 519.518 756.85 519.38C756.731 519.242 756.704 519.068 756.769 518.858C756.84 518.67 756.976 518.558 757.175 518.52C757.267 518.504 757.359 518.515 757.452 518.55C757.546 518.586 757.622 518.639 757.68 518.711C757.781 518.821 757.817 518.963 757.786 519.137C757.778 519.177 757.784 519.2 757.802 519.207L757.873 519.191L757.886 519.185C758.011 519.155 758.061 519.07 758.035 518.932C758.032 518.902 758.022 518.873 758.004 518.845C757.908 518.666 757.562 518.421 756.967 518.109C756.736 517.985 756.422 517.827 756.025 517.633C754.867 517.058 753.566 516.332 752.123 515.455C751.909 515.324 751.709 515.202 751.524 515.088C750.894 514.642 750.592 514.189 750.617 513.727C750.635 513.585 750.674 513.464 750.733 513.365C750.91 513.104 751.214 513.006 751.646 513.07C751.959 513.111 752.175 513.2 752.294 513.338C752.412 513.476 752.439 513.65 752.374 513.86C752.303 514.047 752.168 514.16 751.968 514.198C751.877 514.213 751.784 514.203 751.691 514.168C751.597 514.132 751.521 514.078 751.463 514.006C751.362 513.897 751.327 513.755 751.357 513.581C751.365 513.541 751.359 513.518 751.341 513.51C751.269 513.512 751.21 513.536 751.164 513.582C751.114 513.62 751.095 513.681 751.106 513.764C751.113 513.859 751.181 513.97 751.311 514.098C751.517 514.269 752.121 514.602 753.124 515.098C754.313 515.685 755.597 516.401 756.974 517.245C757.538 517.581 757.92 517.851 758.121 518.055C758.131 518.066 758.141 518.077 758.151 518.088C758.284 518.246 758.374 518.376 758.42 518.479C758.516 518.658 758.545 518.855 758.507 519.069Z" fill="#737373"/>
<path d="M750.526 534.868C750.503 534.952 750.456 535.048 750.386 535.155C750.187 535.468 749.91 535.654 749.555 535.713C749.081 535.792 748.618 535.7 748.165 535.438C748.101 535.401 748.045 535.365 747.995 535.328C747.737 535.138 747.433 534.807 747.082 534.335C746.726 533.874 746.436 533.561 746.211 533.394C745.987 533.241 745.734 533.131 745.451 533.061C745.116 532.976 744.825 532.981 744.579 533.074C744.403 533.141 744.281 533.24 744.215 533.371C744.163 533.472 744.109 533.535 744.053 533.561C743.953 533.589 743.911 533.537 743.926 533.405C743.928 533.318 743.971 533.206 744.055 533.068C744.263 532.753 744.544 532.565 744.9 532.506C745.374 532.427 745.843 532.522 746.307 532.79C746.365 532.823 746.419 532.858 746.468 532.895C746.72 533.082 747.025 533.413 747.381 533.888C747.725 534.343 748.012 534.656 748.243 534.825C748.464 534.984 748.718 535.094 749.004 535.157C749.338 535.242 749.629 535.238 749.876 535.145C750.052 535.078 750.172 534.982 750.235 534.857C750.301 534.726 750.371 534.659 750.446 534.656C750.467 534.658 750.485 534.666 750.501 534.681C750.535 534.718 750.543 534.78 750.526 534.868Z" fill="#737373"/>
<path d="M742.365 555.889C742.373 555.916 742.371 555.941 742.359 555.964C742.334 556.012 742.261 556.03 742.139 556.018C741.696 555.959 741.223 555.985 740.72 556.097C740.463 556.158 740.211 556.236 739.965 556.332C739.523 556.515 739.134 556.747 738.798 557.03C738.738 557.073 738.703 557.096 738.694 557.099L738.653 557.112L738.538 557.051C738.432 556.995 738.384 556.944 738.394 556.896C738.403 556.863 738.455 556.808 738.549 556.729C738.939 556.415 739.348 556.174 739.774 556.006L739.846 555.976L738.523 555.269L735.868 553.873L734.536 553.184L734.552 553.26C734.657 553.707 734.691 554.181 734.655 554.681C734.643 554.803 734.627 554.878 734.606 554.904C734.572 554.939 734.502 554.929 734.396 554.873L734.281 554.812L734.268 554.772C734.266 554.763 734.265 554.721 734.266 554.646C734.308 554.209 734.278 553.756 734.176 553.288C734.13 553.076 734.054 552.825 733.949 552.536C733.744 552.052 733.497 551.647 733.208 551.322C733.124 551.225 733.094 551.152 733.119 551.105C733.143 551.058 733.22 551.042 733.347 551.056C733.779 551.11 734.251 551.083 734.766 550.977C735.017 550.914 735.265 550.837 735.508 550.746C735.962 550.555 736.352 550.32 736.679 550.04C736.74 549.997 736.774 549.973 736.783 549.971L736.824 549.958L736.939 550.019C737.045 550.074 737.093 550.126 737.083 550.174C737.074 550.206 737.021 550.265 736.924 550.349C736.533 550.664 736.126 550.902 735.703 551.063L735.626 551.102L736.954 551.8L739.609 553.197L740.937 553.895L740.925 553.809C740.817 553.369 740.782 552.898 740.818 552.397C740.832 552.269 740.85 552.192 740.872 552.166C740.905 552.131 740.975 552.141 741.081 552.197L741.196 552.257L741.209 552.298C741.212 552.307 741.212 552.349 741.211 552.423C741.167 552.852 741.195 553.308 741.296 553.79C741.374 554.087 741.454 554.336 741.537 554.538C741.73 555.016 741.977 555.421 742.278 555.752C742.33 555.84 742.359 555.885 742.365 555.889ZM741.583 555.613C741.637 555.611 741.668 555.609 741.677 555.606L741.63 555.525C741.407 555.174 741.243 554.847 741.139 554.543L741.096 554.431L738.096 552.853L735.096 551.275L734.979 551.304C734.67 551.39 734.309 551.441 733.894 551.457C733.84 551.458 733.809 551.461 733.8 551.464L733.848 551.545C734.07 551.896 734.234 552.223 734.338 552.526L734.381 552.639L737.381 554.217L740.382 555.795L740.499 555.766C740.807 555.68 741.169 555.629 741.583 555.613Z" fill="#737373"/>
<path d="M734.144 570.096C734.145 570.12 733.956 570.446 733.577 571.074L733.014 572.007L732.968 572.026C732.922 572.037 732.887 572.043 732.863 572.044L732.819 572.041L728.671 569.528L724.522 567.015L724.498 566.977C724.468 566.912 724.464 566.847 724.487 566.783C724.508 566.749 724.535 566.723 724.569 566.705C724.601 566.677 724.638 566.668 724.679 566.678L724.737 566.678L728.775 569.123L732.812 571.569L733.308 570.747C733.638 570.199 733.814 569.92 733.836 569.909C733.896 569.875 733.953 569.864 734.009 569.874C734.041 569.886 734.07 569.903 734.095 569.926C734.13 569.971 734.146 570.027 734.144 570.096Z" fill="#737373"/>
<path d="M721.486 587.082C721.476 587.189 721.401 587.246 721.258 587.253L721.214 587.246L718.977 585.699L716.748 584.158L715.432 586.068L714.116 587.979L716.345 589.52L718.582 591.068L718.603 591.107C718.612 591.129 718.621 591.164 718.63 591.21C718.623 591.254 718.611 591.29 718.592 591.318C718.573 591.345 718.544 591.37 718.505 591.391C718.458 591.4 718.423 591.404 718.399 591.403L718.355 591.397L716.019 589.782L713.683 588.166L713.662 588.127C713.646 588.091 713.64 588.059 713.644 588.029L713.642 587.979L715.092 585.857L716.555 583.733L716.608 583.708C716.642 583.683 716.679 583.676 716.72 583.688L716.778 583.692L719.122 585.313L721.452 586.937L721.468 586.984L721.486 587.082Z" fill="#737373"/>
<path d="M709.761 605.637L709.731 605.691L709.725 605.698C709.664 605.777 709.575 605.793 709.46 605.745C709.434 605.724 708.982 604.988 708.103 603.535C707.234 602.082 706.795 601.351 706.784 601.343C706.774 601.335 705.96 601.082 704.344 600.584C702.726 600.077 701.904 599.813 701.878 599.792C701.834 599.741 701.814 599.679 701.82 599.607C701.835 599.5 701.91 599.449 702.043 599.452C702.116 599.466 702.951 599.724 704.549 600.224C706.19 600.733 707.022 600.995 707.043 601.012C707.064 601.028 707.517 601.774 708.403 603.249C709.27 604.684 709.719 605.435 709.751 605.503C709.765 605.539 709.768 605.584 709.761 605.637Z" fill="#737373"/>
<path d="M698.473 619.222C698.451 619.327 698.374 619.374 698.241 619.363C698.169 619.344 697.351 619.037 695.786 618.441C694.178 617.834 693.364 617.522 693.344 617.504C693.324 617.486 692.917 616.714 692.122 615.188C691.343 613.704 690.94 612.927 690.912 612.858C690.872 612.751 690.91 612.669 691.024 612.61C691.094 612.591 691.158 612.599 691.217 612.633C691.242 612.656 691.649 613.418 692.438 614.921C693.218 616.424 693.613 617.18 693.623 617.189C693.633 617.198 694.429 617.5 696.013 618.094C697.597 618.698 698.401 619.011 698.426 619.033C698.467 619.087 698.483 619.15 698.473 619.222Z" fill="#737373"/>
<path d="M685.198 633.51C685.17 633.614 685.09 633.656 684.958 633.637C684.906 633.623 683.349 632.899 680.288 631.464C677.19 630.011 675.631 629.275 675.612 629.256C675.593 629.237 675.577 629.206 675.563 629.164L675.57 629.072L675.57 629.058C675.598 628.954 675.678 628.912 675.81 628.93C675.862 628.945 677.418 629.669 680.479 631.103C683.559 632.547 685.115 633.286 685.148 633.319C685.177 633.347 685.193 633.378 685.198 633.411L685.198 633.51Z" fill="#737373"/>
<path d="M669.32 648.595C669.308 648.641 669.139 648.792 668.812 649.046C668.788 649.059 668.768 649.072 668.753 649.085C668.305 649.394 667.886 649.539 667.495 649.52C667.288 649.517 667.091 649.45 666.906 649.321C666.869 649.3 666.555 648.955 665.963 648.285C665.358 647.611 665.035 647.26 664.994 647.234C664.83 647.129 664.659 647.072 664.481 647.061C664.137 647.045 663.822 647.151 663.534 647.38C663.44 647.454 663.375 647.481 663.338 647.46C663.32 647.449 663.28 647.409 663.218 647.339C663.13 647.239 663.096 647.171 663.117 647.135C663.128 647.116 663.161 647.078 663.216 647.02C663.477 646.762 663.62 646.461 663.646 646.117C663.657 645.938 663.62 645.761 663.537 645.586C663.516 645.542 663.207 645.178 662.612 644.495C662.02 643.825 661.716 643.471 661.699 643.432C661.594 643.232 661.552 643.029 661.574 642.822C661.602 642.431 661.796 642.032 662.156 641.623C662.343 641.413 662.525 641.246 662.702 641.125C662.741 641.108 662.809 641.155 662.906 641.265L663.012 641.385L663.01 641.427C663.013 641.451 662.977 641.496 662.902 641.562C662.461 641.989 662.286 642.385 662.378 642.75C662.385 642.779 662.395 642.806 662.408 642.83L662.44 642.896L663.32 643.906C663.928 644.605 664.247 644.986 664.277 645.049L664.301 645.121C664.425 645.413 664.424 645.739 664.298 646.1C664.247 646.243 664.184 646.379 664.111 646.507C664.084 646.557 664.068 646.585 664.063 646.589L664.15 646.552C664.286 646.494 664.428 646.448 664.576 646.414C664.949 646.333 665.272 646.372 665.546 646.53C665.642 646.578 665.781 646.705 665.962 646.91L666.632 647.652L667.533 648.657L667.588 648.688C667.903 648.864 668.294 648.788 668.762 648.462C668.812 648.427 668.859 648.39 668.904 648.35C668.978 648.283 669.027 648.253 669.051 648.259L669.093 648.262L669.205 648.389C669.289 648.484 669.328 648.553 669.32 648.595Z" fill="#737373"/>
<path d="M640.448 670.714L640.435 670.748L637.433 672.824L634.431 674.9L634.395 674.901C634.368 674.887 634.354 674.877 634.35 674.871L633.151 667.262C633.147 667.208 633.143 667.179 633.139 667.173C633.145 667.112 633.223 667.03 633.371 666.928C633.519 666.825 633.622 666.782 633.682 666.798L640.346 670.602C640.402 670.636 640.432 670.656 640.436 670.662C640.44 670.667 640.444 670.685 640.448 670.714ZM634.695 673.538C634.698 673.544 635.35 673.097 636.649 672.199C637.949 671.3 638.595 670.845 638.587 670.834L633.847 668.13L634.695 673.538Z" fill="#737373"/>
<path d="M622.583 683.301C622.573 683.323 622.254 683.524 621.627 683.904L620.695 684.468L620.645 684.464C620.599 684.452 620.566 684.441 620.544 684.431L620.506 684.407L618.001 680.255L615.495 676.102L615.492 676.057C615.495 675.985 615.522 675.926 615.572 675.88C615.606 675.859 615.642 675.849 615.681 675.849C615.722 675.84 615.759 675.849 615.791 675.876L615.843 675.903L618.281 679.945L620.719 683.986L621.54 683.489C622.088 683.157 622.373 682.992 622.397 682.993C622.466 682.99 622.522 683.007 622.567 683.042C622.59 683.067 622.607 683.096 622.619 683.128C622.629 683.184 622.617 683.242 622.583 683.301Z" fill="#737373"/>
<path d="M602.048 695.165C602.04 695.192 602.024 695.211 602 695.224C601.953 695.249 601.883 695.222 601.789 695.143C601.458 694.842 601.054 694.595 600.576 694.402C600.33 694.305 600.078 694.227 599.821 694.167C599.354 694.066 598.902 694.036 598.465 694.078C598.39 694.079 598.349 694.078 598.34 694.076L598.299 694.063L598.239 693.948C598.183 693.842 598.173 693.772 598.208 693.738C598.234 693.717 598.309 693.7 598.431 693.689C598.93 693.652 599.403 693.686 599.849 693.79L599.926 693.806L599.239 692.473L597.847 689.815L597.142 688.491L597.112 688.564C596.944 688.991 596.703 689.4 596.389 689.791C596.31 689.885 596.255 689.937 596.222 689.947C596.175 689.957 596.123 689.908 596.067 689.802L596.007 689.687L596.02 689.646C596.022 689.637 596.046 689.603 596.089 689.542C596.372 689.205 596.604 688.816 596.786 688.373C596.869 688.172 596.949 687.922 597.027 687.625C597.133 687.11 597.16 686.636 597.107 686.205C597.092 686.077 597.109 686 597.156 685.976C597.203 685.951 597.275 685.981 597.372 686.065C597.697 686.354 598.101 686.601 598.585 686.806C598.828 686.897 599.075 686.974 599.327 687.037C599.808 687.138 600.263 687.166 600.692 687.122C600.766 687.12 600.808 687.121 600.817 687.124L600.857 687.136L600.918 687.251C600.973 687.358 600.983 687.428 600.948 687.461C600.922 687.483 600.845 687.501 600.717 687.515C600.217 687.552 599.747 687.517 599.307 687.409L599.222 687.398L599.918 688.726L601.31 691.384L602.006 692.713L602.044 692.636C602.206 692.212 602.444 691.804 602.759 691.413C602.843 691.316 602.902 691.262 602.934 691.253C602.982 691.243 603.033 691.291 603.089 691.397L603.149 691.512L603.137 691.553C603.134 691.562 603.111 691.597 603.067 691.657C602.787 691.985 602.552 692.376 602.361 692.831C602.256 693.119 602.181 693.37 602.134 693.583C602.022 694.086 601.995 694.56 602.054 695.003C602.047 695.105 602.045 695.159 602.048 695.165ZM601.562 694.494C601.607 694.523 601.634 694.539 601.643 694.542L601.65 694.447C601.666 694.032 601.717 693.67 601.804 693.361L601.833 693.244L600.26 690.241L598.687 687.238L598.574 687.196C598.271 687.091 597.945 686.928 597.595 686.705C597.55 686.676 597.522 686.66 597.513 686.658L597.506 686.752C597.49 687.167 597.439 687.529 597.353 687.838L597.324 687.955L598.897 690.958L600.47 693.961L600.582 694.004C600.885 694.108 601.212 694.271 601.562 694.494Z" fill="#737373"/>
<path d="M581.576 704.101C581.554 704.133 581.525 704.157 581.489 704.173C581.422 704.188 581.359 704.177 581.298 704.139L581.263 704.11L579.903 701.082L578.542 698.053L578.544 698.009C578.556 697.937 578.59 697.882 578.645 697.843C578.681 697.826 578.719 697.82 578.758 697.825C578.799 697.82 578.835 697.834 578.863 697.865L578.911 697.898L579.55 699.321L580.185 700.735L582.209 699.822L584.233 698.91L584.291 698.917C584.333 698.912 584.368 698.926 584.396 698.957C584.451 698.998 584.476 699.052 584.47 699.121C584.474 699.163 584.461 699.198 584.43 699.227L584.397 699.275L582.373 700.187L580.349 701.1L580.984 702.514L581.624 703.937L581.617 703.995C581.621 704.037 581.607 704.072 581.576 704.101Z" fill="#737373"/>
<path d="M570.201 708.712L570.18 708.742L566.768 710.038L563.356 711.335L563.321 711.327C563.299 711.306 563.287 711.293 563.284 711.287L563.94 703.614C563.949 703.56 563.952 703.531 563.95 703.524C563.97 703.467 564.065 703.406 564.233 703.342C564.402 703.278 564.513 703.261 564.567 703.29L570.129 708.579C570.175 708.626 570.199 708.652 570.202 708.658C570.204 708.665 570.204 708.683 570.201 708.712ZM563.938 710.076C563.94 710.082 564.68 709.805 566.157 709.243C567.634 708.682 568.37 708.395 568.365 708.383L564.408 704.623L563.938 710.076Z" fill="#737373"/>
<path d="M547.283 717.446C547.203 717.527 547.115 717.523 547.018 717.435C546.997 717.414 546.507 715.859 545.546 712.772C544.586 709.684 544.109 708.126 544.113 708.096C544.133 707.978 544.202 707.922 544.322 707.926C544.352 707.931 544.379 707.94 544.404 707.953C544.437 707.971 544.468 708.024 544.496 708.113C544.576 708.326 545.053 709.839 545.928 712.652C546.881 715.714 547.358 717.262 547.362 717.296C547.359 717.353 547.332 717.403 547.283 717.446ZM545.431 718.025C545.379 718.083 545.306 718.092 545.209 718.052C545.176 718.035 545.145 717.981 545.118 717.892C545.038 717.68 544.56 716.167 543.685 713.353C542.723 710.259 542.253 708.681 542.275 708.618C542.332 708.509 542.416 708.476 542.527 708.518C542.552 708.531 542.575 708.549 542.596 708.57C542.616 708.592 543.107 710.146 544.067 713.234C545.027 716.321 545.505 717.88 545.5 717.909C545.493 717.953 545.47 717.992 545.431 718.025Z" fill="#737373"/>
<path d="M524.669 723.027C524.642 723.054 524.608 723.073 524.569 723.082C524.502 723.085 524.441 723.062 524.388 723.014L524.359 722.98L523.566 719.756L522.773 716.532L522.783 716.488C522.807 716.42 522.85 716.372 522.912 716.343C522.951 716.333 522.989 716.334 523.026 716.346C523.068 716.349 523.1 716.369 523.122 716.404L523.164 716.446L523.536 717.96L523.906 719.466L526.062 718.933L528.217 718.401L528.273 718.418C528.315 718.422 528.347 718.441 528.369 718.477C528.416 718.527 528.43 718.585 528.412 718.651C528.409 718.694 528.389 718.726 528.354 718.748L528.312 718.789L526.157 719.322L524.002 719.854L524.372 721.359L524.745 722.874L524.728 722.93C524.724 722.972 524.705 723.004 524.669 723.027Z" fill="#737373"/>
<path d="M507.687 727.086C507.658 727.112 507.624 727.128 507.585 727.136C507.517 727.135 507.458 727.108 507.407 727.056L507.381 727.021L506.53 722.368L505.68 717.725L504.736 717.898C504.107 718.014 503.778 718.067 503.749 718.059C503.691 718.036 503.647 718 503.617 717.951C503.605 717.92 503.599 717.887 503.599 717.853C503.61 717.797 503.638 717.747 503.684 717.705C503.708 717.687 504.074 717.613 504.782 717.483L505.845 717.288L505.899 717.308C505.941 717.314 505.972 717.336 505.992 717.373L506.031 717.416L506.901 722.178L507.772 726.939L507.752 726.993C507.746 727.035 507.724 727.066 507.687 727.086Z" fill="#737373"/>
<path d="M489.423 730.055C489.406 730.077 489.384 730.09 489.357 730.093C489.298 730.101 489.257 730.072 489.236 730.007L489.187 729.852C489.041 729.427 488.808 729.055 488.488 728.738C488.356 728.593 488.204 728.474 488.032 728.381C487.684 728.168 487.322 728.037 486.947 727.989C486.851 727.974 486.799 727.963 486.792 727.957C486.762 727.934 486.742 727.876 486.73 727.784C486.718 727.678 486.736 727.612 486.787 727.585C486.813 727.576 486.87 727.575 486.958 727.585C487.731 727.699 488.37 728.041 488.875 728.611C488.89 728.622 488.902 728.634 488.91 728.647L488.992 728.738L488.531 724.935L488.07 721.133L488.013 721.241C487.764 721.741 487.394 722.149 486.902 722.464C486.578 722.671 486.345 722.777 486.205 722.781C486.15 722.774 486.116 722.714 486.102 722.602C486.091 722.509 486.097 722.448 486.12 722.418C486.126 722.411 486.174 722.388 486.263 722.35C486.616 722.213 486.936 722 487.223 721.71C487.368 721.578 487.488 721.426 487.581 721.253C487.816 720.869 487.954 720.452 487.994 720.004L488.004 719.842C488.009 719.774 488.042 719.736 488.101 719.729C488.128 719.726 488.152 719.733 488.174 719.75C488.204 719.774 488.237 719.847 488.272 719.97C488.402 720.384 488.635 720.755 488.971 721.084C489.102 721.229 489.255 721.348 489.427 721.442C489.775 721.654 490.137 721.785 490.512 721.833C490.608 721.849 490.66 721.859 490.667 721.865C490.697 721.888 490.717 721.946 490.728 722.039C490.741 722.145 490.722 722.211 490.672 722.237C490.646 722.247 490.589 722.247 490.501 722.238C489.728 722.124 489.089 721.782 488.583 721.212C488.568 721.2 488.557 721.188 488.549 721.176L488.467 721.085L488.928 724.887L489.389 728.689L489.446 728.581C489.694 728.081 490.061 727.674 490.547 727.36C490.89 727.143 491.126 727.037 491.254 727.042C491.309 727.049 491.343 727.108 491.356 727.221C491.367 727.313 491.361 727.375 491.338 727.404C491.332 727.412 491.285 727.434 491.195 727.472C490.843 727.609 490.523 727.823 490.235 728.113C490.09 728.245 489.971 728.397 489.878 728.569C489.631 728.969 489.493 729.388 489.466 729.828C489.461 729.95 489.446 730.025 489.423 730.055Z" fill="#737373"/>
<path d="M471.244 731.561C471.225 731.576 470.849 731.605 470.117 731.65L469.029 731.716L468.988 731.688C468.952 731.657 468.927 731.632 468.913 731.613L468.891 731.574L468.598 726.733L468.306 721.891L468.324 721.85C468.36 721.788 468.411 721.748 468.477 721.731C468.517 721.728 468.554 721.736 468.588 721.754C468.629 721.765 468.657 721.79 468.673 721.829L468.706 721.877L468.99 726.589L469.275 731.3L470.233 731.242C470.872 731.203 471.202 731.19 471.222 731.202C471.284 731.232 471.327 731.273 471.35 731.325C471.359 731.357 471.361 731.391 471.356 731.424C471.339 731.479 471.302 731.524 471.244 731.561Z" fill="#737373"/>
</svg>
