<svg width="778" height="850" viewBox="0 0 778 850" fill="none" xmlns="http://www.w3.org/2000/svg">
<path d="M445.39 731.126C445.357 731.146 445.32 731.156 445.28 731.156C445.214 731.143 445.16 731.106 445.12 731.046L445.1 731.006V727.686V724.366L445.12 724.326C445.16 724.266 445.214 724.23 445.28 724.216C445.32 724.216 445.357 724.226 445.39 724.246C445.43 724.26 445.457 724.286 445.47 724.326L445.5 724.376V725.936V727.486H447.72H449.94L449.99 727.516C450.03 727.53 450.057 727.556 450.07 727.596C450.104 727.656 450.104 727.716 450.07 727.776C450.057 727.816 450.03 727.843 449.99 727.856L449.94 727.886H447.72H445.5V729.436V730.996L445.47 731.046C445.457 731.086 445.43 731.113 445.39 731.126Z" fill="#D9D9D9"/>
<path d="M431.128 731.786C431.031 731.834 430.946 731.802 430.873 731.691C430.849 731.643 430.357 729.997 429.398 726.753C428.427 723.468 427.943 721.812 427.944 721.785C427.946 721.759 427.958 721.726 427.98 721.687L428.054 721.632L428.064 721.622C428.161 721.575 428.246 721.607 428.319 721.718C428.343 721.766 428.835 723.412 429.794 726.656C430.759 729.921 431.24 731.576 431.238 731.623C431.235 731.663 431.223 731.695 431.202 731.721L431.128 731.786Z" fill="#D9D9D9"/>
<path d="M407.655 729.208C407.533 729.213 407.426 729.183 407.333 729.118C407.183 729.026 407.122 728.871 407.148 728.653C407.172 728.454 407.256 728.092 407.401 727.565C407.446 727.41 407.515 727.149 407.606 726.784L407.617 726.695L407.555 726.708C407.528 726.704 407.426 726.719 407.248 726.751C407.007 726.795 406.817 726.812 406.677 726.802C406.551 726.787 406.458 726.755 406.397 726.708C406.26 726.617 406.2 726.475 406.216 726.283C406.238 726.104 406.33 725.981 406.493 725.913C406.564 725.882 406.662 725.874 406.788 725.889C406.926 725.912 407.107 725.975 407.329 726.076C407.495 726.15 407.591 726.188 407.618 726.191L407.675 726.218L407.671 726.168C407.669 726.073 407.663 725.871 407.654 725.561C407.617 725.14 407.621 724.748 407.665 724.384C407.815 723.146 408.032 721.853 408.317 720.504C408.37 720.229 408.408 720.082 408.43 720.065L408.464 720.038L408.652 720.061L408.841 720.084L408.867 720.118C408.885 720.14 408.886 720.291 408.873 720.572C408.827 721.95 408.729 723.257 408.579 724.495C408.534 724.859 408.445 725.241 408.309 725.641C408.226 725.94 408.172 726.134 408.147 726.226L408.131 726.274L408.193 726.261C408.22 726.265 408.322 726.25 408.501 726.218C408.741 726.174 408.931 726.156 409.071 726.167C409.197 726.182 409.29 726.213 409.352 726.261C409.488 726.352 409.549 726.493 409.532 726.686C409.51 726.865 409.418 726.988 409.255 727.055C409.184 727.087 409.086 727.095 408.96 727.08C408.822 727.056 408.642 726.994 408.419 726.893C408.253 726.819 408.157 726.781 408.131 726.778L408.074 726.75L408.063 726.84C408.064 727.216 408.068 727.485 408.076 727.647C408.102 728.369 408.084 728.797 408.021 728.93C407.962 729.084 407.84 729.177 407.655 729.208Z" fill="#D9D9D9"/>
<path d="M368.36 721.874C368.318 721.877 368.265 721.871 368.2 721.855C367.831 721.763 367.652 721.458 367.663 720.939C367.665 720.624 367.727 720.399 367.85 720.264C367.972 720.13 368.142 720.082 368.358 720.122C368.553 720.17 368.681 720.291 368.743 720.485C368.769 720.574 368.77 720.667 368.746 720.764C368.722 720.861 368.678 720.943 368.614 721.009C368.517 721.123 368.381 721.175 368.205 721.166C368.164 721.162 368.142 721.171 368.137 721.19L368.161 721.258L368.169 721.27C368.214 721.391 368.304 721.431 368.438 721.388C368.467 721.382 368.495 721.368 368.521 721.347C368.687 721.23 368.888 720.857 369.125 720.229C369.22 719.984 369.339 719.653 369.483 719.236C369.913 718.017 370.475 716.638 371.169 715.1C371.274 714.871 371.371 714.658 371.461 714.461C371.827 713.782 372.24 713.427 372.7 713.397C372.844 713.398 372.969 713.422 373.074 713.469C373.354 713.613 373.489 713.904 373.478 714.341C373.475 714.656 373.413 714.881 373.291 715.016C373.169 715.15 372.999 715.198 372.782 715.158C372.588 715.11 372.46 714.989 372.398 714.795C372.372 714.706 372.37 714.613 372.394 714.516C372.418 714.419 372.462 714.337 372.527 714.271C372.623 714.157 372.76 714.105 372.936 714.114C372.976 714.117 372.999 714.109 373.004 714.09C372.994 714.019 372.963 713.963 372.911 713.923C372.867 713.878 372.805 713.866 372.724 713.887C372.63 713.905 372.528 713.986 372.417 714.13C372.272 714.356 372.015 714.996 371.646 716.052C371.208 717.303 370.653 718.663 369.983 720.132C369.719 720.733 369.497 721.145 369.318 721.369C369.309 721.38 369.299 721.391 369.289 721.403C369.149 721.553 369.031 721.658 368.934 721.717C368.768 721.834 368.577 721.886 368.36 721.874Z" fill="#D9D9D9"/>
<path d="M353.557 716.536L353.513 716.543L351.05 715.774L348.587 715.005L348.558 714.964C348.536 714.922 348.522 714.89 348.515 714.867L348.508 714.823L349.351 712.111L350.194 709.399L350.225 709.367C350.281 709.321 350.343 709.302 350.411 709.309C350.449 709.321 350.481 709.342 350.507 709.371C350.541 709.396 350.559 709.429 350.56 709.471L350.573 709.528L349.769 712.116L348.964 714.703L351.178 715.395L353.393 716.086L354.198 713.498L355.005 710.901L355.036 710.869C355.092 710.824 355.154 710.804 355.222 710.812C355.26 710.824 355.292 710.844 355.318 710.873C355.352 710.898 355.37 710.931 355.37 710.973L355.384 711.03L354.538 713.751L353.685 716.46L353.644 716.49C353.626 716.505 353.597 716.52 353.557 716.536Z" fill="#D9D9D9"/>
<path d="M330.284 710.113C330.246 710.12 330.208 710.116 330.171 710.102C330.113 710.065 330.076 710.012 330.06 709.942L330.056 709.897L331.73 705.474L333.401 701.059L332.503 700.718C331.905 700.491 331.596 700.366 331.576 700.344C331.538 700.294 331.519 700.241 331.519 700.184C331.524 700.15 331.536 700.119 331.554 700.09C331.592 700.047 331.641 700.02 331.703 700.008C331.733 700.005 332.084 700.131 332.757 700.387L333.767 700.77L333.803 700.816C333.835 700.843 333.851 700.877 333.849 700.92L333.86 700.977L332.146 705.504L330.433 710.03L330.387 710.066C330.361 710.099 330.326 710.114 330.284 710.113Z" fill="#D9D9D9"/>
<path d="M313.235 702.991C313.128 703.001 313.058 702.937 313.025 702.798L313.024 702.753L315.011 698.329L316.998 693.905L317.033 693.877C317.064 693.854 317.095 693.843 317.125 693.841C317.158 693.834 317.195 693.84 317.238 693.859C317.28 693.879 317.31 693.903 317.326 693.932C317.344 693.955 317.356 693.986 317.361 694.025L317.363 694.069L315.371 698.503L313.371 702.932L313.327 702.956L313.235 702.991Z" fill="#D9D9D9"/>
<path d="M296.8 695.028C296.776 695.03 296.44 694.861 295.791 694.519L294.826 694.012L294.805 693.967C294.791 693.922 294.782 693.887 294.78 693.863L294.781 693.819L297.031 689.522L299.282 685.226L299.318 685.2C299.381 685.165 299.445 685.158 299.51 685.177C299.546 685.196 299.574 685.222 299.594 685.255C299.623 685.285 299.634 685.321 299.628 685.363L299.631 685.421L297.441 689.602L295.251 693.783L296.1 694.23C296.667 694.528 296.956 694.688 296.967 694.709C297.005 694.766 297.02 694.823 297.013 694.88C297.004 694.912 296.988 694.942 296.967 694.968C296.924 695.006 296.869 695.026 296.8 695.028Z" fill="#D9D9D9"/>
<path d="M275.952 683.215C275.914 683.215 275.877 683.205 275.843 683.184C275.793 683.138 275.766 683.079 275.763 683.007L275.766 682.962L278.272 678.81L280.777 674.657L280.815 674.633C280.849 674.615 280.881 674.607 280.911 674.609L280.961 674.604L281.898 675.161C282.537 675.547 282.869 675.772 282.894 675.834C282.903 675.87 282.901 675.905 282.89 675.937C282.878 675.969 282.861 675.997 282.838 676.022C282.794 676.058 282.737 676.074 282.668 676.071C282.644 676.072 282.359 675.907 281.811 675.576L280.99 675.078L278.552 679.12L276.114 683.161L276.062 683.188C276.03 683.216 275.994 683.225 275.952 683.215Z" fill="#D9D9D9"/>
<path d="M262.351 672.544C262.244 672.535 262.187 672.459 262.18 672.316L262.186 672.272L263.729 670.032L265.267 667.8L263.358 666.481L261.45 665.161L259.913 667.393L258.37 669.633L258.331 669.654C258.308 669.663 258.274 669.672 258.228 669.68C258.184 669.674 258.148 669.661 258.12 669.642C258.093 669.623 258.068 669.594 258.047 669.555C258.038 669.509 258.034 669.473 258.035 669.449L258.041 669.405L259.652 667.066L261.263 664.727L261.302 664.706C261.338 664.69 261.37 664.684 261.4 664.688L261.45 664.686L263.569 666.14L265.691 667.607L265.715 667.661C265.74 667.694 265.747 667.731 265.735 667.772L265.732 667.83L264.115 670.177L262.496 672.51L262.448 672.526L262.351 672.544Z" fill="#D9D9D9"/>
<path d="M227.874 647.563C227.846 647.564 227.822 647.556 227.802 647.539C227.762 647.503 227.762 647.428 227.802 647.312C227.966 646.895 228.053 646.429 228.064 645.913C228.067 645.648 228.051 645.385 228.017 645.122C227.946 644.649 227.813 644.215 227.619 643.82C227.592 643.751 227.577 643.711 227.577 643.702L227.574 643.66L227.66 643.562C227.74 643.472 227.801 643.438 227.845 643.459C227.875 643.476 227.916 643.54 227.97 643.65C228.182 644.105 228.318 644.56 228.378 645.015L228.39 645.092L229.391 643.975L231.378 641.728L232.364 640.597L232.286 640.595C231.828 640.589 231.361 640.509 230.885 640.353C230.769 640.313 230.701 640.28 230.68 640.252C230.654 640.211 230.681 640.146 230.76 640.056L230.846 639.959L230.889 639.956C230.898 639.956 230.939 639.965 231.011 639.984C231.425 640.129 231.871 640.209 232.349 640.222C232.566 640.228 232.827 640.215 233.132 640.182C233.65 640.099 234.102 639.956 234.486 639.753C234.6 639.694 234.677 639.682 234.717 639.717C234.757 639.753 234.755 639.831 234.71 639.952C234.555 640.358 234.468 640.825 234.448 641.35C234.449 641.61 234.465 641.869 234.495 642.128C234.572 642.615 234.706 643.051 234.9 643.436C234.927 643.506 234.942 643.545 234.942 643.554L234.945 643.597L234.859 643.694C234.779 643.784 234.718 643.818 234.674 643.797C234.644 643.78 234.6 643.714 234.542 643.6C234.33 643.145 234.196 642.692 234.141 642.241L234.122 642.157L233.128 643.281L231.141 645.529L230.147 646.652L230.233 646.661C230.686 646.662 231.151 646.741 231.627 646.896C231.748 646.941 231.818 646.977 231.839 647.004C231.865 647.045 231.838 647.11 231.759 647.2L231.673 647.298L231.63 647.3C231.621 647.301 231.58 647.291 231.508 647.272C231.103 647.126 230.655 647.045 230.163 647.027C229.857 647.032 229.596 647.05 229.381 647.082C228.871 647.155 228.42 647.298 228.027 647.511C227.929 647.54 227.878 647.558 227.874 647.563ZM228.327 646.869C228.317 646.921 228.311 646.952 228.312 646.962L228.402 646.935C228.795 646.803 229.151 646.722 229.47 646.693L229.59 646.679L231.835 644.139L234.081 641.6L234.081 641.479C234.071 641.158 234.108 640.794 234.192 640.387C234.202 640.335 234.208 640.304 234.207 640.294L234.117 640.321C233.724 640.454 233.368 640.534 233.049 640.563L232.929 640.577L230.684 643.117L228.438 645.657L228.438 645.777C228.448 646.098 228.411 646.462 228.327 646.869Z" fill="#D9D9D9"/>
<path d="M212.297 631.537C212.259 631.528 212.226 631.509 212.198 631.481C212.16 631.424 212.148 631.36 212.162 631.289L212.177 631.247L214.522 628.897L216.867 626.547L216.91 626.533C216.98 626.519 217.044 626.531 217.1 626.568C217.129 626.597 217.147 626.63 217.157 626.667C217.176 626.705 217.176 626.743 217.157 626.781L217.143 626.837L216.041 627.942L214.946 629.039L216.514 630.61L218.082 632.181L218.096 632.238C218.115 632.276 218.115 632.313 218.096 632.351C218.077 632.417 218.035 632.46 217.969 632.479C217.931 632.497 217.894 632.497 217.856 632.479L217.8 632.464L216.231 630.893L214.663 629.322L213.568 630.419L212.466 631.523L212.41 631.537C212.372 631.556 212.334 631.556 212.297 631.537Z" fill="#D9D9D9"/>
<path d="M202.675 619.744C202.574 619.71 202.536 619.622 202.564 619.482L202.58 619.441L204.615 617.635L206.641 615.836L205.105 614.098L203.568 612.36L201.541 614.159L199.507 615.964L199.464 615.976C199.44 615.979 199.405 615.98 199.358 615.977C199.316 615.96 199.284 615.939 199.262 615.914C199.24 615.889 199.223 615.855 199.212 615.812C199.215 615.765 199.219 615.73 199.225 615.706L199.242 615.665L201.366 613.779L203.49 611.894L203.533 611.882C203.571 611.875 203.604 611.877 203.632 611.888L203.681 611.898L205.39 613.817L207.099 615.75L207.11 615.807C207.127 615.846 207.124 615.884 207.103 615.92L207.086 615.976L204.954 617.868L202.824 619.746L202.774 619.75L202.675 619.744Z" fill="#D9D9D9"/>
<path d="M189.882 604.412C189.782 604.371 189.75 604.282 189.786 604.144L189.805 604.103L191.945 602.424L194.076 600.75L192.647 598.923L191.218 597.095L189.087 598.768L186.947 600.448L186.903 600.457C186.879 600.459 186.844 600.457 186.797 600.451C186.757 600.432 186.726 600.409 186.706 600.383C186.685 600.357 186.671 600.322 186.662 600.278C186.667 600.231 186.674 600.196 186.682 600.173L186.701 600.133L188.935 598.379L191.169 596.626L191.212 596.617C191.251 596.612 191.284 596.616 191.311 596.629L191.359 596.641L192.95 598.66L194.539 600.692L194.546 600.75C194.56 600.79 194.556 600.828 194.532 600.863L194.512 600.917L192.27 602.677L190.03 604.423L189.98 604.424L189.882 604.412Z" fill="#D9D9D9"/>
<path d="M177.42 590.122C177.398 590.113 177.179 589.807 176.763 589.203L176.144 588.305L176.146 588.255C176.155 588.209 176.164 588.175 176.172 588.152L176.194 588.113L180.183 585.354L184.172 582.595L184.216 582.589C184.288 582.588 184.348 582.611 184.397 582.658C184.42 582.691 184.433 582.727 184.435 582.766C184.447 582.806 184.44 582.844 184.415 582.877L184.39 582.931L180.508 585.615L176.626 588.3L177.171 589.091C177.534 589.618 177.716 589.893 177.716 589.917C177.723 589.986 177.71 590.043 177.677 590.09C177.654 590.115 177.626 590.134 177.595 590.147C177.54 590.161 177.482 590.153 177.42 590.122Z" fill="#D9D9D9"/>
<path d="M167.964 574.515L167.931 574.5L166.045 571.375L164.16 568.25L164.161 568.213C164.177 568.188 164.188 568.174 164.194 568.17L171.85 567.426C171.904 567.425 171.933 567.422 171.939 567.419C172 567.429 172.077 567.511 172.17 567.665C172.263 567.819 172.299 567.926 172.28 567.984L168.082 574.421C168.044 574.474 168.022 574.503 168.017 574.507C168.011 574.51 167.993 574.513 167.964 574.515ZM165.501 568.595C165.495 568.598 165.901 569.276 166.717 570.629C167.533 571.982 167.947 572.655 167.958 572.648L170.942 568.07L165.501 568.595Z" fill="#D9D9D9"/>
<path d="M148.683 536.093C148.635 536.019 148.595 535.921 148.561 535.797C148.459 535.44 148.504 535.109 148.696 534.804C148.951 534.396 149.327 534.11 149.823 533.944C149.892 533.92 149.957 533.902 150.017 533.89C150.33 533.822 150.779 533.813 151.365 533.863C151.945 533.902 152.372 533.892 152.645 533.834C152.908 533.767 153.158 533.65 153.398 533.484C153.683 533.289 153.873 533.069 153.966 532.822C154.033 532.645 154.04 532.489 153.986 532.352C153.945 532.246 153.934 532.164 153.951 532.105C153.997 532.011 154.064 532.014 154.152 532.113C154.215 532.172 154.271 532.279 154.318 532.433C154.416 532.798 154.37 533.134 154.178 533.439C153.923 533.847 153.541 534.136 153.033 534.307C152.969 534.328 152.908 534.345 152.847 534.357C152.541 534.423 152.091 534.431 151.5 534.384C150.932 534.34 150.508 534.348 150.228 534.409C149.964 534.47 149.713 534.586 149.476 534.759C149.191 534.953 149.001 535.174 148.907 535.421C148.84 535.598 148.833 535.751 148.884 535.882C148.938 536.018 148.941 536.115 148.894 536.173C148.879 536.187 148.861 536.196 148.84 536.198C148.789 536.199 148.737 536.164 148.683 536.093Z" fill="#D9D9D9"/>
<path d="M141.167 520.822L141.138 520.801L139.846 517.387L138.554 513.974L138.562 513.939C138.582 513.917 138.595 513.904 138.601 513.902L146.268 514.551C146.321 514.56 146.35 514.563 146.356 514.56C146.414 514.581 146.475 514.676 146.539 514.844C146.602 515.012 146.62 515.123 146.59 515.177L141.3 520.75C141.254 520.796 141.227 520.821 141.221 520.823C141.215 520.825 141.197 520.825 141.167 520.822ZM139.811 514.555C139.805 514.557 140.081 515.297 140.64 516.775C141.2 518.253 141.486 518.989 141.498 518.985L145.258 515.02L139.811 514.555Z" fill="#D9D9D9"/>
<path d="M127.644 480.545C127.57 480.467 127.575 480.377 127.66 480.273C127.717 480.225 128.435 479.725 129.814 478.773C131.227 477.792 131.947 477.299 131.973 477.292C131.998 477.286 132.865 477.388 134.571 477.598C136.234 477.799 137.101 477.907 137.174 477.924C137.284 477.951 137.33 478.029 137.314 478.157C137.289 478.225 137.246 478.273 137.185 478.302C137.152 478.31 136.294 478.213 134.611 478.011C132.932 477.8 132.086 477.697 132.073 477.7C132.06 477.703 131.359 478.189 129.97 479.157C128.573 480.12 127.858 480.605 127.826 480.613C127.758 480.616 127.697 480.594 127.644 480.545Z" fill="#D9D9D9"/>
<path d="M122.882 458.211L122.843 458.167L122.649 457.105C122.519 456.397 122.459 456.028 122.467 456C122.49 455.941 122.526 455.897 122.575 455.868C122.607 455.856 122.639 455.849 122.673 455.85C122.729 455.86 122.779 455.888 122.821 455.935C122.839 455.959 122.905 456.285 123.021 456.915L123.193 457.859L127.836 457.007L132.488 456.152L132.531 456.165C132.597 456.193 132.643 456.239 132.668 456.302C132.675 456.342 132.672 456.38 132.658 456.416C132.652 456.458 132.631 456.489 132.594 456.509L132.55 456.548L127.79 457.422L123.029 458.296L122.975 458.275C122.933 458.27 122.902 458.248 122.882 458.211Z" fill="#D9D9D9"/>
<path d="M120.354 441.697C120.339 441.679 120.287 441.305 120.198 440.577L120.067 439.495L120.092 439.452C120.121 439.415 120.145 439.389 120.163 439.373L120.201 439.348L125.015 438.762L129.83 438.177L129.872 438.192C129.936 438.224 129.979 438.273 130 438.337C130.005 438.377 129.999 438.415 129.984 438.45C129.975 438.491 129.952 438.521 129.914 438.539L129.868 438.575L125.182 439.145L120.497 439.715L120.612 440.668C120.689 441.303 120.722 441.632 120.712 441.653C120.686 441.717 120.648 441.762 120.597 441.788C120.565 441.799 120.532 441.803 120.498 441.8C120.442 441.787 120.395 441.752 120.354 441.697Z" fill="#D9D9D9"/>
<path d="M118.643 415.753C118.621 415.721 118.609 415.685 118.606 415.646C118.616 415.578 118.649 415.523 118.706 415.479L118.745 415.457L122.059 415.256L125.373 415.055L125.414 415.073C125.476 415.109 125.516 415.16 125.534 415.226C125.536 415.266 125.528 415.303 125.51 415.337C125.499 415.378 125.474 415.406 125.435 415.422L125.387 415.455L123.83 415.549L122.283 415.643L122.417 417.859L122.55 420.075L122.523 420.127C122.512 420.167 122.487 420.196 122.448 420.211C122.39 420.248 122.331 420.252 122.269 420.222C122.228 420.211 122.2 420.186 122.184 420.147L122.151 420.099L122.017 417.883L121.883 415.667L120.336 415.761L118.779 415.855L118.727 415.829C118.687 415.818 118.659 415.793 118.643 415.753Z" fill="#D9D9D9"/>
<path d="M118.451 377.685C118.433 377.651 118.425 377.614 118.427 377.574C118.445 377.508 118.485 377.457 118.547 377.421L118.588 377.403L123.429 377.697L128.27 377.99L128.309 378.012C128.341 378.034 128.363 378.059 128.375 378.087L128.402 378.128L128.346 379.217C128.301 379.962 128.257 380.36 128.214 380.411C128.186 380.436 128.155 380.451 128.121 380.456C128.088 380.46 128.054 380.458 128.022 380.45C127.969 380.426 127.929 380.384 127.899 380.322C127.887 380.301 127.9 379.971 127.939 379.332L127.997 378.374L123.285 378.089L118.574 377.803L118.526 377.77C118.487 377.754 118.462 377.726 118.451 377.685Z" fill="#D9D9D9"/>
<path d="M121.183 355.765C121.167 355.73 121.162 355.692 121.167 355.652C121.188 355.588 121.231 355.539 121.295 355.507L121.337 355.492L124.633 355.893L127.929 356.294L127.966 356.318C128.021 356.365 128.051 356.423 128.056 356.49C128.051 356.53 128.037 356.565 128.013 356.596C127.995 356.634 127.965 356.657 127.924 356.666L127.871 356.69L126.322 356.501L124.783 356.314L124.516 358.518L124.249 360.722L124.213 360.768C124.195 360.806 124.166 360.829 124.124 360.837C124.061 360.863 124.001 360.856 123.946 360.816C123.908 360.798 123.884 360.768 123.876 360.727L123.852 360.673L124.119 358.469L124.386 356.266L122.848 356.078L121.299 355.89L121.253 355.854C121.215 355.836 121.192 355.806 121.183 355.765Z" fill="#D9D9D9"/>
<path d="M122.807 341.692C122.771 341.59 122.813 341.51 122.932 341.451C122.983 341.433 124.676 341.144 128.011 340.583C131.388 340.017 133.09 339.737 133.116 339.742C133.142 339.746 133.173 339.762 133.209 339.789L133.255 339.869L133.263 339.88C133.299 339.982 133.257 340.062 133.138 340.122C133.087 340.14 131.394 340.429 128.059 340.989C124.703 341.552 123.002 341.829 122.956 341.821C122.917 341.814 122.886 341.798 122.863 341.773L122.807 341.692Z" fill="#D9D9D9"/>
<path d="M133.159 299.505C133.15 299.467 133.152 299.429 133.163 299.391C133.196 299.331 133.247 299.291 133.316 299.271L133.36 299.264L137.875 300.674L142.381 302.08L142.666 301.164C142.856 300.553 142.961 300.236 142.982 300.215C143.029 300.174 143.082 300.152 143.138 300.148C143.172 300.152 143.204 300.162 143.234 300.178C143.279 300.213 143.309 300.261 143.325 300.322C143.33 300.351 143.226 300.71 143.012 301.397L142.691 302.429L142.648 302.468C142.623 302.502 142.59 302.519 142.548 302.52L142.491 302.534L137.871 301.091L133.251 299.649L133.212 299.605C133.178 299.581 133.16 299.547 133.159 299.505Z" fill="#D9D9D9"/>
<path d="M138.571 283.701C138.565 283.677 138.692 283.323 138.952 282.637L139.338 281.618L139.38 281.591C139.423 281.571 139.456 281.559 139.48 281.554L139.524 281.549L144.058 283.272L148.591 284.995L148.622 285.028C148.664 285.086 148.679 285.149 148.668 285.216C148.654 285.254 148.631 285.285 148.601 285.309C148.574 285.341 148.54 285.357 148.498 285.355L148.44 285.365L144.028 283.689L139.616 282.012L139.276 282.91C139.05 283.509 138.927 283.815 138.907 283.829C138.855 283.873 138.8 283.895 138.743 283.895C138.71 283.889 138.678 283.877 138.65 283.859C138.607 283.822 138.581 283.769 138.571 283.701Z" fill="#D9D9D9"/>
<path d="M154.781 247.006C154.779 246.982 154.948 246.645 155.288 245.995L155.794 245.03L155.839 245.008C155.884 244.994 155.918 244.986 155.942 244.983L155.987 244.984L160.279 247.242L164.572 249.499L164.598 249.536C164.633 249.599 164.64 249.663 164.621 249.728C164.603 249.764 164.577 249.792 164.544 249.812C164.513 249.841 164.477 249.852 164.436 249.846L164.378 249.849L160.2 247.652L156.023 245.455L155.577 246.305C155.28 246.872 155.121 247.162 155.1 247.173C155.043 247.211 154.986 247.226 154.929 247.219C154.897 247.209 154.867 247.194 154.841 247.172C154.803 247.13 154.783 247.074 154.781 247.006Z" fill="#D9D9D9"/>
<path d="M166.722 226.652C166.911 226.236 167.222 225.965 167.657 225.838C167.73 225.82 167.8 225.808 167.866 225.801C168.034 225.794 168.185 225.807 168.32 225.842C168.44 225.876 168.545 225.92 168.636 225.976C168.847 226.103 168.919 226.275 168.851 226.491C168.842 226.532 168.825 226.573 168.801 226.613C168.76 226.681 168.701 226.74 168.626 226.787C168.46 226.882 168.293 226.867 168.127 226.743C168.031 226.669 167.973 226.579 167.951 226.472L167.943 226.351C167.945 226.321 167.948 226.303 167.952 226.297C167.923 226.28 167.851 226.291 167.734 226.329C167.584 226.371 167.451 226.45 167.334 226.566C167.246 226.661 167.182 226.767 167.143 226.883C167.121 227.01 167.144 227.153 167.212 227.311C167.268 227.438 167.379 227.576 167.547 227.724C167.706 227.86 167.881 227.969 168.072 228.054C168.382 228.172 168.673 228.192 168.946 228.115C169.077 228.078 169.225 228 169.39 227.882C169.755 227.651 170.098 227.496 170.418 227.417C170.588 227.38 170.76 227.367 170.932 227.378C171.157 227.405 171.361 227.474 171.543 227.584C171.714 227.688 171.849 227.801 171.947 227.922C172.202 228.209 172.335 228.543 172.347 228.924C172.348 228.948 172.347 228.975 172.345 229.005C172.343 229.059 172.341 229.089 172.337 229.094L172.379 229.084C172.407 229.062 172.455 229.041 172.523 229.019C172.822 228.897 173.121 228.848 173.418 228.872C173.771 228.906 174.078 229.061 174.34 229.337C174.539 229.536 174.677 229.779 174.753 230.066C174.8 230.259 174.81 230.455 174.782 230.657C174.716 231.139 174.468 231.499 174.037 231.737C173.934 231.791 173.827 231.832 173.718 231.859C173.584 231.887 173.444 231.893 173.299 231.875C173.091 231.858 172.913 231.805 172.765 231.715C172.554 231.587 172.483 231.415 172.551 231.199C172.56 231.158 172.577 231.118 172.601 231.078C172.701 230.912 172.832 230.836 172.996 230.849C173.162 230.857 173.294 230.936 173.389 231.087C173.44 231.157 173.463 231.242 173.459 231.34C173.456 231.37 173.453 231.387 173.45 231.393C173.478 231.41 173.551 231.4 173.668 231.361C173.817 231.32 173.951 231.241 174.068 231.124C174.156 231.03 174.219 230.924 174.259 230.807C174.281 230.681 174.258 230.538 174.19 230.38C174.134 230.253 174.02 230.113 173.846 229.961C173.698 229.833 173.523 229.723 173.321 229.632C173.013 229.523 172.725 229.504 172.456 229.575C172.325 229.613 172.178 229.688 172.017 229.8C171.648 230.037 171.306 230.192 170.989 230.265C170.815 230.308 170.639 230.322 170.461 230.308C170.247 230.287 170.046 230.22 169.858 230.106C169.687 230.003 169.553 229.89 169.455 229.768C169.2 229.481 169.067 229.147 169.055 228.766C169.054 228.742 169.055 228.715 169.057 228.686C169.058 228.632 169.061 228.602 169.064 228.596L169.023 228.606C168.994 228.628 168.946 228.65 168.879 228.671C168.579 228.794 168.281 228.843 167.984 228.819C167.722 228.801 167.469 228.698 167.224 228.51C166.991 228.315 166.825 228.094 166.725 227.846C166.655 227.718 166.617 227.574 166.612 227.415C166.586 227.134 166.623 226.88 166.722 226.652ZM169.71 228.204C169.658 228.251 169.627 228.302 169.617 228.358C169.537 228.606 169.643 228.869 169.935 229.147C169.985 229.193 170.037 229.236 170.09 229.276C170.298 229.449 170.532 229.564 170.794 229.621C171.073 229.673 171.329 229.649 171.562 229.548C171.683 229.489 171.756 229.42 171.78 229.341C171.864 229.072 171.744 228.793 171.421 228.504C171.384 228.474 171.348 228.444 171.311 228.414C171.104 228.242 170.869 228.127 170.608 228.07C170.278 228.01 169.979 228.055 169.71 228.204Z" fill="#D9D9D9"/>
<path d="M180.443 206.065C180.45 205.996 180.481 205.945 180.537 205.911C180.604 205.884 180.669 205.884 180.731 205.911L180.781 205.945L183.431 210.612C185.202 213.741 186.09 215.307 186.095 215.311C186.119 215.36 186.102 215.425 186.045 215.508C186.011 215.557 185.98 215.584 185.952 215.589C185.915 215.596 185.174 215.468 183.727 215.206L181.544 214.814C181.54 214.82 181.546 214.953 181.56 215.214C181.58 215.479 181.577 215.624 181.553 215.647C181.542 215.664 181.488 215.683 181.391 215.706C181.34 215.71 181.281 215.719 181.216 215.73C181.178 215.728 181.149 215.704 181.132 215.66L181.014 213.839C181.01 213.821 181.014 213.803 181.025 213.787C181.052 213.748 181.102 213.734 181.176 213.745L183.21 214.106L185.155 214.455L182.82 210.335C181.238 207.555 180.45 206.167 180.456 206.17C180.44 206.135 180.435 206.1 180.443 206.065Z" fill="#D9D9D9"/>
<path d="M188.009 194.729C188.006 194.701 188.012 194.676 188.029 194.655C188.065 194.608 188.114 194.6 188.175 194.63L188.319 194.705C188.723 194.904 189.15 195.001 189.6 194.999C189.796 195.009 189.988 194.985 190.175 194.929C190.572 194.834 190.919 194.67 191.219 194.439C191.297 194.382 191.341 194.353 191.35 194.352C191.388 194.347 191.443 194.374 191.517 194.431C191.601 194.497 191.634 194.557 191.617 194.612C191.606 194.637 191.566 194.677 191.496 194.733C190.87 195.199 190.177 195.409 189.417 195.364C189.398 195.366 189.381 195.365 189.367 195.362L189.245 195.356L192.258 197.721L195.27 200.086L195.235 199.969C195.057 199.439 195.03 198.889 195.155 198.317C195.238 197.941 195.327 197.702 195.424 197.6C195.467 197.566 195.534 197.584 195.623 197.654C195.696 197.712 195.735 197.76 195.74 197.797C195.741 197.806 195.723 197.856 195.687 197.946C195.534 198.293 195.459 198.67 195.461 199.079C195.452 199.275 195.475 199.467 195.531 199.655C195.637 200.094 195.834 200.486 196.122 200.831L196.23 200.953C196.274 201.005 196.277 201.054 196.241 201.102C196.224 201.123 196.202 201.135 196.174 201.138C196.136 201.143 196.062 201.114 195.95 201.051C195.565 200.851 195.138 200.753 194.669 200.758C194.473 200.748 194.281 200.771 194.094 200.828C193.697 200.923 193.35 201.087 193.05 201.318C192.972 201.375 192.928 201.404 192.919 201.405C192.881 201.41 192.826 201.383 192.752 201.325C192.668 201.26 192.635 201.2 192.652 201.145C192.663 201.12 192.703 201.079 192.773 201.024C193.399 200.558 194.092 200.348 194.852 200.393C194.871 200.391 194.888 200.391 194.902 200.394L195.024 200.401L192.011 198.036L188.999 195.671L189.034 195.788C189.212 196.318 189.241 196.866 189.12 197.432C189.03 197.827 188.939 198.069 188.845 198.157C188.802 198.19 188.735 198.172 188.646 198.102C188.573 198.045 188.534 197.997 188.529 197.96C188.528 197.95 188.546 197.901 188.582 197.811C188.735 197.464 188.81 197.087 188.808 196.678C188.817 196.482 188.794 196.29 188.738 196.102C188.63 195.644 188.431 195.25 188.139 194.92C188.057 194.83 188.014 194.766 188.009 194.729Z" fill="#D9D9D9"/>
<path d="M201.831 180.977C201.879 180.903 201.952 180.825 202.051 180.743C202.333 180.504 202.653 180.409 203.01 180.458C203.486 180.524 203.901 180.75 204.254 181.135C204.305 181.189 204.348 181.24 204.384 181.29C204.574 181.548 204.766 181.955 204.96 182.51C205.163 183.056 205.347 183.442 205.511 183.668C205.68 183.88 205.889 184.061 206.139 184.212C206.433 184.393 206.711 184.475 206.975 184.459C207.163 184.448 207.308 184.389 207.41 184.284C207.49 184.203 207.56 184.159 207.621 184.15C207.725 184.154 207.75 184.216 207.696 184.337C207.668 184.419 207.594 184.514 207.473 184.62C207.181 184.86 206.856 184.956 206.499 184.906C206.023 184.84 205.604 184.611 205.24 184.217C205.195 184.167 205.154 184.118 205.118 184.068C204.933 183.814 204.741 183.408 204.542 182.848C204.349 182.311 204.168 181.927 203.998 181.696C203.834 181.479 203.625 181.298 203.371 181.153C203.077 180.972 202.798 180.89 202.535 180.906C202.347 180.917 202.204 180.973 202.106 181.073C202.004 181.179 201.917 181.222 201.845 181.203C201.826 181.194 201.811 181.181 201.8 181.163C201.778 181.117 201.789 181.055 201.831 180.977Z" fill="#D9D9D9"/>
<path d="M212.63 167.825L212.637 167.789L215.215 165.206L217.794 162.622L217.829 162.615C217.857 162.625 217.874 162.632 217.878 162.636L220.428 169.906C220.443 169.958 220.452 169.986 220.457 169.991C220.461 170.052 220.4 170.146 220.273 170.274C220.146 170.401 220.052 170.462 219.99 170.458L212.75 167.917C212.689 167.893 212.656 167.879 212.651 167.874C212.646 167.87 212.639 167.853 212.63 167.825ZM217.779 164.01C217.775 164.005 217.214 164.562 216.098 165.68C214.982 166.798 214.429 167.362 214.438 167.372L219.588 169.177L217.779 164.01Z" fill="#D9D9D9"/>
<path d="M227.934 152.219C227.94 152.195 228.218 151.94 228.766 151.453L229.581 150.73L229.631 150.726C229.678 150.729 229.713 150.733 229.736 150.739L229.778 150.756L232.99 154.389L236.203 158.023L236.215 158.066C236.224 158.138 236.209 158.2 236.168 158.255C236.138 158.281 236.104 158.298 236.066 158.305C236.027 158.322 235.989 158.32 235.953 158.298L235.897 158.281L232.771 154.745L229.644 151.209L228.926 151.846C228.448 152.271 228.197 152.485 228.173 152.488C228.106 152.503 228.047 152.497 227.997 152.471C227.97 152.45 227.948 152.425 227.931 152.396C227.91 152.342 227.912 152.283 227.934 152.219Z" fill="#D9D9D9"/>
<path d="M245.899 137.197L245.919 137.142L246.769 136.475C247.335 136.031 247.633 135.806 247.662 135.8C247.725 135.793 247.78 135.804 247.829 135.834C247.855 135.856 247.875 135.882 247.89 135.913C247.908 135.967 247.905 136.024 247.884 136.083C247.871 136.11 247.613 136.321 247.11 136.716L246.355 137.309L249.262 141.028L252.175 144.754L252.184 144.798C252.19 144.87 252.17 144.931 252.126 144.983C252.095 145.008 252.06 145.022 252.021 145.027C251.982 145.042 251.944 145.037 251.909 145.014L251.855 144.993L248.873 141.18L245.892 137.367L245.885 137.309C245.871 137.269 245.875 137.232 245.899 137.197Z" fill="#D9D9D9"/>
<path d="M279.427 114.235C279.446 114.2 279.472 114.173 279.506 114.152C279.57 114.129 279.634 114.133 279.7 114.163L279.737 114.187L282.243 118.34L284.748 122.493L284.752 122.537C284.752 122.576 284.744 122.608 284.728 122.633L284.709 122.68L283.782 123.253C283.144 123.64 282.791 123.83 282.725 123.823C282.688 123.814 282.659 123.797 282.636 123.772C282.613 123.747 282.596 123.719 282.584 123.687C282.574 123.631 282.585 123.573 282.619 123.513C282.63 123.491 282.909 123.315 283.456 122.983L284.277 122.486L281.839 118.444L279.4 114.403L279.4 114.345C279.391 114.303 279.4 114.267 279.427 114.235Z" fill="#D9D9D9"/>
<path d="M292.185 107.711L292.203 107.68L295.433 105.981L298.664 104.282L298.699 104.286C298.724 104.303 298.737 104.315 298.74 104.321L299.013 112.018C299.011 112.072 299.012 112.102 299.015 112.108C299.001 112.168 298.915 112.24 298.755 112.323C298.596 112.407 298.488 112.438 298.431 112.415L292.273 107.835C292.221 107.794 292.194 107.771 292.191 107.765C292.188 107.759 292.186 107.741 292.185 107.711ZM298.238 105.602C298.234 105.596 297.534 105.961 296.135 106.696C294.737 107.432 294.041 107.805 294.047 107.817L298.427 111.072L298.238 105.602Z" fill="#D9D9D9"/>
<path d="M311.436 97.3746C311.449 97.3542 311.79 97.1933 312.458 96.8918L313.452 96.4437L313.501 96.4546C313.545 96.4713 313.577 96.4861 313.597 96.4988L313.632 96.5271L315.619 100.951L317.606 105.375L317.605 105.42C317.593 105.491 317.559 105.547 317.504 105.586C317.467 105.603 317.43 105.609 317.391 105.604C317.349 105.608 317.314 105.595 317.285 105.564L317.238 105.531L315.304 101.225L313.37 96.9196L312.495 97.3142C311.911 97.5773 311.608 97.7069 311.584 97.703C311.516 97.6972 311.461 97.6742 311.421 97.6337C311.402 97.6061 311.388 97.5757 311.38 97.5425C311.377 97.4856 311.395 97.4297 311.436 97.3746Z" fill="#D9D9D9"/>
<path d="M335.658 87.9989C335.682 87.9683 335.713 87.946 335.75 87.9318C335.817 87.9205 335.88 87.9359 335.939 87.9778L335.972 88.0081L337.147 91.1131L338.322 94.2182L338.317 94.2627C338.301 94.333 338.264 94.3862 338.207 94.4224C338.169 94.4366 338.132 94.4403 338.093 94.4334C338.051 94.4351 338.017 94.4197 337.99 94.387L337.945 94.3509L337.392 92.8919L336.844 91.4423L334.768 92.2309L332.693 93.0195L332.636 93.0092C332.594 93.0109 332.559 92.9954 332.533 92.9628C332.48 92.9185 332.459 92.8624 332.469 92.7944C332.467 92.7523 332.483 92.7178 332.515 92.6912L332.552 92.6454L334.627 91.8568L336.702 91.0682L336.153 89.6185L335.601 88.1595L335.611 88.1021C335.61 88.06 335.625 88.0256 335.658 87.9989Z" fill="#D9D9D9"/>
<path d="M350.333 84.0257C350.406 83.947 350.501 83.9488 350.618 84.0312L350.649 84.0634L351.456 86.6607L352.261 89.2485L354.476 88.557L356.69 87.8655L355.885 85.2778L355.078 82.6805L355.085 82.6363C355.092 82.6133 355.106 82.5809 355.128 82.5391C355.16 82.5081 355.192 82.4876 355.224 82.4777C355.256 82.4677 355.294 82.4663 355.338 82.4735C355.38 82.4954 355.41 82.5139 355.429 82.529L355.46 82.5613L356.303 85.2732L357.146 87.985L357.139 88.0292C357.13 88.067 357.115 88.0962 357.093 88.1169L357.064 88.1575L354.614 88.933L352.151 89.7019L352.094 89.6882C352.052 89.6874 352.019 89.6699 351.994 89.6356L351.951 89.5968L351.104 86.8754L350.27 84.1606L350.287 84.1134L350.333 84.0257Z" fill="#D9D9D9"/>
<path d="M368.67 77.2544C368.748 77.1802 368.838 77.1853 368.942 77.2697C368.99 77.3265 369.489 78.0444 370.439 79.4234C371.419 80.8365 371.911 81.556 371.918 81.5819C371.924 81.6078 371.822 82.4744 371.61 84.1816C371.408 85.8451 371.299 86.7133 371.283 86.786C371.255 86.8959 371.177 86.9426 371.049 86.9261C370.981 86.9016 370.933 86.8586 370.904 86.7971C370.896 86.7647 370.994 85.9062 371.197 84.2216C371.409 82.5419 371.513 81.6956 371.51 81.6826C371.507 81.6697 371.022 80.9688 370.056 79.58C369.094 78.1831 368.609 77.4685 368.602 77.4361C368.599 77.3682 368.621 77.3076 368.67 77.2544Z" fill="#D9D9D9"/>
<path d="M388.746 74.0357L388.79 73.9972L391.691 73.4644L394.583 72.9334L394.626 72.9459C394.648 72.9554 394.678 72.9735 394.717 73.0003C394.744 73.036 394.761 73.0703 394.767 73.1031C394.773 73.1359 394.769 73.1738 394.757 73.2167C394.73 73.2555 394.708 73.2833 394.691 73.3L394.655 73.3269L391.872 73.838L389.098 74.3473L389.548 76.8065L389.997 79.2657L392.771 78.7564L395.545 78.2471L395.597 78.2578C395.677 78.2839 395.724 78.3363 395.738 78.415C395.744 78.4478 395.741 78.4856 395.728 78.5286C395.702 78.5674 395.68 78.5952 395.662 78.6119L395.627 78.6388L392.725 79.1716L389.824 79.7044L389.781 79.6919C389.743 79.6717 389.716 79.653 389.699 79.6357L389.662 79.6018L389.158 76.8984L388.661 74.1835L388.682 74.1289C388.688 74.0871 388.709 74.0561 388.746 74.0357ZM389.957 81.266L390.012 81.2355L392.953 80.6955L395.894 80.1555L395.947 80.1661C396.026 80.1922 396.073 80.2446 396.087 80.3233C396.093 80.3561 396.09 80.394 396.077 80.4369C396.051 80.4758 396.029 80.5035 396.011 80.5203L395.976 80.5472L393.015 81.0908L390.064 81.6326L390.021 81.6201C389.984 81.5999 389.957 81.5812 389.94 81.5639C389.916 81.5413 389.899 81.507 389.891 81.4611C389.876 81.3824 389.898 81.3174 389.957 81.266Z" fill="#D9D9D9"/>
<path d="M407.462 69.9268C407.48 69.9112 407.853 69.8591 408.581 69.7705L409.663 69.6389L409.706 69.6638C409.743 69.6929 409.77 69.7165 409.785 69.7348L409.81 69.7721L410.393 74.5869L410.977 79.4016L410.962 79.4438C410.929 79.5082 410.881 79.551 410.816 79.5723C410.777 79.5771 410.739 79.5716 410.703 79.5558C410.662 79.5474 410.632 79.5241 410.614 79.486L410.579 79.44L410.011 74.7543L409.443 70.0686L408.49 70.1845C407.855 70.2618 407.526 70.295 407.505 70.2842C407.441 70.2584 407.396 70.2202 407.37 70.1697C407.359 70.1374 407.355 70.1043 407.358 70.0704C407.371 70.015 407.406 69.9672 407.462 69.9268Z" fill="#D9D9D9"/>
<path d="M429.209 67.674C429.227 67.6528 429.25 67.6414 429.277 67.6398C429.337 67.6362 429.375 67.6672 429.393 67.733L429.432 67.8908C429.552 68.3244 429.762 68.7091 430.063 69.0448C430.186 69.1977 430.33 69.3258 430.497 69.4293C430.831 69.6628 431.185 69.815 431.556 69.886C431.651 69.907 431.702 69.9206 431.709 69.9268C431.737 69.9518 431.754 70.0109 431.76 70.1041C431.766 70.2106 431.743 70.2754 431.691 70.2986C431.665 70.3069 431.608 70.3036 431.52 70.2889C430.756 70.1282 430.139 69.7482 429.668 69.1489C429.654 69.1364 429.643 69.1237 429.636 69.1107L429.56 69.0152L429.791 72.8382L430.022 76.6612L430.086 76.5572C430.363 76.0728 430.758 75.6883 431.268 75.4035C431.604 75.2162 431.842 75.1249 431.983 75.1298C432.037 75.1399 432.067 75.2015 432.074 75.3146C432.08 75.4078 432.07 75.4685 432.045 75.4967C432.039 75.5038 431.99 75.5234 431.898 75.5557C431.538 75.671 431.206 75.8648 430.902 76.137C430.749 76.2599 430.621 76.4045 430.517 76.5711C430.259 76.9407 430.097 77.348 430.03 77.7928L430.01 77.9543C430 78.0217 429.966 78.0572 429.906 78.0608C429.879 78.0624 429.855 78.0539 429.834 78.0351C429.806 78.0101 429.778 77.935 429.75 77.8098C429.645 77.3887 429.435 77.0041 429.12 76.6558C428.997 76.503 428.852 76.3748 428.686 76.2714C428.351 76.0378 427.998 75.8856 427.626 75.8146C427.532 75.7936 427.481 75.78 427.474 75.7738C427.445 75.7488 427.428 75.6897 427.423 75.5965C427.416 75.4901 427.439 75.4252 427.491 75.402C427.517 75.3938 427.574 75.397 427.662 75.4117C428.426 75.5724 429.044 75.9524 429.514 76.5518C429.528 76.5643 429.539 76.577 429.547 76.5899L429.622 76.6854L429.392 72.8624L429.161 69.0394L429.097 69.1434C428.819 69.6278 428.428 70.0121 427.924 70.2965C427.569 70.4917 427.327 70.5831 427.2 70.5708C427.145 70.5607 427.115 70.4991 427.108 70.386C427.103 70.2928 427.112 70.2321 427.137 70.2039C427.144 70.1969 427.192 70.1772 427.284 70.1449C427.644 70.0296 427.977 69.8358 428.281 69.5636C428.434 69.4408 428.562 69.2961 428.665 69.1295C428.936 68.7458 429.098 68.3352 429.152 67.8978C429.165 67.7768 429.184 67.7022 429.209 67.674Z" fill="#D9D9D9"/>
<path d="M451.33 66.96C451.45 66.94 451.56 66.9567 451.66 67.01C451.82 67.0833 451.9 67.23 451.9 67.45C451.9 67.65 451.86 68.02 451.78 68.56C451.753 68.72 451.716 68.9867 451.67 69.36V69.45L451.73 69.43C451.756 69.43 451.856 69.4033 452.03 69.35C452.263 69.2767 452.45 69.2367 452.59 69.23C452.716 69.23 452.813 69.25 452.88 69.29C453.026 69.3633 453.103 69.4967 453.11 69.69C453.11 69.87 453.033 70.0033 452.88 70.09C452.813 70.13 452.716 70.15 452.59 70.15C452.45 70.1433 452.263 70.1033 452.03 70.03C451.856 69.9767 451.756 69.95 451.73 69.95L451.67 69.93L451.68 69.98C451.693 70.0733 451.723 70.2733 451.77 70.58C451.856 70.9933 451.9 71.3833 451.9 71.75C451.9 72.9967 451.84 74.3067 451.72 75.68C451.7 75.96 451.68 76.11 451.66 76.13L451.63 76.16H451.44H451.25L451.22 76.13C451.2 76.11 451.18 75.96 451.16 75.68C451.04 74.3067 450.98 72.9967 450.98 71.75C450.98 71.3833 451.023 70.9933 451.11 70.58C451.156 70.2733 451.186 70.0733 451.2 69.98L451.21 69.93L451.15 69.95C451.123 69.95 451.023 69.9767 450.85 70.03C450.616 70.1033 450.43 70.1433 450.29 70.15C450.163 70.15 450.066 70.13 450 70.09C449.853 70.0167 449.776 69.8833 449.77 69.69C449.77 69.51 449.846 69.3767 450 69.29C450.066 69.25 450.163 69.23 450.29 69.23C450.43 69.2367 450.616 69.2767 450.85 69.35C451.023 69.4033 451.123 69.43 451.15 69.43L451.21 69.45V69.36C451.163 68.9867 451.126 68.72 451.1 68.56C450.986 67.8467 450.953 67.42 451 67.28C451.04 67.12 451.15 67.0133 451.33 66.96Z" fill="#D9D9D9"/>
<path d="M488.386 71.1163C488.485 71.0747 488.571 71.1153 488.643 71.2383L488.658 71.2804L488.331 73.9807L488.005 76.671L490.308 76.9512L492.611 77.2314L492.937 74.541L493.264 71.8408L493.289 71.8035C493.305 71.7853 493.331 71.7616 493.368 71.7325C493.41 71.7175 493.448 71.712 493.481 71.716C493.514 71.7201 493.549 71.7344 493.586 71.7591C493.616 71.7962 493.635 71.8255 493.646 71.847L493.661 71.8891L493.32 74.7085L492.978 77.5279L492.953 77.5652C492.93 77.5958 492.904 77.6162 492.875 77.6262L492.832 77.6511L490.28 77.3507L487.719 77.0391L487.673 77.0033C487.635 76.9852 487.611 76.9555 487.603 76.9142L487.579 76.8609L487.922 74.0316L488.274 71.2135L488.308 71.1774L488.386 71.1163Z" fill="#D9D9D9"/>
<path d="M508.184 74.2373C508.272 74.2399 508.376 74.2624 508.497 74.305C508.848 74.4237 509.095 74.6486 509.238 74.9798C509.428 75.4215 509.451 75.8932 509.305 76.3951C509.285 76.466 509.263 76.5298 509.239 76.5864C509.117 76.8826 508.869 77.2573 508.495 77.7105C508.133 78.1661 507.899 78.5229 507.791 78.7809C507.697 79.0348 507.65 79.3076 507.651 79.5992C507.649 79.9445 507.723 80.2258 507.873 80.4431C507.98 80.5984 508.105 80.6925 508.248 80.7255C508.358 80.7526 508.433 80.79 508.472 80.8377C508.523 80.9285 508.483 80.9821 508.351 80.9986C508.266 81.0169 508.147 81.0018 507.993 80.9532C507.637 80.8268 507.387 80.5979 507.244 80.2667C507.054 79.8251 507.033 79.3468 507.182 78.8318C507.2 78.7674 507.221 78.7069 507.245 78.6503C507.366 78.3606 507.614 77.986 507.99 77.5262C508.348 77.0837 508.582 76.7302 508.692 76.4656C508.792 76.2129 508.839 75.9402 508.831 75.6474C508.833 75.3021 508.76 75.0208 508.61 74.8034C508.502 74.6482 508.381 74.5546 508.244 74.5228C508.101 74.4898 508.019 74.4374 507.998 74.3658C507.995 74.345 507.999 74.3253 508.009 74.3068C508.037 74.2645 508.096 74.2414 508.184 74.2373Z" fill="#D9D9D9"/>
<path d="M551.75 84.1C551.788 84.0908 551.826 84.0922 551.864 84.1041C551.924 84.1367 551.964 84.1876 551.984 84.2568L551.991 84.301L551.005 87.4712L550.019 90.6414L549.988 90.6737C549.932 90.7191 549.871 90.7382 549.803 90.731C549.765 90.7191 549.733 90.6986 549.707 90.6696C549.673 90.6449 549.655 90.6115 549.654 90.5694L549.64 90.5127L550.104 89.0231L550.564 87.543L548.445 86.8813L546.326 86.2197L546.287 86.1761C546.253 86.1515 546.235 86.1181 546.234 86.0759C546.22 86.0087 546.238 85.9514 546.288 85.904C546.312 85.8698 546.346 85.8523 546.388 85.8515L546.445 85.8377L548.564 86.4994L550.683 87.161L551.143 85.6809L551.606 84.1913L551.65 84.1525C551.674 84.1183 551.708 84.1008 551.75 84.1Z" fill="#D9D9D9"/>
<path d="M565.274 88.2529C565.38 88.2362 565.451 88.2919 565.488 88.4201C565.497 88.4732 565.477 90.1916 565.43 93.5754C565.38 97.0014 565.351 98.7268 565.342 98.7517C565.332 98.7767 565.311 98.8043 565.278 98.8346L565.191 98.8658L565.179 98.8716C565.072 98.8884 565.001 98.8326 564.964 98.7045C564.955 98.6514 564.975 96.9329 565.023 93.5491C565.071 90.1443 565.103 88.42 565.12 88.3764C565.134 88.339 565.155 88.3113 565.183 88.2935L565.274 88.2529Z" fill="#D9D9D9"/>
<path d="M601.858 104.527C601.882 104.524 602.218 104.694 602.867 105.035L603.832 105.542L603.853 105.587C603.868 105.633 603.876 105.667 603.878 105.691L603.877 105.736L601.627 110.032L599.377 114.328L599.34 114.354C599.277 114.389 599.213 114.397 599.148 114.377C599.112 114.359 599.085 114.333 599.064 114.3C599.035 114.269 599.024 114.233 599.031 114.191L599.027 114.133L601.217 109.952L603.407 105.771L602.558 105.324C601.991 105.026 601.702 104.867 601.691 104.846C601.653 104.788 601.638 104.731 601.645 104.675C601.654 104.642 601.67 104.612 601.691 104.586C601.734 104.548 601.789 104.528 601.858 104.527Z" fill="#D9D9D9"/>
<path d="M622.167 116.516C622.582 116.705 622.853 117.017 622.98 117.452C622.998 117.526 623.011 117.596 623.017 117.662C623.025 117.83 623.011 117.982 622.977 118.117C622.943 118.237 622.899 118.342 622.844 118.434C622.716 118.645 622.545 118.716 622.329 118.648C622.288 118.639 622.247 118.622 622.207 118.598C622.139 118.556 622.081 118.498 622.033 118.422C621.939 118.256 621.954 118.089 622.077 117.923C622.151 117.827 622.241 117.768 622.347 117.747L622.469 117.739C622.498 117.741 622.516 117.744 622.522 117.748C622.539 117.719 622.528 117.646 622.49 117.53C622.448 117.379 622.369 117.246 622.253 117.129C622.158 117.04 622.053 116.976 621.936 116.937C621.81 116.915 621.667 116.938 621.509 117.006C621.382 117.061 621.245 117.173 621.097 117.341C620.962 117.5 620.852 117.676 620.768 117.866C620.651 118.177 620.631 118.469 620.708 118.741C620.745 118.873 620.823 119.022 620.941 119.187C621.172 119.553 621.327 119.896 621.406 120.217C621.443 120.387 621.456 120.559 621.445 120.732C621.419 120.957 621.35 121.161 621.24 121.344C621.136 121.515 621.024 121.65 620.903 121.747C620.616 122.003 620.283 122.136 619.903 122.147C619.879 122.148 619.852 122.147 619.822 122.145C619.768 122.144 619.739 122.141 619.733 122.138L619.743 122.179C619.765 122.208 619.786 122.256 619.808 122.323C619.93 122.624 619.98 122.923 619.956 123.22C619.922 123.573 619.767 123.881 619.492 124.143C619.294 124.343 619.051 124.48 618.765 124.556C618.572 124.603 618.376 124.613 618.175 124.585C617.693 124.519 617.333 124.27 617.096 123.837C617.041 123.734 617 123.628 616.973 123.518C616.945 123.384 616.94 123.244 616.957 123.099C616.974 122.891 617.027 122.712 617.117 122.564C617.244 122.353 617.416 122.281 617.631 122.35C617.672 122.359 617.713 122.376 617.753 122.4C617.918 122.5 617.994 122.632 617.981 122.796C617.974 122.963 617.895 123.094 617.744 123.189C617.674 123.241 617.59 123.264 617.492 123.259C617.462 123.256 617.444 123.254 617.438 123.25C617.421 123.279 617.432 123.351 617.47 123.468C617.512 123.618 617.591 123.752 617.707 123.869C617.802 123.957 617.908 124.021 618.024 124.061C618.151 124.083 618.293 124.06 618.451 123.992C618.578 123.936 618.717 123.822 618.868 123.648C618.997 123.5 619.106 123.325 619.197 123.123C619.305 122.814 619.324 122.525 619.253 122.256C619.215 122.124 619.14 121.978 619.028 121.816C618.791 121.447 618.636 121.103 618.563 120.786C618.52 120.612 618.506 120.436 618.52 120.257C618.54 120.043 618.607 119.842 618.72 119.654C618.824 119.483 618.936 119.348 619.058 119.25C619.344 118.995 619.677 118.862 620.058 118.851C620.082 118.85 620.109 118.85 620.138 118.853C620.192 118.854 620.222 118.856 620.227 118.86L620.217 118.819C620.196 118.79 620.174 118.742 620.153 118.674C620.03 118.374 619.981 118.075 620.004 117.778C620.022 117.516 620.125 117.262 620.312 117.017C620.506 116.784 620.727 116.618 620.974 116.518C621.103 116.448 621.246 116.41 621.405 116.405C621.685 116.379 621.939 116.416 622.167 116.516ZM620.62 119.507C620.573 119.455 620.522 119.424 620.466 119.413C620.218 119.333 619.956 119.439 619.678 119.731C619.632 119.782 619.589 119.833 619.549 119.887C619.377 120.095 619.263 120.329 619.206 120.591C619.154 120.871 619.178 121.128 619.279 121.36C619.338 121.482 619.407 121.555 619.486 121.579C619.754 121.664 620.033 121.544 620.322 121.22C620.351 121.184 620.381 121.147 620.411 121.111C620.583 120.903 620.697 120.668 620.754 120.406C620.813 120.076 620.769 119.776 620.62 119.507Z" fill="#D9D9D9"/>
<path d="M636.307 127.01C636.414 127.02 636.471 127.096 636.478 127.238L636.472 127.282L634.929 129.522L633.392 131.754L635.3 133.074L637.208 134.393L638.745 132.162L640.288 129.922L640.327 129.9C640.35 129.891 640.384 129.883 640.43 129.874C640.475 129.88 640.51 129.893 640.538 129.912C640.565 129.931 640.59 129.96 640.611 129.999C640.62 130.046 640.624 130.081 640.623 130.105L640.617 130.149L639.006 132.488L637.395 134.827L637.356 134.848C637.32 134.865 637.288 134.87 637.259 134.866L637.209 134.868L635.089 133.415L632.967 131.947L632.943 131.894C632.918 131.86 632.911 131.823 632.923 131.782L632.926 131.724L634.543 129.377L636.163 127.044L636.21 127.028L636.307 127.01Z" fill="#D9D9D9"/>
<path d="M652.45 136.942C652.474 136.944 652.774 137.171 653.351 137.624L654.208 138.297L654.221 138.345C654.227 138.392 654.229 138.428 654.227 138.452L654.218 138.495L651.231 142.316L648.243 146.137L648.203 146.156C648.135 146.179 648.07 146.175 648.009 146.144C647.978 146.119 647.955 146.089 647.941 146.052C647.918 146.017 647.914 145.98 647.928 145.94L647.935 145.882L650.842 142.164L653.75 138.445L652.994 137.853C652.491 137.457 652.236 137.248 652.228 137.226C652.201 137.162 652.197 137.103 652.214 137.049C652.229 137.019 652.25 136.992 652.275 136.97C652.324 136.941 652.382 136.931 652.45 136.942Z" fill="#D9D9D9"/>
<path d="M667.939 149.748C668.044 149.77 668.092 149.848 668.081 149.981C668.07 150.033 667.442 151.634 666.199 154.782C664.938 157.968 664.299 159.572 664.282 159.592C664.264 159.612 664.234 159.63 664.193 159.647L664.101 159.645L664.087 159.646C663.982 159.624 663.934 159.547 663.945 159.414C663.956 159.361 664.584 157.761 665.827 154.613C667.08 151.445 667.721 149.844 667.752 149.809C667.778 149.779 667.808 149.761 667.841 149.754L667.939 149.748Z" fill="#D9D9D9"/>
<path d="M682.286 165.279C682.389 165.308 682.432 165.392 682.413 165.534L682.399 165.576L680.477 167.502L678.563 169.42L680.202 171.062L681.841 172.704L683.755 170.786L685.676 168.861L685.719 168.847C685.742 168.842 685.778 168.839 685.825 168.839C685.867 168.854 685.9 168.872 685.924 168.896C685.947 168.92 685.966 168.953 685.98 168.995C685.98 169.042 685.978 169.078 685.973 169.101L685.959 169.144L683.953 171.154L681.947 173.164L681.904 173.178C681.867 173.188 681.834 173.188 681.805 173.178L681.756 173.171L679.933 171.359L678.111 169.533L678.097 169.476C678.078 169.439 678.078 169.401 678.097 169.363L678.111 169.307L680.124 167.289L682.137 165.286L682.187 165.279L682.286 165.279Z" fill="#D9D9D9"/>
<path d="M708.743 194.485L708.784 194.504L710.601 196.828L712.418 199.152L712.427 199.196C712.429 199.22 712.427 199.255 712.421 199.302L712.408 199.351L710.229 201.061L708.05 202.771L708 202.772C707.954 202.767 707.919 202.76 707.896 202.753L707.856 202.733L706.039 200.41L704.221 198.086L704.213 198.042C704.213 197.999 704.217 197.966 704.224 197.943C704.233 197.911 704.256 197.881 704.293 197.852C704.355 197.802 704.423 197.792 704.496 197.819L704.548 197.854L706.279 200.068L708.016 202.29L709.983 200.746L711.949 199.202L710.212 196.981L708.469 194.751L708.46 194.707C708.461 194.665 708.465 194.632 708.472 194.609C708.481 194.577 708.503 194.546 708.54 194.517C708.577 194.489 708.612 194.474 708.645 194.473C708.669 194.471 708.702 194.475 708.743 194.485ZM702.962 199.024L703.016 199.044L704.858 201.4L706.706 203.763L706.721 203.815C706.735 203.897 706.71 203.963 706.647 204.013C706.621 204.033 706.586 204.048 706.542 204.057C706.495 204.051 706.461 204.045 706.438 204.037L706.397 204.018L704.543 201.647L702.695 199.284L702.687 199.24C702.668 199.119 702.715 199.043 702.828 199.014C702.877 199.001 702.921 199.004 702.962 199.024Z" fill="#D9D9D9"/>
<path d="M722.945 211.896L722.987 211.939L722.993 211.947C723.05 212.03 723.038 212.119 722.959 212.215C722.931 212.234 722.095 212.447 720.449 212.856C718.806 213.255 717.978 213.458 717.968 213.466C717.957 213.473 717.473 214.176 716.518 215.575C715.554 216.971 715.058 217.679 715.03 217.698C714.968 217.725 714.903 217.725 714.836 217.699C714.739 217.652 714.712 217.565 714.754 217.439C714.79 217.374 715.284 216.651 716.236 215.271C717.21 213.852 717.707 213.135 717.729 213.12C717.751 213.105 718.597 212.893 720.266 212.484C721.891 212.081 722.741 211.875 722.814 211.864C722.853 211.862 722.897 211.872 722.945 211.896Z" fill="#D9D9D9"/>
<path d="M732.199 226.236C732.221 226.246 732.421 226.565 732.8 227.193L733.363 228.127L733.358 228.176C733.347 228.222 733.336 228.256 733.326 228.278L733.302 228.316L729.154 230.828L725.005 233.341L724.961 233.345C724.889 233.342 724.83 233.315 724.784 233.265C724.763 233.231 724.753 233.194 724.753 233.155C724.744 233.114 724.753 233.077 724.78 233.045L724.807 232.993L728.844 230.548L732.882 228.103L732.386 227.281C732.055 226.733 731.89 226.447 731.891 226.423C731.889 226.354 731.905 226.297 731.941 226.253C731.966 226.23 731.994 226.212 732.026 226.201C732.082 226.19 732.14 226.202 732.199 226.236Z" fill="#D9D9D9"/>
<path d="M740.702 242.386L740.733 242.403L742.427 245.637L744.12 248.87L744.117 248.906C744.099 248.93 744.088 248.944 744.082 248.947L736.394 249.227C736.34 249.225 736.311 249.226 736.305 249.229C736.245 249.215 736.173 249.129 736.09 248.969C736.006 248.81 735.976 248.702 735.999 248.644L740.578 242.474C740.619 242.422 740.642 242.395 740.648 242.392C740.654 242.389 740.672 242.387 740.702 242.386ZM742.803 248.444C742.808 248.441 742.445 247.74 741.712 246.34C740.979 244.941 740.606 244.244 740.594 244.25L737.339 248.64L742.803 248.444Z" fill="#D9D9D9"/>
<path d="M750.993 261.675C751.013 261.688 751.174 262.029 751.474 262.698L751.921 263.692L751.91 263.741C751.893 263.785 751.878 263.817 751.865 263.838L751.837 263.872L747.416 265.866L742.995 267.86L742.95 267.858C742.879 267.846 742.824 267.813 742.784 267.758C742.768 267.721 742.762 267.683 742.766 267.645C742.762 267.603 742.776 267.568 742.807 267.539L742.84 267.491L747.143 265.551L751.445 263.61L751.052 262.735C750.79 262.151 750.661 261.847 750.665 261.823C750.67 261.755 750.694 261.701 750.734 261.66C750.762 261.641 750.792 261.627 750.825 261.619C750.882 261.616 750.938 261.634 750.993 261.675Z" fill="#D9D9D9"/>
<path d="M765.567 299.693C765.646 299.766 765.646 299.857 765.568 299.965C765.514 300.017 764.828 300.56 763.509 301.593C762.157 302.658 761.469 303.194 761.443 303.202C761.418 303.21 760.547 303.16 758.831 303.054C757.16 302.954 756.287 302.898 756.214 302.886C756.102 302.865 756.051 302.79 756.06 302.662C756.08 302.593 756.12 302.542 756.18 302.509C756.212 302.499 757.074 302.544 758.767 302.644C760.455 302.753 761.306 302.805 761.319 302.801C761.331 302.797 762.002 302.27 763.33 301.22C764.666 300.174 765.35 299.646 765.382 299.636C765.45 299.629 765.511 299.648 765.567 299.693Z" fill="#D9D9D9"/>
<path d="M769.663 319.882C769.737 319.96 769.729 320.055 769.64 320.166L769.606 320.195L766.965 320.847L764.334 321.497L764.889 323.75L765.443 326.003L768.074 325.353L770.714 324.701L770.758 324.711C770.781 324.719 770.812 324.735 770.852 324.759C770.881 324.794 770.9 324.827 770.908 324.859C770.916 324.891 770.915 324.929 770.905 324.973C770.881 325.013 770.86 325.043 770.844 325.06L770.81 325.089L768.053 325.77L765.296 326.451L765.252 326.441C765.215 326.43 765.187 326.413 765.167 326.39L765.129 326.358L764.505 323.865L763.889 321.36L763.906 321.304C763.909 321.262 763.929 321.23 763.965 321.207L764.006 321.166L766.773 320.483L769.532 319.812L769.578 319.831L769.663 319.882Z" fill="#D9D9D9"/>
<path d="M778.697 361.2C778.721 361.23 778.735 361.266 778.74 361.305C778.735 361.373 778.705 361.431 778.65 361.477L778.613 361.502L773.917 362.073L769.232 362.643L769.347 363.596C769.424 364.232 769.458 364.564 769.448 364.592C769.421 364.649 769.383 364.69 769.332 364.717C769.3 364.727 769.267 364.731 769.233 364.729C769.177 364.715 769.13 364.684 769.09 364.635C769.074 364.61 769.023 364.24 768.936 363.526L768.806 362.454L768.83 362.4C768.838 362.359 768.861 362.329 768.9 362.311L768.946 362.275L773.75 361.691L778.555 361.106L778.608 361.13C778.649 361.138 778.679 361.162 778.697 361.2Z" fill="#D9D9D9"/>
<path d="M780.225 377.837C780.24 377.856 780.269 378.232 780.313 378.964L780.379 380.052L780.352 380.093C780.32 380.129 780.295 380.153 780.276 380.168L780.237 380.19L775.396 380.484L770.555 380.777L770.514 380.76C770.452 380.723 770.412 380.672 770.394 380.607C770.392 380.567 770.4 380.53 770.418 380.495C770.429 380.454 770.454 380.426 770.493 380.41L770.541 380.377L775.252 380.092L779.964 379.806L779.906 378.848C779.867 378.209 779.854 377.879 779.866 377.859C779.896 377.797 779.937 377.754 779.989 377.731C780.021 377.722 780.055 377.72 780.088 377.725C780.143 377.742 780.189 377.779 780.225 377.837Z" fill="#D9D9D9"/>
<path d="M781.546 401.07C781.566 401.104 781.576 401.14 781.576 401.18C781.563 401.247 781.526 401.3 781.466 401.34L781.426 401.36H776.576H771.726L771.686 401.34C771.653 401.32 771.63 401.297 771.616 401.27L771.586 401.23L771.576 400.14C771.576 399.394 771.596 398.994 771.636 398.94C771.663 398.914 771.693 398.897 771.726 398.89C771.76 398.884 771.793 398.884 771.826 398.89C771.88 398.91 771.923 398.95 771.956 399.01C771.97 399.03 771.976 399.36 771.976 400V400.96H776.696H781.416L781.466 400.99C781.506 401.004 781.533 401.03 781.546 401.07Z" fill="#D9D9D9"/>
<path d="M778.723 419.069C778.731 419.156 778.721 419.262 778.693 419.387C778.618 419.75 778.425 420.022 778.113 420.204C777.698 420.446 777.232 420.524 776.716 420.44C776.644 420.429 776.578 420.415 776.518 420.398C776.21 420.312 775.808 420.111 775.313 419.794C774.817 419.49 774.434 419.3 774.165 419.223C773.902 419.16 773.625 419.147 773.336 419.183C772.993 419.222 772.723 419.329 772.525 419.504C772.384 419.63 772.306 419.765 772.29 419.911C772.277 420.024 772.249 420.102 772.206 420.146C772.122 420.208 772.064 420.174 772.032 420.046C772.003 419.964 772.004 419.844 772.033 419.685C772.116 419.316 772.313 419.041 772.624 418.859C773.039 418.617 773.512 418.539 774.041 418.625C774.107 418.635 774.17 418.649 774.229 418.666C774.531 418.751 774.933 418.952 775.434 419.27C775.917 419.573 776.296 419.763 776.572 419.84C776.835 419.909 777.112 419.923 777.401 419.88C777.744 419.841 778.015 419.734 778.212 419.559C778.353 419.434 778.431 419.301 778.446 419.162C778.462 419.016 778.504 418.928 778.573 418.899C778.593 418.894 778.613 418.895 778.632 418.903C778.678 418.926 778.708 418.981 778.723 419.069Z" fill="#D9D9D9"/>
<path d="M778.524 441.62C778.541 441.642 778.549 441.667 778.545 441.693C778.539 441.746 778.477 441.789 778.358 441.822C777.923 441.923 777.49 442.115 777.06 442.399C776.84 442.547 776.632 442.71 776.436 442.887C776.088 443.214 775.806 443.569 775.592 443.953C775.551 444.015 775.527 444.049 775.519 444.055L775.486 444.081L775.357 444.065C775.238 444.051 775.174 444.02 775.167 443.972C775.164 443.938 775.193 443.867 775.253 443.761C775.507 443.328 775.803 442.958 776.143 442.65L776.2 442.596L774.712 442.405L771.734 442.043L770.244 441.872L770.286 441.937C770.542 442.318 770.742 442.748 770.885 443.229C770.918 443.347 770.929 443.423 770.918 443.455C770.899 443.5 770.83 443.515 770.711 443.5L770.582 443.484L770.556 443.451C770.55 443.444 770.535 443.405 770.509 443.335C770.393 442.911 770.205 442.498 769.944 442.097C769.825 441.915 769.666 441.707 769.466 441.475C769.102 441.095 768.728 440.804 768.342 440.603C768.229 440.542 768.175 440.485 768.182 440.432C768.188 440.379 768.254 440.337 768.378 440.305C768.801 440.202 769.234 440.01 769.677 439.728C769.89 439.579 770.094 439.419 770.289 439.248C770.646 438.909 770.928 438.55 771.135 438.172C771.176 438.11 771.2 438.076 771.208 438.07L771.241 438.044L771.37 438.06C771.489 438.074 771.553 438.106 771.56 438.154C771.563 438.188 771.534 438.261 771.473 438.375C771.219 438.807 770.923 439.174 770.584 439.475L770.526 439.539L772.015 439.72L774.993 440.082L776.482 440.264L776.441 440.188C776.184 439.814 775.984 439.387 775.841 438.906C775.809 438.781 775.798 438.703 775.809 438.671C775.828 438.626 775.897 438.611 776.016 438.625L776.145 438.641L776.171 438.674C776.177 438.682 776.192 438.721 776.218 438.791C776.328 439.207 776.516 439.623 776.782 440.038C776.959 440.288 777.123 440.493 777.271 440.652C777.622 441.03 777.996 441.321 778.395 441.524C778.474 441.587 778.517 441.619 778.524 441.62ZM777.696 441.64C777.745 441.619 777.774 441.606 777.781 441.6L777.708 441.541C777.375 441.292 777.106 441.045 776.901 440.798L776.821 440.708L773.456 440.298L770.091 439.889L769.992 439.957C769.734 440.148 769.414 440.324 769.032 440.485C768.982 440.506 768.953 440.519 768.946 440.525L769.019 440.585C769.352 440.833 769.621 441.081 769.826 441.327L769.906 441.418L773.271 441.827L776.636 442.237L776.735 442.168C776.993 441.978 777.313 441.802 777.696 441.64Z" fill="#D9D9D9"/>
<path d="M775.857 457.822C775.867 457.844 775.805 458.215 775.673 458.937L775.477 460.009L775.441 460.043C775.402 460.07 775.371 460.088 775.349 460.097L775.306 460.11L770.536 459.234L765.766 458.358L765.73 458.331C765.678 458.281 765.652 458.222 765.651 458.154C765.658 458.114 765.674 458.08 765.7 458.051C765.72 458.014 765.751 457.993 765.793 457.987L765.848 457.966L770.49 458.819L775.133 459.671L775.305 458.727C775.42 458.097 775.486 457.774 775.503 457.757C775.547 457.704 775.596 457.672 775.652 457.662C775.686 457.661 775.719 457.667 775.751 457.68C775.8 457.709 775.835 457.757 775.857 457.822Z" fill="#D9D9D9"/>
<path d="M770.587 480.854C770.59 480.896 770.584 480.949 770.568 481.014C770.477 481.383 770.172 481.561 769.653 481.55C769.338 481.548 769.113 481.485 768.979 481.363C768.844 481.24 768.796 481.071 768.836 480.854C768.884 480.66 769.005 480.531 769.198 480.469C769.287 480.443 769.38 480.442 769.477 480.466C769.574 480.49 769.656 480.534 769.723 480.599C769.836 480.696 769.888 480.832 769.879 481.008C769.876 481.049 769.884 481.071 769.904 481.076L769.972 481.052L769.984 481.044C770.105 480.999 770.144 480.909 770.102 480.775C770.095 480.746 770.081 480.718 770.06 480.693C769.943 480.526 769.57 480.324 768.942 480.087C768.698 479.992 768.367 479.873 767.949 479.728C766.73 479.297 765.352 478.733 763.813 478.037C763.585 477.933 763.372 477.836 763.175 477.746C762.496 477.379 762.141 476.965 762.11 476.504C762.111 476.36 762.135 476.236 762.182 476.13C762.326 475.85 762.617 475.716 763.053 475.728C763.368 475.73 763.593 475.792 763.728 475.915C763.863 476.037 763.91 476.207 763.87 476.424C763.823 476.618 763.702 476.746 763.508 476.808C763.419 476.834 763.326 476.836 763.229 476.812C763.132 476.788 763.05 476.743 762.984 476.679C762.87 476.582 762.818 476.446 762.827 476.269C762.83 476.229 762.822 476.206 762.803 476.201C762.732 476.211 762.676 476.242 762.636 476.294C762.591 476.338 762.579 476.4 762.6 476.481C762.618 476.575 762.699 476.677 762.844 476.788C763.069 476.933 763.709 477.191 764.765 477.562C766.016 478.001 767.376 478.557 768.845 479.228C769.445 479.493 769.858 479.715 770.081 479.894C770.093 479.904 770.104 479.914 770.115 479.923C770.266 480.064 770.371 480.182 770.429 480.279C770.546 480.445 770.599 480.637 770.587 480.854Z" fill="#D9D9D9"/>
<path d="M758.506 519.069C758.504 519.111 758.492 519.163 758.468 519.225C758.334 519.581 758.009 519.721 757.496 519.647C757.183 519.607 756.967 519.518 756.848 519.38C756.73 519.242 756.703 519.068 756.768 518.858C756.839 518.67 756.974 518.558 757.174 518.52C757.265 518.504 757.358 518.515 757.451 518.55C757.545 518.586 757.621 518.639 757.679 518.711C757.78 518.821 757.815 518.963 757.785 519.137C757.777 519.177 757.783 519.2 757.801 519.207L757.872 519.191L757.884 519.185C758.01 519.155 758.06 519.07 758.034 518.932C758.031 518.902 758.02 518.873 758.002 518.845C757.906 518.666 757.561 518.421 756.966 518.109C756.735 517.985 756.421 517.827 756.023 517.633C754.865 517.058 753.565 516.332 752.122 515.455C751.908 515.324 751.708 515.202 751.523 515.088C750.893 514.642 750.591 514.189 750.616 513.727C750.634 513.585 750.673 513.464 750.732 513.365C750.909 513.104 751.213 513.006 751.645 513.07C751.958 513.111 752.173 513.2 752.292 513.338C752.411 513.476 752.438 513.65 752.373 513.86C752.302 514.047 752.166 514.16 751.967 514.198C751.875 514.213 751.783 514.203 751.69 514.168C751.596 514.132 751.52 514.078 751.462 514.006C751.361 513.897 751.325 513.755 751.356 513.581C751.364 513.541 751.358 513.518 751.34 513.51C751.268 513.512 751.209 513.536 751.163 513.582C751.113 513.62 751.093 513.681 751.105 513.764C751.111 513.859 751.18 513.97 751.31 514.098C751.516 514.269 752.12 514.602 753.123 515.098C754.312 515.685 755.595 516.401 756.972 517.245C757.537 517.581 757.919 517.851 758.12 518.055C758.13 518.066 758.14 518.077 758.15 518.088C758.283 518.246 758.373 518.376 758.419 518.479C758.515 518.658 758.544 518.855 758.506 519.069Z" fill="#D9D9D9"/>
<path d="M750.525 534.868C750.502 534.952 750.455 535.048 750.385 535.155C750.186 535.468 749.909 535.654 749.553 535.713C749.08 535.792 748.616 535.7 748.164 535.438C748.1 535.401 748.043 535.365 747.994 535.328C747.736 535.138 747.432 534.807 747.081 534.335C746.725 533.874 746.435 533.561 746.21 533.394C745.986 533.241 745.733 533.131 745.45 533.061C745.115 532.976 744.824 532.981 744.578 533.074C744.402 533.141 744.28 533.24 744.214 533.371C744.162 533.472 744.108 533.535 744.052 533.561C743.952 533.589 743.909 533.537 743.925 533.405C743.927 533.318 743.97 533.206 744.054 533.068C744.262 532.753 744.543 532.565 744.899 532.506C745.373 532.427 745.842 532.522 746.306 532.79C746.364 532.823 746.418 532.858 746.467 532.895C746.719 533.082 747.024 533.413 747.38 533.888C747.724 534.343 748.011 534.656 748.242 534.825C748.463 534.984 748.717 535.094 749.003 535.157C749.337 535.242 749.628 535.238 749.874 535.145C750.051 535.078 750.17 534.982 750.234 534.857C750.3 534.726 750.37 534.659 750.445 534.656C750.466 534.658 750.484 534.666 750.499 534.681C750.534 534.718 750.542 534.78 750.525 534.868Z" fill="#D9D9D9"/>
<path d="M742.365 555.889C742.373 555.916 742.371 555.941 742.359 555.964C742.334 556.012 742.261 556.03 742.139 556.018C741.696 555.959 741.223 555.985 740.72 556.097C740.463 556.158 740.211 556.236 739.965 556.332C739.523 556.515 739.134 556.747 738.798 557.03C738.738 557.073 738.703 557.096 738.694 557.099L738.654 557.112L738.538 557.051C738.432 556.995 738.384 556.944 738.394 556.896C738.403 556.863 738.455 556.808 738.549 556.729C738.94 556.415 739.348 556.174 739.774 556.006L739.846 555.976L738.523 555.269L735.868 553.873L734.536 553.184L734.552 553.26C734.657 553.707 734.691 554.181 734.655 554.681C734.644 554.803 734.627 554.878 734.606 554.904C734.572 554.939 734.503 554.929 734.396 554.873L734.281 554.812L734.269 554.772C734.266 554.763 734.265 554.721 734.267 554.646C734.308 554.209 734.278 553.756 734.176 553.288C734.13 553.076 734.054 552.825 733.949 552.536C733.744 552.052 733.497 551.647 733.208 551.322C733.124 551.225 733.094 551.152 733.119 551.105C733.143 551.058 733.22 551.042 733.348 551.056C733.779 551.11 734.251 551.083 734.766 550.977C735.018 550.914 735.265 550.837 735.508 550.746C735.962 550.555 736.352 550.32 736.679 550.04C736.74 549.997 736.775 549.973 736.784 549.971L736.824 549.958L736.939 550.019C737.045 550.074 737.093 550.126 737.084 550.174C737.074 550.206 737.021 550.265 736.924 550.349C736.533 550.664 736.126 550.902 735.703 551.063L735.626 551.102L736.954 551.8L739.609 553.197L740.937 553.895L740.925 553.809C740.817 553.369 740.782 552.898 740.818 552.397C740.832 552.269 740.85 552.192 740.872 552.166C740.905 552.131 740.975 552.141 741.081 552.197L741.196 552.257L741.209 552.298C741.212 552.307 741.212 552.349 741.211 552.423C741.167 552.852 741.195 553.308 741.296 553.79C741.374 554.087 741.454 554.336 741.537 554.538C741.73 555.016 741.977 555.421 742.278 555.752C742.33 555.84 742.359 555.885 742.365 555.889ZM741.583 555.613C741.637 555.611 741.668 555.609 741.677 555.606L741.63 555.525C741.407 555.174 741.243 554.847 741.139 554.543L741.096 554.431L738.096 552.853L735.096 551.275L734.979 551.304C734.67 551.39 734.309 551.441 733.894 551.457C733.84 551.458 733.809 551.461 733.8 551.464L733.848 551.545C734.071 551.896 734.234 552.223 734.339 552.526L734.381 552.639L737.381 554.217L740.382 555.795L740.499 555.766C740.807 555.68 741.169 555.629 741.583 555.613Z" fill="#D9D9D9"/>
<path d="M734.144 570.096C734.145 570.12 733.956 570.446 733.577 571.074L733.014 572.007L732.967 572.026C732.922 572.037 732.887 572.043 732.863 572.044L732.818 572.041L728.67 569.528L724.522 567.015L724.498 566.977C724.467 566.912 724.463 566.847 724.486 566.783C724.507 566.749 724.535 566.723 724.569 566.705C724.601 566.677 724.638 566.668 724.679 566.678L724.737 566.678L728.774 569.123L732.811 571.569L733.307 570.747C733.638 570.199 733.814 569.92 733.836 569.909C733.895 569.875 733.953 569.864 734.009 569.874C734.041 569.886 734.069 569.903 734.094 569.926C734.13 569.971 734.146 570.027 734.144 570.096Z" fill="#D9D9D9"/>
<path d="M721.486 587.082C721.477 587.189 721.401 587.246 721.259 587.253L721.214 587.246L718.977 585.699L716.748 584.158L715.432 586.068L714.116 587.979L716.345 589.52L718.582 591.068L718.604 591.107C718.612 591.129 718.621 591.164 718.63 591.21C718.623 591.254 718.611 591.29 718.592 591.318C718.573 591.345 718.544 591.37 718.505 591.391C718.458 591.4 718.423 591.404 718.399 591.403L718.355 591.397L716.019 589.782L713.684 588.166L713.662 588.127C713.646 588.091 713.64 588.059 713.644 588.029L713.642 587.979L715.092 585.857L716.555 583.733L716.609 583.708C716.642 583.683 716.679 583.676 716.72 583.688L716.778 583.692L719.122 585.313L721.452 586.937L721.468 586.984L721.486 587.082Z" fill="#D9D9D9"/>
<path d="M709.761 605.637L709.731 605.691L709.725 605.698C709.664 605.777 709.575 605.793 709.46 605.745C709.434 605.724 708.982 604.988 708.103 603.535C707.234 602.082 706.795 601.351 706.784 601.343C706.774 601.335 705.96 601.082 704.344 600.584C702.726 600.077 701.904 599.813 701.878 599.792C701.834 599.741 701.814 599.679 701.82 599.607C701.835 599.5 701.91 599.449 702.043 599.452C702.116 599.466 702.951 599.724 704.549 600.224C706.19 600.733 707.022 600.995 707.043 601.012C707.064 601.028 707.517 601.774 708.403 603.249C709.27 604.684 709.719 605.435 709.751 605.503C709.765 605.539 709.768 605.584 709.761 605.637Z" fill="#D9D9D9"/>
<path d="M698.472 619.222C698.45 619.327 698.373 619.374 698.24 619.363C698.168 619.344 697.35 619.037 695.785 618.441C694.177 617.834 693.363 617.522 693.343 617.504C693.323 617.486 692.916 616.714 692.121 615.188C691.342 613.704 690.939 612.927 690.911 612.858C690.872 612.751 690.909 612.669 691.023 612.61C691.093 612.591 691.157 612.599 691.216 612.633C691.241 612.656 691.648 613.418 692.437 614.921C693.217 616.424 693.612 617.18 693.622 617.189C693.632 617.198 694.428 617.5 696.012 618.094C697.596 618.698 698.4 619.011 698.425 619.033C698.466 619.087 698.482 619.15 698.472 619.222Z" fill="#D9D9D9"/>
<path d="M685.197 633.51C685.169 633.614 685.089 633.656 684.957 633.637C684.905 633.623 683.349 632.899 680.288 631.464C677.189 630.011 675.63 629.275 675.611 629.256C675.593 629.237 675.576 629.206 675.562 629.164L675.569 629.072L675.569 629.058C675.597 628.954 675.677 628.912 675.809 628.93C675.861 628.945 677.418 629.669 680.479 631.103C683.559 632.547 685.115 633.286 685.148 633.319C685.176 633.347 685.193 633.378 685.197 633.411L685.197 633.51Z" fill="#D9D9D9"/>
<path d="M669.321 648.595C669.308 648.641 669.139 648.792 668.812 649.046C668.788 649.059 668.768 649.072 668.753 649.085C668.305 649.394 667.886 649.539 667.495 649.52C667.288 649.517 667.092 649.45 666.906 649.321C666.87 649.3 666.555 648.955 665.964 648.285C665.358 647.611 665.035 647.26 664.994 647.234C664.83 647.129 664.659 647.072 664.481 647.061C664.137 647.045 663.822 647.151 663.534 647.38C663.44 647.454 663.375 647.481 663.338 647.46C663.32 647.449 663.28 647.409 663.218 647.339C663.13 647.239 663.096 647.171 663.118 647.135C663.128 647.116 663.161 647.078 663.216 647.02C663.477 646.762 663.621 646.461 663.646 646.117C663.657 645.938 663.621 645.761 663.537 645.586C663.516 645.542 663.208 645.178 662.612 644.495C662.02 643.825 661.716 643.471 661.7 643.432C661.594 643.232 661.552 643.029 661.574 642.822C661.602 642.431 661.796 642.032 662.156 641.623C662.343 641.413 662.525 641.246 662.703 641.125C662.741 641.108 662.809 641.155 662.906 641.265L663.012 641.385L663.01 641.427C663.013 641.451 662.977 641.496 662.903 641.562C662.462 641.989 662.287 642.385 662.378 642.75C662.386 642.779 662.396 642.806 662.408 642.83L662.44 642.896L663.32 643.906C663.929 644.605 664.248 644.986 664.277 645.049L664.301 645.121C664.425 645.413 664.424 645.739 664.298 646.1C664.247 646.243 664.185 646.379 664.111 646.507C664.084 646.557 664.068 646.585 664.063 646.589L664.151 646.552C664.286 646.494 664.428 646.448 664.577 646.414C664.949 646.333 665.273 646.372 665.546 646.53C665.642 646.578 665.781 646.705 665.962 646.91L666.632 647.652L667.534 648.657L667.588 648.688C667.903 648.864 668.295 648.788 668.763 648.462C668.812 648.427 668.859 648.39 668.904 648.35C668.979 648.283 669.028 648.253 669.051 648.259L669.093 648.262L669.206 648.389C669.29 648.484 669.328 648.553 669.321 648.595Z" fill="#D9D9D9"/>
<path d="M640.448 670.714L640.435 670.748L637.433 672.824L634.431 674.9L634.395 674.901C634.369 674.887 634.354 674.877 634.35 674.871L633.152 667.262C633.147 667.208 633.143 667.179 633.139 667.173C633.146 667.112 633.223 667.03 633.371 666.928C633.519 666.825 633.623 666.782 633.682 666.798L640.347 670.602C640.403 670.636 640.433 670.656 640.436 670.662C640.44 670.667 640.444 670.685 640.448 670.714ZM634.695 673.538C634.699 673.544 635.35 673.097 636.65 672.199C637.949 671.3 638.595 670.845 638.588 670.834L633.847 668.13L634.695 673.538Z" fill="#D9D9D9"/>
<path d="M622.583 683.301C622.573 683.323 622.254 683.524 621.627 683.904L620.695 684.468L620.645 684.464C620.599 684.452 620.565 684.441 620.544 684.431L620.506 684.407L618.001 680.255L615.495 676.102L615.492 676.057C615.495 675.985 615.521 675.926 615.572 675.88C615.606 675.859 615.642 675.849 615.681 675.849C615.722 675.84 615.759 675.849 615.791 675.876L615.842 675.903L618.281 679.945L620.719 683.986L621.54 683.489C622.087 683.157 622.373 682.992 622.397 682.993C622.466 682.99 622.522 683.007 622.567 683.042C622.59 683.067 622.607 683.096 622.619 683.128C622.629 683.184 622.617 683.242 622.583 683.301Z" fill="#D9D9D9"/>
<path d="M602.047 695.165C602.039 695.192 602.023 695.211 601.999 695.224C601.952 695.249 601.882 695.222 601.788 695.143C601.457 694.842 601.053 694.595 600.575 694.402C600.329 694.305 600.077 694.227 599.82 694.167C599.353 694.066 598.901 694.036 598.464 694.078C598.389 694.079 598.348 694.078 598.339 694.076L598.298 694.063L598.238 693.948C598.182 693.842 598.172 693.772 598.207 693.738C598.233 693.717 598.308 693.7 598.43 693.689C598.93 693.652 599.402 693.686 599.849 693.79L599.925 693.806L599.238 692.473L597.846 689.815L597.141 688.491L597.111 688.564C596.943 688.991 596.702 689.4 596.388 689.791C596.309 689.885 596.254 689.937 596.221 689.947C596.174 689.957 596.122 689.908 596.066 689.802L596.006 689.687L596.019 689.646C596.021 689.637 596.045 689.603 596.088 689.542C596.371 689.205 596.603 688.816 596.785 688.373C596.868 688.172 596.948 687.922 597.026 687.625C597.132 687.11 597.159 686.636 597.106 686.205C597.092 686.077 597.108 686 597.155 685.976C597.202 685.951 597.274 685.981 597.371 686.065C597.696 686.354 598.1 686.601 598.584 686.806C598.827 686.897 599.074 686.974 599.326 687.037C599.807 687.138 600.262 687.166 600.691 687.122C600.765 687.12 600.807 687.121 600.816 687.124L600.856 687.136L600.917 687.251C600.972 687.358 600.983 687.428 600.947 687.461C600.921 687.483 600.844 687.501 600.716 687.515C600.216 687.552 599.746 687.517 599.306 687.409L599.221 687.398L599.917 688.726L601.309 691.384L602.005 692.713L602.044 692.636C602.205 692.212 602.443 691.804 602.758 691.413C602.842 691.316 602.901 691.262 602.933 691.253C602.981 691.243 603.032 691.291 603.088 691.397L603.148 691.512L603.136 691.553C603.133 691.562 603.11 691.597 603.066 691.657C602.786 691.985 602.551 692.376 602.36 692.831C602.255 693.119 602.18 693.37 602.133 693.583C602.021 694.086 601.994 694.56 602.053 695.003C602.046 695.105 602.044 695.159 602.047 695.165ZM601.561 694.494C601.606 694.523 601.633 694.539 601.642 694.542L601.649 694.447C601.665 694.032 601.716 693.67 601.803 693.361L601.832 693.244L600.259 690.241L598.686 687.238L598.573 687.196C598.27 687.091 597.944 686.928 597.594 686.705C597.549 686.676 597.521 686.66 597.512 686.658L597.505 686.752C597.489 687.167 597.438 687.529 597.352 687.838L597.323 687.955L598.896 690.958L600.469 693.961L600.581 694.004C600.884 694.108 601.211 694.271 601.561 694.494Z" fill="#D9D9D9"/>
<path d="M581.576 704.101C581.554 704.133 581.524 704.157 581.488 704.173C581.422 704.188 581.358 704.177 581.297 704.139L581.262 704.11L579.902 701.082L578.542 698.053L578.544 698.009C578.556 697.937 578.589 697.882 578.644 697.843C578.681 697.826 578.718 697.82 578.757 697.825C578.799 697.82 578.834 697.834 578.863 697.865L578.911 697.898L579.55 699.321L580.185 700.735L582.209 699.822L584.232 698.91L584.29 698.917C584.332 698.912 584.367 698.926 584.396 698.957C584.451 698.998 584.475 699.052 584.47 699.121C584.474 699.163 584.461 699.198 584.43 699.227L584.396 699.275L582.372 700.187L580.349 701.1L580.984 702.514L581.623 703.937L581.616 703.995C581.62 704.037 581.607 704.072 581.576 704.101Z" fill="#D9D9D9"/>
<path d="M570.201 708.712L570.18 708.742L566.768 710.038L563.356 711.335L563.321 711.327C563.299 711.306 563.287 711.293 563.284 711.287L563.94 703.614C563.949 703.56 563.952 703.531 563.95 703.524C563.97 703.467 564.065 703.406 564.233 703.342C564.402 703.278 564.513 703.261 564.567 703.29L570.129 708.579C570.175 708.626 570.199 708.652 570.202 708.658C570.204 708.665 570.204 708.683 570.201 708.712ZM563.938 710.076C563.94 710.082 564.68 709.805 566.157 709.243C567.634 708.682 568.37 708.395 568.365 708.383L564.408 704.623L563.938 710.076Z" fill="#D9D9D9"/>
<path d="M547.282 717.446C547.203 717.527 547.114 717.523 547.017 717.435C546.996 717.414 546.506 715.859 545.546 712.772C544.586 709.684 544.108 708.126 544.113 708.096C544.132 707.978 544.202 707.922 544.322 707.926C544.351 707.931 544.378 707.94 544.403 707.953C544.437 707.971 544.467 708.024 544.495 708.113C544.575 708.326 545.052 709.839 545.928 712.652C546.88 715.714 547.358 717.262 547.361 717.296C547.358 717.353 547.332 717.403 547.282 717.446ZM545.43 718.025C545.379 718.083 545.305 718.092 545.209 718.052C545.175 718.035 545.145 717.981 545.117 717.892C545.037 717.68 544.559 716.167 543.684 713.353C542.722 710.259 542.252 708.681 542.275 708.618C542.332 708.509 542.416 708.476 542.526 708.518C542.551 708.531 542.574 708.549 542.595 708.57C542.616 708.592 543.106 710.146 544.066 713.234C545.026 716.321 545.504 717.88 545.499 717.909C545.492 717.953 545.469 717.992 545.43 718.025Z" fill="#D9D9D9"/>
<path d="M524.67 723.027C524.642 723.054 524.609 723.073 524.57 723.082C524.502 723.085 524.442 723.062 524.389 723.014L524.36 722.98L523.567 719.756L522.774 716.532L522.783 716.488C522.808 716.42 522.851 716.372 522.912 716.343C522.951 716.333 522.989 716.334 523.026 716.346C523.068 716.349 523.101 716.369 523.123 716.404L523.164 716.446L523.537 717.96L523.907 719.466L526.062 718.933L528.218 718.401L528.273 718.418C528.315 718.422 528.348 718.441 528.37 718.477C528.417 718.527 528.431 718.585 528.413 718.651C528.41 718.694 528.39 718.726 528.355 718.748L528.313 718.789L526.158 719.322L524.003 719.854L524.373 721.359L524.746 722.874L524.728 722.93C524.725 722.972 524.706 723.004 524.67 723.027Z" fill="#D9D9D9"/>
<path d="M507.688 727.086C507.658 727.112 507.624 727.128 507.585 727.136C507.517 727.135 507.458 727.108 507.408 727.056L507.381 727.021L506.53 722.368L505.681 717.725L504.736 717.898C504.107 718.014 503.778 718.067 503.749 718.059C503.691 718.036 503.647 718 503.618 717.951C503.605 717.92 503.599 717.887 503.6 717.853C503.61 717.797 503.638 717.747 503.684 717.705C503.708 717.687 504.074 717.613 504.782 717.483L505.845 717.288L505.899 717.308C505.941 717.314 505.972 717.336 505.992 717.373L506.031 717.416L506.902 722.178L507.772 726.939L507.752 726.993C507.746 727.035 507.724 727.066 507.688 727.086Z" fill="#D9D9D9"/>
<path d="M489.424 730.055C489.406 730.077 489.384 730.09 489.358 730.093C489.298 730.101 489.258 730.072 489.237 730.007L489.188 729.852C489.042 729.427 488.809 729.055 488.488 728.738C488.357 728.593 488.205 728.474 488.032 728.381C487.684 728.168 487.322 728.037 486.947 727.989C486.851 727.974 486.8 727.963 486.792 727.957C486.763 727.934 486.742 727.876 486.731 727.784C486.718 727.678 486.737 727.612 486.787 727.585C486.813 727.576 486.87 727.575 486.959 727.585C487.731 727.699 488.37 728.041 488.876 728.611C488.891 728.622 488.902 728.634 488.911 728.647L488.992 728.738L488.531 724.935L488.071 721.133L488.013 721.241C487.765 721.741 487.394 722.149 486.902 722.464C486.578 722.671 486.346 722.777 486.205 722.781C486.151 722.774 486.117 722.714 486.103 722.602C486.092 722.509 486.098 722.448 486.121 722.418C486.127 722.411 486.174 722.388 486.264 722.35C486.617 722.213 486.937 722 487.224 721.71C487.369 721.578 487.488 721.426 487.581 721.253C487.817 720.869 487.954 720.452 487.994 720.004L488.005 719.842C488.01 719.774 488.042 719.736 488.102 719.729C488.128 719.726 488.153 719.733 488.175 719.75C488.205 719.774 488.237 719.847 488.272 719.97C488.403 720.384 488.636 720.755 488.971 721.084C489.103 721.229 489.255 721.348 489.427 721.442C489.776 721.654 490.137 721.785 490.512 721.833C490.608 721.849 490.66 721.859 490.667 721.865C490.697 721.888 490.718 721.946 490.729 722.039C490.742 722.145 490.723 722.211 490.672 722.237C490.647 722.247 490.589 722.247 490.501 722.238C489.728 722.124 489.089 721.782 488.584 721.212C488.569 721.2 488.557 721.188 488.549 721.176L488.468 721.085L488.928 724.887L489.389 728.689L489.447 728.581C489.695 728.081 490.062 727.674 490.548 727.36C490.891 727.143 491.126 727.037 491.254 727.042C491.309 727.049 491.343 727.108 491.357 727.221C491.368 727.313 491.362 727.375 491.339 727.404C491.333 727.412 491.285 727.434 491.196 727.472C490.843 727.609 490.523 727.823 490.236 728.113C490.091 728.245 489.971 728.397 489.878 728.569C489.631 728.969 489.494 729.388 489.467 729.828C489.461 729.95 489.447 730.025 489.424 730.055Z" fill="#D9D9D9"/>
<path d="M471.244 731.561C471.224 731.576 470.849 731.605 470.117 731.65L469.029 731.716L468.987 731.688C468.952 731.657 468.927 731.632 468.912 731.613L468.89 731.574L468.598 726.733L468.305 721.891L468.323 721.85C468.359 721.788 468.41 721.748 468.476 721.731C468.516 721.728 468.553 721.736 468.588 721.754C468.628 721.765 468.657 721.79 468.672 721.829L468.705 721.877L468.99 726.589L469.274 731.3L470.232 731.242C470.871 731.203 471.201 731.19 471.222 731.202C471.284 731.232 471.326 731.273 471.349 731.325C471.358 731.357 471.36 731.391 471.355 731.424C471.339 731.479 471.301 731.524 471.244 731.561Z" fill="#D9D9D9"/>
</svg>
