<svg width="532" height="214" viewBox="0 0 532 214" fill="none" xmlns="http://www.w3.org/2000/svg">
<rect width="532" height="162" rx="37" fill="#1A1919"/>
<path d="M28.584 49.1321H28.136C27.9653 49.1321 27.88 49.0361 27.88 48.8441V28.8441C27.88 28.6521 27.9653 28.5561 28.136 28.5561H35.368C36.6693 28.5561 37.704 28.9507 38.472 29.7401C39.2613 30.5294 39.656 31.5854 39.656 32.9081V36.8441C39.656 38.1667 39.2613 39.2227 38.472 40.0121C37.704 40.8014 36.6693 41.1961 35.368 41.1961H29.128C28.936 41.1961 28.84 41.2814 28.84 41.4521V48.8441C28.84 49.0361 28.7547 49.1321 28.584 49.1321ZM29.128 40.3001H35.368C36.4347 40.3001 37.256 39.9907 37.832 39.3721C38.408 38.7534 38.696 37.9001 38.696 36.8121V32.9401C38.696 31.8521 38.408 30.9987 37.832 30.3801C37.256 29.7614 36.4347 29.4521 35.368 29.4521H29.128C28.936 29.4521 28.84 29.5374 28.84 29.7081V40.0441C28.84 40.2147 28.936 40.3001 29.128 40.3001ZM45.014 49.1321H44.566C44.3953 49.1321 44.31 49.0361 44.31 48.8441V33.1001C44.31 32.9081 44.3953 32.8121 44.566 32.8121H45.014C45.1847 32.8121 45.27 32.9081 45.27 33.1001V34.5401H45.398C45.6327 34.1134 46.038 33.7187 46.614 33.3561C47.2113 32.9934 47.9793 32.8121 48.918 32.8121H50.198C50.39 32.8121 50.486 32.8974 50.486 33.0681V33.4521C50.486 33.6227 50.39 33.7081 50.198 33.7081H48.886C47.798 33.7081 46.9233 34.0494 46.262 34.7321C45.6007 35.4147 45.27 36.3427 45.27 37.5161V48.8441C45.27 49.0361 45.1847 49.1321 45.014 49.1321ZM60.6855 49.1321H57.9655C56.6642 49.1321 55.6188 48.7374 54.8295 47.9481C54.0615 47.1587 53.6775 46.1027 53.6775 44.7801V37.1641C53.6775 35.8414 54.0615 34.7854 54.8295 33.9961C55.6188 33.2067 56.6642 32.8121 57.9655 32.8121H60.6855C61.9868 32.8121 63.0215 33.2067 63.7895 33.9961C64.5788 34.7854 64.9735 35.8414 64.9735 37.1641V44.7801C64.9735 46.1027 64.5788 47.1587 63.7895 47.9481C63.0215 48.7374 61.9868 49.1321 60.6855 49.1321ZM57.9655 48.2361H60.6855C61.7522 48.2361 62.5735 47.9267 63.1495 47.3081C63.7255 46.6894 64.0135 45.8361 64.0135 44.7481V37.1961C64.0135 36.1081 63.7255 35.2547 63.1495 34.6361C62.5735 34.0174 61.7522 33.7081 60.6855 33.7081H57.9655C56.8988 33.7081 56.0775 34.0174 55.5015 34.6361C54.9255 35.2547 54.6375 36.1081 54.6375 37.1961V44.7481C54.6375 45.8361 54.9255 46.6894 55.5015 47.3081C56.0775 47.9267 56.8988 48.2361 57.9655 48.2361ZM76.2748 48.1721H73.9068C72.6054 48.1721 71.5601 47.7774 70.7708 46.9881C70.0028 46.1987 69.6188 45.1427 69.6188 43.8201V37.1641C69.6188 35.8414 70.0028 34.7854 70.7708 33.9961C71.5601 33.2067 72.6054 32.8121 73.9068 32.8121H80.4988C80.6694 32.8121 80.7548 32.9081 80.7548 33.1001V49.0361C80.7548 50.3587 80.3601 51.4147 79.5708 52.2041C78.8028 52.9934 77.7681 53.3881 76.4668 53.3881H70.7388C70.5468 53.3881 70.4508 53.3027 70.4508 53.1321V52.7481C70.4508 52.5774 70.5468 52.4921 70.7388 52.4921H76.4668C77.5334 52.4921 78.3548 52.1827 78.9308 51.5641C79.5068 50.9454 79.7948 50.0921 79.7948 49.0041V46.5081H79.6668C79.0694 47.6174 77.9388 48.1721 76.2748 48.1721ZM79.7948 43.9481V33.9641C79.7948 33.7934 79.6988 33.7081 79.5068 33.7081H73.9068C72.8401 33.7081 72.0188 34.0174 71.4427 34.6361C70.8668 35.2547 70.5788 36.1081 70.5788 37.1961V43.7881C70.5788 44.8761 70.8668 45.7294 71.4427 46.3481C72.0188 46.9667 72.8401 47.2761 73.9068 47.2761H76.2108C77.2774 47.2761 78.1414 46.9881 78.8028 46.4121C79.4641 45.8361 79.7948 45.0147 79.7948 43.9481ZM86.5765 49.1321H86.1285C85.9578 49.1321 85.8725 49.0361 85.8725 48.8441V33.1001C85.8725 32.9081 85.9578 32.8121 86.1285 32.8121H86.5765C86.7472 32.8121 86.8325 32.9081 86.8325 33.1001V34.5401H86.9605C87.1952 34.1134 87.6005 33.7187 88.1765 33.3561C88.7738 32.9934 89.5418 32.8121 90.4805 32.8121H91.7605C91.9525 32.8121 92.0485 32.8974 92.0485 33.0681V33.4521C92.0485 33.6227 91.9525 33.7081 91.7605 33.7081H90.4485C89.3605 33.7081 88.4858 34.0494 87.8245 34.7321C87.1632 35.4147 86.8325 36.3427 86.8325 37.5161V48.8441C86.8325 49.0361 86.7472 49.1321 86.5765 49.1321ZM101.896 49.1321H99.528C98.2267 49.1321 97.1813 48.7374 96.392 47.9481C95.624 47.1587 95.24 46.1027 95.24 44.7801V37.1641C95.24 35.8414 95.624 34.7854 96.392 33.9961C97.1813 33.2067 98.2267 32.8121 99.528 32.8121H106.12C106.291 32.8121 106.376 32.9081 106.376 33.1001V48.8441C106.376 49.0361 106.291 49.1321 106.12 49.1321H105.672C105.501 49.1321 105.416 49.0361 105.416 48.8441V47.4681H105.288C104.691 48.5774 103.56 49.1321 101.896 49.1321ZM105.416 44.9081V33.9641C105.416 33.7934 105.32 33.7081 105.128 33.7081H99.528C98.4613 33.7081 97.64 34.0174 97.064 34.6361C96.488 35.2547 96.2 36.1081 96.2 37.1961V44.7481C96.2 45.8361 96.488 46.6894 97.064 47.3081C97.64 47.9267 98.4613 48.2361 99.528 48.2361H101.832C102.899 48.2361 103.763 47.9481 104.424 47.3721C105.085 46.7961 105.416 45.9747 105.416 44.9081ZM112.202 49.1321H111.754C111.583 49.1321 111.498 49.0361 111.498 48.8441V33.1001C111.498 32.9081 111.583 32.8121 111.754 32.8121H112.202C112.372 32.8121 112.458 32.9081 112.458 33.1001V34.4761H112.586C113.183 33.3667 114.314 32.8121 115.978 32.8121H117.385C119.263 32.8121 120.554 33.5694 121.258 35.0841C121.556 34.3374 122.1 33.7721 122.89 33.3881C123.7 33.0041 124.511 32.8121 125.322 32.8121H126.602C127.903 32.8121 128.938 33.2067 129.706 33.9961C130.495 34.7854 130.89 35.8414 130.89 37.1641V48.8441C130.89 49.0361 130.804 49.1321 130.634 49.1321H130.186C130.015 49.1321 129.93 49.0361 129.93 48.8441V37.1961C129.93 36.1081 129.642 35.2547 129.066 34.6361C128.49 34.0174 127.668 33.7081 126.602 33.7081H125.322C124.234 33.7081 123.348 34.0281 122.666 34.6681C122.004 35.2867 121.674 36.1294 121.674 37.1961V48.8441C121.674 49.0361 121.588 49.1321 121.418 49.1321H120.97C120.799 49.1321 120.714 49.0361 120.714 48.8441V37.1961C120.714 36.1081 120.426 35.2547 119.85 34.6361C119.274 34.0174 118.452 33.7081 117.385 33.7081H116.042C114.975 33.7081 114.111 33.9961 113.45 34.5721C112.788 35.1481 112.458 35.9694 112.458 37.0361V48.8441C112.458 49.0361 112.372 49.1321 112.202 49.1321ZM136.545 49.1321H136.097C135.927 49.1321 135.841 49.0361 135.841 48.8441V33.1001C135.841 32.9081 135.927 32.8121 136.097 32.8121H136.545C136.716 32.8121 136.801 32.9081 136.801 33.1001V34.4761H136.929C137.527 33.3667 138.657 32.8121 140.321 32.8121H141.729C143.607 32.8121 144.897 33.5694 145.601 35.0841C145.9 34.3374 146.444 33.7721 147.233 33.3881C148.044 33.0041 148.855 32.8121 149.665 32.8121H150.945C152.247 32.8121 153.281 33.2067 154.049 33.9961C154.839 34.7854 155.233 35.8414 155.233 37.1641V48.8441C155.233 49.0361 155.148 49.1321 154.977 49.1321H154.529C154.359 49.1321 154.273 49.0361 154.273 48.8441V37.1961C154.273 36.1081 153.985 35.2547 153.409 34.6361C152.833 34.0174 152.012 33.7081 150.945 33.7081H149.665C148.577 33.7081 147.692 34.0281 147.009 34.6681C146.348 35.2867 146.017 36.1294 146.017 37.1961V48.8441C146.017 49.0361 145.932 49.1321 145.761 49.1321H145.313C145.143 49.1321 145.057 49.0361 145.057 48.8441V37.1961C145.057 36.1081 144.769 35.2547 144.193 34.6361C143.617 34.0174 142.796 33.7081 141.729 33.7081H140.385C139.319 33.7081 138.455 33.9961 137.793 34.5721C137.132 35.1481 136.801 35.9694 136.801 37.0361V48.8441C136.801 49.0361 136.716 49.1321 136.545 49.1321ZM160.345 30.1561V26.9881C160.345 26.7961 160.43 26.7001 160.601 26.7001H161.049C161.22 26.7001 161.305 26.7961 161.305 26.9881V30.1561C161.305 30.3481 161.22 30.4441 161.049 30.4441H160.601C160.43 30.4441 160.345 30.3481 160.345 30.1561ZM160.345 48.8441V33.1001C160.345 32.9081 160.43 32.8121 160.601 32.8121H161.049C161.22 32.8121 161.305 32.9081 161.305 33.1001V48.8441C161.305 49.0361 161.22 49.1321 161.049 49.1321H160.601C160.43 49.1321 160.345 49.0361 160.345 48.8441ZM167.295 49.1321H166.847C166.677 49.1321 166.591 49.0361 166.591 48.8441V33.1001C166.591 32.9081 166.677 32.8121 166.847 32.8121H167.295C167.466 32.8121 167.551 32.9081 167.551 33.1001V34.4761H167.679C168.277 33.3667 169.407 32.8121 171.071 32.8121H173.439C174.741 32.8121 175.775 33.2067 176.543 33.9961C177.333 34.7854 177.727 35.8414 177.727 37.1641V48.8441C177.727 49.0361 177.642 49.1321 177.471 49.1321H177.023C176.853 49.1321 176.767 49.0361 176.767 48.8441V37.1961C176.767 36.1081 176.479 35.2547 175.903 34.6361C175.327 34.0174 174.506 33.7081 173.439 33.7081H171.135C170.069 33.7081 169.205 33.9961 168.543 34.5721C167.882 35.1481 167.551 35.9694 167.551 37.0361V48.8441C167.551 49.0361 167.466 49.1321 167.295 49.1321ZM189.181 48.1721H186.813C185.512 48.1721 184.466 47.7774 183.677 46.9881C182.909 46.1987 182.525 45.1427 182.525 43.8201V37.1641C182.525 35.8414 182.909 34.7854 183.677 33.9961C184.466 33.2067 185.512 32.8121 186.813 32.8121H193.405C193.576 32.8121 193.661 32.9081 193.661 33.1001V49.0361C193.661 50.3587 193.266 51.4147 192.477 52.2041C191.709 52.9934 190.674 53.3881 189.373 53.3881H183.645C183.453 53.3881 183.357 53.3027 183.357 53.1321V52.7481C183.357 52.5774 183.453 52.4921 183.645 52.4921H189.373C190.44 52.4921 191.261 52.1827 191.837 51.5641C192.413 50.9454 192.701 50.0921 192.701 49.0041V46.5081H192.573C191.976 47.6174 190.845 48.1721 189.181 48.1721ZM192.701 43.9481V33.9641C192.701 33.7934 192.605 33.7081 192.413 33.7081H186.813C185.746 33.7081 184.925 34.0174 184.349 34.6361C183.773 35.2547 183.485 36.1081 183.485 37.1961V43.7881C183.485 44.8761 183.773 45.7294 184.349 46.3481C184.925 46.9667 185.746 47.2761 186.813 47.2761H189.117C190.184 47.2761 191.048 46.9881 191.709 46.4121C192.37 45.8361 192.701 45.0147 192.701 43.9481ZM29 71.8441V91.8441C29 92.0361 28.9147 92.1321 28.744 92.1321H28.296C28.1253 92.1321 28.04 92.0361 28.04 91.8441V71.8441C28.04 71.6521 28.1253 71.5561 28.296 71.5561H28.744C28.9147 71.5561 29 71.6521 29 71.8441ZM35.2953 92.1321H34.8473C34.6766 92.1321 34.5913 92.0361 34.5913 91.8441V76.1001C34.5913 75.9081 34.6766 75.8121 34.8473 75.8121H35.2953C35.4659 75.8121 35.5513 75.9081 35.5513 76.1001V77.4761H35.6793C36.2766 76.3667 37.4073 75.8121 39.0713 75.8121H41.4392C42.7406 75.8121 43.7753 76.2067 44.5433 76.9961C45.3326 77.7854 45.7273 78.8414 45.7273 80.1641V91.8441C45.7273 92.0361 45.6419 92.1321 45.4713 92.1321H45.0233C44.8526 92.1321 44.7673 92.0361 44.7673 91.8441V80.1961C44.7673 79.1081 44.4793 78.2547 43.9033 77.6361C43.3273 77.0174 42.5059 76.7081 41.4392 76.7081H39.1353C38.0686 76.7081 37.2046 76.9961 36.5433 77.5721C35.8819 78.1481 35.5513 78.9694 35.5513 80.0361V91.8441C35.5513 92.0361 35.4659 92.1321 35.2953 92.1321ZM55.741 92.1321H50.301C50.109 92.1321 50.013 92.0467 50.013 91.8761V91.4921C50.013 91.3214 50.109 91.2361 50.301 91.2361H55.741C57.8957 91.2361 58.973 90.3827 58.973 88.6761V87.7161C58.973 86.9267 58.8343 86.2867 58.557 85.7961C58.2797 85.3054 57.7783 84.9321 57.053 84.6761L52.829 83.2041C51.7197 82.8201 50.941 82.3507 50.493 81.7961C50.0663 81.2201 49.853 80.4201 49.853 79.3961C49.853 77.0067 51.1543 75.8121 53.757 75.8121H58.909C59.101 75.8121 59.197 75.8974 59.197 76.0681V76.4521C59.197 76.6227 59.101 76.7081 58.909 76.7081H53.757C52.7757 76.7081 52.0397 76.9321 51.549 77.3801C51.0797 77.8281 50.845 78.3401 50.845 78.9161V79.7801C50.845 80.4627 51.0157 80.9961 51.357 81.3801C51.7197 81.7427 52.2743 82.0521 53.021 82.3081L57.213 83.8121C58.3437 84.1321 59.0797 84.6547 59.421 85.3801C59.7623 86.1054 59.933 87.1187 59.933 88.4201C59.933 89.7214 59.5917 90.6707 58.909 91.2681C58.2263 91.8441 57.1703 92.1321 55.741 92.1321ZM65.2038 76.7081H63.0918C62.8998 76.7081 62.8038 76.6227 62.8038 76.4521V76.0681C62.8038 75.8974 62.8998 75.8121 63.0918 75.8121H65.2038C65.3958 75.8121 65.4918 75.7267 65.4918 75.5561V73.0601C65.4918 72.8681 65.5771 72.7721 65.7478 72.7721H66.1958C66.3664 72.7721 66.4518 72.8681 66.4518 73.0601V75.5561C66.4518 75.7267 66.5478 75.8121 66.7398 75.8121H70.8678C71.0598 75.8121 71.1558 75.8974 71.1558 76.0681V76.4521C71.1558 76.6227 71.0598 76.7081 70.8678 76.7081H66.7398C66.5478 76.7081 66.4518 76.7934 66.4518 76.9641V87.8441C66.4518 88.9107 66.7611 89.7427 67.3798 90.3401C68.0198 90.9374 68.8838 91.2361 69.9718 91.2361H71.1878C71.3798 91.2361 71.4758 91.3214 71.4758 91.4921V91.8761C71.4758 92.0467 71.3798 92.1321 71.1878 92.1321H69.9718C68.6491 92.1321 67.5718 91.7481 66.7398 90.9801C65.9078 90.2121 65.4918 89.1774 65.4918 87.8761V76.9641C65.4918 76.7934 65.3958 76.7081 65.2038 76.7081ZM76.1703 92.1321H75.7223C75.5516 92.1321 75.4663 92.0361 75.4663 91.8441V76.1001C75.4663 75.9081 75.5516 75.8121 75.7223 75.8121H76.1703C76.3409 75.8121 76.4263 75.9081 76.4263 76.1001V77.5401H76.5543C76.7889 77.1134 77.1943 76.7187 77.7703 76.3561C78.3676 75.9934 79.1356 75.8121 80.0743 75.8121H81.3542C81.5463 75.8121 81.6423 75.8974 81.6423 76.0681V76.4521C81.6423 76.6227 81.5463 76.7081 81.3542 76.7081H80.0423C78.9543 76.7081 78.0796 77.0494 77.4183 77.7321C76.7569 78.4147 76.4263 79.3427 76.4263 80.5161V91.8441C76.4263 92.0361 76.3409 92.1321 76.1703 92.1321ZM91.6498 92.1321H89.2818C87.9804 92.1321 86.9351 91.7374 86.1458 90.9481C85.3778 90.1587 84.9938 89.1027 84.9938 87.7801V76.1001C84.9938 75.9081 85.0791 75.8121 85.2498 75.8121H85.6978C85.8684 75.8121 85.9538 75.9081 85.9538 76.1001V87.7481C85.9538 88.8361 86.2418 89.6894 86.8177 90.3081C87.3938 90.9267 88.2151 91.2361 89.2818 91.2361H91.5858C92.6524 91.2361 93.5164 90.9481 94.1778 90.3721C94.8391 89.7961 95.1698 88.9747 95.1698 87.9081V76.1001C95.1698 75.9081 95.2551 75.8121 95.4258 75.8121H95.8738C96.0444 75.8121 96.1298 75.9081 96.1298 76.1001V91.8441C96.1298 92.0361 96.0444 92.1321 95.8738 92.1321H95.4258C95.2551 92.1321 95.1698 92.0361 95.1698 91.8441V90.4681H95.0418C94.4444 91.5774 93.3138 92.1321 91.6498 92.1321ZM101.952 92.1321H101.504C101.333 92.1321 101.248 92.0361 101.248 91.8441V76.1001C101.248 75.9081 101.333 75.8121 101.504 75.8121H101.952C102.122 75.8121 102.208 75.9081 102.208 76.1001V77.4761H102.336C102.933 76.3667 104.064 75.8121 105.728 75.8121H107.135C109.013 75.8121 110.304 76.5694 111.008 78.0841C111.306 77.3374 111.85 76.7721 112.64 76.3881C113.45 76.0041 114.261 75.8121 115.072 75.8121H116.352C117.653 75.8121 118.688 76.2067 119.456 76.9961C120.245 77.7854 120.64 78.8414 120.64 80.1641V91.8441C120.64 92.0361 120.554 92.1321 120.384 92.1321H119.936C119.765 92.1321 119.68 92.0361 119.68 91.8441V80.1961C119.68 79.1081 119.392 78.2547 118.816 77.6361C118.24 77.0174 117.418 76.7081 116.352 76.7081H115.072C113.984 76.7081 113.098 77.0281 112.416 77.6681C111.754 78.2867 111.424 79.1294 111.424 80.1961V91.8441C111.424 92.0361 111.338 92.1321 111.168 92.1321H110.72C110.549 92.1321 110.464 92.0361 110.464 91.8441V80.1961C110.464 79.1081 110.176 78.2547 109.6 77.6361C109.024 77.0174 108.202 76.7081 107.135 76.7081H105.792C104.725 76.7081 103.861 76.9961 103.2 77.5721C102.538 78.1481 102.208 78.9694 102.208 80.0361V91.8441C102.208 92.0361 102.122 92.1321 101.952 92.1321ZM136.119 92.1321H129.559C128.258 92.1321 127.213 91.7374 126.423 90.9481C125.655 90.1587 125.271 89.1027 125.271 87.7801V80.1641C125.271 78.8414 125.655 77.7854 126.423 76.9961C127.213 76.2067 128.258 75.8121 129.559 75.8121H132.375C133.677 75.8121 134.711 76.2067 135.479 76.9961C136.269 77.7854 136.663 78.8414 136.663 80.1641V84.2281C136.663 84.4414 136.567 84.5481 136.375 84.5481H126.519C126.327 84.5481 126.231 84.6334 126.231 84.8041V87.7481C126.231 88.8361 126.519 89.6894 127.095 90.3081C127.671 90.9267 128.493 91.2361 129.559 91.2361H136.119C136.311 91.2361 136.407 91.3214 136.407 91.4921V91.8761C136.407 92.0467 136.311 92.1321 136.119 92.1321ZM126.519 83.6521H135.415C135.607 83.6521 135.703 83.5667 135.703 83.3961V80.1961C135.703 79.1081 135.415 78.2547 134.839 77.6361C134.263 77.0174 133.442 76.7081 132.375 76.7081H129.559C128.493 76.7081 127.671 77.0174 127.095 77.6361C126.519 78.2547 126.231 79.1081 126.231 80.1961V83.3961C126.231 83.5667 126.327 83.6521 126.519 83.6521ZM142.014 92.1321H141.566C141.395 92.1321 141.31 92.0361 141.31 91.8441V76.1001C141.31 75.9081 141.395 75.8121 141.566 75.8121H142.014C142.185 75.8121 142.27 75.9081 142.27 76.1001V77.4761H142.398C142.995 76.3667 144.126 75.8121 145.79 75.8121H148.158C149.459 75.8121 150.494 76.2067 151.262 76.9961C152.051 77.7854 152.446 78.8414 152.446 80.1641V91.8441C152.446 92.0361 152.361 92.1321 152.19 92.1321H151.742C151.571 92.1321 151.486 92.0361 151.486 91.8441V80.1961C151.486 79.1081 151.198 78.2547 150.622 77.6361C150.046 77.0174 149.225 76.7081 148.158 76.7081H145.854C144.787 76.7081 143.923 76.9961 143.262 77.5721C142.601 78.1481 142.27 78.9694 142.27 80.0361V91.8441C142.27 92.0361 142.185 92.1321 142.014 92.1321ZM158.204 76.7081H156.092C155.9 76.7081 155.804 76.6227 155.804 76.4521V76.0681C155.804 75.8974 155.9 75.8121 156.092 75.8121H158.204C158.396 75.8121 158.492 75.7267 158.492 75.5561V73.0601C158.492 72.8681 158.577 72.7721 158.748 72.7721H159.196C159.366 72.7721 159.452 72.8681 159.452 73.0601V75.5561C159.452 75.7267 159.548 75.8121 159.74 75.8121H163.868C164.06 75.8121 164.156 75.8974 164.156 76.0681V76.4521C164.156 76.6227 164.06 76.7081 163.868 76.7081H159.74C159.548 76.7081 159.452 76.7934 159.452 76.9641V87.8441C159.452 88.9107 159.761 89.7427 160.38 90.3401C161.02 90.9374 161.884 91.2361 162.972 91.2361H164.188C164.38 91.2361 164.476 91.3214 164.476 91.4921V91.8761C164.476 92.0467 164.38 92.1321 164.188 92.1321H162.972C161.649 92.1321 160.572 91.7481 159.74 90.9801C158.908 90.2121 158.492 89.1774 158.492 87.8761V76.9641C158.492 76.7934 158.396 76.7081 158.204 76.7081ZM42.984 114.556H43.88C44.0507 114.556 44.136 114.652 44.136 114.844V134.844C44.136 135.036 44.0507 135.132 43.88 135.132H43.432C43.2613 135.132 43.176 135.036 43.176 134.844V116.412H43.048L36.712 130.396C36.6267 130.567 36.4987 130.652 36.328 130.652H35.72C35.5493 130.652 35.4213 130.567 35.336 130.396L28.968 116.38H28.84V134.844C28.84 135.036 28.7547 135.132 28.584 135.132H28.136C27.9653 135.132 27.88 135.036 27.88 134.844V114.844C27.88 114.652 27.9653 114.556 28.136 114.556H29.032C29.1387 114.556 29.2133 114.599 29.256 114.684L35.944 129.468H36.072L42.76 114.684C42.8027 114.599 42.8773 114.556 42.984 114.556ZM56.0873 135.132H53.7193C52.4179 135.132 51.3726 134.737 50.5833 133.948C49.8153 133.159 49.4313 132.103 49.4313 130.78V119.1C49.4313 118.908 49.5166 118.812 49.6873 118.812H50.1353C50.3059 118.812 50.3913 118.908 50.3913 119.1V130.748C50.3913 131.836 50.6793 132.689 51.2552 133.308C51.8313 133.927 52.6526 134.236 53.7193 134.236H56.0233C57.0899 134.236 57.9539 133.948 58.6153 133.372C59.2766 132.796 59.6073 131.975 59.6073 130.908V119.1C59.6073 118.908 59.6926 118.812 59.8633 118.812H60.3113C60.4819 118.812 60.5673 118.908 60.5673 119.1V134.844C60.5673 135.036 60.4819 135.132 60.3113 135.132H59.8633C59.6926 135.132 59.6073 135.036 59.6073 134.844V133.468H59.4793C58.8819 134.577 57.7513 135.132 56.0873 135.132ZM70.741 135.132H65.301C65.109 135.132 65.013 135.047 65.013 134.876V134.492C65.013 134.321 65.109 134.236 65.301 134.236H70.741C72.8957 134.236 73.973 133.383 73.973 131.676V130.716C73.973 129.927 73.8343 129.287 73.557 128.796C73.2797 128.305 72.7783 127.932 72.053 127.676L67.829 126.204C66.7197 125.82 65.941 125.351 65.493 124.796C65.0663 124.22 64.853 123.42 64.853 122.396C64.853 120.007 66.1543 118.812 68.757 118.812H73.909C74.101 118.812 74.197 118.897 74.197 119.068V119.452C74.197 119.623 74.101 119.708 73.909 119.708H68.757C67.7757 119.708 67.0397 119.932 66.549 120.38C66.0797 120.828 65.845 121.34 65.845 121.916V122.78C65.845 123.463 66.0157 123.996 66.357 124.38C66.7197 124.743 67.2743 125.052 68.021 125.308L72.213 126.812C73.3437 127.132 74.0797 127.655 74.421 128.38C74.7623 129.105 74.933 130.119 74.933 131.42C74.933 132.721 74.5917 133.671 73.909 134.268C73.2263 134.844 72.1703 135.132 70.741 135.132ZM79.5638 116.156V112.988C79.5638 112.796 79.6491 112.7 79.8198 112.7H80.2678C80.4384 112.7 80.5238 112.796 80.5238 112.988V116.156C80.5238 116.348 80.4384 116.444 80.2678 116.444H79.8198C79.6491 116.444 79.5638 116.348 79.5638 116.156ZM79.5638 134.844V119.1C79.5638 118.908 79.6491 118.812 79.8198 118.812H80.2678C80.4384 118.812 80.5238 118.908 80.5238 119.1V134.844C80.5238 135.036 80.4384 135.132 80.2678 135.132H79.8198C79.6491 135.132 79.5638 135.036 79.5638 134.844ZM94.61 134.492V134.876C94.61 135.047 94.514 135.132 94.322 135.132H89.778C88.4767 135.132 87.4313 134.737 86.642 133.948C85.874 133.159 85.49 132.103 85.49 130.78V123.164C85.49 121.841 85.874 120.785 86.642 119.996C87.4313 119.207 88.4767 118.812 89.778 118.812H94.322C94.514 118.812 94.61 118.897 94.61 119.068V119.452C94.61 119.623 94.514 119.708 94.322 119.708H89.778C88.7113 119.708 87.89 120.017 87.314 120.636C86.738 121.255 86.45 122.108 86.45 123.196V130.748C86.45 131.836 86.738 132.689 87.314 133.308C87.89 133.927 88.7113 134.236 89.778 134.236H94.322C94.514 134.236 94.61 134.321 94.61 134.492Z" fill="white"/>
</svg>
