<svg width="445" height="79" viewBox="0 0 445 79" fill="none" xmlns="http://www.w3.org/2000/svg">
<g filter="url(#filter0_d_145_1274)">
<rect x="4" width="437" height="71" rx="10" fill="#1A1919"/>
</g>
<path d="M41.984 26.424H42.88C43.0507 26.424 43.136 26.52 43.136 26.712V46.712C43.136 46.904 43.0507 47 42.88 47H42.432C42.2613 47 42.176 46.904 42.176 46.712V28.28H42.048L35.712 42.264C35.6267 42.4347 35.4987 42.52 35.328 42.52H34.72C34.5493 42.52 34.4213 42.4347 34.336 42.264L27.968 28.248H27.84V46.712C27.84 46.904 27.7547 47 27.584 47H27.136C26.9653 47 26.88 46.904 26.88 46.712V26.712C26.88 26.52 26.9653 26.424 27.136 26.424H28.032C28.1387 26.424 28.2133 26.4667 28.256 26.552L34.944 41.336H35.072L41.76 26.552C41.8027 26.4667 41.8773 26.424 41.984 26.424ZM55.0873 47H52.7193C51.4179 47 50.3726 46.6053 49.5833 45.816C48.8153 45.0267 48.4313 43.9707 48.4313 42.648V30.968C48.4313 30.776 48.5166 30.68 48.6873 30.68H49.1353C49.3059 30.68 49.3913 30.776 49.3913 30.968V42.616C49.3913 43.704 49.6793 44.5573 50.2552 45.176C50.8313 45.7947 51.6526 46.104 52.7193 46.104H55.0233C56.0899 46.104 56.9539 45.816 57.6153 45.24C58.2766 44.664 58.6073 43.8427 58.6073 42.776V30.968C58.6073 30.776 58.6926 30.68 58.8633 30.68H59.3113C59.4819 30.68 59.5673 30.776 59.5673 30.968V46.712C59.5673 46.904 59.4819 47 59.3113 47H58.8633C58.6926 47 58.6073 46.904 58.6073 46.712V45.336H58.4793C57.8819 46.4453 56.7513 47 55.0873 47ZM69.741 47H64.301C64.109 47 64.013 46.9147 64.013 46.744V46.36C64.013 46.1893 64.109 46.104 64.301 46.104H69.741C71.8957 46.104 72.973 45.2507 72.973 43.544V42.584C72.973 41.7947 72.8343 41.1547 72.557 40.664C72.2797 40.1733 71.7783 39.8 71.053 39.544L66.829 38.072C65.7197 37.688 64.941 37.2187 64.493 36.664C64.0663 36.088 63.853 35.288 63.853 34.264C63.853 31.8747 65.1543 30.68 67.757 30.68H72.909C73.101 30.68 73.197 30.7653 73.197 30.936V31.32C73.197 31.4907 73.101 31.576 72.909 31.576H67.757C66.7757 31.576 66.0397 31.8 65.549 32.248C65.0797 32.696 64.845 33.208 64.845 33.784V34.648C64.845 35.3307 65.0157 35.864 65.357 36.248C65.7197 36.6107 66.2743 36.92 67.021 37.176L71.213 38.68C72.3437 39 73.0797 39.5227 73.421 40.248C73.7623 40.9733 73.933 41.9867 73.933 43.288C73.933 44.5893 73.5917 45.5387 72.909 46.136C72.2263 46.712 71.1703 47 69.741 47ZM78.5638 28.024V24.856C78.5638 24.664 78.6491 24.568 78.8198 24.568H79.2678C79.4384 24.568 79.5238 24.664 79.5238 24.856V28.024C79.5238 28.216 79.4384 28.312 79.2678 28.312H78.8198C78.6491 28.312 78.5638 28.216 78.5638 28.024ZM78.5638 46.712V30.968C78.5638 30.776 78.6491 30.68 78.8198 30.68H79.2678C79.4384 30.68 79.5238 30.776 79.5238 30.968V46.712C79.5238 46.904 79.4384 47 79.2678 47H78.8198C78.6491 47 78.5638 46.904 78.5638 46.712ZM93.61 46.36V46.744C93.61 46.9147 93.514 47 93.322 47H88.778C87.4767 47 86.4313 46.6053 85.642 45.816C84.874 45.0267 84.49 43.9707 84.49 42.648V35.032C84.49 33.7093 84.874 32.6533 85.642 31.864C86.4313 31.0747 87.4767 30.68 88.778 30.68H93.322C93.514 30.68 93.61 30.7653 93.61 30.936V31.32C93.61 31.4907 93.514 31.576 93.322 31.576H88.778C87.7113 31.576 86.89 31.8853 86.314 32.504C85.738 33.1227 85.45 33.976 85.45 35.064V42.616C85.45 43.704 85.738 44.5573 86.314 45.176C86.89 45.7947 87.7113 46.104 88.778 46.104H93.322C93.514 46.104 93.61 46.1893 93.61 46.36Z" fill="white"/>
<defs>
<filter id="filter0_d_145_1274" x="0" y="0" width="445" height="79" filterUnits="userSpaceOnUse" color-interpolation-filters="sRGB">
<feFlood flood-opacity="0" result="BackgroundImageFix"/>
<feColorMatrix in="SourceAlpha" type="matrix" values="0 0 0 0 0 0 0 0 0 0 0 0 0 0 0 0 0 0 127 0" result="hardAlpha"/>
<feOffset dy="4"/>
<feGaussianBlur stdDeviation="2"/>
<feComposite in2="hardAlpha" operator="out"/>
<feColorMatrix type="matrix" values="0 0 0 0 0 0 0 0 0 0 0 0 0 0 0 0 0 0 0.25 0"/>
<feBlend mode="normal" in2="BackgroundImageFix" result="effect1_dropShadow_145_1274"/>
<feBlend mode="normal" in="SourceGraphic" in2="effect1_dropShadow_145_1274" result="shape"/>
</filter>
</defs>
</svg>
