<svg width="445" height="99" viewBox="0 0 445 99" fill="none" xmlns="http://www.w3.org/2000/svg">
<g filter="url(#filter0_d_145_1261)">
<rect x="4" width="437" height="71" rx="10" fill="#1A1919"/>
</g>
<path d="M27.584 47H27.136C26.9653 47 26.88 46.904 26.88 46.712V26.712C26.88 26.52 26.9653 26.424 27.136 26.424H34.368C35.6693 26.424 36.704 26.8187 37.472 27.608C38.2613 28.3973 38.656 29.4533 38.656 30.776V34.712C38.656 36.0347 38.2613 37.0907 37.472 37.88C36.704 38.6693 35.6693 39.064 34.368 39.064H28.128C27.936 39.064 27.84 39.1493 27.84 39.32V46.712C27.84 46.904 27.7547 47 27.584 47ZM28.128 38.168H34.368C35.4347 38.168 36.256 37.8587 36.832 37.24C37.408 36.6213 37.696 35.768 37.696 34.68V30.808C37.696 29.72 37.408 28.8667 36.832 28.248C36.256 27.6293 35.4347 27.32 34.368 27.32H28.128C27.936 27.32 27.84 27.4053 27.84 27.576V37.912C27.84 38.0827 27.936 38.168 28.128 38.168ZM44.014 47H43.566C43.3953 47 43.31 46.904 43.31 46.712V24.792C43.31 24.6 43.3953 24.504 43.566 24.504H44.014C44.1847 24.504 44.27 24.6 44.27 24.792V32.344H44.398C44.9953 31.2347 46.126 30.68 47.79 30.68H50.158C51.4593 30.68 52.494 31.0747 53.262 31.864C54.0513 32.6533 54.446 33.7093 54.446 35.032V46.712C54.446 46.904 54.3607 47 54.19 47H53.742C53.5713 47 53.486 46.904 53.486 46.712V35.064C53.486 33.976 53.198 33.1227 52.622 32.504C52.046 31.8853 51.2247 31.576 50.158 31.576H47.854C46.7873 31.576 45.9233 31.864 45.262 32.44C44.6007 33.016 44.27 33.8373 44.27 34.904V46.712C44.27 46.904 44.1847 47 44.014 47ZM66.0918 47H63.3718C62.0704 47 61.0251 46.6053 60.2358 45.816C59.4678 45.0267 59.0838 43.9707 59.0838 42.648V35.032C59.0838 33.7093 59.4678 32.6533 60.2358 31.864C61.0251 31.0747 62.0704 30.68 63.3718 30.68H66.0918C67.3931 30.68 68.4278 31.0747 69.1958 31.864C69.9851 32.6533 70.3798 33.7093 70.3798 35.032V42.648C70.3798 43.9707 69.9851 45.0267 69.1958 45.816C68.4278 46.6053 67.3931 47 66.0918 47ZM63.3718 46.104H66.0918C67.1584 46.104 67.9798 45.7947 68.5558 45.176C69.1318 44.5573 69.4198 43.704 69.4198 42.616V35.064C69.4198 33.976 69.1318 33.1227 68.5558 32.504C67.9798 31.8853 67.1584 31.576 66.0918 31.576H63.3718C62.3051 31.576 61.4838 31.8853 60.9078 32.504C60.3318 33.1227 60.0438 33.976 60.0438 35.064V42.616C60.0438 43.704 60.3318 44.5573 60.9078 45.176C61.4838 45.7947 62.3051 46.104 63.3718 46.104ZM75.985 31.576H73.873C73.681 31.576 73.585 31.4907 73.585 31.32V30.936C73.585 30.7653 73.681 30.68 73.873 30.68H75.985C76.177 30.68 76.273 30.5947 76.273 30.424V27.928C76.273 27.736 76.3583 27.64 76.529 27.64H76.977C77.1477 27.64 77.233 27.736 77.233 27.928V30.424C77.233 30.5947 77.329 30.68 77.521 30.68H81.649C81.841 30.68 81.937 30.7653 81.937 30.936V31.32C81.937 31.4907 81.841 31.576 81.649 31.576H77.521C77.329 31.576 77.233 31.6613 77.233 31.832V42.712C77.233 43.7787 77.5423 44.6107 78.161 45.208C78.801 45.8053 79.665 46.104 80.753 46.104H81.969C82.161 46.104 82.257 46.1893 82.257 46.36V46.744C82.257 46.9147 82.161 47 81.969 47H80.753C79.4303 47 78.353 46.616 77.521 45.848C76.689 45.08 76.273 44.0453 76.273 42.744V31.832C76.273 31.6613 76.177 31.576 75.985 31.576ZM92.9355 47H90.2155C88.9142 47 87.8688 46.6053 87.0795 45.816C86.3115 45.0267 85.9275 43.9707 85.9275 42.648V35.032C85.9275 33.7093 86.3115 32.6533 87.0795 31.864C87.8688 31.0747 88.9142 30.68 90.2155 30.68H92.9355C94.2368 30.68 95.2715 31.0747 96.0395 31.864C96.8288 32.6533 97.2235 33.7093 97.2235 35.032V42.648C97.2235 43.9707 96.8288 45.0267 96.0395 45.816C95.2715 46.6053 94.2368 47 92.9355 47ZM90.2155 46.104H92.9355C94.0022 46.104 94.8235 45.7947 95.3995 45.176C95.9755 44.5573 96.2635 43.704 96.2635 42.616V35.064C96.2635 33.976 95.9755 33.1227 95.3995 32.504C94.8235 31.8853 94.0022 31.576 92.9355 31.576H90.2155C89.1488 31.576 88.3275 31.8853 87.7515 32.504C87.1755 33.1227 86.8875 33.976 86.8875 35.064V42.616C86.8875 43.704 87.1755 44.5573 87.7515 45.176C88.3275 45.7947 89.1488 46.104 90.2155 46.104ZM108.525 46.04H106.157C104.855 46.04 103.81 45.6453 103.021 44.856C102.253 44.0667 101.869 43.0107 101.869 41.688V35.032C101.869 33.7093 102.253 32.6533 103.021 31.864C103.81 31.0747 104.855 30.68 106.157 30.68H112.749C112.919 30.68 113.005 30.776 113.005 30.968V46.904C113.005 48.2267 112.61 49.2827 111.821 50.072C111.053 50.8613 110.018 51.256 108.717 51.256H102.989C102.797 51.256 102.701 51.1707 102.701 51V50.616C102.701 50.4453 102.797 50.36 102.989 50.36H108.717C109.783 50.36 110.605 50.0507 111.181 49.432C111.757 48.8133 112.045 47.96 112.045 46.872V44.376H111.917C111.319 45.4853 110.189 46.04 108.525 46.04ZM112.045 41.816V31.832C112.045 31.6613 111.949 31.576 111.757 31.576H106.157C105.09 31.576 104.269 31.8853 103.693 32.504C103.117 33.1227 102.829 33.976 102.829 35.064V41.656C102.829 42.744 103.117 43.5973 103.693 44.216C104.269 44.8347 105.09 45.144 106.157 45.144H108.461C109.527 45.144 110.391 44.856 111.053 44.28C111.714 43.704 112.045 42.8827 112.045 41.816ZM118.827 47H118.379C118.208 47 118.123 46.904 118.123 46.712V30.968C118.123 30.776 118.208 30.68 118.379 30.68H118.827C118.997 30.68 119.083 30.776 119.083 30.968V32.408H119.211C119.445 31.9813 119.851 31.5867 120.427 31.224C121.024 30.8613 121.792 30.68 122.731 30.68H124.01C124.203 30.68 124.299 30.7653 124.299 30.936V31.32C124.299 31.4907 124.203 31.576 124.01 31.576H122.699C121.611 31.576 120.736 31.9173 120.075 32.6C119.413 33.2827 119.083 34.2107 119.083 35.384V46.712C119.083 46.904 118.997 47 118.827 47ZM134.146 47H131.778C130.477 47 129.431 46.6053 128.642 45.816C127.874 45.0267 127.49 43.9707 127.49 42.648V35.032C127.49 33.7093 127.874 32.6533 128.642 31.864C129.431 31.0747 130.477 30.68 131.778 30.68H138.37C138.541 30.68 138.626 30.776 138.626 30.968V46.712C138.626 46.904 138.541 47 138.37 47H137.922C137.751 47 137.666 46.904 137.666 46.712V45.336H137.538C136.941 46.4453 135.81 47 134.146 47ZM137.666 42.776V31.832C137.666 31.6613 137.57 31.576 137.378 31.576H131.778C130.711 31.576 129.89 31.8853 129.314 32.504C128.738 33.1227 128.45 33.976 128.45 35.064V42.616C128.45 43.704 128.738 44.5573 129.314 45.176C129.89 45.7947 130.711 46.104 131.778 46.104H134.082C135.149 46.104 136.013 45.816 136.674 45.24C137.335 44.664 137.666 43.8427 137.666 42.776ZM144.452 51.896H144.004C143.833 51.896 143.748 51.8 143.748 51.608V30.968C143.748 30.776 143.833 30.68 144.004 30.68H144.452C144.622 30.68 144.708 30.776 144.708 30.968V32.344H144.836C145.433 31.2347 146.564 30.68 148.228 30.68H150.595C151.897 30.68 152.932 31.0747 153.7 31.864C154.489 32.6533 154.884 33.7093 154.884 35.032V42.648C154.884 43.9707 154.489 45.0267 153.7 45.816C152.932 46.6053 151.897 47 150.595 47H148.228C146.564 47 145.433 46.4453 144.836 45.336H144.708V51.608C144.708 51.8 144.622 51.896 144.452 51.896ZM148.292 46.104H150.595C151.662 46.104 152.484 45.7947 153.06 45.176C153.636 44.5573 153.924 43.704 153.924 42.616V35.064C153.924 33.976 153.636 33.1227 153.06 32.504C152.484 31.8853 151.662 31.576 150.595 31.576H148.292C147.225 31.576 146.361 31.864 145.7 32.44C145.038 33.016 144.708 33.8373 144.708 34.904V42.776C144.708 43.8427 145.038 44.664 145.7 45.24C146.361 45.816 147.225 46.104 148.292 46.104ZM160.389 47H159.941C159.77 47 159.685 46.904 159.685 46.712V24.792C159.685 24.6 159.77 24.504 159.941 24.504H160.389C160.56 24.504 160.645 24.6 160.645 24.792V32.344H160.773C161.37 31.2347 162.501 30.68 164.165 30.68H166.533C167.834 30.68 168.869 31.0747 169.637 31.864C170.426 32.6533 170.821 33.7093 170.821 35.032V46.712C170.821 46.904 170.736 47 170.565 47H170.117C169.946 47 169.861 46.904 169.861 46.712V35.064C169.861 33.976 169.573 33.1227 168.997 32.504C168.421 31.8853 167.6 31.576 166.533 31.576H164.229C163.162 31.576 162.298 31.864 161.637 32.44C160.976 33.016 160.645 33.8373 160.645 34.904V46.712C160.645 46.904 160.56 47 160.389 47ZM175.107 51.704C174.915 51.704 174.819 51.6187 174.819 51.448V51.064C174.819 50.8933 174.915 50.808 175.107 50.808H176.035C176.888 50.808 177.485 50.648 177.827 50.328C178.189 50.0293 178.456 49.8053 178.627 49.656C178.797 49.528 178.979 49.2507 179.171 48.824C179.384 48.4187 179.523 48.152 179.587 48.024C179.971 47.1707 180.216 46.5413 180.323 46.136H180.003C179.832 46.136 179.715 46.04 179.651 45.848L174.211 30.968C174.147 30.776 174.211 30.68 174.403 30.68H174.915C175.064 30.68 175.171 30.776 175.235 30.968L180.451 45.208H180.579L185.795 30.968C185.859 30.776 185.965 30.68 186.115 30.68H186.627C186.819 30.68 186.883 30.776 186.819 30.968L181.379 45.848C180.717 47.7467 180.216 48.9733 179.875 49.528C178.957 50.9573 177.677 51.6827 176.035 51.704H175.107Z" fill="white"/>
<defs>
<filter id="filter0_d_145_1261" x="0" y="0" width="445" height="79" filterUnits="userSpaceOnUse" color-interpolation-filters="sRGB">
<feFlood flood-opacity="0" result="BackgroundImageFix"/>
<feColorMatrix in="SourceAlpha" type="matrix" values="0 0 0 0 0 0 0 0 0 0 0 0 0 0 0 0 0 0 127 0" result="hardAlpha"/>
<feOffset dy="4"/>
<feGaussianBlur stdDeviation="2"/>
<feComposite in2="hardAlpha" operator="out"/>
<feColorMatrix type="matrix" values="0 0 0 0 0 0 0 0 0 0 0 0 0 0 0 0 0 0 0.25 0"/>
<feBlend mode="normal" in2="BackgroundImageFix" result="effect1_dropShadow_145_1261"/>
<feBlend mode="normal" in="SourceGraphic" in2="effect1_dropShadow_145_1261" result="shape"/>
</filter>
</defs>
</svg>
