<svg width="157" height="469" viewBox="0 0 157 469" fill="none" xmlns="http://www.w3.org/2000/svg">
<rect width="157" height="469" fill="#E71717"/>
<rect x="58.4312" y="198.939" width="29.6129" height="29.6129" transform="rotate(-45 58.4312 198.939)" fill="white"/>
<rect x="58.4312" y="198.939" width="29.6129" height="29.6129" transform="rotate(-45 58.4312 198.939)" fill="white"/>
<rect x="58.4312" y="245.58" width="29.6129" height="29.6129" transform="rotate(-45 58.4312 245.58)" fill="white"/>
<rect x="58.4312" y="245.58" width="29.6129" height="29.6129" transform="rotate(-45 58.4312 245.58)" fill="white"/>
<rect x="82.1211" y="222.63" width="29.6129" height="29.6129" transform="rotate(-45 82.1211 222.63)" fill="white"/>
<rect x="82.1211" y="222.63" width="29.6129" height="29.6129" transform="rotate(-45 82.1211 222.63)" fill="white"/>
<rect x="34" y="222.63" width="29.6129" height="29.6129" transform="rotate(-45 34 222.63)" fill="white"/>
<rect x="34" y="222.63" width="29.6129" height="29.6129" transform="rotate(-45 34 222.63)" fill="white"/>
<circle cx="79.1594" cy="222.419" r="18.5081" fill="#D9D9D9"/>
<circle cx="79.5" cy="222.5" r="7.5" fill="white"/>
<path d="M101.09 244.999C101.09 257.351 91.2363 267.3 79.1597 267.3C67.083 267.3 57.229 257.351 57.229 244.999C57.229 232.647 67.083 222.698 79.1597 222.698C91.2363 222.698 101.09 232.647 101.09 244.999Z" stroke="white" stroke-width="5"/>
</svg>
