<svg width="540" height="214" viewBox="0 0 540 214" fill="none" xmlns="http://www.w3.org/2000/svg">
<g filter="url(#filter0_d_292_181)">
<rect x="4" width="532" height="162" rx="10" fill="#1A1919"/>
</g>
<path d="M32.584 49.1321H32.136C31.9653 49.1321 31.88 49.0361 31.88 48.8441V28.8441C31.88 28.6521 31.9653 28.5561 32.136 28.5561H39.368C40.6693 28.5561 41.704 28.9507 42.472 29.7401C43.2613 30.5294 43.656 31.5854 43.656 32.9081V36.8441C43.656 38.1667 43.2613 39.2227 42.472 40.0121C41.704 40.8014 40.6693 41.1961 39.368 41.1961H33.128C32.936 41.1961 32.84 41.2814 32.84 41.4521V48.8441C32.84 49.0361 32.7547 49.1321 32.584 49.1321ZM33.128 40.3001H39.368C40.4347 40.3001 41.256 39.9907 41.832 39.3721C42.408 38.7534 42.696 37.9001 42.696 36.8121V32.9401C42.696 31.8521 42.408 30.9987 41.832 30.3801C41.256 29.7614 40.4347 29.4521 39.368 29.4521H33.128C32.936 29.4521 32.84 29.5374 32.84 29.7081V40.0441C32.84 40.2147 32.936 40.3001 33.128 40.3001ZM49.014 49.1321H48.566C48.3953 49.1321 48.31 49.0361 48.31 48.8441V33.1001C48.31 32.9081 48.3953 32.8121 48.566 32.8121H49.014C49.1847 32.8121 49.27 32.9081 49.27 33.1001V34.5401H49.398C49.6327 34.1134 50.038 33.7187 50.614 33.3561C51.2113 32.9934 51.9793 32.8121 52.918 32.8121H54.198C54.39 32.8121 54.486 32.8974 54.486 33.0681V33.4521C54.486 33.6227 54.39 33.7081 54.198 33.7081H52.886C51.798 33.7081 50.9233 34.0494 50.262 34.7321C49.6007 35.4147 49.27 36.3427 49.27 37.5161V48.8441C49.27 49.0361 49.1847 49.1321 49.014 49.1321ZM64.6855 49.1321H61.9655C60.6642 49.1321 59.6188 48.7374 58.8295 47.9481C58.0615 47.1587 57.6775 46.1027 57.6775 44.7801V37.1641C57.6775 35.8414 58.0615 34.7854 58.8295 33.9961C59.6188 33.2067 60.6642 32.8121 61.9655 32.8121H64.6855C65.9868 32.8121 67.0215 33.2067 67.7895 33.9961C68.5788 34.7854 68.9735 35.8414 68.9735 37.1641V44.7801C68.9735 46.1027 68.5788 47.1587 67.7895 47.9481C67.0215 48.7374 65.9868 49.1321 64.6855 49.1321ZM61.9655 48.2361H64.6855C65.7522 48.2361 66.5735 47.9267 67.1495 47.3081C67.7255 46.6894 68.0135 45.8361 68.0135 44.7481V37.1961C68.0135 36.1081 67.7255 35.2547 67.1495 34.6361C66.5735 34.0174 65.7522 33.7081 64.6855 33.7081H61.9655C60.8988 33.7081 60.0775 34.0174 59.5015 34.6361C58.9255 35.2547 58.6375 36.1081 58.6375 37.1961V44.7481C58.6375 45.8361 58.9255 46.6894 59.5015 47.3081C60.0775 47.9267 60.8988 48.2361 61.9655 48.2361ZM80.2748 48.1721H77.9068C76.6054 48.1721 75.5601 47.7774 74.7708 46.9881C74.0028 46.1987 73.6188 45.1427 73.6188 43.8201V37.1641C73.6188 35.8414 74.0028 34.7854 74.7708 33.9961C75.5601 33.2067 76.6054 32.8121 77.9068 32.8121H84.4988C84.6694 32.8121 84.7548 32.9081 84.7548 33.1001V49.0361C84.7548 50.3587 84.3601 51.4147 83.5708 52.2041C82.8028 52.9934 81.7681 53.3881 80.4668 53.3881H74.7388C74.5468 53.3881 74.4508 53.3027 74.4508 53.1321V52.7481C74.4508 52.5774 74.5468 52.4921 74.7388 52.4921H80.4668C81.5334 52.4921 82.3548 52.1827 82.9308 51.5641C83.5068 50.9454 83.7948 50.0921 83.7948 49.0041V46.5081H83.6668C83.0694 47.6174 81.9388 48.1721 80.2748 48.1721ZM83.7948 43.9481V33.9641C83.7948 33.7934 83.6988 33.7081 83.5068 33.7081H77.9068C76.8401 33.7081 76.0188 34.0174 75.4427 34.6361C74.8668 35.2547 74.5788 36.1081 74.5788 37.1961V43.7881C74.5788 44.8761 74.8668 45.7294 75.4427 46.3481C76.0188 46.9667 76.8401 47.2761 77.9068 47.2761H80.2108C81.2774 47.2761 82.1414 46.9881 82.8028 46.4121C83.4641 45.8361 83.7948 45.0147 83.7948 43.9481ZM90.5765 49.1321H90.1285C89.9578 49.1321 89.8725 49.0361 89.8725 48.8441V33.1001C89.8725 32.9081 89.9578 32.8121 90.1285 32.8121H90.5765C90.7472 32.8121 90.8325 32.9081 90.8325 33.1001V34.5401H90.9605C91.1952 34.1134 91.6005 33.7187 92.1765 33.3561C92.7738 32.9934 93.5418 32.8121 94.4805 32.8121H95.7605C95.9525 32.8121 96.0485 32.8974 96.0485 33.0681V33.4521C96.0485 33.6227 95.9525 33.7081 95.7605 33.7081H94.4485C93.3605 33.7081 92.4858 34.0494 91.8245 34.7321C91.1632 35.4147 90.8325 36.3427 90.8325 37.5161V48.8441C90.8325 49.0361 90.7472 49.1321 90.5765 49.1321ZM105.896 49.1321H103.528C102.227 49.1321 101.181 48.7374 100.392 47.9481C99.624 47.1587 99.24 46.1027 99.24 44.7801V37.1641C99.24 35.8414 99.624 34.7854 100.392 33.9961C101.181 33.2067 102.227 32.8121 103.528 32.8121H110.12C110.291 32.8121 110.376 32.9081 110.376 33.1001V48.8441C110.376 49.0361 110.291 49.1321 110.12 49.1321H109.672C109.501 49.1321 109.416 49.0361 109.416 48.8441V47.4681H109.288C108.691 48.5774 107.56 49.1321 105.896 49.1321ZM109.416 44.9081V33.9641C109.416 33.7934 109.32 33.7081 109.128 33.7081H103.528C102.461 33.7081 101.64 34.0174 101.064 34.6361C100.488 35.2547 100.2 36.1081 100.2 37.1961V44.7481C100.2 45.8361 100.488 46.6894 101.064 47.3081C101.64 47.9267 102.461 48.2361 103.528 48.2361H105.832C106.899 48.2361 107.763 47.9481 108.424 47.3721C109.085 46.7961 109.416 45.9747 109.416 44.9081ZM116.202 49.1321H115.754C115.583 49.1321 115.498 49.0361 115.498 48.8441V33.1001C115.498 32.9081 115.583 32.8121 115.754 32.8121H116.202C116.372 32.8121 116.458 32.9081 116.458 33.1001V34.4761H116.586C117.183 33.3667 118.314 32.8121 119.978 32.8121H121.385C123.263 32.8121 124.554 33.5694 125.258 35.0841C125.556 34.3374 126.1 33.7721 126.89 33.3881C127.7 33.0041 128.511 32.8121 129.322 32.8121H130.602C131.903 32.8121 132.938 33.2067 133.706 33.9961C134.495 34.7854 134.89 35.8414 134.89 37.1641V48.8441C134.89 49.0361 134.804 49.1321 134.634 49.1321H134.186C134.015 49.1321 133.93 49.0361 133.93 48.8441V37.1961C133.93 36.1081 133.642 35.2547 133.066 34.6361C132.49 34.0174 131.668 33.7081 130.602 33.7081H129.322C128.234 33.7081 127.348 34.0281 126.666 34.6681C126.004 35.2867 125.674 36.1294 125.674 37.1961V48.8441C125.674 49.0361 125.588 49.1321 125.418 49.1321H124.97C124.799 49.1321 124.714 49.0361 124.714 48.8441V37.1961C124.714 36.1081 124.426 35.2547 123.85 34.6361C123.274 34.0174 122.452 33.7081 121.385 33.7081H120.042C118.975 33.7081 118.111 33.9961 117.45 34.5721C116.788 35.1481 116.458 35.9694 116.458 37.0361V48.8441C116.458 49.0361 116.372 49.1321 116.202 49.1321ZM140.545 49.1321H140.097C139.927 49.1321 139.841 49.0361 139.841 48.8441V33.1001C139.841 32.9081 139.927 32.8121 140.097 32.8121H140.545C140.716 32.8121 140.801 32.9081 140.801 33.1001V34.4761H140.929C141.527 33.3667 142.657 32.8121 144.321 32.8121H145.729C147.607 32.8121 148.897 33.5694 149.601 35.0841C149.9 34.3374 150.444 33.7721 151.233 33.3881C152.044 33.0041 152.855 32.8121 153.665 32.8121H154.945C156.247 32.8121 157.281 33.2067 158.049 33.9961C158.839 34.7854 159.233 35.8414 159.233 37.1641V48.8441C159.233 49.0361 159.148 49.1321 158.977 49.1321H158.529C158.359 49.1321 158.273 49.0361 158.273 48.8441V37.1961C158.273 36.1081 157.985 35.2547 157.409 34.6361C156.833 34.0174 156.012 33.7081 154.945 33.7081H153.665C152.577 33.7081 151.692 34.0281 151.009 34.6681C150.348 35.2867 150.017 36.1294 150.017 37.1961V48.8441C150.017 49.0361 149.932 49.1321 149.761 49.1321H149.313C149.143 49.1321 149.057 49.0361 149.057 48.8441V37.1961C149.057 36.1081 148.769 35.2547 148.193 34.6361C147.617 34.0174 146.796 33.7081 145.729 33.7081H144.385C143.319 33.7081 142.455 33.9961 141.793 34.5721C141.132 35.1481 140.801 35.9694 140.801 37.0361V48.8441C140.801 49.0361 140.716 49.1321 140.545 49.1321ZM164.345 30.1561V26.9881C164.345 26.7961 164.43 26.7001 164.601 26.7001H165.049C165.22 26.7001 165.305 26.7961 165.305 26.9881V30.1561C165.305 30.3481 165.22 30.4441 165.049 30.4441H164.601C164.43 30.4441 164.345 30.3481 164.345 30.1561ZM164.345 48.8441V33.1001C164.345 32.9081 164.43 32.8121 164.601 32.8121H165.049C165.22 32.8121 165.305 32.9081 165.305 33.1001V48.8441C165.305 49.0361 165.22 49.1321 165.049 49.1321H164.601C164.43 49.1321 164.345 49.0361 164.345 48.8441ZM171.295 49.1321H170.847C170.677 49.1321 170.591 49.0361 170.591 48.8441V33.1001C170.591 32.9081 170.677 32.8121 170.847 32.8121H171.295C171.466 32.8121 171.551 32.9081 171.551 33.1001V34.4761H171.679C172.277 33.3667 173.407 32.8121 175.071 32.8121H177.439C178.741 32.8121 179.775 33.2067 180.543 33.9961C181.333 34.7854 181.727 35.8414 181.727 37.1641V48.8441C181.727 49.0361 181.642 49.1321 181.471 49.1321H181.023C180.853 49.1321 180.767 49.0361 180.767 48.8441V37.1961C180.767 36.1081 180.479 35.2547 179.903 34.6361C179.327 34.0174 178.506 33.7081 177.439 33.7081H175.135C174.069 33.7081 173.205 33.9961 172.543 34.5721C171.882 35.1481 171.551 35.9694 171.551 37.0361V48.8441C171.551 49.0361 171.466 49.1321 171.295 49.1321ZM193.181 48.1721H190.813C189.512 48.1721 188.466 47.7774 187.677 46.9881C186.909 46.1987 186.525 45.1427 186.525 43.8201V37.1641C186.525 35.8414 186.909 34.7854 187.677 33.9961C188.466 33.2067 189.512 32.8121 190.813 32.8121H197.405C197.576 32.8121 197.661 32.9081 197.661 33.1001V49.0361C197.661 50.3587 197.266 51.4147 196.477 52.2041C195.709 52.9934 194.674 53.3881 193.373 53.3881H187.645C187.453 53.3881 187.357 53.3027 187.357 53.1321V52.7481C187.357 52.5774 187.453 52.4921 187.645 52.4921H193.373C194.44 52.4921 195.261 52.1827 195.837 51.5641C196.413 50.9454 196.701 50.0921 196.701 49.0041V46.5081H196.573C195.976 47.6174 194.845 48.1721 193.181 48.1721ZM196.701 43.9481V33.9641C196.701 33.7934 196.605 33.7081 196.413 33.7081H190.813C189.746 33.7081 188.925 34.0174 188.349 34.6361C187.773 35.2547 187.485 36.1081 187.485 37.1961V43.7881C187.485 44.8761 187.773 45.7294 188.349 46.3481C188.925 46.9667 189.746 47.2761 190.813 47.2761H193.117C194.184 47.2761 195.048 46.9881 195.709 46.4121C196.37 45.8361 196.701 45.0147 196.701 43.9481ZM33 71.8441V91.8441C33 92.0361 32.9147 92.1321 32.744 92.1321H32.296C32.1253 92.1321 32.04 92.0361 32.04 91.8441V71.8441C32.04 71.6521 32.1253 71.5561 32.296 71.5561H32.744C32.9147 71.5561 33 71.6521 33 71.8441ZM39.2953 92.1321H38.8473C38.6766 92.1321 38.5913 92.0361 38.5913 91.8441V76.1001C38.5913 75.9081 38.6766 75.8121 38.8473 75.8121H39.2953C39.4659 75.8121 39.5513 75.9081 39.5513 76.1001V77.4761H39.6793C40.2766 76.3667 41.4073 75.8121 43.0713 75.8121H45.4392C46.7406 75.8121 47.7753 76.2067 48.5433 76.9961C49.3326 77.7854 49.7273 78.8414 49.7273 80.1641V91.8441C49.7273 92.0361 49.6419 92.1321 49.4713 92.1321H49.0233C48.8526 92.1321 48.7673 92.0361 48.7673 91.8441V80.1961C48.7673 79.1081 48.4793 78.2547 47.9033 77.6361C47.3273 77.0174 46.5059 76.7081 45.4392 76.7081H43.1353C42.0686 76.7081 41.2046 76.9961 40.5433 77.5721C39.8819 78.1481 39.5513 78.9694 39.5513 80.0361V91.8441C39.5513 92.0361 39.4659 92.1321 39.2953 92.1321ZM59.741 92.1321H54.301C54.109 92.1321 54.013 92.0467 54.013 91.8761V91.4921C54.013 91.3214 54.109 91.2361 54.301 91.2361H59.741C61.8957 91.2361 62.973 90.3827 62.973 88.6761V87.7161C62.973 86.9267 62.8343 86.2867 62.557 85.7961C62.2797 85.3054 61.7783 84.9321 61.053 84.6761L56.829 83.2041C55.7197 82.8201 54.941 82.3507 54.493 81.7961C54.0663 81.2201 53.853 80.4201 53.853 79.3961C53.853 77.0067 55.1543 75.8121 57.757 75.8121H62.909C63.101 75.8121 63.197 75.8974 63.197 76.0681V76.4521C63.197 76.6227 63.101 76.7081 62.909 76.7081H57.757C56.7757 76.7081 56.0397 76.9321 55.549 77.3801C55.0797 77.8281 54.845 78.3401 54.845 78.9161V79.7801C54.845 80.4627 55.0157 80.9961 55.357 81.3801C55.7197 81.7427 56.2743 82.0521 57.021 82.3081L61.213 83.8121C62.3437 84.1321 63.0797 84.6547 63.421 85.3801C63.7623 86.1054 63.933 87.1187 63.933 88.4201C63.933 89.7214 63.5917 90.6707 62.909 91.2681C62.2263 91.8441 61.1703 92.1321 59.741 92.1321ZM69.2038 76.7081H67.0918C66.8998 76.7081 66.8038 76.6227 66.8038 76.4521V76.0681C66.8038 75.8974 66.8998 75.8121 67.0918 75.8121H69.2038C69.3958 75.8121 69.4918 75.7267 69.4918 75.5561V73.0601C69.4918 72.8681 69.5771 72.7721 69.7478 72.7721H70.1958C70.3664 72.7721 70.4518 72.8681 70.4518 73.0601V75.5561C70.4518 75.7267 70.5478 75.8121 70.7398 75.8121H74.8678C75.0598 75.8121 75.1558 75.8974 75.1558 76.0681V76.4521C75.1558 76.6227 75.0598 76.7081 74.8678 76.7081H70.7398C70.5478 76.7081 70.4518 76.7934 70.4518 76.9641V87.8441C70.4518 88.9107 70.7611 89.7427 71.3798 90.3401C72.0198 90.9374 72.8838 91.2361 73.9718 91.2361H75.1878C75.3798 91.2361 75.4758 91.3214 75.4758 91.4921V91.8761C75.4758 92.0467 75.3798 92.1321 75.1878 92.1321H73.9718C72.6491 92.1321 71.5718 91.7481 70.7398 90.9801C69.9078 90.2121 69.4918 89.1774 69.4918 87.8761V76.9641C69.4918 76.7934 69.3958 76.7081 69.2038 76.7081ZM80.1703 92.1321H79.7223C79.5516 92.1321 79.4663 92.0361 79.4663 91.8441V76.1001C79.4663 75.9081 79.5516 75.8121 79.7223 75.8121H80.1703C80.3409 75.8121 80.4263 75.9081 80.4263 76.1001V77.5401H80.5543C80.7889 77.1134 81.1943 76.7187 81.7703 76.3561C82.3676 75.9934 83.1356 75.8121 84.0743 75.8121H85.3542C85.5463 75.8121 85.6423 75.8974 85.6423 76.0681V76.4521C85.6423 76.6227 85.5463 76.7081 85.3542 76.7081H84.0423C82.9543 76.7081 82.0796 77.0494 81.4183 77.7321C80.7569 78.4147 80.4263 79.3427 80.4263 80.5161V91.8441C80.4263 92.0361 80.3409 92.1321 80.1703 92.1321ZM95.6498 92.1321H93.2818C91.9804 92.1321 90.9351 91.7374 90.1458 90.9481C89.3778 90.1587 88.9938 89.1027 88.9938 87.7801V76.1001C88.9938 75.9081 89.0791 75.8121 89.2498 75.8121H89.6978C89.8684 75.8121 89.9538 75.9081 89.9538 76.1001V87.7481C89.9538 88.8361 90.2418 89.6894 90.8177 90.3081C91.3938 90.9267 92.2151 91.2361 93.2818 91.2361H95.5858C96.6524 91.2361 97.5164 90.9481 98.1778 90.3721C98.8391 89.7961 99.1698 88.9747 99.1698 87.9081V76.1001C99.1698 75.9081 99.2551 75.8121 99.4258 75.8121H99.8738C100.044 75.8121 100.13 75.9081 100.13 76.1001V91.8441C100.13 92.0361 100.044 92.1321 99.8738 92.1321H99.4258C99.2551 92.1321 99.1698 92.0361 99.1698 91.8441V90.4681H99.0418C98.4444 91.5774 97.3138 92.1321 95.6498 92.1321ZM105.952 92.1321H105.504C105.333 92.1321 105.248 92.0361 105.248 91.8441V76.1001C105.248 75.9081 105.333 75.8121 105.504 75.8121H105.952C106.122 75.8121 106.208 75.9081 106.208 76.1001V77.4761H106.336C106.933 76.3667 108.064 75.8121 109.728 75.8121H111.135C113.013 75.8121 114.304 76.5694 115.008 78.0841C115.306 77.3374 115.85 76.7721 116.64 76.3881C117.45 76.0041 118.261 75.8121 119.072 75.8121H120.352C121.653 75.8121 122.688 76.2067 123.456 76.9961C124.245 77.7854 124.64 78.8414 124.64 80.1641V91.8441C124.64 92.0361 124.554 92.1321 124.384 92.1321H123.936C123.765 92.1321 123.68 92.0361 123.68 91.8441V80.1961C123.68 79.1081 123.392 78.2547 122.816 77.6361C122.24 77.0174 121.418 76.7081 120.352 76.7081H119.072C117.984 76.7081 117.098 77.0281 116.416 77.6681C115.754 78.2867 115.424 79.1294 115.424 80.1961V91.8441C115.424 92.0361 115.338 92.1321 115.168 92.1321H114.72C114.549 92.1321 114.464 92.0361 114.464 91.8441V80.1961C114.464 79.1081 114.176 78.2547 113.6 77.6361C113.024 77.0174 112.202 76.7081 111.135 76.7081H109.792C108.725 76.7081 107.861 76.9961 107.2 77.5721C106.538 78.1481 106.208 78.9694 106.208 80.0361V91.8441C106.208 92.0361 106.122 92.1321 105.952 92.1321ZM140.119 92.1321H133.559C132.258 92.1321 131.213 91.7374 130.423 90.9481C129.655 90.1587 129.271 89.1027 129.271 87.7801V80.1641C129.271 78.8414 129.655 77.7854 130.423 76.9961C131.213 76.2067 132.258 75.8121 133.559 75.8121H136.375C137.677 75.8121 138.711 76.2067 139.479 76.9961C140.269 77.7854 140.663 78.8414 140.663 80.1641V84.2281C140.663 84.4414 140.567 84.5481 140.375 84.5481H130.519C130.327 84.5481 130.231 84.6334 130.231 84.8041V87.7481C130.231 88.8361 130.519 89.6894 131.095 90.3081C131.671 90.9267 132.493 91.2361 133.559 91.2361H140.119C140.311 91.2361 140.407 91.3214 140.407 91.4921V91.8761C140.407 92.0467 140.311 92.1321 140.119 92.1321ZM130.519 83.6521H139.415C139.607 83.6521 139.703 83.5667 139.703 83.3961V80.1961C139.703 79.1081 139.415 78.2547 138.839 77.6361C138.263 77.0174 137.442 76.7081 136.375 76.7081H133.559C132.493 76.7081 131.671 77.0174 131.095 77.6361C130.519 78.2547 130.231 79.1081 130.231 80.1961V83.3961C130.231 83.5667 130.327 83.6521 130.519 83.6521ZM146.014 92.1321H145.566C145.395 92.1321 145.31 92.0361 145.31 91.8441V76.1001C145.31 75.9081 145.395 75.8121 145.566 75.8121H146.014C146.185 75.8121 146.27 75.9081 146.27 76.1001V77.4761H146.398C146.995 76.3667 148.126 75.8121 149.79 75.8121H152.158C153.459 75.8121 154.494 76.2067 155.262 76.9961C156.051 77.7854 156.446 78.8414 156.446 80.1641V91.8441C156.446 92.0361 156.361 92.1321 156.19 92.1321H155.742C155.571 92.1321 155.486 92.0361 155.486 91.8441V80.1961C155.486 79.1081 155.198 78.2547 154.622 77.6361C154.046 77.0174 153.225 76.7081 152.158 76.7081H149.854C148.787 76.7081 147.923 76.9961 147.262 77.5721C146.601 78.1481 146.27 78.9694 146.27 80.0361V91.8441C146.27 92.0361 146.185 92.1321 146.014 92.1321ZM162.204 76.7081H160.092C159.9 76.7081 159.804 76.6227 159.804 76.4521V76.0681C159.804 75.8974 159.9 75.8121 160.092 75.8121H162.204C162.396 75.8121 162.492 75.7267 162.492 75.5561V73.0601C162.492 72.8681 162.577 72.7721 162.748 72.7721H163.196C163.366 72.7721 163.452 72.8681 163.452 73.0601V75.5561C163.452 75.7267 163.548 75.8121 163.74 75.8121H167.868C168.06 75.8121 168.156 75.8974 168.156 76.0681V76.4521C168.156 76.6227 168.06 76.7081 167.868 76.7081H163.74C163.548 76.7081 163.452 76.7934 163.452 76.9641V87.8441C163.452 88.9107 163.761 89.7427 164.38 90.3401C165.02 90.9374 165.884 91.2361 166.972 91.2361H168.188C168.38 91.2361 168.476 91.3214 168.476 91.4921V91.8761C168.476 92.0467 168.38 92.1321 168.188 92.1321H166.972C165.649 92.1321 164.572 91.7481 163.74 90.9801C162.908 90.2121 162.492 89.1774 162.492 87.8761V76.9641C162.492 76.7934 162.396 76.7081 162.204 76.7081ZM46.984 114.556H47.88C48.0507 114.556 48.136 114.652 48.136 114.844V134.844C48.136 135.036 48.0507 135.132 47.88 135.132H47.432C47.2613 135.132 47.176 135.036 47.176 134.844V116.412H47.048L40.712 130.396C40.6267 130.567 40.4987 130.652 40.328 130.652H39.72C39.5493 130.652 39.4213 130.567 39.336 130.396L32.968 116.38H32.84V134.844C32.84 135.036 32.7547 135.132 32.584 135.132H32.136C31.9653 135.132 31.88 135.036 31.88 134.844V114.844C31.88 114.652 31.9653 114.556 32.136 114.556H33.032C33.1387 114.556 33.2133 114.599 33.256 114.684L39.944 129.468H40.072L46.76 114.684C46.8027 114.599 46.8773 114.556 46.984 114.556ZM60.0873 135.132H57.7193C56.4179 135.132 55.3726 134.737 54.5833 133.948C53.8153 133.159 53.4313 132.103 53.4313 130.78V119.1C53.4313 118.908 53.5166 118.812 53.6873 118.812H54.1353C54.3059 118.812 54.3913 118.908 54.3913 119.1V130.748C54.3913 131.836 54.6793 132.689 55.2552 133.308C55.8313 133.927 56.6526 134.236 57.7193 134.236H60.0233C61.0899 134.236 61.9539 133.948 62.6153 133.372C63.2766 132.796 63.6073 131.975 63.6073 130.908V119.1C63.6073 118.908 63.6926 118.812 63.8633 118.812H64.3113C64.4819 118.812 64.5673 118.908 64.5673 119.1V134.844C64.5673 135.036 64.4819 135.132 64.3113 135.132H63.8633C63.6926 135.132 63.6073 135.036 63.6073 134.844V133.468H63.4793C62.8819 134.577 61.7513 135.132 60.0873 135.132ZM74.741 135.132H69.301C69.109 135.132 69.013 135.047 69.013 134.876V134.492C69.013 134.321 69.109 134.236 69.301 134.236H74.741C76.8957 134.236 77.973 133.383 77.973 131.676V130.716C77.973 129.927 77.8343 129.287 77.557 128.796C77.2797 128.305 76.7783 127.932 76.053 127.676L71.829 126.204C70.7197 125.82 69.941 125.351 69.493 124.796C69.0663 124.22 68.853 123.42 68.853 122.396C68.853 120.007 70.1543 118.812 72.757 118.812H77.909C78.101 118.812 78.197 118.897 78.197 119.068V119.452C78.197 119.623 78.101 119.708 77.909 119.708H72.757C71.7757 119.708 71.0397 119.932 70.549 120.38C70.0797 120.828 69.845 121.34 69.845 121.916V122.78C69.845 123.463 70.0157 123.996 70.357 124.38C70.7197 124.743 71.2743 125.052 72.021 125.308L76.213 126.812C77.3437 127.132 78.0797 127.655 78.421 128.38C78.7623 129.105 78.933 130.119 78.933 131.42C78.933 132.721 78.5917 133.671 77.909 134.268C77.2263 134.844 76.1703 135.132 74.741 135.132ZM83.5638 116.156V112.988C83.5638 112.796 83.6491 112.7 83.8198 112.7H84.2678C84.4384 112.7 84.5238 112.796 84.5238 112.988V116.156C84.5238 116.348 84.4384 116.444 84.2678 116.444H83.8198C83.6491 116.444 83.5638 116.348 83.5638 116.156ZM83.5638 134.844V119.1C83.5638 118.908 83.6491 118.812 83.8198 118.812H84.2678C84.4384 118.812 84.5238 118.908 84.5238 119.1V134.844C84.5238 135.036 84.4384 135.132 84.2678 135.132H83.8198C83.6491 135.132 83.5638 135.036 83.5638 134.844ZM98.61 134.492V134.876C98.61 135.047 98.514 135.132 98.322 135.132H93.778C92.4767 135.132 91.4313 134.737 90.642 133.948C89.874 133.159 89.49 132.103 89.49 130.78V123.164C89.49 121.841 89.874 120.785 90.642 119.996C91.4313 119.207 92.4767 118.812 93.778 118.812H98.322C98.514 118.812 98.61 118.897 98.61 119.068V119.452C98.61 119.623 98.514 119.708 98.322 119.708H93.778C92.7113 119.708 91.89 120.017 91.314 120.636C90.738 121.255 90.45 122.108 90.45 123.196V130.748C90.45 131.836 90.738 132.689 91.314 133.308C91.89 133.927 92.7113 134.236 93.778 134.236H98.322C98.514 134.236 98.61 134.321 98.61 134.492Z" fill="white"/>
<defs>
<filter id="filter0_d_292_181" x="0" y="0" width="540" height="170" filterUnits="userSpaceOnUse" color-interpolation-filters="sRGB">
<feFlood flood-opacity="0" result="BackgroundImageFix"/>
<feColorMatrix in="SourceAlpha" type="matrix" values="0 0 0 0 0 0 0 0 0 0 0 0 0 0 0 0 0 0 127 0" result="hardAlpha"/>
<feOffset dy="4"/>
<feGaussianBlur stdDeviation="2"/>
<feComposite in2="hardAlpha" operator="out"/>
<feColorMatrix type="matrix" values="0 0 0 0 0 0 0 0 0 0 0 0 0 0 0 0 0 0 0.25 0"/>
<feBlend mode="normal" in2="BackgroundImageFix" result="effect1_dropShadow_292_181"/>
<feBlend mode="normal" in="SourceGraphic" in2="effect1_dropShadow_292_181" result="shape"/>
</filter>
</defs>
</svg>
