<svg width="445" height="79" viewBox="0 0 445 79" fill="none" xmlns="http://www.w3.org/2000/svg">
<g filter="url(#filter0_d_145_1274)">
<rect x="4" width="437" height="71" rx="10" fill="#1A1919"/>
</g>
<path d="M26.88 42.648V41.368C26.88 41.176 26.9653 41.08 27.136 41.08H27.584C27.7547 41.08 27.84 41.176 27.84 41.368V42.616C27.84 43.704 28.128 44.5573 28.704 45.176C29.28 45.7947 30.1013 46.104 31.168 46.104H35.008C36.0747 46.104 36.896 45.7947 37.472 45.176C38.048 44.5573 38.336 43.704 38.336 42.616V41.016C38.336 40.0133 37.9413 39.224 37.152 38.648C36.3627 38.0507 35.4027 37.624 34.272 37.368C33.1627 37.0907 32.0427 36.824 30.912 36.568C29.8027 36.2907 28.8533 35.8427 28.064 35.224C27.2747 34.6053 26.88 33.7627 26.88 32.696V30.776C26.88 29.4533 27.264 28.3973 28.032 27.608C28.8213 26.8187 29.8667 26.424 31.168 26.424H35.008C36.3093 26.424 37.344 26.8187 38.112 27.608C38.9013 28.3973 39.296 29.4533 39.296 30.776V31.736C39.296 31.928 39.2107 32.024 39.04 32.024H38.592C38.4213 32.024 38.336 31.928 38.336 31.736V30.808C38.336 29.72 38.048 28.8667 37.472 28.248C36.896 27.6293 36.0747 27.32 35.008 27.32H31.168C30.1013 27.32 29.28 27.6293 28.704 28.248C28.128 28.8667 27.84 29.72 27.84 30.808V32.664C27.84 34.2427 29.184 35.3307 31.872 35.928C33.0027 36.1627 34.1227 36.4293 35.232 36.728C36.3627 37.0053 37.3227 37.496 38.112 38.2C38.9013 38.8827 39.296 39.8 39.296 40.952V42.648C39.296 43.9707 38.9013 45.0267 38.112 45.816C37.344 46.6053 36.3093 47 35.008 47H31.168C29.8667 47 28.8213 46.6053 28.032 45.816C27.264 45.0267 26.88 43.9707 26.88 42.648ZM51.4355 47H48.7155C47.4142 47 46.3688 46.6053 45.5795 45.816C44.8115 45.0267 44.4275 43.9707 44.4275 42.648V35.032C44.4275 33.7093 44.8115 32.6533 45.5795 31.864C46.3688 31.0747 47.4142 30.68 48.7155 30.68H51.4355C52.7368 30.68 53.7715 31.0747 54.5395 31.864C55.3288 32.6533 55.7235 33.7093 55.7235 35.032V42.648C55.7235 43.9707 55.3288 45.0267 54.5395 45.816C53.7715 46.6053 52.7368 47 51.4355 47ZM48.7155 46.104H51.4355C52.5022 46.104 53.3235 45.7947 53.8995 45.176C54.4755 44.5573 54.7635 43.704 54.7635 42.616V35.064C54.7635 33.976 54.4755 33.1227 53.8995 32.504C53.3235 31.8853 52.5022 31.576 51.4355 31.576H48.7155C47.6488 31.576 46.8275 31.8853 46.2515 32.504C45.6755 33.1227 45.3875 33.976 45.3875 35.064V42.616C45.3875 43.704 45.6755 44.5573 46.2515 45.176C46.8275 45.7947 47.6488 46.104 48.7155 46.104ZM67.0248 47H64.6568C63.3554 47 62.3101 46.6053 61.5208 45.816C60.7528 45.0267 60.3688 43.9707 60.3688 42.648V30.968C60.3688 30.776 60.4541 30.68 60.6248 30.68H61.0728C61.2434 30.68 61.3288 30.776 61.3288 30.968V42.616C61.3288 43.704 61.6168 44.5573 62.1927 45.176C62.7688 45.7947 63.5901 46.104 64.6568 46.104H66.9608C68.0274 46.104 68.8914 45.816 69.5528 45.24C70.2141 44.664 70.5448 43.8427 70.5448 42.776V30.968C70.5448 30.776 70.6301 30.68 70.8008 30.68H71.2488C71.4194 30.68 71.5048 30.776 71.5048 30.968V46.712C71.5048 46.904 71.4194 47 71.2488 47H70.8008C70.6301 47 70.5448 46.904 70.5448 46.712V45.336H70.4168C69.8194 46.4453 68.6888 47 67.0248 47ZM77.3265 47H76.8785C76.7078 47 76.6225 46.904 76.6225 46.712V30.968C76.6225 30.776 76.7078 30.68 76.8785 30.68H77.3265C77.4972 30.68 77.5825 30.776 77.5825 30.968V32.344H77.7105C78.3078 31.2347 79.4385 30.68 81.1025 30.68H83.4705C84.7718 30.68 85.8065 31.0747 86.5745 31.864C87.3638 32.6533 87.7585 33.7093 87.7585 35.032V46.712C87.7585 46.904 87.6732 47 87.5025 47H87.0545C86.8838 47 86.7985 46.904 86.7985 46.712V35.064C86.7985 33.976 86.5105 33.1227 85.9345 32.504C85.3585 31.8853 84.5372 31.576 83.4705 31.576H81.1665C80.0998 31.576 79.2358 31.864 78.5745 32.44C77.9132 33.016 77.5825 33.8373 77.5825 34.904V46.712C77.5825 46.904 77.4972 47 77.3265 47ZM99.0523 47H96.6843C95.3829 47 94.3376 46.6053 93.5483 45.816C92.7803 45.0267 92.3963 43.9707 92.3963 42.648V35.032C92.3963 33.7093 92.7803 32.6533 93.5483 31.864C94.3376 31.0747 95.3829 30.68 96.6843 30.68H99.0523C100.716 30.68 101.847 31.2347 102.444 32.344H102.572V24.792C102.572 24.6 102.658 24.504 102.828 24.504H103.276C103.447 24.504 103.532 24.6 103.532 24.792V46.712C103.532 46.904 103.447 47 103.276 47H102.828C102.658 47 102.572 46.904 102.572 46.712V45.336H102.444C101.847 46.4453 100.716 47 99.0523 47ZM102.572 42.776V34.904C102.572 33.8373 102.242 33.016 101.58 32.44C100.919 31.864 100.055 31.576 98.9883 31.576H96.6843C95.6176 31.576 94.7963 31.8853 94.2203 32.504C93.6443 33.1227 93.3563 33.976 93.3563 35.064V42.616C93.3563 43.704 93.6443 44.5573 94.2203 45.176C94.7963 45.7947 95.6176 46.104 96.6843 46.104H98.9883C100.055 46.104 100.919 45.816 101.58 45.24C102.242 44.664 102.572 43.8427 102.572 42.776Z" fill="white"/>
<defs>
<filter id="filter0_d_145_1274" x="0" y="0" width="445" height="79" filterUnits="userSpaceOnUse" color-interpolation-filters="sRGB">
<feFlood flood-opacity="0" result="BackgroundImageFix"/>
<feColorMatrix in="SourceAlpha" type="matrix" values="0 0 0 0 0 0 0 0 0 0 0 0 0 0 0 0 0 0 127 0" result="hardAlpha"/>
<feOffset dy="4"/>
<feGaussianBlur stdDeviation="2"/>
<feComposite in2="hardAlpha" operator="out"/>
<feColorMatrix type="matrix" values="0 0 0 0 0 0 0 0 0 0 0 0 0 0 0 0 0 0 0.25 0"/>
<feBlend mode="normal" in2="BackgroundImageFix" result="effect1_dropShadow_145_1274"/>
<feBlend mode="normal" in="SourceGraphic" in2="effect1_dropShadow_145_1274" result="shape"/>
</filter>
</defs>
</svg>
