<svg width="540" height="214" viewBox="0 0 540 214" fill="none" xmlns="http://www.w3.org/2000/svg">
<g filter="url(#filter0_d_292_181)">
<rect x="4" width="532" height="162" rx="10" fill="#1A1919"/>
</g>
<path d="M31.88 44.7801V43.5001C31.88 43.3081 31.9653 43.2121 32.136 43.2121H32.584C32.7547 43.2121 32.84 43.3081 32.84 43.5001V44.7481C32.84 45.8361 33.128 46.6894 33.704 47.3081C34.28 47.9267 35.1013 48.2361 36.168 48.2361H40.008C41.0747 48.2361 41.896 47.9267 42.472 47.3081C43.048 46.6894 43.336 45.8361 43.336 44.7481V43.1481C43.336 42.1454 42.9413 41.3561 42.152 40.7801C41.3627 40.1827 40.4027 39.7561 39.272 39.5001C38.1627 39.2227 37.0427 38.9561 35.912 38.7001C34.8027 38.4227 33.8533 37.9747 33.064 37.3561C32.2747 36.7374 31.88 35.8947 31.88 34.8281V32.9081C31.88 31.5854 32.264 30.5294 33.032 29.7401C33.8213 28.9507 34.8667 28.5561 36.168 28.5561H40.008C41.3093 28.5561 42.344 28.9507 43.112 29.7401C43.9013 30.5294 44.296 31.5854 44.296 32.9081V33.8681C44.296 34.0601 44.2107 34.1561 44.04 34.1561H43.592C43.4213 34.1561 43.336 34.0601 43.336 33.8681V32.9401C43.336 31.8521 43.048 30.9987 42.472 30.3801C41.896 29.7614 41.0747 29.4521 40.008 29.4521H36.168C35.1013 29.4521 34.28 29.7614 33.704 30.3801C33.128 30.9987 32.84 31.8521 32.84 32.9401V34.7961C32.84 36.3747 34.184 37.4627 36.872 38.0601C38.0027 38.2947 39.1227 38.5614 40.232 38.8601C41.3627 39.1374 42.3227 39.6281 43.112 40.3321C43.9013 41.0147 44.296 41.9321 44.296 43.0841V44.7801C44.296 46.1027 43.9013 47.1587 43.112 47.9481C42.344 48.7374 41.3093 49.1321 40.008 49.1321H36.168C34.8667 49.1321 33.8213 48.7374 33.032 47.9481C32.264 47.1587 31.88 46.1027 31.88 44.7801ZM56.4355 49.1321H53.7155C52.4142 49.1321 51.3688 48.7374 50.5795 47.9481C49.8115 47.1587 49.4275 46.1027 49.4275 44.7801V37.1641C49.4275 35.8414 49.8115 34.7854 50.5795 33.9961C51.3688 33.2067 52.4142 32.8121 53.7155 32.8121H56.4355C57.7368 32.8121 58.7715 33.2067 59.5395 33.9961C60.3288 34.7854 60.7235 35.8414 60.7235 37.1641V44.7801C60.7235 46.1027 60.3288 47.1587 59.5395 47.9481C58.7715 48.7374 57.7368 49.1321 56.4355 49.1321ZM53.7155 48.2361H56.4355C57.5022 48.2361 58.3235 47.9267 58.8995 47.3081C59.4755 46.6894 59.7635 45.8361 59.7635 44.7481V37.1961C59.7635 36.1081 59.4755 35.2547 58.8995 34.6361C58.3235 34.0174 57.5022 33.7081 56.4355 33.7081H53.7155C52.6488 33.7081 51.8275 34.0174 51.2515 34.6361C50.6755 35.2547 50.3875 36.1081 50.3875 37.1961V44.7481C50.3875 45.8361 50.6755 46.6894 51.2515 47.3081C51.8275 47.9267 52.6488 48.2361 53.7155 48.2361ZM72.0248 49.1321H69.6568C68.3554 49.1321 67.3101 48.7374 66.5208 47.9481C65.7528 47.1587 65.3688 46.1027 65.3688 44.7801V33.1001C65.3688 32.9081 65.4541 32.8121 65.6248 32.8121H66.0728C66.2434 32.8121 66.3288 32.9081 66.3288 33.1001V44.7481C66.3288 45.8361 66.6168 46.6894 67.1927 47.3081C67.7688 47.9267 68.5901 48.2361 69.6568 48.2361H71.9608C73.0274 48.2361 73.8914 47.9481 74.5528 47.3721C75.2141 46.7961 75.5448 45.9747 75.5448 44.9081V33.1001C75.5448 32.9081 75.6301 32.8121 75.8008 32.8121H76.2488C76.4194 32.8121 76.5048 32.9081 76.5048 33.1001V48.8441C76.5048 49.0361 76.4194 49.1321 76.2488 49.1321H75.8008C75.6301 49.1321 75.5448 49.0361 75.5448 48.8441V47.4681H75.4168C74.8194 48.5774 73.6888 49.1321 72.0248 49.1321ZM82.3265 49.1321H81.8785C81.7078 49.1321 81.6225 49.0361 81.6225 48.8441V33.1001C81.6225 32.9081 81.7078 32.8121 81.8785 32.8121H82.3265C82.4972 32.8121 82.5825 32.9081 82.5825 33.1001V34.4761H82.7105C83.3078 33.3667 84.4385 32.8121 86.1025 32.8121H88.4705C89.7718 32.8121 90.8065 33.2067 91.5745 33.9961C92.3638 34.7854 92.7585 35.8414 92.7585 37.1641V48.8441C92.7585 49.0361 92.6732 49.1321 92.5025 49.1321H92.0545C91.8838 49.1321 91.7985 49.0361 91.7985 48.8441V37.1961C91.7985 36.1081 91.5105 35.2547 90.9345 34.6361C90.3585 34.0174 89.5372 33.7081 88.4705 33.7081H86.1665C85.0998 33.7081 84.2358 33.9961 83.5745 34.5721C82.9132 35.1481 82.5825 35.9694 82.5825 37.0361V48.8441C82.5825 49.0361 82.4972 49.1321 82.3265 49.1321ZM104.052 49.1321H101.684C100.383 49.1321 99.3376 48.7374 98.5483 47.9481C97.7803 47.1587 97.3963 46.1027 97.3963 44.7801V37.1641C97.3963 35.8414 97.7803 34.7854 98.5483 33.9961C99.3376 33.2067 100.383 32.8121 101.684 32.8121H104.052C105.716 32.8121 106.847 33.3667 107.444 34.4761H107.572V26.9241C107.572 26.7321 107.658 26.6361 107.828 26.6361H108.276C108.447 26.6361 108.532 26.7321 108.532 26.9241V48.8441C108.532 49.0361 108.447 49.1321 108.276 49.1321H107.828C107.658 49.1321 107.572 49.0361 107.572 48.8441V47.4681H107.444C106.847 48.5774 105.716 49.1321 104.052 49.1321ZM107.572 44.9081V37.0361C107.572 35.9694 107.242 35.1481 106.58 34.5721C105.919 33.9961 105.055 33.7081 103.988 33.7081H101.684C100.618 33.7081 99.7963 34.0174 99.2203 34.6361C98.6443 35.2547 98.3563 36.1081 98.3563 37.1961V44.7481C98.3563 45.8361 98.6443 46.6894 99.2203 47.3081C99.7963 47.9267 100.618 48.2361 101.684 48.2361H103.988C105.055 48.2361 105.919 47.9481 106.58 47.3721C107.242 46.7961 107.572 45.9747 107.572 44.9081ZM118.71 49.1321H113.27C113.078 49.1321 112.982 49.0467 112.982 48.8761V48.4921C112.982 48.3214 113.078 48.2361 113.27 48.2361H118.71C120.864 48.2361 121.942 47.3827 121.942 45.6761V44.7161C121.942 43.9267 121.803 43.2867 121.526 42.7961C121.248 42.3054 120.747 41.9321 120.022 41.6761L115.798 40.2041C114.688 39.8201 113.91 39.3507 113.462 38.7961C113.035 38.2201 112.822 37.4201 112.822 36.3961C112.822 34.0067 114.123 32.8121 116.726 32.8121H121.878C122.07 32.8121 122.166 32.8974 122.166 33.0681V33.4521C122.166 33.6227 122.07 33.7081 121.878 33.7081H116.726C115.744 33.7081 115.008 33.9321 114.518 34.3801C114.048 34.8281 113.814 35.3401 113.814 35.9161V36.7801C113.814 37.4627 113.984 37.9961 114.326 38.3801C114.688 38.7427 115.243 39.0521 115.99 39.3081L120.182 40.8121C121.312 41.1321 122.048 41.6547 122.39 42.3801C122.731 43.1054 122.902 44.1187 122.902 45.4201C122.902 46.7214 122.56 47.6707 121.878 48.2681C121.195 48.8441 120.139 49.1321 118.71 49.1321ZM136.173 48.4921V48.8761C136.173 49.0467 136.077 49.1321 135.885 49.1321H131.341C130.039 49.1321 128.994 48.7374 128.205 47.9481C127.437 47.1587 127.053 46.1027 127.053 44.7801V37.1641C127.053 35.8414 127.437 34.7854 128.205 33.9961C128.994 33.2067 130.039 32.8121 131.341 32.8121H135.885C136.077 32.8121 136.173 32.8974 136.173 33.0681V33.4521C136.173 33.6227 136.077 33.7081 135.885 33.7081H131.341C130.274 33.7081 129.453 34.0174 128.877 34.6361C128.301 35.2547 128.013 36.1081 128.013 37.1961V44.7481C128.013 45.8361 128.301 46.6894 128.877 47.3081C129.453 47.9267 130.274 48.2361 131.341 48.2361H135.885C136.077 48.2361 136.173 48.3214 136.173 48.4921ZM146.177 49.1321H143.809C142.508 49.1321 141.463 48.7374 140.673 47.9481C139.905 47.1587 139.521 46.1027 139.521 44.7801V37.1641C139.521 35.8414 139.905 34.7854 140.673 33.9961C141.463 33.2067 142.508 32.8121 143.809 32.8121H150.401C150.572 32.8121 150.657 32.9081 150.657 33.1001V48.8441C150.657 49.0361 150.572 49.1321 150.401 49.1321H149.953C149.783 49.1321 149.697 49.0361 149.697 48.8441V47.4681H149.569C148.972 48.5774 147.841 49.1321 146.177 49.1321ZM149.697 44.9081V33.9641C149.697 33.7934 149.601 33.7081 149.409 33.7081H143.809C142.743 33.7081 141.921 34.0174 141.345 34.6361C140.769 35.2547 140.481 36.1081 140.481 37.1961V44.7481C140.481 45.8361 140.769 46.6894 141.345 47.3081C141.921 47.9267 142.743 48.2361 143.809 48.2361H146.113C147.18 48.2361 148.044 47.9481 148.705 47.3721C149.367 46.7961 149.697 45.9747 149.697 44.9081ZM156.483 54.0281H156.035C155.864 54.0281 155.779 53.9321 155.779 53.7401V33.1001C155.779 32.9081 155.864 32.8121 156.035 32.8121H156.483C156.653 32.8121 156.739 32.9081 156.739 33.1001V34.4761H156.867C157.464 33.3667 158.595 32.8121 160.259 32.8121H162.627C163.928 32.8121 164.963 33.2067 165.731 33.9961C166.52 34.7854 166.915 35.8414 166.915 37.1641V44.7801C166.915 46.1027 166.52 47.1587 165.731 47.9481C164.963 48.7374 163.928 49.1321 162.627 49.1321H160.259C158.595 49.1321 157.464 48.5774 156.867 47.4681H156.739V53.7401C156.739 53.9321 156.653 54.0281 156.483 54.0281ZM160.323 48.2361H162.627C163.693 48.2361 164.515 47.9267 165.091 47.3081C165.667 46.6894 165.955 45.8361 165.955 44.7481V37.1961C165.955 36.1081 165.667 35.2547 165.091 34.6361C164.515 34.0174 163.693 33.7081 162.627 33.7081H160.323C159.256 33.7081 158.392 33.9961 157.731 34.5721C157.069 35.1481 156.739 35.9694 156.739 37.0361V44.9081C156.739 45.9747 157.069 46.7961 157.731 47.3721C158.392 47.9481 159.256 48.2361 160.323 48.2361ZM182.244 49.1321H175.684C174.383 49.1321 173.338 48.7374 172.548 47.9481C171.78 47.1587 171.396 46.1027 171.396 44.7801V37.1641C171.396 35.8414 171.78 34.7854 172.548 33.9961C173.338 33.2067 174.383 32.8121 175.684 32.8121H178.5C179.802 32.8121 180.836 33.2067 181.604 33.9961C182.394 34.7854 182.788 35.8414 182.788 37.1641V41.2281C182.788 41.4414 182.692 41.5481 182.5 41.5481H172.644C172.452 41.5481 172.356 41.6334 172.356 41.8041V44.7481C172.356 45.8361 172.644 46.6894 173.22 47.3081C173.796 47.9267 174.618 48.2361 175.684 48.2361H182.244C182.436 48.2361 182.532 48.3214 182.532 48.4921V48.8761C182.532 49.0467 182.436 49.1321 182.244 49.1321ZM172.644 40.6521H181.54C181.732 40.6521 181.828 40.5667 181.828 40.3961V37.1961C181.828 36.1081 181.54 35.2547 180.964 34.6361C180.388 34.0174 179.567 33.7081 178.5 33.7081H175.684C174.618 33.7081 173.796 34.0174 173.22 34.6361C172.644 35.2547 172.356 36.1081 172.356 37.1961V40.3961C172.356 40.5667 172.452 40.6521 172.644 40.6521ZM46.984 71.5561H47.88C48.0507 71.5561 48.136 71.6521 48.136 71.8441V91.8441C48.136 92.0361 48.0507 92.1321 47.88 92.1321H47.432C47.2613 92.1321 47.176 92.0361 47.176 91.8441V73.4121H47.048L40.712 87.3961C40.6267 87.5667 40.4987 87.6521 40.328 87.6521H39.72C39.5493 87.6521 39.4213 87.5667 39.336 87.3961L32.968 73.3801H32.84V91.8441C32.84 92.0361 32.7547 92.1321 32.584 92.1321H32.136C31.9653 92.1321 31.88 92.0361 31.88 91.8441V71.8441C31.88 71.6521 31.9653 71.5561 32.136 71.5561H33.032C33.1387 71.5561 33.2133 71.5987 33.256 71.6841L39.944 86.4681H40.072L46.76 71.6841C46.8027 71.5987 46.8773 71.5561 46.984 71.5561ZM60.0873 92.1321H57.7193C56.4179 92.1321 55.3726 91.7374 54.5833 90.9481C53.8153 90.1587 53.4313 89.1027 53.4313 87.7801V76.1001C53.4313 75.9081 53.5166 75.8121 53.6873 75.8121H54.1353C54.3059 75.8121 54.3913 75.9081 54.3913 76.1001V87.7481C54.3913 88.8361 54.6793 89.6894 55.2552 90.3081C55.8313 90.9267 56.6526 91.2361 57.7193 91.2361H60.0233C61.0899 91.2361 61.9539 90.9481 62.6153 90.3721C63.2766 89.7961 63.6073 88.9747 63.6073 87.9081V76.1001C63.6073 75.9081 63.6926 75.8121 63.8633 75.8121H64.3113C64.4819 75.8121 64.5673 75.9081 64.5673 76.1001V91.8441C64.5673 92.0361 64.4819 92.1321 64.3113 92.1321H63.8633C63.6926 92.1321 63.6073 92.0361 63.6073 91.8441V90.4681H63.4793C62.8819 91.5774 61.7513 92.1321 60.0873 92.1321ZM74.741 92.1321H69.301C69.109 92.1321 69.013 92.0467 69.013 91.8761V91.4921C69.013 91.3214 69.109 91.2361 69.301 91.2361H74.741C76.8957 91.2361 77.973 90.3827 77.973 88.6761V87.7161C77.973 86.9267 77.8343 86.2867 77.557 85.7961C77.2797 85.3054 76.7783 84.9321 76.053 84.6761L71.829 83.2041C70.7197 82.8201 69.941 82.3507 69.493 81.7961C69.0663 81.2201 68.853 80.4201 68.853 79.3961C68.853 77.0067 70.1543 75.8121 72.757 75.8121H77.909C78.101 75.8121 78.197 75.8974 78.197 76.0681V76.4521C78.197 76.6227 78.101 76.7081 77.909 76.7081H72.757C71.7757 76.7081 71.0397 76.9321 70.549 77.3801C70.0797 77.8281 69.845 78.3401 69.845 78.9161V79.7801C69.845 80.4627 70.0157 80.9961 70.357 81.3801C70.7197 81.7427 71.2743 82.0521 72.021 82.3081L76.213 83.8121C77.3437 84.1321 78.0797 84.6547 78.421 85.3801C78.7623 86.1054 78.933 87.1187 78.933 88.4201C78.933 89.7214 78.5917 90.6707 77.909 91.2681C77.2263 91.8441 76.1703 92.1321 74.741 92.1321ZM83.5638 73.1561V69.9881C83.5638 69.7961 83.6491 69.7001 83.8198 69.7001H84.2678C84.4384 69.7001 84.5238 69.7961 84.5238 69.9881V73.1561C84.5238 73.3481 84.4384 73.4441 84.2678 73.4441H83.8198C83.6491 73.4441 83.5638 73.3481 83.5638 73.1561ZM83.5638 91.8441V76.1001C83.5638 75.9081 83.6491 75.8121 83.8198 75.8121H84.2678C84.4384 75.8121 84.5238 75.9081 84.5238 76.1001V91.8441C84.5238 92.0361 84.4384 92.1321 84.2678 92.1321H83.8198C83.6491 92.1321 83.5638 92.0361 83.5638 91.8441ZM98.61 91.4921V91.8761C98.61 92.0467 98.514 92.1321 98.322 92.1321H93.778C92.4767 92.1321 91.4313 91.7374 90.642 90.9481C89.874 90.1587 89.49 89.1027 89.49 87.7801V80.1641C89.49 78.8414 89.874 77.7854 90.642 76.9961C91.4313 76.2067 92.4767 75.8121 93.778 75.8121H98.322C98.514 75.8121 98.61 75.8974 98.61 76.0681V76.4521C98.61 76.6227 98.514 76.7081 98.322 76.7081H93.778C92.7113 76.7081 91.89 77.0174 91.314 77.6361C90.738 78.2547 90.45 79.1081 90.45 80.1961V87.7481C90.45 88.8361 90.738 89.6894 91.314 90.3081C91.89 90.9267 92.7113 91.2361 93.778 91.2361H98.322C98.514 91.2361 98.61 91.3214 98.61 91.4921ZM32.584 135.132H32.136C31.9653 135.132 31.88 135.036 31.88 134.844V114.844C31.88 114.652 31.9653 114.556 32.136 114.556H32.584C32.7547 114.556 32.84 114.652 32.84 114.844V123.932C32.84 124.103 32.936 124.188 33.128 124.188H43.048C43.24 124.188 43.336 124.103 43.336 123.932V114.844C43.336 114.652 43.4213 114.556 43.592 114.556H44.04C44.2107 114.556 44.296 114.652 44.296 114.844V134.844C44.296 135.036 44.2107 135.132 44.04 135.132H43.592C43.4213 135.132 43.336 135.036 43.336 134.844V125.34C43.336 125.169 43.24 125.084 43.048 125.084H33.128C32.936 125.084 32.84 125.169 32.84 125.34V134.844C32.84 135.036 32.7547 135.132 32.584 135.132ZM50.7715 135.132H50.3235C50.1528 135.132 50.0675 135.036 50.0675 134.844V114.844C50.0675 114.652 50.1528 114.556 50.3235 114.556H57.5235C58.8248 114.556 59.8595 114.951 60.6275 115.74C61.4168 116.529 61.8115 117.585 61.8115 118.908V122.108C61.8115 123.303 61.4915 124.284 60.8515 125.052C60.2115 125.799 59.3475 126.247 58.2595 126.396V126.524L62.1955 134.844C62.3022 135.036 62.2595 135.132 62.0675 135.132H61.4915C61.3208 135.132 61.1822 135.036 61.0755 134.844L57.1715 126.46H51.3155C51.1235 126.46 51.0275 126.545 51.0275 126.716V134.844C51.0275 135.036 50.9422 135.132 50.7715 135.132ZM51.3155 125.564H57.5235C58.5902 125.564 59.4115 125.255 59.9875 124.636C60.5635 124.017 60.8515 123.164 60.8515 122.076V118.94C60.8515 117.852 60.5635 116.999 59.9875 116.38C59.4115 115.761 58.5902 115.452 57.5235 115.452H51.3155C51.1235 115.452 51.0275 115.537 51.0275 115.708V125.308C51.0275 125.479 51.1235 125.564 51.3155 125.564ZM71.0043 135.132H70.5563C70.3856 135.132 70.3003 135.036 70.3003 134.844V115.708C70.3003 115.537 70.2043 115.452 70.0123 115.452H65.0843C64.8923 115.452 64.7963 115.367 64.7963 115.196V114.812C64.7963 114.641 64.8923 114.556 65.0843 114.556H76.4763C76.6683 114.556 76.7643 114.641 76.7643 114.812V115.196C76.7643 115.367 76.6683 115.452 76.4763 115.452H71.5483C71.3563 115.452 71.2603 115.537 71.2603 115.708V134.844C71.2603 135.036 71.1749 135.132 71.0043 135.132ZM80.9903 135.132H80.5423C80.3716 135.132 80.2863 135.036 80.2863 134.844V114.844C80.2863 114.652 80.3716 114.556 80.5423 114.556H90.3023C90.4943 114.556 90.5903 114.641 90.5903 114.812V115.196C90.5903 115.367 90.4943 115.452 90.3023 115.452H81.5343C81.3423 115.452 81.2463 115.537 81.2463 115.708V124.22C81.2463 124.391 81.3423 124.476 81.5343 124.476H89.4383C89.6303 124.476 89.7263 124.561 89.7263 124.732V125.116C89.7263 125.287 89.6303 125.372 89.4383 125.372H81.5343C81.3423 125.372 81.2463 125.457 81.2463 125.628V134.844C81.2463 135.036 81.1609 135.132 80.9903 135.132Z" fill="white"/>
<defs>
<filter id="filter0_d_292_181" x="0" y="0" width="540" height="170" filterUnits="userSpaceOnUse" color-interpolation-filters="sRGB">
<feFlood flood-opacity="0" result="BackgroundImageFix"/>
<feColorMatrix in="SourceAlpha" type="matrix" values="0 0 0 0 0 0 0 0 0 0 0 0 0 0 0 0 0 0 127 0" result="hardAlpha"/>
<feOffset dy="4"/>
<feGaussianBlur stdDeviation="2"/>
<feComposite in2="hardAlpha" operator="out"/>
<feColorMatrix type="matrix" values="0 0 0 0 0 0 0 0 0 0 0 0 0 0 0 0 0 0 0.25 0"/>
<feBlend mode="normal" in2="BackgroundImageFix" result="effect1_dropShadow_292_181"/>
<feBlend mode="normal" in="SourceGraphic" in2="effect1_dropShadow_292_181" result="shape"/>
</filter>
</defs>
</svg>
