<svg width="540" height="214" viewBox="0 0 540 214" fill="none" xmlns="http://www.w3.org/2000/svg">
<g filter="url(#filter0_d_292_177)">
<rect x="4" width="532" height="162" rx="10" fill="#1A1919"/>
</g>
<path d="M32.584 49.1321H32.136C31.9653 49.1321 31.88 49.0361 31.88 48.8441V28.8441C31.88 28.6521 31.9653 28.5561 32.136 28.5561H39.368C40.6693 28.5561 41.704 28.9507 42.472 29.7401C43.2613 30.5294 43.656 31.5854 43.656 32.9081V36.8441C43.656 38.1667 43.2613 39.2227 42.472 40.0121C41.704 40.8014 40.6693 41.1961 39.368 41.1961H33.128C32.936 41.1961 32.84 41.2814 32.84 41.4521V48.8441C32.84 49.0361 32.7547 49.1321 32.584 49.1321ZM33.128 40.3001H39.368C40.4347 40.3001 41.256 39.9907 41.832 39.3721C42.408 38.7534 42.696 37.9001 42.696 36.8121V32.9401C42.696 31.8521 42.408 30.9987 41.832 30.3801C41.256 29.7614 40.4347 29.4521 39.368 29.4521H33.128C32.936 29.4521 32.84 29.5374 32.84 29.7081V40.0441C32.84 40.2147 32.936 40.3001 33.128 40.3001ZM58.838 49.1321H52.278C50.9767 49.1321 49.9313 48.7374 49.142 47.9481C48.374 47.1587 47.99 46.1027 47.99 44.7801V37.1641C47.99 35.8414 48.374 34.7854 49.142 33.9961C49.9313 33.2067 50.9767 32.8121 52.278 32.8121H55.094C56.3953 32.8121 57.43 33.2067 58.198 33.9961C58.9873 34.7854 59.382 35.8414 59.382 37.1641V41.2281C59.382 41.4414 59.286 41.5481 59.094 41.5481H49.238C49.046 41.5481 48.95 41.6334 48.95 41.8041V44.7481C48.95 45.8361 49.238 46.6894 49.814 47.3081C50.39 47.9267 51.2113 48.2361 52.278 48.2361H58.838C59.03 48.2361 59.126 48.3214 59.126 48.4921V48.8761C59.126 49.0467 59.03 49.1321 58.838 49.1321ZM49.238 40.6521H58.134C58.326 40.6521 58.422 40.5667 58.422 40.3961V37.1961C58.422 36.1081 58.134 35.2547 57.558 34.6361C56.982 34.0174 56.1607 33.7081 55.094 33.7081H52.278C51.2113 33.7081 50.39 34.0174 49.814 34.6361C49.238 35.2547 48.95 36.1081 48.95 37.1961V40.3961C48.95 40.5667 49.046 40.6521 49.238 40.6521ZM64.7328 49.1321H64.2848C64.1141 49.1321 64.0288 49.0361 64.0288 48.8441V33.1001C64.0288 32.9081 64.1141 32.8121 64.2848 32.8121H64.7328C64.9034 32.8121 64.9888 32.9081 64.9888 33.1001V34.5401H65.1168C65.3514 34.1134 65.7568 33.7187 66.3328 33.3561C66.9301 32.9934 67.6981 32.8121 68.6368 32.8121H69.9167C70.1088 32.8121 70.2048 32.8974 70.2048 33.0681V33.4521C70.2048 33.6227 70.1088 33.7081 69.9167 33.7081H68.6048C67.5168 33.7081 66.6421 34.0494 65.9808 34.7321C65.3194 35.4147 64.9888 36.3427 64.9888 37.5161V48.8441C64.9888 49.0361 64.9034 49.1321 64.7328 49.1321ZM76.4043 32.8121H79.4123C79.6043 32.8121 79.7003 32.8974 79.7003 33.0681V33.4521C79.7003 33.6227 79.6043 33.7081 79.4123 33.7081H76.4043C76.2123 33.7081 76.1163 33.7934 76.1163 33.9641V48.8441C76.1163 49.0361 76.0309 49.1321 75.8602 49.1321H75.4123C75.2416 49.1321 75.1562 49.0361 75.1562 48.8441V33.9641C75.1562 33.7934 75.0603 33.7081 74.8683 33.7081H72.6923C72.5003 33.7081 72.4043 33.6227 72.4043 33.4521V33.0681C72.4043 32.8974 72.5003 32.8121 72.6923 32.8121H74.8683C75.0603 32.8121 75.1562 32.7267 75.1562 32.5561V30.9241C75.1562 28.0654 76.4149 26.6361 78.9323 26.6361H79.4123C79.6043 26.6361 79.7003 26.7214 79.7003 26.8921V27.2761C79.7003 27.4467 79.6043 27.5321 79.4123 27.5321H78.9323C77.9083 27.5321 77.1829 27.8201 76.7563 28.3961C76.3296 28.9507 76.1163 29.8041 76.1163 30.9561V32.5561C76.1163 32.7267 76.2123 32.8121 76.4043 32.8121ZM89.6855 49.1321H86.9655C85.6642 49.1321 84.6188 48.7374 83.8295 47.9481C83.0615 47.1587 82.6775 46.1027 82.6775 44.7801V37.1641C82.6775 35.8414 83.0615 34.7854 83.8295 33.9961C84.6188 33.2067 85.6642 32.8121 86.9655 32.8121H89.6855C90.9868 32.8121 92.0215 33.2067 92.7895 33.9961C93.5788 34.7854 93.9735 35.8414 93.9735 37.1641V44.7801C93.9735 46.1027 93.5788 47.1587 92.7895 47.9481C92.0215 48.7374 90.9868 49.1321 89.6855 49.1321ZM86.9655 48.2361H89.6855C90.7522 48.2361 91.5735 47.9267 92.1495 47.3081C92.7255 46.6894 93.0135 45.8361 93.0135 44.7481V37.1961C93.0135 36.1081 92.7255 35.2547 92.1495 34.6361C91.5735 34.0174 90.7522 33.7081 89.6855 33.7081H86.9655C85.8988 33.7081 85.0775 34.0174 84.5015 34.6361C83.9255 35.2547 83.6375 36.1081 83.6375 37.1961V44.7481C83.6375 45.8361 83.9255 46.6894 84.5015 47.3081C85.0775 47.9267 85.8988 48.2361 86.9655 48.2361ZM99.4828 49.1321H99.0348C98.8641 49.1321 98.7788 49.0361 98.7788 48.8441V33.1001C98.7788 32.9081 98.8641 32.8121 99.0348 32.8121H99.4828C99.6534 32.8121 99.7388 32.9081 99.7388 33.1001V34.5401H99.8668C100.101 34.1134 100.507 33.7187 101.083 33.3561C101.68 32.9934 102.448 32.8121 103.387 32.8121H104.667C104.859 32.8121 104.955 32.8974 104.955 33.0681V33.4521C104.955 33.6227 104.859 33.7081 104.667 33.7081H103.355C102.267 33.7081 101.392 34.0494 100.731 34.7321C100.069 35.4147 99.7388 36.3427 99.7388 37.5161V48.8441C99.7388 49.0361 99.6534 49.1321 99.4828 49.1321ZM109.17 49.1321H108.722C108.552 49.1321 108.466 49.0361 108.466 48.8441V33.1001C108.466 32.9081 108.552 32.8121 108.722 32.8121H109.17C109.341 32.8121 109.426 32.9081 109.426 33.1001V34.4761H109.554C110.152 33.3667 111.282 32.8121 112.946 32.8121H114.354C116.232 32.8121 117.522 33.5694 118.226 35.0841C118.525 34.3374 119.069 33.7721 119.858 33.3881C120.669 33.0041 121.48 32.8121 122.29 32.8121H123.57C124.872 32.8121 125.906 33.2067 126.674 33.9961C127.464 34.7854 127.858 35.8414 127.858 37.1641V48.8441C127.858 49.0361 127.773 49.1321 127.602 49.1321H127.154C126.984 49.1321 126.898 49.0361 126.898 48.8441V37.1961C126.898 36.1081 126.61 35.2547 126.034 34.6361C125.458 34.0174 124.637 33.7081 123.57 33.7081H122.29C121.202 33.7081 120.317 34.0281 119.634 34.6681C118.973 35.2867 118.642 36.1294 118.642 37.1961V48.8441C118.642 49.0361 118.557 49.1321 118.386 49.1321H117.938C117.768 49.1321 117.682 49.0361 117.682 48.8441V37.1961C117.682 36.1081 117.394 35.2547 116.818 34.6361C116.242 34.0174 115.421 33.7081 114.354 33.7081H113.01C111.944 33.7081 111.08 33.9961 110.418 34.5721C109.757 35.1481 109.426 35.9694 109.426 37.0361V48.8441C109.426 49.0361 109.341 49.1321 109.17 49.1321ZM139.146 49.1321H136.778C135.477 49.1321 134.431 48.7374 133.642 47.9481C132.874 47.1587 132.49 46.1027 132.49 44.7801V37.1641C132.49 35.8414 132.874 34.7854 133.642 33.9961C134.431 33.2067 135.477 32.8121 136.778 32.8121H143.37C143.541 32.8121 143.626 32.9081 143.626 33.1001V48.8441C143.626 49.0361 143.541 49.1321 143.37 49.1321H142.922C142.751 49.1321 142.666 49.0361 142.666 48.8441V47.4681H142.538C141.941 48.5774 140.81 49.1321 139.146 49.1321ZM142.666 44.9081V33.9641C142.666 33.7934 142.57 33.7081 142.378 33.7081H136.778C135.711 33.7081 134.89 34.0174 134.314 34.6361C133.738 35.2547 133.45 36.1081 133.45 37.1961V44.7481C133.45 45.8361 133.738 46.6894 134.314 47.3081C134.89 47.9267 135.711 48.2361 136.778 48.2361H139.082C140.149 48.2361 141.013 47.9481 141.674 47.3721C142.335 46.7961 142.666 45.9747 142.666 44.9081ZM149.452 49.1321H149.004C148.833 49.1321 148.748 49.0361 148.748 48.8441V33.1001C148.748 32.9081 148.833 32.8121 149.004 32.8121H149.452C149.622 32.8121 149.708 32.9081 149.708 33.1001V34.4761H149.836C150.433 33.3667 151.564 32.8121 153.228 32.8121H155.595C156.897 32.8121 157.932 33.2067 158.7 33.9961C159.489 34.7854 159.884 35.8414 159.884 37.1641V48.8441C159.884 49.0361 159.798 49.1321 159.628 49.1321H159.18C159.009 49.1321 158.924 49.0361 158.924 48.8441V37.1961C158.924 36.1081 158.636 35.2547 158.06 34.6361C157.484 34.0174 156.662 33.7081 155.595 33.7081H153.292C152.225 33.7081 151.361 33.9961 150.7 34.5721C150.038 35.1481 149.708 35.9694 149.708 37.0361V48.8441C149.708 49.0361 149.622 49.1321 149.452 49.1321ZM173.641 48.4921V48.8761C173.641 49.0467 173.545 49.1321 173.353 49.1321H168.809C167.508 49.1321 166.463 48.7374 165.673 47.9481C164.905 47.1587 164.521 46.1027 164.521 44.7801V37.1641C164.521 35.8414 164.905 34.7854 165.673 33.9961C166.463 33.2067 167.508 32.8121 168.809 32.8121H173.353C173.545 32.8121 173.641 32.8974 173.641 33.0681V33.4521C173.641 33.6227 173.545 33.7081 173.353 33.7081H168.809C167.743 33.7081 166.921 34.0174 166.345 34.6361C165.769 35.2547 165.481 36.1081 165.481 37.1961V44.7481C165.481 45.8361 165.769 46.6894 166.345 47.3081C166.921 47.9267 167.743 48.2361 168.809 48.2361H173.353C173.545 48.2361 173.641 48.3214 173.641 48.4921ZM187.838 49.1321H181.278C179.977 49.1321 178.931 48.7374 178.142 47.9481C177.374 47.1587 176.99 46.1027 176.99 44.7801V37.1641C176.99 35.8414 177.374 34.7854 178.142 33.9961C178.931 33.2067 179.977 32.8121 181.278 32.8121H184.094C185.395 32.8121 186.43 33.2067 187.198 33.9961C187.987 34.7854 188.382 35.8414 188.382 37.1641V41.2281C188.382 41.4414 188.286 41.5481 188.094 41.5481H178.238C178.046 41.5481 177.95 41.6334 177.95 41.8041V44.7481C177.95 45.8361 178.238 46.6894 178.814 47.3081C179.39 47.9267 180.211 48.2361 181.278 48.2361H187.838C188.03 48.2361 188.126 48.3214 188.126 48.4921V48.8761C188.126 49.0467 188.03 49.1321 187.838 49.1321ZM178.238 40.6521H187.134C187.326 40.6521 187.422 40.5667 187.422 40.3961V37.1961C187.422 36.1081 187.134 35.2547 186.558 34.6361C185.982 34.0174 185.161 33.7081 184.094 33.7081H181.278C180.211 33.7081 179.39 34.0174 178.814 34.6361C178.238 35.2547 177.95 36.1081 177.95 37.1961V40.3961C177.95 40.5667 178.046 40.6521 178.238 40.6521ZM40.008 92.1321H35.848C34.5467 92.1321 33.5013 91.7374 32.712 90.9481C31.944 90.1587 31.56 89.1027 31.56 87.7801V75.9081C31.56 74.5854 31.944 73.5294 32.712 72.7401C33.5013 71.9507 34.5467 71.5561 35.848 71.5561H40.008C41.3093 71.5561 42.344 71.9507 43.112 72.7401C43.9013 73.5294 44.296 74.5854 44.296 75.9081V77.5081C44.296 77.7001 44.2107 77.7961 44.04 77.7961H43.592C43.4213 77.7961 43.336 77.7001 43.336 77.5081V75.9401C43.336 74.8521 43.048 73.9987 42.472 73.3801C41.896 72.7614 41.0747 72.4521 40.008 72.4521H35.848C34.7813 72.4521 33.96 72.7614 33.384 73.3801C32.808 73.9987 32.52 74.8521 32.52 75.9401V87.7481C32.52 88.8361 32.808 89.6894 33.384 90.3081C33.96 90.9267 34.7813 91.2361 35.848 91.2361H40.008C41.0747 91.2361 41.896 90.9267 42.472 90.3081C43.048 89.6894 43.336 88.8361 43.336 87.7481V86.1801C43.336 85.9881 43.4213 85.8921 43.592 85.8921H44.04C44.2107 85.8921 44.296 85.9881 44.296 86.1801V87.7801C44.296 89.1027 43.9013 90.1587 43.112 90.9481C42.344 91.7374 41.3093 92.1321 40.008 92.1321ZM55.623 92.1321H52.903C51.6017 92.1321 50.5563 91.7374 49.767 90.9481C48.999 90.1587 48.615 89.1027 48.615 87.7801V80.1641C48.615 78.8414 48.999 77.7854 49.767 76.9961C50.5563 76.2067 51.6017 75.8121 52.903 75.8121H55.623C56.9243 75.8121 57.959 76.2067 58.727 76.9961C59.5163 77.7854 59.911 78.8414 59.911 80.1641V87.7801C59.911 89.1027 59.5163 90.1587 58.727 90.9481C57.959 91.7374 56.9243 92.1321 55.623 92.1321ZM52.903 91.2361H55.623C56.6897 91.2361 57.511 90.9267 58.087 90.3081C58.663 89.6894 58.951 88.8361 58.951 87.7481V80.1961C58.951 79.1081 58.663 78.2547 58.087 77.6361C57.511 77.0174 56.6897 76.7081 55.623 76.7081H52.903C51.8363 76.7081 51.015 77.0174 50.439 77.6361C49.863 78.2547 49.575 79.1081 49.575 80.1961V87.7481C49.575 88.8361 49.863 89.6894 50.439 90.3081C51.015 90.9267 51.8363 91.2361 52.903 91.2361ZM65.4203 92.1321H64.9723C64.8016 92.1321 64.7163 92.0361 64.7163 91.8441V76.1001C64.7163 75.9081 64.8016 75.8121 64.9723 75.8121H65.4203C65.5909 75.8121 65.6763 75.9081 65.6763 76.1001V77.4761H65.8043C66.4016 76.3667 67.5323 75.8121 69.1963 75.8121H70.6042C72.4816 75.8121 73.7723 76.5694 74.4763 78.0841C74.7749 77.3374 75.3189 76.7721 76.1083 76.3881C76.9189 76.0041 77.7296 75.8121 78.5403 75.8121H79.8203C81.1216 75.8121 82.1563 76.2067 82.9243 76.9961C83.7136 77.7854 84.1083 78.8414 84.1083 80.1641V91.8441C84.1083 92.0361 84.0229 92.1321 83.8523 92.1321H83.4043C83.2336 92.1321 83.1483 92.0361 83.1483 91.8441V80.1961C83.1483 79.1081 82.8603 78.2547 82.2843 77.6361C81.7083 77.0174 80.8869 76.7081 79.8203 76.7081H78.5403C77.4523 76.7081 76.5669 77.0281 75.8843 77.6681C75.2229 78.2867 74.8923 79.1294 74.8923 80.1961V91.8441C74.8923 92.0361 74.8069 92.1321 74.6363 92.1321H74.1883C74.0176 92.1321 73.9323 92.0361 73.9323 91.8441V80.1961C73.9323 79.1081 73.6443 78.2547 73.0683 77.6361C72.4923 77.0174 71.6709 76.7081 70.6042 76.7081H69.2603C68.1936 76.7081 67.3296 76.9961 66.6683 77.5721C66.0069 78.1481 65.6763 78.9694 65.6763 80.0361V91.8441C65.6763 92.0361 65.5909 92.1321 65.4203 92.1321ZM89.764 97.0281H89.316C89.1453 97.0281 89.06 96.9321 89.06 96.7401V76.1001C89.06 75.9081 89.1453 75.8121 89.316 75.8121H89.764C89.9347 75.8121 90.02 75.9081 90.02 76.1001V77.4761H90.148C90.7453 76.3667 91.876 75.8121 93.54 75.8121H95.908C97.2093 75.8121 98.244 76.2067 99.012 76.9961C99.8013 77.7854 100.196 78.8414 100.196 80.1641V87.7801C100.196 89.1027 99.8013 90.1587 99.012 90.9481C98.244 91.7374 97.2093 92.1321 95.908 92.1321H93.54C91.876 92.1321 90.7453 91.5774 90.148 90.4681H90.02V96.7401C90.02 96.9321 89.9347 97.0281 89.764 97.0281ZM93.604 91.2361H95.908C96.9747 91.2361 97.796 90.9267 98.372 90.3081C98.948 89.6894 99.236 88.8361 99.236 87.7481V80.1961C99.236 79.1081 98.948 78.2547 98.372 77.6361C97.796 77.0174 96.9747 76.7081 95.908 76.7081H93.604C92.5373 76.7081 91.6733 76.9961 91.012 77.5721C90.3507 78.1481 90.02 78.9694 90.02 80.0361V87.9081C90.02 88.9747 90.3507 89.7961 91.012 90.3721C91.6733 90.9481 92.5373 91.2361 93.604 91.2361ZM111.686 92.1321H108.966C107.664 92.1321 106.619 91.7374 105.83 90.9481C105.062 90.1587 104.678 89.1027 104.678 87.7801V80.1641C104.678 78.8414 105.062 77.7854 105.83 76.9961C106.619 76.2067 107.664 75.8121 108.966 75.8121H111.686C112.987 75.8121 114.022 76.2067 114.79 76.9961C115.579 77.7854 115.974 78.8414 115.974 80.1641V87.7801C115.974 89.1027 115.579 90.1587 114.79 90.9481C114.022 91.7374 112.987 92.1321 111.686 92.1321ZM108.966 91.2361H111.686C112.752 91.2361 113.574 90.9267 114.15 90.3081C114.726 89.6894 115.014 88.8361 115.014 87.7481V80.1961C115.014 79.1081 114.726 78.2547 114.15 77.6361C113.574 77.0174 112.752 76.7081 111.686 76.7081H108.966C107.899 76.7081 107.078 77.0174 106.502 77.6361C105.926 78.2547 105.638 79.1081 105.638 80.1961V87.7481C105.638 88.8361 105.926 89.6894 106.502 90.3081C107.078 90.9267 107.899 91.2361 108.966 91.2361ZM125.835 92.1321H120.395C120.203 92.1321 120.107 92.0467 120.107 91.8761V91.4921C120.107 91.3214 120.203 91.2361 120.395 91.2361H125.835C127.989 91.2361 129.067 90.3827 129.067 88.6761V87.7161C129.067 86.9267 128.928 86.2867 128.651 85.7961C128.373 85.3054 127.872 84.9321 127.147 84.6761L122.923 83.2041C121.813 82.8201 121.035 82.3507 120.587 81.7961C120.16 81.2201 119.947 80.4201 119.947 79.3961C119.947 77.0067 121.248 75.8121 123.851 75.8121H129.003C129.195 75.8121 129.291 75.8974 129.291 76.0681V76.4521C129.291 76.6227 129.195 76.7081 129.003 76.7081H123.851C122.869 76.7081 122.133 76.9321 121.643 77.3801C121.173 77.8281 120.939 78.3401 120.939 78.9161V79.7801C120.939 80.4627 121.109 80.9961 121.451 81.3801C121.813 81.7427 122.368 82.0521 123.115 82.3081L127.307 83.8121C128.437 84.1321 129.173 84.6547 129.515 85.3801C129.856 86.1054 130.027 87.1187 130.027 88.4201C130.027 89.7214 129.685 90.6707 129.003 91.2681C128.32 91.8441 127.264 92.1321 125.835 92.1321ZM134.658 73.1561V69.9881C134.658 69.7961 134.743 69.7001 134.914 69.7001H135.362C135.532 69.7001 135.618 69.7961 135.618 69.9881V73.1561C135.618 73.3481 135.532 73.4441 135.362 73.4441H134.914C134.743 73.4441 134.658 73.3481 134.658 73.1561ZM134.658 91.8441V76.1001C134.658 75.9081 134.743 75.8121 134.914 75.8121H135.362C135.532 75.8121 135.618 75.9081 135.618 76.1001V91.8441C135.618 92.0361 135.532 92.1321 135.362 92.1321H134.914C134.743 92.1321 134.658 92.0361 134.658 91.8441ZM141.704 76.7081H139.592C139.4 76.7081 139.304 76.6227 139.304 76.4521V76.0681C139.304 75.8974 139.4 75.8121 139.592 75.8121H141.704C141.896 75.8121 141.992 75.7267 141.992 75.5561V73.0601C141.992 72.8681 142.077 72.7721 142.248 72.7721H142.696C142.866 72.7721 142.952 72.8681 142.952 73.0601V75.5561C142.952 75.7267 143.048 75.8121 143.24 75.8121H147.368C147.56 75.8121 147.656 75.8974 147.656 76.0681V76.4521C147.656 76.6227 147.56 76.7081 147.368 76.7081H143.24C143.048 76.7081 142.952 76.7934 142.952 76.9641V87.8441C142.952 88.9107 143.261 89.7427 143.88 90.3401C144.52 90.9374 145.384 91.2361 146.472 91.2361H147.688C147.88 91.2361 147.976 91.3214 147.976 91.4921V91.8761C147.976 92.0467 147.88 92.1321 147.688 92.1321H146.472C145.149 92.1321 144.072 91.7481 143.24 90.9801C142.408 90.2121 141.992 89.1774 141.992 87.8761V76.9641C141.992 76.7934 141.896 76.7081 141.704 76.7081ZM152.126 73.1561V69.9881C152.126 69.7961 152.212 69.7001 152.382 69.7001H152.83C153.001 69.7001 153.086 69.7961 153.086 69.9881V73.1561C153.086 73.3481 153.001 73.4441 152.83 73.4441H152.382C152.212 73.4441 152.126 73.3481 152.126 73.1561ZM152.126 91.8441V76.1001C152.126 75.9081 152.212 75.8121 152.382 75.8121H152.83C153.001 75.8121 153.086 75.9081 153.086 76.1001V91.8441C153.086 92.0361 153.001 92.1321 152.83 92.1321H152.382C152.212 92.1321 152.126 92.0361 152.126 91.8441ZM165.061 92.1321H162.341C161.039 92.1321 159.994 91.7374 159.205 90.9481C158.437 90.1587 158.053 89.1027 158.053 87.7801V80.1641C158.053 78.8414 158.437 77.7854 159.205 76.9961C159.994 76.2067 161.039 75.8121 162.341 75.8121H165.061C166.362 75.8121 167.397 76.2067 168.165 76.9961C168.954 77.7854 169.349 78.8414 169.349 80.1641V87.7801C169.349 89.1027 168.954 90.1587 168.165 90.9481C167.397 91.7374 166.362 92.1321 165.061 92.1321ZM162.341 91.2361H165.061C166.127 91.2361 166.949 90.9267 167.525 90.3081C168.101 89.6894 168.389 88.8361 168.389 87.7481V80.1961C168.389 79.1081 168.101 78.2547 167.525 77.6361C166.949 77.0174 166.127 76.7081 165.061 76.7081H162.341C161.274 76.7081 160.453 77.0174 159.877 77.6361C159.301 78.2547 159.013 79.1081 159.013 80.1961V87.7481C159.013 88.8361 159.301 89.6894 159.877 90.3081C160.453 90.9267 161.274 91.2361 162.341 91.2361ZM174.858 92.1321H174.41C174.239 92.1321 174.154 92.0361 174.154 91.8441V76.1001C174.154 75.9081 174.239 75.8121 174.41 75.8121H174.858C175.028 75.8121 175.114 75.9081 175.114 76.1001V77.4761H175.242C175.839 76.3667 176.97 75.8121 178.634 75.8121H181.002C182.303 75.8121 183.338 76.2067 184.106 76.9961C184.895 77.7854 185.29 78.8414 185.29 80.1641V91.8441C185.29 92.0361 185.204 92.1321 185.034 92.1321H184.586C184.415 92.1321 184.33 92.0361 184.33 91.8441V80.1961C184.33 79.1081 184.042 78.2547 183.466 77.6361C182.89 77.0174 182.068 76.7081 181.002 76.7081H178.698C177.631 76.7081 176.767 76.9961 176.106 77.5721C175.444 78.1481 175.114 78.9694 175.114 80.0361V91.8441C175.114 92.0361 175.028 92.1321 174.858 92.1321ZM32.584 135.132H32.136C31.9653 135.132 31.88 135.036 31.88 134.844V114.844C31.88 114.652 31.9653 114.556 32.136 114.556H39.368C40.6693 114.556 41.704 114.951 42.472 115.74C43.2613 116.529 43.656 117.585 43.656 118.908V122.844C43.656 124.167 43.2613 125.223 42.472 126.012C41.704 126.801 40.6693 127.196 39.368 127.196H33.128C32.936 127.196 32.84 127.281 32.84 127.452V134.844C32.84 135.036 32.7547 135.132 32.584 135.132ZM33.128 126.3H39.368C40.4347 126.3 41.256 125.991 41.832 125.372C42.408 124.753 42.696 123.9 42.696 122.812V118.94C42.696 117.852 42.408 116.999 41.832 116.38C41.256 115.761 40.4347 115.452 39.368 115.452H33.128C32.936 115.452 32.84 115.537 32.84 115.708V126.044C32.84 126.215 32.936 126.3 33.128 126.3ZM49.014 135.132H48.566C48.3953 135.132 48.31 135.036 48.31 134.844V119.1C48.31 118.908 48.3953 118.812 48.566 118.812H49.014C49.1847 118.812 49.27 118.908 49.27 119.1V120.54H49.398C49.6327 120.113 50.038 119.719 50.614 119.356C51.2113 118.993 51.9793 118.812 52.918 118.812H54.198C54.39 118.812 54.486 118.897 54.486 119.068V119.452C54.486 119.623 54.39 119.708 54.198 119.708H52.886C51.798 119.708 50.9233 120.049 50.262 120.732C49.6007 121.415 49.27 122.343 49.27 123.516V134.844C49.27 135.036 49.1847 135.132 49.014 135.132ZM64.3335 135.132H61.9655C60.6642 135.132 59.6188 134.737 58.8295 133.948C58.0615 133.159 57.6775 132.103 57.6775 130.78V123.164C57.6775 121.841 58.0615 120.785 58.8295 119.996C59.6188 119.207 60.6642 118.812 61.9655 118.812H68.5575C68.7282 118.812 68.8135 118.908 68.8135 119.1V134.844C68.8135 135.036 68.7282 135.132 68.5575 135.132H68.1095C67.9388 135.132 67.8535 135.036 67.8535 134.844V133.468H67.7255C67.1282 134.577 65.9975 135.132 64.3335 135.132ZM67.8535 130.908V119.964C67.8535 119.793 67.7575 119.708 67.5655 119.708H61.9655C60.8988 119.708 60.0775 120.017 59.5015 120.636C58.9255 121.255 58.6375 122.108 58.6375 123.196V130.748C58.6375 131.836 58.9255 132.689 59.5015 133.308C60.0775 133.927 60.8988 134.236 61.9655 134.236H64.2695C65.3362 134.236 66.2002 133.948 66.8615 133.372C67.5228 132.796 67.8535 131.975 67.8535 130.908ZM82.735 134.492V134.876C82.735 135.047 82.639 135.132 82.447 135.132H77.903C76.6017 135.132 75.5563 134.737 74.767 133.948C73.999 133.159 73.615 132.103 73.615 130.78V123.164C73.615 121.841 73.999 120.785 74.767 119.996C75.5563 119.207 76.6017 118.812 77.903 118.812H82.447C82.639 118.812 82.735 118.897 82.735 119.068V119.452C82.735 119.623 82.639 119.708 82.447 119.708H77.903C76.8363 119.708 76.015 120.017 75.439 120.636C74.863 121.255 74.575 122.108 74.575 123.196V130.748C74.575 131.836 74.863 132.689 75.439 133.308C76.015 133.927 76.8363 134.236 77.903 134.236H82.447C82.639 134.236 82.735 134.321 82.735 134.492ZM87.2038 119.708H85.0918C84.8998 119.708 84.8038 119.623 84.8038 119.452V119.068C84.8038 118.897 84.8998 118.812 85.0918 118.812H87.2038C87.3958 118.812 87.4918 118.727 87.4918 118.556V116.06C87.4918 115.868 87.5771 115.772 87.7478 115.772H88.1958C88.3664 115.772 88.4518 115.868 88.4518 116.06V118.556C88.4518 118.727 88.5478 118.812 88.7398 118.812H92.8678C93.0598 118.812 93.1558 118.897 93.1558 119.068V119.452C93.1558 119.623 93.0598 119.708 92.8678 119.708H88.7398C88.5478 119.708 88.4518 119.793 88.4518 119.964V130.844C88.4518 131.911 88.7611 132.743 89.3798 133.34C90.0198 133.937 90.8838 134.236 91.9718 134.236H93.1878C93.3798 134.236 93.4758 134.321 93.4758 134.492V134.876C93.4758 135.047 93.3798 135.132 93.1878 135.132H91.9718C90.6491 135.132 89.5718 134.748 88.7398 133.98C87.9078 133.212 87.4918 132.177 87.4918 130.876V119.964C87.4918 119.793 87.3958 119.708 87.2038 119.708ZM97.6263 116.156V112.988C97.6263 112.796 97.7116 112.7 97.8823 112.7H98.3303C98.5009 112.7 98.5863 112.796 98.5863 112.988V116.156C98.5863 116.348 98.5009 116.444 98.3303 116.444H97.8823C97.7116 116.444 97.6263 116.348 97.6263 116.156ZM97.6263 134.844V119.1C97.6263 118.908 97.7116 118.812 97.8823 118.812H98.3303C98.5009 118.812 98.5863 118.908 98.5863 119.1V134.844C98.5863 135.036 98.5009 135.132 98.3303 135.132H97.8823C97.7116 135.132 97.6263 135.036 97.6263 134.844ZM112.673 134.492V134.876C112.673 135.047 112.577 135.132 112.385 135.132H107.841C106.539 135.132 105.494 134.737 104.705 133.948C103.937 133.159 103.553 132.103 103.553 130.78V123.164C103.553 121.841 103.937 120.785 104.705 119.996C105.494 119.207 106.539 118.812 107.841 118.812H112.385C112.577 118.812 112.673 118.897 112.673 119.068V119.452C112.673 119.623 112.577 119.708 112.385 119.708H107.841C106.774 119.708 105.953 120.017 105.377 120.636C104.801 121.255 104.513 122.108 104.513 123.196V130.748C104.513 131.836 104.801 132.689 105.377 133.308C105.953 133.927 106.774 134.236 107.841 134.236H112.385C112.577 134.236 112.673 134.321 112.673 134.492ZM126.869 135.132H120.309C119.008 135.132 117.963 134.737 117.173 133.948C116.405 133.159 116.021 132.103 116.021 130.78V123.164C116.021 121.841 116.405 120.785 117.173 119.996C117.963 119.207 119.008 118.812 120.309 118.812H123.125C124.427 118.812 125.461 119.207 126.229 119.996C127.019 120.785 127.413 121.841 127.413 123.164V127.228C127.413 127.441 127.317 127.548 127.125 127.548H117.269C117.077 127.548 116.981 127.633 116.981 127.804V130.748C116.981 131.836 117.269 132.689 117.845 133.308C118.421 133.927 119.243 134.236 120.309 134.236H126.869C127.061 134.236 127.157 134.321 127.157 134.492V134.876C127.157 135.047 127.061 135.132 126.869 135.132ZM117.269 126.652H126.165C126.357 126.652 126.453 126.567 126.453 126.396V123.196C126.453 122.108 126.165 121.255 125.589 120.636C125.013 120.017 124.192 119.708 123.125 119.708H120.309C119.243 119.708 118.421 120.017 117.845 120.636C117.269 121.255 116.981 122.108 116.981 123.196V126.396C116.981 126.567 117.077 126.652 117.269 126.652Z" fill="white"/>
<defs>
<filter id="filter0_d_292_177" x="0" y="0" width="540" height="170" filterUnits="userSpaceOnUse" color-interpolation-filters="sRGB">
<feFlood flood-opacity="0" result="BackgroundImageFix"/>
<feColorMatrix in="SourceAlpha" type="matrix" values="0 0 0 0 0 0 0 0 0 0 0 0 0 0 0 0 0 0 127 0" result="hardAlpha"/>
<feOffset dy="4"/>
<feGaussianBlur stdDeviation="2"/>
<feComposite in2="hardAlpha" operator="out"/>
<feColorMatrix type="matrix" values="0 0 0 0 0 0 0 0 0 0 0 0 0 0 0 0 0 0 0.25 0"/>
<feBlend mode="normal" in2="BackgroundImageFix" result="effect1_dropShadow_292_177"/>
<feBlend mode="normal" in="SourceGraphic" in2="effect1_dropShadow_292_177" result="shape"/>
</filter>
</defs>
</svg>
