<svg width="60" height="360" viewBox="0 0 60 360" fill="none" xmlns="http://www.w3.org/2000/svg">
<g filter="url(#filter0_d_69_387)">
<path d="M8.88866 0.0879983H50.5507V11.928H8.88866V0.0879983ZM22.2827 14.888H37.0827V51H22.2827V14.888ZM20.8767 75.088H22.1347L27.9807 95.364L19.4707 126H4.67066L20.8767 75.088ZM37.5267 116.972H25.1687L28.2767 105.576H34.1967L25.4647 75.088H39.0067L55.2127 126H40.1167L37.5267 116.972ZM21.1553 150.088H35.9553V201H21.1553V150.088ZM8.59266 225.088H23.3927V276H8.59266V225.088ZM26.5007 258.166V242.256L38.1927 225.088H54.3247L36.7867 249.064L54.5467 276H37.9707L26.5007 258.166ZM37.6007 325.544C37.6007 321.252 37.576 318.44 37.5267 317.108C37.428 315.085 37.1567 313.63 36.7127 312.742C36.2687 311.805 35.5533 311.237 34.5667 311.04C33.58 310.892 32.174 310.818 30.3487 310.818C28.2273 310.818 26.846 310.917 26.2047 311.114V299.57C26.6487 299.521 27.3147 299.496 28.2027 299.496H30.3487C35.874 299.496 40.1413 299.94 43.1507 300.828C46.2093 301.667 48.4293 303.073 49.8107 305.046C51.0933 306.871 51.8827 309.264 52.1787 312.224C52.524 315.184 52.6967 319.624 52.6967 325.544C52.6967 330.724 52.5733 334.72 52.3267 337.532C52.1293 340.295 51.5867 342.589 50.6987 344.414C49.712 346.486 48.1827 348.065 46.1107 349.15C44.088 350.235 41.2513 350.951 37.6007 351.296V325.544ZM30.3487 351.592C23.146 351.592 17.966 350.803 14.8087 349.224C13.1807 348.435 11.898 347.374 10.9607 346.042C10.0233 344.71 9.33266 343.057 8.88866 341.084C8.49399 339.357 8.24732 337.384 8.14866 335.164C8.04999 332.895 8.00066 329.688 8.00066 325.544C8.00066 320.364 8.09932 316.393 8.29666 313.63C8.54332 310.867 9.11066 308.549 9.99866 306.674C10.9853 304.651 12.49 303.097 14.5127 302.012C16.5353 300.927 19.3967 300.187 23.0967 299.792V325.544C23.0967 328.455 23.146 331.242 23.2447 333.906C23.3433 335.929 23.59 337.409 23.9847 338.346C24.4287 339.283 25.144 339.826 26.1307 339.974C26.9693 340.171 28.3753 340.27 30.3487 340.27C32.3713 340.27 33.7527 340.196 34.4927 340.048V351.518C34.0487 351.567 33.3827 351.592 32.4947 351.592H30.3487Z" fill="white"/>
</g>
<defs>
<filter id="filter0_d_69_387" x="0.670654" y="0.0879974" width="58.542" height="359.504" filterUnits="userSpaceOnUse" color-interpolation-filters="sRGB">
<feFlood flood-opacity="0" result="BackgroundImageFix"/>
<feColorMatrix in="SourceAlpha" type="matrix" values="0 0 0 0 0 0 0 0 0 0 0 0 0 0 0 0 0 0 127 0" result="hardAlpha"/>
<feOffset dy="4"/>
<feGaussianBlur stdDeviation="2"/>
<feComposite in2="hardAlpha" operator="out"/>
<feColorMatrix type="matrix" values="0 0 0 0 0 0 0 0 0 0 0 0 0 0 0 0 0 0 0.25 0"/>
<feBlend mode="normal" in2="BackgroundImageFix" result="effect1_dropShadow_69_387"/>
<feBlend mode="normal" in="SourceGraphic" in2="effect1_dropShadow_69_387" result="shape"/>
</filter>
</defs>
</svg>
