<svg width="532" height="214" viewBox="0 0 532 214" fill="none" xmlns="http://www.w3.org/2000/svg">
<rect width="532" height="162" rx="37" fill="#1A1919"/>
<path d="M28.584 49.1321H28.136C27.9653 49.1321 27.88 49.0361 27.88 48.8441V28.8441C27.88 28.6521 27.9653 28.5561 28.136 28.5561H35.368C36.6693 28.5561 37.704 28.9507 38.472 29.7401C39.2613 30.5294 39.656 31.5854 39.656 32.9081V36.8441C39.656 38.1667 39.2613 39.2227 38.472 40.0121C37.704 40.8014 36.6693 41.1961 35.368 41.1961H29.128C28.936 41.1961 28.84 41.2814 28.84 41.4521V48.8441C28.84 49.0361 28.7547 49.1321 28.584 49.1321ZM29.128 40.3001H35.368C36.4347 40.3001 37.256 39.9907 37.832 39.3721C38.408 38.7534 38.696 37.9001 38.696 36.8121V32.9401C38.696 31.8521 38.408 30.9987 37.832 30.3801C37.256 29.7614 36.4347 29.4521 35.368 29.4521H29.128C28.936 29.4521 28.84 29.5374 28.84 29.7081V40.0441C28.84 40.2147 28.936 40.3001 29.128 40.3001ZM54.838 49.1321H48.278C46.9767 49.1321 45.9313 48.7374 45.142 47.9481C44.374 47.1587 43.99 46.1027 43.99 44.7801V37.1641C43.99 35.8414 44.374 34.7854 45.142 33.9961C45.9313 33.2067 46.9767 32.8121 48.278 32.8121H51.094C52.3953 32.8121 53.43 33.2067 54.198 33.9961C54.9873 34.7854 55.382 35.8414 55.382 37.1641V41.2281C55.382 41.4414 55.286 41.5481 55.094 41.5481H45.238C45.046 41.5481 44.95 41.6334 44.95 41.8041V44.7481C44.95 45.8361 45.238 46.6894 45.814 47.3081C46.39 47.9267 47.2113 48.2361 48.278 48.2361H54.838C55.03 48.2361 55.126 48.3214 55.126 48.4921V48.8761C55.126 49.0467 55.03 49.1321 54.838 49.1321ZM45.238 40.6521H54.134C54.326 40.6521 54.422 40.5667 54.422 40.3961V37.1961C54.422 36.1081 54.134 35.2547 53.558 34.6361C52.982 34.0174 52.1607 33.7081 51.094 33.7081H48.278C47.2113 33.7081 46.39 34.0174 45.814 34.6361C45.238 35.2547 44.95 36.1081 44.95 37.1961V40.3961C44.95 40.5667 45.046 40.6521 45.238 40.6521ZM60.7328 49.1321H60.2848C60.1141 49.1321 60.0288 49.0361 60.0288 48.8441V33.1001C60.0288 32.9081 60.1141 32.8121 60.2848 32.8121H60.7328C60.9034 32.8121 60.9888 32.9081 60.9888 33.1001V34.5401H61.1168C61.3514 34.1134 61.7568 33.7187 62.3328 33.3561C62.9301 32.9934 63.6981 32.8121 64.6368 32.8121H65.9167C66.1088 32.8121 66.2048 32.8974 66.2048 33.0681V33.4521C66.2048 33.6227 66.1088 33.7081 65.9167 33.7081H64.6048C63.5168 33.7081 62.6421 34.0494 61.9808 34.7321C61.3194 35.4147 60.9888 36.3427 60.9888 37.5161V48.8441C60.9888 49.0361 60.9034 49.1321 60.7328 49.1321ZM72.4043 32.8121H75.4123C75.6043 32.8121 75.7003 32.8974 75.7003 33.0681V33.4521C75.7003 33.6227 75.6043 33.7081 75.4123 33.7081H72.4043C72.2123 33.7081 72.1163 33.7934 72.1163 33.9641V48.8441C72.1163 49.0361 72.0309 49.1321 71.8602 49.1321H71.4123C71.2416 49.1321 71.1562 49.0361 71.1562 48.8441V33.9641C71.1562 33.7934 71.0603 33.7081 70.8683 33.7081H68.6923C68.5003 33.7081 68.4043 33.6227 68.4043 33.4521V33.0681C68.4043 32.8974 68.5003 32.8121 68.6923 32.8121H70.8683C71.0603 32.8121 71.1562 32.7267 71.1562 32.5561V30.9241C71.1562 28.0654 72.4149 26.6361 74.9323 26.6361H75.4123C75.6043 26.6361 75.7003 26.7214 75.7003 26.8921V27.2761C75.7003 27.4467 75.6043 27.5321 75.4123 27.5321H74.9323C73.9083 27.5321 73.1829 27.8201 72.7563 28.3961C72.3296 28.9507 72.1163 29.8041 72.1163 30.9561V32.5561C72.1163 32.7267 72.2123 32.8121 72.4043 32.8121ZM85.6855 49.1321H82.9655C81.6642 49.1321 80.6188 48.7374 79.8295 47.9481C79.0615 47.1587 78.6775 46.1027 78.6775 44.7801V37.1641C78.6775 35.8414 79.0615 34.7854 79.8295 33.9961C80.6188 33.2067 81.6642 32.8121 82.9655 32.8121H85.6855C86.9868 32.8121 88.0215 33.2067 88.7895 33.9961C89.5788 34.7854 89.9735 35.8414 89.9735 37.1641V44.7801C89.9735 46.1027 89.5788 47.1587 88.7895 47.9481C88.0215 48.7374 86.9868 49.1321 85.6855 49.1321ZM82.9655 48.2361H85.6855C86.7522 48.2361 87.5735 47.9267 88.1495 47.3081C88.7255 46.6894 89.0135 45.8361 89.0135 44.7481V37.1961C89.0135 36.1081 88.7255 35.2547 88.1495 34.6361C87.5735 34.0174 86.7522 33.7081 85.6855 33.7081H82.9655C81.8988 33.7081 81.0775 34.0174 80.5015 34.6361C79.9255 35.2547 79.6375 36.1081 79.6375 37.1961V44.7481C79.6375 45.8361 79.9255 46.6894 80.5015 47.3081C81.0775 47.9267 81.8988 48.2361 82.9655 48.2361ZM95.4828 49.1321H95.0348C94.8641 49.1321 94.7788 49.0361 94.7788 48.8441V33.1001C94.7788 32.9081 94.8641 32.8121 95.0348 32.8121H95.4828C95.6534 32.8121 95.7388 32.9081 95.7388 33.1001V34.5401H95.8668C96.1014 34.1134 96.5068 33.7187 97.0828 33.3561C97.6801 32.9934 98.4481 32.8121 99.3868 32.8121H100.667C100.859 32.8121 100.955 32.8974 100.955 33.0681V33.4521C100.955 33.6227 100.859 33.7081 100.667 33.7081H99.3548C98.2668 33.7081 97.3921 34.0494 96.7308 34.7321C96.0694 35.4147 95.7388 36.3427 95.7388 37.5161V48.8441C95.7388 49.0361 95.6534 49.1321 95.4828 49.1321ZM105.17 49.1321H104.722C104.552 49.1321 104.466 49.0361 104.466 48.8441V33.1001C104.466 32.9081 104.552 32.8121 104.722 32.8121H105.17C105.341 32.8121 105.426 32.9081 105.426 33.1001V34.4761H105.554C106.152 33.3667 107.282 32.8121 108.946 32.8121H110.354C112.232 32.8121 113.522 33.5694 114.226 35.0841C114.525 34.3374 115.069 33.7721 115.858 33.3881C116.669 33.0041 117.48 32.8121 118.29 32.8121H119.57C120.872 32.8121 121.906 33.2067 122.674 33.9961C123.464 34.7854 123.858 35.8414 123.858 37.1641V48.8441C123.858 49.0361 123.773 49.1321 123.602 49.1321H123.154C122.984 49.1321 122.898 49.0361 122.898 48.8441V37.1961C122.898 36.1081 122.61 35.2547 122.034 34.6361C121.458 34.0174 120.637 33.7081 119.57 33.7081H118.29C117.202 33.7081 116.317 34.0281 115.634 34.6681C114.973 35.2867 114.642 36.1294 114.642 37.1961V48.8441C114.642 49.0361 114.557 49.1321 114.386 49.1321H113.938C113.768 49.1321 113.682 49.0361 113.682 48.8441V37.1961C113.682 36.1081 113.394 35.2547 112.818 34.6361C112.242 34.0174 111.421 33.7081 110.354 33.7081H109.01C107.944 33.7081 107.08 33.9961 106.418 34.5721C105.757 35.1481 105.426 35.9694 105.426 37.0361V48.8441C105.426 49.0361 105.341 49.1321 105.17 49.1321ZM135.146 49.1321H132.778C131.477 49.1321 130.431 48.7374 129.642 47.9481C128.874 47.1587 128.49 46.1027 128.49 44.7801V37.1641C128.49 35.8414 128.874 34.7854 129.642 33.9961C130.431 33.2067 131.477 32.8121 132.778 32.8121H139.37C139.541 32.8121 139.626 32.9081 139.626 33.1001V48.8441C139.626 49.0361 139.541 49.1321 139.37 49.1321H138.922C138.751 49.1321 138.666 49.0361 138.666 48.8441V47.4681H138.538C137.941 48.5774 136.81 49.1321 135.146 49.1321ZM138.666 44.9081V33.9641C138.666 33.7934 138.57 33.7081 138.378 33.7081H132.778C131.711 33.7081 130.89 34.0174 130.314 34.6361C129.738 35.2547 129.45 36.1081 129.45 37.1961V44.7481C129.45 45.8361 129.738 46.6894 130.314 47.3081C130.89 47.9267 131.711 48.2361 132.778 48.2361H135.082C136.149 48.2361 137.013 47.9481 137.674 47.3721C138.335 46.7961 138.666 45.9747 138.666 44.9081ZM145.452 49.1321H145.004C144.833 49.1321 144.748 49.0361 144.748 48.8441V33.1001C144.748 32.9081 144.833 32.8121 145.004 32.8121H145.452C145.622 32.8121 145.708 32.9081 145.708 33.1001V34.4761H145.836C146.433 33.3667 147.564 32.8121 149.228 32.8121H151.595C152.897 32.8121 153.932 33.2067 154.7 33.9961C155.489 34.7854 155.884 35.8414 155.884 37.1641V48.8441C155.884 49.0361 155.798 49.1321 155.628 49.1321H155.18C155.009 49.1321 154.924 49.0361 154.924 48.8441V37.1961C154.924 36.1081 154.636 35.2547 154.06 34.6361C153.484 34.0174 152.662 33.7081 151.595 33.7081H149.292C148.225 33.7081 147.361 33.9961 146.7 34.5721C146.038 35.1481 145.708 35.9694 145.708 37.0361V48.8441C145.708 49.0361 145.622 49.1321 145.452 49.1321ZM169.641 48.4921V48.8761C169.641 49.0467 169.545 49.1321 169.353 49.1321H164.809C163.508 49.1321 162.463 48.7374 161.673 47.9481C160.905 47.1587 160.521 46.1027 160.521 44.7801V37.1641C160.521 35.8414 160.905 34.7854 161.673 33.9961C162.463 33.2067 163.508 32.8121 164.809 32.8121H169.353C169.545 32.8121 169.641 32.8974 169.641 33.0681V33.4521C169.641 33.6227 169.545 33.7081 169.353 33.7081H164.809C163.743 33.7081 162.921 34.0174 162.345 34.6361C161.769 35.2547 161.481 36.1081 161.481 37.1961V44.7481C161.481 45.8361 161.769 46.6894 162.345 47.3081C162.921 47.9267 163.743 48.2361 164.809 48.2361H169.353C169.545 48.2361 169.641 48.3214 169.641 48.4921ZM183.838 49.1321H177.278C175.977 49.1321 174.931 48.7374 174.142 47.9481C173.374 47.1587 172.99 46.1027 172.99 44.7801V37.1641C172.99 35.8414 173.374 34.7854 174.142 33.9961C174.931 33.2067 175.977 32.8121 177.278 32.8121H180.094C181.395 32.8121 182.43 33.2067 183.198 33.9961C183.987 34.7854 184.382 35.8414 184.382 37.1641V41.2281C184.382 41.4414 184.286 41.5481 184.094 41.5481H174.238C174.046 41.5481 173.95 41.6334 173.95 41.8041V44.7481C173.95 45.8361 174.238 46.6894 174.814 47.3081C175.39 47.9267 176.211 48.2361 177.278 48.2361H183.838C184.03 48.2361 184.126 48.3214 184.126 48.4921V48.8761C184.126 49.0467 184.03 49.1321 183.838 49.1321ZM174.238 40.6521H183.134C183.326 40.6521 183.422 40.5667 183.422 40.3961V37.1961C183.422 36.1081 183.134 35.2547 182.558 34.6361C181.982 34.0174 181.161 33.7081 180.094 33.7081H177.278C176.211 33.7081 175.39 34.0174 174.814 34.6361C174.238 35.2547 173.95 36.1081 173.95 37.1961V40.3961C173.95 40.5667 174.046 40.6521 174.238 40.6521ZM36.008 92.1321H31.848C30.5467 92.1321 29.5013 91.7374 28.712 90.9481C27.944 90.1587 27.56 89.1027 27.56 87.7801V75.9081C27.56 74.5854 27.944 73.5294 28.712 72.7401C29.5013 71.9507 30.5467 71.5561 31.848 71.5561H36.008C37.3093 71.5561 38.344 71.9507 39.112 72.7401C39.9013 73.5294 40.296 74.5854 40.296 75.9081V77.5081C40.296 77.7001 40.2107 77.7961 40.04 77.7961H39.592C39.4213 77.7961 39.336 77.7001 39.336 77.5081V75.9401C39.336 74.8521 39.048 73.9987 38.472 73.3801C37.896 72.7614 37.0747 72.4521 36.008 72.4521H31.848C30.7813 72.4521 29.96 72.7614 29.384 73.3801C28.808 73.9987 28.52 74.8521 28.52 75.9401V87.7481C28.52 88.8361 28.808 89.6894 29.384 90.3081C29.96 90.9267 30.7813 91.2361 31.848 91.2361H36.008C37.0747 91.2361 37.896 90.9267 38.472 90.3081C39.048 89.6894 39.336 88.8361 39.336 87.7481V86.1801C39.336 85.9881 39.4213 85.8921 39.592 85.8921H40.04C40.2107 85.8921 40.296 85.9881 40.296 86.1801V87.7801C40.296 89.1027 39.9013 90.1587 39.112 90.9481C38.344 91.7374 37.3093 92.1321 36.008 92.1321ZM51.623 92.1321H48.903C47.6017 92.1321 46.5563 91.7374 45.767 90.9481C44.999 90.1587 44.615 89.1027 44.615 87.7801V80.1641C44.615 78.8414 44.999 77.7854 45.767 76.9961C46.5563 76.2067 47.6017 75.8121 48.903 75.8121H51.623C52.9243 75.8121 53.959 76.2067 54.727 76.9961C55.5163 77.7854 55.911 78.8414 55.911 80.1641V87.7801C55.911 89.1027 55.5163 90.1587 54.727 90.9481C53.959 91.7374 52.9243 92.1321 51.623 92.1321ZM48.903 91.2361H51.623C52.6897 91.2361 53.511 90.9267 54.087 90.3081C54.663 89.6894 54.951 88.8361 54.951 87.7481V80.1961C54.951 79.1081 54.663 78.2547 54.087 77.6361C53.511 77.0174 52.6897 76.7081 51.623 76.7081H48.903C47.8363 76.7081 47.015 77.0174 46.439 77.6361C45.863 78.2547 45.575 79.1081 45.575 80.1961V87.7481C45.575 88.8361 45.863 89.6894 46.439 90.3081C47.015 90.9267 47.8363 91.2361 48.903 91.2361ZM61.4203 92.1321H60.9723C60.8016 92.1321 60.7163 92.0361 60.7163 91.8441V76.1001C60.7163 75.9081 60.8016 75.8121 60.9723 75.8121H61.4203C61.5909 75.8121 61.6763 75.9081 61.6763 76.1001V77.4761H61.8043C62.4016 76.3667 63.5323 75.8121 65.1963 75.8121H66.6042C68.4816 75.8121 69.7723 76.5694 70.4763 78.0841C70.7749 77.3374 71.3189 76.7721 72.1083 76.3881C72.9189 76.0041 73.7296 75.8121 74.5403 75.8121H75.8203C77.1216 75.8121 78.1563 76.2067 78.9243 76.9961C79.7136 77.7854 80.1083 78.8414 80.1083 80.1641V91.8441C80.1083 92.0361 80.0229 92.1321 79.8523 92.1321H79.4043C79.2336 92.1321 79.1483 92.0361 79.1483 91.8441V80.1961C79.1483 79.1081 78.8603 78.2547 78.2843 77.6361C77.7083 77.0174 76.8869 76.7081 75.8203 76.7081H74.5403C73.4523 76.7081 72.5669 77.0281 71.8843 77.6681C71.2229 78.2867 70.8923 79.1294 70.8923 80.1961V91.8441C70.8923 92.0361 70.8069 92.1321 70.6363 92.1321H70.1883C70.0176 92.1321 69.9323 92.0361 69.9323 91.8441V80.1961C69.9323 79.1081 69.6443 78.2547 69.0683 77.6361C68.4923 77.0174 67.6709 76.7081 66.6042 76.7081H65.2603C64.1936 76.7081 63.3296 76.9961 62.6683 77.5721C62.0069 78.1481 61.6763 78.9694 61.6763 80.0361V91.8441C61.6763 92.0361 61.5909 92.1321 61.4203 92.1321ZM85.764 97.0281H85.316C85.1453 97.0281 85.06 96.9321 85.06 96.7401V76.1001C85.06 75.9081 85.1453 75.8121 85.316 75.8121H85.764C85.9347 75.8121 86.02 75.9081 86.02 76.1001V77.4761H86.148C86.7453 76.3667 87.876 75.8121 89.54 75.8121H91.908C93.2093 75.8121 94.244 76.2067 95.012 76.9961C95.8013 77.7854 96.196 78.8414 96.196 80.1641V87.7801C96.196 89.1027 95.8013 90.1587 95.012 90.9481C94.244 91.7374 93.2093 92.1321 91.908 92.1321H89.54C87.876 92.1321 86.7453 91.5774 86.148 90.4681H86.02V96.7401C86.02 96.9321 85.9347 97.0281 85.764 97.0281ZM89.604 91.2361H91.908C92.9747 91.2361 93.796 90.9267 94.372 90.3081C94.948 89.6894 95.236 88.8361 95.236 87.7481V80.1961C95.236 79.1081 94.948 78.2547 94.372 77.6361C93.796 77.0174 92.9747 76.7081 91.908 76.7081H89.604C88.5373 76.7081 87.6733 76.9961 87.012 77.5721C86.3507 78.1481 86.02 78.9694 86.02 80.0361V87.9081C86.02 88.9747 86.3507 89.7961 87.012 90.3721C87.6733 90.9481 88.5373 91.2361 89.604 91.2361ZM107.686 92.1321H104.966C103.664 92.1321 102.619 91.7374 101.83 90.9481C101.062 90.1587 100.678 89.1027 100.678 87.7801V80.1641C100.678 78.8414 101.062 77.7854 101.83 76.9961C102.619 76.2067 103.664 75.8121 104.966 75.8121H107.686C108.987 75.8121 110.022 76.2067 110.79 76.9961C111.579 77.7854 111.974 78.8414 111.974 80.1641V87.7801C111.974 89.1027 111.579 90.1587 110.79 90.9481C110.022 91.7374 108.987 92.1321 107.686 92.1321ZM104.966 91.2361H107.686C108.752 91.2361 109.574 90.9267 110.15 90.3081C110.726 89.6894 111.014 88.8361 111.014 87.7481V80.1961C111.014 79.1081 110.726 78.2547 110.15 77.6361C109.574 77.0174 108.752 76.7081 107.686 76.7081H104.966C103.899 76.7081 103.078 77.0174 102.502 77.6361C101.926 78.2547 101.638 79.1081 101.638 80.1961V87.7481C101.638 88.8361 101.926 89.6894 102.502 90.3081C103.078 90.9267 103.899 91.2361 104.966 91.2361ZM121.835 92.1321H116.395C116.203 92.1321 116.107 92.0467 116.107 91.8761V91.4921C116.107 91.3214 116.203 91.2361 116.395 91.2361H121.835C123.989 91.2361 125.067 90.3827 125.067 88.6761V87.7161C125.067 86.9267 124.928 86.2867 124.651 85.7961C124.373 85.3054 123.872 84.9321 123.147 84.6761L118.923 83.2041C117.813 82.8201 117.035 82.3507 116.587 81.7961C116.16 81.2201 115.947 80.4201 115.947 79.3961C115.947 77.0067 117.248 75.8121 119.851 75.8121H125.003C125.195 75.8121 125.291 75.8974 125.291 76.0681V76.4521C125.291 76.6227 125.195 76.7081 125.003 76.7081H119.851C118.869 76.7081 118.133 76.9321 117.643 77.3801C117.173 77.8281 116.939 78.3401 116.939 78.9161V79.7801C116.939 80.4627 117.109 80.9961 117.451 81.3801C117.813 81.7427 118.368 82.0521 119.115 82.3081L123.307 83.8121C124.437 84.1321 125.173 84.6547 125.515 85.3801C125.856 86.1054 126.027 87.1187 126.027 88.4201C126.027 89.7214 125.685 90.6707 125.003 91.2681C124.32 91.8441 123.264 92.1321 121.835 92.1321ZM130.658 73.1561V69.9881C130.658 69.7961 130.743 69.7001 130.914 69.7001H131.362C131.532 69.7001 131.618 69.7961 131.618 69.9881V73.1561C131.618 73.3481 131.532 73.4441 131.362 73.4441H130.914C130.743 73.4441 130.658 73.3481 130.658 73.1561ZM130.658 91.8441V76.1001C130.658 75.9081 130.743 75.8121 130.914 75.8121H131.362C131.532 75.8121 131.618 75.9081 131.618 76.1001V91.8441C131.618 92.0361 131.532 92.1321 131.362 92.1321H130.914C130.743 92.1321 130.658 92.0361 130.658 91.8441ZM137.704 76.7081H135.592C135.4 76.7081 135.304 76.6227 135.304 76.4521V76.0681C135.304 75.8974 135.4 75.8121 135.592 75.8121H137.704C137.896 75.8121 137.992 75.7267 137.992 75.5561V73.0601C137.992 72.8681 138.077 72.7721 138.248 72.7721H138.696C138.866 72.7721 138.952 72.8681 138.952 73.0601V75.5561C138.952 75.7267 139.048 75.8121 139.24 75.8121H143.368C143.56 75.8121 143.656 75.8974 143.656 76.0681V76.4521C143.656 76.6227 143.56 76.7081 143.368 76.7081H139.24C139.048 76.7081 138.952 76.7934 138.952 76.9641V87.8441C138.952 88.9107 139.261 89.7427 139.88 90.3401C140.52 90.9374 141.384 91.2361 142.472 91.2361H143.688C143.88 91.2361 143.976 91.3214 143.976 91.4921V91.8761C143.976 92.0467 143.88 92.1321 143.688 92.1321H142.472C141.149 92.1321 140.072 91.7481 139.24 90.9801C138.408 90.2121 137.992 89.1774 137.992 87.8761V76.9641C137.992 76.7934 137.896 76.7081 137.704 76.7081ZM148.126 73.1561V69.9881C148.126 69.7961 148.212 69.7001 148.382 69.7001H148.83C149.001 69.7001 149.086 69.7961 149.086 69.9881V73.1561C149.086 73.3481 149.001 73.4441 148.83 73.4441H148.382C148.212 73.4441 148.126 73.3481 148.126 73.1561ZM148.126 91.8441V76.1001C148.126 75.9081 148.212 75.8121 148.382 75.8121H148.83C149.001 75.8121 149.086 75.9081 149.086 76.1001V91.8441C149.086 92.0361 149.001 92.1321 148.83 92.1321H148.382C148.212 92.1321 148.126 92.0361 148.126 91.8441ZM161.061 92.1321H158.341C157.039 92.1321 155.994 91.7374 155.205 90.9481C154.437 90.1587 154.053 89.1027 154.053 87.7801V80.1641C154.053 78.8414 154.437 77.7854 155.205 76.9961C155.994 76.2067 157.039 75.8121 158.341 75.8121H161.061C162.362 75.8121 163.397 76.2067 164.165 76.9961C164.954 77.7854 165.349 78.8414 165.349 80.1641V87.7801C165.349 89.1027 164.954 90.1587 164.165 90.9481C163.397 91.7374 162.362 92.1321 161.061 92.1321ZM158.341 91.2361H161.061C162.127 91.2361 162.949 90.9267 163.525 90.3081C164.101 89.6894 164.389 88.8361 164.389 87.7481V80.1961C164.389 79.1081 164.101 78.2547 163.525 77.6361C162.949 77.0174 162.127 76.7081 161.061 76.7081H158.341C157.274 76.7081 156.453 77.0174 155.877 77.6361C155.301 78.2547 155.013 79.1081 155.013 80.1961V87.7481C155.013 88.8361 155.301 89.6894 155.877 90.3081C156.453 90.9267 157.274 91.2361 158.341 91.2361ZM170.858 92.1321H170.41C170.239 92.1321 170.154 92.0361 170.154 91.8441V76.1001C170.154 75.9081 170.239 75.8121 170.41 75.8121H170.858C171.028 75.8121 171.114 75.9081 171.114 76.1001V77.4761H171.242C171.839 76.3667 172.97 75.8121 174.634 75.8121H177.002C178.303 75.8121 179.338 76.2067 180.106 76.9961C180.895 77.7854 181.29 78.8414 181.29 80.1641V91.8441C181.29 92.0361 181.204 92.1321 181.034 92.1321H180.586C180.415 92.1321 180.33 92.0361 180.33 91.8441V80.1961C180.33 79.1081 180.042 78.2547 179.466 77.6361C178.89 77.0174 178.068 76.7081 177.002 76.7081H174.698C173.631 76.7081 172.767 76.9961 172.106 77.5721C171.444 78.1481 171.114 78.9694 171.114 80.0361V91.8441C171.114 92.0361 171.028 92.1321 170.858 92.1321ZM28.584 135.132H28.136C27.9653 135.132 27.88 135.036 27.88 134.844V114.844C27.88 114.652 27.9653 114.556 28.136 114.556H35.368C36.6693 114.556 37.704 114.951 38.472 115.74C39.2613 116.529 39.656 117.585 39.656 118.908V122.844C39.656 124.167 39.2613 125.223 38.472 126.012C37.704 126.801 36.6693 127.196 35.368 127.196H29.128C28.936 127.196 28.84 127.281 28.84 127.452V134.844C28.84 135.036 28.7547 135.132 28.584 135.132ZM29.128 126.3H35.368C36.4347 126.3 37.256 125.991 37.832 125.372C38.408 124.753 38.696 123.9 38.696 122.812V118.94C38.696 117.852 38.408 116.999 37.832 116.38C37.256 115.761 36.4347 115.452 35.368 115.452H29.128C28.936 115.452 28.84 115.537 28.84 115.708V126.044C28.84 126.215 28.936 126.3 29.128 126.3ZM45.014 135.132H44.566C44.3953 135.132 44.31 135.036 44.31 134.844V119.1C44.31 118.908 44.3953 118.812 44.566 118.812H45.014C45.1847 118.812 45.27 118.908 45.27 119.1V120.54H45.398C45.6327 120.113 46.038 119.719 46.614 119.356C47.2113 118.993 47.9793 118.812 48.918 118.812H50.198C50.39 118.812 50.486 118.897 50.486 119.068V119.452C50.486 119.623 50.39 119.708 50.198 119.708H48.886C47.798 119.708 46.9233 120.049 46.262 120.732C45.6007 121.415 45.27 122.343 45.27 123.516V134.844C45.27 135.036 45.1847 135.132 45.014 135.132ZM60.3335 135.132H57.9655C56.6642 135.132 55.6188 134.737 54.8295 133.948C54.0615 133.159 53.6775 132.103 53.6775 130.78V123.164C53.6775 121.841 54.0615 120.785 54.8295 119.996C55.6188 119.207 56.6642 118.812 57.9655 118.812H64.5575C64.7282 118.812 64.8135 118.908 64.8135 119.1V134.844C64.8135 135.036 64.7282 135.132 64.5575 135.132H64.1095C63.9388 135.132 63.8535 135.036 63.8535 134.844V133.468H63.7255C63.1282 134.577 61.9975 135.132 60.3335 135.132ZM63.8535 130.908V119.964C63.8535 119.793 63.7575 119.708 63.5655 119.708H57.9655C56.8988 119.708 56.0775 120.017 55.5015 120.636C54.9255 121.255 54.6375 122.108 54.6375 123.196V130.748C54.6375 131.836 54.9255 132.689 55.5015 133.308C56.0775 133.927 56.8988 134.236 57.9655 134.236H60.2695C61.3362 134.236 62.2002 133.948 62.8615 133.372C63.5228 132.796 63.8535 131.975 63.8535 130.908ZM78.735 134.492V134.876C78.735 135.047 78.639 135.132 78.447 135.132H73.903C72.6017 135.132 71.5563 134.737 70.767 133.948C69.999 133.159 69.615 132.103 69.615 130.78V123.164C69.615 121.841 69.999 120.785 70.767 119.996C71.5563 119.207 72.6017 118.812 73.903 118.812H78.447C78.639 118.812 78.735 118.897 78.735 119.068V119.452C78.735 119.623 78.639 119.708 78.447 119.708H73.903C72.8363 119.708 72.015 120.017 71.439 120.636C70.863 121.255 70.575 122.108 70.575 123.196V130.748C70.575 131.836 70.863 132.689 71.439 133.308C72.015 133.927 72.8363 134.236 73.903 134.236H78.447C78.639 134.236 78.735 134.321 78.735 134.492ZM83.2038 119.708H81.0918C80.8998 119.708 80.8038 119.623 80.8038 119.452V119.068C80.8038 118.897 80.8998 118.812 81.0918 118.812H83.2038C83.3958 118.812 83.4918 118.727 83.4918 118.556V116.06C83.4918 115.868 83.5771 115.772 83.7478 115.772H84.1958C84.3664 115.772 84.4518 115.868 84.4518 116.06V118.556C84.4518 118.727 84.5478 118.812 84.7398 118.812H88.8678C89.0598 118.812 89.1558 118.897 89.1558 119.068V119.452C89.1558 119.623 89.0598 119.708 88.8678 119.708H84.7398C84.5478 119.708 84.4518 119.793 84.4518 119.964V130.844C84.4518 131.911 84.7611 132.743 85.3798 133.34C86.0198 133.937 86.8838 134.236 87.9718 134.236H89.1878C89.3798 134.236 89.4758 134.321 89.4758 134.492V134.876C89.4758 135.047 89.3798 135.132 89.1878 135.132H87.9718C86.6491 135.132 85.5718 134.748 84.7398 133.98C83.9078 133.212 83.4918 132.177 83.4918 130.876V119.964C83.4918 119.793 83.3958 119.708 83.2038 119.708ZM93.6263 116.156V112.988C93.6263 112.796 93.7116 112.7 93.8823 112.7H94.3303C94.5009 112.7 94.5863 112.796 94.5863 112.988V116.156C94.5863 116.348 94.5009 116.444 94.3303 116.444H93.8823C93.7116 116.444 93.6263 116.348 93.6263 116.156ZM93.6263 134.844V119.1C93.6263 118.908 93.7116 118.812 93.8823 118.812H94.3303C94.5009 118.812 94.5863 118.908 94.5863 119.1V134.844C94.5863 135.036 94.5009 135.132 94.3303 135.132H93.8823C93.7116 135.132 93.6263 135.036 93.6263 134.844ZM108.673 134.492V134.876C108.673 135.047 108.577 135.132 108.385 135.132H103.841C102.539 135.132 101.494 134.737 100.705 133.948C99.9365 133.159 99.5525 132.103 99.5525 130.78V123.164C99.5525 121.841 99.9365 120.785 100.705 119.996C101.494 119.207 102.539 118.812 103.841 118.812H108.385C108.577 118.812 108.673 118.897 108.673 119.068V119.452C108.673 119.623 108.577 119.708 108.385 119.708H103.841C102.774 119.708 101.953 120.017 101.377 120.636C100.801 121.255 100.513 122.108 100.513 123.196V130.748C100.513 131.836 100.801 132.689 101.377 133.308C101.953 133.927 102.774 134.236 103.841 134.236H108.385C108.577 134.236 108.673 134.321 108.673 134.492ZM122.869 135.132H116.309C115.008 135.132 113.963 134.737 113.173 133.948C112.405 133.159 112.021 132.103 112.021 130.78V123.164C112.021 121.841 112.405 120.785 113.173 119.996C113.963 119.207 115.008 118.812 116.309 118.812H119.125C120.427 118.812 121.461 119.207 122.229 119.996C123.019 120.785 123.413 121.841 123.413 123.164V127.228C123.413 127.441 123.317 127.548 123.125 127.548H113.269C113.077 127.548 112.981 127.633 112.981 127.804V130.748C112.981 131.836 113.269 132.689 113.845 133.308C114.421 133.927 115.243 134.236 116.309 134.236H122.869C123.061 134.236 123.157 134.321 123.157 134.492V134.876C123.157 135.047 123.061 135.132 122.869 135.132ZM113.269 126.652H122.165C122.357 126.652 122.453 126.567 122.453 126.396V123.196C122.453 122.108 122.165 121.255 121.589 120.636C121.013 120.017 120.192 119.708 119.125 119.708H116.309C115.243 119.708 114.421 120.017 113.845 120.636C113.269 121.255 112.981 122.108 112.981 123.196V126.396C112.981 126.567 113.077 126.652 113.269 126.652Z" fill="white"/>
</svg>
