<svg width="445" height="99" viewBox="0 0 445 99" fill="none" xmlns="http://www.w3.org/2000/svg">
<g filter="url(#filter0_d_145_1265)">
<rect x="4" width="437" height="71" rx="10" fill="#1A1919"/>
</g>
<path d="M30.848 47H30.4C30.2293 47 30.144 46.904 30.144 46.712V27.576C30.144 27.4053 30.048 27.32 29.856 27.32H24.928C24.736 27.32 24.64 27.2347 24.64 27.064V26.68C24.64 26.5093 24.736 26.424 24.928 26.424H36.32C36.512 26.424 36.608 26.5093 36.608 26.68V27.064C36.608 27.2347 36.512 27.32 36.32 27.32H31.392C31.2 27.32 31.104 27.4053 31.104 27.576V46.712C31.104 46.904 31.0187 47 30.848 47ZM46.146 47H43.778C42.4767 47 41.4313 46.6053 40.642 45.816C39.874 45.0267 39.49 43.9707 39.49 42.648V35.032C39.49 33.7093 39.874 32.6533 40.642 31.864C41.4313 31.0747 42.4767 30.68 43.778 30.68H50.37C50.5407 30.68 50.626 30.776 50.626 30.968V46.712C50.626 46.904 50.5407 47 50.37 47H49.922C49.7513 47 49.666 46.904 49.666 46.712V45.336H49.538C48.9407 46.4453 47.81 47 46.146 47ZM49.666 42.776V31.832C49.666 31.6613 49.57 31.576 49.378 31.576H43.778C42.7113 31.576 41.89 31.8853 41.314 32.504C40.738 33.1227 40.45 33.976 40.45 35.064V42.616C40.45 43.704 40.738 44.5573 41.314 45.176C41.89 45.7947 42.7113 46.104 43.778 46.104H46.082C47.1487 46.104 48.0127 45.816 48.674 45.24C49.3353 44.664 49.666 43.8427 49.666 42.776ZM55.9075 28.024V24.856C55.9075 24.664 55.9928 24.568 56.1635 24.568H56.6115C56.7822 24.568 56.8675 24.664 56.8675 24.856V28.024C56.8675 28.216 56.7822 28.312 56.6115 28.312H56.1635C55.9928 28.312 55.9075 28.216 55.9075 28.024ZM55.9075 46.712V30.968C55.9075 30.776 55.9928 30.68 56.1635 30.68H56.6115C56.7822 30.68 56.8675 30.776 56.8675 30.968V46.712C56.8675 46.904 56.7822 47 56.6115 47H56.1635C55.9928 47 55.9075 46.904 55.9075 46.712ZM71.3058 30.68H71.7538C71.9884 30.68 72.0311 30.776 71.8818 30.968L66.7938 38.488V38.616L72.5538 46.712C72.7031 46.904 72.6711 47 72.4578 47H71.9138C71.6791 47 71.4871 46.904 71.3378 46.712L65.7378 38.744C65.6524 38.616 65.6524 38.488 65.7378 38.36L70.7938 30.904C70.9004 30.7547 71.0711 30.68 71.3058 30.68ZM62.8578 47H62.4098C62.2391 47 62.1538 46.904 62.1538 46.712V24.792C62.1538 24.6 62.2391 24.504 62.4098 24.504H62.8578C63.0284 24.504 63.1138 24.6 63.1138 24.792V46.712C63.1138 46.904 63.0284 47 62.8578 47ZM82.2793 47H79.5593C78.2579 47 77.2126 46.6053 76.4233 45.816C75.6553 45.0267 75.2713 43.9707 75.2713 42.648V35.032C75.2713 33.7093 75.6553 32.6533 76.4233 31.864C77.2126 31.0747 78.2579 30.68 79.5593 30.68H82.2793C83.5806 30.68 84.6153 31.0747 85.3833 31.864C86.1726 32.6533 86.5673 33.7093 86.5673 35.032V42.648C86.5673 43.9707 86.1726 45.0267 85.3833 45.816C84.6153 46.6053 83.5806 47 82.2793 47ZM79.5593 46.104H82.2793C83.3459 46.104 84.1673 45.7947 84.7433 45.176C85.3193 44.5573 85.6073 43.704 85.6073 42.616V35.064C85.6073 33.976 85.3193 33.1227 84.7433 32.504C84.1673 31.8853 83.3459 31.576 82.2793 31.576H79.5593C78.4926 31.576 77.6713 31.8853 77.0953 32.504C76.5193 33.1227 76.2313 33.976 76.2313 35.064V42.616C76.2313 43.704 76.5193 44.5573 77.0953 45.176C77.6713 45.7947 78.4926 46.104 79.5593 46.104Z" fill="white"/>
<defs>
<filter id="filter0_d_145_1265" x="0" y="0" width="445" height="79" filterUnits="userSpaceOnUse" color-interpolation-filters="sRGB">
<feFlood flood-opacity="0" result="BackgroundImageFix"/>
<feColorMatrix in="SourceAlpha" type="matrix" values="0 0 0 0 0 0 0 0 0 0 0 0 0 0 0 0 0 0 127 0" result="hardAlpha"/>
<feOffset dy="4"/>
<feGaussianBlur stdDeviation="2"/>
<feComposite in2="hardAlpha" operator="out"/>
<feColorMatrix type="matrix" values="0 0 0 0 0 0 0 0 0 0 0 0 0 0 0 0 0 0 0.25 0"/>
<feBlend mode="normal" in2="BackgroundImageFix" result="effect1_dropShadow_145_1265"/>
<feBlend mode="normal" in="SourceGraphic" in2="effect1_dropShadow_145_1265" result="shape"/>
</filter>
</defs>
</svg>
