<svg width="532" height="214" viewBox="0 0 532 214" fill="none" xmlns="http://www.w3.org/2000/svg">
<rect width="532" height="162" rx="37" fill="#1A1919"/>
<path d="M31.848 49.1321H31.4C31.2293 49.1321 31.144 49.0361 31.144 48.8441V29.7081C31.144 29.5374 31.048 29.4521 30.856 29.4521H25.928C25.736 29.4521 25.64 29.3667 25.64 29.1961V28.8121C25.64 28.6414 25.736 28.5561 25.928 28.5561H37.32C37.512 28.5561 37.608 28.6414 37.608 28.8121V29.1961C37.608 29.3667 37.512 29.4521 37.32 29.4521H32.392C32.2 29.4521 32.104 29.5374 32.104 29.7081V48.8441C32.104 49.0361 32.0187 49.1321 31.848 49.1321ZM41.514 49.1321H41.066C40.8953 49.1321 40.81 49.0361 40.81 48.8441V33.1001C40.81 32.9081 40.8953 32.8121 41.066 32.8121H41.514C41.6847 32.8121 41.77 32.9081 41.77 33.1001V34.5401H41.898C42.1327 34.1134 42.538 33.7187 43.114 33.3561C43.7113 32.9934 44.4793 32.8121 45.418 32.8121H46.698C46.89 32.8121 46.986 32.8974 46.986 33.0681V33.4521C46.986 33.6227 46.89 33.7081 46.698 33.7081H45.386C44.298 33.7081 43.4233 34.0494 42.762 34.7321C42.1007 35.4147 41.77 36.3427 41.77 37.5161V48.8441C41.77 49.0361 41.6847 49.1321 41.514 49.1321ZM56.8335 49.1321H54.4655C53.1642 49.1321 52.1188 48.7374 51.3295 47.9481C50.5615 47.1587 50.1775 46.1027 50.1775 44.7801V37.1641C50.1775 35.8414 50.5615 34.7854 51.3295 33.9961C52.1188 33.2067 53.1642 32.8121 54.4655 32.8121H61.0575C61.2282 32.8121 61.3135 32.9081 61.3135 33.1001V48.8441C61.3135 49.0361 61.2282 49.1321 61.0575 49.1321H60.6095C60.4388 49.1321 60.3535 49.0361 60.3535 48.8441V47.4681H60.2255C59.6282 48.5774 58.4975 49.1321 56.8335 49.1321ZM60.3535 44.9081V33.9641C60.3535 33.7934 60.2575 33.7081 60.0655 33.7081H54.4655C53.3988 33.7081 52.5775 34.0174 52.0015 34.6361C51.4255 35.2547 51.1375 36.1081 51.1375 37.1961V44.7481C51.1375 45.8361 51.4255 46.6894 52.0015 47.3081C52.5775 47.9267 53.3988 48.2361 54.4655 48.2361H56.7695C57.8362 48.2361 58.7002 47.9481 59.3615 47.3721C60.0228 46.7961 60.3535 45.9747 60.3535 44.9081ZM67.139 49.1321H66.691C66.5203 49.1321 66.435 49.0361 66.435 48.8441V33.1001C66.435 32.9081 66.5203 32.8121 66.691 32.8121H67.139C67.3097 32.8121 67.395 32.9081 67.395 33.1001V34.4761H67.523C68.1203 33.3667 69.251 32.8121 70.915 32.8121H73.283C74.5843 32.8121 75.619 33.2067 76.387 33.9961C77.1763 34.7854 77.571 35.8414 77.571 37.1641V48.8441C77.571 49.0361 77.4857 49.1321 77.315 49.1321H76.867C76.6963 49.1321 76.611 49.0361 76.611 48.8441V37.1961C76.611 36.1081 76.323 35.2547 75.747 34.6361C75.171 34.0174 74.3497 33.7081 73.283 33.7081H70.979C69.9123 33.7081 69.0483 33.9961 68.387 34.5721C67.7257 35.1481 67.395 35.9694 67.395 37.0361V48.8441C67.395 49.0361 67.3097 49.1321 67.139 49.1321ZM87.5848 49.1321H82.1448C81.9528 49.1321 81.8568 49.0467 81.8568 48.8761V48.4921C81.8568 48.3214 81.9528 48.2361 82.1448 48.2361H87.5848C89.7394 48.2361 90.8168 47.3827 90.8168 45.6761V44.7161C90.8168 43.9267 90.6781 43.2867 90.4008 42.7961C90.1234 42.3054 89.6221 41.9321 88.8968 41.6761L84.6727 40.2041C83.5634 39.8201 82.7848 39.3507 82.3368 38.7961C81.9101 38.2201 81.6968 37.4201 81.6968 36.3961C81.6968 34.0067 82.9981 32.8121 85.6008 32.8121H90.7528C90.9448 32.8121 91.0408 32.8974 91.0408 33.0681V33.4521C91.0408 33.6227 90.9448 33.7081 90.7528 33.7081H85.6008C84.6194 33.7081 83.8834 33.9321 83.3928 34.3801C82.9234 34.8281 82.6888 35.3401 82.6888 35.9161V36.7801C82.6888 37.4627 82.8594 37.9961 83.2008 38.3801C83.5634 38.7427 84.1181 39.0521 84.8648 39.3081L89.0568 40.8121C90.1874 41.1321 90.9234 41.6547 91.2648 42.3801C91.6061 43.1054 91.7768 44.1187 91.7768 45.4201C91.7768 46.7214 91.4354 47.6707 90.7528 48.2681C90.0701 48.8441 89.0141 49.1321 87.5848 49.1321ZM97.1115 49.1321H96.6635C96.4928 49.1321 96.4075 49.0361 96.4075 48.8441V26.9241C96.4075 26.7321 96.4928 26.6361 96.6635 26.6361H97.1115C97.2822 26.6361 97.3675 26.7321 97.3675 26.9241V48.8441C97.3675 49.0361 97.2822 49.1321 97.1115 49.1321ZM108.99 49.1321H106.622C105.32 49.1321 104.275 48.7374 103.486 47.9481C102.718 47.1587 102.334 46.1027 102.334 44.7801V37.1641C102.334 35.8414 102.718 34.7854 103.486 33.9961C104.275 33.2067 105.32 32.8121 106.622 32.8121H113.214C113.384 32.8121 113.47 32.9081 113.47 33.1001V48.8441C113.47 49.0361 113.384 49.1321 113.214 49.1321H112.766C112.595 49.1321 112.51 49.0361 112.51 48.8441V47.4681H112.382C111.784 48.5774 110.654 49.1321 108.99 49.1321ZM112.51 44.9081V33.9641C112.51 33.7934 112.414 33.7081 112.222 33.7081H106.622C105.555 33.7081 104.734 34.0174 104.158 34.6361C103.582 35.2547 103.294 36.1081 103.294 37.1961V44.7481C103.294 45.8361 103.582 46.6894 104.158 47.3081C104.734 47.9267 105.555 48.2361 106.622 48.2361H108.926C109.992 48.2361 110.856 47.9481 111.518 47.3721C112.179 46.7961 112.51 45.9747 112.51 44.9081ZM119.391 33.7081H117.279C117.087 33.7081 116.991 33.6227 116.991 33.4521V33.0681C116.991 32.8974 117.087 32.8121 117.279 32.8121H119.391C119.583 32.8121 119.679 32.7267 119.679 32.5561V30.0601C119.679 29.8681 119.765 29.7721 119.935 29.7721H120.383C120.554 29.7721 120.639 29.8681 120.639 30.0601V32.5561C120.639 32.7267 120.735 32.8121 120.927 32.8121H125.055C125.247 32.8121 125.343 32.8974 125.343 33.0681V33.4521C125.343 33.6227 125.247 33.7081 125.055 33.7081H120.927C120.735 33.7081 120.639 33.7934 120.639 33.9641V44.8441C120.639 45.9107 120.949 46.7427 121.567 47.3401C122.207 47.9374 123.071 48.2361 124.159 48.2361H125.375C125.567 48.2361 125.663 48.3214 125.663 48.4921V48.8761C125.663 49.0467 125.567 49.1321 125.375 49.1321H124.159C122.837 49.1321 121.759 48.7481 120.927 47.9801C120.095 47.2121 119.679 46.1774 119.679 44.8761V33.9641C119.679 33.7934 119.583 33.7081 119.391 33.7081ZM129.814 30.1561V26.9881C129.814 26.7961 129.899 26.7001 130.07 26.7001H130.518C130.688 26.7001 130.774 26.7961 130.774 26.9881V30.1561C130.774 30.3481 130.688 30.4441 130.518 30.4441H130.07C129.899 30.4441 129.814 30.3481 129.814 30.1561ZM129.814 48.8441V33.1001C129.814 32.9081 129.899 32.8121 130.07 32.8121H130.518C130.688 32.8121 130.774 32.9081 130.774 33.1001V48.8441C130.774 49.0361 130.688 49.1321 130.518 49.1321H130.07C129.899 49.1321 129.814 49.0361 129.814 48.8441ZM142.748 49.1321H140.028C138.727 49.1321 137.681 48.7374 136.892 47.9481C136.124 47.1587 135.74 46.1027 135.74 44.7801V37.1641C135.74 35.8414 136.124 34.7854 136.892 33.9961C137.681 33.2067 138.727 32.8121 140.028 32.8121H142.748C144.049 32.8121 145.084 33.2067 145.852 33.9961C146.641 34.7854 147.036 35.8414 147.036 37.1641V44.7801C147.036 46.1027 146.641 47.1587 145.852 47.9481C145.084 48.7374 144.049 49.1321 142.748 49.1321ZM140.028 48.2361H142.748C143.815 48.2361 144.636 47.9267 145.212 47.3081C145.788 46.6894 146.076 45.8361 146.076 44.7481V37.1961C146.076 36.1081 145.788 35.2547 145.212 34.6361C144.636 34.0174 143.815 33.7081 142.748 33.7081H140.028C138.961 33.7081 138.14 34.0174 137.564 34.6361C136.988 35.2547 136.7 36.1081 136.7 37.1961V44.7481C136.7 45.8361 136.988 46.6894 137.564 47.3081C138.14 47.9267 138.961 48.2361 140.028 48.2361ZM152.545 49.1321H152.097C151.927 49.1321 151.841 49.0361 151.841 48.8441V33.1001C151.841 32.9081 151.927 32.8121 152.097 32.8121H152.545C152.716 32.8121 152.801 32.9081 152.801 33.1001V34.4761H152.929C153.527 33.3667 154.657 32.8121 156.321 32.8121H158.689C159.991 32.8121 161.025 33.2067 161.793 33.9961C162.583 34.7854 162.977 35.8414 162.977 37.1641V48.8441C162.977 49.0361 162.892 49.1321 162.721 49.1321H162.273C162.103 49.1321 162.017 49.0361 162.017 48.8441V37.1961C162.017 36.1081 161.729 35.2547 161.153 34.6361C160.577 34.0174 159.756 33.7081 158.689 33.7081H156.385C155.319 33.7081 154.455 33.9961 153.793 34.5721C153.132 35.1481 152.801 35.9694 152.801 37.0361V48.8441C152.801 49.0361 152.716 49.1321 152.545 49.1321ZM31.848 92.1321H31.4C31.2293 92.1321 31.144 92.0361 31.144 91.8441V72.7081C31.144 72.5374 31.048 72.4521 30.856 72.4521H25.928C25.736 72.4521 25.64 72.3667 25.64 72.1961V71.8121C25.64 71.6414 25.736 71.5561 25.928 71.5561H37.32C37.512 71.5561 37.608 71.6414 37.608 71.8121V72.1961C37.608 72.3667 37.512 72.4521 37.32 72.4521H32.392C32.2 72.4521 32.104 72.5374 32.104 72.7081V91.8441C32.104 92.0361 32.0187 92.1321 31.848 92.1321ZM41.514 92.1321H41.066C40.8953 92.1321 40.81 92.0361 40.81 91.8441V69.9241C40.81 69.7321 40.8953 69.6361 41.066 69.6361H41.514C41.6847 69.6361 41.77 69.7321 41.77 69.9241V77.4761H41.898C42.4953 76.3667 43.626 75.8121 45.29 75.8121H47.658C48.9593 75.8121 49.994 76.2067 50.762 76.9961C51.5513 77.7854 51.946 78.8414 51.946 80.1641V91.8441C51.946 92.0361 51.8607 92.1321 51.69 92.1321H51.242C51.0713 92.1321 50.986 92.0361 50.986 91.8441V80.1961C50.986 79.1081 50.698 78.2547 50.122 77.6361C49.546 77.0174 48.7247 76.7081 47.658 76.7081H45.354C44.2873 76.7081 43.4233 76.9961 42.762 77.5721C42.1007 78.1481 41.77 78.9694 41.77 80.0361V91.8441C41.77 92.0361 41.6847 92.1321 41.514 92.1321ZM63.5918 92.1321H60.8718C59.5704 92.1321 58.5251 91.7374 57.7358 90.9481C56.9678 90.1587 56.5838 89.1027 56.5838 87.7801V80.1641C56.5838 78.8414 56.9678 77.7854 57.7358 76.9961C58.5251 76.2067 59.5704 75.8121 60.8718 75.8121H63.5918C64.8931 75.8121 65.9278 76.2067 66.6958 76.9961C67.4851 77.7854 67.8798 78.8414 67.8798 80.1641V87.7801C67.8798 89.1027 67.4851 90.1587 66.6958 90.9481C65.9278 91.7374 64.8931 92.1321 63.5918 92.1321ZM60.8718 91.2361H63.5918C64.6584 91.2361 65.4798 90.9267 66.0558 90.3081C66.6318 89.6894 66.9198 88.8361 66.9198 87.7481V80.1961C66.9198 79.1081 66.6318 78.2547 66.0558 77.6361C65.4798 77.0174 64.6584 76.7081 63.5918 76.7081H60.8718C59.8051 76.7081 58.9838 77.0174 58.4078 77.6361C57.8318 78.2547 57.5438 79.1081 57.5438 80.1961V87.7481C57.5438 88.8361 57.8318 89.6894 58.4078 90.3081C58.9838 90.9267 59.8051 91.2361 60.8718 91.2361ZM79.181 92.1321H76.813C75.5117 92.1321 74.4663 91.7374 73.677 90.9481C72.909 90.1587 72.525 89.1027 72.525 87.7801V76.1001C72.525 75.9081 72.6103 75.8121 72.781 75.8121H73.229C73.3997 75.8121 73.485 75.9081 73.485 76.1001V87.7481C73.485 88.8361 73.773 89.6894 74.349 90.3081C74.925 90.9267 75.7463 91.2361 76.813 91.2361H79.117C80.1837 91.2361 81.0477 90.9481 81.709 90.3721C82.3703 89.7961 82.701 88.9747 82.701 87.9081V76.1001C82.701 75.9081 82.7863 75.8121 82.957 75.8121H83.405C83.5757 75.8121 83.661 75.9081 83.661 76.1001V91.8441C83.661 92.0361 83.5757 92.1321 83.405 92.1321H82.957C82.7863 92.1321 82.701 92.0361 82.701 91.8441V90.4681H82.573C81.9757 91.5774 80.845 92.1321 79.181 92.1321ZM95.2748 91.1721H92.9068C91.6054 91.1721 90.5601 90.7774 89.7708 89.9881C89.0028 89.1987 88.6188 88.1427 88.6188 86.8201V80.1641C88.6188 78.8414 89.0028 77.7854 89.7708 76.9961C90.5601 76.2067 91.6054 75.8121 92.9068 75.8121H99.4988C99.6694 75.8121 99.7548 75.9081 99.7548 76.1001V92.0361C99.7548 93.3587 99.3601 94.4147 98.5708 95.2041C97.8028 95.9934 96.7681 96.3881 95.4668 96.3881H89.7388C89.5468 96.3881 89.4508 96.3027 89.4508 96.1321V95.7481C89.4508 95.5774 89.5468 95.4921 89.7388 95.4921H95.4668C96.5334 95.4921 97.3548 95.1827 97.9308 94.5641C98.5068 93.9454 98.7948 93.0921 98.7948 92.0041V89.5081H98.6668C98.0694 90.6174 96.9388 91.1721 95.2748 91.1721ZM98.7948 86.9481V76.9641C98.7948 76.7934 98.6988 76.7081 98.5068 76.7081H92.9068C91.8401 76.7081 91.0188 77.0174 90.4427 77.6361C89.8668 78.2547 89.5788 79.1081 89.5788 80.1961V86.7881C89.5788 87.8761 89.8668 88.7294 90.4427 89.3481C91.0188 89.9667 91.8401 90.2761 92.9068 90.2761H95.2108C96.2774 90.2761 97.1414 89.9881 97.8028 89.4121C98.4641 88.8361 98.7948 88.0147 98.7948 86.9481ZM105.577 92.1321H105.129C104.958 92.1321 104.873 92.0361 104.873 91.8441V69.9241C104.873 69.7321 104.958 69.6361 105.129 69.6361H105.577C105.747 69.6361 105.833 69.7321 105.833 69.9241V77.4761H105.961C106.558 76.3667 107.689 75.8121 109.353 75.8121H111.72C113.022 75.8121 114.057 76.2067 114.825 76.9961C115.614 77.7854 116.009 78.8414 116.009 80.1641V91.8441C116.009 92.0361 115.923 92.1321 115.753 92.1321H115.305C115.134 92.1321 115.049 92.0361 115.049 91.8441V80.1961C115.049 79.1081 114.761 78.2547 114.185 77.6361C113.609 77.0174 112.787 76.7081 111.72 76.7081H109.417C108.35 76.7081 107.486 76.9961 106.825 77.5721C106.163 78.1481 105.833 78.9694 105.833 80.0361V91.8441C105.833 92.0361 105.747 92.1321 105.577 92.1321ZM121.766 76.7081H119.654C119.462 76.7081 119.366 76.6227 119.366 76.4521V76.0681C119.366 75.8974 119.462 75.8121 119.654 75.8121H121.766C121.958 75.8121 122.054 75.7267 122.054 75.5561V73.0601C122.054 72.8681 122.14 72.7721 122.31 72.7721H122.758C122.929 72.7721 123.014 72.8681 123.014 73.0601V75.5561C123.014 75.7267 123.11 75.8121 123.302 75.8121H127.43C127.622 75.8121 127.718 75.8974 127.718 76.0681V76.4521C127.718 76.6227 127.622 76.7081 127.43 76.7081H123.302C123.11 76.7081 123.014 76.7934 123.014 76.9641V87.8441C123.014 88.9107 123.324 89.7427 123.942 90.3401C124.582 90.9374 125.446 91.2361 126.534 91.2361H127.75C127.942 91.2361 128.038 91.3214 128.038 91.4921V91.8761C128.038 92.0467 127.942 92.1321 127.75 92.1321H126.534C125.212 92.1321 124.134 91.7481 123.302 90.9801C122.47 90.2121 122.054 89.1774 122.054 87.8761V76.9641C122.054 76.7934 121.958 76.7081 121.766 76.7081ZM27.88 130.78V129.5C27.88 129.308 27.9653 129.212 28.136 129.212H28.584C28.7547 129.212 28.84 129.308 28.84 129.5V130.748C28.84 131.836 29.128 132.689 29.704 133.308C30.28 133.927 31.1013 134.236 32.168 134.236H36.008C37.0747 134.236 37.896 133.927 38.472 133.308C39.048 132.689 39.336 131.836 39.336 130.748V129.148C39.336 128.145 38.9413 127.356 38.152 126.78C37.3627 126.183 36.4027 125.756 35.272 125.5C34.1627 125.223 33.0427 124.956 31.912 124.7C30.8027 124.423 29.8533 123.975 29.064 123.356C28.2747 122.737 27.88 121.895 27.88 120.828V118.908C27.88 117.585 28.264 116.529 29.032 115.74C29.8213 114.951 30.8667 114.556 32.168 114.556H36.008C37.3093 114.556 38.344 114.951 39.112 115.74C39.9013 116.529 40.296 117.585 40.296 118.908V119.868C40.296 120.06 40.2107 120.156 40.04 120.156H39.592C39.4213 120.156 39.336 120.06 39.336 119.868V118.94C39.336 117.852 39.048 116.999 38.472 116.38C37.896 115.761 37.0747 115.452 36.008 115.452H32.168C31.1013 115.452 30.28 115.761 29.704 116.38C29.128 116.999 28.84 117.852 28.84 118.94V120.796C28.84 122.375 30.184 123.463 32.872 124.06C34.0027 124.295 35.1227 124.561 36.232 124.86C37.3627 125.137 38.3227 125.628 39.112 126.332C39.9013 127.015 40.296 127.932 40.296 129.084V130.78C40.296 132.103 39.9013 133.159 39.112 133.948C38.344 134.737 37.3093 135.132 36.008 135.132H32.168C30.8667 135.132 29.8213 134.737 29.032 133.948C28.264 133.159 27.88 132.103 27.88 130.78ZM46.5475 119.708H44.4355C44.2435 119.708 44.1475 119.623 44.1475 119.452V119.068C44.1475 118.897 44.2435 118.812 44.4355 118.812H46.5475C46.7395 118.812 46.8355 118.727 46.8355 118.556V116.06C46.8355 115.868 46.9208 115.772 47.0915 115.772H47.5395C47.7102 115.772 47.7955 115.868 47.7955 116.06V118.556C47.7955 118.727 47.8915 118.812 48.0835 118.812H52.2115C52.4035 118.812 52.4995 118.897 52.4995 119.068V119.452C52.4995 119.623 52.4035 119.708 52.2115 119.708H48.0835C47.8915 119.708 47.7955 119.793 47.7955 119.964V130.844C47.7955 131.911 48.1048 132.743 48.7235 133.34C49.3635 133.937 50.2275 134.236 51.3155 134.236H52.5315C52.7235 134.236 52.8195 134.321 52.8195 134.492V134.876C52.8195 135.047 52.7235 135.132 52.5315 135.132H51.3155C49.9928 135.132 48.9155 134.748 48.0835 133.98C47.2515 133.212 46.8355 132.177 46.8355 130.876V119.964C46.8355 119.793 46.7395 119.708 46.5475 119.708ZM63.498 135.132H60.778C59.4767 135.132 58.4313 134.737 57.642 133.948C56.874 133.159 56.49 132.103 56.49 130.78V123.164C56.49 121.841 56.874 120.785 57.642 119.996C58.4313 119.207 59.4767 118.812 60.778 118.812H63.498C64.7993 118.812 65.834 119.207 66.602 119.996C67.3913 120.785 67.786 121.841 67.786 123.164V130.78C67.786 132.103 67.3913 133.159 66.602 133.948C65.834 134.737 64.7993 135.132 63.498 135.132ZM60.778 134.236H63.498C64.5647 134.236 65.386 133.927 65.962 133.308C66.538 132.689 66.826 131.836 66.826 130.748V123.196C66.826 122.108 66.538 121.255 65.962 120.636C65.386 120.017 64.5647 119.708 63.498 119.708H60.778C59.7113 119.708 58.89 120.017 58.314 120.636C57.738 121.255 57.45 122.108 57.45 123.196V130.748C57.45 131.836 57.738 132.689 58.314 133.308C58.89 133.927 59.7113 134.236 60.778 134.236ZM73.2953 135.132H72.8473C72.6766 135.132 72.5913 135.036 72.5913 134.844V119.1C72.5913 118.908 72.6766 118.812 72.8473 118.812H73.2953C73.4659 118.812 73.5513 118.908 73.5513 119.1V120.54H73.6793C73.9139 120.113 74.3193 119.719 74.8953 119.356C75.4926 118.993 76.2606 118.812 77.1993 118.812H78.4792C78.6713 118.812 78.7673 118.897 78.7673 119.068V119.452C78.7673 119.623 78.6713 119.708 78.4792 119.708H77.1673C76.0793 119.708 75.2046 120.049 74.5433 120.732C73.8819 121.415 73.5513 122.343 73.5513 123.516V134.844C73.5513 135.036 73.4659 135.132 73.2953 135.132ZM81.6068 139.836C81.4148 139.836 81.3188 139.751 81.3188 139.58V139.196C81.3188 139.025 81.4148 138.94 81.6068 138.94H82.5348C83.3881 138.94 83.9854 138.78 84.3268 138.46C84.6894 138.161 84.9561 137.937 85.1268 137.788C85.2974 137.66 85.4788 137.383 85.6708 136.956C85.8841 136.551 86.0228 136.284 86.0868 136.156C86.4708 135.303 86.7161 134.673 86.8228 134.268H86.5028C86.3321 134.268 86.2148 134.172 86.1508 133.98L80.7108 119.1C80.6468 118.908 80.7108 118.812 80.9028 118.812H81.4148C81.5641 118.812 81.6708 118.908 81.7348 119.1L86.9508 133.34H87.0788L92.2948 119.1C92.3588 118.908 92.4654 118.812 92.6148 118.812H93.1268C93.3188 118.812 93.3828 118.908 93.3188 119.1L87.8788 133.98C87.2174 135.879 86.7161 137.105 86.3748 137.66C85.4574 139.089 84.1774 139.815 82.5348 139.836H81.6068Z" fill="white"/>
</svg>
