<svg width="540" height="214" viewBox="0 0 540 214" fill="none" xmlns="http://www.w3.org/2000/svg">
<g filter="url(#filter0_d_292_185)">
<rect x="4" width="532" height="162" rx="10" fill="#1A1919"/>
</g>
<path d="M35.848 49.1321H35.4C35.2293 49.1321 35.144 49.0361 35.144 48.8441V29.7081C35.144 29.5374 35.048 29.4521 34.856 29.4521H29.928C29.736 29.4521 29.64 29.3667 29.64 29.1961V28.8121C29.64 28.6414 29.736 28.5561 29.928 28.5561H41.32C41.512 28.5561 41.608 28.6414 41.608 28.8121V29.1961C41.608 29.3667 41.512 29.4521 41.32 29.4521H36.392C36.2 29.4521 36.104 29.5374 36.104 29.7081V48.8441C36.104 49.0361 36.0187 49.1321 35.848 49.1321ZM45.514 49.1321H45.066C44.8953 49.1321 44.81 49.0361 44.81 48.8441V33.1001C44.81 32.9081 44.8953 32.8121 45.066 32.8121H45.514C45.6847 32.8121 45.77 32.9081 45.77 33.1001V34.5401H45.898C46.1327 34.1134 46.538 33.7187 47.114 33.3561C47.7113 32.9934 48.4793 32.8121 49.418 32.8121H50.698C50.89 32.8121 50.986 32.8974 50.986 33.0681V33.4521C50.986 33.6227 50.89 33.7081 50.698 33.7081H49.386C48.298 33.7081 47.4233 34.0494 46.762 34.7321C46.1007 35.4147 45.77 36.3427 45.77 37.5161V48.8441C45.77 49.0361 45.6847 49.1321 45.514 49.1321ZM60.8335 49.1321H58.4655C57.1642 49.1321 56.1188 48.7374 55.3295 47.9481C54.5615 47.1587 54.1775 46.1027 54.1775 44.7801V37.1641C54.1775 35.8414 54.5615 34.7854 55.3295 33.9961C56.1188 33.2067 57.1642 32.8121 58.4655 32.8121H65.0575C65.2282 32.8121 65.3135 32.9081 65.3135 33.1001V48.8441C65.3135 49.0361 65.2282 49.1321 65.0575 49.1321H64.6095C64.4388 49.1321 64.3535 49.0361 64.3535 48.8441V47.4681H64.2255C63.6282 48.5774 62.4975 49.1321 60.8335 49.1321ZM64.3535 44.9081V33.9641C64.3535 33.7934 64.2575 33.7081 64.0655 33.7081H58.4655C57.3988 33.7081 56.5775 34.0174 56.0015 34.6361C55.4255 35.2547 55.1375 36.1081 55.1375 37.1961V44.7481C55.1375 45.8361 55.4255 46.6894 56.0015 47.3081C56.5775 47.9267 57.3988 48.2361 58.4655 48.2361H60.7695C61.8362 48.2361 62.7002 47.9481 63.3615 47.3721C64.0228 46.7961 64.3535 45.9747 64.3535 44.9081ZM71.139 49.1321H70.691C70.5203 49.1321 70.435 49.0361 70.435 48.8441V33.1001C70.435 32.9081 70.5203 32.8121 70.691 32.8121H71.139C71.3097 32.8121 71.395 32.9081 71.395 33.1001V34.4761H71.523C72.1203 33.3667 73.251 32.8121 74.915 32.8121H77.283C78.5843 32.8121 79.619 33.2067 80.387 33.9961C81.1763 34.7854 81.571 35.8414 81.571 37.1641V48.8441C81.571 49.0361 81.4857 49.1321 81.315 49.1321H80.867C80.6963 49.1321 80.611 49.0361 80.611 48.8441V37.1961C80.611 36.1081 80.323 35.2547 79.747 34.6361C79.171 34.0174 78.3497 33.7081 77.283 33.7081H74.979C73.9123 33.7081 73.0483 33.9961 72.387 34.5721C71.7257 35.1481 71.395 35.9694 71.395 37.0361V48.8441C71.395 49.0361 71.3097 49.1321 71.139 49.1321ZM91.5848 49.1321H86.1448C85.9528 49.1321 85.8568 49.0467 85.8568 48.8761V48.4921C85.8568 48.3214 85.9528 48.2361 86.1448 48.2361H91.5848C93.7394 48.2361 94.8168 47.3827 94.8168 45.6761V44.7161C94.8168 43.9267 94.6781 43.2867 94.4008 42.7961C94.1234 42.3054 93.6221 41.9321 92.8968 41.6761L88.6727 40.2041C87.5634 39.8201 86.7848 39.3507 86.3368 38.7961C85.9101 38.2201 85.6968 37.4201 85.6968 36.3961C85.6968 34.0067 86.9981 32.8121 89.6008 32.8121H94.7528C94.9448 32.8121 95.0408 32.8974 95.0408 33.0681V33.4521C95.0408 33.6227 94.9448 33.7081 94.7528 33.7081H89.6008C88.6194 33.7081 87.8834 33.9321 87.3928 34.3801C86.9234 34.8281 86.6888 35.3401 86.6888 35.9161V36.7801C86.6888 37.4627 86.8594 37.9961 87.2008 38.3801C87.5634 38.7427 88.1181 39.0521 88.8648 39.3081L93.0568 40.8121C94.1874 41.1321 94.9234 41.6547 95.2648 42.3801C95.6061 43.1054 95.7768 44.1187 95.7768 45.4201C95.7768 46.7214 95.4354 47.6707 94.7528 48.2681C94.0701 48.8441 93.0141 49.1321 91.5848 49.1321ZM101.112 49.1321H100.664C100.493 49.1321 100.408 49.0361 100.408 48.8441V26.9241C100.408 26.7321 100.493 26.6361 100.664 26.6361H101.112C101.282 26.6361 101.368 26.7321 101.368 26.9241V48.8441C101.368 49.0361 101.282 49.1321 101.112 49.1321ZM112.99 49.1321H110.622C109.32 49.1321 108.275 48.7374 107.486 47.9481C106.718 47.1587 106.334 46.1027 106.334 44.7801V37.1641C106.334 35.8414 106.718 34.7854 107.486 33.9961C108.275 33.2067 109.32 32.8121 110.622 32.8121H117.214C117.384 32.8121 117.47 32.9081 117.47 33.1001V48.8441C117.47 49.0361 117.384 49.1321 117.214 49.1321H116.766C116.595 49.1321 116.51 49.0361 116.51 48.8441V47.4681H116.382C115.784 48.5774 114.654 49.1321 112.99 49.1321ZM116.51 44.9081V33.9641C116.51 33.7934 116.414 33.7081 116.222 33.7081H110.622C109.555 33.7081 108.734 34.0174 108.158 34.6361C107.582 35.2547 107.294 36.1081 107.294 37.1961V44.7481C107.294 45.8361 107.582 46.6894 108.158 47.3081C108.734 47.9267 109.555 48.2361 110.622 48.2361H112.926C113.992 48.2361 114.856 47.9481 115.518 47.3721C116.179 46.7961 116.51 45.9747 116.51 44.9081ZM123.391 33.7081H121.279C121.087 33.7081 120.991 33.6227 120.991 33.4521V33.0681C120.991 32.8974 121.087 32.8121 121.279 32.8121H123.391C123.583 32.8121 123.679 32.7267 123.679 32.5561V30.0601C123.679 29.8681 123.765 29.7721 123.935 29.7721H124.383C124.554 29.7721 124.639 29.8681 124.639 30.0601V32.5561C124.639 32.7267 124.735 32.8121 124.927 32.8121H129.055C129.247 32.8121 129.343 32.8974 129.343 33.0681V33.4521C129.343 33.6227 129.247 33.7081 129.055 33.7081H124.927C124.735 33.7081 124.639 33.7934 124.639 33.9641V44.8441C124.639 45.9107 124.949 46.7427 125.567 47.3401C126.207 47.9374 127.071 48.2361 128.159 48.2361H129.375C129.567 48.2361 129.663 48.3214 129.663 48.4921V48.8761C129.663 49.0467 129.567 49.1321 129.375 49.1321H128.159C126.837 49.1321 125.759 48.7481 124.927 47.9801C124.095 47.2121 123.679 46.1774 123.679 44.8761V33.9641C123.679 33.7934 123.583 33.7081 123.391 33.7081ZM133.814 30.1561V26.9881C133.814 26.7961 133.899 26.7001 134.07 26.7001H134.518C134.688 26.7001 134.774 26.7961 134.774 26.9881V30.1561C134.774 30.3481 134.688 30.4441 134.518 30.4441H134.07C133.899 30.4441 133.814 30.3481 133.814 30.1561ZM133.814 48.8441V33.1001C133.814 32.9081 133.899 32.8121 134.07 32.8121H134.518C134.688 32.8121 134.774 32.9081 134.774 33.1001V48.8441C134.774 49.0361 134.688 49.1321 134.518 49.1321H134.07C133.899 49.1321 133.814 49.0361 133.814 48.8441ZM146.748 49.1321H144.028C142.727 49.1321 141.681 48.7374 140.892 47.9481C140.124 47.1587 139.74 46.1027 139.74 44.7801V37.1641C139.74 35.8414 140.124 34.7854 140.892 33.9961C141.681 33.2067 142.727 32.8121 144.028 32.8121H146.748C148.049 32.8121 149.084 33.2067 149.852 33.9961C150.641 34.7854 151.036 35.8414 151.036 37.1641V44.7801C151.036 46.1027 150.641 47.1587 149.852 47.9481C149.084 48.7374 148.049 49.1321 146.748 49.1321ZM144.028 48.2361H146.748C147.815 48.2361 148.636 47.9267 149.212 47.3081C149.788 46.6894 150.076 45.8361 150.076 44.7481V37.1961C150.076 36.1081 149.788 35.2547 149.212 34.6361C148.636 34.0174 147.815 33.7081 146.748 33.7081H144.028C142.961 33.7081 142.14 34.0174 141.564 34.6361C140.988 35.2547 140.7 36.1081 140.7 37.1961V44.7481C140.7 45.8361 140.988 46.6894 141.564 47.3081C142.14 47.9267 142.961 48.2361 144.028 48.2361ZM156.545 49.1321H156.097C155.927 49.1321 155.841 49.0361 155.841 48.8441V33.1001C155.841 32.9081 155.927 32.8121 156.097 32.8121H156.545C156.716 32.8121 156.801 32.9081 156.801 33.1001V34.4761H156.929C157.527 33.3667 158.657 32.8121 160.321 32.8121H162.689C163.991 32.8121 165.025 33.2067 165.793 33.9961C166.583 34.7854 166.977 35.8414 166.977 37.1641V48.8441C166.977 49.0361 166.892 49.1321 166.721 49.1321H166.273C166.103 49.1321 166.017 49.0361 166.017 48.8441V37.1961C166.017 36.1081 165.729 35.2547 165.153 34.6361C164.577 34.0174 163.756 33.7081 162.689 33.7081H160.385C159.319 33.7081 158.455 33.9961 157.793 34.5721C157.132 35.1481 156.801 35.9694 156.801 37.0361V48.8441C156.801 49.0361 156.716 49.1321 156.545 49.1321ZM35.848 92.1321H35.4C35.2293 92.1321 35.144 92.0361 35.144 91.8441V72.7081C35.144 72.5374 35.048 72.4521 34.856 72.4521H29.928C29.736 72.4521 29.64 72.3667 29.64 72.1961V71.8121C29.64 71.6414 29.736 71.5561 29.928 71.5561H41.32C41.512 71.5561 41.608 71.6414 41.608 71.8121V72.1961C41.608 72.3667 41.512 72.4521 41.32 72.4521H36.392C36.2 72.4521 36.104 72.5374 36.104 72.7081V91.8441C36.104 92.0361 36.0187 92.1321 35.848 92.1321ZM45.514 92.1321H45.066C44.8953 92.1321 44.81 92.0361 44.81 91.8441V69.9241C44.81 69.7321 44.8953 69.6361 45.066 69.6361H45.514C45.6847 69.6361 45.77 69.7321 45.77 69.9241V77.4761H45.898C46.4953 76.3667 47.626 75.8121 49.29 75.8121H51.658C52.9593 75.8121 53.994 76.2067 54.762 76.9961C55.5513 77.7854 55.946 78.8414 55.946 80.1641V91.8441C55.946 92.0361 55.8607 92.1321 55.69 92.1321H55.242C55.0713 92.1321 54.986 92.0361 54.986 91.8441V80.1961C54.986 79.1081 54.698 78.2547 54.122 77.6361C53.546 77.0174 52.7247 76.7081 51.658 76.7081H49.354C48.2873 76.7081 47.4233 76.9961 46.762 77.5721C46.1007 78.1481 45.77 78.9694 45.77 80.0361V91.8441C45.77 92.0361 45.6847 92.1321 45.514 92.1321ZM67.5918 92.1321H64.8718C63.5704 92.1321 62.5251 91.7374 61.7358 90.9481C60.9678 90.1587 60.5838 89.1027 60.5838 87.7801V80.1641C60.5838 78.8414 60.9678 77.7854 61.7358 76.9961C62.5251 76.2067 63.5704 75.8121 64.8718 75.8121H67.5918C68.8931 75.8121 69.9278 76.2067 70.6958 76.9961C71.4851 77.7854 71.8798 78.8414 71.8798 80.1641V87.7801C71.8798 89.1027 71.4851 90.1587 70.6958 90.9481C69.9278 91.7374 68.8931 92.1321 67.5918 92.1321ZM64.8718 91.2361H67.5918C68.6584 91.2361 69.4798 90.9267 70.0558 90.3081C70.6318 89.6894 70.9198 88.8361 70.9198 87.7481V80.1961C70.9198 79.1081 70.6318 78.2547 70.0558 77.6361C69.4798 77.0174 68.6584 76.7081 67.5918 76.7081H64.8718C63.8051 76.7081 62.9838 77.0174 62.4078 77.6361C61.8318 78.2547 61.5438 79.1081 61.5438 80.1961V87.7481C61.5438 88.8361 61.8318 89.6894 62.4078 90.3081C62.9838 90.9267 63.8051 91.2361 64.8718 91.2361ZM83.181 92.1321H80.813C79.5117 92.1321 78.4663 91.7374 77.677 90.9481C76.909 90.1587 76.525 89.1027 76.525 87.7801V76.1001C76.525 75.9081 76.6103 75.8121 76.781 75.8121H77.229C77.3997 75.8121 77.485 75.9081 77.485 76.1001V87.7481C77.485 88.8361 77.773 89.6894 78.349 90.3081C78.925 90.9267 79.7463 91.2361 80.813 91.2361H83.117C84.1837 91.2361 85.0477 90.9481 85.709 90.3721C86.3703 89.7961 86.701 88.9747 86.701 87.9081V76.1001C86.701 75.9081 86.7863 75.8121 86.957 75.8121H87.405C87.5757 75.8121 87.661 75.9081 87.661 76.1001V91.8441C87.661 92.0361 87.5757 92.1321 87.405 92.1321H86.957C86.7863 92.1321 86.701 92.0361 86.701 91.8441V90.4681H86.573C85.9757 91.5774 84.845 92.1321 83.181 92.1321ZM99.2748 91.1721H96.9068C95.6054 91.1721 94.5601 90.7774 93.7708 89.9881C93.0028 89.1987 92.6188 88.1427 92.6188 86.8201V80.1641C92.6188 78.8414 93.0028 77.7854 93.7708 76.9961C94.5601 76.2067 95.6054 75.8121 96.9068 75.8121H103.499C103.669 75.8121 103.755 75.9081 103.755 76.1001V92.0361C103.755 93.3587 103.36 94.4147 102.571 95.2041C101.803 95.9934 100.768 96.3881 99.4668 96.3881H93.7388C93.5468 96.3881 93.4508 96.3027 93.4508 96.1321V95.7481C93.4508 95.5774 93.5468 95.4921 93.7388 95.4921H99.4668C100.533 95.4921 101.355 95.1827 101.931 94.5641C102.507 93.9454 102.795 93.0921 102.795 92.0041V89.5081H102.667C102.069 90.6174 100.939 91.1721 99.2748 91.1721ZM102.795 86.9481V76.9641C102.795 76.7934 102.699 76.7081 102.507 76.7081H96.9068C95.8401 76.7081 95.0188 77.0174 94.4427 77.6361C93.8668 78.2547 93.5788 79.1081 93.5788 80.1961V86.7881C93.5788 87.8761 93.8668 88.7294 94.4427 89.3481C95.0188 89.9667 95.8401 90.2761 96.9068 90.2761H99.2108C100.277 90.2761 101.141 89.9881 101.803 89.4121C102.464 88.8361 102.795 88.0147 102.795 86.9481ZM109.577 92.1321H109.129C108.958 92.1321 108.873 92.0361 108.873 91.8441V69.9241C108.873 69.7321 108.958 69.6361 109.129 69.6361H109.577C109.747 69.6361 109.833 69.7321 109.833 69.9241V77.4761H109.961C110.558 76.3667 111.689 75.8121 113.353 75.8121H115.72C117.022 75.8121 118.057 76.2067 118.825 76.9961C119.614 77.7854 120.009 78.8414 120.009 80.1641V91.8441C120.009 92.0361 119.923 92.1321 119.753 92.1321H119.305C119.134 92.1321 119.049 92.0361 119.049 91.8441V80.1961C119.049 79.1081 118.761 78.2547 118.185 77.6361C117.609 77.0174 116.787 76.7081 115.72 76.7081H113.417C112.35 76.7081 111.486 76.9961 110.825 77.5721C110.163 78.1481 109.833 78.9694 109.833 80.0361V91.8441C109.833 92.0361 109.747 92.1321 109.577 92.1321ZM125.766 76.7081H123.654C123.462 76.7081 123.366 76.6227 123.366 76.4521V76.0681C123.366 75.8974 123.462 75.8121 123.654 75.8121H125.766C125.958 75.8121 126.054 75.7267 126.054 75.5561V73.0601C126.054 72.8681 126.14 72.7721 126.31 72.7721H126.758C126.929 72.7721 127.014 72.8681 127.014 73.0601V75.5561C127.014 75.7267 127.11 75.8121 127.302 75.8121H131.43C131.622 75.8121 131.718 75.8974 131.718 76.0681V76.4521C131.718 76.6227 131.622 76.7081 131.43 76.7081H127.302C127.11 76.7081 127.014 76.7934 127.014 76.9641V87.8441C127.014 88.9107 127.324 89.7427 127.942 90.3401C128.582 90.9374 129.446 91.2361 130.534 91.2361H131.75C131.942 91.2361 132.038 91.3214 132.038 91.4921V91.8761C132.038 92.0467 131.942 92.1321 131.75 92.1321H130.534C129.212 92.1321 128.134 91.7481 127.302 90.9801C126.47 90.2121 126.054 89.1774 126.054 87.8761V76.9641C126.054 76.7934 125.958 76.7081 125.766 76.7081ZM31.88 130.78V129.5C31.88 129.308 31.9653 129.212 32.136 129.212H32.584C32.7547 129.212 32.84 129.308 32.84 129.5V130.748C32.84 131.836 33.128 132.689 33.704 133.308C34.28 133.927 35.1013 134.236 36.168 134.236H40.008C41.0747 134.236 41.896 133.927 42.472 133.308C43.048 132.689 43.336 131.836 43.336 130.748V129.148C43.336 128.145 42.9413 127.356 42.152 126.78C41.3627 126.183 40.4027 125.756 39.272 125.5C38.1627 125.223 37.0427 124.956 35.912 124.7C34.8027 124.423 33.8533 123.975 33.064 123.356C32.2747 122.737 31.88 121.895 31.88 120.828V118.908C31.88 117.585 32.264 116.529 33.032 115.74C33.8213 114.951 34.8667 114.556 36.168 114.556H40.008C41.3093 114.556 42.344 114.951 43.112 115.74C43.9013 116.529 44.296 117.585 44.296 118.908V119.868C44.296 120.06 44.2107 120.156 44.04 120.156H43.592C43.4213 120.156 43.336 120.06 43.336 119.868V118.94C43.336 117.852 43.048 116.999 42.472 116.38C41.896 115.761 41.0747 115.452 40.008 115.452H36.168C35.1013 115.452 34.28 115.761 33.704 116.38C33.128 116.999 32.84 117.852 32.84 118.94V120.796C32.84 122.375 34.184 123.463 36.872 124.06C38.0027 124.295 39.1227 124.561 40.232 124.86C41.3627 125.137 42.3227 125.628 43.112 126.332C43.9013 127.015 44.296 127.932 44.296 129.084V130.78C44.296 132.103 43.9013 133.159 43.112 133.948C42.344 134.737 41.3093 135.132 40.008 135.132H36.168C34.8667 135.132 33.8213 134.737 33.032 133.948C32.264 133.159 31.88 132.103 31.88 130.78ZM50.5475 119.708H48.4355C48.2435 119.708 48.1475 119.623 48.1475 119.452V119.068C48.1475 118.897 48.2435 118.812 48.4355 118.812H50.5475C50.7395 118.812 50.8355 118.727 50.8355 118.556V116.06C50.8355 115.868 50.9208 115.772 51.0915 115.772H51.5395C51.7102 115.772 51.7955 115.868 51.7955 116.06V118.556C51.7955 118.727 51.8915 118.812 52.0835 118.812H56.2115C56.4035 118.812 56.4995 118.897 56.4995 119.068V119.452C56.4995 119.623 56.4035 119.708 56.2115 119.708H52.0835C51.8915 119.708 51.7955 119.793 51.7955 119.964V130.844C51.7955 131.911 52.1048 132.743 52.7235 133.34C53.3635 133.937 54.2275 134.236 55.3155 134.236H56.5315C56.7235 134.236 56.8195 134.321 56.8195 134.492V134.876C56.8195 135.047 56.7235 135.132 56.5315 135.132H55.3155C53.9928 135.132 52.9155 134.748 52.0835 133.98C51.2515 133.212 50.8355 132.177 50.8355 130.876V119.964C50.8355 119.793 50.7395 119.708 50.5475 119.708ZM67.498 135.132H64.778C63.4767 135.132 62.4313 134.737 61.642 133.948C60.874 133.159 60.49 132.103 60.49 130.78V123.164C60.49 121.841 60.874 120.785 61.642 119.996C62.4313 119.207 63.4767 118.812 64.778 118.812H67.498C68.7993 118.812 69.834 119.207 70.602 119.996C71.3913 120.785 71.786 121.841 71.786 123.164V130.78C71.786 132.103 71.3913 133.159 70.602 133.948C69.834 134.737 68.7993 135.132 67.498 135.132ZM64.778 134.236H67.498C68.5647 134.236 69.386 133.927 69.962 133.308C70.538 132.689 70.826 131.836 70.826 130.748V123.196C70.826 122.108 70.538 121.255 69.962 120.636C69.386 120.017 68.5647 119.708 67.498 119.708H64.778C63.7113 119.708 62.89 120.017 62.314 120.636C61.738 121.255 61.45 122.108 61.45 123.196V130.748C61.45 131.836 61.738 132.689 62.314 133.308C62.89 133.927 63.7113 134.236 64.778 134.236ZM77.2953 135.132H76.8473C76.6766 135.132 76.5913 135.036 76.5913 134.844V119.1C76.5913 118.908 76.6766 118.812 76.8473 118.812H77.2953C77.4659 118.812 77.5513 118.908 77.5513 119.1V120.54H77.6793C77.9139 120.113 78.3193 119.719 78.8953 119.356C79.4926 118.993 80.2606 118.812 81.1993 118.812H82.4792C82.6713 118.812 82.7673 118.897 82.7673 119.068V119.452C82.7673 119.623 82.6713 119.708 82.4792 119.708H81.1673C80.0793 119.708 79.2046 120.049 78.5433 120.732C77.8819 121.415 77.5513 122.343 77.5513 123.516V134.844C77.5513 135.036 77.4659 135.132 77.2953 135.132ZM85.6068 139.836C85.4148 139.836 85.3188 139.751 85.3188 139.58V139.196C85.3188 139.025 85.4148 138.94 85.6068 138.94H86.5348C87.3881 138.94 87.9854 138.78 88.3268 138.46C88.6894 138.161 88.9561 137.937 89.1268 137.788C89.2974 137.66 89.4788 137.383 89.6708 136.956C89.8841 136.551 90.0228 136.284 90.0868 136.156C90.4708 135.303 90.7161 134.673 90.8228 134.268H90.5028C90.3321 134.268 90.2148 134.172 90.1508 133.98L84.7108 119.1C84.6468 118.908 84.7108 118.812 84.9028 118.812H85.4148C85.5641 118.812 85.6708 118.908 85.7348 119.1L90.9508 133.34H91.0788L96.2948 119.1C96.3588 118.908 96.4654 118.812 96.6148 118.812H97.1268C97.3188 118.812 97.3828 118.908 97.3188 119.1L91.8788 133.98C91.2174 135.879 90.7161 137.105 90.3748 137.66C89.4574 139.089 88.1774 139.815 86.5348 139.836H85.6068Z" fill="white"/>
<defs>
<filter id="filter0_d_292_185" x="0" y="0" width="540" height="170" filterUnits="userSpaceOnUse" color-interpolation-filters="sRGB">
<feFlood flood-opacity="0" result="BackgroundImageFix"/>
<feColorMatrix in="SourceAlpha" type="matrix" values="0 0 0 0 0 0 0 0 0 0 0 0 0 0 0 0 0 0 127 0" result="hardAlpha"/>
<feOffset dy="4"/>
<feGaussianBlur stdDeviation="2"/>
<feComposite in2="hardAlpha" operator="out"/>
<feColorMatrix type="matrix" values="0 0 0 0 0 0 0 0 0 0 0 0 0 0 0 0 0 0 0.25 0"/>
<feBlend mode="normal" in2="BackgroundImageFix" result="effect1_dropShadow_292_185"/>
<feBlend mode="normal" in="SourceGraphic" in2="effect1_dropShadow_292_185" result="shape"/>
</filter>
</defs>
</svg>
