<svg width="445" height="79" viewBox="0 0 445 79" fill="none" xmlns="http://www.w3.org/2000/svg">
<g filter="url(#filter0_d_145_1271)">
<rect x="4" width="437" height="71" rx="10" fill="#1A1919"/>
</g>
<path d="M30.848 47H30.4C30.2293 47 30.144 46.904 30.144 46.712V27.576C30.144 27.4053 30.048 27.32 29.856 27.32H24.928C24.736 27.32 24.64 27.2347 24.64 27.064V26.68C24.64 26.5093 24.736 26.424 24.928 26.424H36.32C36.512 26.424 36.608 26.5093 36.608 26.68V27.064C36.608 27.2347 36.512 27.32 36.32 27.32H31.392C31.2 27.32 31.104 27.4053 31.104 27.576V46.712C31.104 46.904 31.0187 47 30.848 47ZM40.514 47H40.066C39.8953 47 39.81 46.904 39.81 46.712V24.792C39.81 24.6 39.8953 24.504 40.066 24.504H40.514C40.6847 24.504 40.77 24.6 40.77 24.792V32.344H40.898C41.4953 31.2347 42.626 30.68 44.29 30.68H46.658C47.9593 30.68 48.994 31.0747 49.762 31.864C50.5513 32.6533 50.946 33.7093 50.946 35.032V46.712C50.946 46.904 50.8607 47 50.69 47H50.242C50.0713 47 49.986 46.904 49.986 46.712V35.064C49.986 33.976 49.698 33.1227 49.122 32.504C48.546 31.8853 47.7247 31.576 46.658 31.576H44.354C43.2873 31.576 42.4233 31.864 41.762 32.44C41.1007 33.016 40.77 33.8373 40.77 34.904V46.712C40.77 46.904 40.6847 47 40.514 47ZM62.5918 47H59.8718C58.5704 47 57.5251 46.6053 56.7358 45.816C55.9678 45.0267 55.5838 43.9707 55.5838 42.648V35.032C55.5838 33.7093 55.9678 32.6533 56.7358 31.864C57.5251 31.0747 58.5704 30.68 59.8718 30.68H62.5918C63.8931 30.68 64.9278 31.0747 65.6958 31.864C66.4851 32.6533 66.8798 33.7093 66.8798 35.032V42.648C66.8798 43.9707 66.4851 45.0267 65.6958 45.816C64.9278 46.6053 63.8931 47 62.5918 47ZM59.8718 46.104H62.5918C63.6584 46.104 64.4798 45.7947 65.0558 45.176C65.6318 44.5573 65.9198 43.704 65.9198 42.616V35.064C65.9198 33.976 65.6318 33.1227 65.0558 32.504C64.4798 31.8853 63.6584 31.576 62.5918 31.576H59.8718C58.8051 31.576 57.9838 31.8853 57.4078 32.504C56.8318 33.1227 56.5438 33.976 56.5438 35.064V42.616C56.5438 43.704 56.8318 44.5573 57.4078 45.176C57.9838 45.7947 58.8051 46.104 59.8718 46.104ZM78.181 47H75.813C74.5117 47 73.4663 46.6053 72.677 45.816C71.909 45.0267 71.525 43.9707 71.525 42.648V30.968C71.525 30.776 71.6103 30.68 71.781 30.68H72.229C72.3997 30.68 72.485 30.776 72.485 30.968V42.616C72.485 43.704 72.773 44.5573 73.349 45.176C73.925 45.7947 74.7463 46.104 75.813 46.104H78.117C79.1837 46.104 80.0477 45.816 80.709 45.24C81.3703 44.664 81.701 43.8427 81.701 42.776V30.968C81.701 30.776 81.7863 30.68 81.957 30.68H82.405C82.5757 30.68 82.661 30.776 82.661 30.968V46.712C82.661 46.904 82.5757 47 82.405 47H81.957C81.7863 47 81.701 46.904 81.701 46.712V45.336H81.573C80.9757 46.4453 79.845 47 78.181 47ZM94.2748 46.04H91.9068C90.6054 46.04 89.5601 45.6453 88.7708 44.856C88.0028 44.0667 87.6188 43.0107 87.6188 41.688V35.032C87.6188 33.7093 88.0028 32.6533 88.7708 31.864C89.5601 31.0747 90.6054 30.68 91.9068 30.68H98.4988C98.6694 30.68 98.7548 30.776 98.7548 30.968V46.904C98.7548 48.2267 98.3601 49.2827 97.5708 50.072C96.8028 50.8613 95.7681 51.256 94.4668 51.256H88.7388C88.5468 51.256 88.4508 51.1707 88.4508 51V50.616C88.4508 50.4453 88.5468 50.36 88.7388 50.36H94.4668C95.5334 50.36 96.3548 50.0507 96.9308 49.432C97.5068 48.8133 97.7948 47.96 97.7948 46.872V44.376H97.6668C97.0694 45.4853 95.9388 46.04 94.2748 46.04ZM97.7948 41.816V31.832C97.7948 31.6613 97.6988 31.576 97.5068 31.576H91.9068C90.8401 31.576 90.0188 31.8853 89.4427 32.504C88.8668 33.1227 88.5788 33.976 88.5788 35.064V41.656C88.5788 42.744 88.8668 43.5973 89.4427 44.216C90.0188 44.8347 90.8401 45.144 91.9068 45.144H94.2108C95.2774 45.144 96.1414 44.856 96.8028 44.28C97.4641 43.704 97.7948 42.8827 97.7948 41.816ZM104.577 47H104.129C103.958 47 103.873 46.904 103.873 46.712V24.792C103.873 24.6 103.958 24.504 104.129 24.504H104.577C104.747 24.504 104.833 24.6 104.833 24.792V32.344H104.961C105.558 31.2347 106.689 30.68 108.353 30.68H110.72C112.022 30.68 113.057 31.0747 113.825 31.864C114.614 32.6533 115.009 33.7093 115.009 35.032V46.712C115.009 46.904 114.923 47 114.753 47H114.305C114.134 47 114.049 46.904 114.049 46.712V35.064C114.049 33.976 113.761 33.1227 113.185 32.504C112.609 31.8853 111.787 31.576 110.72 31.576H108.417C107.35 31.576 106.486 31.864 105.825 32.44C105.163 33.016 104.833 33.8373 104.833 34.904V46.712C104.833 46.904 104.747 47 104.577 47ZM120.766 31.576H118.654C118.462 31.576 118.366 31.4907 118.366 31.32V30.936C118.366 30.7653 118.462 30.68 118.654 30.68H120.766C120.958 30.68 121.054 30.5947 121.054 30.424V27.928C121.054 27.736 121.14 27.64 121.31 27.64H121.758C121.929 27.64 122.014 27.736 122.014 27.928V30.424C122.014 30.5947 122.11 30.68 122.302 30.68H126.43C126.622 30.68 126.718 30.7653 126.718 30.936V31.32C126.718 31.4907 126.622 31.576 126.43 31.576H122.302C122.11 31.576 122.014 31.6613 122.014 31.832V42.712C122.014 43.7787 122.324 44.6107 122.942 45.208C123.582 45.8053 124.446 46.104 125.534 46.104H126.75C126.942 46.104 127.038 46.1893 127.038 46.36V46.744C127.038 46.9147 126.942 47 126.75 47H125.534C124.212 47 123.134 46.616 122.302 45.848C121.47 45.08 121.054 44.0453 121.054 42.744V31.832C121.054 31.6613 120.958 31.576 120.766 31.576ZM136.085 47H130.645C130.453 47 130.357 46.9147 130.357 46.744V46.36C130.357 46.1893 130.453 46.104 130.645 46.104H136.085C138.239 46.104 139.317 45.2507 139.317 43.544V42.584C139.317 41.7947 139.178 41.1547 138.901 40.664C138.623 40.1733 138.122 39.8 137.397 39.544L133.173 38.072C132.063 37.688 131.285 37.2187 130.837 36.664C130.41 36.088 130.197 35.288 130.197 34.264C130.197 31.8747 131.498 30.68 134.101 30.68H139.253C139.445 30.68 139.541 30.7653 139.541 30.936V31.32C139.541 31.4907 139.445 31.576 139.253 31.576H134.101C133.119 31.576 132.383 31.8 131.893 32.248C131.423 32.696 131.189 33.208 131.189 33.784V34.648C131.189 35.3307 131.359 35.864 131.701 36.248C132.063 36.6107 132.618 36.92 133.365 37.176L137.557 38.68C138.687 39 139.423 39.5227 139.765 40.248C140.106 40.9733 140.277 41.9867 140.277 43.288C140.277 44.5893 139.935 45.5387 139.253 46.136C138.57 46.712 137.514 47 136.085 47Z" fill="white"/>
<defs>
<filter id="filter0_d_145_1271" x="0" y="0" width="445" height="79" filterUnits="userSpaceOnUse" color-interpolation-filters="sRGB">
<feFlood flood-opacity="0" result="BackgroundImageFix"/>
<feColorMatrix in="SourceAlpha" type="matrix" values="0 0 0 0 0 0 0 0 0 0 0 0 0 0 0 0 0 0 127 0" result="hardAlpha"/>
<feOffset dy="4"/>
<feGaussianBlur stdDeviation="2"/>
<feComposite in2="hardAlpha" operator="out"/>
<feColorMatrix type="matrix" values="0 0 0 0 0 0 0 0 0 0 0 0 0 0 0 0 0 0 0.25 0"/>
<feBlend mode="normal" in2="BackgroundImageFix" result="effect1_dropShadow_145_1271"/>
<feBlend mode="normal" in="SourceGraphic" in2="effect1_dropShadow_145_1271" result="shape"/>
</filter>
</defs>
</svg>
