<svg width="532" height="214" viewBox="0 0 532 214" fill="none" xmlns="http://www.w3.org/2000/svg">
<rect width="532" height="162" rx="37" fill="#1A1919"/>
<path d="M28.584 49.1321H28.136C27.9653 49.1321 27.88 49.0361 27.88 48.8441V28.8441C27.88 28.6521 27.9653 28.5561 28.136 28.5561H35.368C36.6693 28.5561 37.704 28.9507 38.472 29.7401C39.2613 30.5294 39.656 31.5854 39.656 32.9081V36.8441C39.656 38.1667 39.2613 39.2227 38.472 40.0121C37.704 40.8014 36.6693 41.1961 35.368 41.1961H29.128C28.936 41.1961 28.84 41.2814 28.84 41.4521V48.8441C28.84 49.0361 28.7547 49.1321 28.584 49.1321ZM29.128 40.3001H35.368C36.4347 40.3001 37.256 39.9907 37.832 39.3721C38.408 38.7534 38.696 37.9001 38.696 36.8121V32.9401C38.696 31.8521 38.408 30.9987 37.832 30.3801C37.256 29.7614 36.4347 29.4521 35.368 29.4521H29.128C28.936 29.4521 28.84 29.5374 28.84 29.7081V40.0441C28.84 40.2147 28.936 40.3001 29.128 40.3001ZM45.014 49.1321H44.566C44.3953 49.1321 44.31 49.0361 44.31 48.8441V26.9241C44.31 26.7321 44.3953 26.6361 44.566 26.6361H45.014C45.1847 26.6361 45.27 26.7321 45.27 26.9241V34.4761H45.398C45.9953 33.3667 47.126 32.8121 48.79 32.8121H51.158C52.4593 32.8121 53.494 33.2067 54.262 33.9961C55.0513 34.7854 55.446 35.8414 55.446 37.1641V48.8441C55.446 49.0361 55.3607 49.1321 55.19 49.1321H54.742C54.5713 49.1321 54.486 49.0361 54.486 48.8441V37.1961C54.486 36.1081 54.198 35.2547 53.622 34.6361C53.046 34.0174 52.2247 33.7081 51.158 33.7081H48.854C47.7873 33.7081 46.9233 33.9961 46.262 34.5721C45.6007 35.1481 45.27 35.9694 45.27 37.0361V48.8441C45.27 49.0361 45.1847 49.1321 45.014 49.1321ZM67.0918 49.1321H64.3718C63.0704 49.1321 62.0251 48.7374 61.2358 47.9481C60.4678 47.1587 60.0838 46.1027 60.0838 44.7801V37.1641C60.0838 35.8414 60.4678 34.7854 61.2358 33.9961C62.0251 33.2067 63.0704 32.8121 64.3718 32.8121H67.0918C68.3931 32.8121 69.4278 33.2067 70.1958 33.9961C70.9851 34.7854 71.3798 35.8414 71.3798 37.1641V44.7801C71.3798 46.1027 70.9851 47.1587 70.1958 47.9481C69.4278 48.7374 68.3931 49.1321 67.0918 49.1321ZM64.3718 48.2361H67.0918C68.1584 48.2361 68.9798 47.9267 69.5558 47.3081C70.1318 46.6894 70.4198 45.8361 70.4198 44.7481V37.1961C70.4198 36.1081 70.1318 35.2547 69.5558 34.6361C68.9798 34.0174 68.1584 33.7081 67.0918 33.7081H64.3718C63.3051 33.7081 62.4838 34.0174 61.9078 34.6361C61.3318 35.2547 61.0438 36.1081 61.0438 37.1961V44.7481C61.0438 45.8361 61.3318 46.6894 61.9078 47.3081C62.4838 47.9267 63.3051 48.2361 64.3718 48.2361ZM76.985 33.7081H74.873C74.681 33.7081 74.585 33.6227 74.585 33.4521V33.0681C74.585 32.8974 74.681 32.8121 74.873 32.8121H76.985C77.177 32.8121 77.273 32.7267 77.273 32.5561V30.0601C77.273 29.8681 77.3583 29.7721 77.529 29.7721H77.977C78.1477 29.7721 78.233 29.8681 78.233 30.0601V32.5561C78.233 32.7267 78.329 32.8121 78.521 32.8121H82.649C82.841 32.8121 82.937 32.8974 82.937 33.0681V33.4521C82.937 33.6227 82.841 33.7081 82.649 33.7081H78.521C78.329 33.7081 78.233 33.7934 78.233 33.9641V44.8441C78.233 45.9107 78.5423 46.7427 79.161 47.3401C79.801 47.9374 80.665 48.2361 81.753 48.2361H82.969C83.161 48.2361 83.257 48.3214 83.257 48.4921V48.8761C83.257 49.0467 83.161 49.1321 82.969 49.1321H81.753C80.4303 49.1321 79.353 48.7481 78.521 47.9801C77.689 47.2121 77.273 46.1774 77.273 44.8761V33.9641C77.273 33.7934 77.177 33.7081 76.985 33.7081ZM93.9355 49.1321H91.2155C89.9142 49.1321 88.8688 48.7374 88.0795 47.9481C87.3115 47.1587 86.9275 46.1027 86.9275 44.7801V37.1641C86.9275 35.8414 87.3115 34.7854 88.0795 33.9961C88.8688 33.2067 89.9142 32.8121 91.2155 32.8121H93.9355C95.2368 32.8121 96.2715 33.2067 97.0395 33.9961C97.8288 34.7854 98.2235 35.8414 98.2235 37.1641V44.7801C98.2235 46.1027 97.8288 47.1587 97.0395 47.9481C96.2715 48.7374 95.2368 49.1321 93.9355 49.1321ZM91.2155 48.2361H93.9355C95.0022 48.2361 95.8235 47.9267 96.3995 47.3081C96.9755 46.6894 97.2635 45.8361 97.2635 44.7481V37.1961C97.2635 36.1081 96.9755 35.2547 96.3995 34.6361C95.8235 34.0174 95.0022 33.7081 93.9355 33.7081H91.2155C90.1488 33.7081 89.3275 34.0174 88.7515 34.6361C88.1755 35.2547 87.8875 36.1081 87.8875 37.1961V44.7481C87.8875 45.8361 88.1755 46.6894 88.7515 47.3081C89.3275 47.9267 90.1488 48.2361 91.2155 48.2361ZM109.525 48.1721H107.157C105.855 48.1721 104.81 47.7774 104.021 46.9881C103.253 46.1987 102.869 45.1427 102.869 43.8201V37.1641C102.869 35.8414 103.253 34.7854 104.021 33.9961C104.81 33.2067 105.855 32.8121 107.157 32.8121H113.749C113.919 32.8121 114.005 32.9081 114.005 33.1001V49.0361C114.005 50.3587 113.61 51.4147 112.821 52.2041C112.053 52.9934 111.018 53.3881 109.717 53.3881H103.989C103.797 53.3881 103.701 53.3027 103.701 53.1321V52.7481C103.701 52.5774 103.797 52.4921 103.989 52.4921H109.717C110.783 52.4921 111.605 52.1827 112.181 51.5641C112.757 50.9454 113.045 50.0921 113.045 49.0041V46.5081H112.917C112.319 47.6174 111.189 48.1721 109.525 48.1721ZM113.045 43.9481V33.9641C113.045 33.7934 112.949 33.7081 112.757 33.7081H107.157C106.09 33.7081 105.269 34.0174 104.693 34.6361C104.117 35.2547 103.829 36.1081 103.829 37.1961V43.7881C103.829 44.8761 104.117 45.7294 104.693 46.3481C105.269 46.9667 106.09 47.2761 107.157 47.2761H109.461C110.527 47.2761 111.391 46.9881 112.053 46.4121C112.714 45.8361 113.045 45.0147 113.045 43.9481ZM119.827 49.1321H119.379C119.208 49.1321 119.123 49.0361 119.123 48.8441V33.1001C119.123 32.9081 119.208 32.8121 119.379 32.8121H119.827C119.997 32.8121 120.083 32.9081 120.083 33.1001V34.5401H120.211C120.445 34.1134 120.851 33.7187 121.427 33.3561C122.024 32.9934 122.792 32.8121 123.731 32.8121H125.01C125.203 32.8121 125.299 32.8974 125.299 33.0681V33.4521C125.299 33.6227 125.203 33.7081 125.01 33.7081H123.699C122.611 33.7081 121.736 34.0494 121.075 34.7321C120.413 35.4147 120.083 36.3427 120.083 37.5161V48.8441C120.083 49.0361 119.997 49.1321 119.827 49.1321ZM135.146 49.1321H132.778C131.477 49.1321 130.431 48.7374 129.642 47.9481C128.874 47.1587 128.49 46.1027 128.49 44.7801V37.1641C128.49 35.8414 128.874 34.7854 129.642 33.9961C130.431 33.2067 131.477 32.8121 132.778 32.8121H139.37C139.541 32.8121 139.626 32.9081 139.626 33.1001V48.8441C139.626 49.0361 139.541 49.1321 139.37 49.1321H138.922C138.751 49.1321 138.666 49.0361 138.666 48.8441V47.4681H138.538C137.941 48.5774 136.81 49.1321 135.146 49.1321ZM138.666 44.9081V33.9641C138.666 33.7934 138.57 33.7081 138.378 33.7081H132.778C131.711 33.7081 130.89 34.0174 130.314 34.6361C129.738 35.2547 129.45 36.1081 129.45 37.1961V44.7481C129.45 45.8361 129.738 46.6894 130.314 47.3081C130.89 47.9267 131.711 48.2361 132.778 48.2361H135.082C136.149 48.2361 137.013 47.9481 137.674 47.3721C138.335 46.7961 138.666 45.9747 138.666 44.9081ZM145.452 54.0281H145.004C144.833 54.0281 144.748 53.9321 144.748 53.7401V33.1001C144.748 32.9081 144.833 32.8121 145.004 32.8121H145.452C145.622 32.8121 145.708 32.9081 145.708 33.1001V34.4761H145.836C146.433 33.3667 147.564 32.8121 149.228 32.8121H151.595C152.897 32.8121 153.932 33.2067 154.7 33.9961C155.489 34.7854 155.884 35.8414 155.884 37.1641V44.7801C155.884 46.1027 155.489 47.1587 154.7 47.9481C153.932 48.7374 152.897 49.1321 151.595 49.1321H149.228C147.564 49.1321 146.433 48.5774 145.836 47.4681H145.708V53.7401C145.708 53.9321 145.622 54.0281 145.452 54.0281ZM149.292 48.2361H151.595C152.662 48.2361 153.484 47.9267 154.06 47.3081C154.636 46.6894 154.924 45.8361 154.924 44.7481V37.1961C154.924 36.1081 154.636 35.2547 154.06 34.6361C153.484 34.0174 152.662 33.7081 151.595 33.7081H149.292C148.225 33.7081 147.361 33.9961 146.7 34.5721C146.038 35.1481 145.708 35.9694 145.708 37.0361V44.9081C145.708 45.9747 146.038 46.7961 146.7 47.3721C147.361 47.9481 148.225 48.2361 149.292 48.2361ZM161.389 49.1321H160.941C160.77 49.1321 160.685 49.0361 160.685 48.8441V26.9241C160.685 26.7321 160.77 26.6361 160.941 26.6361H161.389C161.56 26.6361 161.645 26.7321 161.645 26.9241V34.4761H161.773C162.37 33.3667 163.501 32.8121 165.165 32.8121H167.533C168.834 32.8121 169.869 33.2067 170.637 33.9961C171.426 34.7854 171.821 35.8414 171.821 37.1641V48.8441C171.821 49.0361 171.736 49.1321 171.565 49.1321H171.117C170.946 49.1321 170.861 49.0361 170.861 48.8441V37.1961C170.861 36.1081 170.573 35.2547 169.997 34.6361C169.421 34.0174 168.6 33.7081 167.533 33.7081H165.229C164.162 33.7081 163.298 33.9961 162.637 34.5721C161.976 35.1481 161.645 35.9694 161.645 37.0361V48.8441C161.645 49.0361 161.56 49.1321 161.389 49.1321ZM176.107 53.8361C175.915 53.8361 175.819 53.7507 175.819 53.5801V53.1961C175.819 53.0254 175.915 52.9401 176.107 52.9401H177.035C177.888 52.9401 178.485 52.7801 178.827 52.4601C179.189 52.1614 179.456 51.9374 179.627 51.7881C179.797 51.6601 179.979 51.3827 180.171 50.9561C180.384 50.5507 180.523 50.2841 180.587 50.1561C180.971 49.3027 181.216 48.6734 181.323 48.2681H181.003C180.832 48.2681 180.715 48.1721 180.651 47.9801L175.211 33.1001C175.147 32.9081 175.211 32.8121 175.403 32.8121H175.915C176.064 32.8121 176.171 32.9081 176.235 33.1001L181.451 47.3401H181.579L186.795 33.1001C186.859 32.9081 186.965 32.8121 187.115 32.8121H187.627C187.819 32.8121 187.883 32.9081 187.819 33.1001L182.379 47.9801C181.717 49.8787 181.216 51.1054 180.875 51.6601C179.957 53.0894 178.677 53.8147 177.035 53.8361H176.107ZM33.288 92.1321H32.52C32.3707 92.1321 32.264 92.0361 32.2 91.8441L25.992 71.8441C25.928 71.6521 25.992 71.5561 26.184 71.5561H26.664C26.8133 71.5561 26.92 71.6521 26.984 71.8441L32.84 90.7241H32.968L38.824 71.8441C38.888 71.6521 38.9947 71.5561 39.144 71.5561H39.624C39.816 71.5561 39.88 71.6521 39.816 71.8441L33.608 91.8441C33.544 92.0361 33.4373 92.1321 33.288 92.1321ZM43.5325 73.1561V69.9881C43.5325 69.7961 43.6178 69.7001 43.7885 69.7001H44.2365C44.4072 69.7001 44.4925 69.7961 44.4925 69.9881V73.1561C44.4925 73.3481 44.4072 73.4441 44.2365 73.4441H43.7885C43.6178 73.4441 43.5325 73.3481 43.5325 73.1561ZM43.5325 91.8441V76.1001C43.5325 75.9081 43.6178 75.8121 43.7885 75.8121H44.2365C44.4072 75.8121 44.4925 75.9081 44.4925 76.1001V91.8441C44.4925 92.0361 44.4072 92.1321 44.2365 92.1321H43.7885C43.6178 92.1321 43.5325 92.0361 43.5325 91.8441ZM56.1148 92.1321H53.7468C52.4454 92.1321 51.4001 91.7374 50.6108 90.9481C49.8428 90.1587 49.4588 89.1027 49.4588 87.7801V80.1641C49.4588 78.8414 49.8428 77.7854 50.6108 76.9961C51.4001 76.2067 52.4454 75.8121 53.7468 75.8121H56.1148C57.7788 75.8121 58.9094 76.3667 59.5068 77.4761H59.6348V69.9241C59.6348 69.7321 59.7201 69.6361 59.8908 69.6361H60.3388C60.5094 69.6361 60.5948 69.7321 60.5948 69.9241V91.8441C60.5948 92.0361 60.5094 92.1321 60.3388 92.1321H59.8908C59.7201 92.1321 59.6348 92.0361 59.6348 91.8441V90.4681H59.5068C58.9094 91.5774 57.7788 92.1321 56.1148 92.1321ZM59.6348 87.9081V80.0361C59.6348 78.9694 59.3041 78.1481 58.6428 77.5721C57.9814 76.9961 57.1174 76.7081 56.0508 76.7081H53.7468C52.6801 76.7081 51.8588 77.0174 51.2828 77.6361C50.7068 78.2547 50.4188 79.1081 50.4188 80.1961V87.7481C50.4188 88.8361 50.7068 89.6894 51.2828 90.3081C51.8588 90.9267 52.6801 91.2361 53.7468 91.2361H56.0508C57.1174 91.2361 57.9814 90.9481 58.6428 90.3721C59.3041 89.7961 59.6348 88.9747 59.6348 87.9081ZM76.2443 92.1321H69.6843C68.3829 92.1321 67.3376 91.7374 66.5483 90.9481C65.7803 90.1587 65.3963 89.1027 65.3963 87.7801V80.1641C65.3963 78.8414 65.7803 77.7854 66.5483 76.9961C67.3376 76.2067 68.3829 75.8121 69.6843 75.8121H72.5003C73.8016 75.8121 74.8363 76.2067 75.6043 76.9961C76.3936 77.7854 76.7883 78.8414 76.7883 80.1641V84.2281C76.7883 84.4414 76.6923 84.5481 76.5003 84.5481H66.6443C66.4523 84.5481 66.3563 84.6334 66.3563 84.8041V87.7481C66.3563 88.8361 66.6443 89.6894 67.2203 90.3081C67.7963 90.9267 68.6176 91.2361 69.6843 91.2361H76.2443C76.4363 91.2361 76.5323 91.3214 76.5323 91.4921V91.8761C76.5323 92.0467 76.4363 92.1321 76.2443 92.1321ZM66.6443 83.6521H75.5403C75.7323 83.6521 75.8283 83.5667 75.8283 83.3961V80.1961C75.8283 79.1081 75.5403 78.2547 74.9643 77.6361C74.3883 77.0174 73.5669 76.7081 72.5003 76.7081H69.6843C68.6176 76.7081 67.7963 77.0174 67.2203 77.6361C66.6443 78.2547 66.3563 79.1081 66.3563 80.1961V83.3961C66.3563 83.5667 66.4523 83.6521 66.6443 83.6521ZM88.123 92.1321H85.403C84.1017 92.1321 83.0563 91.7374 82.267 90.9481C81.499 90.1587 81.115 89.1027 81.115 87.7801V80.1641C81.115 78.8414 81.499 77.7854 82.267 76.9961C83.0563 76.2067 84.1017 75.8121 85.403 75.8121H88.123C89.4243 75.8121 90.459 76.2067 91.227 76.9961C92.0163 77.7854 92.411 78.8414 92.411 80.1641V87.7801C92.411 89.1027 92.0163 90.1587 91.227 90.9481C90.459 91.7374 89.4243 92.1321 88.123 92.1321ZM85.403 91.2361H88.123C89.1897 91.2361 90.011 90.9267 90.587 90.3081C91.163 89.6894 91.451 88.8361 91.451 87.7481V80.1961C91.451 79.1081 91.163 78.2547 90.587 77.6361C90.011 77.0174 89.1897 76.7081 88.123 76.7081H85.403C84.3363 76.7081 83.515 77.0174 82.939 77.6361C82.363 78.2547 82.075 79.1081 82.075 80.1961V87.7481C82.075 88.8361 82.363 89.6894 82.939 90.3081C83.515 90.9267 84.3363 91.2361 85.403 91.2361ZM103.712 91.1721H101.344C100.043 91.1721 98.9976 90.7774 98.2083 89.9881C97.4403 89.1987 97.0563 88.1427 97.0563 86.8201V80.1641C97.0563 78.8414 97.4403 77.7854 98.2083 76.9961C98.9976 76.2067 100.043 75.8121 101.344 75.8121H107.936C108.107 75.8121 108.192 75.9081 108.192 76.1001V92.0361C108.192 93.3587 107.798 94.4147 107.008 95.2041C106.24 95.9934 105.206 96.3881 103.904 96.3881H98.1763C97.9843 96.3881 97.8883 96.3027 97.8883 96.1321V95.7481C97.8883 95.5774 97.9843 95.4921 98.1763 95.4921H103.904C104.971 95.4921 105.792 95.1827 106.368 94.5641C106.944 93.9454 107.232 93.0921 107.232 92.0041V89.5081H107.104C106.507 90.6174 105.376 91.1721 103.712 91.1721ZM107.232 86.9481V76.9641C107.232 76.7934 107.136 76.7081 106.944 76.7081H101.344C100.278 76.7081 99.4563 77.0174 98.8802 77.6361C98.3043 78.2547 98.0163 79.1081 98.0163 80.1961V86.7881C98.0163 87.8761 98.3043 88.7294 98.8802 89.3481C99.4563 89.9667 100.278 90.2761 101.344 90.2761H103.648C104.715 90.2761 105.579 89.9881 106.24 89.4121C106.902 88.8361 107.232 88.0147 107.232 86.9481ZM114.014 92.1321H113.566C113.395 92.1321 113.31 92.0361 113.31 91.8441V76.1001C113.31 75.9081 113.395 75.8121 113.566 75.8121H114.014C114.185 75.8121 114.27 75.9081 114.27 76.1001V77.5401H114.398C114.633 77.1134 115.038 76.7187 115.614 76.3561C116.211 75.9934 116.979 75.8121 117.918 75.8121H119.198C119.39 75.8121 119.486 75.8974 119.486 76.0681V76.4521C119.486 76.6227 119.39 76.7081 119.198 76.7081H117.886C116.798 76.7081 115.923 77.0494 115.262 77.7321C114.601 78.4147 114.27 79.3427 114.27 80.5161V91.8441C114.27 92.0361 114.185 92.1321 114.014 92.1321ZM129.334 92.1321H126.966C125.664 92.1321 124.619 91.7374 123.83 90.9481C123.062 90.1587 122.678 89.1027 122.678 87.7801V80.1641C122.678 78.8414 123.062 77.7854 123.83 76.9961C124.619 76.2067 125.664 75.8121 126.966 75.8121H133.558C133.728 75.8121 133.814 75.9081 133.814 76.1001V91.8441C133.814 92.0361 133.728 92.1321 133.558 92.1321H133.11C132.939 92.1321 132.854 92.0361 132.854 91.8441V90.4681H132.726C132.128 91.5774 130.998 92.1321 129.334 92.1321ZM132.854 87.9081V76.9641C132.854 76.7934 132.758 76.7081 132.566 76.7081H126.966C125.899 76.7081 125.078 77.0174 124.502 77.6361C123.926 78.2547 123.638 79.1081 123.638 80.1961V87.7481C123.638 88.8361 123.926 89.6894 124.502 90.3081C125.078 90.9267 125.899 91.2361 126.966 91.2361H129.27C130.336 91.2361 131.2 90.9481 131.862 90.3721C132.523 89.7961 132.854 88.9747 132.854 87.9081ZM139.639 97.0281H139.191C139.02 97.0281 138.935 96.9321 138.935 96.7401V76.1001C138.935 75.9081 139.02 75.8121 139.191 75.8121H139.639C139.81 75.8121 139.895 75.9081 139.895 76.1001V77.4761H140.023C140.62 76.3667 141.751 75.8121 143.415 75.8121H145.783C147.084 75.8121 148.119 76.2067 148.887 76.9961C149.676 77.7854 150.071 78.8414 150.071 80.1641V87.7801C150.071 89.1027 149.676 90.1587 148.887 90.9481C148.119 91.7374 147.084 92.1321 145.783 92.1321H143.415C141.751 92.1321 140.62 91.5774 140.023 90.4681H139.895V96.7401C139.895 96.9321 139.81 97.0281 139.639 97.0281ZM143.479 91.2361H145.783C146.85 91.2361 147.671 90.9267 148.247 90.3081C148.823 89.6894 149.111 88.8361 149.111 87.7481V80.1961C149.111 79.1081 148.823 78.2547 148.247 77.6361C147.671 77.0174 146.85 76.7081 145.783 76.7081H143.479C142.412 76.7081 141.548 76.9961 140.887 77.5721C140.226 78.1481 139.895 78.9694 139.895 80.0361V87.9081C139.895 88.9747 140.226 89.7961 140.887 90.3721C141.548 90.9481 142.412 91.2361 143.479 91.2361ZM155.577 92.1321H155.129C154.958 92.1321 154.873 92.0361 154.873 91.8441V69.9241C154.873 69.7321 154.958 69.6361 155.129 69.6361H155.577C155.747 69.6361 155.833 69.7321 155.833 69.9241V77.4761H155.961C156.558 76.3667 157.689 75.8121 159.353 75.8121H161.72C163.022 75.8121 164.057 76.2067 164.825 76.9961C165.614 77.7854 166.009 78.8414 166.009 80.1641V91.8441C166.009 92.0361 165.923 92.1321 165.753 92.1321H165.305C165.134 92.1321 165.049 92.0361 165.049 91.8441V80.1961C165.049 79.1081 164.761 78.2547 164.185 77.6361C163.609 77.0174 162.787 76.7081 161.72 76.7081H159.417C158.35 76.7081 157.486 76.9961 156.825 77.5721C156.163 78.1481 155.833 78.9694 155.833 80.0361V91.8441C155.833 92.0361 155.747 92.1321 155.577 92.1321ZM170.294 96.8361C170.102 96.8361 170.006 96.7507 170.006 96.5801V96.1961C170.006 96.0254 170.102 95.9401 170.294 95.9401H171.222C172.076 95.9401 172.673 95.7801 173.014 95.4601C173.377 95.1614 173.644 94.9374 173.814 94.7881C173.985 94.6601 174.166 94.3827 174.358 93.9561C174.572 93.5507 174.71 93.2841 174.774 93.1561C175.158 92.3027 175.404 91.6734 175.51 91.2681H175.19C175.02 91.2681 174.902 91.1721 174.838 90.9801L169.398 76.1001C169.334 75.9081 169.398 75.8121 169.59 75.8121H170.102C170.252 75.8121 170.358 75.9081 170.422 76.1001L175.638 90.3401H175.766L180.982 76.1001C181.046 75.9081 181.153 75.8121 181.302 75.8121H181.814C182.006 75.8121 182.07 75.9081 182.006 76.1001L176.566 90.9801C175.905 92.8787 175.404 94.1054 175.062 94.6601C174.145 96.0894 172.865 96.8147 171.222 96.8361H170.294ZM29.128 134.236H36.008C37.0747 134.236 37.896 133.927 38.472 133.308C39.048 132.689 39.336 131.836 39.336 130.748V118.94C39.336 117.852 39.048 116.999 38.472 116.38C37.896 115.761 37.0747 115.452 36.008 115.452H29.128C28.936 115.452 28.84 115.537 28.84 115.708V133.98C28.84 134.151 28.936 134.236 29.128 134.236ZM27.88 134.844V114.844C27.88 114.652 27.9653 114.556 28.136 114.556H36.008C37.3093 114.556 38.344 114.951 39.112 115.74C39.9013 116.529 40.296 117.585 40.296 118.908V130.78C40.296 132.103 39.9013 133.159 39.112 133.948C38.344 134.737 37.3093 135.132 36.008 135.132H28.136C27.9653 135.132 27.88 135.036 27.88 134.844ZM55.9318 135.132H49.3718C48.0704 135.132 47.0251 134.737 46.2358 133.948C45.4678 133.159 45.0838 132.103 45.0838 130.78V123.164C45.0838 121.841 45.4678 120.785 46.2358 119.996C47.0251 119.207 48.0704 118.812 49.3718 118.812H52.1878C53.4891 118.812 54.5238 119.207 55.2918 119.996C56.0811 120.785 56.4758 121.841 56.4758 123.164V127.228C56.4758 127.441 56.3798 127.548 56.1878 127.548H46.3318C46.1398 127.548 46.0438 127.633 46.0438 127.804V130.748C46.0438 131.836 46.3318 132.689 46.9078 133.308C47.4838 133.927 48.3051 134.236 49.3718 134.236H55.9318C56.1238 134.236 56.2198 134.321 56.2198 134.492V134.876C56.2198 135.047 56.1238 135.132 55.9318 135.132ZM46.3318 126.652H55.2278C55.4198 126.652 55.5158 126.567 55.5158 126.396V123.196C55.5158 122.108 55.2278 121.255 54.6518 120.636C54.0758 120.017 53.2544 119.708 52.1878 119.708H49.3718C48.3051 119.708 47.4838 120.017 46.9078 120.636C46.3318 121.255 46.0438 122.108 46.0438 123.196V126.396C46.0438 126.567 46.1398 126.652 46.3318 126.652ZM66.1785 135.132H60.7385C60.5465 135.132 60.4505 135.047 60.4505 134.876V134.492C60.4505 134.321 60.5465 134.236 60.7385 134.236H66.1785C68.3332 134.236 69.4105 133.383 69.4105 131.676V130.716C69.4105 129.927 69.2718 129.287 68.9945 128.796C68.7172 128.305 68.2158 127.932 67.4905 127.676L63.2665 126.204C62.1572 125.82 61.3785 125.351 60.9305 124.796C60.5038 124.22 60.2905 123.42 60.2905 122.396C60.2905 120.007 61.5918 118.812 64.1945 118.812H69.3465C69.5385 118.812 69.6345 118.897 69.6345 119.068V119.452C69.6345 119.623 69.5385 119.708 69.3465 119.708H64.1945C63.2132 119.708 62.4772 119.932 61.9865 120.38C61.5172 120.828 61.2825 121.34 61.2825 121.916V122.78C61.2825 123.463 61.4532 123.996 61.7945 124.38C62.1572 124.743 62.7118 125.052 63.4585 125.308L67.6505 126.812C68.7812 127.132 69.5172 127.655 69.8585 128.38C70.1998 129.105 70.3705 130.119 70.3705 131.42C70.3705 132.721 70.0292 133.671 69.3465 134.268C68.6638 134.844 67.6078 135.132 66.1785 135.132ZM75.0013 116.156V112.988C75.0013 112.796 75.0866 112.7 75.2573 112.7H75.7053C75.8759 112.7 75.9613 112.796 75.9613 112.988V116.156C75.9613 116.348 75.8759 116.444 75.7053 116.444H75.2573C75.0866 116.444 75.0013 116.348 75.0013 116.156ZM75.0013 134.844V119.1C75.0013 118.908 75.0866 118.812 75.2573 118.812H75.7053C75.8759 118.812 75.9613 118.908 75.9613 119.1V134.844C75.9613 135.036 75.8759 135.132 75.7053 135.132H75.2573C75.0866 135.132 75.0013 135.036 75.0013 134.844ZM87.7435 134.172H85.3755C84.0742 134.172 83.0288 133.777 82.2395 132.988C81.4715 132.199 81.0875 131.143 81.0875 129.82V123.164C81.0875 121.841 81.4715 120.785 82.2395 119.996C83.0288 119.207 84.0742 118.812 85.3755 118.812H91.9675C92.1382 118.812 92.2235 118.908 92.2235 119.1V135.036C92.2235 136.359 91.8288 137.415 91.0395 138.204C90.2715 138.993 89.2368 139.388 87.9355 139.388H82.2075C82.0155 139.388 81.9195 139.303 81.9195 139.132V138.748C81.9195 138.577 82.0155 138.492 82.2075 138.492H87.9355C89.0022 138.492 89.8235 138.183 90.3995 137.564C90.9755 136.945 91.2635 136.092 91.2635 135.004V132.508H91.1355C90.5382 133.617 89.4075 134.172 87.7435 134.172ZM91.2635 129.948V119.964C91.2635 119.793 91.1675 119.708 90.9755 119.708H85.3755C84.3088 119.708 83.4875 120.017 82.9115 120.636C82.3355 121.255 82.0475 122.108 82.0475 123.196V129.788C82.0475 130.876 82.3355 131.729 82.9115 132.348C83.4875 132.967 84.3088 133.276 85.3755 133.276H87.6795C88.7462 133.276 89.6102 132.988 90.2715 132.412C90.9328 131.836 91.2635 131.015 91.2635 129.948ZM98.0453 135.132H97.5973C97.4266 135.132 97.3413 135.036 97.3413 134.844V119.1C97.3413 118.908 97.4266 118.812 97.5973 118.812H98.0453C98.2159 118.812 98.3013 118.908 98.3013 119.1V120.476H98.4293C99.0266 119.367 100.157 118.812 101.821 118.812H104.189C105.491 118.812 106.525 119.207 107.293 119.996C108.083 120.785 108.477 121.841 108.477 123.164V134.844C108.477 135.036 108.392 135.132 108.221 135.132H107.773C107.603 135.132 107.517 135.036 107.517 134.844V123.196C107.517 122.108 107.229 121.255 106.653 120.636C106.077 120.017 105.256 119.708 104.189 119.708H101.885C100.819 119.708 99.9546 119.996 99.2933 120.572C98.6319 121.148 98.3013 121.969 98.3013 123.036V134.844C98.3013 135.036 98.2159 135.132 98.0453 135.132Z" fill="white"/>
</svg>
