<svg width="540" height="214" viewBox="0 0 540 214" fill="none" xmlns="http://www.w3.org/2000/svg">
<g filter="url(#filter0_d_289_975)">
<rect x="4" width="532" height="162" rx="10" fill="#1A1919"/>
</g>
<path d="M32.584 49.1321H32.136C31.9653 49.1321 31.88 49.0361 31.88 48.8441V28.8441C31.88 28.6521 31.9653 28.5561 32.136 28.5561H39.368C40.6693 28.5561 41.704 28.9507 42.472 29.7401C43.2613 30.5294 43.656 31.5854 43.656 32.9081V36.8441C43.656 38.1667 43.2613 39.2227 42.472 40.0121C41.704 40.8014 40.6693 41.1961 39.368 41.1961H33.128C32.936 41.1961 32.84 41.2814 32.84 41.4521V48.8441C32.84 49.0361 32.7547 49.1321 32.584 49.1321ZM33.128 40.3001H39.368C40.4347 40.3001 41.256 39.9907 41.832 39.3721C42.408 38.7534 42.696 37.9001 42.696 36.8121V32.9401C42.696 31.8521 42.408 30.9987 41.832 30.3801C41.256 29.7614 40.4347 29.4521 39.368 29.4521H33.128C32.936 29.4521 32.84 29.5374 32.84 29.7081V40.0441C32.84 40.2147 32.936 40.3001 33.128 40.3001ZM49.014 49.1321H48.566C48.3953 49.1321 48.31 49.0361 48.31 48.8441V26.9241C48.31 26.7321 48.3953 26.6361 48.566 26.6361H49.014C49.1847 26.6361 49.27 26.7321 49.27 26.9241V34.4761H49.398C49.9953 33.3667 51.126 32.8121 52.79 32.8121H55.158C56.4593 32.8121 57.494 33.2067 58.262 33.9961C59.0513 34.7854 59.446 35.8414 59.446 37.1641V48.8441C59.446 49.0361 59.3607 49.1321 59.19 49.1321H58.742C58.5713 49.1321 58.486 49.0361 58.486 48.8441V37.1961C58.486 36.1081 58.198 35.2547 57.622 34.6361C57.046 34.0174 56.2247 33.7081 55.158 33.7081H52.854C51.7873 33.7081 50.9233 33.9961 50.262 34.5721C49.6007 35.1481 49.27 35.9694 49.27 37.0361V48.8441C49.27 49.0361 49.1847 49.1321 49.014 49.1321ZM71.0918 49.1321H68.3718C67.0704 49.1321 66.0251 48.7374 65.2358 47.9481C64.4678 47.1587 64.0838 46.1027 64.0838 44.7801V37.1641C64.0838 35.8414 64.4678 34.7854 65.2358 33.9961C66.0251 33.2067 67.0704 32.8121 68.3718 32.8121H71.0918C72.3931 32.8121 73.4278 33.2067 74.1958 33.9961C74.9851 34.7854 75.3798 35.8414 75.3798 37.1641V44.7801C75.3798 46.1027 74.9851 47.1587 74.1958 47.9481C73.4278 48.7374 72.3931 49.1321 71.0918 49.1321ZM68.3718 48.2361H71.0918C72.1584 48.2361 72.9798 47.9267 73.5558 47.3081C74.1318 46.6894 74.4198 45.8361 74.4198 44.7481V37.1961C74.4198 36.1081 74.1318 35.2547 73.5558 34.6361C72.9798 34.0174 72.1584 33.7081 71.0918 33.7081H68.3718C67.3051 33.7081 66.4838 34.0174 65.9078 34.6361C65.3318 35.2547 65.0438 36.1081 65.0438 37.1961V44.7481C65.0438 45.8361 65.3318 46.6894 65.9078 47.3081C66.4838 47.9267 67.3051 48.2361 68.3718 48.2361ZM80.985 33.7081H78.873C78.681 33.7081 78.585 33.6227 78.585 33.4521V33.0681C78.585 32.8974 78.681 32.8121 78.873 32.8121H80.985C81.177 32.8121 81.273 32.7267 81.273 32.5561V30.0601C81.273 29.8681 81.3583 29.7721 81.529 29.7721H81.977C82.1477 29.7721 82.233 29.8681 82.233 30.0601V32.5561C82.233 32.7267 82.329 32.8121 82.521 32.8121H86.649C86.841 32.8121 86.937 32.8974 86.937 33.0681V33.4521C86.937 33.6227 86.841 33.7081 86.649 33.7081H82.521C82.329 33.7081 82.233 33.7934 82.233 33.9641V44.8441C82.233 45.9107 82.5423 46.7427 83.161 47.3401C83.801 47.9374 84.665 48.2361 85.753 48.2361H86.969C87.161 48.2361 87.257 48.3214 87.257 48.4921V48.8761C87.257 49.0467 87.161 49.1321 86.969 49.1321H85.753C84.4303 49.1321 83.353 48.7481 82.521 47.9801C81.689 47.2121 81.273 46.1774 81.273 44.8761V33.9641C81.273 33.7934 81.177 33.7081 80.985 33.7081ZM97.9355 49.1321H95.2155C93.9142 49.1321 92.8688 48.7374 92.0795 47.9481C91.3115 47.1587 90.9275 46.1027 90.9275 44.7801V37.1641C90.9275 35.8414 91.3115 34.7854 92.0795 33.9961C92.8688 33.2067 93.9142 32.8121 95.2155 32.8121H97.9355C99.2368 32.8121 100.272 33.2067 101.04 33.9961C101.829 34.7854 102.224 35.8414 102.224 37.1641V44.7801C102.224 46.1027 101.829 47.1587 101.04 47.9481C100.272 48.7374 99.2368 49.1321 97.9355 49.1321ZM95.2155 48.2361H97.9355C99.0022 48.2361 99.8235 47.9267 100.4 47.3081C100.976 46.6894 101.264 45.8361 101.264 44.7481V37.1961C101.264 36.1081 100.976 35.2547 100.4 34.6361C99.8235 34.0174 99.0022 33.7081 97.9355 33.7081H95.2155C94.1488 33.7081 93.3275 34.0174 92.7515 34.6361C92.1755 35.2547 91.8875 36.1081 91.8875 37.1961V44.7481C91.8875 45.8361 92.1755 46.6894 92.7515 47.3081C93.3275 47.9267 94.1488 48.2361 95.2155 48.2361ZM113.525 48.1721H111.157C109.855 48.1721 108.81 47.7774 108.021 46.9881C107.253 46.1987 106.869 45.1427 106.869 43.8201V37.1641C106.869 35.8414 107.253 34.7854 108.021 33.9961C108.81 33.2067 109.855 32.8121 111.157 32.8121H117.749C117.919 32.8121 118.005 32.9081 118.005 33.1001V49.0361C118.005 50.3587 117.61 51.4147 116.821 52.2041C116.053 52.9934 115.018 53.3881 113.717 53.3881H107.989C107.797 53.3881 107.701 53.3027 107.701 53.1321V52.7481C107.701 52.5774 107.797 52.4921 107.989 52.4921H113.717C114.783 52.4921 115.605 52.1827 116.181 51.5641C116.757 50.9454 117.045 50.0921 117.045 49.0041V46.5081H116.917C116.319 47.6174 115.189 48.1721 113.525 48.1721ZM117.045 43.9481V33.9641C117.045 33.7934 116.949 33.7081 116.757 33.7081H111.157C110.09 33.7081 109.269 34.0174 108.693 34.6361C108.117 35.2547 107.829 36.1081 107.829 37.1961V43.7881C107.829 44.8761 108.117 45.7294 108.693 46.3481C109.269 46.9667 110.09 47.2761 111.157 47.2761H113.461C114.527 47.2761 115.391 46.9881 116.053 46.4121C116.714 45.8361 117.045 45.0147 117.045 43.9481ZM123.827 49.1321H123.379C123.208 49.1321 123.123 49.0361 123.123 48.8441V33.1001C123.123 32.9081 123.208 32.8121 123.379 32.8121H123.827C123.997 32.8121 124.083 32.9081 124.083 33.1001V34.5401H124.211C124.445 34.1134 124.851 33.7187 125.427 33.3561C126.024 32.9934 126.792 32.8121 127.731 32.8121H129.01C129.203 32.8121 129.299 32.8974 129.299 33.0681V33.4521C129.299 33.6227 129.203 33.7081 129.01 33.7081H127.699C126.611 33.7081 125.736 34.0494 125.075 34.7321C124.413 35.4147 124.083 36.3427 124.083 37.5161V48.8441C124.083 49.0361 123.997 49.1321 123.827 49.1321ZM139.146 49.1321H136.778C135.477 49.1321 134.431 48.7374 133.642 47.9481C132.874 47.1587 132.49 46.1027 132.49 44.7801V37.1641C132.49 35.8414 132.874 34.7854 133.642 33.9961C134.431 33.2067 135.477 32.8121 136.778 32.8121H143.37C143.541 32.8121 143.626 32.9081 143.626 33.1001V48.8441C143.626 49.0361 143.541 49.1321 143.37 49.1321H142.922C142.751 49.1321 142.666 49.0361 142.666 48.8441V47.4681H142.538C141.941 48.5774 140.81 49.1321 139.146 49.1321ZM142.666 44.9081V33.9641C142.666 33.7934 142.57 33.7081 142.378 33.7081H136.778C135.711 33.7081 134.89 34.0174 134.314 34.6361C133.738 35.2547 133.45 36.1081 133.45 37.1961V44.7481C133.45 45.8361 133.738 46.6894 134.314 47.3081C134.89 47.9267 135.711 48.2361 136.778 48.2361H139.082C140.149 48.2361 141.013 47.9481 141.674 47.3721C142.335 46.7961 142.666 45.9747 142.666 44.9081ZM149.452 54.0281H149.004C148.833 54.0281 148.748 53.9321 148.748 53.7401V33.1001C148.748 32.9081 148.833 32.8121 149.004 32.8121H149.452C149.622 32.8121 149.708 32.9081 149.708 33.1001V34.4761H149.836C150.433 33.3667 151.564 32.8121 153.228 32.8121H155.595C156.897 32.8121 157.932 33.2067 158.7 33.9961C159.489 34.7854 159.884 35.8414 159.884 37.1641V44.7801C159.884 46.1027 159.489 47.1587 158.7 47.9481C157.932 48.7374 156.897 49.1321 155.595 49.1321H153.228C151.564 49.1321 150.433 48.5774 149.836 47.4681H149.708V53.7401C149.708 53.9321 149.622 54.0281 149.452 54.0281ZM153.292 48.2361H155.595C156.662 48.2361 157.484 47.9267 158.06 47.3081C158.636 46.6894 158.924 45.8361 158.924 44.7481V37.1961C158.924 36.1081 158.636 35.2547 158.06 34.6361C157.484 34.0174 156.662 33.7081 155.595 33.7081H153.292C152.225 33.7081 151.361 33.9961 150.7 34.5721C150.038 35.1481 149.708 35.9694 149.708 37.0361V44.9081C149.708 45.9747 150.038 46.7961 150.7 47.3721C151.361 47.9481 152.225 48.2361 153.292 48.2361ZM165.389 49.1321H164.941C164.77 49.1321 164.685 49.0361 164.685 48.8441V26.9241C164.685 26.7321 164.77 26.6361 164.941 26.6361H165.389C165.56 26.6361 165.645 26.7321 165.645 26.9241V34.4761H165.773C166.37 33.3667 167.501 32.8121 169.165 32.8121H171.533C172.834 32.8121 173.869 33.2067 174.637 33.9961C175.426 34.7854 175.821 35.8414 175.821 37.1641V48.8441C175.821 49.0361 175.736 49.1321 175.565 49.1321H175.117C174.946 49.1321 174.861 49.0361 174.861 48.8441V37.1961C174.861 36.1081 174.573 35.2547 173.997 34.6361C173.421 34.0174 172.6 33.7081 171.533 33.7081H169.229C168.162 33.7081 167.298 33.9961 166.637 34.5721C165.976 35.1481 165.645 35.9694 165.645 37.0361V48.8441C165.645 49.0361 165.56 49.1321 165.389 49.1321ZM180.107 53.8361C179.915 53.8361 179.819 53.7507 179.819 53.5801V53.1961C179.819 53.0254 179.915 52.9401 180.107 52.9401H181.035C181.888 52.9401 182.485 52.7801 182.827 52.4601C183.189 52.1614 183.456 51.9374 183.627 51.7881C183.797 51.6601 183.979 51.3827 184.171 50.9561C184.384 50.5507 184.523 50.2841 184.587 50.1561C184.971 49.3027 185.216 48.6734 185.323 48.2681H185.003C184.832 48.2681 184.715 48.1721 184.651 47.9801L179.211 33.1001C179.147 32.9081 179.211 32.8121 179.403 32.8121H179.915C180.064 32.8121 180.171 32.9081 180.235 33.1001L185.451 47.3401H185.579L190.795 33.1001C190.859 32.9081 190.965 32.8121 191.115 32.8121H191.627C191.819 32.8121 191.883 32.9081 191.819 33.1001L186.379 47.9801C185.717 49.8787 185.216 51.1054 184.875 51.6601C183.957 53.0894 182.677 53.8147 181.035 53.8361H180.107ZM37.288 92.1321H36.52C36.3707 92.1321 36.264 92.0361 36.2 91.8441L29.992 71.8441C29.928 71.6521 29.992 71.5561 30.184 71.5561H30.664C30.8133 71.5561 30.92 71.6521 30.984 71.8441L36.84 90.7241H36.968L42.824 71.8441C42.888 71.6521 42.9947 71.5561 43.144 71.5561H43.624C43.816 71.5561 43.88 71.6521 43.816 71.8441L37.608 91.8441C37.544 92.0361 37.4373 92.1321 37.288 92.1321ZM47.5325 73.1561V69.9881C47.5325 69.7961 47.6178 69.7001 47.7885 69.7001H48.2365C48.4072 69.7001 48.4925 69.7961 48.4925 69.9881V73.1561C48.4925 73.3481 48.4072 73.4441 48.2365 73.4441H47.7885C47.6178 73.4441 47.5325 73.3481 47.5325 73.1561ZM47.5325 91.8441V76.1001C47.5325 75.9081 47.6178 75.8121 47.7885 75.8121H48.2365C48.4072 75.8121 48.4925 75.9081 48.4925 76.1001V91.8441C48.4925 92.0361 48.4072 92.1321 48.2365 92.1321H47.7885C47.6178 92.1321 47.5325 92.0361 47.5325 91.8441ZM60.1148 92.1321H57.7468C56.4454 92.1321 55.4001 91.7374 54.6108 90.9481C53.8428 90.1587 53.4588 89.1027 53.4588 87.7801V80.1641C53.4588 78.8414 53.8428 77.7854 54.6108 76.9961C55.4001 76.2067 56.4454 75.8121 57.7468 75.8121H60.1148C61.7788 75.8121 62.9094 76.3667 63.5068 77.4761H63.6348V69.9241C63.6348 69.7321 63.7201 69.6361 63.8908 69.6361H64.3388C64.5094 69.6361 64.5948 69.7321 64.5948 69.9241V91.8441C64.5948 92.0361 64.5094 92.1321 64.3388 92.1321H63.8908C63.7201 92.1321 63.6348 92.0361 63.6348 91.8441V90.4681H63.5068C62.9094 91.5774 61.7788 92.1321 60.1148 92.1321ZM63.6348 87.9081V80.0361C63.6348 78.9694 63.3041 78.1481 62.6428 77.5721C61.9814 76.9961 61.1174 76.7081 60.0508 76.7081H57.7468C56.6801 76.7081 55.8588 77.0174 55.2828 77.6361C54.7068 78.2547 54.4188 79.1081 54.4188 80.1961V87.7481C54.4188 88.8361 54.7068 89.6894 55.2828 90.3081C55.8588 90.9267 56.6801 91.2361 57.7468 91.2361H60.0508C61.1174 91.2361 61.9814 90.9481 62.6428 90.3721C63.3041 89.7961 63.6348 88.9747 63.6348 87.9081ZM80.2443 92.1321H73.6843C72.3829 92.1321 71.3376 91.7374 70.5483 90.9481C69.7803 90.1587 69.3963 89.1027 69.3963 87.7801V80.1641C69.3963 78.8414 69.7803 77.7854 70.5483 76.9961C71.3376 76.2067 72.3829 75.8121 73.6843 75.8121H76.5003C77.8016 75.8121 78.8363 76.2067 79.6043 76.9961C80.3936 77.7854 80.7883 78.8414 80.7883 80.1641V84.2281C80.7883 84.4414 80.6923 84.5481 80.5003 84.5481H70.6443C70.4523 84.5481 70.3563 84.6334 70.3563 84.8041V87.7481C70.3563 88.8361 70.6443 89.6894 71.2203 90.3081C71.7963 90.9267 72.6176 91.2361 73.6843 91.2361H80.2443C80.4363 91.2361 80.5323 91.3214 80.5323 91.4921V91.8761C80.5323 92.0467 80.4363 92.1321 80.2443 92.1321ZM70.6443 83.6521H79.5403C79.7323 83.6521 79.8283 83.5667 79.8283 83.3961V80.1961C79.8283 79.1081 79.5403 78.2547 78.9643 77.6361C78.3883 77.0174 77.5669 76.7081 76.5003 76.7081H73.6843C72.6176 76.7081 71.7963 77.0174 71.2203 77.6361C70.6443 78.2547 70.3563 79.1081 70.3563 80.1961V83.3961C70.3563 83.5667 70.4523 83.6521 70.6443 83.6521ZM92.123 92.1321H89.403C88.1017 92.1321 87.0563 91.7374 86.267 90.9481C85.499 90.1587 85.115 89.1027 85.115 87.7801V80.1641C85.115 78.8414 85.499 77.7854 86.267 76.9961C87.0563 76.2067 88.1017 75.8121 89.403 75.8121H92.123C93.4243 75.8121 94.459 76.2067 95.227 76.9961C96.0163 77.7854 96.411 78.8414 96.411 80.1641V87.7801C96.411 89.1027 96.0163 90.1587 95.227 90.9481C94.459 91.7374 93.4243 92.1321 92.123 92.1321ZM89.403 91.2361H92.123C93.1897 91.2361 94.011 90.9267 94.587 90.3081C95.163 89.6894 95.451 88.8361 95.451 87.7481V80.1961C95.451 79.1081 95.163 78.2547 94.587 77.6361C94.011 77.0174 93.1897 76.7081 92.123 76.7081H89.403C88.3363 76.7081 87.515 77.0174 86.939 77.6361C86.363 78.2547 86.075 79.1081 86.075 80.1961V87.7481C86.075 88.8361 86.363 89.6894 86.939 90.3081C87.515 90.9267 88.3363 91.2361 89.403 91.2361ZM107.712 91.1721H105.344C104.043 91.1721 102.998 90.7774 102.208 89.9881C101.44 89.1987 101.056 88.1427 101.056 86.8201V80.1641C101.056 78.8414 101.44 77.7854 102.208 76.9961C102.998 76.2067 104.043 75.8121 105.344 75.8121H111.936C112.107 75.8121 112.192 75.9081 112.192 76.1001V92.0361C112.192 93.3587 111.798 94.4147 111.008 95.2041C110.24 95.9934 109.206 96.3881 107.904 96.3881H102.176C101.984 96.3881 101.888 96.3027 101.888 96.1321V95.7481C101.888 95.5774 101.984 95.4921 102.176 95.4921H107.904C108.971 95.4921 109.792 95.1827 110.368 94.5641C110.944 93.9454 111.232 93.0921 111.232 92.0041V89.5081H111.104C110.507 90.6174 109.376 91.1721 107.712 91.1721ZM111.232 86.9481V76.9641C111.232 76.7934 111.136 76.7081 110.944 76.7081H105.344C104.278 76.7081 103.456 77.0174 102.88 77.6361C102.304 78.2547 102.016 79.1081 102.016 80.1961V86.7881C102.016 87.8761 102.304 88.7294 102.88 89.3481C103.456 89.9667 104.278 90.2761 105.344 90.2761H107.648C108.715 90.2761 109.579 89.9881 110.24 89.4121C110.902 88.8361 111.232 88.0147 111.232 86.9481ZM118.014 92.1321H117.566C117.395 92.1321 117.31 92.0361 117.31 91.8441V76.1001C117.31 75.9081 117.395 75.8121 117.566 75.8121H118.014C118.185 75.8121 118.27 75.9081 118.27 76.1001V77.5401H118.398C118.633 77.1134 119.038 76.7187 119.614 76.3561C120.211 75.9934 120.979 75.8121 121.918 75.8121H123.198C123.39 75.8121 123.486 75.8974 123.486 76.0681V76.4521C123.486 76.6227 123.39 76.7081 123.198 76.7081H121.886C120.798 76.7081 119.923 77.0494 119.262 77.7321C118.601 78.4147 118.27 79.3427 118.27 80.5161V91.8441C118.27 92.0361 118.185 92.1321 118.014 92.1321ZM133.334 92.1321H130.966C129.664 92.1321 128.619 91.7374 127.83 90.9481C127.062 90.1587 126.678 89.1027 126.678 87.7801V80.1641C126.678 78.8414 127.062 77.7854 127.83 76.9961C128.619 76.2067 129.664 75.8121 130.966 75.8121H137.558C137.728 75.8121 137.814 75.9081 137.814 76.1001V91.8441C137.814 92.0361 137.728 92.1321 137.558 92.1321H137.11C136.939 92.1321 136.854 92.0361 136.854 91.8441V90.4681H136.726C136.128 91.5774 134.998 92.1321 133.334 92.1321ZM136.854 87.9081V76.9641C136.854 76.7934 136.758 76.7081 136.566 76.7081H130.966C129.899 76.7081 129.078 77.0174 128.502 77.6361C127.926 78.2547 127.638 79.1081 127.638 80.1961V87.7481C127.638 88.8361 127.926 89.6894 128.502 90.3081C129.078 90.9267 129.899 91.2361 130.966 91.2361H133.27C134.336 91.2361 135.2 90.9481 135.862 90.3721C136.523 89.7961 136.854 88.9747 136.854 87.9081ZM143.639 97.0281H143.191C143.02 97.0281 142.935 96.9321 142.935 96.7401V76.1001C142.935 75.9081 143.02 75.8121 143.191 75.8121H143.639C143.81 75.8121 143.895 75.9081 143.895 76.1001V77.4761H144.023C144.62 76.3667 145.751 75.8121 147.415 75.8121H149.783C151.084 75.8121 152.119 76.2067 152.887 76.9961C153.676 77.7854 154.071 78.8414 154.071 80.1641V87.7801C154.071 89.1027 153.676 90.1587 152.887 90.9481C152.119 91.7374 151.084 92.1321 149.783 92.1321H147.415C145.751 92.1321 144.62 91.5774 144.023 90.4681H143.895V96.7401C143.895 96.9321 143.81 97.0281 143.639 97.0281ZM147.479 91.2361H149.783C150.85 91.2361 151.671 90.9267 152.247 90.3081C152.823 89.6894 153.111 88.8361 153.111 87.7481V80.1961C153.111 79.1081 152.823 78.2547 152.247 77.6361C151.671 77.0174 150.85 76.7081 149.783 76.7081H147.479C146.412 76.7081 145.548 76.9961 144.887 77.5721C144.226 78.1481 143.895 78.9694 143.895 80.0361V87.9081C143.895 88.9747 144.226 89.7961 144.887 90.3721C145.548 90.9481 146.412 91.2361 147.479 91.2361ZM159.577 92.1321H159.129C158.958 92.1321 158.873 92.0361 158.873 91.8441V69.9241C158.873 69.7321 158.958 69.6361 159.129 69.6361H159.577C159.747 69.6361 159.833 69.7321 159.833 69.9241V77.4761H159.961C160.558 76.3667 161.689 75.8121 163.353 75.8121H165.72C167.022 75.8121 168.057 76.2067 168.825 76.9961C169.614 77.7854 170.009 78.8414 170.009 80.1641V91.8441C170.009 92.0361 169.923 92.1321 169.753 92.1321H169.305C169.134 92.1321 169.049 92.0361 169.049 91.8441V80.1961C169.049 79.1081 168.761 78.2547 168.185 77.6361C167.609 77.0174 166.787 76.7081 165.72 76.7081H163.417C162.35 76.7081 161.486 76.9961 160.825 77.5721C160.163 78.1481 159.833 78.9694 159.833 80.0361V91.8441C159.833 92.0361 159.747 92.1321 159.577 92.1321ZM174.294 96.8361C174.102 96.8361 174.006 96.7507 174.006 96.5801V96.1961C174.006 96.0254 174.102 95.9401 174.294 95.9401H175.222C176.076 95.9401 176.673 95.7801 177.014 95.4601C177.377 95.1614 177.644 94.9374 177.814 94.7881C177.985 94.6601 178.166 94.3827 178.358 93.9561C178.572 93.5507 178.71 93.2841 178.774 93.1561C179.158 92.3027 179.404 91.6734 179.51 91.2681H179.19C179.02 91.2681 178.902 91.1721 178.838 90.9801L173.398 76.1001C173.334 75.9081 173.398 75.8121 173.59 75.8121H174.102C174.252 75.8121 174.358 75.9081 174.422 76.1001L179.638 90.3401H179.766L184.982 76.1001C185.046 75.9081 185.153 75.8121 185.302 75.8121H185.814C186.006 75.8121 186.07 75.9081 186.006 76.1001L180.566 90.9801C179.905 92.8787 179.404 94.1054 179.062 94.6601C178.145 96.0894 176.865 96.8147 175.222 96.8361H174.294ZM33.128 134.236H40.008C41.0747 134.236 41.896 133.927 42.472 133.308C43.048 132.689 43.336 131.836 43.336 130.748V118.94C43.336 117.852 43.048 116.999 42.472 116.38C41.896 115.761 41.0747 115.452 40.008 115.452H33.128C32.936 115.452 32.84 115.537 32.84 115.708V133.98C32.84 134.151 32.936 134.236 33.128 134.236ZM31.88 134.844V114.844C31.88 114.652 31.9653 114.556 32.136 114.556H40.008C41.3093 114.556 42.344 114.951 43.112 115.74C43.9013 116.529 44.296 117.585 44.296 118.908V130.78C44.296 132.103 43.9013 133.159 43.112 133.948C42.344 134.737 41.3093 135.132 40.008 135.132H32.136C31.9653 135.132 31.88 135.036 31.88 134.844ZM59.9318 135.132H53.3718C52.0704 135.132 51.0251 134.737 50.2358 133.948C49.4678 133.159 49.0838 132.103 49.0838 130.78V123.164C49.0838 121.841 49.4678 120.785 50.2358 119.996C51.0251 119.207 52.0704 118.812 53.3718 118.812H56.1878C57.4891 118.812 58.5238 119.207 59.2918 119.996C60.0811 120.785 60.4758 121.841 60.4758 123.164V127.228C60.4758 127.441 60.3798 127.548 60.1878 127.548H50.3318C50.1398 127.548 50.0438 127.633 50.0438 127.804V130.748C50.0438 131.836 50.3318 132.689 50.9078 133.308C51.4838 133.927 52.3051 134.236 53.3718 134.236H59.9318C60.1238 134.236 60.2198 134.321 60.2198 134.492V134.876C60.2198 135.047 60.1238 135.132 59.9318 135.132ZM50.3318 126.652H59.2278C59.4198 126.652 59.5158 126.567 59.5158 126.396V123.196C59.5158 122.108 59.2278 121.255 58.6518 120.636C58.0758 120.017 57.2544 119.708 56.1878 119.708H53.3718C52.3051 119.708 51.4838 120.017 50.9078 120.636C50.3318 121.255 50.0438 122.108 50.0438 123.196V126.396C50.0438 126.567 50.1398 126.652 50.3318 126.652ZM70.1785 135.132H64.7385C64.5465 135.132 64.4505 135.047 64.4505 134.876V134.492C64.4505 134.321 64.5465 134.236 64.7385 134.236H70.1785C72.3332 134.236 73.4105 133.383 73.4105 131.676V130.716C73.4105 129.927 73.2718 129.287 72.9945 128.796C72.7172 128.305 72.2158 127.932 71.4905 127.676L67.2665 126.204C66.1572 125.82 65.3785 125.351 64.9305 124.796C64.5038 124.22 64.2905 123.42 64.2905 122.396C64.2905 120.007 65.5918 118.812 68.1945 118.812H73.3465C73.5385 118.812 73.6345 118.897 73.6345 119.068V119.452C73.6345 119.623 73.5385 119.708 73.3465 119.708H68.1945C67.2132 119.708 66.4772 119.932 65.9865 120.38C65.5172 120.828 65.2825 121.34 65.2825 121.916V122.78C65.2825 123.463 65.4532 123.996 65.7945 124.38C66.1572 124.743 66.7118 125.052 67.4585 125.308L71.6505 126.812C72.7812 127.132 73.5172 127.655 73.8585 128.38C74.1998 129.105 74.3705 130.119 74.3705 131.42C74.3705 132.721 74.0292 133.671 73.3465 134.268C72.6638 134.844 71.6078 135.132 70.1785 135.132ZM79.0013 116.156V112.988C79.0013 112.796 79.0866 112.7 79.2573 112.7H79.7053C79.8759 112.7 79.9613 112.796 79.9613 112.988V116.156C79.9613 116.348 79.8759 116.444 79.7053 116.444H79.2573C79.0866 116.444 79.0013 116.348 79.0013 116.156ZM79.0013 134.844V119.1C79.0013 118.908 79.0866 118.812 79.2573 118.812H79.7053C79.8759 118.812 79.9613 118.908 79.9613 119.1V134.844C79.9613 135.036 79.8759 135.132 79.7053 135.132H79.2573C79.0866 135.132 79.0013 135.036 79.0013 134.844ZM91.7435 134.172H89.3755C88.0742 134.172 87.0288 133.777 86.2395 132.988C85.4715 132.199 85.0875 131.143 85.0875 129.82V123.164C85.0875 121.841 85.4715 120.785 86.2395 119.996C87.0288 119.207 88.0742 118.812 89.3755 118.812H95.9675C96.1382 118.812 96.2235 118.908 96.2235 119.1V135.036C96.2235 136.359 95.8288 137.415 95.0395 138.204C94.2715 138.993 93.2368 139.388 91.9355 139.388H86.2075C86.0155 139.388 85.9195 139.303 85.9195 139.132V138.748C85.9195 138.577 86.0155 138.492 86.2075 138.492H91.9355C93.0022 138.492 93.8235 138.183 94.3995 137.564C94.9755 136.945 95.2635 136.092 95.2635 135.004V132.508H95.1355C94.5382 133.617 93.4075 134.172 91.7435 134.172ZM95.2635 129.948V119.964C95.2635 119.793 95.1675 119.708 94.9755 119.708H89.3755C88.3088 119.708 87.4875 120.017 86.9115 120.636C86.3355 121.255 86.0475 122.108 86.0475 123.196V129.788C86.0475 130.876 86.3355 131.729 86.9115 132.348C87.4875 132.967 88.3088 133.276 89.3755 133.276H91.6795C92.7462 133.276 93.6102 132.988 94.2715 132.412C94.9328 131.836 95.2635 131.015 95.2635 129.948ZM102.045 135.132H101.597C101.427 135.132 101.341 135.036 101.341 134.844V119.1C101.341 118.908 101.427 118.812 101.597 118.812H102.045C102.216 118.812 102.301 118.908 102.301 119.1V120.476H102.429C103.027 119.367 104.157 118.812 105.821 118.812H108.189C109.491 118.812 110.525 119.207 111.293 119.996C112.083 120.785 112.477 121.841 112.477 123.164V134.844C112.477 135.036 112.392 135.132 112.221 135.132H111.773C111.603 135.132 111.517 135.036 111.517 134.844V123.196C111.517 122.108 111.229 121.255 110.653 120.636C110.077 120.017 109.256 119.708 108.189 119.708H105.885C104.819 119.708 103.955 119.996 103.293 120.572C102.632 121.148 102.301 121.969 102.301 123.036V134.844C102.301 135.036 102.216 135.132 102.045 135.132Z" fill="white"/>
<defs>
<filter id="filter0_d_289_975" x="0" y="0" width="540" height="170" filterUnits="userSpaceOnUse" color-interpolation-filters="sRGB">
<feFlood flood-opacity="0" result="BackgroundImageFix"/>
<feColorMatrix in="SourceAlpha" type="matrix" values="0 0 0 0 0 0 0 0 0 0 0 0 0 0 0 0 0 0 127 0" result="hardAlpha"/>
<feOffset dy="4"/>
<feGaussianBlur stdDeviation="2"/>
<feComposite in2="hardAlpha" operator="out"/>
<feColorMatrix type="matrix" values="0 0 0 0 0 0 0 0 0 0 0 0 0 0 0 0 0 0 0.25 0"/>
<feBlend mode="normal" in2="BackgroundImageFix" result="effect1_dropShadow_289_975"/>
<feBlend mode="normal" in="SourceGraphic" in2="effect1_dropShadow_289_975" result="shape"/>
</filter>
</defs>
</svg>
