<svg width="445" height="79" viewBox="0 0 445 79" fill="none" xmlns="http://www.w3.org/2000/svg">
<g filter="url(#filter0_d_145_1271)">
<rect x="4" width="437" height="71" rx="10" fill="#1A1919"/>
</g>
<path d="M31.008 47H30.144C29.9733 47 29.856 46.904 29.792 46.712L25.152 26.712C25.1093 26.52 25.1947 26.424 25.408 26.424H25.856C26.0053 26.424 26.112 26.52 26.176 26.712L30.496 45.784H30.624L35.968 26.712C36.032 26.52 36.1493 26.424 36.32 26.424H36.928C37.0987 26.424 37.216 26.52 37.28 26.712L42.656 45.784H42.784L47.104 26.712C47.1467 26.52 47.264 26.424 47.456 26.424H47.936C48.128 26.424 48.192 26.52 48.128 26.712L43.488 46.712C43.4453 46.904 43.3387 47 43.168 47H42.304C42.1333 47 42.016 46.904 41.952 46.712L36.704 27.832H36.576L31.328 46.712C31.264 46.904 31.1573 47 31.008 47ZM52.5453 47H52.0973C51.9266 47 51.8413 46.904 51.8413 46.712V30.968C51.8413 30.776 51.9266 30.68 52.0973 30.68H52.5453C52.7159 30.68 52.8013 30.776 52.8013 30.968V32.408H52.9293C53.1639 31.9813 53.5693 31.5867 54.1453 31.224C54.7426 30.8613 55.5106 30.68 56.4493 30.68H57.7292C57.9213 30.68 58.0173 30.7653 58.0173 30.936V31.32C58.0173 31.4907 57.9213 31.576 57.7292 31.576H56.4173C55.3293 31.576 54.4546 31.9173 53.7933 32.6C53.1319 33.2827 52.8013 34.2107 52.8013 35.384V46.712C52.8013 46.904 52.7159 47 52.5453 47ZM61.6888 28.024V24.856C61.6888 24.664 61.7741 24.568 61.9448 24.568H62.3928C62.5634 24.568 62.6488 24.664 62.6488 24.856V28.024C62.6488 28.216 62.5634 28.312 62.3928 28.312H61.9448C61.7741 28.312 61.6888 28.216 61.6888 28.024ZM61.6888 46.712V30.968C61.6888 30.776 61.7741 30.68 61.9448 30.68H62.3928C62.5634 30.68 62.6488 30.776 62.6488 30.968V46.712C62.6488 46.904 62.5634 47 62.3928 47H61.9448C61.7741 47 61.6888 46.904 61.6888 46.712ZM68.735 31.576H66.623C66.431 31.576 66.335 31.4907 66.335 31.32V30.936C66.335 30.7653 66.431 30.68 66.623 30.68H68.735C68.927 30.68 69.023 30.5947 69.023 30.424V27.928C69.023 27.736 69.1083 27.64 69.279 27.64H69.727C69.8977 27.64 69.983 27.736 69.983 27.928V30.424C69.983 30.5947 70.079 30.68 70.271 30.68H74.399C74.591 30.68 74.687 30.7653 74.687 30.936V31.32C74.687 31.4907 74.591 31.576 74.399 31.576H70.271C70.079 31.576 69.983 31.6613 69.983 31.832V42.712C69.983 43.7787 70.2923 44.6107 70.911 45.208C71.551 45.8053 72.415 46.104 73.503 46.104H74.719C74.911 46.104 75.007 46.1893 75.007 46.36V46.744C75.007 46.9147 74.911 47 74.719 47H73.503C72.1803 47 71.103 46.616 70.271 45.848C69.439 45.08 69.023 44.0453 69.023 42.744V31.832C69.023 31.6613 68.927 31.576 68.735 31.576ZM79.1575 28.024V24.856C79.1575 24.664 79.2428 24.568 79.4135 24.568H79.8615C80.0322 24.568 80.1175 24.664 80.1175 24.856V28.024C80.1175 28.216 80.0322 28.312 79.8615 28.312H79.4135C79.2428 28.312 79.1575 28.216 79.1575 28.024ZM79.1575 46.712V30.968C79.1575 30.776 79.2428 30.68 79.4135 30.68H79.8615C80.0322 30.68 80.1175 30.776 80.1175 30.968V46.712C80.1175 46.904 80.0322 47 79.8615 47H79.4135C79.2428 47 79.1575 46.904 79.1575 46.712ZM86.1078 47H85.6598C85.4891 47 85.4038 46.904 85.4038 46.712V30.968C85.4038 30.776 85.4891 30.68 85.6598 30.68H86.1078C86.2784 30.68 86.3638 30.776 86.3638 30.968V32.344H86.4918C87.0891 31.2347 88.2198 30.68 89.8838 30.68H92.2517C93.5531 30.68 94.5878 31.0747 95.3558 31.864C96.1451 32.6533 96.5398 33.7093 96.5398 35.032V46.712C96.5398 46.904 96.4544 47 96.2838 47H95.8358C95.6651 47 95.5798 46.904 95.5798 46.712V35.064C95.5798 33.976 95.2918 33.1227 94.7158 32.504C94.1398 31.8853 93.3184 31.576 92.2517 31.576H89.9478C88.8811 31.576 88.0171 31.864 87.3558 32.44C86.6944 33.016 86.3638 33.8373 86.3638 34.904V46.712C86.3638 46.904 86.2784 47 86.1078 47ZM107.994 46.04H105.626C104.324 46.04 103.279 45.6453 102.49 44.856C101.722 44.0667 101.338 43.0107 101.338 41.688V35.032C101.338 33.7093 101.722 32.6533 102.49 31.864C103.279 31.0747 104.324 30.68 105.626 30.68H112.218C112.388 30.68 112.474 30.776 112.474 30.968V46.904C112.474 48.2267 112.079 49.2827 111.29 50.072C110.522 50.8613 109.487 51.256 108.186 51.256H102.458C102.266 51.256 102.17 51.1707 102.17 51V50.616C102.17 50.4453 102.266 50.36 102.458 50.36H108.186C109.252 50.36 110.074 50.0507 110.65 49.432C111.226 48.8133 111.514 47.96 111.514 46.872V44.376H111.386C110.788 45.4853 109.658 46.04 107.994 46.04ZM111.514 41.816V31.832C111.514 31.6613 111.418 31.576 111.226 31.576H105.626C104.559 31.576 103.738 31.8853 103.161 32.504C102.586 33.1227 102.298 33.976 102.298 35.064V41.656C102.298 42.744 102.586 43.5973 103.161 44.216C103.738 44.8347 104.559 45.144 105.626 45.144H107.93C108.996 45.144 109.86 44.856 110.522 44.28C111.183 43.704 111.514 42.8827 111.514 41.816Z" fill="white"/>
<defs>
<filter id="filter0_d_145_1271" x="0" y="0" width="445" height="79" filterUnits="userSpaceOnUse" color-interpolation-filters="sRGB">
<feFlood flood-opacity="0" result="BackgroundImageFix"/>
<feColorMatrix in="SourceAlpha" type="matrix" values="0 0 0 0 0 0 0 0 0 0 0 0 0 0 0 0 0 0 127 0" result="hardAlpha"/>
<feOffset dy="4"/>
<feGaussianBlur stdDeviation="2"/>
<feComposite in2="hardAlpha" operator="out"/>
<feColorMatrix type="matrix" values="0 0 0 0 0 0 0 0 0 0 0 0 0 0 0 0 0 0 0.25 0"/>
<feBlend mode="normal" in2="BackgroundImageFix" result="effect1_dropShadow_145_1271"/>
<feBlend mode="normal" in="SourceGraphic" in2="effect1_dropShadow_145_1271" result="shape"/>
</filter>
</defs>
</svg>
