<svg width="333" height="333" viewBox="0 0 333 333" fill="none" xmlns="http://www.w3.org/2000/svg">
<rect x="83.3682" y="48.1481" width="327.681" height="15" rx="5" transform="rotate(44.9276 83.3682 48.1481)" fill="#D9D9D9"/>
<path fill-rule="evenodd" clip-rule="evenodd" d="M333 166.5C333 258.455 258.455 333 166.5 333C74.5446 333 0 258.455 0 166.5C0 74.5446 74.5446 0 166.5 0C258.455 0 333 74.5446 333 166.5ZM229.951 243.999C209.76 264.96 181.403 278 150 278C88.6964 278 39 228.304 39 167C39 105.696 88.6964 56 150 56C182.909 56 212.472 70.321 232.799 93.0708C231.705 93.0238 230.605 93 229.5 93C187.803 93 154 126.802 154 168.5C154 210.197 187.803 244 229.5 244C229.651 244 229.801 244 229.951 243.999ZM229.951 243.999C271.441 243.756 305 210.047 305 168.5C305 127.908 272.966 94.7979 232.799 93.0708C250.338 112.7 261 138.605 261 167C261 196.901 249.177 224.04 229.951 243.999Z" fill="#D9D9D9"/>
<rect x="317.268" y="56.4518" width="331.602" height="15" rx="5" transform="rotate(134.928 317.268 56.4518)" fill="#D9D9D9"/>
<circle cx="195" cy="169" r="21" fill="#2A2A2A"/>
</svg>
